<?xml version="1.0" encoding="UTF-8" standalone="no"?>
<svg id="Layer_1" height="284.05106" viewBox="0 0 350 284.05106" width="350" xmlns="http://www.w3.org/2000/svg" xmlns:xlink="http://www.w3.org/1999/xlink">
   <defs id="defs19">
      <clipPath id="SVGID_2_">
         <use id="use7" height="100%" overflow="visible" width="100%" xlink:href="#SVGID_1_"/>
      </clipPath>
      <rect id="SVGID_1_" height="594.09998" width="594.09998" x="100.3" y="-65.5"/>
   </defs>
   <g id="g14" transform="matrix(.61445569 0 0 .61445569 -69.092523 -4.8819037)">
      <path id="path10" clip-path="url(#SVGID_2_)" d="m496 289.7c-27 21.9-61.3 35-98.7 35-37.4 0-71.8-13.1-98.7-35 6.1 1.4 12.3 2.1 18.6 2.1 2.4 0 4.8-.1 7.2-.3 21.4 12.7 46.3 19.9 73 19.9 26.6 0 51.6-7.3 73-19.9 2.4.2 4.7.3 7.2.3 6.1 0 12.3-.8 18.4-2.1zm-98.8-278.5c43.3 0 82.4 17.5 110.8 45.9 17.9 17.9 31.5 40.1 39.1 65h-14c-7.2-21.2-19-40.1-34.5-55.6-26-26-61.8-42-101.4-42-39.6 0-75.4 16.1-101.4 42-15.5 15.4-27.4 34.4-34.5 55.6h-14c7.6-24.8 21.2-47 39.1-65 28.4-28.3 67.6-45.9 110.8-45.9zm0 30.3c34.9 0 66.6 14.2 89.5 37.1 12.3 12.3 22.1 27.1 28.5 43.5h-22.8c-5.2-10.7-12.2-20.5-20.5-28.8-19.1-19.1-45.5-30.9-74.7-30.9-29.2 0-55.6 11.8-74.7 30.9-8.3 8.3-15.3 18.1-20.5 28.8h-22.8c6.4-16.4 16.2-31.3 28.5-43.5 23-22.9 54.7-37.1 89.5-37.1zm-50.4 163.5h-131.4-7.8c-14.2-1.3-25.6-13.1-26.5-27.2h141.5c5.8 1.1 11.3 4 15.5 8.3 5.1 5 8.2 11.7 8.7 18.9zm-69.9 12.4c1.9 7.2 5.7 13.8 10.9 18.9 7.6 7.6 17.9 12.2 29.4 12.2 11.4 0 21.8-4.7 29.4-12.2 7.6-7.5 12.2-17.9 12.2-29.4 0-11.5-4.7-21.8-12.2-29.4-7.5-7.6-17.9-12.2-29.4-12.2h-167.2-7.8c-14.2-1.3-25.6-13.1-26.5-27.2h201.5c19 0 36.2 7.8 48.6 20.2 12.4 12.4 20.2 29.7 20.2 48.6 0 19-7.7 36.2-20.2 48.6-12.4 12.4-29.7 20.2-48.6 20.2-19 0-36.2-7.8-48.6-20.2-10.1-10.1-17.1-23.4-19.4-38.2h27.7zm170.9-12.4h131.3 7.8c14.2-1.3 25.6-13.1 26.5-27.2h-141.4c-5.8 1.1-11.3 4-15.5 8.3-5.2 5-8.3 11.7-8.7 18.9zm69.8 12.4c-1.9 7.2-5.7 13.8-10.9 18.9-7.6 7.6-17.9 12.2-29.4 12.2-11.5 0-21.8-4.7-29.4-12.2-7.6-7.5-12.2-17.9-12.2-29.4 0-11.5 4.7-21.8 12.2-29.4 7.5-7.6 17.9-12.2 29.4-12.2h167.2 7.8c14.2-1.3 25.6-13.1 26.5-27.2h-201.4c-19 0-36.2 7.8-48.6 20.2-12.4 12.4-20.2 29.7-20.2 48.6 0 19 7.8 36.2 20.2 48.6 12.4 12.4 29.7 20.2 48.6 20.2 19 0 36.2-7.8 48.6-20.2 10.1-10.1 17.1-23.4 19.4-38.2h-27.8z"/>
      <path id="path12" clip-path="url(#SVGID_2_)" d="m584.9 426.2c0 12.4-10.1 22.5-22.5 22.5h-14.5v-47.4h14.5c12.4 0 22.5 10.1 22.5 22.5zm-24-40.5h-30.4v78.7h30.4c21.7 0 42.1-14 42.1-39.3 0-25.3-20.3-39.4-42.1-39.4zm-117.9 38.3h-16.7v-22.7h16.7c6.3 0 14.1 1.5 14.1 11.3 0 9.9-7.8 11.4-14.1 11.4zm31.7-12.1c0-17.1-11.6-26.2-29.7-26.2h-36v78.7h17.3v-25.1h13.6l12.7 20.4c5.4 7.7 15.7 9.2 23.7 4.9l-18.4-28.1c4.9-2.1 16.8-7.9 16.8-24.6zm-143.8-26.2h17.3v78.7h-17.3zm-91.1 63.5h-17.1v-17.3h17.1c5.3 0 15.8-.5 15.8 8.7 0 9.2-10.5 8.6-15.8 8.6zm-17-48.3h14.8c4.6 0 13.7 0 13.7 8.3 0 8.3-9.1 8.3-13.7 8.3h-14.8zm35.2 22.4c7-4.2 10.2-9.4 10.2-16.2 0-.2 0-.6 0-.8 0-13.6-11.3-20.6-25.4-20.6h-51.4c.5 7.8 6.1 14.4 14.4 15 0 11.9 0 63.7 0 63.7 0 0 33.6 0 37.3 0 21.5 0 29.4-10 29.4-21.6.2-10.9-5-15.7-14.5-19.5z"/>
   </g>
</svg>
