<svg width="266" height="36" viewBox="0 0 266 36" fill="none" xmlns="http://www.w3.org/2000/svg">
<path d="M19.3509 12.8873C18.6818 12.7752 18.2233 12.1471 18.4319 11.5123C18.6503 10.8473 18.9527 10.2101 19.333 9.61595C19.932 8.6801 20.7127 7.86936 21.6306 7.23003C22.5485 6.5907 23.5855 6.1353 24.6824 5.88982C25.7794 5.64435 26.9148 5.61361 28.0238 5.79936C29.1329 5.98511 30.1938 6.38371 31.1461 6.9724C32.0984 7.5611 32.9234 8.32836 33.574 9.23038C34.2245 10.1324 34.6879 11.1515 34.9377 12.2295C35.0963 12.9139 35.1668 13.6136 35.1488 14.3121C35.1316 14.979 34.4873 15.4224 33.8182 15.3103L19.3509 12.8873Z" fill="#302F4A"/>
<path d="M1.70175 27.4634C1.05275 27.6588 0.358756 27.3008 0.227268 26.6463C0.00240793 25.5272 -0.0564248 24.3797 0.0544738 23.2399C0.204448 21.6984 0.661902 20.2011 1.40071 18.8333C2.13953 17.4656 3.14523 16.2543 4.36041 15.2685C5.57558 14.2828 6.97643 13.5419 8.48297 13.0882C9.9895 12.6344 11.5722 12.4768 13.1408 12.6241C14.7093 12.7715 16.2329 13.2211 17.6247 13.9471C19.0164 14.6732 20.249 15.6616 21.2521 16.8558C21.9938 17.7388 22.5993 18.7216 23.0512 19.7724C23.3154 20.3869 22.9447 21.0656 22.2957 21.2611L1.70175 27.4634Z" fill="#302F4A"/>
<path d="M27.2089 20.5542C26.7214 21.0184 26.8751 21.7811 27.4368 22.1556L35.3314 27.4203C35.893 27.7948 36.671 27.6534 36.9299 27.0368C37.0729 26.6961 37.1835 26.3422 37.2596 25.9795C37.4188 25.2212 37.4245 24.4396 37.2764 23.6791C37.1282 22.9187 36.8291 22.1944 36.3961 21.5476C35.9631 20.9008 35.4047 20.3441 34.7527 19.9093C34.1008 19.4746 33.3681 19.1703 32.5965 19.0138C31.825 18.8573 31.0296 18.8518 30.2558 18.9974C29.482 19.143 28.745 19.4369 28.0868 19.8625C27.772 20.066 27.4782 20.2977 27.2089 20.5542Z" fill="#302F4A"/>
<path fill-rule="evenodd" clip-rule="evenodd" d="M53.8165 8.37179H45.9189V26.8247H50.002V20.8322H53.8165C55.9656 20.8322 57.6669 20.2954 58.9205 19.2218C60.192 18.1482 60.8277 16.6083 60.8277 14.602C60.8277 12.6484 60.192 11.1261 58.9205 10.0349C57.649 8.92617 55.9476 8.37179 53.8165 8.37179ZM56.6909 14.602C56.6909 16.5203 55.5357 17.4795 53.2255 17.4795H50.002V11.7245H53.2255C54.3001 11.7245 55.1418 11.9357 55.7506 12.3581C56.3774 12.7804 56.6909 13.5284 56.6909 14.602Z" fill="#302F4A"/>
<path fill-rule="evenodd" clip-rule="evenodd" d="M61.3734 26.0592C62.3762 26.8335 63.6657 27.2207 65.2416 27.2207C67.0862 27.2207 68.5547 26.7015 69.6471 25.6632V26.8247H73.4616V19.1162C73.4616 17.4267 72.8886 16.1155 71.7424 15.1828C70.5963 14.2324 68.8591 13.7572 66.531 13.7572C65.6177 13.7572 64.7044 13.8452 63.791 14.0212C62.8777 14.1796 62.1345 14.382 61.5614 14.6284V17.5323C62.8866 16.9515 64.3372 16.6611 65.9132 16.6611C67.0951 16.6611 67.9727 16.8459 68.5457 17.2155C69.1188 17.5851 69.4053 18.1658 69.4053 18.9578V19.2746C68.8681 18.993 68.2503 18.773 67.5518 18.6146C66.8534 18.4562 66.1191 18.377 65.3491 18.377C63.6119 18.377 62.2688 18.773 61.3196 19.565C60.3705 20.3394 59.8959 21.4305 59.8959 22.8385C59.8959 24.1936 60.3884 25.2672 61.3734 26.0592ZM68.1428 24.2112C67.6055 24.4576 67.0056 24.5808 66.343 24.5808C65.6087 24.5808 65.0446 24.4312 64.6506 24.132C64.2566 23.8329 64.0596 23.4017 64.0596 22.8385C64.0596 22.2401 64.2566 21.7913 64.6506 21.4921C65.0625 21.1753 65.6446 21.0169 66.3967 21.0169C67.4891 21.0169 68.492 21.3161 69.4053 21.9145V23.1817C69.1009 23.6217 68.6801 23.9648 68.1428 24.2112Z" fill="#302F4A"/>
<path d="M75.341 14.1532H79.2629V15.9747C79.7823 15.3587 80.5076 14.8924 81.4388 14.5756C82.3288 14.256 83.3333 14.1615 84.4523 14.1537L86.3327 14.1532V10.3517H90.389V14.1532H93.4245V17.0307H90.389V22.0465C90.389 22.7857 90.5322 23.3225 90.8188 23.6569C91.1053 23.9736 91.6157 24.3696 92.35 24.3696H92.6959V27.2207L90.9262 27.2207C89.4219 27.2207 88.2758 26.8159 87.4878 26.0064C86.7177 25.1792 86.3327 24.0352 86.3327 22.5745V17.0307H84.5996C83.3676 17.032 82.2782 17.2956 81.3314 17.6643C80.4001 18.0339 79.7554 18.597 79.3973 19.3538V26.8247H75.341V14.1532Z" fill="#302F4A"/>
<path d="M94.3077 27.2207L99.6975 27.2207C101.632 27.2207 103.109 26.8775 104.13 26.1912C105.151 25.4872 105.661 24.5544 105.661 23.3929C105.661 22.6361 105.527 22.0113 105.258 21.5185C105.007 21.0082 104.569 20.577 103.942 20.225C103.315 19.8554 102.437 19.521 101.309 19.2218L100.772 19.0898C99.7154 18.8258 98.9901 18.6058 98.5961 18.4298C98.22 18.2538 98.032 17.9987 98.032 17.6643C98.032 17.2771 98.229 17.0131 98.623 16.8723C99.0349 16.7315 99.6079 16.6611 100.342 16.6611C101.13 16.6611 101.936 16.7667 102.76 16.9779C103.602 17.1891 104.282 17.4619 104.801 17.7963V14.7604C104.282 14.4612 103.539 14.2236 102.572 14.0476C101.623 13.854 100.7 13.7572 99.8049 13.7572C97.9783 13.7572 96.5277 14.0916 95.4532 14.7604C94.3966 15.4115 93.8683 16.3971 93.8683 17.7171C93.8683 18.4914 94.0205 19.125 94.3249 19.6178C94.6473 20.1106 95.1129 20.5242 95.7218 20.8586C96.3486 21.1753 97.2082 21.4921 98.3006 21.8089C99.2319 22.0729 99.8945 22.2753 100.288 22.4161C100.7 22.5393 101.005 22.6889 101.202 22.8649C101.399 23.0233 101.497 23.2345 101.497 23.4985C101.497 23.8329 101.327 24.0616 100.987 24.1848C100.647 24.308 100.109 24.3696 99.3751 24.3696C99.0962 24.3696 98.8229 24.3733 98.5425 24.3771C97.9588 24.3851 97.344 24.3934 96.5814 24.3696H94.3077V27.2207Z" fill="#302F4A"/>
<path d="M134.029 26.8258C132.956 26.8258 131.892 26.7292 130.838 26.5359C129.801 26.3603 128.952 26.1143 128.291 25.7981V23.3739C130.007 24.1644 131.857 24.5597 133.841 24.5597C136.629 24.5597 138.024 23.6374 138.024 21.7929C138.024 21.1605 137.872 20.651 137.568 20.2646C137.264 19.8781 136.826 19.5443 136.254 19.2633C135.682 18.9646 134.753 18.5606 133.466 18.0511C131.696 17.3485 130.418 16.5755 129.631 15.7323C128.845 14.8891 128.451 13.8263 128.451 12.5439C128.451 11.5777 128.72 10.7258 129.256 9.98795C129.792 9.23257 130.543 8.65287 131.508 8.24883C132.473 7.82722 133.582 7.61642 134.833 7.61642C135.852 7.61642 136.772 7.69547 137.595 7.85357C138.417 8.01168 139.221 8.26639 140.008 8.61773V10.9366C138.453 10.2515 136.88 9.9089 135.289 9.9089C134.002 9.9089 133.019 10.1373 132.339 10.594C131.66 11.0507 131.32 11.7007 131.32 12.5439C131.32 13.1236 131.463 13.6155 131.749 14.0195C132.053 14.406 132.491 14.7574 133.063 15.0736C133.653 15.3722 134.52 15.7499 135.664 16.2066C136.933 16.7161 137.934 17.1991 138.667 17.6559C139.4 18.1126 139.954 18.6748 140.33 19.3423C140.723 19.9923 140.92 20.8091 140.92 21.7929C140.92 23.3915 140.339 24.6299 139.177 25.5083C138.015 26.3866 136.299 26.8258 134.029 26.8258Z" fill="#302F4A"/>
<path d="M117.491 26.8258C115.632 26.8258 113.951 26.4305 112.45 25.64C110.948 24.8319 109.769 23.6989 108.911 22.2408C108.053 20.7828 107.623 19.1139 107.623 17.2343C107.623 15.3546 108.053 13.6858 108.911 12.2277C109.769 10.7697 110.948 9.63661 112.45 8.82853C113.951 8.02046 115.632 7.61642 117.491 7.61642C119.35 7.61642 121.03 8.02046 122.532 8.82853C124.033 9.63661 125.213 10.7697 126.071 12.2277C126.929 13.6858 127.358 15.3546 127.358 17.2343C127.358 19.1139 126.929 20.7828 126.071 22.2408C125.213 23.6989 124.033 24.8319 122.532 25.64C121.03 26.4305 119.35 26.8258 117.491 26.8258ZM117.491 24.4016C118.814 24.4016 120.011 24.1117 121.084 23.532C122.174 22.9347 123.032 22.1003 123.658 21.0287C124.283 19.9396 124.596 18.6748 124.596 17.2343C124.596 15.8114 124.283 14.5641 123.658 13.4925C123.05 12.4034 122.21 11.569 121.137 10.9893C120.065 10.392 118.867 10.0933 117.544 10.0933C116.204 10.0933 114.988 10.3832 113.898 10.9629C112.825 11.5426 111.967 12.377 111.324 13.4662C110.698 14.5553 110.385 15.8114 110.385 17.2343C110.385 18.6748 110.698 19.9396 111.324 21.0287C111.949 22.1003 112.798 22.9347 113.871 23.532C114.961 24.1117 116.168 24.4016 117.491 24.4016Z" fill="#302F4A"/>
<path d="M157.529 27.3985C155.616 27.3985 153.916 27 152.428 26.203C150.941 25.406 149.78 24.2813 148.948 22.829C148.116 21.359 147.699 19.6587 147.699 17.7282C147.699 15.7977 148.116 14.0974 148.948 12.6274C149.78 11.1573 150.941 10.0238 152.428 9.22681C153.916 8.4298 155.616 8.0313 157.529 8.0313C160.08 8.0313 162.214 8.67776 163.932 9.97068V12.5742C162.391 11.2105 160.336 10.5286 157.768 10.5286C156.334 10.5286 155.058 10.8208 153.943 11.4053C152.845 11.9898 151.986 12.831 151.366 13.9291C150.746 15.0095 150.436 16.2759 150.436 17.7282C150.436 19.1805 150.746 20.4557 151.366 21.5538C152.003 22.6519 152.871 23.4932 153.969 24.0777C155.085 24.6621 156.351 24.9544 157.768 24.9544C159.079 24.9544 160.248 24.7861 161.275 24.4496C162.32 24.0954 163.285 23.5375 164.171 22.7759V25.406C162.577 26.7343 160.363 27.3985 157.529 27.3985ZM170.164 27.3985C168.446 27.3985 167.144 26.938 166.258 26.017C165.39 25.096 164.956 23.8651 164.956 22.3242V14.2479H167.64V22.218C167.64 24.2548 168.658 25.2732 170.695 25.2732C172.484 25.2732 173.883 24.4673 174.892 22.8556V14.2479H177.576V27H174.972V25.1935C174.37 25.955 173.653 26.5129 172.82 26.8672C172.005 27.2214 171.12 27.3985 170.164 27.3985ZM184.393 27.3985C183.507 27.3985 182.569 27.2834 181.577 27.0531C180.585 26.8406 179.806 26.5484 179.239 26.1764V23.8917C179.93 24.299 180.727 24.6356 181.63 24.9012C182.533 25.1492 183.41 25.2732 184.26 25.2732C185.217 25.2732 185.916 25.158 186.359 24.9278C186.802 24.6975 187.023 24.3256 187.023 23.812C187.023 23.4223 186.917 23.1124 186.704 22.8821C186.509 22.6342 186.164 22.4128 185.668 22.218C185.19 22.0232 184.464 21.7929 183.49 21.5272C182.445 21.2261 181.612 20.9251 180.992 20.624C180.39 20.3052 179.93 19.9067 179.611 19.4285C179.31 18.9503 179.159 18.3304 179.159 17.5688C179.159 16.3467 179.637 15.4257 180.594 14.8058C181.568 14.1682 182.87 13.8494 184.499 13.8494C185.349 13.8494 186.182 13.9291 186.996 14.0885C187.811 14.2479 188.467 14.4693 188.962 14.7527V16.9843C188.449 16.6832 187.811 16.4441 187.05 16.267C186.306 16.0899 185.544 16.0013 184.765 16.0013C183.826 16.0013 183.109 16.1165 182.613 16.3467C182.117 16.577 181.869 16.9843 181.869 17.5688C181.869 17.9407 181.975 18.2418 182.188 18.4721C182.4 18.7023 182.737 18.906 183.197 19.0831C183.676 19.2425 184.428 19.455 185.456 19.7207C187.067 20.1635 188.183 20.686 188.803 21.2881C189.441 21.8903 189.759 22.7227 189.759 23.7854C189.759 24.8835 189.308 25.7602 188.405 26.4155C187.501 27.0708 186.164 27.3985 184.393 27.3985ZM195.886 27.3985C194.593 27.3985 193.592 27.0266 192.884 26.2827C192.193 25.5388 191.848 24.485 191.848 23.1212V16.3201H189.908V14.2479H191.848V10.4223H194.558V14.2479H197.693V16.3201H194.558V22.9353C194.558 23.7854 194.717 24.3876 195.036 24.7418C195.372 25.096 195.975 25.2732 196.842 25.2732C197.356 25.2732 197.87 25.158 198.383 24.9278V27.0531C197.71 27.2834 196.878 27.3985 195.886 27.3985ZM206.171 27.3985C204.736 27.3985 203.47 27.1328 202.372 26.6015C201.292 26.0525 200.442 25.2732 199.822 24.2636C199.219 23.2364 198.918 22.032 198.918 20.6505C198.918 19.2868 199.219 18.0913 199.822 17.064C200.424 16.0368 201.274 15.2486 202.372 14.6996C203.47 14.1328 204.736 13.8494 206.171 13.8494C207.606 13.8494 208.872 14.1328 209.97 14.6996C211.068 15.2486 211.918 16.0368 212.521 17.064C213.14 18.0913 213.45 19.2868 213.45 20.6505C213.45 22.032 213.14 23.2364 212.521 24.2636C211.918 25.2732 211.068 26.0525 209.97 26.6015C208.872 27.1328 207.606 27.3985 206.171 27.3985ZM206.171 25.2732C207.553 25.2732 208.651 24.8481 209.465 23.998C210.28 23.1478 210.687 22.032 210.687 20.6505C210.687 19.2159 210.28 18.0824 209.465 17.25C208.651 16.4176 207.553 16.0013 206.171 16.0013C204.79 16.0013 203.692 16.4176 202.877 17.25C202.062 18.0824 201.655 19.2159 201.655 20.6505C201.655 22.032 202.062 23.1478 202.877 23.998C203.692 24.8481 204.79 25.2732 206.171 25.2732ZM215.037 14.2479H217.587V16.081C218.19 15.3372 218.871 14.7793 219.633 14.4073C220.395 14.0354 221.183 13.8494 221.997 13.8494C223.025 13.8494 223.839 14.0265 224.442 14.3808C225.044 14.7173 225.487 15.2398 225.77 15.9482C226.337 15.2575 227.027 14.735 227.842 14.3808C228.675 14.0265 229.507 13.8494 230.339 13.8494C231.898 13.8494 233.023 14.2479 233.713 15.0449C234.404 15.8242 234.75 16.9843 234.75 18.5252V27H232.146V18.8706C232.146 17.8256 231.951 17.0906 231.561 16.6655C231.172 16.2227 230.508 16.0013 229.569 16.0013C228.223 16.0013 227.125 16.5858 226.275 17.7548C226.31 18.0204 226.328 18.4543 226.328 19.0565V27H223.724V18.8706C223.724 17.8256 223.547 17.0906 223.193 16.6655C222.839 16.2227 222.201 16.0013 221.28 16.0013C219.934 16.0013 218.73 16.7629 217.667 18.2861V27H215.037V14.2479ZM241.449 27.3985C240.564 27.3985 239.625 27.2834 238.633 27.0531C237.641 26.8406 236.862 26.5484 236.295 26.1764V23.8917C236.986 24.299 237.783 24.6356 238.686 24.9012C239.59 25.1492 240.466 25.2732 241.316 25.2732C242.273 25.2732 242.972 25.158 243.415 24.9278C243.858 24.6975 244.079 24.3256 244.079 23.812C244.079 23.4223 243.973 23.1124 243.761 22.8821C243.566 22.6342 243.22 22.4128 242.725 22.218C242.246 22.0232 241.52 21.7929 240.546 21.5272C239.501 21.2261 238.669 20.9251 238.049 20.624C237.447 20.3052 236.986 19.9067 236.667 19.4285C236.366 18.9503 236.216 18.3304 236.216 17.5688C236.216 16.3467 236.694 15.4257 237.65 14.8058C238.624 14.1682 239.926 13.8494 241.556 13.8494C242.406 13.8494 243.238 13.9291 244.053 14.0885C244.868 14.2479 245.523 14.4693 246.019 14.7527V16.9843C245.505 16.6832 244.868 16.4441 244.106 16.267C243.362 16.0899 242.601 16.0013 241.821 16.0013C240.883 16.0013 240.165 16.1165 239.669 16.3467C239.173 16.577 238.925 16.9843 238.925 17.5688C238.925 17.9407 239.032 18.2418 239.244 18.4721C239.457 18.7023 239.793 18.906 240.254 19.0831C240.732 19.2425 241.485 19.455 242.512 19.7207C244.124 20.1635 245.24 20.686 245.859 21.2881C246.497 21.8903 246.816 22.7227 246.816 23.7854C246.816 24.8835 246.364 25.7602 245.461 26.4155C244.558 27.0708 243.22 27.3985 241.449 27.3985Z" fill="#FA9349"/>
</svg>
