<svg width="266" height="36" viewBox="0 0 266 36" fill="none" xmlns="http://www.w3.org/2000/svg">
<path d="M19.3509 12.8873C18.6818 12.7752 18.2233 12.1471 18.4319 11.5123C18.6503 10.8473 18.9527 10.2101 19.333 9.61595C19.932 8.6801 20.7127 7.86936 21.6306 7.23003C22.5485 6.5907 23.5855 6.1353 24.6824 5.88982C25.7794 5.64435 26.9148 5.61361 28.0238 5.79936C29.1329 5.98511 30.1938 6.38371 31.1461 6.9724C32.0984 7.5611 32.9234 8.32836 33.5739 9.23038C34.2245 10.1324 34.6879 11.1515 34.9377 12.2295C35.0963 12.9139 35.1668 13.6136 35.1488 14.3121C35.1316 14.979 34.4873 15.4224 33.8182 15.3103L19.3509 12.8873Z" fill="#302F4A"/>
<path d="M1.70175 27.4634C1.05275 27.6588 0.358755 27.3008 0.227268 26.6463C0.00240793 25.5272 -0.0564248 24.3797 0.0544738 23.2399C0.204448 21.6984 0.661901 20.2011 1.40071 18.8333C2.13953 17.4656 3.14523 16.2543 4.36041 15.2685C5.57558 14.2828 6.97643 13.5419 8.48296 13.0881C9.9895 12.6344 11.5722 12.4768 13.1408 12.6241C14.7093 12.7715 16.2329 13.2211 17.6247 13.9471C19.0164 14.6732 20.249 15.6616 21.2521 16.8557C21.9938 17.7388 22.5993 18.7216 23.0512 19.7724C23.3154 20.3869 22.9447 21.0656 22.2957 21.2611L1.70175 27.4634Z" fill="#302F4A"/>
<path d="M27.2089 20.5542C26.7214 21.0184 26.8751 21.7811 27.4368 22.1556L35.3313 27.4203C35.893 27.7948 36.6709 27.6534 36.9299 27.0368C37.0729 26.6961 37.1835 26.3422 37.2596 25.9795C37.4188 25.2212 37.4245 24.4396 37.2764 23.6791C37.1282 22.9187 36.8291 22.1944 36.3961 21.5476C35.963 20.9008 35.4046 20.3441 34.7527 19.9093C34.1008 19.4746 33.3681 19.1703 32.5965 19.0138C31.8249 18.8573 31.0295 18.8517 30.2558 18.9974C29.482 19.143 28.7449 19.4369 28.0868 19.8625C27.772 20.066 27.4782 20.2977 27.2089 20.5542Z" fill="#302F4A"/>
<path fill-rule="evenodd" clip-rule="evenodd" d="M53.8165 8.37179H45.9188V26.8247H50.002V20.8322H53.8165C55.9655 20.8322 57.6668 20.2954 58.9204 19.2218C60.1919 18.1482 60.8277 16.6083 60.8277 14.602C60.8277 12.6484 60.1919 11.1261 58.9204 10.0349C57.6489 8.92617 55.9476 8.37179 53.8165 8.37179ZM56.6908 14.602C56.6908 16.5203 55.5357 17.4795 53.2255 17.4795H50.002V11.7245H53.2255C54.3 11.7245 55.1417 11.9357 55.7506 12.3581C56.3774 12.7804 56.6908 13.5284 56.6908 14.602Z" fill="#302F4A"/>
<path fill-rule="evenodd" clip-rule="evenodd" d="M61.3733 26.0592C62.3762 26.8335 63.6656 27.2207 65.2416 27.2207C67.0862 27.2207 68.5547 26.7015 69.6471 25.6632V26.8247H73.4616V19.1162C73.4616 17.4267 72.8885 16.1155 71.7424 15.1828C70.5962 14.2324 68.8591 13.7572 66.531 13.7572C65.6177 13.7572 64.7043 13.8452 63.791 14.0212C62.8777 14.1796 62.1345 14.382 61.5614 14.6284V17.5323C62.8866 16.9515 64.3372 16.6611 65.9132 16.6611C67.0951 16.6611 67.9726 16.8459 68.5457 17.2155C69.1188 17.5851 69.4053 18.1658 69.4053 18.9578V19.2746C68.8681 18.993 68.2502 18.773 67.5518 18.6146C66.8534 18.4562 66.1191 18.377 65.349 18.377C63.6119 18.377 62.2688 18.773 61.3196 19.565C60.3705 20.3394 59.8959 21.4305 59.8959 22.8385C59.8959 24.1936 60.3884 25.2672 61.3733 26.0592ZM68.1428 24.2112C67.6055 24.4576 67.0056 24.5808 66.343 24.5808C65.6087 24.5808 65.0446 24.4312 64.6506 24.132C64.2566 23.8328 64.0596 23.4017 64.0596 22.8385C64.0596 22.2401 64.2566 21.7913 64.6506 21.4921C65.0625 21.1753 65.6445 21.0169 66.3967 21.0169C67.4891 21.0169 68.492 21.3161 69.4053 21.9145V23.1817C69.1009 23.6217 68.68 23.9648 68.1428 24.2112Z" fill="#302F4A"/>
<path d="M75.341 14.1532H79.2629V15.9747C79.7823 15.3587 80.5076 14.8924 81.4388 14.5756C82.3288 14.256 83.3333 14.1615 84.4523 14.1537L86.3327 14.1532V10.3517H90.3889V14.1532H93.4244V17.0307H90.3889V22.0465C90.3889 22.7857 90.5322 23.3225 90.8187 23.6569C91.1053 23.9736 91.6157 24.3696 92.3499 24.3696H92.6959V27.2207L90.9262 27.2207C89.4219 27.2207 88.2757 26.8159 87.4878 26.0064C86.7177 25.1792 86.3327 24.0352 86.3327 22.5745V17.0307H84.5996C83.3676 17.032 82.2782 17.2956 81.3314 17.6643C80.4001 18.0339 79.7554 18.597 79.3972 19.3538V26.8247H75.341V14.1532Z" fill="#302F4A"/>
<path d="M94.3077 27.2207L99.6975 27.2207C101.632 27.2207 103.109 26.8775 104.13 26.1912C105.151 25.4872 105.661 24.5544 105.661 23.3929C105.661 22.6361 105.527 22.0113 105.258 21.5185C105.007 21.0081 104.569 20.577 103.942 20.225C103.315 19.8554 102.437 19.521 101.309 19.2218L100.772 19.0898C99.7154 18.8258 98.9901 18.6058 98.5961 18.4298C98.22 18.2538 98.032 17.9987 98.032 17.6643C98.032 17.2771 98.229 17.0131 98.6229 16.8723C99.0348 16.7315 99.6079 16.6611 100.342 16.6611C101.13 16.6611 101.936 16.7667 102.76 16.9779C103.602 17.1891 104.282 17.4619 104.801 17.7963V14.7604C104.282 14.4612 103.539 14.2236 102.572 14.0476C101.623 13.854 100.7 13.7572 99.8049 13.7572C97.9782 13.7572 96.5276 14.0916 95.4531 14.7604C94.3965 15.4115 93.8682 16.3971 93.8682 17.7171C93.8682 18.4914 94.0204 19.125 94.3249 19.6178C94.6472 20.1106 95.1129 20.5242 95.7218 20.8586C96.3486 21.1753 97.2082 21.4921 98.3006 21.8089C99.2318 22.0729 99.8944 22.2753 100.288 22.4161C100.7 22.5393 101.005 22.6889 101.202 22.8649C101.399 23.0233 101.497 23.2345 101.497 23.4985C101.497 23.8328 101.327 24.0616 100.987 24.1848C100.647 24.308 100.109 24.3696 99.3751 24.3696C99.0961 24.3696 98.8229 24.3733 98.5424 24.3771C97.9588 24.3851 97.3439 24.3934 96.5814 24.3696H94.3077V27.2207Z" fill="#302F4A"/>
<path d="M134.029 26.8258C132.956 26.8258 131.892 26.7292 130.838 26.5359C129.801 26.3603 128.952 26.1143 128.291 25.7981V23.3739C130.007 24.1644 131.857 24.5597 133.841 24.5597C136.629 24.5597 138.024 23.6374 138.024 21.7929C138.024 21.1605 137.872 20.651 137.568 20.2646C137.264 19.8781 136.826 19.5443 136.254 19.2632C135.682 18.9646 134.753 18.5606 133.465 18.0511C131.696 17.3485 130.418 16.5755 129.631 15.7323C128.845 14.8891 128.451 13.8263 128.451 12.5439C128.451 11.5777 128.72 10.7258 129.256 9.98795C129.792 9.23257 130.543 8.65286 131.508 8.24883C132.473 7.82722 133.582 7.61642 134.833 7.61642C135.852 7.61642 136.772 7.69547 137.595 7.85357C138.417 8.01167 139.221 8.26639 140.008 8.61773V10.9366C138.453 10.2514 136.88 9.9089 135.289 9.9089C134.002 9.9089 133.019 10.1373 132.339 10.594C131.66 11.0507 131.32 11.7007 131.32 12.5439C131.32 13.1236 131.463 13.6155 131.749 14.0195C132.053 14.406 132.491 14.7573 133.063 15.0736C133.653 15.3722 134.52 15.7499 135.664 16.2066C136.933 16.7161 137.934 17.1991 138.667 17.6559C139.4 18.1126 139.954 18.6748 140.33 19.3423C140.723 19.9923 140.92 20.8091 140.92 21.7929C140.92 23.3915 140.339 24.6299 139.177 25.5083C138.015 26.3866 136.299 26.8258 134.029 26.8258Z" fill="#302F4A"/>
<path d="M117.491 26.8258C115.632 26.8258 113.951 26.4305 112.45 25.64C110.948 24.8319 109.769 23.6989 108.91 22.2408C108.052 20.7828 107.623 19.1139 107.623 17.2343C107.623 15.3546 108.052 13.6858 108.91 12.2277C109.769 10.7697 110.948 9.63661 112.45 8.82853C113.951 8.02046 115.632 7.61642 117.491 7.61642C119.35 7.61642 121.03 8.02046 122.532 8.82853C124.033 9.63661 125.213 10.7697 126.071 12.2277C126.929 13.6858 127.358 15.3546 127.358 17.2343C127.358 19.1139 126.929 20.7828 126.071 22.2408C125.213 23.6989 124.033 24.8319 122.532 25.64C121.03 26.4305 119.35 26.8258 117.491 26.8258ZM117.491 24.4016C118.813 24.4016 120.011 24.1117 121.084 23.532C122.174 22.9347 123.032 22.1003 123.658 21.0287C124.283 19.9396 124.596 18.6748 124.596 17.2343C124.596 15.8114 124.283 14.5641 123.658 13.4925C123.05 12.4034 122.21 11.569 121.137 10.9893C120.065 10.392 118.867 10.0933 117.544 10.0933C116.204 10.0933 114.988 10.3832 113.898 10.9629C112.825 11.5426 111.967 12.377 111.324 13.4662C110.698 14.5553 110.385 15.8114 110.385 17.2343C110.385 18.6748 110.698 19.9396 111.324 21.0287C111.949 22.1003 112.798 22.9347 113.871 23.532C114.961 24.1117 116.168 24.4016 117.491 24.4016Z" fill="#302F4A"/>
<path d="M148.231 8.4298H150.967V27H148.231V8.4298ZM153.103 14.2479H155.707V16.081C156.309 15.3195 157.044 14.7616 157.912 14.4073C158.797 14.0354 159.718 13.8494 160.675 13.8494C162.375 13.8494 163.641 14.3011 164.474 15.2043C165.306 16.1076 165.722 17.3208 165.722 18.844V27H163.039V19.1097C163.039 17.0374 162.047 16.0013 160.064 16.0013C159.213 16.0013 158.416 16.205 157.673 16.6124C156.946 17.002 156.318 17.6042 155.786 18.4189V27H153.103V14.2479ZM165.98 14.2479H168.822L172.568 23.4135L176.314 14.2479H179.157L173.737 27H171.399L165.98 14.2479ZM186.699 27.3985C184.343 27.3985 182.493 26.814 181.147 25.6451C179.818 24.4584 179.154 22.7936 179.154 20.6505C179.154 18.5606 179.747 16.9046 180.934 15.6825C182.138 14.4605 183.848 13.8494 186.061 13.8494C187.531 13.8494 188.78 14.1328 189.807 14.6996C190.835 15.2486 191.605 16.0191 192.119 17.0109C192.65 17.985 192.916 19.1008 192.916 20.3583V21.6866H181.705C181.793 22.891 182.298 23.7943 183.219 24.3965C184.158 24.9809 185.424 25.2732 187.018 25.2732C187.833 25.2732 188.656 25.2023 189.489 25.0606C190.321 24.9012 191.056 24.6975 191.694 24.4496V26.6015C191.127 26.8317 190.374 27.0177 189.435 27.1594C188.514 27.3188 187.602 27.3985 186.699 27.3985ZM190.392 19.8004C190.356 18.596 189.958 17.6662 189.196 17.0109C188.452 16.3379 187.39 16.0013 186.008 16.0013C184.662 16.0013 183.617 16.3467 182.873 17.0374C182.13 17.7282 181.74 18.6492 181.705 19.8004H190.392ZM194.52 14.2479H197.124V16.081C197.726 15.3195 198.461 14.7616 199.329 14.4073C200.214 14.0354 201.135 13.8494 202.092 13.8494C203.792 13.8494 205.058 14.3011 205.891 15.2043C206.723 16.1076 207.14 17.3208 207.14 18.844V27H204.456V19.1097C204.456 17.0374 203.464 16.0013 201.481 16.0013C200.631 16.0013 199.834 16.205 199.09 16.6124C198.364 17.002 197.735 17.6042 197.204 18.4189V27H194.52V14.2479ZM214.037 27.3985C212.744 27.3985 211.743 27.0266 211.034 26.2827C210.344 25.5388 209.998 24.485 209.998 23.1212V16.3201H208.059V14.2479H209.998V10.4223H212.708V14.2479H215.843V16.3201H212.708V22.9353C212.708 23.7854 212.868 24.3876 213.186 24.7418C213.523 25.096 214.125 25.2732 214.993 25.2732C215.507 25.2732 216.02 25.158 216.534 24.9278V27.0531C215.861 27.2834 215.028 27.3985 214.037 27.3985ZM224.322 27.3985C222.887 27.3985 221.621 27.1328 220.523 26.6015C219.442 26.0525 218.592 25.2732 217.972 24.2636C217.37 23.2364 217.069 22.032 217.069 20.6505C217.069 19.2868 217.37 18.0913 217.972 17.064C218.574 16.0368 219.424 15.2486 220.523 14.6996C221.621 14.1328 222.887 13.8494 224.322 13.8494C225.756 13.8494 227.023 14.1328 228.121 14.6996C229.219 15.2486 230.069 16.0368 230.671 17.064C231.291 18.0913 231.601 19.2868 231.601 20.6505C231.601 22.032 231.291 23.2364 230.671 24.2636C230.069 25.2732 229.219 26.0525 228.121 26.6015C227.023 27.1328 225.756 27.3985 224.322 27.3985ZM224.322 25.2732C225.703 25.2732 226.801 24.8481 227.616 23.998C228.431 23.1478 228.838 22.032 228.838 20.6505C228.838 19.2159 228.431 18.0824 227.616 17.25C226.801 16.4176 225.703 16.0013 224.322 16.0013C222.94 16.0013 221.842 16.4176 221.027 17.25C220.213 18.0824 219.805 19.2159 219.805 20.6505C219.805 22.032 220.213 23.1478 221.027 23.998C221.842 24.8481 222.94 25.2732 224.322 25.2732ZM233.187 14.2479H235.791V16.5327C236.322 15.7534 237.066 15.1778 238.023 14.8058C238.997 14.4339 240.121 14.2479 241.397 14.2479V16.3467C240.033 16.3467 238.864 16.5681 237.89 17.0109C236.916 17.4537 236.243 18.1533 235.871 19.1097V27H233.187V14.2479ZM244.791 32.2602C243.834 32.2602 243.037 32.1628 242.4 31.968V29.8692C242.86 30.0463 243.427 30.1349 244.1 30.1349C244.72 30.1349 245.207 29.9755 245.561 29.6567C245.916 29.3556 246.234 28.8597 246.518 28.1689L247.129 26.6812L241.55 14.2479H244.313L248.563 24.0511L252.522 14.2479H255.285L249.546 28.4346C249.015 29.7629 248.377 30.7282 247.634 31.3304C246.907 31.9503 245.96 32.2602 244.791 32.2602Z" fill="#477BFF"/>
</svg>
