<svg width="32" height="32" viewBox="0 0 32 32" fill="none" xmlns="http://www.w3.org/2000/svg">
<rect y="0.21875" width="31.5609" height="31.5609" rx="5.53699" fill="#F28230"/>
<rect x="0.27685" y="0.4956" width="31.0072" height="31.0072" rx="5.26014" stroke="url(#paint0_linear_6727_37663)" stroke-opacity="0.2" stroke-width="0.553699"/>
<g clip-path="url(#clip0_6727_37663)">
<path d="M15.318 23.4275C15.0862 23.3535 14.878 23.2198 14.7142 23.0399C14.5504 22.86 14.4367 22.6402 14.3847 22.4025C14.3314 22.1827 14.227 21.9785 14.0799 21.8067C13.9329 21.6348 13.7473 21.5001 13.5383 21.4135C13.3293 21.327 13.1029 21.291 12.8774 21.3084C12.6518 21.3259 12.4336 21.3964 12.2405 21.5142C10.9547 22.2975 9.48218 20.8258 10.2655 19.5392C10.3831 19.3461 10.4535 19.1281 10.4709 18.9027C10.4884 18.6773 10.4524 18.451 10.3659 18.2422C10.2794 18.0333 10.1449 17.8479 9.97325 17.7008C9.80159 17.5537 9.59765 17.4492 9.37802 17.3958C7.91468 17.0408 7.91468 14.9592 9.37802 14.6042C9.59785 14.5509 9.802 14.4465 9.97385 14.2994C10.1457 14.1523 10.2804 13.9668 10.367 13.7578C10.4535 13.5488 10.4896 13.3224 10.4721 13.0968C10.4546 12.8713 10.3841 12.6531 10.2664 12.46C9.48302 11.1742 10.9547 9.70167 12.2414 10.485C13.0747 10.9917 14.1547 10.5433 14.3847 9.5975C14.7397 8.13417 16.8214 8.13417 17.1764 9.5975C17.2296 9.81733 17.334 10.0215 17.4811 10.1933C17.6282 10.3652 17.8138 10.4999 18.0227 10.5865C18.2317 10.673 18.4582 10.709 18.6837 10.6916C18.9092 10.6741 19.1274 10.6036 19.3205 10.4858C20.6064 9.7025 22.0789 11.1742 21.2955 12.4608C21.1779 12.6539 21.1076 12.8719 21.0901 13.0973C21.0727 13.3227 21.1086 13.549 21.1951 13.7578C21.2816 13.9667 21.4161 14.1521 21.5878 14.2992C21.7594 14.4463 21.9634 14.5508 22.183 14.6042C23.2747 14.8692 23.5522 16.0958 23.0139 16.8492" stroke="white" stroke-linecap="round" stroke-linejoin="round"/>
<path d="M18.2805 21.8327L19.9472 23.4993L23.2805 20.166" stroke="white" stroke-linecap="round" stroke-linejoin="round"/>
<path d="M13.2805 16C13.2805 16.663 13.5439 17.2989 14.0128 17.7678C14.4816 18.2366 15.1175 18.5 15.7805 18.5C16.4436 18.5 17.0794 18.2366 17.5483 17.7678C18.0171 17.2989 18.2805 16.663 18.2805 16C18.2805 15.337 18.0171 14.7011 17.5483 14.2322C17.0794 13.7634 16.4436 13.5 15.7805 13.5C15.1175 13.5 14.4816 13.7634 14.0128 14.2322C13.5439 14.7011 13.2805 15.337 13.2805 16Z" stroke="white" stroke-linecap="round" stroke-linejoin="round"/>
</g>
<defs>
<linearGradient id="paint0_linear_6727_37663" x1="32.6433" y1="33.5519" x2="-4.22152" y2="12.9723" gradientUnits="userSpaceOnUse">
<stop stop-color="#6D6D6D" stop-opacity="0.2"/>
<stop offset="0.5" stop-color="#6D6D6D"/>
<stop offset="1" stop-color="#6D6D6D" stop-opacity="0.2"/>
</linearGradient>
<clipPath id="clip0_6727_37663">
<rect width="20" height="20" fill="white" transform="translate(5.78052 6)"/>
</clipPath>
</defs>
</svg>
