<svg width="36" height="36" viewBox="0 0 36 36" fill="none" xmlns="http://www.w3.org/2000/svg">
<rect width="36" height="36" rx="6.31579" fill="url(#paint0_linear_5054_23018)"/>
<rect width="36" height="36" rx="6.31579" fill="#477BFF"/>
<rect x="0.315789" y="0.315789" width="35.3684" height="35.3684" rx="6" stroke="url(#paint1_linear_5054_23018)" stroke-opacity="0.2" stroke-width="0.631579"/>
<g clip-path="url(#clip0_5054_23018)">
<path d="M9 16C9 16.9193 9.18106 17.8295 9.53284 18.6788C9.88463 19.5281 10.4002 20.2997 11.0503 20.9497C11.7003 21.5998 12.4719 22.1154 13.3212 22.4672C14.1705 22.8189 15.0807 23 16 23C16.9193 23 17.8295 22.8189 18.6788 22.4672C19.5281 22.1154 20.2997 21.5998 20.9497 20.9497C21.5998 20.2997 22.1154 19.5281 22.4672 18.6788C22.8189 17.8295 23 16.9193 23 16C23 15.0807 22.8189 14.1705 22.4672 13.3212C22.1154 12.4719 21.5998 11.7003 20.9497 11.0503C20.2997 10.4002 19.5281 9.88463 18.6788 9.53284C17.8295 9.18106 16.9193 9 16 9C15.0807 9 14.1705 9.18106 13.3212 9.53284C12.4719 9.88463 11.7003 10.4002 11.0503 11.0503C10.4002 11.7003 9.88463 12.4719 9.53284 13.3212C9.18106 14.1705 9 15.0807 9 16Z" stroke="#FDFDFD" stroke-width="1.5" stroke-linecap="round" stroke-linejoin="round"/>
<path d="M27 27L21 21" stroke="#FDFDFD" stroke-width="1.5" stroke-linecap="round" stroke-linejoin="round"/>
</g>
<defs>
<linearGradient id="paint0_linear_5054_23018" x1="-5.57904e-07" y1="-11.3617" x2="43.5031" y2="27.6145" gradientUnits="userSpaceOnUse">
<stop stop-color="#302F4A"/>
<stop offset="1" stop-color="#302F4A" stop-opacity="0.2"/>
</linearGradient>
<linearGradient id="paint1_linear_5054_23018" x1="37.2347" y1="38.0215" x2="-4.81529" y2="14.5474" gradientUnits="userSpaceOnUse">
<stop stop-color="white" stop-opacity="0.2"/>
<stop offset="0.506386" stop-color="white"/>
<stop offset="1" stop-color="white" stop-opacity="0.2"/>
</linearGradient>
<clipPath id="clip0_5054_23018">
<rect width="24" height="24" fill="white" transform="translate(6 6)"/>
</clipPath>
</defs>
</svg>
