<svg width="48" height="60" viewBox="0 0 48 60" fill="none" xmlns="http://www.w3.org/2000/svg">
<path d="M1.3584 49.5762H3.27115L4.96238 56.7027H4.98901L6.53753 49.5762H9.00941L10.6101 56.7027H10.6357L12.3407 49.5762H14.1108L11.7422 58.4911H9.40027L7.76016 51.3646H7.73459L6.1211 58.4911H3.76531" fill="#FDFDFD"/>
<path d="M15.2949 49.5762H20.6551V50.981H17.1161V53.1781H20.3558V54.5829H17.1161V57.0863H20.6817V58.4911H15.2949" fill="#FDFDFD"/>
<path d="M22.373 58.491H24.1953V49.5762H22.373V58.491Z" fill="#FDFDFD"/>
<path d="M26.0557 49.5762H28.2943L31.7556 56.2427H31.7811V49.5762H33.5245V58.4911H31.2998L27.8257 51.8245H27.7991V58.4911H26.0557" fill="#FDFDFD"/>
<path d="M35.3867 58.491H37.2079V49.5762H35.3867V58.491Z" fill="#FDFDFD"/>
<path d="M43.9087 50.8297C42.8512 50.838 42.0396 51.1443 41.4762 51.7485C40.9033 52.3537 40.6168 53.124 40.6168 54.0605C40.6168 54.9887 40.8905 55.7423 41.4368 56.3204C41.9747 56.9256 42.7297 57.2318 43.701 57.2402C44.1952 57.2402 44.5946 57.1984 44.8981 57.1127V54.788H42.9726V53.3832H46.6415V58.1851C45.6702 58.4746 44.6904 58.6283 43.701 58.645C42.209 58.645 41.0161 58.275 40.1226 57.5339C39.1939 56.8106 38.7253 55.6953 38.7168 54.1881C38.7775 51.046 40.4389 49.4583 43.701 49.4238C44.7245 49.4332 45.6138 49.5566 46.3689 49.7949L46.2517 51.3021C45.4881 50.9865 44.7075 50.8297 43.9087 50.8297Z" fill="#FDFDFD"/>
<path d="M1.57715 38.9966H46.5779V10.2461H1.57715V38.9966Z" fill="#343331"/>
<path fill-rule="evenodd" clip-rule="evenodd" d="M1.57617 1.35547H46.5791V11.2728L35.3337 15.0064C35.3337 15.0064 34.7405 15.3942 34.519 15.7516C34.323 16.0652 34.2357 16.6411 34.2357 16.6411L34.241 24.6634C34.241 24.6634 34.2133 25.0303 34.0291 25.1317C33.8161 25.2467 33.4092 25.0052 33.4092 25.0052L22.6995 19.0055C22.6995 19.0055 22.0903 18.6041 21.7272 18.7473C21.2969 18.9156 21.348 19.7926 21.348 19.7926L21.3693 28.8695C21.3693 28.8695 21.4087 29.2803 21.217 29.4036C21.0126 29.5332 20.5876 29.3137 20.5876 29.3137L11.1698 23.3516C11.1698 23.3516 10.7651 23.2001 10.4924 23.1959C10.1772 23.1907 9.7075 23.3788 9.7075 23.3788L1.57617 26.1163" fill="#DAD9D6"/>
<path fill-rule="evenodd" clip-rule="evenodd" d="M1.57617 30.306V45.5122H46.5791V15.4844L37.271 18.526C37.271 18.526 36.8386 18.7884 36.6841 19.0434C36.5499 19.2619 36.5041 19.6654 36.5041 19.6654L36.4871 30.4262C36.4871 30.4262 36.485 30.9572 36.2315 31.1223C35.944 31.3073 35.338 31.0282 35.338 31.0282L24.3226 24.5111C24.3226 24.5111 24.0052 24.3993 23.8327 24.4756C23.6165 24.5717 23.5696 24.9878 23.5696 24.9878L23.5995 34.4922C23.5995 34.4922 23.6271 35.1883 23.2991 35.4047C22.8987 35.667 22.0658 35.1559 22.0658 35.1559L10.8428 27.8162C10.8428 27.8162 10.3795 27.5956 10.059 27.5873C9.7075 27.5789 9.19204 27.8162 9.19204 27.8162" fill="#FDFDFD"/>
</svg>
