<svg width="123" height="30" viewBox="0 0 123 30" fill="none" xmlns="http://www.w3.org/2000/svg">
<g clip-path="url(#clip0_8963_19070)">
<mask id="mask0_8963_19070" style="mask-type:luminance" maskUnits="userSpaceOnUse" x="0" y="0" width="123" height="30">
<path d="M123 0H0V30H123V0Z" fill="white"/>
</mask>
<g mask="url(#mask0_8963_19070)">
<path d="M0.229574 12.5107C-0.133324 15.3497 -0.0781006 17.8054 0.482025 21.3091C1.06582 13.6369 6.68285 8.90528 12.6943 8.90528H21.4513L28.725 0.615234H14.5798C7.52701 0.615234 1.18415 5.01056 0.237463 12.5107H0.229574Z" fill="black"/>
<path d="M0.900391 23.9129C0.900391 25.7586 1.21595 27.8155 1.76819 29.3718C2.58866 21.903 9.17607 20.4561 12.6867 20.4561H13.1049L20.3707 12.166H13.3494C7.25898 12.166 0.908278 15.5681 0.908278 23.9129H0.900391Z" fill="black"/>
<path d="M31.881 2.27324V14.5519H35.857V9.77342H42.0657V6.73113H35.857V3.66535H42.9099V0.623047H33.5456C32.6225 0.623047 31.873 1.36603 31.873 2.28106L31.881 2.27324Z" fill="black"/>
<path d="M48.8122 0.623047H44.8359V14.5519H48.8122V0.623047Z" fill="black"/>
<path d="M60.6516 6.79984C59.9492 6.54174 59.058 6.29932 57.9851 6.07253C57.0304 5.877 56.3442 5.68147 55.9181 5.49377C55.492 5.30608 55.2713 5.03235 55.2713 4.65695C55.2713 4.28155 55.4524 3.98436 55.8156 3.74973C56.1782 3.5151 56.7542 3.39779 57.5434 3.39779C58.8056 3.39779 60.0996 3.75755 61.4404 4.46924L62.6635 1.54426C61.9768 1.1454 61.188 0.848206 60.2885 0.637044C59.3894 0.433702 58.482 0.332031 57.559 0.332031C56.2021 0.332031 55.0663 0.527554 54.135 0.926414C53.2043 1.32528 52.5024 1.86491 52.0367 2.54533C51.5711 3.22573 51.3344 3.99218 51.3344 4.84466C51.3344 5.81444 51.5872 6.58089 52.0997 7.15181C52.6127 7.72273 53.2199 8.13721 53.93 8.39531C54.6402 8.6534 55.5237 8.89582 56.5809 9.12261C57.5434 9.33377 58.2453 9.53714 58.6792 9.73268C59.1131 9.92816 59.3342 10.2176 59.3342 10.6164C59.3342 11.375 58.5689 11.7504 57.046 11.7504C56.2417 11.7504 55.4212 11.6253 54.5929 11.375C53.7646 11.1248 53.0305 10.7885 52.3994 10.3818L51.0898 13.2911C51.7605 13.7526 52.6283 14.128 53.7011 14.4095C54.774 14.691 55.8785 14.824 57.0148 14.824C58.3556 14.824 59.4919 14.6207 60.4305 14.214C61.3696 13.8073 62.0715 13.2677 62.5449 12.5951C63.0106 11.9147 63.2473 11.1639 63.2473 10.3271C63.2473 9.35724 62.9867 8.59084 62.4742 8.02771C61.9612 7.46463 61.3457 7.0501 60.6438 6.79205L60.6516 6.79984Z" fill="black"/>
<path d="M70.6863 4.10166C71.2857 3.77319 71.9641 3.60113 72.7295 3.60113C74.0312 3.60113 75.1358 4.14858 76.0432 5.23569L78.5754 2.96764C77.8891 2.11517 77.0369 1.46604 76.0036 1.02026C74.9698 0.566646 73.8101 0.339844 72.5245 0.339844C71.049 0.339844 69.7238 0.644854 68.5563 1.2627C67.3809 1.88054 66.4657 2.74084 65.7951 3.84357C65.1245 4.94633 64.793 6.18983 64.793 7.58193C64.793 8.97403 65.1245 10.2254 65.7951 11.3203C66.4657 12.423 67.3887 13.2833 68.5563 13.9011C69.7316 14.519 71.049 14.824 72.5245 14.824C73.8101 14.824 74.9698 14.5972 76.0036 14.1436C77.0369 13.69 77.8969 13.0409 78.5754 12.1962L76.0432 9.92817C75.128 11.0153 74.0234 11.5627 72.7295 11.5627C71.9641 11.5627 71.2857 11.3985 70.6863 11.0622C70.0864 10.7337 69.6291 10.2645 69.2977 9.66228C68.9663 9.06006 68.8086 8.36401 68.8086 7.58193C68.8086 6.79985 68.9741 6.1038 69.2977 5.50157C69.6291 4.8994 70.0864 4.43013 70.6863 4.10166Z" fill="black"/>
<path d="M89.7635 5.85518H84.3354V0.623047H80.3594V14.5519H84.3354V9.11647H89.7635V14.5519H93.7395V0.623047H89.7635V5.85518Z" fill="black"/>
<path d="M100.159 8.96003H106.407V6.01161H100.159V3.66535H107.252V0.623047H96.2227V14.5519H107.52V11.5096H100.159V8.96003Z" fill="black"/>
<path d="M119.962 10.1723C120.845 9.74995 121.524 9.1634 122.005 8.41258C122.478 7.66181 122.715 6.78585 122.715 5.77698C122.715 4.76808 122.463 3.81394 121.95 3.03968C121.437 2.26542 120.719 1.66322 119.78 1.24872C118.841 0.834208 117.737 0.623047 116.467 0.623047H110.037V14.5519H114.014V10.8527H116.183L118.739 14.5519H122.999L119.962 10.1723ZM118.068 7.27858C117.65 7.6305 117.035 7.80256 116.222 7.80256H114.014V3.72009H116.222C117.043 3.72009 117.658 3.89997 118.068 4.25973C118.487 4.61949 118.692 5.12003 118.692 5.76915C118.692 6.41826 118.487 6.91882 118.068 7.27074V7.27858Z" fill="black"/>
<path d="M31.8809 18.938H35.9832V29.3631H38.4761V18.938H42.5785V16.6621H31.8809V18.938Z" fill="black"/>
<path d="M47.3289 16.6621H44.8359V29.3631H47.3289V16.6621Z" fill="black"/>
<path d="M59.8146 23.7868C60.3198 23.0752 60.5722 22.2071 60.5722 21.2138C60.5722 19.8061 60.0753 18.6799 59.0971 17.8665C58.1424 17.0688 56.8251 16.6699 55.1841 16.6699H50.1191V29.3709H52.6279V25.7499H55.1841C55.3339 25.7499 55.5155 25.7499 55.7361 25.7264L58.3079 29.3709H61.1481L58.158 25.1555C58.8526 24.8349 59.4046 24.3734 59.8146 23.7947V23.7868ZM57.3537 22.8875C56.8641 23.2863 56.1149 23.4975 55.1367 23.4975H52.6357V18.938H55.1367C56.1149 18.938 56.8641 19.1413 57.3615 19.5401C57.8266 19.9155 58.0634 20.4787 58.0634 21.2138C58.0634 21.949 57.8266 22.5121 57.3537 22.8953V22.8875Z" fill="black"/>
<path d="M65.6847 24.0372H71.6804V21.8004H65.6847V18.938H72.4145V16.6621H63.168V29.3631H72.6508V27.0873H65.6847V24.0372Z" fill="black"/>
<path d="M74.4277 18.938H78.5301V29.3631H81.0228V18.938H85.1252V16.6621H74.4277V18.938Z" fill="black"/>
<path d="M89.7315 24.0372H95.7267V21.8004H89.7315V18.938H96.4608V16.6621H87.2148V29.3631H96.6976V27.0873H89.7315V24.0372Z" fill="black"/>
<path d="M102.418 19.3839C103.072 19.0241 103.814 18.8364 104.634 18.8364C105.857 18.8364 106.891 19.2666 107.711 20.1269L107.987 20.4163L109.667 18.7973L109.415 18.5158C108.831 17.8588 108.113 17.3583 107.285 17.022C106.464 16.6936 105.549 16.5293 104.571 16.5293C103.309 16.5293 102.157 16.8109 101.132 17.3662C100.106 17.9292 99.2856 18.7113 98.7096 19.6889C98.1259 20.6743 97.834 21.7849 97.834 23.0128C97.834 24.2407 98.1259 25.3512 98.7096 26.3366C99.2934 27.322 100.106 28.1041 101.124 28.6594C102.141 29.2147 103.293 29.4962 104.556 29.4962C105.541 29.4962 106.457 29.3242 107.277 28.9879C108.113 28.6516 108.831 28.1432 109.415 27.4863L109.667 27.2048L107.987 25.5858L107.711 25.8752C106.883 26.7433 105.849 27.1813 104.634 27.1813C103.822 27.1813 103.072 27.0014 102.418 26.6338C101.77 26.2741 101.25 25.7735 100.887 25.14C100.524 24.5065 100.335 23.787 100.335 22.9972C100.335 22.2072 100.524 21.4877 100.887 20.8542C101.25 20.2207 101.77 19.7202 102.418 19.3604V19.3839Z" fill="black"/>
<path d="M120.199 16.6621V21.777H114.046V16.6621H111.529V29.3631H114.046V24.0528H120.199V29.3631H122.716V16.6621H120.199Z" fill="black"/>
</g>
</g>
<defs>
<clipPath id="clip0_8963_19070">
<rect width="123" height="30" fill="white"/>
</clipPath>
</defs>
</svg>
