<svg width="123" height="30" viewBox="0 0 123 30" fill="none" xmlns="http://www.w3.org/2000/svg">
<g clip-path="url(#clip0_8858_20956)">
<path d="M0.229574 12.5107C-0.133324 15.3497 -0.0781006 17.8054 0.482025 21.3091C1.06582 13.6369 6.68285 8.90528 12.6943 8.90528H21.4513L28.725 0.615234H14.5798C7.52701 0.615234 1.18415 5.01056 0.237463 12.5107H0.229574Z" fill="#FDFDFD"/>
<path d="M0.900391 23.9129C0.900391 25.7586 1.21595 27.8155 1.76819 29.3718C2.58866 21.903 9.17607 20.4561 12.6867 20.4561H13.1049L20.3707 12.166H13.3494C7.25898 12.166 0.908278 15.5681 0.908278 23.9129H0.900391Z" fill="#FDFDFD"/>
<path d="M31.881 2.27324V14.5519H35.857V9.77342H42.0657V6.73113H35.857V3.66535H42.9099V0.623047H33.5456C32.6225 0.623047 31.873 1.36603 31.873 2.28106L31.881 2.27324Z" fill="#FDFDFD"/>
<path d="M48.8113 0.623047H44.835V14.5519H48.8113V0.623047Z" fill="#FDFDFD"/>
<path d="M60.6526 6.79984C59.9502 6.54174 59.059 6.29932 57.9861 6.07253C57.0314 5.877 56.3452 5.68147 55.9191 5.49377C55.493 5.30608 55.2723 5.03235 55.2723 4.65695C55.2723 4.28155 55.4534 3.98436 55.8166 3.74973C56.1792 3.5151 56.7552 3.39779 57.5444 3.39779C58.8066 3.39779 60.1006 3.75755 61.4414 4.46924L62.6645 1.54426C61.9778 1.1454 61.189 0.848206 60.2895 0.637044C59.3904 0.433702 58.483 0.332031 57.56 0.332031C56.2031 0.332031 55.0673 0.527554 54.136 0.926414C53.2053 1.32528 52.5034 1.86491 52.0377 2.54533C51.5721 3.22573 51.3354 3.99218 51.3354 4.84466C51.3354 5.81444 51.5882 6.58089 52.1007 7.15181C52.6137 7.72273 53.2209 8.13721 53.931 8.39531C54.6412 8.6534 55.5247 8.89582 56.5819 9.12261C57.5444 9.33377 58.2463 9.53714 58.6802 9.73268C59.1141 9.92816 59.3352 10.2176 59.3352 10.6164C59.3352 11.375 58.5699 11.7504 57.047 11.7504C56.2427 11.7504 55.4222 11.6253 54.5939 11.375C53.7656 11.1248 53.0315 10.7885 52.4004 10.3818L51.0908 13.2911C51.7615 13.7526 52.6293 14.128 53.7021 14.4095C54.775 14.691 55.8795 14.824 57.0158 14.824C58.3566 14.824 59.4929 14.6207 60.4315 14.214C61.3706 13.8073 62.0725 13.2677 62.5459 12.5951C63.0116 11.9147 63.2483 11.1639 63.2483 10.3271C63.2483 9.35724 62.9877 8.59084 62.4752 8.02771C61.9622 7.46463 61.3467 7.0501 60.6448 6.79205L60.6526 6.79984Z" fill="#FDFDFD"/>
<path d="M70.6872 4.10166C71.2866 3.77319 71.965 3.60113 72.7304 3.60113C74.0321 3.60113 75.1367 4.14858 76.0441 5.23569L78.5763 2.96764C77.89 2.11517 77.0378 1.46604 76.0045 1.02026C74.9707 0.566646 73.811 0.339844 72.5254 0.339844C71.0499 0.339844 69.7247 0.644854 68.5572 1.2627C67.3818 1.88054 66.4666 2.74084 65.796 3.84357C65.1254 4.94633 64.7939 6.18983 64.7939 7.58193C64.7939 8.97403 65.1254 10.2254 65.796 11.3203C66.4666 12.423 67.3896 13.2833 68.5572 13.9011C69.7325 14.519 71.0499 14.824 72.5254 14.824C73.811 14.824 74.9707 14.5972 76.0045 14.1436C77.0378 13.69 77.8978 13.0409 78.5763 12.1962L76.0441 9.92817C75.1289 11.0153 74.0243 11.5627 72.7304 11.5627C71.965 11.5627 71.2866 11.3985 70.6872 11.0622C70.0873 10.7337 69.63 10.2645 69.2986 9.66228C68.9672 9.06006 68.8095 8.36401 68.8095 7.58193C68.8095 6.79985 68.975 6.1038 69.2986 5.50157C69.63 4.8994 70.0873 4.43013 70.6872 4.10166Z" fill="#FDFDFD"/>
<path d="M89.7635 5.85518H84.3354V0.623047H80.3594V14.5519H84.3354V9.11647H89.7635V14.5519H93.7395V0.623047H89.7635V5.85518Z" fill="#FDFDFD"/>
<path d="M100.16 8.96003H106.408V6.01161H100.16V3.66535H107.253V0.623047H96.2236V14.5519H107.521V11.5096H100.16V8.96003Z" fill="#FDFDFD"/>
<path d="M119.963 10.1723C120.846 9.74995 121.525 9.1634 122.006 8.41258C122.479 7.66181 122.716 6.78585 122.716 5.77698C122.716 4.76808 122.464 3.81394 121.951 3.03968C121.438 2.26542 120.72 1.66322 119.781 1.24872C118.842 0.834208 117.738 0.623047 116.468 0.623047H110.038V14.5519H114.015V10.8527H116.184L118.74 14.5519H123L119.963 10.1723ZM118.069 7.27858C117.651 7.6305 117.036 7.80256 116.223 7.80256H114.015V3.72009H116.223C117.044 3.72009 117.659 3.89997 118.069 4.25973C118.488 4.61949 118.693 5.12003 118.693 5.76915C118.693 6.41826 118.488 6.91882 118.069 7.27074V7.27858Z" fill="#FDFDFD"/>
<path d="M31.8809 18.938H35.9832V29.3631H38.4761V18.938H42.5785V16.6621H31.8809V18.938Z" fill="#FDFDFD"/>
<path d="M47.328 16.6621H44.835V29.3631H47.328V16.6621Z" fill="#FDFDFD"/>
<path d="M59.8156 23.7868C60.3208 23.0752 60.5732 22.2071 60.5732 21.2138C60.5732 19.8061 60.0763 18.6799 59.0981 17.8665C58.1434 17.0688 56.8261 16.6699 55.1851 16.6699H50.1201V29.3709H52.6289V25.7499H55.1851C55.3349 25.7499 55.5165 25.7499 55.7371 25.7264L58.3089 29.3709H61.1491L58.159 25.1555C58.8536 24.8349 59.4056 24.3734 59.8156 23.7947V23.7868ZM57.3547 22.8875C56.8651 23.2863 56.1159 23.4975 55.1377 23.4975H52.6367V18.938H55.1377C56.1159 18.938 56.8651 19.1413 57.3625 19.5401C57.8276 19.9155 58.0644 20.4787 58.0644 21.2138C58.0644 21.949 57.8276 22.5121 57.3547 22.8953V22.8875Z" fill="#FDFDFD"/>
<path d="M65.6856 24.0372H71.6813V21.8004H65.6856V18.938H72.4154V16.6621H63.1689V29.3631H72.6517V27.0873H65.6856V24.0372Z" fill="#FDFDFD"/>
<path d="M74.4268 18.938H78.5292V29.3631H81.0219V18.938H85.1243V16.6621H74.4268V18.938Z" fill="#FDFDFD"/>
<path d="M89.7315 24.0372H95.7267V21.8004H89.7315V18.938H96.4608V16.6621H87.2148V29.3631H96.6976V27.0873H89.7315V24.0372Z" fill="#FDFDFD"/>
<path d="M102.418 19.3839C103.072 19.0241 103.814 18.8364 104.634 18.8364C105.857 18.8364 106.891 19.2666 107.711 20.1269L107.987 20.4163L109.667 18.7973L109.415 18.5158C108.831 17.8588 108.113 17.3583 107.285 17.022C106.464 16.6936 105.549 16.5293 104.571 16.5293C103.309 16.5293 102.157 16.8109 101.132 17.3662C100.106 17.9292 99.2856 18.7113 98.7096 19.6889C98.1259 20.6743 97.834 21.7849 97.834 23.0128C97.834 24.2407 98.1259 25.3512 98.7096 26.3366C99.2934 27.322 100.106 28.1041 101.124 28.6594C102.141 29.2147 103.293 29.4962 104.556 29.4962C105.541 29.4962 106.457 29.3242 107.277 28.9879C108.113 28.6516 108.831 28.1432 109.415 27.4863L109.667 27.2048L107.987 25.5858L107.711 25.8752C106.883 26.7433 105.849 27.1813 104.634 27.1813C103.822 27.1813 103.072 27.0014 102.418 26.6338C101.77 26.2741 101.25 25.7735 100.887 25.14C100.524 24.5065 100.335 23.787 100.335 22.9972C100.335 22.2072 100.524 21.4877 100.887 20.8542C101.25 20.2207 101.77 19.7202 102.418 19.3604V19.3839Z" fill="#FDFDFD"/>
<path d="M120.199 16.6621V21.777H114.046V16.6621H111.529V29.3631H114.046V24.0528H120.199V29.3631H122.716V16.6621H120.199Z" fill="#FDFDFD"/>
</g>
<defs>
<clipPath id="clip0_8858_20956">
<rect width="123" height="30" fill="white"/>
</clipPath>
</defs>
</svg>
