<svg width="76" height="24" viewBox="0 0 76 24" fill="none" xmlns="http://www.w3.org/2000/svg">
<g clip-path="url(#clip0_6326_11489)">
<path d="M9.42321 8.42233V10.9437H15.5079C15.3464 12.3384 14.8618 13.4114 14.1079 14.1087C13.2463 14.9671 11.8463 15.9327 9.42321 15.9327C5.70777 15.9327 2.80004 12.9285 2.80004 9.22701C2.80004 5.52548 5.65393 2.52133 9.42321 2.52133C11.4155 2.52133 12.9233 3.32602 14.0002 4.34528L15.7772 2.57498C14.2694 1.12655 12.2233 0 9.42321 0C4.30775 0 0 4.1307 0 9.22701C0 14.3233 4.30775 18.454 9.42321 18.454C12.1694 18.454 14.2694 17.542 15.8848 15.879C17.5541 14.216 18.0926 11.8556 18.0926 9.97805C18.0926 9.38795 18.0387 8.85149 17.9849 8.42233H9.42321V8.42233Z" fill="#343331"/>
<path d="M25.6312 6.33008C22.3465 6.33008 19.6003 8.85141 19.6003 12.2847C19.6003 15.718 22.2927 18.2394 25.6312 18.2394C28.9697 18.2394 31.6621 15.7717 31.6621 12.3384C31.6621 8.85141 28.9697 6.33008 25.6312 6.33008ZM25.6312 15.9326C23.8004 15.9326 22.2388 14.4305 22.2388 12.3384C22.2388 10.1925 23.8004 8.74412 25.6312 8.74412C27.462 8.74412 29.0236 10.1925 29.0236 12.3384C29.0236 14.4305 27.462 15.9326 25.6312 15.9326Z" fill="#343331"/>
<path d="M55.0854 7.67121H54.9777C54.3854 6.97382 53.2546 6.33008 51.8008 6.33008C48.7853 6.33008 46.2007 8.90506 46.2007 12.2847C46.2007 15.6107 48.7853 18.2394 51.8008 18.2394C53.2546 18.2394 54.3854 17.5956 54.9777 16.8982H55.0854V17.7565C55.0854 20.0097 53.8469 21.2435 51.9085 21.2435C50.293 21.2435 49.3238 20.1169 48.893 19.0977L46.6315 20.0633C47.2776 21.619 49.0546 23.6039 51.9623 23.6039C55.0316 23.6039 57.6701 21.78 57.6701 17.381V6.65195H55.1931V7.67121H55.0854ZM52.07 15.9326C50.2392 15.9326 48.893 14.3769 48.893 12.3384C48.893 10.2462 50.293 8.74412 52.07 8.74412C53.8469 8.74412 55.247 10.2998 55.247 12.392C55.3008 14.4305 53.9008 15.9326 52.07 15.9326Z" fill="#343331"/>
<path d="M39.0389 6.33008C35.7542 6.33008 33.0081 8.85141 33.0081 12.2847C33.0081 15.718 35.7004 18.2394 39.0389 18.2394C42.3774 18.2394 45.0698 15.7717 45.0698 12.3384C45.0698 8.85141 42.3774 6.33008 39.0389 6.33008ZM39.0389 15.9326C37.2081 15.9326 35.6466 14.4305 35.6466 12.3384C35.6466 10.1925 37.2081 8.74412 39.0389 8.74412C40.8697 8.74412 42.4313 10.1925 42.4313 12.3384C42.4313 14.4305 40.8697 15.9326 39.0389 15.9326Z" fill="#343331"/>
<path d="M59.6624 0.267578H62.247V18.2924H59.6624V0.267578Z" fill="#343331"/>
<path d="M70.2164 15.9326C68.8702 15.9326 67.9548 15.3425 67.3086 14.1087L75.3318 10.8363L75.0626 10.1389C74.578 8.79777 73.0164 6.33008 69.9471 6.33008C66.8779 6.33008 64.2932 8.74412 64.2932 12.2847C64.2932 15.6107 66.824 18.2394 70.2164 18.2394C72.9626 18.2394 74.5241 16.5763 75.2241 15.6107L73.178 14.2696C72.4779 15.2889 71.5625 15.9326 70.2164 15.9326ZM70.0548 8.58318C71.1318 8.58318 72.0472 9.11964 72.3164 9.87067L66.9317 12.1238C66.8779 9.65609 68.7087 8.58318 70.0548 8.58318Z" fill="#343331"/>
</g>
<defs>
<clipPath id="clip0_6326_11489">
<rect width="75.3318" height="23.604" fill="white"/>
</clipPath>
</defs>
</svg>
