<svg width="76" height="20" viewBox="0 0 76 20" fill="none" xmlns="http://www.w3.org/2000/svg">
<g clip-path="url(#clip0_6326_11507)">
<path d="M24.2798 15.3024L25.2016 13.1478C26.211 13.8953 27.5274 14.291 28.8442 14.291C29.8097 14.291 30.4241 13.9174 30.4241 13.3458C30.4021 11.7628 24.609 12.994 24.565 9.01402C24.5429 6.99133 26.3425 5.43033 28.8882 5.43033C30.4021 5.43033 31.9165 5.80422 32.9916 6.66182L32.1302 8.86235C31.141 8.22629 29.9193 7.78286 28.7564 7.78286C27.9664 7.78286 27.4396 8.15642 27.4396 8.64043C27.4617 10.2015 33.2991 9.34387 33.3648 13.1478C33.3648 15.2147 31.609 16.6658 29.1073 16.6658C27.2643 16.6658 25.5746 16.2262 24.2795 15.3024H24.2798ZM60.985 12.3677C60.7523 12.7811 60.4138 13.1252 60.0043 13.3647C59.5947 13.6041 59.1289 13.7304 58.6545 13.7304C57.1759 13.7304 55.9775 12.5295 55.9775 11.048C55.9775 9.56669 57.1759 8.36572 58.6545 8.36572C59.1289 8.36572 59.5947 8.49201 60.0043 8.73145C60.4138 8.97089 60.7523 9.31502 60.985 9.72848L63.5477 8.3059C62.5878 6.59038 60.7568 5.43033 58.6545 5.43033C55.5579 5.43033 53.0478 7.94523 53.0478 11.048C53.0478 14.1505 55.5579 16.6658 58.6545 16.6658C60.7568 16.6658 62.5878 15.5058 63.5477 13.7903L60.985 12.3677ZM35.0278 16.4458H38.2316V0.753906H35.0282L35.0278 16.4458ZM65.1657 0.753906V16.4458H68.3696V11.7445L72.166 16.4458H76.2612L71.4333 10.8608L75.9099 5.64937H71.9904L68.3696 9.98212V0.753906H65.1657ZM48.1023 5.65V6.92556C47.5757 6.04592 46.2809 5.43033 44.9204 5.43033C42.1115 5.43033 39.8953 7.91502 39.8953 11.0371C39.8953 14.1591 42.1115 16.6658 44.9204 16.6658C46.2809 16.6658 47.5757 16.0502 48.1023 15.1706V16.4458H51.3061V5.65H48.1023ZM48.1023 12.3894C47.6415 13.1589 46.6759 13.7301 45.6008 13.7301C44.122 13.7301 42.9235 12.5295 42.9235 11.048C42.9235 9.56669 44.122 8.36572 45.6008 8.36572C46.6759 8.36572 47.6415 8.95926 48.1023 9.75046V12.3894Z" fill="#343331"/>
<path d="M7.36027 0.407227C6.32202 0.407227 5.48045 1.25067 5.48045 2.29083C5.48021 2.53793 5.52863 2.78267 5.62297 3.01107C5.71731 3.23946 5.8557 3.44704 6.03026 3.62195C6.20482 3.79686 6.41212 3.93567 6.64032 4.03047C6.86852 4.12526 7.11317 4.17417 7.36027 4.17442H9.24041V2.29083C9.24086 1.79174 9.04297 1.31292 8.69038 0.959682C8.33779 0.606448 7.85936 0.407727 7.36027 0.407227ZM7.36027 5.43016H2.34711C1.30885 5.43016 0.467285 6.2736 0.467285 7.31406C0.467285 8.3542 1.30885 9.19768 2.34711 9.19768H7.36059C8.39852 9.19768 9.24041 8.3542 9.24041 7.31406C9.24041 6.2736 8.39852 5.43016 7.36027 5.43016Z" fill="#343331"/>
<path d="M19.2665 7.31406C19.2665 6.2736 18.4246 5.43016 17.3864 5.43016C16.3481 5.43016 15.5066 6.2736 15.5066 7.31406V9.19768H17.3864C17.8855 9.19715 18.3639 8.99842 18.7165 8.64523C19.0691 8.29196 19.2669 7.81315 19.2665 7.31406ZM14.2534 7.31406V2.29083C14.2537 1.79174 14.0559 1.31292 13.7033 0.959682C13.3507 0.606448 12.8723 0.407727 12.3732 0.407227C11.3349 0.407227 10.4934 1.25067 10.4934 2.29083V7.31375C10.4934 8.3545 11.3349 9.19798 12.3732 9.19798C12.8723 9.19745 13.3507 8.99872 13.7033 8.64553C14.0559 8.29226 14.2537 7.81347 14.2534 7.31438" fill="#343331"/>
<path d="M12.3732 19.2435C12.8723 19.2431 13.3507 19.0444 13.7033 18.6911C14.0559 18.3379 14.2537 17.859 14.2534 17.36C14.2537 16.8609 14.0559 16.3821 13.7033 16.0288C13.3507 15.6756 12.8723 15.4769 12.3732 15.4764H10.4934V17.36C10.4934 18.4002 11.3349 19.2435 12.3732 19.2435ZM12.3732 14.2206H17.3867C18.4246 14.2206 19.2665 13.3772 19.2665 12.3368C19.2669 11.8376 19.0691 11.3588 18.7165 11.0056C18.3639 10.6524 17.8855 10.4537 17.3864 10.4531H12.3732C11.3349 10.4531 10.4934 11.2966 10.4934 12.3368C10.4931 12.5838 10.5416 12.8286 10.6359 13.057C10.7302 13.2854 10.8687 13.4929 11.0432 13.6679C11.2178 13.8427 11.425 13.9816 11.6533 14.0764C11.8815 14.1711 12.1261 14.2201 12.3732 14.2203" fill="#343331"/>
<path d="M0.467286 12.3368C0.467038 12.5838 0.515464 12.8286 0.6098 13.057C0.704135 13.2854 0.842532 13.4929 1.01709 13.6679C1.19165 13.8427 1.39894 13.9816 1.62715 14.0764C1.85536 14.1711 2.1 14.2201 2.34711 14.2203C2.8462 14.2198 3.32465 14.0211 3.67724 13.6679C4.02982 13.3146 4.22766 12.8358 4.22724 12.3368V10.4531H2.34711C1.30885 10.4531 0.467286 11.2966 0.467286 12.3368ZM5.48045 12.3368V17.3597C5.48045 18.4001 6.32202 19.2435 7.36027 19.2435C7.85936 19.2431 8.33779 19.0444 8.69038 18.6911C9.04297 18.3379 9.24086 17.859 9.24041 17.36V12.3368C9.24064 12.0896 9.19222 11.8448 9.09788 11.6164C9.00354 11.388 8.86509 11.1804 8.69053 11.0055C8.5159 10.8306 8.30856 10.6918 8.0803 10.597C7.85209 10.5022 7.60742 10.4534 7.36027 10.4531C6.32202 10.4531 5.48045 11.2966 5.48045 12.3368Z" fill="#343331"/>
</g>
<defs>
<clipPath id="clip0_6326_11507">
<rect width="75.5327" height="18.8832" fill="white" transform="translate(0.467285 0.360352)"/>
</clipPath>
</defs>
</svg>
