<svg width="104" height="24" viewBox="0 0 104 24" fill="none" xmlns="http://www.w3.org/2000/svg">
<g clip-path="url(#clip0_6326_11509)">
<path d="M13.9748 8.69975H20.1568V19.6475H0.509277V8.69975H6.69127V14.1624H13.9523V8.69975H13.9748ZM34.8812 14.2973C34.8812 16.1631 33.6672 17.2421 31.9812 17.2421C30.3402 17.2421 29.1038 16.1406 29.1038 14.2973V5.48511H26.3613V14.2748C26.3613 17.7367 28.8341 19.9397 32.0037 19.9397C35.1959 19.9397 37.6462 17.7367 37.6462 14.2748V5.48511H34.9036V14.2973H34.8812ZM44.7049 9.55399C43.6484 9.55399 42.4794 10.0036 41.8724 11.0377V9.82375H39.3097V19.6475H41.9624V13.9825C41.9624 12.8361 42.6368 11.9369 43.8057 11.9369C45.0871 11.9369 45.6266 12.7911 45.6266 13.8926V19.625H48.2792V13.443C48.2568 11.2849 47.1328 9.55399 44.7049 9.55399ZM54.4387 13.6903C54.4387 13.6903 53.5395 13.5105 52.9775 13.3981C52.4155 13.2857 52.0783 12.9934 52.0783 12.5213C52.0783 11.9593 52.5729 11.5547 53.2698 11.5547C54.2589 11.5547 54.6411 12.0493 54.731 12.6562H57.0239C57.0015 11.3074 55.9449 9.55399 53.3147 9.55399C51.2016 9.55399 49.6505 11.0152 49.6505 12.7686C49.6505 14.1399 50.5048 15.2864 52.3931 15.691L53.7419 15.9833C54.5062 16.1406 54.7984 16.5003 54.7984 16.9499C54.7984 17.4669 54.3263 17.9165 53.4496 17.9165C52.3931 17.9165 51.8086 17.3096 51.6737 16.6127H49.3133C49.4482 18.0739 50.5048 19.9397 53.4721 19.9397C56.0348 19.9397 57.3387 18.2987 57.3387 16.7026C57.3611 15.2639 56.372 14.0949 54.4387 13.6903ZM68.6461 14.7019C68.6461 17.6693 66.7803 19.8723 64.0152 19.8723C62.6664 19.8723 61.6548 19.3328 61.1827 18.6809V23.4241H58.5301V9.82375H61.0928V11.0377C61.5424 10.2733 62.6215 9.59895 64.1051 9.59895C66.9826 9.59895 68.6461 11.802 68.6461 14.7019ZM66.0384 14.7244C66.0384 12.9934 64.9594 11.9818 63.6106 11.9818C62.2618 11.9818 61.1603 12.9934 61.1603 14.7244C61.1603 16.4553 62.2618 17.4894 63.6106 17.4894C64.9594 17.4894 66.0384 16.4778 66.0384 14.7244ZM81.3248 9.82375H83.8875V19.6475H81.2349V18.4336C80.7853 19.2204 79.7512 19.8723 78.4024 19.8723C75.6374 19.8723 73.7715 17.6693 73.7715 14.7019C73.7715 11.7795 75.435 9.59895 78.29 9.59895C79.7737 9.59895 80.8302 10.2733 81.3023 11.0377V9.82375H81.3248ZM81.2798 14.7244C81.2798 12.9934 80.1783 11.9818 78.8295 11.9818C77.4807 11.9818 76.4017 12.9934 76.4017 14.7244C76.4017 16.4778 77.4807 17.4894 78.8295 17.4894C80.1783 17.4894 81.2798 16.4553 81.2798 14.7244ZM69.8825 19.625H72.5351V5.48511H69.8825V19.625ZM99.646 9.55399C98.7018 9.55399 97.6228 9.86871 96.9934 10.633V5.48511H94.3407V19.625H96.9934V13.8701C97.0608 12.7911 97.7127 11.9593 98.8367 11.9593C100.118 11.9593 100.658 12.8136 100.658 13.9151V19.6475H103.31V13.4655C103.288 11.2849 102.141 9.55399 99.646 9.55399ZM90.2044 13.6903C90.2044 13.6903 89.3052 13.5105 88.7432 13.3981C88.1812 13.2857 87.844 12.9934 87.844 12.5213C87.844 11.9593 88.3386 11.5547 89.0354 11.5547C90.0246 11.5547 90.4067 12.0493 90.4966 12.6562H92.7896C92.7671 11.3074 91.7106 9.55399 89.0804 9.55399C86.9673 9.55399 85.4162 11.0152 85.4162 12.7686C85.4162 14.1399 86.2704 15.2864 88.1587 15.691L89.5075 15.9833C90.2718 16.1406 90.5641 16.5003 90.5641 16.9499C90.5641 17.4669 90.092 17.9165 89.2153 17.9165C88.1587 17.9165 87.5742 17.3096 87.4394 16.6127H85.079C85.2138 18.0739 86.2704 19.9397 89.2378 19.9397C91.8005 19.9397 93.1043 18.2987 93.1043 16.7026C93.1268 15.2639 92.1377 14.0949 90.2044 13.6903ZM13.9748 0H6.69127V5.48511H13.9523V0H13.9748Z" fill="#343331"/>
</g>
<defs>
<clipPath id="clip0_6326_11509">
<rect width="102.958" height="23.604" fill="white" transform="translate(0.509521)"/>
</clipPath>
</defs>
</svg>
