<svg width="75" height="15" viewBox="0 0 75 15" fill="none" xmlns="http://www.w3.org/2000/svg">
<g clip-path="url(#clip0_6326_11508)">
<path d="M49.9359 12.8983C50.8838 12.8983 51.8317 12.5336 52.5608 11.8774L53.8733 13.2629C52.8526 14.2838 51.4672 14.8671 50.0089 14.7942C46.8735 14.7942 44.7589 12.6795 44.7589 9.83557C44.686 7.1375 46.8006 4.94987 49.4984 4.87695C49.5713 4.87695 49.6443 4.87695 49.7172 4.87695C52.8526 4.87695 54.6754 7.28334 54.5296 10.6377H47.0193C47.2381 12.0961 48.5505 13.0441 49.9359 12.8983ZM52.1963 9.03345C52.1233 7.72087 51.0296 6.69998 49.7172 6.7729C48.3318 6.69998 47.1652 7.64794 47.0193 9.03345H52.1963Z" fill="#343331"/>
<path d="M0.645264 12.8257L6.40557 6.99197H0.791094V5.16895H9.03052V7.06489L3.27021 12.8986H9.10343V14.7216H0.645264V12.8257Z" fill="#343331"/>
<path d="M15.9575 12.8986C16.9055 12.8986 17.8533 12.534 18.5825 11.8777L19.895 13.2632C18.8741 14.357 17.4158 14.9404 15.9575 14.8674C12.7493 14.8674 10.7076 12.7527 10.7076 9.90881C10.6347 7.21074 12.7493 5.02312 15.4472 4.9502C15.5201 4.9502 15.593 4.9502 15.6659 4.9502C18.8012 4.9502 20.6241 7.35658 20.4054 10.711H13.0409C13.2596 12.0965 14.5721 13.0444 15.9575 12.8986ZM18.2179 9.03377C18.145 7.72119 17.0513 6.7003 15.7388 6.77322C14.4263 6.7003 13.2596 7.64827 13.0409 9.03377H18.2179Z" fill="#343331"/>
<path d="M32.874 9.90875C32.7282 7.28358 34.7699 5.02304 37.3947 4.95012C37.4676 4.95012 37.5407 4.95012 37.6136 4.95012C38.853 4.95012 40.0197 5.46056 40.7489 6.40854V0.720703H42.7905V14.6486H40.7489V13.336C39.9468 14.284 38.7801 14.8674 37.5406 14.8674C34.9157 14.8674 32.7282 12.6797 32.8011 10.0546C32.874 9.98167 32.874 9.90875 32.874 9.90875ZM40.8947 9.90875C40.8947 8.23156 39.5093 6.91898 37.9052 6.91898C36.2282 6.91898 34.9157 8.30448 34.9157 9.90875C34.9157 11.5859 36.3011 12.8985 37.9052 12.8985C39.5822 12.8985 40.8947 11.5859 40.8947 9.90875Z" fill="#343331"/>
<path d="M55.7693 12.6791L57.5921 11.6582C58.1025 12.5333 59.0504 13.0437 59.9984 13.0437C61.165 13.0437 61.7483 12.4604 61.7483 11.8041C61.7483 11.1478 60.6546 10.8561 59.415 10.6373C57.8109 10.2727 56.1338 9.76228 56.1338 7.79341C56.1338 6.26207 57.5921 4.87658 59.8526 4.87658C61.3838 4.80366 62.8421 5.45995 63.717 6.69961L62.04 7.72049C61.5296 6.99129 60.7275 6.62668 59.9255 6.62668C58.8317 6.62668 58.3213 7.13713 58.3213 7.79341C58.3213 8.44971 59.1963 8.66847 60.5817 8.96015C62.1858 9.32476 63.9357 9.8352 63.9357 11.8041C63.9357 13.1166 62.7692 14.8667 60.0713 14.8667C58.2484 15.0126 56.5713 14.1375 55.7693 12.6791Z" fill="#343331"/>
<path d="M69.0398 10.4192L67.4356 12.1693V14.6486H65.394V0.720703H67.4356V9.83582L71.7376 5.09596H74.2168L70.4981 9.17953L74.2897 14.6486H72.0293L69.0398 10.4192Z" fill="#343331"/>
<path d="M26.8219 4.9502C24.4156 4.9502 22.374 6.55445 22.374 9.10669V14.7216H24.4156V9.39837C24.2698 8.15871 25.1448 7.0649 26.3844 6.91906C26.5302 6.91906 26.676 6.91906 26.8219 6.91906C28.3531 6.91906 29.0823 7.86703 29.0823 9.39837V14.7216H31.2697V9.10669C31.2697 6.48153 29.2281 4.9502 26.8219 4.9502Z" fill="#343331"/>
</g>
<defs>
<clipPath id="clip0_6326_11508">
<rect width="73.6444" height="14.1624" fill="white" transform="translate(0.645264 0.720703)"/>
</clipPath>
</defs>
</svg>
