<svg width="48" height="48" viewBox="0 0 48 48" fill="none" xmlns="http://www.w3.org/2000/svg">
<rect width="48" height="48" rx="8.42105" fill="#477BFF"/>
<rect x="0.421053" y="0.421053" width="47.1579" height="47.1579" rx="8" stroke="url(#paint0_linear_6737_37842)" stroke-opacity="0.2" stroke-width="0.842105"/>
<g clip-path="url(#clip0_6737_37842)">
<path d="M23.375 35.25H16.5C15.837 35.25 15.2011 34.9866 14.7322 34.5178C14.2634 34.0489 14 33.413 14 32.75V17.75C14 17.087 14.2634 16.4511 14.7322 15.9822C15.2011 15.5134 15.837 15.25 16.5 15.25H31.5C32.163 15.25 32.7989 15.5134 33.2678 15.9822C33.7366 16.4511 34 17.087 34 17.75V25.25" stroke="#FDFDFD" stroke-width="1.5" stroke-linecap="round" stroke-linejoin="round"/>
<path d="M29 12.75V17.75" stroke="#FDFDFD" stroke-width="1.5" stroke-linecap="round" stroke-linejoin="round"/>
<path d="M19 12.75V17.75" stroke="#FDFDFD" stroke-width="1.5" stroke-linecap="round" stroke-linejoin="round"/>
<path d="M14 22.75H34" stroke="#FDFDFD" stroke-width="1.5" stroke-linecap="round" stroke-linejoin="round"/>
<path d="M27.75 32.75L30.25 35.25L35.25 30.25" stroke="#FDFDFD" stroke-width="1.5" stroke-linecap="round" stroke-linejoin="round"/>
</g>
<defs>
<linearGradient id="paint0_linear_6737_37842" x1="49.6462" y1="50.6954" x2="-6.42038" y2="19.3966" gradientUnits="userSpaceOnUse">
<stop stop-color="white" stop-opacity="0.2"/>
<stop offset="0.506386" stop-color="white"/>
<stop offset="1" stop-color="white" stop-opacity="0.2"/>
</linearGradient>
<clipPath id="clip0_6737_37842">
<rect width="30" height="30" fill="white" transform="translate(9 9)"/>
</clipPath>
</defs>
</svg>
