<svg width="552" height="239" viewBox="0 0 552 239" fill="none" xmlns="http://www.w3.org/2000/svg">
<path d="M0 12C0 5.37257 5.37258 0 12 0H539.48C546.107 0 551.48 5.37258 551.48 12V225.605H0V12Z" fill="#DAD9D6"/>
<g filter="url(#filter0_d_6967_15779)">
<path d="M87.7354 40.0801C87.7354 34.5572 92.2125 30.0801 97.7354 30.0801H433.691C439.213 30.0801 443.691 34.5572 443.691 40.0801V225.605H87.7354V40.0801Z" fill="#F0F0EF"/>
<path d="M97.7354 30.3569H433.691C439.06 30.3569 443.414 34.7101 443.414 40.0801V225.328H88.0122V40.0801C88.0122 34.7101 92.3654 30.3569 97.7354 30.3569Z" stroke="url(#paint0_linear_6967_15779)" stroke-opacity="0.2" stroke-width="0.553699"/>
<path d="M111.549 61.8926C111.549 57.4743 115.131 53.8926 119.549 53.8926H411.877C416.295 53.8926 419.877 57.4743 419.877 61.8926V225.603H111.549V61.8926Z" fill="url(#paint1_linear_6967_15779)"/>
<path d="M119.549 54.1694H411.877C416.142 54.1694 419.6 57.6272 419.6 61.8926V225.326H111.826V61.8926C111.826 57.6272 115.284 54.1694 119.549 54.1694Z" stroke="url(#paint2_linear_6967_15779)" stroke-opacity="0.2" stroke-width="0.553699"/>
</g>
<rect opacity="0.3" x="41.3604" y="171.711" width="423.637" height="53.8946" fill="url(#paint3_linear_6967_15779)"/>
<rect x="219.339" y="91.4961" width="93.2993" height="93.2993" rx="13.0595" fill="#FA9349"/>
<rect x="219.839" y="91.9961" width="92.2993" height="92.2993" rx="12.5595" stroke="url(#paint4_linear_6967_15779)" stroke-opacity="0.2"/>
<g clip-path="url(#clip0_6967_15779)">
<path d="M250.265 142.077V136.181C250.265 132.011 251.922 128.011 254.871 125.062C257.819 122.114 261.819 120.457 265.989 120.457C270.159 120.457 274.159 122.114 277.108 125.062C280.056 128.011 281.713 132.011 281.713 136.181V142.077" stroke="#FDFDFD" stroke-width="3.53789" stroke-linecap="round" stroke-linejoin="round"/>
<path d="M277.782 151.906C277.782 155.163 272.502 157.803 265.989 157.803" stroke="#FDFDFD" stroke-width="3.53789" stroke-linecap="round" stroke-linejoin="round"/>
<path d="M250.265 142.077C250.265 141.035 250.679 140.035 251.416 139.298C252.154 138.561 253.154 138.146 254.196 138.146H256.162C257.204 138.146 258.204 138.561 258.941 139.298C259.678 140.035 260.093 141.035 260.093 142.077V147.974C260.093 149.017 259.678 150.016 258.941 150.754C258.204 151.491 257.204 151.905 256.162 151.905H254.196C253.154 151.905 252.154 151.491 251.416 150.754C250.679 150.016 250.265 149.017 250.265 147.974V142.077Z" stroke="#FDFDFD" stroke-width="3.53789" stroke-linecap="round" stroke-linejoin="round"/>
<path d="M271.885 142.077C271.885 141.035 272.299 140.035 273.037 139.298C273.774 138.561 274.774 138.146 275.816 138.146H277.782C278.824 138.146 279.824 138.561 280.561 139.298C281.299 140.035 281.713 141.035 281.713 142.077V147.974C281.713 149.017 281.299 150.016 280.561 150.754C279.824 151.491 278.824 151.905 277.782 151.905H275.816C274.774 151.905 273.774 151.491 273.037 150.754C272.299 150.016 271.885 149.017 271.885 147.974V142.077Z" stroke="#FDFDFD" stroke-width="3.53789" stroke-linecap="round" stroke-linejoin="round"/>
</g>
<defs>
<filter id="filter0_d_6967_15779" x="76.6614" y="19.0061" width="378.103" height="219.888" filterUnits="userSpaceOnUse" color-interpolation-filters="sRGB">
<feFlood flood-opacity="0" result="BackgroundImageFix"/>
<feColorMatrix in="SourceAlpha" type="matrix" values="0 0 0 0 0 0 0 0 0 0 0 0 0 0 0 0 0 0 127 0" result="hardAlpha"/>
<feOffset dy="2.2148"/>
<feGaussianBlur stdDeviation="5.53699"/>
<feComposite in2="hardAlpha" operator="out"/>
<feColorMatrix type="matrix" values="0 0 0 0 0 0 0 0 0 0 0 0 0 0 0 0 0 0 0.1 0"/>
<feBlend mode="normal" in2="BackgroundImageFix" result="effect1_dropShadow_6967_15779"/>
<feBlend mode="normal" in="SourceGraphic" in2="effect1_dropShadow_6967_15779" result="shape"/>
</filter>
<linearGradient id="paint0_linear_6967_15779" x1="455.898" y1="236.584" x2="187.631" y2="-36.0528" gradientUnits="userSpaceOnUse">
<stop stop-color="#6D6D6D" stop-opacity="0.2"/>
<stop offset="0.5" stop-color="#6D6D6D"/>
<stop offset="1" stop-color="#6D6D6D" stop-opacity="0.2"/>
</linearGradient>
<linearGradient id="paint1_linear_6967_15779" x1="265.713" y1="53.8926" x2="265.713" y2="225.603" gradientUnits="userSpaceOnUse">
<stop stop-color="white"/>
<stop offset="1" stop-color="white" stop-opacity="0.5"/>
</linearGradient>
<linearGradient id="paint2_linear_6967_15779" x1="430.451" y1="235.246" x2="194.827" y2="-0.942021" gradientUnits="userSpaceOnUse">
<stop stop-color="white" stop-opacity="0.2"/>
<stop offset="0.506386" stop-color="white"/>
<stop offset="1" stop-color="white" stop-opacity="0.2"/>
</linearGradient>
<linearGradient id="paint3_linear_6967_15779" x1="300.807" y1="171.711" x2="300.807" y2="225.606" gradientUnits="userSpaceOnUse">
<stop stop-color="#DAD9D6" stop-opacity="0"/>
<stop offset="1" stop-color="#DAD9D6"/>
</linearGradient>
<linearGradient id="paint4_linear_6967_15779" x1="315.838" y1="190.034" x2="206.859" y2="129.198" gradientUnits="userSpaceOnUse">
<stop stop-color="white" stop-opacity="0.2"/>
<stop offset="0.506386" stop-color="white"/>
<stop offset="1" stop-color="white" stop-opacity="0.2"/>
</linearGradient>
<clipPath id="clip0_6967_15779">
<rect width="47.1718" height="47.1718" fill="white" transform="translate(242.403 114.561)"/>
</clipPath>
</defs>
</svg>
