<svg width="48" height="48" viewBox="0 0 48 48" fill="none" xmlns="http://www.w3.org/2000/svg">
<rect width="48" height="48" rx="8.42105" fill="#477BFF"/>
<rect x="0.421053" y="0.421053" width="47.1579" height="47.1579" rx="8" stroke="url(#paint0_linear_6737_38766)" stroke-opacity="0.2" stroke-width="0.842105"/>
<g clip-path="url(#clip0_6737_38766)">
<path d="M26.5 12.75V17.75C26.5 18.0815 26.6317 18.3995 26.8661 18.6339C27.1005 18.8683 27.4185 19 27.75 19H32.75" stroke="#FDFDFD" stroke-width="1.5" stroke-linecap="round" stroke-linejoin="round"/>
<path d="M30.25 35.25H17.75C17.087 35.25 16.4511 34.9866 15.9822 34.5178C15.5134 34.0489 15.25 33.413 15.25 32.75V15.25C15.25 14.587 15.5134 13.9511 15.9822 13.4822C16.4511 13.0134 17.087 12.75 17.75 12.75H26.5L32.75 19V32.75C32.75 33.413 32.4866 34.0489 32.0178 34.5178C31.5489 34.9866 30.913 35.25 30.25 35.25Z" stroke="#FDFDFD" stroke-width="1.5" stroke-linecap="round" stroke-linejoin="round"/>
<path d="M24 21.5V26.5H29" stroke="#FDFDFD" stroke-width="1.5" stroke-linecap="round" stroke-linejoin="round"/>
<path d="M19 26.5C19 27.8261 19.5268 29.0979 20.4645 30.0355C21.4021 30.9732 22.6739 31.5 24 31.5C25.3261 31.5 26.5979 30.9732 27.5355 30.0355C28.4732 29.0979 29 27.8261 29 26.5C29 25.1739 28.4732 23.9021 27.5355 22.9645C26.5979 22.0268 25.3261 21.5 24 21.5C22.6739 21.5 21.4021 22.0268 20.4645 22.9645C19.5268 23.9021 19 25.1739 19 26.5Z" stroke="#FDFDFD" stroke-width="1.5" stroke-linecap="round" stroke-linejoin="round"/>
</g>
<defs>
<linearGradient id="paint0_linear_6737_38766" x1="49.6462" y1="50.6954" x2="-6.42038" y2="19.3966" gradientUnits="userSpaceOnUse">
<stop stop-color="white" stop-opacity="0.2"/>
<stop offset="0.506386" stop-color="white"/>
<stop offset="1" stop-color="white" stop-opacity="0.2"/>
</linearGradient>
<clipPath id="clip0_6737_38766">
<rect width="30" height="30" fill="white" transform="translate(9 9)"/>
</clipPath>
</defs>
</svg>
