<?xml version="1.0" encoding="UTF-8"?>
<svg fill="none" viewBox="0 0 714 563" xmlns="http://www.w3.org/2000/svg">
<g clip-path="url(#ah)">
<rect width="714" height="563" rx="10" fill="#fff"/>
<rect x="193.3" y="63.1" width="630.7" height="484.2" rx="5.8" fill="#F0F0EF"/>
<mask id="ag" fill="#fff">
<path d="M174 0h667v46.7H174z"/>
</mask>
<path d="M174 0h667v46.7H174z" fill="#fff"/>
<path d="M841 46.1H174v1.2h667z" fill="#1C1C1C" fill-opacity=".1" mask="url(#ag)"/>
<path d="M194.6 27a.4.4 0 0 1-.4-.4v-6.5a.4.4 0 0 1 .4-.4h2.1V27z" fill="#FDFDFD"/>
<path d="M196.4 19.7V27a.4.4 0 1 0 .7 0v-7.3a.4.4 0 1 0-.7 0" fill="#1C1C1C"/>
<path d="m193.8 20 .2-.4.6-.3h8l.5.3.2.5v6.5l-.2.6-.5.2h-8l-.6-.2-.2-.6zm.8 0v6.6h8v-6.5z" clip-rule="evenodd" fill="#1C1C1C" fill-rule="evenodd"/>
<path d="M194.2 21.5h1a.4.4 0 1 0 0-.7h-1a.4.4 0 0 0 0 .7m0 1.5h1a.4.4 0 1 0 0-.7h-1a.4.4 0 0 0 0 .7m0 1.5h1a.4.4 0 1 0 0-.8h-1a.4.4 0 0 0 0 .8" fill="#1C1C1C"/>
<path d="m219.8 26.2 2.3 1.5q.6.2.6-.5l-.7-2.6v-.2l.1-.2 2.1-1.7q.4-.5-.2-.7l-2.7-.2-.3-.2-1-2.5-.2-.2h-.4l-.2.2-1 2.5-.3.2-2.7.2q-.6.2-.2.7l2 1.7.2.2v.2l-.6 2.5q0 .7.7.5l2-1.4z" fill="#FDFDFD"/>
<path d="m219.6 26.5-2.2 1.4-.4.1-.5-.2-.3-.3V27l.6-2.5-2-1.7-.3-.4V22l.3-.4.4-.2 2.7-.1 1-2.6.3-.3.4-.2.4.2.3.3 1 2.6 2.7.1.4.2.3.4v.4l-.3.4-2 1.7.6 2.7v.4l-.3.4-.4.1-.4-.1zm2.7.9-2.3-1.5-.4-.1-.4.1-2.1 1.4h-.1v-.2l.5-2.4v-.4l-.2-.4-2-1.7 2.6-.2.4-.1.3-.4 1-2.5 1 2.5.3.4.4.1 2.7.2-2.1 1.7-.2.4v.4z" clip-rule="evenodd" fill="#1C1C1C" fill-rule="evenodd"/>
<path d="M238.2 27.4v-6.9h3.1q.8 0 1.3.3l.8.7.2 1.1q0 .6-.3 1-.2.6-.8.8l-1.2.2H239v-.8h2.4l.9-.3q.3-.3.3-.9t-.3-.9-1-.3h-2.1v6zm7.7 0q-.8 0-1.3-.3-.4-.5-.4-1.1 0-.5.2-.9l.6-.5.9-.2 1-.2q.5 0 .6-.3l.2-.4q0-.3-.3-.5t-.8-.2-1 .2-.3.7h-1q0-.9.7-1.3t1.6-.4q.7 0 1 .2l.8.5.2.9v2.6l.1.4.2.1h.2v.7h-.4l-.7-.2-.2-.6v-.1q-.2.4-.7.7zm.3-.7 1-.2.5-.7v-1.2l-.2.2h-.6l-.8.3q-.5 0-.7.3t-.2.5q0 .4.3.6zm3.8.7V22h.8v.8l.6-.6q.3-.3.8-.3l.4.1v1l-.3-.1h-.1q-.6 0-.9.3t-.4.9v3.2zm4.7 0q-.5 0-.8-.2l-.2-.7v-5.9h.9v5.9l.4.1h.4v.8zm-1.7-4.6v-.7h1.1v.7zm2.4 0h-1.3v-.7h1.3zm2.8 4.7q-1 0-1.6-.5t-.6-1.3h1q0 .4.3.7t1 .3l.7-.1q.4-.3.4-.7l-.2-.4-.3-.2-.5-.2-1.5-.4-.5-.5-.2-.7q0-.5.2-.8l.7-.5 1-.2q.8 0 1.2.2l.7.5q.3.4.3 1h-1l-.2-.7q-.3-.3-1-.3-.4 0-.7.2l-.2.5.1.5.5.2.8.2.8.2.5.3.3.5.2.6q0 .7-.6 1.1t-1.6.5m6 0q-1 0-1.6-.5-.8-.3-1.1-1.2T261 24q0-1.1.4-2 .4-.6 1-1.1.7-.4 1.7-.4t1.7.4T267 22t.4 1.9q0 1-.4 1.8t-1 1.2q-.7.5-1.8.5m0-1a2 2 0 0 0 1.6-.6q.6-.5.6-2a3 3 0 0 0-.6-1.9q-.5-.6-1.6-.6a2 2 0 0 0-1.5.6q-.6.7-.6 2 0 1.2.6 1.9t1.5.7m8.1-3.9q0-.4-.2-.7l-.5-.5-.8-.1q-.7 0-1 .3t-.4.7l.2.6.7.3 1 .3q.4 0 .7.2.4 0 .7.3.4.3.5.6.3.3.2.8t-.3 1.1l-.9.7q-.5.3-1.4.3t-1.4-.3a2 2 0 0 1-1.2-2h1q0 .6.4 1t1.3.4q.6 0 1-.2t.5-1q0-.3-.2-.5l-.6-.4-.8-.2q-.6 0-1-.3l-.8-.4-.5-.5-.1-.8q0-.5.3-1l.8-.6 1.3-.2q1.2 0 1.8.5t.7 1.5z" fill="#1C1C1C" fill-opacity=".4"/>
<path d="m283.9 20.1-2 7.2h-.6l2-7.2z" fill="#1C1C1C" fill-opacity=".2"/>
<path d="M292.3 27.4v-6.9h3q.9 0 1.3.3.6.3.8.7.3.5.3 1.1t-.3 1q-.2.6-.8.8l-1.2.2H293v-.8h2.3q.6 0 1-.3l.3-.9q.1-.6-.4-.9-.3-.3-.9-.3h-2.2v6zm6.3 0V20h1v7.4zm3.8 0q-.9 0-1.3-.3-.4-.5-.4-1.1 0-.5.2-.9l.6-.5.8-.2 1.1-.2q.4 0 .6-.3l.1-.4q0-.3-.2-.5t-.9-.2-1 .2q-.2.2-.3.7h-.9q0-.9.7-1.3t1.5-.4q.7 0 1.1.2.6.2.7.5.3.3.3.9v3l.3.1h.2v.7h-.5l-.6-.2q-.2 0-.2-.6v-.1q-.2.4-.8.7-.5.3-1.1.3m.2-.7q.6 0 1-.2t.5-.7v-1.2h.1l-.3.2h-.5l-.8.3q-.5 0-.8.3l-.2.5q0 .4.3.6zm3.8.7V22h1v.8l.7-.7 1-.2q.8 0 1.3.5t.5 1.3v3.6h-1v-3.5q0-.5-.2-.7-.3-.3-.9-.3l-.7.1-.5.5-.2.7v3.2zm5.8 0V22h1v.8l.7-.7 1-.2q.8 0 1.3.5t.5 1.3v3.6h-1v-3.5q0-.5-.2-.7-.3-.3-.9-.3l-.7.1-.5.5-.2.7v3.2zm6.1 0V22h1v5.3zm0-6.2V20h1v1.2zm2.6 6.2V22h.9v.8l.8-.7 1-.2q.7 0 1.2.5t.5 1.3v3.6h-1v-3.5q0-.5-.2-.7-.3-.3-.8-.3l-.7.1q-.4.2-.6.5l-.2.7v3.2zm7.8 1.6q-.9 0-1.4-.4-.6-.4-.7-1l1-.3.1.6.5.3h.6q.6 0 1-.2t.4-1v-1l-.7.7-1 .1q-.6 0-1.1-.3l-.7-.8q-.3-.6-.3-1.3l.2-1.2q.2-.6.8-.9l1.1-.3q.6 0 1 .3.6.2.7.7V22h1v5q0 .6-.3 1t-.8.7zm0-2.9q.5 0 .8-.2l.5-.5.2-.8v-.3q0-.5-.2-.8l-.5-.5-.8-.2q-.6 0-1 .5-.3.4-.3 1.2t.3 1.2 1 .4" fill="#1C1C1C"/>
<rect x="664" y="12.8" width="94" height="21" rx="3.5" fill="#343331"/>
<path d="M687.7 20.7a.3.3 0 0 0-.6 0v2.4h-2.3a.3.3 0 0 0 0 .6h2.3V26a.3.3 0 0 0 .6 0v-2.3h2.3a.3.3 0 0 0 0-.6h-2.3zm9.8 5.7q-.8 0-1.5-.3l-1-1q-.3-.7-.3-1.7t.4-1.7.9-1 1.5-.4 1.5.4.9 1 .3 1.7-.3 1.6-1 1q-.5.4-1.4.4m0-.7q.9 0 1.3-.6t.5-1.7q0-1-.4-1.7t-1.4-.6-1.4.6-.5 1.7q0 1 .5 1.7t1.4.6m3.7 2v-6h.7v.8l.7-.6 1-.2q.5 0 1 .3t.6.8q.3.4.3 1.2t-.3 1.3l-.6.8q-.5.3-1.1.3l-.9-.2q-.5-.1-.6-.6v2.1zm.8-3.4.1.7.5.5.7.2q.6 0 1-.4.3-.4.3-1.3 0-.7-.3-1.2t-1-.4q-.4 0-.7.2-.2 0-.5.5l-.1.7zm6.4 2.1q-.7 0-1.2-.2l-.8-.9-.2-1.2q0-.8.2-1.3l.8-.8q.5-.3 1.1-.3.8 0 1.2.3t.7.8q.3.6.2 1.5h-3.5v-.7h3l-.4.3q0-.6-.2-1.1t-1-.5q-.6 0-1 .4-.3.4-.3 1.3t.4 1.3q.3.4 1 .4.5 0 .8-.2t.4-.6l.7.2q0 .3-.3.7l-.7.5zm2.8 0v-4.6h.8v.7l.7-.6q.4-.2.9-.2t1 .4.5 1.2v3h-.8v-3l-.2-.6q-.2-.3-.8-.3l-.6.2q-.3 0-.5.4l-.1.6v2.8zm8.2 0q-.4 0-.7-.2l-.2-.6v-5.1l.8-.1v5.2l.4.1h.3v.7zm-1.5-4v-.6h1v.6zm2.1 0h-1v-.6h1.1zm1 4v-4.6h.9v4.6zm.1-5.4v-1h.8v1zm4 5.4q-.6 0-1.2-.3l-.7-.8-.3-1.2q0-.8.3-1.3a2 2 0 0 1 2-1.1q.8 0 1.3.4t.6 1.2h-.9l-.3-.7-.8-.2q-.6 0-1 .4-.3.4-.3 1.3 0 .7.3 1.2.4.4 1 .4t.8-.2.3-.7h.9a2 2 0 0 1-1 1.5zm5.9 0-1.6-2.4-.8.8v-1l2.1-2h1l-1.8 1.7v-.2l2 3zm-3.1 0v-6.5h.8v6.5zm6.4 0q-.6 0-1.1-.2l-.8-.9q-.3-.4-.3-1.2t.3-1.3.7-.8 1.2-.3 1.1.3.7.8.2 1.5h-3.5v-.7h3l-.4.3q.1-.6-.2-1.1t-1-.5q-.5 0-.9.4T733 24t.4 1.3 1 .4.8-.2q.4-.2.4-.6l.8.2-.4.7-.6.5zm4 0q-.4 0-.7-.2l-.2-.6v-5.1l.8-.1v5.2l.4.1h.3v.7zm-1.6-4v-.6h1v.6zm2.2 0h-1.1v-.6h1.1z" fill="#FDFDFD"/>
<path d="m703.6 180-7.4 4.3 7.4 4.3" stroke="#ECEEF0" stroke-width=".6"/>
<g clip-path="url(#af)">
<path d="M211.6 91.5h-.8v-9.4h.8zm2 0v-7.1h.8v1.2a3 3 0 0 1 2.5-1.4q1.2 0 1.8.7t.7 1.7v5h-.8v-4.8q0-.8-.5-1.4a2 2 0 0 0-1.3-.4q-.8 0-1.3.3l-.8.8-.3 1.4v4zm9.5 0-3-7.1h.9l1.4 3.5 1.1 2.9 1-2.9 1.5-3.5h.8l-2.9 7.1zm7.4.1q-1 0-1.7-.4a3 3 0 0 1-1.1-1.3q-.4-.8-.4-2 0-1 .4-2 .3-.8 1-1.2.7-.5 1.8-.5a3 3 0 0 1 1.6.5q.8.4 1.1 1.3.5 1 .3 2H228v-.6h5.2l-.4.3q0-1.2-.5-2-.6-.7-1.7-.7t-1.8.7-.6 2.2.6 2.2 1.9.8q.8 0 1.4-.4t.7-1.2l.8.2-.6 1.2q-.3.4-1 .7t-1.4.2m4.5 0v-7.2h.7v1.2a3 3 0 0 1 2.5-1.4q1.2 0 1.9.7t.6 1.7v5h-.8v-4.8q0-.8-.5-1.4a2 2 0 0 0-1.3-.4q-.7 0-1.2.3l-.9.8-.2 1.4v4zm9 0q-.5 0-.8-.3t-.3-.8v-8.2l.8-.2v8.6l.6.2h.3l.2-.1v.7h-.3zm-2.2-6.6v-.6h1.5v.6zm3.1 0h-1.6v-.6h1.6zm4 6.6q-1 0-1.7-.4t-1.1-1.3-.4-2q0-1 .4-2a3 3 0 0 1 2.9-1.7q1 0 1.7.5.8.4 1.1 1.3.5.8.5 2 0 1-.5 1.9a3 3 0 0 1-1 1.3q-.9.4-1.8.4m0-.7q1.2 0 1.9-.8.6-.7.6-2.2 0-1.4-.6-2.1t-2-.8-1.8.8-.7 2.1q0 1.5.7 2.2t1.8.8m4.8.6v-7.1h.7v1l.8-.8q.4-.3 1-.3h.6v.8h-.6q-.8 0-1.2.5a2 2 0 0 0-.5 1.4v4.5zm5 2.3-.6-.2V93h.6q.6 0 .9-.2l.5-.8.2-.7-2.8-7h.8l1.5 3.8 1 2.7h-.1l1-2.7 1.5-3.7h.8L261 92l-.5.9-.7.5q-.4.3-1 .3m8.7-2.3V82h4.2q.9 0 1.6.3.6.4 1 1t.4 1.4-.4 1.4-1 1l-1.6.2H268v-.7h3.4q1.2 0 1.7-.5t.6-1.4q0-.8-.5-1.4t-1.8-.5h-3.2v8.6zm8.4 0v-10h.8v10.1zm4.6.1q-1 0-1.7-.5t-.6-1.4q0-.6.3-1t.7-.8l1.1-.4 1.9-.3q.6 0 .7-.3.3-.3.2-.6 0-.7-.4-1-.3-.4-1.4-.4t-1.5.5-.5 1h-.8q0-1 .7-1.6.8-.6 2.2-.6.8 0 1.4.3t.8.7.3 1v4.2l.1.4.4.1h.2v.6h-.4q-.6 0-.8-.2t-.3-.8v-.2q-.4.7-1 1t-1.6.3m.2-.7q1 0 1.6-.4t.8-1.2v-1.8q0 .2-.4.2l-.8.2-1.2.3q-.9 0-1.3.5-.3.3-.3.9t.4 1 1.2.3m5.1.6v-7.1h.7l.1 1.2a3 3 0 0 1 2.5-1.4q1.2 0 1.8.7t.7 1.7v5h-.8v-4.8q0-.8-.5-1.4a2 2 0 0 0-1.4-.4q-.6 0-1.2.3l-.8.8q-.3.6-.3 1.4v4zm7.6 0v-7.1h.7l.1 1.2a3 3 0 0 1 2.5-1.4q1.2 0 1.8.7t.7 1.7v5h-.9v-4.8q0-.8-.5-1.4a2 2 0 0 0-1.3-.4q-.6 0-1.2.3l-.8.8q-.3.6-.3 1.4v4zm8 0v-7.1h.8v7.1zm0-8.4v-1.7h.8V83zm3 8.4v-7.1h.8v1.2a3 3 0 0 1 2.5-1.4q1.2 0 1.9.7t.6 1.7v5h-.8v-4.8q0-.8-.5-1.4a2 2 0 0 0-1.3-.4q-.7 0-1.2.3l-.9.8-.2 1.4v4zm10.3 2.3q-1.4 0-2-.5t-.9-1.5l.8-.2q0 .6.4 1l.7.4 1 .1q1.2 0 1.7-.5t.6-1.5v-1.5q-.4.7-1 1t-1.4.4a3 3 0 0 1-2.6-1.6q-.3-.7-.3-1.8 0-1 .3-1.7.4-.8 1-1.2.7-.5 1.5-.5t1.5.4 1 1.1v-1.3h.8V91q0 .8-.4 1.5l-1.1 1zm0-3.5 1.2-.3q.5-.3.8-.9l.3-1.2v-.6a2 2 0 0 0-1.2-2q-.5-.3-1.2-.3-1 0-1.6.7a3 3 0 0 0-.5 2q0 1.1.6 1.9t1.6.7" fill="#1C1C1C"/>
<rect x="335.8" y="74.8" width="85" height="23.5" rx="3.5" fill="#FDFDFD"/>
<path d="M347.8 85.2q0-.5-.2-.8-.1-.3-.6-.5l-.8-.1q-.7 0-1 .3t-.4.7.2.6l.7.4 1 .3 1 .2.8.4.5.7.2 1q0 .6-.3 1.1-.4.5-1 .8l-1.6.3q-1 0-1.6-.3t-1-.9-.4-1.3l1.2-.1q0 .8.5 1.2t1.3.4 1.1-.3q.5-.3.5-.9 0-.4-.3-.7l-.6-.3-.8-.2-1.2-.4q-.5 0-.8-.4a2 2 0 0 1-.7-1.5q0-.6.3-1.1.4-.5 1-.8t1.4-.3q1.4 0 2 .7.9.7.9 1.6zm7.7 5.3-2.5-3.8-1.4 1.4v-1.5l3.7-3.8h1.6l-3.2 3.2v-.3l3.4 4.8zm-5 0v-7.7h1.3v7.7zm7.2-2.7v-5h1.2v4.9q0 .7.3 1 .2.5.7.6l1 .2 1.1-.2.7-.7.2-1v-4.8h1.2v5q0 .7-.3 1.5-.4.6-1.1 1a4 4 0 0 1-1.8.3q-1.5 0-2.4-.7-.8-.8-.8-2.1m7.7-1.2v-1.3h1.2v1.3zm0 4v-1.4h1.2v1.3zm8.8 0v-1.7h-3.8v-1l3.8-5h1.2v5h1.2v1h-1.2v1.6zm-2.5-2.7h2.5v-3.4zm6.8 2.6v-5.1h-1.8v-1h.2q.9.1 1.3-.4t.6-1.2h1v7.7zm5.6.1q-1 0-1.6-.5t-1-1.4-.2-2q0-1.5.3-2.3.4-.9 1-1.3t1.5-.4 1.7.5q.6.6.9 1.4.3 1 .3 2a6 6 0 0 1-.4 2.3q-.4.9-1 1.3t-1.5.4m0-1q.6 0 1-.4.3-.3.4-1l.2-1.5q0-1.1-.2-1.7-.1-.7-.6-1l-.8-.2q-.6 0-1 .4l-.4 1-.2 1.5q0 1 .2 1.7t.6.9zm7.6 1v-1.7h-3.8v-1l3.8-5h1.2v5h1.2v1h-1.2v1.6zm-2.5-2.7h2.5v-3.4zm8.2 2.7q-.8 0-1.4-.3a2 2 0 0 1-1.3-2l1.2-.1q0 .7.5 1t1 .4q.7 0 1.2-.5t.4-1q0-.8-.5-1.1t-1-.4q-.5 0-.9.2-.3.1-.5.4h-1.2l.6-4.4h4.6V84h-3.6l-.4 2.2.7-.3.9-.2q.8 0 1.3.3t.9.9.3 1.3-.4 1.3-1 .9q-.5.3-1.4.3m6.4 0q-.8 0-1.4-.3t-1-.8l-.3-1.2 1.2-.2q0 .7.4 1 .5.5 1.2.5t1-.4.5-1q0-.6-.4-.9t-1-.3h-.9v-.9h.7q.6 0 1-.3t.4-.9a1 1 0 0 0-.4-.8q-.3-.3-.9-.3-.8 0-1 .4-.4.3-.5 1h-1.1q0-.8.4-1.4.3-.5.9-.8l1.3-.3q.8 0 1.3.3t.9.7.3 1-.3 1.1l-1 .7q.8.1 1.1.7t.4 1.2-.3 1.1-1 .8-1.5.3m6.5 0q-.9 0-1.4-.3-.6-.2-1-.8-.3-.5-.3-1.2l1.1-.2q0 .7.5 1 .5.5 1.1.5t1.1-.4.4-1q0-.6-.4-.9t-1-.3h-.8v-.9h.6q.7 0 1-.3t.4-.9l-.3-.8q-.4-.3-1-.3t-1 .4q-.4.3-.4 1h-1.2q0-.8.4-1.4t1-.8l1.3-.3q.8 0 1.2.3l1 .7.2 1q0 .7-.3 1.1l-.9.7q.7.1 1 .7.5.5.5 1.2t-.4 1.1-1 .8q-.6.3-1.4.3" fill="#343331"/>
</g>
<rect x="205" y="111.5" width="607.4" height="244.1" rx="4.7" fill="#FDFDFD"/>
<path d="M381.7 158.3v-8.6h1.4v8.6zm1.2-3.8v-1.2h4.8v1.2zm4.6 3.8v-8.6h1.4v8.6zm3.4 0v-6.7h1.3v6.7zm0-7.7V149h1.3v1.5zm5.5 7.8q-1.3 0-2-.6a2 2 0 0 1-.8-1.6l1.3-.1q0 .5.4 1 .5.3 1.1.3t1-.2.4-.7l-.2-.5-.4-.3-.6-.2-.8-.1-1-.4q-.6-.3-.7-.6-.3-.4-.3-1t.4-1 .8-.6q.6-.3 1.4-.3t1.4.3.9.6l.4 1.1-1.3.2q0-.6-.4-.9-.3-.3-1-.3t-.9.2l-.3.6q0 .3.2.5.1.3.6.4l1 .2.9.2.7.4.4.5.2.9q0 .8-.7 1.4t-2.1.6m5.7 0q-.6 0-1-.4-.4-.3-.4-.9v-7.3h1.4v7.3l.5.1h.5v1zm-2.2-5.7v-1h1.5v1zm3.2 0h-1.7v-1h1.7zm4 5.7q-1 0-1.7-.5a3 3 0 0 1-1.1-1.2q-.4-.7-.4-1.7-.1-1 .4-1.8t1-1.2q.8-.5 1.8-.5t1.6.5 1.2 1.2q.3.7.4 1.7 0 1-.4 1.9t-1.2 1.1q-.6.5-1.6.5m0-1.2q.8 0 1.3-.6t.5-1.7-.5-1.6-1.3-.6-1.4.6-.5 1.6q0 1.2.5 1.7t1.4.6m4.4 1v-6.6h1.2l.1 1 .7-.8.9-.2h.5v1.3h-.5q-.6 0-1 .3-.5.4-.5 1v4zm5.4 2.1-.7-.1V159h.5l.6-.1.4-.5.2-.5-2.5-6.4h1.5l1 3 .2.6.6 1.7h-.1l.7-2.3 1-3h1.4l-2.7 7.2q-.2.6-.5.9l-.7.5zm221.1-2v-8.6h6v1.2h-4.6v7.4zm1.2-3.7v-1.2h4.3v1.2zm8.5 3.8q-1 0-1.7-.5a3 3 0 0 1-1.1-1.2q-.4-.7-.4-1.7t.4-1.8q.3-.9 1.1-1.2.7-.5 1.7-.5t1.7.5 1 1.2q.5.7.5 1.7a4 4 0 0 1-.4 1.9q-.4.8-1.1 1.1-.7.5-1.7.5m0-1.2q.9 0 1.3-.6t.5-1.7-.5-1.6q-.4-.6-1.3-.6t-1.4.6-.4 1.6q0 1.2.4 1.7.6.6 1.4.6m4.4 1v-6.6h1.3v1l.7-.8 1-.2h.5v1.3h-.6q-.6 0-1 .3-.5.4-.5 1v4zm7 .2q-.9 0-1.6-.4t-1.2-1.2a4 4 0 0 1-.4-1.8q0-1 .4-1.8t1.1-1.2q.7-.5 1.7-.5t1.7.4 1 1.3.3 2.1h-5v-1h4.1l-.5.5q0-1-.3-1.6-.4-.6-1.3-.6t-1.3.5-.5 1.8q0 1.2.5 1.8t1.4.6q.6 0 1-.3t.6-1l1.2.4q0 .6-.5 1t-1 .7-1.4.3m7 0q-1 0-1.6-.5a3 3 0 0 1-1.1-1.2q-.4-.7-.4-1.8 0-.9.4-1.8t1-1.2 1.8-.4a3 3 0 0 1 2 .7q.6.7.8 1.6l-1.3.2q0-.7-.5-1t-1-.3q-.8 0-1.4.6-.4.7-.4 1.6t.4 1.7q.5.6 1.3.6.7 0 1.1-.3.5-.4.5-1l1.3.2q0 .7-.4 1.2l-1 .8zm6 0q-1.1 0-1.6-.5t-.6-1.4q0-.7.3-1l.7-.7 1-.3 1.5-.3.6-.2.2-.5q0-.4-.3-.7l-1-.2-1.1.2q-.4.3-.4 1l-1.3-.2q0-1 .8-1.5t2-.6q.8 0 1.5.3.5.2.8.6.3.5.3 1.1v3.3q0 .3.2.4l.2.1h.3v1h-.7q-.5 0-.8-.2t-.3-.7v-.2a2 2 0 0 1-1 .8zm.3-1q.8 0 1.2-.4.5-.2.6-.8v-1.4h.1q0 .2-.3.3l-.7.1-1 .2q-.6 0-.8.4l-.2.6q0 .4.3.7zm7.1 1q-1.2 0-2-.6a2 2 0 0 1-.8-1.6l1.3-.1q0 .5.4 1 .4.3 1.2.3.6 0 1-.2.3-.3.3-.7t-.2-.5l-.4-.3-.6-.2-.7-.1-1.1-.4-.7-.6q-.3-.4-.2-1t.3-1 .9-.6q.6-.3 1.3-.3.9 0 1.4.3.6.2.9.6.4.5.4 1.1l-1.3.2q0-.6-.4-.9-.3-.3-1-.3t-.9.2l-.3.6q0 .3.2.5l.6.4 1 .2 1 .2.6.4.4.5.2.9q0 .8-.7 1.4-.8.6-2 .6m5.8 0q-.8 0-1-.4-.4-.3-.4-.9v-7.3h1.3v7.3l.5.1h.6v1l-.6.1zm-2.3-5.7v-1h1.5v1zm3.3 0h-1.8v-1h1.8z" fill="#343331" opacity=".7"/>
<path d="M284.8 318.1H568" stroke="#DAD9D6" stroke-width=".7"/>
<rect x="251.7" y="332.9" width="28.6" height="8.2" rx="4.1" fill="#F0F0EF"/>
<rect x="296.9" y="332.9" width="28.6" height="8.2" rx="4.1" fill="#F0F0EF"/>
<rect x="342" y="332.9" width="28.6" height="8.2" rx="4.1" fill="#F0F0EF"/>
<rect x="387.1" y="332.9" width="28.6" height="8.2" rx="4.1" fill="#F0F0EF"/>
<rect x="432.3" y="332.9" width="28.6" height="8.2" rx="4.1" fill="#F0F0EF"/>
<rect x="477.4" y="332.9" width="28.6" height="8.2" rx="4.1" fill="#F0F0EF"/>
<rect x="522.6" y="332.9" width="28.6" height="8.2" rx="4.1" fill="#F0F0EF"/>
<rect x="567.7" y="332.9" width="28.6" height="8.2" rx="4.1" fill="#F0F0EF"/>
<rect x="612.9" y="332.9" width="28.6" height="8.2" rx="4.1" fill="#F0F0EF"/>
<rect x="658" y="332.9" width="28.6" height="8.2" rx="4.1" fill="#F0F0EF"/>
<rect x="703.2" y="332.9" width="28.6" height="8.2" rx="4.1" fill="#F0F0EF"/>
<path d="M236.9 276.2h560.9v53.1H236.9z" fill="#F0F0EF"/>
<path d="M237.1 247.4h379.5v28.8H237.1z" fill="#FDFDFD"/>
<path d="M236.9 191h560.9v56.7H236.9z" fill="#F0F0EF"/>
<path d="M237.1 159.4h379.5v31.3H237.1z" fill="#FDFDFD" opacity=".1"/>
<path d="M251.7 223.1c0-1.6 1.3-2.8 3-2.8h23.2q2.6.2 2.8 2.8v106.3h-29zm45.1-8.4a3 3 0 0 1 3-3H323a3 3 0 0 1 2.9 3v114.7h-29zM342 184c0-1.7 1.2-3 2.8-3h23.3a3 3 0 0 1 2.9 3v145.4h-29zm45 19.8a3 3 0 0 1 3-2.9h23.2c1.6 0 2.9 1.3 2.9 2.9v125.6h-29zm45.1-30.6a3 3 0 0 1 3-2.9h23.2a3 3 0 0 1 2.9 3v156h-29zm45.1 5.1a3 3 0 0 1 3-2.9h23.2c1.6 0 2.9 1.3 2.9 2.9v151h-29zm45.2 5.7c0-1.7 1.2-3 2.8-3h23.3a3 3 0 0 1 2.9 3v145.4h-29z" fill="#477BFF"/>
<path d="m567.5 230a3 3 0 0 1 2.9-3h23.2a3 3 0 0 1 2.9 3v99.4h-29zm45.1-21c0-1.5 1.3-2.8 2.9-2.8h23.2c1.6 0 2.9 1.3 2.9 2.9v120.3h-29zm45.1-5.2c0-1.6 1.3-2.9 2.9-2.9h23.2a3 3 0 0 1 3 2.9v125.6h-29.1zm45.1 26.2a3 3 0 0 1 2.9-3h23.2a3 3 0 0 1 3 3v99.4h-29.1z" fill="#A57CFF"/>
<rect x="217.3" y="152.6" width="16.4" height="8.2" rx="4.1" fill="#F0F0EF"/>
<rect x="217.3" y="178.3" width="16.4" height="8.2" rx="4.1" fill="#F0F0EF"/>
<rect x="217.3" y="204" width="16.4" height="8.2" rx="4.1" fill="#F0F0EF"/>
<rect x="217.3" y="229.7" width="16.4" height="8.2" rx="4.1" fill="#F0F0EF"/>
<rect x="217.3" y="267.1" width="16.4" height="8.2" rx="4.1" fill="#F0F0EF"/>
<rect x="217.3" y="321.3" width="16.4" height="8.2" rx="4.1" fill="#F0F0EF"/>
<path d="m560.5 152.4v192.2" stroke="#000" stroke-dasharray="1.69 1.69" stroke-width=".8"/>
<path d="M218.2 134.2v-8.5h3.5a4 4 0 0 1 2.1.5q.8.6 1.4 1.5.4 1 .4 2.3t-.4 2.2-1.3 1.5a4 4 0 0 1-2.2.5zm1.4-1-.3-.2h2.4q.8 0 1.3-.4.6-.3.9-1t.3-1.6l-.3-1.7q-.3-.7-.9-1-.5-.4-1.3-.4h-2.4l.3-.2zm10.2 1.1q-1 .1-1.7-.4-.8-.3-1.1-1.1a4 4 0 0 1-.4-1.9q0-1 .3-1.8.5-.7 1.1-1.2t1.7-.4q1 0 1.7.4t1 1.3q.5.8.3 2h-5v-1h4.1l-.5.5q.2-.9-.3-1.5t-1.3-.6-1.3.5-.5 1.8.5 1.8 1.4.5l1.1-.3q.5-.3.6-.8l1.2.3q-.2.6-.6 1t-1 .7-1.3.2m4 0v-6.7h1.3l.1 1q.3-.6.9-.8.5-.3 1-.3.8 0 1.3.3.5.4.8 1 .3-.6.8-1 .6-.3 1.3-.3 1 0 1.6.6t.6 1.7v4.4H242V130q0-.6-.3-1-.3-.3-.9-.3l-.8.2q-.3.2-.5.6l-.2 1v3.7H238v-4q0-.7-.3-1.1t-.9-.4a2 2 0 0 0-1.4.8l-.1.9v3.8zm13.1 0q-1 0-1.6-.5t-.6-1.3q0-.7.3-1l.8-.7 1-.3 1.4-.3q.6 0 .7-.3l.1-.5-.2-.6q-.2-.3-1-.3l-1.1.3q-.5.3-.4.9l-1.3-.1q0-1 .8-1.6.8-.5 2-.5.8 0 1.4.2t.9.7.3 1.1v3.2l.1.5h.5v1h-.3l-.3.1q-.5 0-.8-.2t-.4-.8v-.1l-.9.8zm.4-1q.6 0 1.1-.3t.7-.8v-1.4h.1l-.4.2-.6.2-1 .2q-.6 0-.8.4l-.3.6q0 .4.4.7zm4.7 1v-6.7h1.3v1q.4-.6 1-.8t1.2-.3q1 0 1.6.6t.7 1.7v4.4h-1.4V130q0-.6-.3-1-.4-.3-1-.3t-.9.2l-.6.6-.2.8v4zm7-3.3q0-1.1.4-1.9.3-.7 1-1.2t1.5-.4 1.2.3q.6.3.9.8V125h1.3v9.2h-1.2l-.1-1-.9.8q-.5.3-1.3.3-.7.1-1.5-.4-.6-.3-1-1.1-.3-.7-.3-1.8m1.4 0q0 1 .5 1.6t1.2.6 1-.2l.7-.7.2-1v-.7q0-.6-.2-1t-.7-.7-1-.3q-.8 0-1.2.7-.5.6-.5 1.7m9.4 3.2v-8.5h6v1.2h-4.6v7.3zm1.2-3.6v-1.2h4.3v1.2zm8.5 3.7q-1 0-1.7-.4a3 3 0 0 1-1.1-1.2q-.4-.7-.4-1.8 0-1 .4-1.8.4-.7 1-1.2.8-.4 1.8-.4t1.7.4 1 1.2.5 1.8a4 4 0 0 1-.4 1.8q-.5.8-1.1 1.2t-1.7.4m0-1.1q.9 0 1.3-.6t.5-1.7-.5-1.7q-.4-.6-1.3-.6t-1.4.7-.5 1.6.5 1.7 1.4.6m4.4 1v-6.6h1.2l.1 1 .7-.8q.4-.3 1-.3l.5.1v1.3h-.6q-.6 0-1 .3-.5.4-.5 1v4zm7 .1q-1 .1-1.6-.4-.7-.3-1.2-1.1a4 4 0 0 1-.4-1.9q0-1 .4-1.8.4-.7 1-1.2.8-.4 1.8-.4t1.7.4 1 1.3.3 2h-5v-1h4.1l-.6.5q.1-.9-.2-1.5t-1.3-.6-1.3.5q-.5.6-.5 1.8t.5 1.8 1.4.5l1-.3q.5-.3.6-.8l1.2.3q0 .6-.5 1l-1 .7q-.6.3-1.4.2m7 0q-1 0-1.6-.4a3 3 0 0 1-1.1-1.2q-.4-.7-.4-1.8-.1-1 .4-1.8.4-.7 1-1.2.8-.4 1.8-.4a3 3 0 0 1 2 .6q.6.7.8 1.7l-1.3.2q0-.7-.5-1t-1-.3q-.9 0-1.4.6t-.5 1.6.5 1.7 1.3.6 1.1-.4q.5-.3.5-1l1.3.2q0 .8-.5 1.3-.3.5-1 .8zm6 0q-1 0-1.7-.5-.5-.5-.5-1.3 0-.7.2-1l.8-.7 1-.3 1.5-.3q.4 0 .6-.3l.2-.5-.3-.6q-.3-.3-1-.3l-1.1.3q-.4.3-.4.9l-1.3-.1q0-1 .8-1.6.8-.5 2-.5.9 0 1.4.2l1 .7.2 1.1v3.2l.1.5h.6v1h-.3l-.4.1q-.5 0-.8-.2l-.4-.8v-.1l-.8.8zm.3-1q.7 0 1.2-.3t.6-.8v-1.4h.1l-.3.2-.7.2-1 .2q-.6 0-.8.4l-.2.6q0 .4.3.7zm7.1 1q-1.2 0-2-.5a2 2 0 0 1-.8-1.6l1.3-.2q0 .6.4 1 .5.3 1.1.4.6 0 1-.3.4-.1.4-.7 0-.3-.2-.4 0-.3-.4-.3l-.6-.2-.8-.2q-.6 0-1-.4-.6-.2-.7-.6-.2-.3-.2-.9t.3-1 .9-.7l1.3-.2q.8 0 1.4.2t.9.7l.4 1.1-1.3.2q0-.6-.4-.9t-1-.3-.9.2l-.3.6q0 .3.2.5t.6.3l1 .3 1 .2q.3 0 .6.4l.4.5.2.9q0 .8-.7 1.4t-2.1.5m5.8 0q-.8 0-1.1-.3t-.4-.9v-7.3l1.4-.1v7.4h1.1v1l-.6.2zm-2.3-5.7v-1h1.5v1zm3.3 0h-1.8v-1h1.8z" fill="#343331"/>
<mask id="ae" fill="#fff">
<path d="M0 0h174v598H0z"/>
</mask>
<path d="M0 0h174v598H0z" fill="#343331"/>
<path d="M173.5 0v598h1.1V0z" fill="#1C1C1C" fill-opacity=".1" mask="url(#ae)"/>
<g clip-path="url(#ad)" stroke="#A57CFF" stroke-linecap="round" stroke-linejoin="round" stroke-width="1.2">
<path d="M20.7 107.2a1 1 0 0 1 .8-.9H25a1 1 0 0 1 .8.9v3.3a1 1 0 0 1-.8.9h-3.4a1 1 0 0 1-.8-.9zm8.3 0a.8.8 0 0 1 1-.9h3.3a1 1 0 0 1 .8.9v3.3a1 1 0 0 1-.8.9h-3.4a1 1 0 0 1-.8-.9zm-8.3 8.4a1 1 0 0 1 .8-.9H25a1 1 0 0 1 .8.9v3.3a1 1 0 0 1-.8.9h-3.4a1 1 0 0 1-.8-.9zm8.3 1.7h5.1m-2.5-2.6v5"/>
</g>
<path d="M44.7 118v-9.3h4q1.3 0 2.2.6t1.5 1.6.5 2.5-.5 2.4-1.5 1.7q-1 .6-2.3.6zm1.6-1-.3-.3h2.6q.8 0 1.5-.4t.9-1.1.3-1.8-.3-1.8q-.3-.7-1-1.2-.5-.3-1.4-.4H46l.3-.3zm9.8 1.2q-1.2 0-1.8-.6t-.6-1.5q0-.6.3-1.1l.8-.7 1.2-.4 1.5-.3q.6 0 .7-.3.3-.2.2-.5 0-.4-.3-.7-.4-.3-1-.3-.9 0-1.3.3t-.4 1l-1.4-.2q0-1.1.8-1.6t2.2-.6q1 0 1.6.2t1 .8.3 1.2v3.5q0 .4.2.5l.3.1h.3v1l-.4.1h-.4q-.6 0-1-.2l-.3-.8v-.2q-.3.6-1 1-.7.3-1.5.3m.4-1.2q.8 0 1.3-.3t.7-.9v-1.5l-.3.3-.7.1-1 .2q-.8.2-1 .5l-.3.6q0 .6.4.8.3.2.9.2m7.5 1.2q-1.3 0-2.2-.6-.8-.7-.8-1.8l1.4-.2q0 .7.5 1.1t1.2.4 1-.2.4-.8l-.1-.5-.5-.4-.6-.2-.9-.1-1.2-.5q-.5-.2-.7-.6-.3-.4-.3-1t.4-1.1 1-.8 1.5-.2 1.5.2l1 .7.4 1.3-1.5.1q0-.6-.3-1-.5-.3-1.2-.3t-1 .3l-.3.6.2.6.7.4 1.1.2q.6 0 1 .3.4 0 .7.4.3.2.5.6l.2 1a2 2 0 0 1-.8 1.5q-.7.6-2.3.6m4.2-.1v-10.2h1.5v3.9q.4-.6 1-.9l1.3-.3q1 0 1.8.7.7.6.7 1.9v4.9H73v-4.8q0-.6-.4-1-.3-.3-1-.3l-1 .2q-.4.1-.7.6l-.2 1v4.3zm7.8 0v-10.2h1.4v4l1-1 1.4-.2a3 3 0 0 1 1.6.4q.8.5 1.1 1.3.4 1 .4 2 0 1.2-.4 2a3 3 0 0 1-1 1.3 3 3 0 0 1-1.7.5l-1.4-.4q-.7-.3-1-1v1.3zm1.4-3.2q0 .6.3 1 .3.6.7.8l1 .2q1 0 1.5-.6t.5-1.8a3 3 0 0 0-.5-2q-.5-.6-1.5-.6l-1 .3-.7.7q-.3.5-.3 1.2zm9.8 3.3q-1 0-1.8-.5t-1.3-1.3-.4-2q0-1 .4-2 .4-.8 1.3-1.3.7-.4 1.8-.4 1 0 1.9.4t1.2 1.3q.4 1 .4 2 0 1.2-.4 2t-1.2 1.3q-.9.5-1.9.5m0-1.3q1 0 1.5-.6t.5-1.9-.5-1.8-1.5-.7-1.5.7-.5 1.8.5 1.9q.6.6 1.5.6m6.7 1.3q-1.2 0-1.8-.6t-.6-1.5q0-.6.3-1.1l.8-.7 1.2-.4 1.5-.3q.6 0 .7-.3.3-.2.2-.5 0-.4-.3-.7t-1-.3q-.9 0-1.3.3t-.5 1l-1.4-.2q0-1.1.9-1.6t2.2-.6q1 0 1.6.2t1 .8.3 1.2v3.5l.1.5.4.1h.2v1l-.3.1h-.4q-.6 0-1-.2-.3-.3-.3-.8v-.2q-.3.6-1 1-.7.3-1.5.3m.4-1.2q.8 0 1.2-.3.6-.3.7-.9v-1.5h.2l-.4.3-.7.1-1 .2q-.9.2-1 .5l-.3.6q0 .6.4.8.3.2.9.2m5 1v-7.2h1.3v1l.8-.8q.5-.3 1-.3h.6v1.5h-.6q-.7 0-1.1.3-.5.5-.5 1.2v4.4zm4-3.5q0-1.2.3-2 .4-.8 1-1.4a3 3 0 0 1 1.8-.4q.8 0 1.4.3t.9 1v-4h1.5v10h-1.4l-.1-1.1q-.3.6-1 1l-1.4.3a3 3 0 0 1-1.6-.5 3 3 0 0 1-1.1-1.3q-.4-.8-.4-2m1.4 0q0 1.2.5 1.8t1.5.6q.6 0 1-.2t.7-.8.3-1.1v-.7q0-.7-.3-1.2t-.6-.7l-1.1-.3q-.9 0-1.5.7a3 3 0 0 0-.5 1.9" fill="#FDFDFD"/>
<path d="M18.1 165.3v-6.8h1.6l2 5.6h-.2l2-5.6h1.6v6.8h-1v-6.4h.2l-2.3 6.4h-.8l-2.3-6.4h.1v6.4zm10.7 0q-.8 0-1.4-.3t-.8-1l-.3-1.3q0-.8.3-1.5t.9-1l1.3-.2q.8 0 1.3.3t.9 1q.3.5.3 1.4T31 164t-1 1q-.4.3-1.2.3m0-.7q.7 0 1-.5.5-.5.5-1.4 0-1-.4-1.4-.4-.6-1.1-.5t-1.2.5q-.3.5-.4 1.4 0 .8.4 1.4t1.2.5m3.2-1.9q0-.8.3-1.5l.8-1 1.2-.2q.6 0 1 .2t.7.7v-3h1v7.4h-1v-1q-.2.6-.7.8t-1 .3q-.7 0-1.2-.3-.6-.4-.8-1t-.3-1.4m1 0q0 .8.4 1.4t1 .5l.9-.2.5-.6q.3-.3.2-.8v-.6l-.2-.9q-.1-.3-.5-.5-.3-.2-.8-.2-.8 0-1.1.5t-.4 1.4m7.2 2.7q-1 0-1.4-.5-.5-.5-.5-1.3V160h1v3.5q0 .5.3.8l.8.2.7-.1.5-.5.1-.7V160h1v5.3h-.9v-.8q-.3.4-.7.6zm3.8-.1v-7.4h1v7.4zm4.5 0q-.7 0-1.3-.2l-.9-1q-.3-.6-.3-1.4t.3-1.5.9-1l1.3-.2q.8 0 1.3.3t.8 1 .2 1.6h-4v-.7h3.5l-.5.3q.1-.8-.2-1.3t-1.1-.5q-.6 0-1 .5t-.5 1.5q0 .9.4 1.4t1.2.5q.5 0 .9-.3t.4-.7l.9.2q0 .5-.4.8l-.8.6zm5.1 0q-.9.1-1.5-.4t-.7-1.2l1-.1q0 .5.3.8.4.3 1 .3l.8-.2q.3-.2.3-.6l-.1-.4-.4-.3-.5-.1-1.5-.5-.5-.5-.1-.7q0-.4.2-.7l.7-.6 1-.2 1.1.2q.5.2.7.6.3.3.3.9h-.9l-.3-.7-.9-.2q-.4 0-.7.2-.3.1-.3.5 0 .3.2.4l.5.3.8.2q.4 0 .7.2l.5.2.4.5.1.6q0 .8-.5 1.2t-1.7.4" fill="#DAD9D6"/>
<rect x="11.1" y="174.2" width="152.1" height="35.7" rx="6.2" fill="#F0F0EF" fill-opacity=".1"/>
<g clip-path="url(#ac)" stroke="#477BFF" stroke-linecap="round" stroke-linejoin="round" stroke-width="1.2">
<path d="m27.4 184.4 6.7 3.8v7.6l-6.7 3.8-6.7-3.8v-7.6zm0 7.6 6.7-3.8m-6.7 3.8v7.6m0-7.6-6.7-3.8m10.1-1.9-6.8 3.8"/>
</g>
<path d="M45 197v-9.4h4.3q1 0 1.7.4.8.3 1.1 1t.4 1.5-.4 1.6q-.4.6-1.1 1a4 4 0 0 1-1.8.3h-3v-1.3h3.1q.8 0 1.2-.4.4-.3.4-1.2t-.4-1.1q-.4-.4-1.2-.4h-2.8v8zm8.5 0v-10H55v10zm5 .1q-1 0-1.7-.5t-.6-1.5q0-.7.3-1.1t.8-.8l1.2-.3 1.5-.3q.6 0 .7-.3l.2-.6q0-.4-.3-.7l-1.1-.2q-.8 0-1.3.3t-.4 1l-1.4-.2q0-1.2.9-1.7t2.2-.6q1 0 1.6.3t1 .7.3 1.2v3.6l.1.5h.6v1l-.4.2h-.3q-.6 0-1-.3-.3-.2-.3-.8v-.2q-.3.6-1 1zm.5-1.1q.8 0 1.2-.3.6-.3.7-1v-1.4h.1l-.4.2-.7.2-1 .2q-.7 0-1 .4l-.2.7q0 .5.3.7.4.3 1 .3m5 1v-7.3h1.3v1.1l1-.9 1.4-.3q1 0 1.8.6.7.7.7 2v4.8h-1.5v-4.7q0-.6-.4-1-.3-.3-1-.4l-1 .3q-.4 0-.6.6-.3.3-.3.9v4.3zm7.7 0v-7.3h1.4v1.1l1-.9q.6-.3 1.4-.3 1 0 1.8.6.7.7.7 2v4.8h-1.5v-4.7q0-.6-.4-1-.3-.3-1-.4l-1 .3q-.5 0-.6.6-.3.3-.3.9v4.3zm8.1 0v-7.3h1.5v7.3zm.1-8.4v-1.7h1.4v1.7zm3.3 8.4v-7.3h1.4v1.1l1-.9 1.4-.3q1 0 1.8.6.7.7.7 2v4.8H88v-4.7q0-.6-.4-1-.3-.3-1-.4l-1 .3q-.4 0-.6.6-.3.3-.3.9v4.3zm10.7 2.3q-1.4 0-2-.6a2 2 0 0 1-1-1.4l1.4-.3q0 .4.3.7.1.3.6.4h.8q.8 0 1.3-.3.5-.4.5-1.3v-1.3a2 2 0 0 1-.9.9l-1.3.2a3 3 0 0 1-1.6-.4q-.7-.4-1-1.2l-.4-1.7q0-1 .4-1.8.3-.8 1-1.1.7-.5 1.5-.5t1.4.4 1 .9v-1.2h1.4v6.8q0 .8-.4 1.4-.3.7-1 1-.8.4-2 .4m0-4q.7 0 1-.3l.7-.8.2-1v-.4q0-.7-.2-1-.3-.5-.7-.7-.4-.3-1-.3-.8 0-1.3.6t-.5 1.6.5 1.6 1.4.6" fill="#FDFDFD"/>
<g clip-path="url(#ab)">
<path d="m146.5 190.3 3.5 3.5 3.5-3.5" stroke="#DAD9D6" stroke-linecap="round" stroke-linejoin="round" stroke-width=".9"/>
</g>
<g clip-path="url(#aa)" stroke="#4BCB9D" stroke-linecap="round" stroke-linejoin="round" stroke-width="1.2">
<path d="m19.8 238.4v-11l7.6-3.3 7.6 3.4v10.9"/>
<path d="m28.2 231.7h3.4v6.7h-8.4v-5h5"/>
<path d="M28.2 238.4v-7.6a1 1 0 0 0-.8-.8h-1.7a1 1 0 0 0-.8.8v2.5"/>
</g>
<path d="M45 235.8v-9.3h6.6v1.3h-5.1v8zm1.3-4v-1.3H51v1.3zm8.4 4.1q-1.2 0-1.9-.6t-.6-1.9v-4.9h1.5v4.8q0 .6.4 1 .4.3 1 .3t1-.2.5-.6.3-.9v-4.4h1.5v7.3H57v-1l-1 .8q-.6.3-1.3.3m5.2 0v-10.2h1.5v10.1zm3.3 0v-8.4q0-.8.5-1.4.7-.5 1.6-.5h.8v1.3h-.5l-.7.1q-.2.3-.2.8v8zm-1-6.2v-1.2h1.7v1.2zm1.7 0v-1.1h2.2v1zm3.5 6.1v-7.3h1.5v7.3zm0-8.4v-1.7h1.4v1.7zm3 8.4v-10.1h1.4v10.1zm3 0v-7.3h1.3l.1 1.2q.3-.7 1-1 .5-.3 1.2-.3t1.3.4.8 1q.4-.7 1-1t1.4-.4q1.2 0 1.8.7t.6 1.8v5h-1.5v-4.7q0-.7-.3-1-.3-.5-1-.5l-.9.3q-.4.2-.6.6t-.2 1v4.2h-1.5v-4.5q0-.7-.4-1.1-.3-.5-1-.5a2 2 0 0 0-1.4 1l-.3.9v4.2zm15.2.1q-1.1 0-1.9-.4t-1.2-1.3-.5-2 .4-2 1.2-1.3 2-.5 1.7.5 1.2 1.4q.5.9.3 2.3h-5.5v-1.1h4.5l-.6.5q.1-1-.3-1.8-.5-.6-1.4-.6t-1.4.6-.6 2q0 1.2.5 2 .7.5 1.6.5.8 0 1.2-.3t.6-1l1.3.4q0 .6-.6 1.1l-1 .8zm4.2 0v-7.4h1.4v1.1l1-.9q.7-.3 1.4-.3 1 0 1.8.6.7.7.7 2v4.8h-1.5v-4.7q0-.6-.4-1-.3-.3-1-.4l-1 .3q-.4 0-.6.6-.3.3-.3.9v4.3zm9.5 0q-.8 0-1.1-.3-.4-.4-.4-1v-8l1.5-.2v8.1l.5.2h.4l.2-.1v1.2h-.5zm-2.5-6.2v-1.2h1.7v1.2zm3.6 0h-1.9v-1.1h2z" fill="#FDFDFD"/>
<g clip-path="url(#z)">
<path d="m146.5 229 3.5 3.6 3.5-3.5" stroke="#DAD9D6" stroke-linecap="round" stroke-linejoin="round" stroke-width=".9"/>
</g>
<g clip-path="url(#y)" stroke="#FA9349" stroke-linecap="round" stroke-linejoin="round" stroke-width="1.2">
<path d="m35 270.5a7.6 7.6 0 1 0-7.6 6.7m-7.1-10.1h14.2m-14.2 5h8"/>
<path d="M27 262a14 14 0 0 0 0 15.2m.8-15.2q2.5 4 2.1 8.7m.9 7.3 4.2-4.2m0 3.8v-3.8h-3.8"/>
</g>
<path d="M48.8 274.7q-1.4 0-2.4-.5t-1.5-1.7a6 6 0 0 1-.5-2.6q0-1.5.6-2.6.5-1 1.5-1.6t2.3-.6 2 .4 1.4 1.2q.6.6.7 1.6l-1.6.3q-.2-1-.8-1.6-.7-.5-1.7-.5t-1.6.4-.9 1.2L46 270q0 1.8.8 2.6.7.9 2 .9 1 0 1.7-.6t.9-1.5l1.5.2a4 4 0 0 1-2.1 2.9 5 5 0 0 1-2 .3m7.7 0q-1.2 0-2-.6-.6-.6-.6-1.9v-4.9h1.5v4.8q0 .6.4 1 .4.3 1 .3t1-.2l.6-.6.2-.9v-4.4h1.5v7.3h-1.3l-.1-1q-.4.5-1 .8t-1.2.3m7.8 0q-1.5 0-2.2-.6-.9-.6-1-1.7l1.5-.2q0 .6.5 1t1.2.5 1-.3q.5-.2.5-.8 0-.3-.2-.5l-.4-.3-.7-.2-.8-.2q-.8 0-1.2-.4-.6-.3-.8-.7l-.2-1q0-.6.3-1 .4-.5 1-.8t1.5-.3q.8 0 1.5.3t1 .7.4 1.2l-1.4.2q0-.6-.4-1-.4-.3-1.1-.3-.6 0-1 .2-.3.3-.3.7t.2.6l.6.3 1.2.3 1 .2.7.4.5.6.1 1a2 2 0 0 1-.7 1.5q-.8.6-2.3.6m6 0q-.7 0-1.1-.3-.4-.4-.4-1v-8l1.5-.2v8.1l.6.2h.3l.2-.1v1.2zm-2.5-6.2v-1.2h1.7v1.2zm3.6 0h-1.9v-1.1h2zm4.1 6.2q-1 0-1.9-.4-.7-.5-1.2-1.3t-.4-2 .4-2 1.3-1.3 1.8-.5 1.9.5 1.2 1.3.4 2q0 1-.4 2-.4.8-1.2 1.3-.9.4-1.9.4m0-1.2q.9 0 1.5-.7t.5-1.8-.5-1.9q-.6-.6-1.5-.6t-1.5.6-.5 1.9.5 1.8 1.5.7m4.6 1.1v-7.3h1.4v1.2q.4-.7 1-1l1.2-.3q.8 0 1.4.4t.8 1q.4-.6 1-1t1.4-.4q1 0 1.8.7.6.6.6 1.8v5h-1.5V270q0-.7-.3-1-.4-.5-1-.5l-1 .3q-.3.1-.5.6t-.2 1v4.2h-1.5v-4.5q0-.7-.4-1.1-.3-.5-1-.5a2 2 0 0 0-1.5 1l-.2.9v4.2zm14.7.1q-1.3 0-2.2-.6-.7-.6-.9-1.7l1.5-.2q0 .6.5 1t1.2.5q.6 0 1-.3t.4-.8l-.1-.5-.5-.3-.6-.2-.9-.2q-.8 0-1.2-.4-.5-.3-.7-.7-.3-.4-.3-1t.4-1 1-.8q.6-.3 1.5-.3t1.4.3q.7.2 1 .7t.5 1.2l-1.5.2q0-.6-.3-1-.5-.3-1.2-.3t-1 .2-.3.7l.2.6.7.3 1.1.3 1 .2.7.4.5.6.2 1a2 2 0 0 1-.8 1.5q-.7.6-2.3.6" fill="#FDFDFD"/>
<g clip-path="url(#x)">
<path d="m146.5 267.9 3.5 3.5 3.5-3.5" stroke="#DAD9D6" stroke-linecap="round" stroke-linejoin="round" stroke-width=".9"/>
</g>
<rect x="9.6" y="62.8" width="153" height="22.8" rx="2.6" fill="#DAD9D6" fill-opacity=".1"/>
<rect x="9.6" y="62.8" width="153" height="22.8" rx="2.6" stroke="#343331" stroke-width=".6"/>
<path d="m29 79.7-.4.2-.3-.2-2.4-2.3a5 5 0 1 1 .7-.7l2.3 2.4a.4.4 0 0 1 0 .6m-6.3-2a4.2 4.2 0 1 0 0-8.3 4.2 4.2 0 0 0 0 8.3M42 73.4q0-.4-.3-.7l-.5-.5-.8-.1q-.7 0-1 .3t-.4.7l.2.6.6.3 1 .3.8.2q.4 0 .7.3l.5.6q.3.3.2.8 0 .7-.3 1.1l-.9.7q-.6.3-1.4.3T39 78a2 2 0 0 1-1.2-2h1q0 .7.4 1t1.2.4 1.2-.2.4-.9l-.2-.6-.6-.4-.8-.2q-.6 0-1-.3l-.8-.4-.5-.5-.1-.8q0-.5.3-1l.8-.6 1.3-.2q1.1 0 1.8.5t.7 1.5zm4.3 4.9q-.8 0-1.3-.4-.6-.3-.9-.9t-.3-1.5.3-1.4l.8-1q.6-.3 1.4-.3t1.3.3l.8 1q.3.7.2 1.7h-4V75H48l-.4.3q0-.8-.2-1.3-.4-.6-1.1-.5t-1.1.4q-.5.5-.5 1.5t.5 1.5 1.1.5 1-.3l.4-.7.8.2q0 .5-.3.8l-.8.6zm4.7 0q-.9 0-1.3-.4t-.4-1.1q0-.5.2-.9l.6-.5.9-.2 1-.2q.5 0 .6-.3l.1-.4q0-.3-.2-.5t-.8-.2-1 .2-.3.7h-1q0-.9.7-1.3t1.6-.4q.6 0 1 .2t.8.5l.2 1V77l.1.3.2.1h.2v.7h-.4L53 78q-.2-.1-.2-.5v-.2l-.7.7zm.2-.8q.6 0 1-.2t.6-.7v-1.2l-.2.2-.6.1-.8.2q-.5 0-.8.3l-.2.5q0 .5.3.6zm3.9.7v-5.3h.8v.8l.6-.6.7-.2h.5v1h-.1l-.2-.1h-.2q-.5 0-.8.3t-.4.9v3.2zm5.3 0q-.8 0-1.3-.3t-.9-1q-.3-.5-.3-1.4t.3-1.4a2 2 0 0 1 2.2-1.3q1 0 1.6.5t.7 1.3l-1 .1q0-.5-.4-.8-.3-.3-.9-.3t-1 .6q-.6.4-.5 1.3t.4 1.4q.4.6 1.1.5.6 0 1-.3.3-.2.3-.8l1 .2a2 2 0 0 1-1.2 1.5q-.5.3-1 .3m3.2 0v-7.4h1v2.8q.3-.4.7-.6l1-.2q.8 0 1.3.5t.5 1.3v3.6h-1v-3.5q0-.5-.3-.8l-.8-.2-.7.1-.5.5q-.2.3-.2.7v3.2z" fill="#fff" fill-opacity=".2"/>
<path d="m0 142.8h174" opacity=".3" stroke="#DAD9D6" stroke-width=".6"/>
<path d="M34.3 19q-.6-.1-.5-.7a4 4 0 0 1 1.7-2.3 4.6 4.6 0 0 1 7.1 2.7l.1 1q0 .7-.7.6zm-9.4 7.8q-.7 0-.8-.5a6 6 0 0 1 2.2-6 7 7 0 0 1 7-.7 6 6 0 0 1 3 3q.2.7-.4.9zm13.6-3.7q-.4.5.1.9l4.2 2.8q.6.2.9-.2a3 3 0 0 0-2.3-4.3 3 3 0 0 0-3 .8" fill="#FDFDFD"/>
<path d="M52.7 16.6h-4.2v9.8h2.2v-3.2h2a4 4 0 0 0 2.7-.8q1-.9 1-2.5a3 3 0 0 0-1-2.4 4 4 0 0 0-2.7-.9m1.6 3.3q0 1.6-1.9 1.6h-1.7v-3.1h1.7q.9 0 1.4.3.5.4.5 1.2m2.5 6.1q.8.6 2 .6 1.5 0 2.4-.8v.6h2v-4q0-1.5-.9-2.2t-2.8-.7a8 8 0 0 0-2.6.4v1.6q1-.5 2.3-.5.9 0 1.4.3t.5 1v.1l-1-.3-1.2-.2q-1.5 0-2.2.7t-.7 1.7.8 1.7m3.6-1q-.4.2-1 .2t-.9-.2l-.3-.7q0-.4.3-.7t1-.3 1.6.5v.7z" clip-rule="evenodd" fill="#FDFDFD" fill-rule="evenodd"/>
<path d="M64.2 19.7h2.1v1q.5-.6 1.2-.8t1.6-.2h1v-2h2.2v2h1.6v1.5h-1.6V24q0 .6.2.9l.8.3h.2v1.5h-1q-1.1 0-1.8-.6t-.6-1.8v-3h-1q-1 0-1.7.4-.7.3-1 .9v4h-2.2zm10.2 6.9h2.8q1.6 0 2.4-.5t.8-1.5q0-.6-.2-1-.1-.4-.7-.7l-1.4-.5h-.3l-1.1-.4q-.3-.2-.3-.4t.3-.5h.9a5 5 0 0 1 2.4.5V20l-1.2-.4-1.5-.1q-1.5 0-2.3.5-.9.6-.9 1.6 0 .6.3 1t.7.7l1.4.5 1.6.5.1.4q0 .2-.3.3l-.8.1h-2.7zm21.2-.2a10 10 0 0 1-3-.5v-1.3q1.3.6 2.9.6 2.2 0 2.2-1.4 0-.5-.2-.9l-.7-.5-1.5-.6q-1.4-.6-2-1.3-.7-.6-.7-1.7 0-.8.4-1.3t1.3-1 1.7-.3l1.5.1 1.3.4V18q-1.2-.6-2.5-.6-1 0-1.6.4-.5.4-.5 1t.2.8l.7.6 1.4.6 1.6.8q.6.3.9.9.3.4.3 1.3 0 1.2-1 2-.9.6-2.7.6m-8.8 0q-1.6 0-2.7-.6T82 24q-.6-1.2-.6-2.7t.7-2.6q.6-1.2 1.9-1.8t2.7-.7 2.7.7 1.8 1.8q.7 1 .7 2.6t-.7 2.7q-.6 1.2-1.8 1.8t-2.7.6m0-1.3a4 4 0 0 0 1.9-.4q.8-.5 1.4-1.3a4 4 0 0 0 .5-2q0-1.2-.5-2T88.7 18t-2-.5-1.9.5-1.3 1.3a4 4 0 0 0-.5 2q0 1.2.5 2t1.3 1.4a4 4 0 0 0 2 .4" fill="#FDFDFD"/>
<path d="M34.3 19q-.6-.1-.5-.7a4 4 0 0 1 1.7-2.3 4.6 4.6 0 0 1 7.1 2.7l.1 1q0 .7-.7.6zm-9.4 7.8q-.7 0-.8-.5a6 6 0 0 1 2.2-6 7 7 0 0 1 7-.7 6 6 0 0 1 3 3q.2.7-.4.9zm13.6-3.7q-.4.5.1.9l4.2 2.8q.6.2.9-.2a3 3 0 0 0-2.3-4.3 3 3 0 0 0-3 .8Z" stroke="#E5E5E5"/>
<path d="M52.7 16.6h-4.2v9.8h2.2v-3.2h2a4 4 0 0 0 2.7-.8q1-.9 1-2.5a3 3 0 0 0-1-2.4 4 4 0 0 0-2.7-.9Zm1.6 3.3q0 1.6-1.9 1.6h-1.7v-3.1h1.7q.9 0 1.4.3.5.4.5 1.2Zm2.5 6.1q.8.6 2 .6 1.5 0 2.4-.8v.6h2v-4q0-1.5-.9-2.2t-2.8-.7a8 8 0 0 0-2.6.4v1.6q1-.5 2.3-.5.9 0 1.4.3t.5 1v.1l-1-.3-1.2-.2q-1.5 0-2.2.7t-.7 1.7.8 1.7Zm3.6-1q-.4.2-1 .2t-.9-.2l-.3-.7q0-.4.3-.7t1-.3 1.6.5v.7z" clip-rule="evenodd" stroke="#E5E5E5"/>
<path d="M64.2 19.7h2.1v1q.5-.6 1.2-.8t1.6-.2h1v-2h2.2v2h1.6v1.5h-1.6V24q0 .6.2.9l.8.3h.2v1.5h-1q-1.1 0-1.8-.6t-.6-1.8v-3h-1q-1 0-1.7.4-.7.3-1 .9v4h-2.2zm10.2 6.9h2.8q1.6 0 2.4-.5t.8-1.5q0-.6-.2-1-.1-.4-.7-.7l-1.4-.5h-.3l-1.1-.4q-.3-.2-.3-.4t.3-.5h.9a5 5 0 0 1 2.4.5V20l-1.2-.4-1.5-.1q-1.5 0-2.3.5-.9.6-.9 1.6 0 .6.3 1t.7.7l1.4.5 1.6.5.1.4q0 .2-.3.3l-.8.1h-2.7zm21.2-.2a10 10 0 0 1-3-.5v-1.3q1.3.6 2.9.6 2.2 0 2.2-1.4 0-.5-.2-.9l-.7-.5-1.5-.6q-1.4-.6-2-1.3-.7-.6-.7-1.7 0-.8.4-1.3t1.3-1 1.7-.3l1.5.1 1.3.4V18q-1.2-.6-2.5-.6-1 0-1.6.4-.5.4-.5 1t.2.8l.7.6 1.4.6 1.6.8q.6.3.9.9.3.4.3 1.3 0 1.2-1 2-.9.6-2.7.6Zm-8.8 0q-1.6 0-2.7-.6T82 24q-.6-1.2-.6-2.7t.7-2.6q.6-1.2 1.9-1.8t2.7-.7 2.7.7 1.8 1.8q.7 1 .7 2.6t-.7 2.7q-.6 1.2-1.8 1.8t-2.7.6Zm0-1.3a4 4 0 0 0 1.9-.4q.8-.5 1.4-1.3a4 4 0 0 0 .5-2q0-1.2-.5-2T88.7 18t-2-.5-1.9.5-1.3 1.3a4 4 0 0 0-.5 2q0 1.2.5 2t1.3 1.4a4 4 0 0 0 2 .4Z" stroke="#E5E5E5"/>
<g clip-path="url(#w)">
<g clip-path="url(#v)">
<rect x="17.5" y="518.6" width="23.4" height="23.4" rx="11.7" fill="#fff"/>
<rect x="17.5" y="518.6" width="23.4" height="23.4" rx="11.7" fill="url(#u)"/>
</g>
<rect x="17.8" y="518.9" width="22.8" height="22.8" rx="11.4" stroke="#D9D9D9" stroke-width=".6"/>
</g>
<path d="M46.3 527v-6h1.3l1.8 5h-.1l1.7-5h1.4v6h-.9v-5.5h.2l-2 5.5h-.8l-2-5.5h.2v5.5zm7.5 0v-4.6h.9v4.6zm0-5.3v-1h.8v1zm4 5.4q-.6 0-1-.3l-.8-.8q-.3-.6-.3-1.3t.3-1.2a2 2 0 0 1 1.9-1.1q.8 0 1.3.4t.6 1.1l-.8.1-.3-.7-.8-.2q-.6 0-1 .4t-.4 1.2.4 1.2 1 .5q.4 0 .8-.3.3-.2.3-.7l.8.1a2 2 0 0 1-1 1.4q-.4.3-1 .2m2.9 0v-6.5h.8v2.5l.6-.6.9-.2q.6 0 1.1.4t.5 1.3v3h-.9v-3q0-.4-.2-.7l-.8-.2-.6.1-.4.4q-.2.3-.2.7v2.7zm6.3 0q-.8 0-1.1-.3-.4-.4-.4-1 0-.4.2-.7l.5-.4.8-.3 1-.2q.3 0 .4-.2l.1-.3q0-.3-.2-.5l-.7-.2q-.6 0-.9.2l-.3.6h-.8q0-.7.6-1t1.4-.4l1 .1.5.5q.3.3.3.7v2.7h.4v.6h-.2l-.2.1-.6-.2-.2-.5v-.1q0 .3-.6.6zm.2-.6.9-.2.4-.6v-1h.1-.2l-.5.2-.7.1q-.6 0-.7.3l-.2.5q0 .3.3.5zm5.2.6q-.6 0-1.1-.3l-.8-.8q-.3-.5-.3-1.3 0-.7.3-1.2t.7-.8 1.2-.3 1.1.2.7 1 .2 1.4H71v-.7h3l-.4.3q.1-.7-.2-1.1t-1-.5q-.5 0-.9.4t-.4 1.3.4 1.3 1 .4.8-.2.4-.6l.8.1q0 .5-.4.8l-.6.5zm2.9 0v-6.5h.8v6.4zm7.3-4.2-.1-.6-.5-.4-.7-.2q-.6 0-.9.3-.3.1-.3.6 0 .3.2.5l.5.3.9.2.7.2.6.3.4.5.2.8q0 .4-.3.9t-.7.6l-1.3.2q-.7 0-1.2-.2a2 2 0 0 1-1-1.7l.8-.1q0 .6.4 1 .3.3 1 .3t1-.2q.4-.2.4-.8 0-.3-.2-.5t-.5-.3l-.7-.2-1-.3-.6-.3-.4-.5v-.7q0-.5.2-.8t.7-.6l1-.2q1.1 0 1.7.5t.6 1.3zm2 4.1v-4.6h.7v.8l.6-.6a2 2 0 0 1 1.7 0l.5.7.6-.7q.4-.2 1-.2t1 .4q.4.5.4 1.1v3.1h-.8v-3q0-.4-.2-.6-.3-.3-.7-.3t-.6.2q-.3 0-.4.4l-.1.7v2.6h-.9v-2.9q0-.4-.2-.7t-.7-.3a1 1 0 0 0-1 .6l-.1.7v2.6zm8 0v-4.6h.8v4.6zm0-5.3v-1h.8v1zm3.2 5.4q-.4 0-.7-.2l-.2-.6v-5.1l.8-.1v5.2l.4.1h.3v.6zm-1.5-4v-.7h1v.7zm2.1 0h-1.1v-.7h1.1zm.8 4v-6.5h.8v2.5l.7-.6.8-.2q.8 0 1.2.4t.4 1.3v3h-.8v-3q0-.4-.3-.7l-.7-.2-.6.1-.5.4-.2.7v2.7z" fill="#FDFDFD"/>
<path d="M46.1 539.5V535h.8v.8l.6-.6a2 2 0 0 1 1.7 0l.5.7.6-.7q.4-.2 1-.2t1 .4q.4.5.4 1.1v3.1H52v-3q0-.4-.2-.6-.3-.3-.7-.3t-.6.2q-.3 0-.4.4l-.1.7v2.6h-1v-2.9q0-.4-.2-.7t-.7-.3a1 1 0 0 0-1 .6l-.1.7v2.6zm8 0V535h.9v4.6zm.1-5.3v-1h.8v1zm4 5.4q-.6 0-1.2-.3l-.7-.8q-.3-.6-.3-1.3t.3-1.2a2 2 0 0 1 2-1.1q.8 0 1.3.4t.6 1.1l-.9.1-.3-.7-.8-.2q-.6 0-1 .4-.3.5-.3 1.2 0 .9.3 1.3.4.3 1 .4.5 0 .8-.3.3-.1.3-.6h.9a2 2 0 0 1-1 1.4q-.4.3-1 .2m2.8 0V533h.8v2.5q.3-.4.7-.6l.8-.2q.7 0 1.1.4t.5 1.3v3H64v-3q0-.5-.3-.6-.3-.3-.7-.3l-.7.1-.4.5-.2.6v2.7zm6.3 0q-.7 0-1.1-.3-.4-.4-.4-1 0-.4.2-.7l.6-.4.7-.3 1-.2q.3 0 .4-.2l.2-.3q0-.3-.3-.5 0-.2-.7-.2-.5 0-.8.2l-.3.6H66q0-.7.5-1t1.4-.4l1 .1.6.5.2.8v2.6h.4v.6l-.2.1h-.2l-.5-.2q-.2 0-.2-.5v-.1l-.7.6zm.2-.6.9-.2.5-.6v-1h-.2l-.5.2-.7.1-.7.3-.1.5q0 .3.2.5zm5.2.6q-.6 0-1.1-.2l-.8-.9q-.3-.4-.3-1.3l.3-1.2q.3-.5.7-.8l1.2-.3q.6 0 1.1.2t.8 1l.2 1.4h-3.5v-.7h3l-.4.3q0-.7-.2-1.1t-1-.5q-.6 0-1 .4-.3.4-.3 1.3t.3 1.3 1 .4.9-.2.4-.6l.7.1q0 .5-.3.8l-.7.5zm2.9 0V533h.8v6.4zm3.7 0q-.8 0-1.4-.4t-.6-1l.8-.2q0 .4.3.7.4.3.9.3t.7-.2q.3 0 .3-.5l-.1-.4-.3-.2h-.5l-1.3-.5-.4-.4-.2-.6q0-.4.2-.7l.6-.5 1-.1.9.1q.5.2.6.5.3.3.3.8h-.8l-.3-.6-.8-.2-.6.2q-.2 0-.2.4v.4l.5.2.8.2.6.2.4.2q.3.1.3.4l.1.6q0 .6-.4 1-.5.3-1.4.3m2.7 0v-4.7h.8v.8q.3-.4.7-.6a2 2 0 0 1 1.6 0l.5.7.7-.7q.3-.2.8-.2.8 0 1.2.4t.4 1.1v3.1h-.9v-3q0-.4-.2-.6-.2-.3-.6-.3t-.7.2l-.4.4-.1.7v2.6h-.9v-2.9q0-.4-.2-.7-.1-.3-.6-.3a1 1 0 0 0-1 .6q-.2.3-.2.7v2.6zm8 0v-4.7h1v4.6zm.1-5.4v-1h.8v1zm3.2 5.4q-.4 0-.7-.2l-.2-.6v-5.1l.8-.1v5.2l.4.1h.4v.6zm-1.5-4v-.7h1v.7zm2.2 0h-1.2v-.7H94zm.7 4V533h.9v2.5l.6-.6.8-.2q.8 0 1.2.4t.4 1.3v3h-.8v-3q0-.5-.2-.6-.3-.3-.8-.3l-.6.1-.5.5-.1.6v2.7zm10.3-.5q-.4 0-.7-.2-.3-.1-.3-.6l-.6.6-.7.2q-.6 0-1-.4-.3-.4-.3-1l.1-.9.4-.7.6-.5q.3-.2.8-.2l.6.2q.3 0 .3.4l.2-.5h.7l-.4 2.3v.6q0 .2.5.2l.4-.1.4-.3.3-.6v-.9a3 3 0 0 0-.8-2q-.3-.3-.9-.5a3 3 0 0 0-3.5.7 3 3 0 0 0-1 2.5q0 1 .4 1.7t1.1 1.1 1.6.4q.7 0 1.2-.2l1-.5.3.3q-.5.4-1.1.6l-1.5.3q-.8 0-1.4-.3a3 3 0 0 1-1.9-2q-.3-.6-.3-1.4a4 4 0 0 1 1.2-2.8q.5-.5 1.2-.8t1.5-.3 1.4.2l1.1.7.8 1 .2 1.3q0 .6-.2 1.1l-.4.7-.6.5zm-2.1-.6q.4 0 .7-.3t.4-.9v-.7q0-.3-.2-.5l-.4-.2-.6.2-.3.4-.3 1.2.2.6zm6.7 2.5q-.8 0-1.3-.4-.4-.3-.5-.9l.8-.2.1.5.4.3h.6q.6 0 .9-.2t.3-.9v-.8q-.1.3-.6.5l-.8.2-1-.3q-.4-.2-.7-.7l-.2-1.1q0-.6.2-1.1l.7-.8 1-.2q.5 0 .8.2.4.1.6.6v-.8h.9v4.3q0 .5-.3 1l-.7.6zm0-2.5q.4 0 .7-.2l.5-.5.1-.6v-.4l-.1-.6-.5-.5-.7-.1a1 1 0 0 0-.8.4q-.3.4-.3 1t.3 1 .9.5m3.3 1V535h.8v.8l.6-.6a2 2 0 0 1 1.7 0l.5.7q.1-.4.6-.7t.9-.2q.8 0 1.1.4t.4 1.1v3.1h-.8v-3q0-.4-.2-.6-.3-.3-.7-.3t-.6.2l-.4.4-.2.7v2.6h-.8v-2.9q0-.4-.2-.7t-.7-.3a1 1 0 0 0-1 .6l-.1.7v2.6zm9 .1q-.7 0-1-.3-.5-.4-.5-1 0-.4.3-.7l.5-.4.7-.3 1-.2q.3 0 .5-.2v-.3l-.1-.5-.8-.2q-.5 0-.8.2l-.3.6h-.8q0-.7.6-1t1.3-.4l1 .1q.5.2.6.5.3.3.2.8v2.3l.1.3h.4v.6l-.2.1h-.2l-.6-.2q-.2 0-.2-.5v-.1l-.6.6zm.3-.6.8-.2q.4-.3.5-.6v-1h-.2l-.5.2-.6.1-.7.3-.2.5q0 .3.3.5zm3.6.5V535h.8v4.6zm0-5.3v-1h.8v1zm2 5.3v-6.4h.9v6.4zm1.7 0v-.9h.9v1zm3.5.1q-.6 0-1.1-.3l-.8-.8q-.3-.6-.3-1.3t.3-1.2a2 2 0 0 1 2-1.1q.8 0 1.3.4t.6 1.1l-.8.1-.4-.7-.8-.2q-.6 0-1 .4-.3.5-.3 1.2 0 .9.3 1.3.4.3 1 .4.5 0 .8-.3.3-.1.3-.6h.9a2 2 0 0 1-1 1.4q-.4.3-1 .2m4.8 0q-.7 0-1.2-.3l-.7-.8-.3-1.2q0-.8.3-1.3a2 2 0 0 1 1.9-1.1q.6 0 1.1.3t.8.8l.3 1.2q0 .8-.3 1.3l-.8.8q-.5.3-1.1.3m0-.7q.6 0 1-.4.3-.4.3-1.3 0-.7-.3-1.2-.4-.4-1-.4t-1 .4a2 2 0 0 0-.4 1.2q0 .9.4 1.3.3.4 1 .4m3 .6V535h.8l.1.8.6-.6a2 2 0 0 1 1.6 0q.5.3.6.7.2-.4.6-.7t.9-.2q.7 0 1.1.4t.4 1.1v3.1h-.8v-3q0-.4-.3-.6-.2-.3-.6-.3t-.6.2q-.2 0-.5.4l-.1.7v2.6h-.8v-2.9l-.2-.7q-.3-.3-.7-.3a1 1 0 0 0-1 .6l-.2.7v2.6z" fill="#FDFDFD" opacity=".4"/>
<path d="M174 495H0" opacity=".3" stroke="#DAD9D6" stroke-width=".7"/>
<g clip-path="url(#t)" stroke="#FDFDFD" stroke-linecap="round" stroke-linejoin="round" stroke-width=".9">
<path d="m20.4 443.3v-7.6a2 2 0 0 1 1.8-1.8h5.8a2 2 0 0 1 1.8 1.8v3.5a2 2 0 0 1-1.8 1.7h-5.2z"/>
<path d="m23.7 438.6a2 2 0 0 0 2.9 0"/>
</g>
<path d="M46 437.3q0-.4-.3-.7l-.5-.4-.7-.2q-.6 0-1 .3-.3.2-.3.6 0 .5.2.6l.6.3 1 .3.8.2.7.4.5.5.1.9q0 .6-.3 1l-.9.8-1.4.2q-.8 0-1.4-.3l-1-.7-.2-1.2 1-.2q0 .8.5 1.1t1.1.4 1-.2q.5-.3.5-.9l-.2-.5-.6-.4-.8-.2-1-.2-.7-.4a2 2 0 0 1-.6-1.4q0-.6.3-1t.8-.6 1.3-.3q1.2 0 1.8.6t.7 1.4zm4 4.8q-.9 0-1.4-.5t-.4-1.3v-3.6h1v3.5q0 .4.3.7t.8.2l.7-.1.4-.4.2-.7v-3.2h1v5.3h-1v-.8q-.2.4-.6.7zm4 1.5v-6.9h1v.9l.7-.7q.5-.3 1-.3.8 0 1.3.4.5.3.7.9.3.6.3 1.4t-.3 1.5-.7 1-1.3.3l-1-.2-.7-.7v2.4zm1-4 .2.8q.2.4.5.6l.8.2q.7 0 1-.5t.4-1.4-.4-1.3q-.3-.4-1-.4l-.8.1-.5.6-.2.8zm5 4v-6.9h1l.1.9.7-.7q.4-.3 1-.3.8 0 1.2.4.5.3.8.9t.3 1.4-.3 1.5-.8 1-1.2.3q-.6 0-1-.2l-.7-.7v2.4zm1.1-4q0 .5.2.8t.5.6l.8.2q.6 0 1-.5t.4-1.4-.4-1.3-1-.4l-.8.1q-.3.2-.5.6l-.2.8zm7.3 2.5q-.8 0-1.3-.3l-1-1-.3-1.4q0-.8.4-1.5.3-.6.9-1l1.3-.3q.8-.1 1.4.4.5.3.8 1 .4.5.4 1.4t-.4 1.4l-.8 1q-.6.3-1.4.3m0-.9q.7 0 1-.5.5-.5.5-1.3t-.4-1.4q-.4-.4-1-.4-.9 0-1.2.4-.4.5-.4 1.4t.4 1.3 1.1.5m3.6.8v-5.3h1v.8q.2-.4.5-.6.3-.3.8-.2h.4v1h-.4q-.6 0-.9.3t-.3.8v3.2zm5 0q-.6 0-1-.2l-.2-.7v-5.8l1-.1v5.5l.1.4h.8v.9zm-1.9-4.4v-.9h1.2v.8zm2.6 0h-1.4v-.9h1.4z" fill="#FDFDFD"/>
<rect x="136.9" y="431.9" width="12" height="12.3" rx="6" fill="#FF6762"/>
<path d="M141.3 440v-.4l1.7-1.9.8-1v-.4a1 1 0 0 0-.4-.8l-.5-.1-.5.1q-.3 0-.3.3l-.2.6h-.6q0-.5.3-.8.1-.4.5-.6l.8-.1.8.1.6.6.2.7-.1.5-.4.6-.7.8-1.1 1.2h2.3v.6z" fill="#fff"/>
<g clip-path="url(#s)" stroke="#FDFDFD" stroke-linecap="round" stroke-linejoin="round" stroke-width=".9">
<path d="m26.3 470.7v-1.1a1.2 1.2 0 0 0-1.2-1.2h-4a1.2 1.2 0 0 0-1.2 1.2v7a1 1 0 0 0 1.1 1.1h4.1a1.2 1.2 0 0 0 1.2-1.1v-1.2m-4.1-2.4h8.2l-1.8-1.7m1.8 1.8-1.8 1.7"/>
</g>
<path d="M42.2 477v-6.8h1.1v6l-.1-.1H47v1zm7.7.2q-.9 0-1.4-.4-.6-.3-.9-1l-.3-1.4q0-.8.3-1.4t1-1 1.3-.3 1.3.3.9 1 .3 1.4-.3 1.5-.9 1zm0-1q.6 0 1-.4.4-.6.4-1.4 0-.9-.4-1.3t-1-.5q-.8 0-1.1.5t-.4 1.3.4 1.4 1 .4m5.6 2.5q-.9 0-1.5-.4t-.6-1l1-.3q0 .3.2.5.1.3.4.3l.6.1q.6 0 1-.3.3-.3.3-1v-.8l-.6.6-1 .2q-.6 0-1.1-.3l-.8-.9q-.3-.6-.3-1.3t.3-1.2.7-.9l1.2-.3q.6 0 1 .2t.6.7l.1-.8h1v4.9q0 .6-.3 1t-.8.7-1.4.3m0-3 .8-.1.5-.6.1-.7v-.3l-.1-.8-.5-.5-.8-.1q-.6 0-1 .4l-.2 1.1q0 .7.3 1.2t1 .5m6 1.5q-.8 0-1.3-.4-.6-.3-.9-1l-.3-1.4q0-.8.3-1.4t1-1q.4-.3 1.3-.3t1.3.3q.6.4.9 1t.3 1.4-.3 1.5-.9 1l-1.3.3m0-1q.8 0 1.1-.4.4-.6.4-1.4 0-.9-.4-1.3t-1-.5q-.8 0-1.1.5t-.4 1.3.4 1.4 1 .4m5.5 1q-.8 0-1.4-.5t-.5-1.4v-3.5h1.1v3.4q0 .5.3.7.3.3.7.3t.7-.2q.3 0 .5-.4l.1-.7v-3.1h1.1v5.3h-1v-.8q-.3.4-.7.6zm5.3 0q-.5 0-.8-.3t-.3-.7v-5.9h1v5.4l.1.4.4.1h.4v.8zm-1.8-4.6v-.8h1.2v.8zm2.6 0h-1.4v-.8h1.4z" fill="#FDFDFD"/>
<rect x="206.7" y="368.5" width="225.4" height="164.1" rx="4.7" fill="#FDFDFD"/>
<rect x="445" y="368.5" width="367.4" height="164.1" rx="4.7" fill="#FDFDFD"/>
<path d="M222.1 392.4q-1.3 0-2.3-.5t-1.5-1.7-.5-2.6.5-2.6q.5-1 1.4-1.6 1-.6 2.4-.6t2.4.6 1.5 1.6.5 2.6-.5 2.5-1.5 1.7q-.9.6-2.4.6m0-1.6q1.2 0 1.9-.8.6-.7.6-2.4 0-1.5-.6-2.3-.6-.9-1.9-.9-1 0-1.8.8-.6.8-.6 2.4t.6 2.3q.6.9 1.8.9m5.8 1.5v-7.4h1.6v1.2l.8-1 1-.2h.6v1.7h-.3l-.3-.1q-.8 0-1.1.4-.5.4-.6 1v4.4zm4.5-3.7q0-1 .4-2 .3-.9 1-1.3a3 3 0 0 1 1.8-.5q.8 0 1.3.3t.9.9v-3.9h1.8v10.2h-1.7V391q-.4.6-1 1-.6.3-1.4.3a3 3 0 0 1-1.6-.5 3 3 0 0 1-1.1-1.3 5 5 0 0 1-.4-2m1.8 0q0 1.1.5 1.8.4.5 1.3.5l1-.2.6-.7.2-1v-.7q0-.6-.2-1l-.6-.8-1-.2q-.9 0-1.3.6t-.5 1.7m10.3 3.8a4 4 0 0 1-1.9-.4q-.8-.5-1.3-1.3-.4-1-.4-2 0-1.3.4-2 .4-1 1.3-1.4.7-.5 1.9-.5 1 0 1.9.5t1.2 1.5.2 2.3h-5.5v-1.2h4.3l-.6.5q.1-1-.3-1.6-.3-.6-1.3-.6-.8 0-1.3.6t-.5 1.8.5 1.8 1.4.6l1.2-.3q.5-.3.6-.9l1.5.4q-.2.7-.6 1.2-.5.5-1.1.7-.7.3-1.6.3m4.6-.1v-7.4h1.6v1.2l.8-1 1-.2h.6v1.7h-.3l-.3-.1q-.7 0-1.1.4t-.5 1v4.4zm8 0v-9.4h1.7v9.4zm1.5-4v-1.6h4.8v1.6zm4.6 4v-9.4h1.8v9.4zm3.9 0v-7.4h1.7v7.4zm0-8.4V382h1.7v1.8zm6.3 8.5q-1.4 0-2.3-.6-.7-.7-.9-1.8l1.7-.2q0 .6.4 1t1.2.4l.9-.2q.3-.3.3-.7l-.1-.5-.4-.3-.7-.2-2-.6-.7-.6q-.3-.5-.3-1 0-.8.3-1.2.4-.6 1-.8t1.7-.3q.8 0 1.5.3t1 .7.4 1.2l-1.6.2q0-.5-.4-.9-.4-.3-1-.3t-.9.3l-.2.5q0 .3.2.5t.6.4l2 .5q.5 0 .8.4.3.1.5.6l.2 1a2 2 0 0 1-.8 1.6q-.9.6-2.4.6m6.5 0q-.9 0-1.3-.4-.3-.4-.4-1.2V383l1.8-.2v8l.6.1h.6v1.3zm-2.6-6.2V385l1.8.1v1.2zm3.9 0H279V385h2zm4.3 6.2q-1 0-1.9-.5t-1.2-1.3q-.5-.9-.5-2t.5-2 1.2-1.3 2-.5 1.9.5q.8.4 1.2 1.3.5.9.5 2t-.5 2-1.2 1.3-2 .5m0-1.4q.9 0 1.4-.7t.5-1.7-.5-1.7-1.4-.6-1.3.6-.5 1.7.5 1.7 1.3.7m5 1.3v-7.4h1.6v1.2l.8-1 1-.2h.6v1.7h-.3l-.3-.1q-.7 0-1.2.4l-.5 1v4.4zm6.3 2.2-.9-.1V393h.3l.3.1q.4 0 .7-.2.3-.1.4-.5l.2-.5-2.7-7h1.9l1 3 .7 2.6.7-2.6 1-3h1.8l-3 7.9-.5 1q-.3.4-.8.6z" fill="#343331"/>
<rect x="337.9" y="375.5" width="85" height="23.5" rx="3.5" fill="#F0F0EF"/>
<path d="m350 386-.3-.8-.6-.5-.8-.2q-.7 0-1 .3-.5.3-.5.8l.3.6q.2.3.7.4l2 .5.7.4.6.6.2 1q0 .7-.4 1.2-.3.5-1 .8l-1.6.3q-.9 0-1.6-.3-.6-.3-1-.9-.3-.6-.4-1.3l1.3-.2q0 .9.5 1.2.4.5 1.3.5.6 0 1.1-.3t.5-1l-.3-.6-.6-.3-.9-.3-1.1-.3-.8-.4a2 2 0 0 1-.7-1.5q0-.7.3-1.2t1-.7 1.4-.3q1.2 0 2 .6t.8 1.7zm7.6 5.3-2.5-3.8-1.4 1.3v-1.5l3.7-3.7h1.6l-3.2 3.2v-.3l3.3 4.8zm-5 0v-7.7h1.2v7.7zm7.1-2.8v-4.9h1.3v4.9q0 .6.2 1t.7.6l1 .1q.9 0 1.2-.2.4-.2.6-.6.3-.4.3-1v-4.8h1.2v5q0 .8-.4 1.4-.4.7-1 1a4 4 0 0 1-1.8.4q-1.5 0-2.4-.7t-.9-2.2m7.7-1V386h1.3v1.3zm0 3.8V390h1.3v1.3zm8.9 0v-1.6h-3.9v-1l3.8-5h1.3v5h1.2v1h-1.2v1.6zm-2.6-2.7h2.6v-3.4zm6.9 2.7V386h-1.8v-.8h.2q.8 0 1.3-.5t.6-1.2h1v7.7zm5.6 0q-1 .1-1.7-.4t-.9-1.4q-.3-1-.3-2 0-1.4.4-2.3.3-.9 1-1.3t1.5-.4q1 0 1.6.5t1 1.4l.2 2a6 6 0 0 1-.3 2.3q-.4.9-1 1.3t-1.5.4m0-1q.6 0 .9-.3l.5-1 .2-1.6-.2-1.7-.6-.8q-.3-.3-.8-.3t-1 .3l-.5 1-.1 1.5q0 1.1.2 1.8t.5.9zm7.6 1v-1.6h-3.9v-1l3.8-5h1.3v5h1.2v1H395v1.6zm-2.6-2.7h2.6v-3.4zm8.3 2.8q-.8 0-1.4-.3a2 2 0 0 1-1.3-2l1.2-.2q0 .7.4 1t1.1.4 1.1-.4.4-1-.4-1.2q-.4-.3-1-.3l-1 .1-.5.5H397l.6-4.4h4.7v1h-3.7l-.3 2.3.7-.3.8-.2q.8 0 1.4.3l.9.9q.3.5.3 1.2 0 .9-.4 1.4-.3.6-1 .9t-1.4.3m6.4 0q-.8 0-1.4-.3l-1-.8q-.3-.6-.3-1.3l1.1-.2q0 .8.5 1.2t1.1.3q.8 0 1.1-.3.4-.4.4-1t-.3-.9-1-.3h-1v-1h.7q.7 0 1-.2.4-.4.4-1l-.3-.7q-.4-.3-1-.3t-1 .4-.4 1l-1.1-.1q0-.8.3-1.3l1-.8 1.3-.3q.7 0 1.3.3.5.2.8.7t.4 1-.4 1-.9.8q.7 0 1 .6.6.6.5 1.2t-.4 1.2q-.3.5-1 .8-.5.3-1.4.3m6.5 0q-.8 0-1.5-.3t-.9-.8l-.4-1.3 1.2-.2q0 .8.5 1.2.3.3 1 .3.8 0 1.2-.3.4-.4.4-1t-.4-.9-1-.3h-.9v-1h.7q.6 0 1-.2.4-.4.4-1l-.4-.7q-.3-.3-.9-.3t-1 .4-.4 1l-1.2-.1q0-.8.4-1.3.3-.5 1-.8l1.2-.3q.8 0 1.3.3t.9.7.3 1-.3 1-1 .8q.8 0 1.1.6t.4 1.2q0 .7-.3 1.2l-1 .8q-.6.3-1.4.3m49-5.7q0-.6-.3-.9t-.6-.5l-1-.2q-.6 0-1 .3a1 1 0 0 0-.5.8q0 .5.3.8l.9.4 2.4.6.9.5.6.8q.2.4.2 1.2a3 3 0 0 1-1.7 2.5 5 5 0 0 1-2 .3q-1 0-1.9-.4a3 3 0 0 1-1.3-1 3 3 0 0 1-.5-1.6l1.8-.3q0 1 .6 1.4.5.5 1.4.5t1.3-.3.4-1-.2-.7l-.7-.4-1-.3-1.3-.3-1-.6q-.5-.3-.8-.7l-.2-1.2q0-.8.4-1.4t1.2-1 1.8-.3a4 4 0 0 1 2.6.8q1 .7 1 2zm9.6 6.5-3-4.5-1.5 1.5v-2.1l4.1-4.3h2.3l-3.8 3.8v-.4l4 6zm-6.2 0v-9.4h1.8v9.4zm9-3.4v-6h1.8v5.9q0 .8.3 1.2t.8.6l1.1.2q.8 0 1.3-.2t.7-.7.3-1.1v-5.9h1.7v6q0 1-.4 1.9a3 3 0 0 1-1.4 1.2 5 5 0 0 1-2.2.4q-1.8 0-3-.9-1-1-1-2.6m12.7 3.4v-9.4h4q1.3 0 2.2.6t1.5 1.6.6 2.5q0 1.4-.5 2.4t-1.5 1.7-2.4.6zm1.8-1.3-.3-.3h2.3q.8 0 1.4-.3.6-.4.9-1.1t.3-1.7-.3-1.7-.9-1-1.4-.4h-2.3l.3-.3zm11 1.4a4 4 0 0 1-1.8-.4q-.9-.5-1.3-1.3-.5-1-.5-2 0-1.3.5-2 .4-1 1.2-1.4.9-.5 2-.5 1 0 1.8.5t1.2 1.5.3 2.3h-5.5v-1.2h4.3l-.6.5q0-1-.3-1.6-.4-.6-1.3-.6t-1.3.6q-.6.5-.5 1.8 0 1.2.5 1.8t1.4.6l1.1-.3q.5-.3.6-.9l1.5.4q0 .7-.6 1.2-.4.5-1 .7-.7.3-1.6.3m6.6 0q-.8 0-1.2-.4t-.4-1.2V383l1.7-.2v7.4l.1.6.5.1h.6v1.3zm-2.6-6.2V385l1.8.1v1.2zm4 0h-2.2V385h2.1zm3.2 6.2q-1.2 0-1.8-.6a2 2 0 0 1-.7-1.5q0-.6.3-1 .3-.6.8-.8l1.2-.4 1.6-.3q.5 0 .6-.3l.2-.5q0-.4-.3-.6-.3-.3-1-.3t-1 .3q-.6.3-.5 1l-1.6-.2q0-1.2.9-1.8t2.3-.6q1 0 1.6.3t1 .8.3 1.2v3.4q0 .3.2.4l.3.1h.2v1.2l-.3.1h-.5q-.6 0-1-.2l-.4-.8v-.2q-.3.6-1 1-.6.3-1.4.3m.5-1.3 1.1-.3q.5-.3.6-.9v-1.3h.2l-.4.3-.6.1-1 .2q-.6 0-.9.4l-.2.6q0 .4.3.7zm5.6 1.2v-7.4h1.7v7.4zm0-8.4V382h1.7v1.8zm3.5 8.4V382h1.8v10.2z" fill="#343331"/>
<rect x="530" y="375.5" width="58" height="23.5" rx="3.5" fill="#F0F0EF"/>
<path d="M541.3 391.3v-1.6h-3.9v-1l3.9-5h1.2v5h1.2v1h-1.2v1.6zm-2.6-2.7h2.6v-3.4zm6.9 2.7V386h-1.8v-.8h.2q.8 0 1.3-.5t.6-1.2h1v7.7zm5.6 0q-1 .1-1.7-.4t-.9-1.4q-.3-1-.3-2 0-1.4.4-2.3.3-.9 1-1.3t1.5-.4q1 0 1.6.5t1 1.4l.2 2a6 6 0 0 1-.3 2.3q-.4.9-1 1.3t-1.5.4m0-1q.6 0 1-.3l.4-1 .2-1.6q0-1-.2-1.7-.1-.6-.6-.8-.3-.3-.8-.3t-1 .3l-.5 1-.1 1.5q0 1.1.2 1.8.1.6.6.9zm7.6 1v-1.6h-3.9v-1l3.9-5h1.2v5h1.2v1H560v1.6zm-2.5-2.7h2.5v-3.4zm8.2 2.8q-.8 0-1.4-.3a2 2 0 0 1-1.3-2l1.2-.2q0 .7.5 1t1 .4q.8 0 1.1-.4t.4-1-.4-1.2q-.4-.3-1-.3l-.9.1-.6.5H562l.5-4.4h4.7v1h-3.7l-.3 2.3.7-.3.9-.2q.7 0 1.3.3t.9.9.3 1.2q0 .9-.4 1.4-.3.6-1 .9-.5.3-1.4.3m6.4 0q-.8 0-1.4-.3l-1-.8-.3-1.3 1.2-.2q0 .8.4 1.2t1.2.3 1-.3.5-1-.4-.9-1-.3h-.9v-1h.6q.7 0 1-.2.5-.4.5-1l-.4-.7q-.3-.3-1-.3t-1 .4-.4 1l-1.1-.1q0-.8.4-1.3.3-.5.9-.8l1.3-.3q.8 0 1.3.3t.9.7.3 1-.3 1a2 2 0 0 1-1 .8q.7 0 1.1.6t.4 1.2q0 .7-.3 1.2l-1 .8q-.7.3-1.5.3m6.5 0q-.8 0-1.5-.3t-.9-.8l-.4-1.3 1.2-.2q0 .8.5 1.2t1.1.3 1.1-.3.4-1-.4-.9-1-.3h-.8v-1h.6q.6 0 1-.2.4-.4.4-1l-.4-.7q-.3-.3-.9-.3t-1 .4-.4 1l-1.2-.1q0-.8.4-1.3.3-.5 1-.8l1.3-.3q.7 0 1.2.3t1 .7l.2 1q0 .6-.3 1a2 2 0 0 1-1 .8q.8 0 1.2.6t.4 1.2q0 .7-.4 1.2t-1 .8-1.4.3" fill="#343331"/>
<path d="M218 425.7v-7.6h3.3q1.1 0 1.9.4t1.2 1.4.4 2-.4 2-1.2 1.4-2 .4zm1.5-1-.2-.2h1.9l1.1-.3q.5-.3.8-.9l.2-1.4q0-.8-.2-1.4l-.7-.8a2 2 0 0 0-1.2-.4h-2l.3-.2zm8.1 1.1q-.8 0-1.4-.4t-.6-1.2q0-.6.3-1l.6-.6 1-.3 1.3-.2q.4 0 .5-.2l.2-.5q0-.3-.3-.5l-.8-.2q-.6 0-.9.3t-.3.7l-1.3-.2q0-.9.7-1.4t1.9-.5q.8 0 1.3.3.6 0 .8.6.3.4.3 1v2.7l.1.4.3.1h.2v1h-.3l-.4.1q-.5 0-.8-.2l-.4-.7v-.1q-.2.5-.7.8-.6.3-1.3.2m.5-1 .9-.3q.3-.2.5-.7v-1h.1l-.3.2h-.5l-.8.2q-.6 0-.7.3l-.2.5q0 .5.3.6zm5.8 1q-.7 0-1-.3t-.4-1v-6.4h1.5v6.4l.4.1h.6v1zm-2.1-5v-1h1.5v1zm3.2 0h-1.7v-1h1.7zm3.6 5q-.9 0-1.6-.3-.7-.4-1-1t-.4-1.8q0-.9.3-1.6.4-.7 1-1a3 3 0 0 1 1.6-.5 3 3 0 0 1 1.6.4q.6.4 1 1.2.2.8.2 2h-4.5v-1h3.5l-.5.4q0-.9-.2-1.4-.4-.5-1.1-.5t-1.1.5-.4 1.5.4 1.5 1.2.5q.6 0 1-.2l.4-.8 1.2.4q0 .5-.5.9-.3.5-.9.6zM291 423v-5h1.4v4.9q0 .6.3 1 .1.3.6.5l1 .1q.6 0 1-.2t.6-.5l.2-1v-4.7h1.5v4.9q0 .8-.4 1.5t-1.1 1-1.8.3q-1.5 0-2.5-.7-.8-.7-.8-2.1m8 2.7v-6h1.3v.9q.4-.6.9-.7.4-.3 1-.3a2 2 0 0 1 1.5.6q.6.5.6 1.5v4h-1.5V422q0-.5-.3-.7-.2-.3-.8-.3l-.6.1-.5.5-.2.7v3.5zm6.9 0v-6h1.4v6zm0-6.9v-1.4h1.4v1.4zm4.6 7q-.8 0-1-.3-.4-.3-.4-1v-6.4h1.4v6l.1.4.4.1h.5v1zm-2.2-5v-1h1.5v1zm3.2 0h-1.7v-1h1.7zM415 427v-2.2h.9v2.2zm0-2.2v-6h.8v6zm0-6v-2h.9v2zm1.8 1.6-.2-.7-.6-.4-.7-.2q-.6 0-.9.3t-.3.7.3.5q.1.3.6.4l1 .2 1 .3.6.4.6.7.1 1q0 .6-.3 1.1-.4.6-1 .9l-1.6.2q-1 0-1.6-.3t-1-.8l-.4-1.3 1.5-.2q0 .7.4 1 .5.5 1.1.5t1-.3.4-.8l-.2-.6-.6-.3-.7-.2q-.6 0-1-.3l-1-.4-.5-.7-.2-.9.3-1.2q.4-.5 1-.7.6-.3 1.5-.3t1.4.2 1 .8.4 1.3z" fill="#343331" opacity=".5"/>
<rect x="216.1" y="436.3" width="60.7" height="15.8" rx="7.9" fill="#F0F0EF"/>
<rect x="556.6" y="450.9" width="241.2" height="14" rx="7" fill="#F0F0EF"/>
<rect x="216.1" y="457.3" width="55.5" height="15.8" rx="7.9" fill="#F0F0EF"/>
<rect x="556.6" y="471.9" width="220.2" height="12.8" rx="6.4" fill="#F0F0EF"/>
<rect x="216.1" y="478.3" width="60.7" height="15.8" rx="7.9" fill="#F0F0EF"/>
<rect x="556.6" y="491.7" width="241.2" height="14" rx="7" fill="#F0F0EF"/>
<rect x="216.1" y="499.3" width="48.5" height="15.8" rx="7.9" fill="#F0F0EF"/>
<rect x="290.3" y="436.3" width="68.9" height="15.8" rx="7.9" fill="#F0F0EF"/>
<rect x="290.3" y="457.3" width="80.6" height="15.8" rx="7.9" fill="#F0F0EF"/>
<rect x="290.3" y="478.3" width="60.7" height="15.8" rx="7.9" fill="#F0F0EF"/>
<rect x="290.3" y="499.3" width="72.4" height="15.8" rx="7.9" fill="#F0F0EF"/>
<rect x="390.7" y="436.3" width="28" height="15.8" rx="7.9" fill="#DAD9D6"/>
<rect x="398.3" y="457.3" width="20.4" height="15.8" rx="7.9" fill="#DAD9D6"/>
<rect x="390.7" y="478.3" width="28" height="15.8" rx="7.9" fill="#DAD9D6"/>
<rect x="390.7" y="499.3" width="28" height="15.8" rx="7.9" fill="#DAD9D6"/>
<rect x="458.5" y="442.7" width="92.9" height="75.9" rx="3.5" fill="#F0F0EF"/>
<path transform="rotate(-40.3 459.5 479)" d="M459.5 478.9H522v62.5h-62.5z" fill="url(#r)"/>
<rect x="455.5" y="409.4" width="95.8" height="23.9" rx="3.5" fill="#DAD9D6"/>
<rect x="557.2" y="409.4" width="93.4" height="23.9" rx="3.5" fill="#F0F0EF"/>
<rect x="656.4" y="409.4" width="93.4" height="23.9" rx="3.5" fill="#F0F0EF"/>
</g>
<defs>
<clipPath id="ah">
<rect width="714" height="563" rx="10" fill="#fff"/>
</clipPath>
<clipPath id="af">
<rect x="205" y="74.8" width="215.8" height="23.5" rx="9.3" fill="#fff"/>
</clipPath>
<clipPath id="ad">
<path d="M17.3 103h20.2v20.2H17.3z" fill="#fff"/>
</clipPath>
<clipPath id="ac">
<path d="M17.3 182h20.2v20.2H17.3z" fill="#fff"/>
</clipPath>
<clipPath id="ab">
<path d="m143 185h14v14h-14z" fill="#fff"/>
</clipPath>
<clipPath id="aa">
<path d="M17.3 220.7h20.2v20.2H17.3z" fill="#fff"/>
</clipPath>
<clipPath id="z">
<path d="m143 223.8h14v14h-14z" fill="#fff"/>
</clipPath>
<clipPath id="y">
<path d="M17.3 259.5h20.2v20.2H17.3z" fill="#fff"/>
</clipPath>
<clipPath id="x">
<path d="m143 262.6h14v14h-14z" fill="#fff"/>
</clipPath>
<clipPath id="w">
<path d="M17.5 518.6h23.4V542H17.5z" fill="#fff"/>
</clipPath>
<clipPath id="v">
<rect x="17.5" y="518.6" width="23.4" height="23.4" rx="11.7" fill="#fff"/>
</clipPath>
<clipPath id="t">
<path d="m18.1 431h14v14h-14z" fill="#fff"/>
</clipPath>
<clipPath id="s">
<path d="m18.1 466h14v14h-14z" fill="#fff"/>
</clipPath>
<pattern id="u" width="1" height="1" patternContentUnits="objectBoundingBox">
<!-- <use transform="scale(.00067)" href="#r"/> -->
</pattern>
<pattern id="r" width="1" height="1" patternContentUnits="objectBoundingBox">
<use transform="scale(.002)" href="#s"/>
</pattern>
</defs>
</svg>
