<svg width="106" height="30" viewBox="0 0 106 30" fill="none" xmlns="http://www.w3.org/2000/svg">
<g clip-path="url(#clip0_8858_20933)">
<path d="M105.867 13.4469C105.102 5.86134 98.6295 0 90.8308 0H15.1047C7.24163 0 0.837869 5.92976 0.0690526 13.4469C-2.80833e-06 13.9304 0 14.4823 0 14.9658C0 16.3479 0.207176 17.657 0.557057 18.9661C2.29725 25.3109 8.21301 30 15.1738 30H90.8308C97.7916 30 103.707 25.3109 105.443 18.9661C105.793 17.73 106 16.3479 106 14.9658C105.931 14.4823 105.867 13.9304 105.867 13.4469ZM102.731 18.9661C101.065 23.9288 96.3231 27.5186 90.7572 27.5186H15.1001C9.53424 27.5186 4.80165 23.9288 3.12591 18.9661C2.71158 17.73 2.4998 16.4163 2.4998 14.9658C2.4998 14.4139 2.4998 13.9304 2.56885 13.4469C3.33307 7.24343 8.69173 2.48139 15.0955 2.48139H90.7526C97.2254 2.48139 102.515 7.23887 103.284 13.4469C103.353 13.9304 103.353 14.4823 103.353 14.9658C103.427 16.3433 103.15 17.7254 102.731 18.9661Z" fill="#FDFDFD"/>
<path d="M26.8668 13.4595L27.9119 8.42376C27.9809 8.0771 27.9119 7.8034 27.7047 7.59358C27.2858 7.11464 26.4525 7.11464 25.8955 7.59358C25.6146 7.79884 25.4074 8.14552 25.3384 8.42376L24.4314 12.5609H18.0277L18.9346 8.42376C19.0037 8.0771 18.9346 7.8034 18.7275 7.59358C18.3085 7.11464 17.5444 7.11464 16.9183 7.59358C16.6374 7.79884 16.4303 8.0771 16.3612 8.42376L15.3161 13.4595L14.133 18.9742V19.111C13.9949 19.7998 14.4783 20.2833 15.178 20.2833C15.8778 20.2833 16.5684 19.7313 16.7111 19.111V18.9742L17.618 14.7002H24.0218L23.1194 18.9742V19.111C22.9813 19.7998 23.4693 20.2833 24.1644 20.2833C24.8596 20.2833 25.5548 19.7313 25.6975 19.111V18.9742L26.8668 13.4595Z" fill="#FDFDFD"/>
<path d="M89.5096 13.4447C89.5786 13.723 89.5786 13.9966 89.5096 14.2749L88.4646 18.964L88.3909 19.1692C88.2528 19.7941 88.7362 20.2731 89.3623 20.2731C90.062 20.2731 90.6836 19.7941 90.8263 19.1692L90.8953 18.964L91.945 14.0012C92.014 13.7959 92.014 13.6545 92.014 13.4493C92.1521 11.8619 91.3188 10.7626 89.5786 10.4844C89.0906 10.416 88.6027 10.416 88.1193 10.5528C87.2123 10.7581 86.5172 11.1047 85.9602 11.5882L86.0338 11.31C86.1029 10.8995 85.753 10.4844 85.0533 10.4844C84.3627 10.5528 83.732 11.0363 83.5985 11.6567L83.1749 13.4493L81.9964 18.964L81.9227 19.1692C81.7846 19.7941 82.2036 20.2731 82.8987 20.2731C83.5939 20.2731 84.22 19.7941 84.3581 19.1692L84.4317 18.964L85.4768 14.2065C85.5458 13.9282 85.6839 13.6545 85.8221 13.4447C85.9602 13.2395 86.1673 13.098 86.3101 12.8928C87.2078 12.204 88.4692 12.204 89.0907 12.8928C89.3669 13.1026 89.4359 13.2395 89.5096 13.4447Z" fill="#FDFDFD"/>
<path d="M47.1183 13.4542C47.5372 12.8339 48.3705 12.3504 49.1347 12.3504C49.8989 12.4188 50.3869 12.8339 50.5251 13.4542C50.5941 13.6595 50.5941 13.8693 50.5251 14.0746L49.48 18.9689L49.4109 19.1742C49.3419 19.4524 49.4109 19.7991 49.6181 20.0043C50.037 20.4194 50.8013 20.4194 51.3583 20.0043C51.6391 19.7991 51.8463 19.5254 51.9153 19.1742L51.9844 18.9689L53.0985 13.7963C53.0985 13.6595 53.1675 13.5911 53.1675 13.4497C53.4437 11.4518 51.8417 10.1381 49.4109 10.5532C48.3659 10.6901 47.4636 11.1736 46.7638 11.8623C46.4139 11.1736 45.7924 10.6901 44.8164 10.5532C44.3975 10.4848 43.9141 10.4848 43.4261 10.5532C42.5883 10.6901 41.8241 11.0322 41.3361 11.5887L41.4051 11.3104C41.4742 10.8999 41.1243 10.4848 40.4982 10.5532C39.734 10.6216 39.1078 11.1051 39.0388 11.7255L38.6198 13.5181L37.4367 19.0373L37.3677 19.2426C37.2986 19.5208 37.3677 19.7945 37.5749 20.0728C37.9938 20.4833 38.758 20.4833 39.315 20.0728C39.5958 19.8675 39.803 19.5938 39.8721 19.2426L39.9411 19.0373L40.9862 14.1384C41.0552 13.9332 41.1243 13.7234 41.1933 13.5181C41.6123 12.8978 42.3765 12.4143 43.1407 12.4143C43.9049 12.4143 44.462 12.8932 44.6001 13.5181C44.6691 13.7234 44.6691 13.9332 44.6001 14.1384L43.555 19.0373L43.486 19.2426C43.4169 19.5208 43.486 19.7945 43.6931 20.0728C44.0384 20.5517 44.8073 20.5517 45.3643 20.1457C45.6451 19.9359 45.8477 19.6622 45.9214 19.3156L45.9904 19.1058L47.0354 14.2114C46.9111 13.8693 46.9802 13.6641 47.1183 13.4542Z" fill="#FDFDFD"/>
<path d="M36.4699 13.4315L37.3078 12.054C37.6576 11.502 37.5149 10.8133 36.9579 10.608C36.3318 10.3298 35.5675 10.6764 35.1486 11.3652L33.8964 13.4361L31.9491 16.6746L31.392 13.4361L31.0421 11.3652C30.904 10.6764 30.2779 10.3298 29.5091 10.608C28.8139 10.8863 28.395 11.502 28.5377 12.054L28.8185 13.4315L29.9326 18.9462L30.0707 19.5711L28.0543 22.5998C27.6354 23.2247 27.7735 23.8451 28.4042 24.0503C29.0303 24.3286 29.7255 23.9773 30.2135 23.2202L32.925 18.9416L36.4699 13.4315Z" fill="#FDFDFD"/>
<path d="M70.0128 13.4497C70.2936 11.4518 68.6916 10.1381 66.2562 10.5532C65.2112 10.6901 64.3134 11.1736 63.6137 11.8623C63.2684 11.1736 62.6424 10.6901 61.6664 10.5532C61.2474 10.4848 60.764 10.4848 60.2761 10.5532C59.4382 10.6901 58.6739 11.0322 58.1859 11.5887L58.255 11.3104C58.3286 10.8999 57.9742 10.4848 57.3527 10.5532C56.5885 10.6216 55.9623 11.1051 55.8933 11.7255L55.4744 13.5181L54.2912 19.0373L54.2222 19.2426C54.1531 19.5208 54.2222 19.7945 54.4293 20.0728C54.8483 20.4833 55.6125 20.4833 56.1696 20.0728C56.4504 19.8675 56.653 19.5938 56.7266 19.2426L56.8002 19.0373L57.8453 14.1384C57.9144 13.9332 57.9788 13.7234 58.0525 13.5181C58.4714 12.8978 59.2356 12.4143 60.0044 12.4143C60.7686 12.4143 61.3257 12.8932 61.4592 13.5181C61.5329 13.7234 61.5329 13.9332 61.4592 14.1384L60.4142 19.0373L60.3451 19.2426C60.276 19.5208 60.3451 19.7945 60.4832 20.0728C60.8285 20.5517 61.5973 20.5517 62.1543 20.1457C62.4351 19.9359 62.6377 19.6622 62.7068 19.3156L62.7759 19.1058L63.8255 14.2114C63.8945 14.0062 63.9636 13.7963 64.1063 13.5911C64.5253 12.9707 65.3585 12.4872 66.1227 12.4872C66.8869 12.5557 67.3703 12.9662 67.5177 13.5911C67.5867 13.7963 67.5867 14.0062 67.5177 14.2114L66.468 19.1058L66.399 19.3156C66.3253 19.5938 66.399 19.9359 66.6061 20.1457C67.0251 20.5563 67.7938 20.5563 68.3463 20.1457C68.6271 19.9359 68.8343 19.6622 68.9033 19.3156L68.9724 19.1058L70.0865 13.9332C70.0128 13.6595 70.0128 13.5865 70.0128 13.4497Z" fill="#FDFDFD"/>
<path d="M81.2229 13.4592C80.804 11.2515 78.9257 10.1476 76.4903 10.5627C74.8238 10.841 73.2217 11.9403 72.2457 13.4592C71.8958 14.0111 71.6196 14.6314 71.4815 15.3202C71.1316 16.8391 71.4078 18.0798 72.1076 18.9739C73.0099 20.0093 74.612 20.5612 76.564 20.283C77.121 20.21 77.6781 20.0777 78.1661 19.8724C78.9303 19.5942 79.4873 19.2475 79.8372 18.9739C80.3206 18.5588 80.4633 18.1437 80.3206 17.8016C80.1135 17.1813 79.4827 17.1128 78.2351 17.7332C77.6044 18.0753 77.0473 18.2121 76.564 18.2851C75.1046 18.4904 74.1286 17.8654 73.8478 16.7662C73.7741 16.5609 73.7741 16.3556 73.7741 16.1458H79.6899C80.5968 16.1458 81.0158 15.7992 81.1539 14.8322C81.361 14.4946 81.292 14.0111 81.2229 13.4592ZM78.8566 14.636H74.1931L74.3266 14.3578C74.4693 14.0111 74.6764 13.7374 74.8836 13.4592C75.3716 12.9073 75.9287 12.4967 76.5548 12.3553C77.5998 12.1501 78.433 12.4922 78.7829 13.4592C78.852 13.7374 78.9165 14.0111 78.9165 14.4262C78.8566 14.4946 78.8566 14.563 78.8566 14.636Z" fill="#FDFDFD"/>
</g>
<defs>
<clipPath id="clip0_8858_20933">
<rect width="106" height="30" fill="white"/>
</clipPath>
</defs>
</svg>
