<svg width="116" height="53" viewBox="0 0 116 53" fill="none" xmlns="http://www.w3.org/2000/svg">
<path fill-rule="evenodd" clip-rule="evenodd" d="M19.1511 35.3488C19.9042 36.6544 21.2537 37.4339 22.7609 37.4339H22.761C24.4702 37.4339 26.0637 36.5147 26.9195 35.0351L28.9217 31.5734H18.9521C18.406 32.7901 18.4723 34.1721 19.1511 35.3488" fill="#343331"/>
<path fill-rule="evenodd" clip-rule="evenodd" d="M35.8776 35.0319C36.733 36.5135 38.3272 37.4339 40.038 37.4339H40.039C41.5463 37.4339 42.8962 36.6545 43.6499 35.3491C44.3291 34.1727 44.3962 32.7905 43.8512 31.5734H33.8809L35.8776 35.0319" fill="#343331"/>
<path fill-rule="evenodd" clip-rule="evenodd" d="M42.9674 29.998L39.3872 23.7987H23.4164L19.8362 29.998H42.9674" fill="#343331"/>
<path fill-rule="evenodd" clip-rule="evenodd" d="M31.596 16.1107H31.2155C29.145 16.1107 27.2156 17.2245 26.1801 19.0174L24.3269 22.2233H38.4789L36.631 19.0168C35.5959 17.2245 33.6664 16.1107 31.596 16.1107" fill="#343331"/>
<path fill-rule="evenodd" clip-rule="evenodd" d="M50.7234 29.1622C50.7234 27.9232 51.2718 27.0093 52.3076 26.6031C52.7748 26.4203 53.5872 26.3187 54.7449 26.3187H55.3542C55.862 26.3187 56.3088 26.339 56.715 26.3796V25.2219C56.715 23.7393 55.9635 23.2315 54.2574 23.2315C53.5466 23.2315 52.856 23.333 52.1654 23.5362C51.8608 23.6174 51.6983 23.6174 51.6374 23.3737L51.5358 22.9471C51.4546 22.7034 51.5155 22.5613 51.7592 22.5003C52.6326 22.2363 53.5059 22.0941 54.359 22.0941C56.9587 22.0941 58.0352 22.9675 58.0352 25.0798V32.026C58.0352 32.1885 57.9946 32.2291 57.8118 32.2291H57.1415C56.9587 32.2291 56.8775 32.1682 56.8775 32.026L56.8369 31.3354H56.7962C56.3494 32.0463 55.6385 32.4119 54.6433 32.4119H53.6278C52.7341 32.4119 51.9217 32.1479 51.4546 31.6807C50.9671 31.1933 50.7234 30.5636 50.7234 29.7715V29.1622ZM52.064 29.609C52.064 30.2387 52.2062 30.6652 52.4906 30.9292C52.7546 31.1729 53.1608 31.2948 53.7295 31.2948H54.5623C55.9231 31.2948 56.7151 30.5636 56.7151 29.1825V27.4967C56.3902 27.4561 55.984 27.4358 55.4965 27.4358H54.3591C53.5061 27.4358 52.9171 27.578 52.5718 27.842C52.2265 28.1061 52.064 28.5529 52.064 29.1825V29.609V29.609Z" fill="#343331"/>
<path fill-rule="evenodd" clip-rule="evenodd" d="M60.7974 18.7019C60.7974 18.5598 60.8786 18.4785 61.0411 18.4785H61.8738C62.0363 18.4785 62.1175 18.5598 62.1175 18.7019V29.5681C62.1175 30.2993 62.1379 30.543 62.3003 30.8477C62.4019 30.9898 62.6456 31.0711 63.0315 31.0711H63.5799C63.7018 31.0711 63.8236 31.0914 63.8236 31.2945V31.9851C63.8236 32.1475 63.7627 32.2288 63.6205 32.2288H62.8487C62.1175 32.2288 61.5894 32.0663 61.2848 31.7617C60.9598 31.4164 60.7974 30.7867 60.7974 29.8931V18.7019" fill="#343331"/>
<path fill-rule="evenodd" clip-rule="evenodd" d="M65.814 19.5956C65.814 18.9457 66.1796 18.641 66.7483 18.641H66.8295C67.4185 18.641 67.7232 18.966 67.7232 19.5956V19.7175C67.7232 20.3674 67.3779 20.6924 66.8295 20.6924H66.7483C66.078 20.6924 65.814 20.3877 65.814 19.7175V19.5956ZM66.1186 22.5003C66.1186 22.3581 66.1999 22.2769 66.3624 22.2769H67.1951C67.3576 22.2769 67.4388 22.3581 67.4388 22.5003V32.0666C67.4388 32.1682 67.3779 32.2291 67.256 32.2291H66.2811C66.1796 32.2291 66.1186 32.1682 66.1186 32.0666V22.5003V22.5003Z" fill="#343331"/>
<path fill-rule="evenodd" clip-rule="evenodd" d="M70.0178 26.8874C70.0178 23.2924 71.2161 22.0941 73.9175 22.0941C75.2173 22.0941 76.1313 22.5003 76.6797 23.3128H76.7203L76.8218 22.5206C76.8422 22.3581 76.9437 22.2769 77.1265 22.2769H77.6139C77.8374 22.2769 77.8983 22.3175 77.8983 22.5409V35.6006C77.8983 35.7428 77.8374 35.8241 77.6952 35.8241H76.7812C76.6391 35.8241 76.5781 35.7428 76.5781 35.6006V31.3354H76.5375C75.9688 32.0463 75.0751 32.4119 73.8565 32.4119C71.0943 32.4119 70.0178 31.0917 70.0178 27.842V26.8874ZM71.3584 27.7402C71.3584 29.1213 71.5818 30.0759 72.0287 30.5837C72.4552 31.0711 73.0239 31.2743 74.0191 31.2743C75.6439 31.2743 76.5782 30.4415 76.5782 28.837V25.831C76.5782 24.1859 75.6439 23.2313 73.9379 23.2313C73.0442 23.2313 72.5161 23.4141 72.1099 23.8406C71.6021 24.389 71.3584 25.4654 71.3584 27.07V27.7402V27.7402Z" fill="#343331"/>
<path fill-rule="evenodd" clip-rule="evenodd" d="M80.5386 22.6014C80.5386 22.4186 80.6604 22.2764 80.8229 22.2764H81.5744C81.7572 22.2764 81.8588 22.3779 81.8588 22.5608V29.2023C81.8588 30.0147 82.0009 30.4616 82.3868 30.7865C82.7321 31.1115 83.3414 31.274 84.2148 31.274C85.0475 31.274 85.6772 31.0912 86.0833 30.7053C86.4286 30.3803 86.5505 30.0147 86.5505 29.2023V22.5404C86.5505 22.3779 86.652 22.2764 86.7942 22.2764H87.6473C87.7894 22.2764 87.8707 22.3576 87.8707 22.5404V29.3648C87.8707 30.4006 87.566 31.1724 86.977 31.6802C86.388 32.188 85.5959 32.4114 84.2148 32.4114C82.9555 32.4114 82.0415 32.1677 81.4525 31.6802C80.8432 31.1724 80.5386 30.4006 80.5386 29.3648V22.6014" fill="#343331"/>
<path fill-rule="evenodd" clip-rule="evenodd" d="M89.9829 29.1622C89.9829 27.9232 90.5313 27.0093 91.5671 26.6031C92.0343 26.4203 92.8467 26.3187 94.0044 26.3187H94.6137C95.1215 26.3187 95.5683 26.339 95.9745 26.3796V25.2219C95.9745 23.7393 95.223 23.2315 93.5169 23.2315C92.8061 23.2315 92.1155 23.333 91.425 23.5362C91.1203 23.6174 90.9578 23.6174 90.8969 23.3737L90.7953 22.9471C90.7141 22.7034 90.775 22.5613 91.0188 22.5003C91.8921 22.2363 92.7654 22.0941 93.6185 22.0941C96.2183 22.0941 97.2947 22.9675 97.2947 25.0798V32.026C97.2947 32.1885 97.2541 32.2291 97.0713 32.2291H96.4011C96.2183 32.2291 96.137 32.1682 96.137 32.026L96.0964 31.3354H96.0557C95.6089 32.0463 94.8981 32.4119 93.9028 32.4119H92.8873C91.9937 32.4119 91.1813 32.1479 90.7141 31.6807C90.2266 31.1933 89.9829 30.5636 89.9829 29.7715V29.1622ZM91.3234 29.609C91.3234 30.2387 91.4656 30.6652 91.7499 30.9292C92.014 31.1729 92.4202 31.2948 92.9889 31.2948H93.8216C95.1824 31.2948 95.9745 30.5636 95.9745 29.1825V27.4967C95.6496 27.4561 95.2433 27.4358 94.7559 27.4358H93.6185C92.7654 27.4358 92.1764 27.578 91.8312 27.842C91.4859 28.1061 91.3234 28.5529 91.3234 29.1825V29.609V29.609Z" fill="#343331"/>
</svg>
