<svg width="18" height="17" viewBox="0 0 18 17" fill="none" xmlns="http://www.w3.org/2000/svg">
<path d="M1.8 17C1.305 17 0.8814 16.8249 0.5292 16.4748C0.177 16.1246 0.0006 15.7032 0 15.2105V5.36842C0 4.87632 0.1764 4.45519 0.5292 4.10505C0.882 3.75491 1.3056 3.57954 1.8 3.57895H5.4V1.78947C5.4 1.29737 5.5764 0.876246 5.9292 0.526105C6.282 0.175965 6.7056 0.000596491 7.2 0H10.8C11.295 0 11.7189 0.175368 12.0717 0.526105C12.4245 0.876842 12.6006 1.29796 12.6 1.78947V3.57895H16.2C16.695 3.57895 17.1189 3.75432 17.4717 4.10505C17.8245 4.45579 18.0006 4.87691 18 5.36842V15.2105C18 15.7026 17.8239 16.1241 17.4717 16.4748C17.1195 16.8255 16.6956 17.0006 16.2 17H1.8ZM7.2 3.57895H10.8V1.78947H7.2V3.57895ZM16.2 11.6316H11.7V13.4211H6.3V11.6316H1.8V15.2105H16.2V11.6316ZM8.1 11.6316H9.9V9.8421H8.1V11.6316ZM1.8 9.8421H6.3V8.05263H11.7V9.8421H16.2V5.36842H1.8V9.8421Z" fill="#FB773E"/>
</svg>
