<svg width="26" height="26" viewBox="0 0 26 26" fill="none" xmlns="http://www.w3.org/2000/svg">
<g clip-path="url(#clip0_6091_37075)">
<path d="M22.4025 14.0969C22.6248 12.1953 22.264 10.271 21.368 8.57897C20.472 6.88698 19.083 5.50721 17.385 4.62247C15.6871 3.73773 13.7604 3.38979 11.8603 3.62477C9.9602 3.85974 8.17632 4.66654 6.74508 5.93824C5.31383 7.20994 4.30278 8.88652 3.84591 10.7458C3.38903 12.6051 3.50789 14.5593 4.18674 16.3495C4.8656 18.1397 6.07239 19.6814 7.64721 20.7703C9.22204 21.8592 11.0905 22.4438 13.0051 22.4467" stroke="#FA9349" stroke-width="1.45334" stroke-linecap="round" stroke-linejoin="round"/>
<path d="M4.20428 9.85114H21.8381" stroke="#FA9349" stroke-width="1.45334" stroke-linecap="round" stroke-linejoin="round"/>
<path d="M4.20428 16.1489H14.0708" stroke="#FA9349" stroke-width="1.45334" stroke-linecap="round" stroke-linejoin="round"/>
<path d="M12.4944 3.55334C10.7262 6.38695 9.7887 9.65997 9.7887 13C9.7887 16.3401 10.7262 19.6131 12.4944 22.4468" stroke="#FA9349" stroke-width="1.45334" stroke-linecap="round" stroke-linejoin="round"/>
<path d="M13.5446 3.55334C15.559 6.77976 16.4891 10.5657 16.1991 14.3583" stroke="#FA9349" stroke-width="1.45334" stroke-linecap="round" stroke-linejoin="round"/>
<path d="M17.2181 23.4963L22.4663 18.2482" stroke="#FA9349" stroke-width="1.45334" stroke-linecap="round" stroke-linejoin="round"/>
<path d="M22.4664 22.9715V18.2482H17.743" stroke="#FA9349" stroke-width="1.45334" stroke-linecap="round" stroke-linejoin="round"/>
</g>
<defs>
<clipPath id="clip0_6091_37075">
<rect width="25.1912" height="25.1912" fill="white" transform="translate(0.424072 0.404419)"/>
</clipPath>
</defs>
</svg>
