<svg width="72" height="72" viewBox="0 0 72 72" fill="none" xmlns="http://www.w3.org/2000/svg">
<rect x="72" width="72" height="72" rx="9.3913" transform="rotate(90 72 0)" fill="#A57CFF"/>
<path d="M36.7171 31.7976C35.9905 31.6725 35.4928 30.9716 35.7192 30.2633C35.9565 29.5212 36.2847 28.8102 36.6976 28.1472C37.3481 27.103 38.1958 26.1983 39.1924 25.4849C40.1891 24.7715 41.3151 24.2633 42.5062 23.9894C43.6973 23.7154 44.9301 23.6811 46.1343 23.8884C47.3384 24.0957 48.4904 24.5405 49.5244 25.1974C50.5585 25.8543 51.4542 26.7104 52.1606 27.717C52.8669 28.7235 53.3701 29.8607 53.6414 31.0636C53.8135 31.8273 53.8901 32.608 53.8705 33.3875C53.8518 34.1317 53.1524 34.6265 52.4258 34.5014L36.7171 31.7976Z" fill="#FDFDFD"/>
<path d="M17.5524 48.0649C16.8477 48.283 16.0941 47.8834 15.9514 47.1532C15.7072 45.9044 15.6433 44.6239 15.7637 43.3521C15.9266 41.6319 16.4233 39.9612 17.2255 38.4349C18.0277 36.9087 19.1197 35.5571 20.4391 34.4571C21.7586 33.3571 23.2796 32.5303 24.9154 32.024C26.5512 31.5177 28.2697 31.3418 29.9729 31.5063C31.676 31.6707 33.3304 32.1724 34.8415 32.9826C36.3528 33.7928 37.6911 34.8956 38.7803 36.2281C39.5856 37.2136 40.243 38.3103 40.7337 39.4828C41.0205 40.1684 40.618 40.9259 39.9133 41.144L17.5524 48.0649Z" fill="#FDFDFD"/>
<path d="M45.2476 40.3537C44.7183 40.8717 44.8852 41.7227 45.4951 42.1407L54.067 48.0153C54.677 48.4333 55.5216 48.2754 55.8026 47.5873C55.9581 47.2073 56.078 46.8124 56.1608 46.4077C56.3337 45.5615 56.3398 44.6892 56.1789 43.8407C56.0181 42.9922 55.6933 42.184 55.2231 41.4622C54.7529 40.7405 54.1466 40.1192 53.4388 39.634C52.7308 39.1491 51.9353 38.8095 51.0975 38.6348C50.2598 38.4602 49.3961 38.4539 48.556 38.6165C47.7158 38.7789 46.9154 39.1069 46.2008 39.5818C45.859 39.8089 45.5399 40.0675 45.2476 40.3537Z" fill="#FDFDFD"/>
</svg>
