<svg width="419" height="400" viewBox="0 0 419 400" fill="none" xmlns="http://www.w3.org/2000/svg">
<g clip-path="url(#clip0_741_79131)">
<mask id="mask0_741_79131" style="mask-type:alpha" maskUnits="userSpaceOnUse" x="-340" y="-79" width="1101" height="634">
<g opacity="0.2">
<mask id="path-1-inside-1_741_79131" fill="white">
<path d="M210.002 -78.7148L759.511 237.502L210.002 553.718L-339.507 237.502L210.002 -78.7148ZM210.002 -79L-340 237.502L210.002 554.003L760.003 237.502L210.002 -79Z"/>
</mask>
<path d="M210.002 -78.7148L210.5 -79.5815L210.002 -79.8685L209.503 -79.5815L210.002 -78.7148ZM759.511 237.502L760.01 238.368L761.516 237.502L760.01 236.635L759.511 237.502ZM210.002 553.718L209.503 554.585L210.002 554.872L210.5 554.585L210.002 553.718ZM-339.507 237.502L-340.006 236.635L-341.512 237.502L-340.006 238.368L-339.507 237.502ZM210.002 -79L210.5 -79.8667L210.002 -80.1538L209.503 -79.8667L210.002 -79ZM-340 237.502L-340.499 236.635L-342.005 237.502L-340.499 238.368L-340 237.502ZM210.002 554.003L209.503 554.87L210.002 555.157L210.5 554.87L210.002 554.003ZM760.003 237.502L760.502 238.368L762.008 237.502L760.502 236.635L760.003 237.502ZM209.503 -77.848L759.012 238.368L760.01 236.635L210.5 -79.5815L209.503 -77.848ZM759.012 236.635L209.503 552.851L210.5 554.585L760.01 238.368L759.012 236.635ZM210.5 552.851L-339.009 236.635L-340.006 238.368L209.503 554.585L210.5 552.851ZM-339.009 238.368L210.5 -77.848L209.503 -79.5815L-340.006 236.635L-339.009 238.368ZM209.503 -79.8667L-340.499 236.635L-339.501 238.368L210.5 -78.1333L209.503 -79.8667ZM-340.499 238.368L209.503 554.87L210.5 553.136L-339.501 236.635L-340.499 238.368ZM210.5 554.87L760.502 238.368L759.505 236.635L209.503 553.136L210.5 554.87ZM760.502 236.635L210.5 -79.8667L209.503 -78.1333L759.505 238.368L760.502 236.635Z" fill="#536269" mask="url(#path-1-inside-1_741_79131)"/>
<path d="M183.809 538.929L733.81 222.43" stroke="#536269" stroke-width="0.76" stroke-miterlimit="10"/>
<path d="M157.619 523.857L707.62 207.358" stroke="#536269" stroke-width="0.76" stroke-miterlimit="10"/>
<path d="M131.429 508.785L681.431 192.287" stroke="#536269" stroke-width="0.76" stroke-miterlimit="10"/>
<path d="M105.239 493.716L655.238 177.215" stroke="#536269" stroke-width="0.76" stroke-miterlimit="10"/>
<path d="M79.0494 478.645L629.048 162.143" stroke="#536269" stroke-width="0.76" stroke-miterlimit="10"/>
<path d="M52.8564 463.573L602.858 147.072" stroke="#536269" stroke-width="0.76" stroke-miterlimit="10"/>
<path d="M26.6666 448.502L576.668 132" stroke="#536269" stroke-width="0.76" stroke-miterlimit="10"/>
<path d="M0.476929 433.43L550.475 116.928" stroke="#536269" stroke-width="0.76" stroke-miterlimit="10"/>
<path d="M-25.7129 418.358L524.285 101.857" stroke="#536269" stroke-width="0.76" stroke-miterlimit="10"/>
<path d="M-51.9059 403.287L498.096 86.7849" stroke="#536269" stroke-width="0.76" stroke-miterlimit="10"/>
<path d="M-78.0957 388.215L471.906 71.7134" stroke="#536269" stroke-width="0.76" stroke-miterlimit="10"/>
<path d="M-104.285 373.143L445.716 56.6416" stroke="#536269" stroke-width="0.76" stroke-miterlimit="10"/>
<path d="M-130.475 358.072L419.523 41.5701" stroke="#536269" stroke-width="0.76" stroke-miterlimit="10"/>
<path d="M-156.665 343L393.333 26.5017" stroke="#536269" stroke-width="0.76" stroke-miterlimit="10"/>
<path d="M-182.858 327.928L367.143 11.4299" stroke="#536269" stroke-width="0.76" stroke-miterlimit="10"/>
<path d="M-209.048 312.857L340.954 -3.6416" stroke="#536269" stroke-width="0.76" stroke-miterlimit="10"/>
<path d="M-235.238 297.785L314.764 -18.7134" stroke="#536269" stroke-width="0.76" stroke-miterlimit="10"/>
<path d="M-261.427 282.713L288.571 -33.7849" stroke="#536269" stroke-width="0.76" stroke-miterlimit="10"/>
<path d="M-287.62 267.645L262.381 -48.8567" stroke="#536269" stroke-width="0.76" stroke-miterlimit="10"/>
<path d="M-313.81 252.573L236.191 -63.9282" stroke="#536269" stroke-width="0.76" stroke-miterlimit="10"/>
<path d="M183.809 -63.9282L733.81 252.573" stroke="#536269" stroke-width="0.76" stroke-miterlimit="10"/>
<path d="M157.619 -48.8567L707.62 267.645" stroke="#536269" stroke-width="0.76" stroke-miterlimit="10"/>
<path d="M131.429 -33.7849L681.431 282.713" stroke="#536269" stroke-width="0.76" stroke-miterlimit="10"/>
<path d="M105.239 -18.7134L655.238 297.785" stroke="#536269" stroke-width="0.76" stroke-miterlimit="10"/>
<path d="M79.0494 -3.6416L629.048 312.857" stroke="#536269" stroke-width="0.76" stroke-miterlimit="10"/>
<path d="M52.8564 11.4299L602.858 327.928" stroke="#536269" stroke-width="0.76" stroke-miterlimit="10"/>
<path d="M26.6666 26.5017L576.668 343" stroke="#536269" stroke-width="0.76" stroke-miterlimit="10"/>
<path d="M0.476929 41.5701L550.475 358.072" stroke="#536269" stroke-width="0.76" stroke-miterlimit="10"/>
<path d="M-25.7129 56.6416L524.285 373.143" stroke="#536269" stroke-width="0.76" stroke-miterlimit="10"/>
<path d="M-51.9059 71.7134L498.096 388.215" stroke="#536269" stroke-width="0.76" stroke-miterlimit="10"/>
<path d="M-78.0957 86.7849L471.906 403.287" stroke="#536269" stroke-width="0.76" stroke-miterlimit="10"/>
<path d="M-104.285 101.857L445.716 418.358" stroke="#536269" stroke-width="0.76" stroke-miterlimit="10"/>
<path d="M-130.475 116.928L419.523 433.43" stroke="#536269" stroke-width="0.76" stroke-miterlimit="10"/>
<path d="M-156.665 132L393.333 448.502" stroke="#536269" stroke-width="0.76" stroke-miterlimit="10"/>
<path d="M-182.858 147.072L367.143 463.573" stroke="#536269" stroke-width="0.76" stroke-miterlimit="10"/>
<path d="M-209.048 162.143L340.954 478.645" stroke="#536269" stroke-width="0.76" stroke-miterlimit="10"/>
<path d="M-235.238 177.215L314.764 493.716" stroke="#536269" stroke-width="0.76" stroke-miterlimit="10"/>
<path d="M-261.427 192.287L288.571 508.785" stroke="#536269" stroke-width="0.76" stroke-miterlimit="10"/>
<path d="M-287.62 207.358L262.381 523.857" stroke="#536269" stroke-width="0.76" stroke-miterlimit="10"/>
<path d="M-313.81 222.43L236.191 538.929" stroke="#536269" stroke-width="0.76" stroke-miterlimit="10"/>
</g>
</mask>
<g mask="url(#mask0_741_79131)">
<ellipse cx="226" cy="249" rx="239" ry="143" fill="url(#paint0_radial_741_79131)"/>
</g>
<path d="M342.883 312.136L72.5501 156.469L89.5 139.833L359.833 295.5L342.883 312.136Z" fill="url(#paint1_linear_741_79131)"/>
<path d="M353.5 150.167L79.1668 309L53.1667 297.5L331 136.833L353.5 150.167Z" fill="url(#paint2_linear_741_79131)"/>
<path d="M292.011 146.371V133.298L321.324 133.282L331.456 127.432C333.782 126.09 337.843 126.257 340.528 127.808L349.981 133.265L379.319 133.249V146.693C379.384 147.601 378.878 148.479 377.76 149.124L339.874 170.997C337.548 172.34 333.487 172.172 330.802 170.622L294.219 149.5C292.67 148.606 291.922 147.447 292.009 146.369L292.011 146.371Z" fill="#0D222D" stroke="#F4F4F4" stroke-linejoin="round"/>
<path d="M339.877 157.602L377.763 135.729C380.089 134.387 379.797 132.042 377.112 130.491L340.528 109.372C337.843 107.821 333.782 107.653 331.456 108.996L293.57 130.869C291.244 132.212 291.536 134.557 294.222 136.108L330.805 157.229C333.49 158.78 337.551 158.948 339.877 157.605V157.602Z" fill="#0D222D" stroke="#F4F4F4" stroke-linejoin="round"/>
<path d="M339.188 153.804L371.866 134.765C373.873 133.594 373.619 131.554 371.303 130.208L339.751 111.827C337.435 110.475 333.929 110.33 331.927 111.5L299.249 130.539C297.242 131.71 297.496 133.75 299.812 135.097L331.364 153.477C333.68 154.829 337.186 154.975 339.188 153.804Z" fill="#0D222D" stroke="#F4F4F4" stroke-linejoin="round"/>
<path d="M292.011 129.008V115.935L321.324 115.918L331.456 110.069C333.782 108.726 337.843 108.894 340.528 110.445L349.981 115.902L379.319 115.886V129.329C379.384 130.237 378.878 131.115 377.76 131.761L339.874 153.634C337.548 154.977 333.487 154.809 330.802 153.258L294.219 132.137C292.67 131.242 291.922 130.083 292.009 129.005L292.011 129.008Z" fill="#0D222D" stroke="#F4F4F4" stroke-linejoin="round"/>
<path d="M339.877 140.239L377.763 118.366C380.089 117.024 379.797 114.679 377.112 113.128L340.528 92.0087C337.843 90.4579 333.782 90.2904 331.456 91.6332L293.57 113.506C291.244 114.849 291.536 117.194 294.222 118.745L330.805 139.866C333.49 141.417 337.551 141.585 339.877 140.242V140.239Z" fill="#0D222D" stroke="#F4F4F4" stroke-linejoin="round"/>
<path d="M339.188 136.441L371.866 117.402C373.873 116.231 373.619 114.191 371.303 112.844L339.751 94.4639C337.435 93.1123 333.929 92.9666 331.927 94.1373L299.249 113.176C297.242 114.347 297.496 116.387 299.812 117.734L331.364 136.114C333.68 137.466 337.186 137.611 339.188 136.441Z" fill="#0D222D" stroke="#F4F4F4" stroke-linejoin="round"/>
<path d="M292.011 111.645V98.5715L321.324 98.5553L331.456 92.7062C333.782 91.3634 337.843 91.5309 340.528 93.0817L349.981 98.5391L379.319 98.5229V111.966C379.384 112.874 378.878 113.752 377.76 114.398L339.874 136.271C337.548 137.613 333.487 137.446 330.802 135.895L294.219 114.773C292.67 113.879 291.922 112.72 292.009 111.642L292.011 111.645Z" fill="#0D222D" stroke="#F4F4F4" stroke-linejoin="round"/>
<path d="M339.877 122.876L377.763 101.003C380.089 99.6603 379.797 97.3152 377.112 95.7645L340.528 74.6454C337.843 73.0946 333.782 72.9271 331.456 74.2699L293.57 96.1427C291.244 97.4854 291.536 99.8305 294.222 101.381L330.805 122.503C333.49 124.054 337.551 124.221 339.877 122.879V122.876Z" fill="#0D222D" stroke="#F4F4F4" stroke-linejoin="round"/>
<path d="M339.188 119.078L371.866 100.039C373.873 98.8681 373.619 96.8281 371.303 95.4814L339.751 77.1009C337.435 75.7492 333.929 75.6035 331.927 76.7743L299.249 95.8131C297.242 96.9838 297.496 99.0239 299.812 100.371L331.364 118.751C333.68 120.103 337.186 120.248 339.188 119.078Z" fill="#0D222D" stroke="#F4F4F4" stroke-linejoin="round"/>
<path d="M292.011 94.2819V81.2085L321.324 81.1923L331.456 75.3431C333.782 74.0004 337.843 74.1679 340.528 75.7187L349.981 81.176L379.319 81.1598V94.6034C379.384 95.5112 378.878 96.3892 377.76 97.0349L339.874 118.908C337.548 120.25 333.487 120.083 330.802 118.532L294.219 97.4104C292.67 96.5162 291.922 95.3572 292.009 94.2792L292.011 94.2819Z" fill="#0D222D" stroke="#F4F4F4" stroke-linejoin="round"/>
<path d="M339.877 105.513L377.763 83.64C380.089 82.2972 379.797 79.9522 377.112 78.4014L340.528 57.2824C337.843 55.7316 333.782 55.5641 331.456 56.9068L293.57 78.7797C291.244 80.1224 291.536 82.4674 294.222 84.0182L330.805 105.14C333.49 106.691 337.551 106.858 339.877 105.515V105.513Z" fill="#0D222D" stroke="#F4F4F4" stroke-linejoin="round"/>
<path d="M337.903 93.7166L358.031 81.8766C359.267 81.1485 359.11 79.8798 357.684 79.0423L338.249 67.6117C336.823 66.7711 334.664 66.6805 333.431 67.4086L313.303 79.2486C312.067 79.9767 312.223 81.2454 313.649 82.0828L333.084 93.5135C334.51 94.354 336.67 94.4447 337.903 93.7166Z" fill="#F4F4F4" stroke="#F4F4F4" stroke-linejoin="round"/>
<path d="M44.3447 151.371V138.298L73.6579 138.282L83.7892 132.432C86.1154 131.09 90.176 131.257 92.8615 132.808L102.315 138.265L131.652 138.249V151.693C131.717 152.601 131.212 153.479 130.093 154.124L92.2077 175.997C89.8815 177.34 85.8209 177.172 83.1354 175.622L46.552 154.5C45.0039 153.606 44.2555 152.447 44.342 151.369L44.3447 151.371Z" fill="#0D222D" stroke="#F4F4F4" stroke-linejoin="round"/>
<path d="M92.2106 162.602L130.096 140.729C132.422 139.387 132.131 137.042 129.445 135.491L92.8617 114.372C90.1762 112.821 86.1156 112.653 83.7895 113.996L45.9038 135.869C43.5776 137.212 43.8694 139.557 46.5549 141.108L83.1384 162.229C85.8238 163.78 89.8845 163.948 92.2106 162.605V162.602Z" fill="#0D222D" stroke="#F4F4F4" stroke-linejoin="round"/>
<path d="M91.5214 158.804L124.2 139.765C126.207 138.594 125.953 136.554 123.637 135.208L92.0841 116.827C89.7685 115.475 86.2626 115.33 84.2607 116.5L51.5824 135.539C49.5755 136.71 49.8295 138.75 52.1452 140.097L83.6979 158.477C86.0136 159.829 89.5195 159.975 91.5214 158.804Z" fill="#0D222D" stroke="#F4F4F4" stroke-linejoin="round"/>
<path d="M44.3447 134.008V120.935L73.6579 120.918L83.7892 115.069C86.1154 113.726 90.176 113.894 92.8615 115.445L102.315 120.902L131.652 120.886V134.329C131.717 135.237 131.212 136.115 130.093 136.761L92.2077 158.634C89.8815 159.977 85.8209 159.809 83.1354 158.258L46.552 137.137C45.0039 136.242 44.2555 135.083 44.342 134.005L44.3447 134.008Z" fill="#0D222D" stroke="#F4F4F4" stroke-linejoin="round"/>
<path d="M92.2106 145.239L130.096 123.366C132.422 122.024 132.131 119.679 129.445 118.128L92.8617 97.0087C90.1762 95.4579 86.1156 95.2904 83.7895 96.6332L45.9038 118.506C43.5776 119.849 43.8694 122.194 46.5549 123.745L83.1384 144.866C85.8238 146.417 89.8845 146.585 92.2106 145.242V145.239Z" fill="#0D222D" stroke="#F4F4F4" stroke-linejoin="round"/>
<path d="M91.5214 141.441L124.2 122.402C126.207 121.231 125.953 119.191 123.637 117.844L92.0841 99.4639C89.7685 98.1123 86.2626 97.9666 84.2607 99.1373L51.5824 118.176C49.5755 119.347 49.8295 121.387 52.1452 122.734L83.6979 141.114C86.0136 142.466 89.5195 142.611 91.5214 141.441Z" fill="#0D222D" stroke="#F4F4F4" stroke-linejoin="round"/>
<path d="M44.3447 116.645V103.572L73.6579 103.555L83.7892 97.7062C86.1154 96.3634 90.176 96.5309 92.8615 98.0817L102.315 103.539L131.652 103.523V116.966C131.717 117.874 131.212 118.752 130.093 119.398L92.2077 141.271C89.8815 142.613 85.8209 142.446 83.1354 140.895L46.552 119.773C45.0039 118.879 44.2555 117.72 44.342 116.642L44.3447 116.645Z" fill="#0D222D" stroke="#F4F4F4" stroke-linejoin="round"/>
<path d="M92.2106 127.876L130.096 106.003C132.422 104.66 132.131 102.315 129.445 100.764L92.8617 79.6454C90.1762 78.0946 86.1156 77.9271 83.7895 79.2699L45.9038 101.143C43.5776 102.485 43.8694 104.83 46.5549 106.381L83.1384 127.503C85.8238 129.054 89.8845 129.221 92.2106 127.879V127.876Z" fill="#0D222D" stroke="#F4F4F4" stroke-linejoin="round"/>
<path d="M91.5214 124.078L124.2 105.039C126.207 103.868 125.953 101.828 123.637 100.481L92.0841 82.1009C89.7685 80.7492 86.2626 80.6035 84.2607 81.7743L51.5824 100.813C49.5755 101.984 49.8295 104.024 52.1452 105.371L83.6979 123.751C86.0136 125.103 89.5195 125.248 91.5214 124.078Z" fill="#0D222D" stroke="#F4F4F4" stroke-linejoin="round"/>
<path d="M44.3446 99.2819V86.2085L73.6579 86.1923L83.7892 80.3431C86.1153 79.0004 90.176 79.1679 92.8614 80.7187L102.315 86.176L131.652 86.1598V99.6034C131.717 100.511 131.212 101.389 130.093 102.035L92.2076 123.908C89.8815 125.25 85.8209 125.083 83.1354 123.532L46.5519 102.41C45.0038 101.516 44.2555 100.357 44.3419 99.2792L44.3446 99.2819Z" fill="#0D222D" stroke="#F4F4F4" stroke-linejoin="round"/>
<path d="M92.2105 110.513L130.096 88.64C132.422 87.2972 132.131 84.9522 129.445 83.4014L92.8617 62.2824C90.1762 60.7316 86.1156 60.5641 83.7894 61.9068L45.9037 83.7797C43.5776 85.1224 43.8694 87.4674 46.5548 89.0182L83.1383 110.14C85.8238 111.691 89.8844 111.858 92.2105 110.515V110.513Z" fill="#0D222D" stroke="#F4F4F4" stroke-linejoin="round"/>
<path d="M90.2361 98.7166L110.364 86.8766C111.6 86.1485 111.444 84.8798 110.017 84.0423L90.5827 72.6117C89.1564 71.7711 86.997 71.6805 85.764 72.4086L65.6361 84.2486C64.4 84.9767 64.5564 86.2454 65.9827 87.0828L85.4173 98.5135C86.8437 99.354 89.0031 99.4447 90.2361 98.7166Z" fill="#F4F4F4" stroke="#F4F4F4" stroke-linejoin="round"/>
<path d="M118.024 218.186V191.144L178.658 191.11L199.614 179.011C204.426 176.234 212.826 176.58 218.38 179.788L237.934 191.077L298.619 191.043V218.851C298.753 220.729 297.708 222.545 295.394 223.881L217.028 269.124C212.216 271.902 203.817 271.555 198.262 268.348L122.589 224.657C119.387 222.808 117.839 220.41 118.018 218.18L118.024 218.186Z" fill="#E06938" stroke="#0D222D" stroke-linejoin="round"/>
<path d="M217.034 241.417L295.4 196.173C300.212 193.396 299.608 188.545 294.053 185.337L218.381 141.653C212.826 138.445 204.426 138.098 199.615 140.876L121.248 186.12C116.437 188.897 117.04 193.748 122.595 196.955L198.268 240.646C203.823 243.853 212.222 244.2 217.034 241.422V241.417Z" fill="#E06938" stroke="#0D222D" stroke-linejoin="round"/>
<path d="M212.395 213.369L249.067 192.194C251.319 190.892 251.034 188.623 248.435 187.126L213.027 166.683C210.428 165.18 206.494 165.018 204.247 166.32L167.576 187.495C165.324 188.797 165.609 191.066 168.208 192.563L203.616 213.006C206.215 214.509 210.149 214.671 212.395 213.369Z" fill="#0D222D" stroke="#0D222D" stroke-linejoin="round"/>
<path d="M208.886 195.637L213.96 192.708C214.273 192.529 214.234 192.216 213.871 192.004L208.97 189.176C208.612 188.97 208.064 188.947 207.757 189.126L202.683 192.054C202.37 192.233 202.409 192.546 202.772 192.753L207.673 195.581C208.031 195.787 208.579 195.81 208.886 195.631V195.637Z" fill="#E06938"/>
<path d="M295.345 295.162V282.088L324.658 282.072L334.789 276.223C337.115 274.88 341.176 275.048 343.862 276.599L353.315 282.056L382.652 282.04V295.483C382.717 296.391 382.212 297.269 381.093 297.915L343.208 319.788C340.882 321.13 336.821 320.963 334.135 319.412L297.552 298.29C296.004 297.396 295.256 296.237 295.342 295.159L295.345 295.162Z" fill="#0D222D" stroke="#F4F4F4" stroke-linejoin="round"/>
<path d="M343.211 306.393L381.096 284.52C383.423 283.177 383.131 280.832 380.445 279.281L343.862 258.162C341.176 256.611 337.116 256.444 334.79 257.787L296.904 279.66C294.578 281.002 294.87 283.347 297.555 284.898L334.138 306.02C336.824 307.571 340.885 307.738 343.211 306.395V306.393Z" fill="#0D222D" stroke="#F4F4F4" stroke-linejoin="round"/>
<path d="M342.522 302.594L375.2 283.555C377.207 282.385 376.953 280.345 374.637 278.998L343.084 260.617C340.769 259.266 337.263 259.12 335.261 260.291L302.583 279.33C300.576 280.5 300.83 282.54 303.145 283.887L334.698 302.268C337.014 303.619 340.52 303.765 342.522 302.594Z" fill="#0D222D" stroke="#F4F4F4" stroke-linejoin="round"/>
<path d="M295.345 277.799V264.725L324.658 264.709L334.789 258.86C337.115 257.517 341.176 257.684 343.862 259.235L353.315 264.693L382.652 264.676V278.12C382.717 279.028 382.212 279.906 381.093 280.552L343.208 302.424C340.882 303.767 336.821 303.6 334.135 302.049L297.552 280.927C296.004 280.033 295.256 278.874 295.342 277.796L295.345 277.799Z" fill="#0D222D" stroke="#F4F4F4" stroke-linejoin="round"/>
<path d="M343.211 289.029L381.096 267.157C383.423 265.814 383.131 263.469 380.445 261.918L343.862 240.799C341.176 239.248 337.116 239.081 334.79 240.423L296.904 262.296C294.578 263.639 294.87 265.984 297.555 267.535L334.138 288.657C336.824 290.207 340.885 290.375 343.211 289.032V289.029Z" fill="#0D222D" stroke="#F4F4F4" stroke-linejoin="round"/>
<path d="M342.522 285.231L375.2 266.192C377.207 265.022 376.953 262.982 374.637 261.635L343.084 243.254C340.769 241.903 337.263 241.757 335.261 242.928L302.583 261.967C300.576 263.137 300.83 265.177 303.145 266.524L334.698 284.905C337.014 286.256 340.52 286.402 342.522 285.231Z" fill="#0D222D" stroke="#F4F4F4" stroke-linejoin="round"/>
<path d="M295.345 260.435V247.362L324.658 247.346L334.789 241.497C337.115 240.154 341.176 240.321 343.862 241.872L353.315 247.33L382.652 247.313V260.757C382.717 261.665 382.212 262.543 381.093 263.188L343.208 285.061C340.882 286.404 336.821 286.237 334.135 284.686L297.552 263.564C296.004 262.67 295.256 261.511 295.342 260.433L295.345 260.435Z" fill="#0D222D" stroke="#F4F4F4" stroke-linejoin="round"/>
<path d="M343.211 271.666L381.096 249.794C383.423 248.451 383.131 246.106 380.445 244.555L343.862 223.436C341.176 221.885 337.116 221.718 334.79 223.06L296.904 244.933C294.578 246.276 294.87 248.621 297.555 250.172L334.138 271.294C336.824 272.844 340.885 273.012 343.211 271.669V271.666Z" fill="#0D222D" stroke="#F4F4F4" stroke-linejoin="round"/>
<path d="M342.522 267.868L375.2 248.829C377.207 247.658 376.953 245.618 374.637 244.272L343.084 225.891C340.769 224.54 337.263 224.394 335.261 225.565L302.583 244.603C300.576 245.774 300.83 247.814 303.145 249.161L334.698 267.541C337.014 268.893 340.52 269.039 342.522 267.868Z" fill="#0D222D" stroke="#F4F4F4" stroke-linejoin="round"/>
<path d="M295.345 243.072V229.999L324.658 229.983L334.789 224.133C337.115 222.791 341.176 222.958 343.861 224.509L353.315 229.966L382.652 229.95V243.394C382.717 244.301 382.212 245.179 381.093 245.825L343.208 267.698C340.881 269.041 336.821 268.873 334.135 267.322L297.552 246.201C296.004 245.306 295.255 244.147 295.342 243.069L295.345 243.072Z" fill="#0D222D" stroke="#F4F4F4" stroke-linejoin="round"/>
<path d="M343.211 254.303L381.096 232.431C383.422 231.088 383.131 228.743 380.445 227.192L343.862 206.073C341.176 204.522 337.116 204.355 334.789 205.697L296.904 227.57C294.578 228.913 294.869 231.258 297.555 232.809L334.138 253.93C336.824 255.481 340.884 255.649 343.211 254.306V254.303Z" fill="#0D222D" stroke="#F4F4F4" stroke-linejoin="round"/>
<path d="M341.236 242.507L361.364 230.667C362.6 229.939 362.444 228.67 361.017 227.833L341.583 216.402C340.157 215.561 337.997 215.471 336.764 216.199L316.636 228.039C315.4 228.767 315.557 230.036 316.983 230.873L336.417 242.304C337.844 243.144 340.003 243.235 341.236 242.507Z" fill="#F4F4F4" stroke="#F4F4F4" stroke-linejoin="round"/>
<path d="M39.0112 293.705V280.631L68.3244 280.615L78.4557 274.766C80.7819 273.423 84.8425 273.59 87.528 275.141L96.9812 280.599L126.319 280.582V294.026C126.384 294.934 125.878 295.812 124.76 296.458L86.8742 318.33C84.548 319.673 80.4874 319.506 77.8019 317.955L41.2185 296.833C39.6704 295.939 38.922 294.78 39.0085 293.702L39.0112 293.705Z" fill="#0D222D" stroke="#F4F4F4" stroke-linejoin="round"/>
<path d="M86.8772 304.935L124.763 283.063C127.089 281.72 126.797 279.375 124.112 277.824L87.5283 256.705C84.8429 255.154 80.7822 254.987 78.4561 256.329L40.5704 278.202C38.2443 279.545 38.536 281.89 41.2215 283.441L77.805 304.563C80.4905 306.113 84.5511 306.281 86.8772 304.938V304.935Z" fill="#0D222D" stroke="#F4F4F4" stroke-linejoin="round"/>
<path d="M86.188 301.137L118.866 282.098C120.873 280.928 120.619 278.888 118.303 277.541L86.7507 259.16C84.435 257.809 80.9292 257.663 78.9272 258.834L46.249 277.873C44.2421 279.043 44.4961 281.083 46.8117 282.43L78.3645 300.811C80.6802 302.162 84.186 302.308 86.188 301.137Z" fill="#0D222D" stroke="#F4F4F4" stroke-linejoin="round"/>
<path d="M39.0112 276.341V263.268L68.3244 263.252L78.4557 257.403C80.7819 256.06 84.8425 256.227 87.528 257.778L96.9812 263.236L126.319 263.219V276.663C126.384 277.571 125.878 278.449 124.76 279.094L86.8742 300.967C84.548 302.31 80.4874 302.143 77.8019 300.592L41.2185 279.47C39.6704 278.576 38.922 277.417 39.0085 276.339L39.0112 276.341Z" fill="#0D222D" stroke="#F4F4F4" stroke-linejoin="round"/>
<path d="M86.8772 287.572L124.763 265.7C127.089 264.357 126.797 262.012 124.112 260.461L87.5283 239.342C84.8429 237.791 80.7822 237.624 78.4561 238.966L40.5704 260.839C38.2443 262.182 38.536 264.527 41.2215 266.078L77.805 287.2C80.4905 288.75 84.5511 288.918 86.8772 287.575V287.572Z" fill="#0D222D" stroke="#F4F4F4" stroke-linejoin="round"/>
<path d="M86.188 283.774L118.866 264.735C120.873 263.565 120.619 261.525 118.303 260.178L86.7507 241.797C84.435 240.446 80.9292 240.3 78.9272 241.471L46.249 260.51C44.2421 261.68 44.4961 263.72 46.8117 265.067L78.3645 283.448C80.6802 284.799 84.186 284.945 86.188 283.774Z" fill="#0D222D" stroke="#F4F4F4" stroke-linejoin="round"/>
<path d="M39.0112 258.978V245.905L68.3244 245.889L78.4557 240.039C80.7819 238.697 84.8425 238.864 87.528 240.415L96.9812 245.872L126.319 245.856V259.3C126.384 260.207 125.878 261.086 124.76 261.731L86.8742 283.604C84.548 284.947 80.4874 284.779 77.8019 283.228L41.2185 262.107C39.6704 261.212 38.922 260.053 39.0085 258.975L39.0112 258.978Z" fill="#0D222D" stroke="#F4F4F4" stroke-linejoin="round"/>
<path d="M86.8772 270.209L124.763 248.336C127.089 246.994 126.797 244.648 124.112 243.098L87.5283 221.979C84.8429 220.428 80.7822 220.26 78.4561 221.603L40.5704 243.476C38.2443 244.819 38.536 247.164 41.2215 248.715L77.805 269.836C80.4905 271.387 84.5511 271.555 86.8772 270.212V270.209Z" fill="#0D222D" stroke="#F4F4F4" stroke-linejoin="round"/>
<path d="M86.188 266.411L118.866 247.372C120.873 246.201 120.619 244.161 118.303 242.815L86.7507 224.434C84.435 223.082 80.9292 222.937 78.9272 224.108L46.249 243.146C44.2421 244.317 44.4961 246.357 46.8117 247.704L78.3645 266.084C80.6802 267.436 84.186 267.582 86.188 266.411Z" fill="#0D222D" stroke="#F4F4F4" stroke-linejoin="round"/>
<path d="M39.0112 241.615V228.542L68.3244 228.526L78.4557 222.676C80.7819 221.334 84.8425 221.501 87.528 223.052L96.9812 228.509L126.319 228.493V241.937C126.384 242.844 125.878 243.722 124.76 244.368L86.8742 266.241C84.548 267.584 80.4874 267.416 77.8019 265.865L41.2185 244.744C39.6704 243.849 38.922 242.69 39.0085 241.612L39.0112 241.615Z" fill="#0D222D" stroke="#F4F4F4" stroke-linejoin="round"/>
<path d="M86.8772 252.846L124.763 230.973C127.089 229.63 126.797 227.285 124.112 225.735L87.5283 204.616C84.8429 203.065 80.7822 202.897 78.4561 204.24L40.5704 226.113C38.2443 227.456 38.536 229.801 41.2215 231.351L77.805 252.473C80.4905 254.024 84.5511 254.191 86.8772 252.849V252.846Z" fill="#0D222D" stroke="#F4F4F4" stroke-linejoin="round"/>
<path d="M84.9028 241.05L105.031 229.21C106.267 228.482 106.11 227.213 104.684 226.376L85.2494 214.945C83.8231 214.104 81.6636 214.014 80.4306 214.742L60.3028 226.582C59.0666 227.31 59.2231 228.579 60.6494 229.416L80.084 240.847C81.5103 241.687 83.6697 241.778 84.9028 241.05Z" fill="#F4F4F4" stroke="#F4F4F4" stroke-linejoin="round"/>
</g>
<defs>
<radialGradient id="paint0_radial_741_79131" cx="0" cy="0" r="1" gradientUnits="userSpaceOnUse" gradientTransform="translate(226 224) rotate(90) scale(134.5 280.783)">
<stop stop-color="#D9D9D9"/>
<stop offset="1" stop-color="#D9D9D9" stop-opacity="0"/>
</radialGradient>
<linearGradient id="paint1_linear_741_79131" x1="35.6666" y1="134.833" x2="416.833" y2="353.333" gradientUnits="userSpaceOnUse">
<stop stop-color="#F4F4F4" stop-opacity="0"/>
<stop offset="0.5" stop-color="#F4F4F4"/>
<stop offset="1" stop-color="#F4F4F4" stop-opacity="0"/>
</linearGradient>
<linearGradient id="paint2_linear_741_79131" x1="18.5707" y1="343.539" x2="398.381" y2="122.689" gradientUnits="userSpaceOnUse">
<stop offset="0.25" stop-color="#F4F4F4" stop-opacity="0"/>
<stop offset="0.5" stop-color="#F4F4F4"/>
<stop offset="1" stop-color="#F4F4F4" stop-opacity="0"/>
</linearGradient>
<clipPath id="clip0_741_79131">
<rect width="419" height="400" fill="white"/>
</clipPath>
</defs>
</svg>
