<svg width="419" height="400" viewBox="0 0 419 400" fill="none" xmlns="http://www.w3.org/2000/svg">
<g clip-path="url(#clip0_738_4411)">
<rect width="419" height="400" fill="#0D222D"/>
<mask id="mask0_738_4411" style="mask-type:alpha" maskUnits="userSpaceOnUse" x="-340" y="-22" width="1101" height="634">
<g opacity="0.2">
<mask id="path-1-inside-1_738_4411" fill="white">
<path d="M210.002 -21.7148L759.511 294.502L210.002 610.718L-339.507 294.502L210.002 -21.7148ZM210.002 -22L-340 294.502L210.002 611.003L760.003 294.502L210.002 -22Z"/>
</mask>
<path d="M210.002 -21.7148L210.5 -22.5815L210.002 -22.8685L209.503 -22.5815L210.002 -21.7148ZM759.511 294.502L760.01 295.368L761.516 294.502L760.01 293.635L759.511 294.502ZM210.002 610.718L209.503 611.585L210.002 611.872L210.5 611.585L210.002 610.718ZM-339.507 294.502L-340.006 293.635L-341.512 294.502L-340.006 295.368L-339.507 294.502ZM210.002 -22L210.5 -22.8667L210.002 -23.1538L209.503 -22.8667L210.002 -22ZM-340 294.502L-340.499 293.635L-342.005 294.502L-340.499 295.368L-340 294.502ZM210.002 611.003L209.503 611.87L210.002 612.157L210.5 611.87L210.002 611.003ZM760.003 294.502L760.502 295.368L762.008 294.502L760.502 293.635L760.003 294.502ZM209.503 -20.848L759.012 295.368L760.01 293.635L210.5 -22.5815L209.503 -20.848ZM759.012 293.635L209.503 609.851L210.5 611.585L760.01 295.368L759.012 293.635ZM210.5 609.851L-339.009 293.635L-340.006 295.368L209.503 611.585L210.5 609.851ZM-339.009 295.368L210.5 -20.848L209.503 -22.5815L-340.006 293.635L-339.009 295.368ZM209.503 -22.8667L-340.499 293.635L-339.501 295.368L210.5 -21.1333L209.503 -22.8667ZM-340.499 295.368L209.503 611.87L210.5 610.136L-339.501 293.635L-340.499 295.368ZM210.5 611.87L760.502 295.368L759.505 293.635L209.503 610.136L210.5 611.87ZM760.502 293.635L210.5 -22.8667L209.503 -21.1333L759.505 295.368L760.502 293.635Z" fill="#536269" mask="url(#path-1-inside-1_738_4411)"/>
<path d="M183.809 595.929L733.81 279.43" stroke="#536269" stroke-width="0.76" stroke-miterlimit="10"/>
<path d="M157.619 580.857L707.62 264.358" stroke="#536269" stroke-width="0.76" stroke-miterlimit="10"/>
<path d="M131.429 565.785L681.431 249.287" stroke="#536269" stroke-width="0.76" stroke-miterlimit="10"/>
<path d="M105.239 550.716L655.238 234.215" stroke="#536269" stroke-width="0.76" stroke-miterlimit="10"/>
<path d="M79.0494 535.645L629.048 219.143" stroke="#536269" stroke-width="0.76" stroke-miterlimit="10"/>
<path d="M52.8564 520.573L602.858 204.072" stroke="#536269" stroke-width="0.76" stroke-miterlimit="10"/>
<path d="M26.6666 505.502L576.668 189" stroke="#536269" stroke-width="0.76" stroke-miterlimit="10"/>
<path d="M0.476929 490.43L550.475 173.928" stroke="#536269" stroke-width="0.76" stroke-miterlimit="10"/>
<path d="M-25.7129 475.358L524.285 158.857" stroke="#536269" stroke-width="0.76" stroke-miterlimit="10"/>
<path d="M-51.9059 460.287L498.096 143.785" stroke="#536269" stroke-width="0.76" stroke-miterlimit="10"/>
<path d="M-78.0957 445.215L471.906 128.713" stroke="#536269" stroke-width="0.76" stroke-miterlimit="10"/>
<path d="M-104.285 430.143L445.716 113.642" stroke="#536269" stroke-width="0.76" stroke-miterlimit="10"/>
<path d="M-130.475 415.072L419.523 98.5701" stroke="#536269" stroke-width="0.76" stroke-miterlimit="10"/>
<path d="M-156.665 400L393.333 83.5017" stroke="#536269" stroke-width="0.76" stroke-miterlimit="10"/>
<path d="M-182.858 384.928L367.143 68.4299" stroke="#536269" stroke-width="0.76" stroke-miterlimit="10"/>
<path d="M-209.048 369.857L340.954 53.3584" stroke="#536269" stroke-width="0.76" stroke-miterlimit="10"/>
<path d="M-235.238 354.785L314.764 38.2866" stroke="#536269" stroke-width="0.76" stroke-miterlimit="10"/>
<path d="M-261.427 339.713L288.571 23.2151" stroke="#536269" stroke-width="0.76" stroke-miterlimit="10"/>
<path d="M-287.62 324.645L262.381 8.14331" stroke="#536269" stroke-width="0.76" stroke-miterlimit="10"/>
<path d="M-313.81 309.573L236.191 -6.92822" stroke="#536269" stroke-width="0.76" stroke-miterlimit="10"/>
<path d="M183.809 -6.92822L733.81 309.573" stroke="#536269" stroke-width="0.76" stroke-miterlimit="10"/>
<path d="M157.619 8.14331L707.62 324.645" stroke="#536269" stroke-width="0.76" stroke-miterlimit="10"/>
<path d="M131.429 23.2151L681.431 339.713" stroke="#536269" stroke-width="0.76" stroke-miterlimit="10"/>
<path d="M105.239 38.2866L655.238 354.785" stroke="#536269" stroke-width="0.76" stroke-miterlimit="10"/>
<path d="M79.0494 53.3584L629.048 369.857" stroke="#536269" stroke-width="0.76" stroke-miterlimit="10"/>
<path d="M52.8564 68.4299L602.858 384.928" stroke="#536269" stroke-width="0.76" stroke-miterlimit="10"/>
<path d="M26.6666 83.5017L576.668 400" stroke="#536269" stroke-width="0.76" stroke-miterlimit="10"/>
<path d="M0.476929 98.5701L550.475 415.072" stroke="#536269" stroke-width="0.76" stroke-miterlimit="10"/>
<path d="M-25.7129 113.642L524.285 430.143" stroke="#536269" stroke-width="0.76" stroke-miterlimit="10"/>
<path d="M-51.9059 128.713L498.096 445.215" stroke="#536269" stroke-width="0.76" stroke-miterlimit="10"/>
<path d="M-78.0957 143.785L471.906 460.287" stroke="#536269" stroke-width="0.76" stroke-miterlimit="10"/>
<path d="M-104.285 158.857L445.716 475.358" stroke="#536269" stroke-width="0.76" stroke-miterlimit="10"/>
<path d="M-130.475 173.928L419.523 490.43" stroke="#536269" stroke-width="0.76" stroke-miterlimit="10"/>
<path d="M-156.665 189L393.333 505.502" stroke="#536269" stroke-width="0.76" stroke-miterlimit="10"/>
<path d="M-182.858 204.072L367.143 520.573" stroke="#536269" stroke-width="0.76" stroke-miterlimit="10"/>
<path d="M-209.048 219.143L340.954 535.645" stroke="#536269" stroke-width="0.76" stroke-miterlimit="10"/>
<path d="M-235.238 234.215L314.764 550.716" stroke="#536269" stroke-width="0.76" stroke-miterlimit="10"/>
<path d="M-261.427 249.287L288.571 565.785" stroke="#536269" stroke-width="0.76" stroke-miterlimit="10"/>
<path d="M-287.62 264.358L262.381 580.857" stroke="#536269" stroke-width="0.76" stroke-miterlimit="10"/>
<path d="M-313.81 279.43L236.191 595.929" stroke="#536269" stroke-width="0.76" stroke-miterlimit="10"/>
</g>
</mask>
<g mask="url(#mask0_738_4411)">
<ellipse cx="226" cy="306" rx="239" ry="143" fill="url(#paint0_radial_738_4411)"/>
</g>
<g clip-path="url(#clip1_738_4411)">
<path d="M74.7093 280.105V253.317L165.44 253.265L196.795 235.188C203.998 231.043 216.559 231.56 224.88 236.348L254.136 253.212L344.941 253.159V281.086C345.141 283.892 343.58 286.602 340.121 288.595L222.855 356.177C215.652 360.322 203.091 359.805 194.77 355.017L81.5434 289.766C76.7553 287.003 74.4351 283.417 74.6988 280.095L74.7093 280.105Z" fill="#0D222D" stroke="#F4F4F4" stroke-width="1.44486" stroke-linejoin="round"/>
<path d="M222.855 327.269L340.1 259.55C347.303 255.395 346.396 248.129 338.086 243.33L224.869 177.953C216.559 173.154 203.988 172.637 196.795 176.793L79.5396 244.501C72.3364 248.656 73.2434 255.922 81.554 260.721L194.77 326.109C203.081 330.908 215.652 331.424 222.845 327.269H222.855Z" fill="#0D222D" stroke="#F4F4F4" stroke-width="1.44486" stroke-linejoin="round"/>
<path d="M109.154 254.024V242.623L176.757 242.581L200.128 229.092C205.496 225.992 214.861 226.382 221.052 229.957L242.851 242.539L310.517 242.497V254.752C310.665 256.851 309.505 258.876 306.921 260.363L219.544 310.806C214.175 313.907 204.81 313.517 198.619 309.941L114.248 261.227C110.683 259.16 108.954 256.492 109.154 254.003V254.024Z" fill="#E06938" stroke="#0D222D" stroke-width="1.50814" stroke-linejoin="round"/>
<path d="M219.544 298.889L306.921 248.445C312.289 245.344 311.614 239.945 305.423 236.359L221.052 187.655C214.861 184.08 205.496 183.69 200.128 186.791L112.75 237.234C107.382 240.335 108.057 245.735 114.248 249.32L198.619 298.034C204.81 301.61 214.175 302 219.544 298.899V298.889Z" fill="#E06938" stroke="#0D222D" stroke-width="1.50814" stroke-linejoin="round"/>
<path d="M214.376 267.619L255.264 244.005C257.774 242.55 257.458 240.019 254.558 238.352L215.082 215.561C212.182 213.884 207.795 213.705 205.295 215.161L164.407 238.774C161.897 240.229 162.213 242.761 165.113 244.427L204.589 267.218C207.489 268.895 211.876 269.074 214.376 267.619Z" fill="#0D222D" stroke="#0D222D" stroke-width="1.50814" stroke-linejoin="round"/>
<path d="M210.463 247.844L216.116 244.575C216.464 244.374 216.422 244.026 216.021 243.794L210.558 240.641C210.157 240.409 209.545 240.388 209.208 240.588L203.545 243.857C203.196 244.058 203.239 244.406 203.639 244.638L209.102 247.791C209.503 248.023 210.115 248.044 210.452 247.844H210.463Z" fill="#E06938"/>
<path d="M109.143 242.022V242.623C109.143 242.423 109.122 242.223 109.143 242.022Z" fill="#E06938" stroke="#0D222D" stroke-width="1.50814" stroke-linejoin="round"/>
<path opacity="0.5" d="M306.921 248.445L219.544 298.889C214.175 301.989 204.81 301.599 198.619 298.024L114.248 249.31C110.926 247.401 109.207 244.954 109.143 242.623V200.596L180.996 242.581L198.619 252.759C204.81 256.334 214.175 256.724 219.544 253.623L310.517 200.923V242.507H310.485C310.802 244.722 309.631 246.874 306.921 248.445Z" fill="#FEB28A"/>
<path opacity="0.5" d="M296.997 190.883L218.552 236.169C213.732 238.953 205.327 238.605 199.769 235.399L124.014 191.663C121.029 189.933 119.468 187.729 119.426 185.631C119.373 183.827 120.439 182.097 122.664 180.811L201.108 135.524C205.928 132.74 214.334 133.088 219.902 136.305L295.647 180.03C298.378 181.612 299.918 183.595 300.192 185.525C300.487 187.518 299.443 189.469 296.997 190.883Z" fill="#FEB28A"/>
<path d="M310.507 185.525V197.769C310.654 199.868 309.494 201.893 306.91 203.38L219.533 253.824C214.175 256.924 204.81 256.534 198.609 252.959L114.237 204.245C110.673 202.188 108.943 199.51 109.143 197.021V185.63H119.426C119.468 187.729 121.029 189.933 124.014 191.663L199.769 235.399C205.327 238.605 213.732 238.953 218.552 236.169L296.997 190.883C299.443 189.469 300.487 187.518 300.192 185.525H310.507Z" fill="#E06938" stroke="#0D222D" stroke-width="1.50814" stroke-linejoin="round"/>
<path d="M310.507 185.683C310.507 185.683 310.496 185.578 310.485 185.525C310.201 183.363 308.492 181.138 305.413 179.366L221.041 130.662C214.85 127.087 205.485 126.697 200.117 129.798L112.74 180.241C110.124 181.749 108.954 183.806 109.143 185.936C109.344 188.172 111.063 190.492 114.248 192.327L198.619 241.041C204.81 244.617 214.175 244.996 219.544 241.906L306.921 191.452C309.114 190.187 310.306 188.52 310.507 186.759C310.549 186.4 310.549 186.042 310.507 185.683ZM296.997 190.883L218.552 236.169C213.732 238.953 205.327 238.605 199.769 235.399L124.014 191.663C121.029 189.933 119.468 187.729 119.426 185.63C119.373 183.827 120.439 182.097 122.664 180.811L201.108 135.524C205.928 132.74 214.334 133.088 219.902 136.305L295.647 180.03C298.378 181.612 299.918 183.595 300.192 185.525C300.487 187.518 299.443 189.469 296.997 190.883Z" fill="#E06938" stroke="#0D222D" stroke-width="1.50814" stroke-linejoin="round"/>
<path d="M290.553 206.871C290.553 207.894 289.857 209.096 288.971 209.602C288.085 210.109 287.389 209.708 287.389 208.685C287.389 207.662 288.085 206.46 288.971 205.953C289.857 205.447 290.553 205.848 290.553 206.86V206.871Z" fill="#0D222D"/>
<path d="M296.058 203.707C296.058 204.73 295.362 205.932 294.476 206.439C293.59 206.945 292.894 206.544 292.894 205.532C292.894 204.519 293.59 203.306 294.476 202.8C295.362 202.294 296.058 202.695 296.058 203.707Z" fill="#0D222D"/>
<path d="M301.553 200.512C301.553 201.535 300.857 202.737 299.971 203.243C299.116 203.749 298.389 203.349 298.389 202.326C298.389 201.303 299.085 200.1 299.971 199.594C300.857 199.088 301.553 199.489 301.553 200.501V200.512Z" fill="#0D222D"/>
<path opacity="0.5" d="M296.997 161.806L218.552 207.092C213.732 209.877 205.327 209.529 199.769 206.323L124.014 162.586C121.029 160.857 119.468 158.653 119.426 156.554C119.373 154.75 120.439 153.021 122.664 151.734L201.108 106.448C205.928 103.663 214.334 104.012 219.902 107.228L295.647 150.954C298.378 152.536 299.918 154.518 300.192 156.448C300.487 158.442 299.443 160.393 296.997 161.806Z" fill="#FEB28A"/>
<path d="M310.507 156.448V168.693C310.654 170.792 309.494 172.816 306.91 174.303L219.533 224.747C214.175 227.848 204.81 227.458 198.609 223.882L114.237 175.168C110.673 173.112 108.943 170.433 109.143 167.944V156.554H119.426C119.468 158.653 121.029 160.857 124.014 162.586L199.769 206.322C205.327 209.529 213.732 209.877 218.552 207.092L296.997 161.806C299.443 160.393 300.487 158.442 300.192 156.448H310.507Z" fill="#E06938" stroke="#0D222D" stroke-width="1.50814" stroke-linejoin="round"/>
<path d="M310.507 156.607C310.507 156.607 310.496 156.501 310.485 156.448C310.201 154.286 308.492 152.061 305.413 150.289L221.041 101.586C214.85 98.0106 205.485 97.6204 200.117 100.721L112.74 151.165C110.124 152.673 108.954 154.729 109.143 156.86C109.344 159.096 111.063 161.416 114.248 163.251L198.619 211.965C204.81 215.54 214.175 215.92 219.544 212.83L306.921 162.376C309.114 161.11 310.306 159.444 310.507 157.682C310.549 157.324 310.549 156.965 310.507 156.607ZM296.997 161.806L218.552 207.092C213.732 209.877 205.327 209.529 199.769 206.323L124.014 162.586C121.029 160.857 119.468 158.653 119.426 156.554C119.373 154.75 120.439 153.021 122.664 151.734L201.108 106.448C205.928 103.664 214.334 104.012 219.902 107.228L295.647 150.954C298.378 152.536 299.918 154.518 300.192 156.448C300.487 158.442 299.443 160.393 296.997 161.806Z" fill="#E06938" stroke="#0D222D" stroke-width="1.50814" stroke-linejoin="round"/>
<path d="M290.553 177.784C290.553 178.807 289.857 180.009 288.971 180.515C288.085 181.022 287.389 180.621 287.389 179.598C287.389 178.575 288.085 177.373 288.971 176.866C289.857 176.36 290.553 176.761 290.553 177.773V177.784Z" fill="#0D222D"/>
<path d="M296.058 174.62C296.058 175.643 295.362 176.845 294.476 177.351C293.59 177.858 292.894 177.457 292.894 176.444C292.894 175.432 293.59 174.219 294.476 173.713C295.362 173.207 296.058 173.607 296.058 174.62Z" fill="#0D222D"/>
<path d="M301.553 171.435C301.553 172.458 300.857 173.66 299.971 174.166C299.116 174.673 298.389 174.272 298.389 173.249C298.389 172.226 299.085 171.024 299.971 170.517C300.857 170.011 301.553 170.412 301.553 171.424V171.435Z" fill="#0D222D"/>
<path opacity="0.5" d="M296.997 132.729L218.552 178.016C213.732 180.8 205.327 180.452 199.769 177.246L124.014 133.51C121.029 131.78 119.468 129.576 119.426 127.477C119.373 125.674 120.439 123.944 122.664 122.658L201.108 77.3712C205.928 74.5869 214.334 74.935 219.902 78.1516L295.647 121.877C298.378 123.459 299.918 125.442 300.192 127.372C300.487 129.365 299.443 131.316 296.997 132.729Z" fill="#FEB28A"/>
<path d="M310.507 127.372V139.616C310.654 141.715 309.494 143.74 306.91 145.227L219.533 195.671C214.175 198.771 204.81 198.381 198.609 194.806L114.237 146.092C110.673 144.035 108.943 141.357 109.143 138.868V127.477H119.426C119.468 129.576 121.029 131.78 124.014 133.51L199.769 177.246C205.327 180.452 213.732 180.8 218.552 178.016L296.997 132.73C299.443 131.316 300.487 129.365 300.192 127.372H310.507Z" fill="#E06938" stroke="#0D222D" stroke-width="1.50814" stroke-linejoin="round"/>
<path d="M310.507 127.53C310.507 127.53 310.496 127.425 310.485 127.372C310.201 125.21 308.492 122.985 305.413 121.213L221.041 72.5093C214.85 68.9341 205.485 68.5439 200.117 71.6445L112.74 122.088C110.124 123.596 108.954 125.653 109.143 127.783C109.344 130.019 111.063 132.339 114.248 134.174L198.619 182.888C204.81 186.464 214.175 186.843 219.544 183.753L306.921 133.299C309.114 132.033 310.306 130.367 310.507 128.606C310.549 128.247 310.549 127.889 310.507 127.53ZM296.997 132.729L218.552 178.016C213.732 180.8 205.327 180.452 199.769 177.246L124.014 133.51C121.029 131.78 119.468 129.576 119.426 127.477C119.373 125.674 120.439 123.944 122.664 122.658L201.108 77.3712C205.928 74.587 214.334 74.935 219.902 78.1517L295.647 121.877C298.378 123.459 299.918 125.442 300.192 127.372C300.487 129.365 299.443 131.316 296.997 132.729Z" fill="#E06938" stroke="#0D222D" stroke-width="1.50814" stroke-linejoin="round"/>
<path d="M290.553 148.707C290.553 149.73 289.857 150.933 288.971 151.439C288.085 151.945 287.389 151.544 287.389 150.521C287.389 149.498 288.085 148.296 288.971 147.79C289.857 147.284 290.553 147.684 290.553 148.697V148.707Z" fill="#0D222D"/>
<path d="M296.058 145.543C296.058 146.566 295.362 147.769 294.476 148.275C293.59 148.781 292.894 148.38 292.894 147.368C292.894 146.355 293.59 145.143 294.476 144.636C295.362 144.13 296.058 144.531 296.058 145.543Z" fill="#0D222D"/>
<path d="M301.553 142.348C301.553 143.371 300.857 144.573 299.971 145.079C299.116 145.586 298.389 145.185 298.389 144.162C298.389 143.139 299.085 141.937 299.971 141.43C300.857 140.924 301.553 141.325 301.553 142.337V142.348Z" fill="#0D222D"/>
<path opacity="0.5" d="M296.997 103.642L218.552 148.929C213.732 151.713 205.327 151.365 199.769 148.159L124.014 104.423C121.029 102.693 119.468 100.489 119.426 98.3903C119.373 96.5869 120.439 94.8572 122.664 93.5706L201.108 48.2842C205.928 45.4999 214.334 45.8479 219.902 49.0646L295.647 92.7901C298.378 94.3721 299.918 96.3548 300.192 98.2848C300.487 100.278 299.443 102.229 296.997 103.642Z" fill="#FEB28A"/>
<path d="M310.507 98.2849V110.529C310.654 112.628 309.494 114.653 306.91 116.14L219.533 166.584C214.175 169.684 204.81 169.294 198.609 165.719L114.237 117.005C110.673 114.948 108.943 112.269 109.143 109.781V98.3904H119.426C119.468 100.489 121.029 102.693 124.014 104.423L199.769 148.159C205.327 151.365 213.732 151.713 218.552 148.929L296.997 103.643C299.443 102.229 300.487 100.278 300.192 98.2849H310.507Z" fill="#E06938" stroke="#0D222D" stroke-width="1.50814" stroke-linejoin="round"/>
<path d="M310.507 98.4431C310.507 98.4431 310.496 98.3376 310.485 98.2849C310.201 96.1229 308.492 93.8976 305.413 92.1258L221.041 43.4223C214.85 39.8471 205.485 39.4568 200.117 42.5575L112.74 93.0011C110.124 94.5093 108.954 96.5658 109.143 98.6962C109.344 100.932 111.063 103.252 114.248 105.087L198.619 153.801C204.81 157.377 214.175 157.756 219.544 154.666L306.921 104.212C309.114 102.946 310.306 101.28 310.507 99.5188C310.549 99.1602 310.549 98.8017 310.507 98.4431ZM296.997 103.642L218.552 148.929C213.732 151.713 205.327 151.365 199.769 148.159L124.014 104.423C121.029 102.693 119.468 100.489 119.426 98.3903C119.373 96.5869 120.439 94.8573 122.664 93.5706L201.108 48.2842C205.928 45.5 214.334 45.848 219.902 49.0647L295.647 92.7902C298.378 94.3722 299.918 96.3549 300.192 98.2849C300.487 100.278 299.443 102.229 296.997 103.642Z" fill="#E06938" stroke="#0D222D" stroke-width="1.50814" stroke-linejoin="round"/>
<path d="M290.553 119.62C290.553 120.643 289.857 121.846 288.971 122.352C288.085 122.858 287.389 122.457 287.389 121.434C287.389 120.411 288.085 119.209 288.971 118.703C289.857 118.196 290.553 118.597 290.553 119.61V119.62Z" fill="#0D222D"/>
<path d="M296.058 116.456C296.058 117.479 295.362 118.682 294.476 119.188C293.59 119.694 292.894 119.293 292.894 118.281C292.894 117.268 293.59 116.056 294.476 115.549C295.362 115.043 296.058 115.444 296.058 116.456Z" fill="#0D222D"/>
<path d="M301.553 113.271C301.553 114.294 300.857 115.497 299.971 116.003C299.116 116.509 298.389 116.108 298.389 115.085C298.389 114.062 299.085 112.86 299.971 112.354C300.857 111.848 301.553 112.248 301.553 113.261V113.271Z" fill="#0D222D"/>
</g>
</g>
<defs>
<radialGradient id="paint0_radial_738_4411" cx="0" cy="0" r="1" gradientUnits="userSpaceOnUse" gradientTransform="translate(226 281) rotate(90) scale(134.5 280.783)">
<stop stop-color="#D9D9D9"/>
<stop offset="1" stop-color="#D9D9D9" stop-opacity="0"/>
</radialGradient>
<clipPath id="clip0_738_4411">
<rect width="419" height="400" fill="white"/>
</clipPath>
<clipPath id="clip1_738_4411">
<rect width="271.729" height="320" fill="white" transform="translate(73.9605 39.71)"/>
</clipPath>
</defs>
</svg>
