<svg width="419" height="400" viewBox="0 0 419 400" fill="none" xmlns="http://www.w3.org/2000/svg">
<g clip-path="url(#clip0_738_3849)">
<rect width="419" height="400" fill="#0D222D"/>
<mask id="mask0_738_3849" style="mask-type:alpha" maskUnits="userSpaceOnUse" x="-341" y="-75" width="1101" height="634">
<g opacity="0.2">
<mask id="path-1-inside-1_738_3849" fill="white">
<path d="M209.002 -74.7148L758.511 241.502L209.002 557.718L-340.507 241.502L209.002 -74.7148ZM209.002 -75L-341 241.502L209.002 558.003L759.003 241.502L209.002 -75Z"/>
</mask>
<path d="M209.002 -74.7148L209.5 -75.5815L209.002 -75.8685L208.503 -75.5815L209.002 -74.7148ZM758.511 241.502L759.01 242.368L760.516 241.502L759.01 240.635L758.511 241.502ZM209.002 557.718L208.503 558.585L209.002 558.872L209.5 558.585L209.002 557.718ZM-340.507 241.502L-341.006 240.635L-342.512 241.502L-341.006 242.368L-340.507 241.502ZM209.002 -75L209.5 -75.8667L209.002 -76.1538L208.503 -75.8667L209.002 -75ZM-341 241.502L-341.499 240.635L-343.005 241.502L-341.499 242.368L-341 241.502ZM209.002 558.003L208.503 558.87L209.002 559.157L209.5 558.87L209.002 558.003ZM759.003 241.502L759.502 242.368L761.008 241.502L759.502 240.635L759.003 241.502ZM208.503 -73.848L758.012 242.368L759.01 240.635L209.5 -75.5815L208.503 -73.848ZM758.012 240.635L208.503 556.851L209.5 558.585L759.01 242.368L758.012 240.635ZM209.5 556.851L-340.009 240.635L-341.006 242.368L208.503 558.585L209.5 556.851ZM-340.009 242.368L209.5 -73.848L208.503 -75.5815L-341.006 240.635L-340.009 242.368ZM208.503 -75.8667L-341.499 240.635L-340.501 242.368L209.5 -74.1333L208.503 -75.8667ZM-341.499 242.368L208.503 558.87L209.5 557.136L-340.501 240.635L-341.499 242.368ZM209.5 558.87L759.502 242.368L758.505 240.635L208.503 557.136L209.5 558.87ZM759.502 240.635L209.5 -75.8667L208.503 -74.1333L758.505 242.368L759.502 240.635Z" fill="#536269" mask="url(#path-1-inside-1_738_3849)"/>
<path d="M182.809 542.929L732.81 226.43" stroke="#536269" stroke-width="0.76" stroke-miterlimit="10"/>
<path d="M156.619 527.857L706.62 211.358" stroke="#536269" stroke-width="0.76" stroke-miterlimit="10"/>
<path d="M130.429 512.785L680.431 196.287" stroke="#536269" stroke-width="0.76" stroke-miterlimit="10"/>
<path d="M104.239 497.716L654.238 181.215" stroke="#536269" stroke-width="0.76" stroke-miterlimit="10"/>
<path d="M78.0494 482.645L628.048 166.144" stroke="#536269" stroke-width="0.76" stroke-miterlimit="10"/>
<path d="M51.8564 467.573L601.858 151.072" stroke="#536269" stroke-width="0.76" stroke-miterlimit="10"/>
<path d="M25.6666 452.502L575.668 136" stroke="#536269" stroke-width="0.76" stroke-miterlimit="10"/>
<path d="M-0.523071 437.43L549.475 120.928" stroke="#536269" stroke-width="0.76" stroke-miterlimit="10"/>
<path d="M-26.7129 422.358L523.285 105.857" stroke="#536269" stroke-width="0.76" stroke-miterlimit="10"/>
<path d="M-52.9059 407.287L497.096 90.7849" stroke="#536269" stroke-width="0.76" stroke-miterlimit="10"/>
<path d="M-79.0957 392.215L470.906 75.7134" stroke="#536269" stroke-width="0.76" stroke-miterlimit="10"/>
<path d="M-105.285 377.143L444.716 60.6416" stroke="#536269" stroke-width="0.76" stroke-miterlimit="10"/>
<path d="M-131.475 362.072L418.523 45.5701" stroke="#536269" stroke-width="0.76" stroke-miterlimit="10"/>
<path d="M-157.665 347L392.333 30.5017" stroke="#536269" stroke-width="0.76" stroke-miterlimit="10"/>
<path d="M-183.858 331.928L366.143 15.4299" stroke="#536269" stroke-width="0.76" stroke-miterlimit="10"/>
<path d="M-210.048 316.857L339.954 0.358398" stroke="#536269" stroke-width="0.76" stroke-miterlimit="10"/>
<path d="M-236.238 301.785L313.764 -14.7134" stroke="#536269" stroke-width="0.76" stroke-miterlimit="10"/>
<path d="M-262.427 286.713L287.571 -29.7849" stroke="#536269" stroke-width="0.76" stroke-miterlimit="10"/>
<path d="M-288.62 271.645L261.381 -44.8567" stroke="#536269" stroke-width="0.76" stroke-miterlimit="10"/>
<path d="M-314.81 256.573L235.191 -59.9282" stroke="#536269" stroke-width="0.76" stroke-miterlimit="10"/>
<path d="M182.809 -59.9282L732.81 256.573" stroke="#536269" stroke-width="0.76" stroke-miterlimit="10"/>
<path d="M156.619 -44.8567L706.62 271.645" stroke="#536269" stroke-width="0.76" stroke-miterlimit="10"/>
<path d="M130.429 -29.7849L680.431 286.713" stroke="#536269" stroke-width="0.76" stroke-miterlimit="10"/>
<path d="M104.239 -14.7134L654.238 301.785" stroke="#536269" stroke-width="0.76" stroke-miterlimit="10"/>
<path d="M78.0494 0.358398L628.048 316.857" stroke="#536269" stroke-width="0.76" stroke-miterlimit="10"/>
<path d="M51.8564 15.4299L601.858 331.928" stroke="#536269" stroke-width="0.76" stroke-miterlimit="10"/>
<path d="M25.6666 30.5017L575.668 347" stroke="#536269" stroke-width="0.76" stroke-miterlimit="10"/>
<path d="M-0.523071 45.5701L549.475 362.072" stroke="#536269" stroke-width="0.76" stroke-miterlimit="10"/>
<path d="M-26.7129 60.6416L523.285 377.143" stroke="#536269" stroke-width="0.76" stroke-miterlimit="10"/>
<path d="M-52.9059 75.7134L497.096 392.215" stroke="#536269" stroke-width="0.76" stroke-miterlimit="10"/>
<path d="M-79.0957 90.7849L470.906 407.287" stroke="#536269" stroke-width="0.76" stroke-miterlimit="10"/>
<path d="M-105.285 105.857L444.716 422.358" stroke="#536269" stroke-width="0.76" stroke-miterlimit="10"/>
<path d="M-131.475 120.928L418.523 437.43" stroke="#536269" stroke-width="0.76" stroke-miterlimit="10"/>
<path d="M-157.665 136L392.333 452.502" stroke="#536269" stroke-width="0.76" stroke-miterlimit="10"/>
<path d="M-183.858 151.072L366.143 467.573" stroke="#536269" stroke-width="0.76" stroke-miterlimit="10"/>
<path d="M-210.048 166.144L339.954 482.645" stroke="#536269" stroke-width="0.76" stroke-miterlimit="10"/>
<path d="M-236.238 181.215L313.764 497.716" stroke="#536269" stroke-width="0.76" stroke-miterlimit="10"/>
<path d="M-262.427 196.287L287.571 512.785" stroke="#536269" stroke-width="0.76" stroke-miterlimit="10"/>
<path d="M-288.62 211.358L261.381 527.857" stroke="#536269" stroke-width="0.76" stroke-miterlimit="10"/>
<path d="M-314.81 226.43L235.191 542.929" stroke="#536269" stroke-width="0.76" stroke-miterlimit="10"/>
</g>
</mask>
<g mask="url(#mask0_738_3849)">
<ellipse cx="225" cy="253" rx="239" ry="143" fill="url(#paint0_radial_738_3849)"/>
</g>
<path d="M293.015 208.118V190.661L332.158 190.64L345.686 182.829C348.793 181.036 354.215 181.26 357.801 183.331L370.424 190.618L409.599 190.596V208.548C409.685 209.76 409.011 210.932 407.517 211.795L356.928 241.002C353.822 242.795 348.399 242.571 344.813 240.5L295.963 212.296C293.896 211.102 292.896 209.554 293.012 208.115L293.015 208.118Z" fill="#0D222D" stroke="#F4F4F4" stroke-linejoin="round"/>
<path d="M356.931 223.115L407.521 193.908C410.627 192.115 410.237 188.984 406.651 186.913L357.801 158.712C354.215 156.642 348.793 156.418 345.686 158.211L295.097 187.418C291.991 189.211 292.38 192.342 295.966 194.413L344.817 222.617C348.403 224.688 353.825 224.912 356.931 223.119V223.115Z" fill="#0D222D" stroke="#F4F4F4" stroke-linejoin="round"/>
<path d="M356.011 218.043L399.647 192.62C402.327 191.057 401.988 188.333 398.896 186.535L356.763 161.991C353.67 160.186 348.989 159.991 346.316 161.555L302.68 186.977C300 188.541 300.339 191.265 303.431 193.063L345.564 217.607C348.656 219.412 353.338 219.606 356.011 218.043Z" fill="#0D222D" stroke="#F4F4F4" stroke-linejoin="round"/>
<path d="M151.015 123.118V105.661L190.158 105.64L203.686 97.8291C206.792 96.0361 212.215 96.2598 215.801 98.3305L228.424 105.618L267.599 105.596V123.548C267.685 124.76 267.011 125.932 265.517 126.795L214.928 156.002C211.821 157.795 206.399 157.571 202.813 155.5L153.963 127.296C151.896 126.102 150.896 124.554 151.012 123.115L151.015 123.118Z" fill="#0D222D" stroke="#F4F4F4" stroke-linejoin="round"/>
<path d="M214.931 138.115L265.521 108.908C268.627 107.115 268.237 103.984 264.651 101.913L215.801 73.7124C212.215 71.6416 206.793 71.4179 203.686 73.2109L153.097 102.418C149.991 104.211 150.38 107.342 153.966 109.413L202.817 137.617C206.403 139.688 211.825 139.912 214.931 138.119V138.115Z" fill="#0D222D" stroke="#F4F4F4" stroke-linejoin="round"/>
<path d="M214.011 133.043L257.647 107.621C260.327 106.057 259.988 103.333 256.895 101.535L214.762 76.991C211.67 75.1861 206.989 74.9915 204.316 76.5549L160.68 101.978C158 103.541 158.339 106.265 161.431 108.063L203.564 132.607C206.656 134.412 211.338 134.607 214.011 133.043Z" fill="#0D222D" stroke="#F4F4F4" stroke-linejoin="round"/>
<mask id="mask1_738_3849" style="mask-type:luminance" maskUnits="userSpaceOnUse" x="191" y="91" width="39" height="27">
<path d="M229.4 91H191V117.88H229.4V91Z" fill="white"/>
</mask>
<g mask="url(#mask1_738_3849)">
<path d="M227.776 92.1173C228.676 92.7248 229.268 93.5273 229.4 94.4021C229.4 94.7669 229.268 95.0095 228.95 95.4711C228.643 95.9327 224.792 100.599 223.64 101.887C222.982 102.64 222.631 103.54 222.631 104.414C222.631 105.314 222.982 106.189 223.64 106.942C224.792 108.23 228.643 112.921 228.95 113.382C229.268 113.845 229.4 114.063 229.4 114.428C229.268 115.302 228.709 116.105 227.809 116.688C226.942 117.32 225.79 117.733 224.584 117.806C224.057 117.806 223.706 117.709 223.08 117.49C222.466 117.272 215.653 114.647 213.821 113.845C213.678 113.796 213.535 113.723 213.36 113.674L204.264 109.907C204.473 111.122 205.241 112.289 206.492 113.14C206.733 113.309 206.974 113.455 207.249 113.601C207.04 113.674 206.799 113.747 206.59 113.845C204.758 114.647 198.055 117.345 197.396 117.563C196.738 117.782 196.42 117.879 195.86 117.879C194.621 117.781 193.469 117.393 192.635 116.761C191.735 116.153 191.143 115.352 191 114.476C191.044 114.112 191.176 113.747 191.461 113.432C191.768 112.969 195.619 108.279 196.771 106.991C197.429 106.238 197.78 105.363 197.78 104.464C197.78 103.564 197.429 102.69 196.771 101.936C195.619 100.6 191.735 95.9089 191.461 95.4473C191.176 95.1317 191.044 94.7669 191 94.4021C191.143 93.5273 191.702 92.7255 192.602 92.1173C193.469 91.4852 194.621 91.0966 195.86 90.999C196.387 91.0236 196.903 91.1204 197.396 91.3147C197.945 91.4844 202.849 93.4774 205.449 94.5472L206.042 94.7899C206.25 94.8875 206.426 94.9604 206.557 95.0088L206.832 95.1301L216.103 98.9701C215.894 97.5117 214.819 96.1754 213.151 95.2761C213.36 95.2031 213.612 95.1301 213.821 95.0326C215.653 94.2308 222.356 91.5083 223.015 91.3139C223.464 91.1196 223.991 91.0221 224.54 90.9983C225.757 91.0966 226.909 91.486 227.776 92.1173ZM210.694 106.166L212.669 104.78C212.943 104.586 212.943 104.294 212.669 104.1L210.694 102.714C210.408 102.52 209.992 102.52 209.717 102.714L207.742 104.1C207.457 104.294 207.457 104.586 207.742 104.78L209.717 106.166C209.959 106.335 210.408 106.335 210.694 106.166Z" fill="#DDDFE0"/>
</g>
<path d="M80.8609 166.101V148.644L120.003 148.622L133.532 140.812C136.638 139.019 142.06 139.242 145.646 141.313L158.269 148.6L197.444 148.579V166.53C197.531 167.742 196.856 168.915 195.363 169.777L144.773 198.984C141.667 200.777 136.245 200.553 132.659 198.483L83.8083 170.278C81.7412 169.084 80.7419 167.537 80.8573 166.097L80.8609 166.101Z" fill="#0D222D" stroke="#F4F4F4" stroke-linejoin="round"/>
<path d="M144.777 181.098L195.366 151.891C198.472 150.098 198.083 146.966 194.497 144.895L145.646 116.695C142.06 114.624 136.638 114.4 133.532 116.193L82.9425 145.401C79.8364 147.193 80.226 150.325 83.8119 152.396L132.663 180.6C136.248 182.671 141.671 182.894 144.777 181.101V181.098Z" fill="#0D222D" stroke="#F4F4F4" stroke-linejoin="round"/>
<path d="M143.857 176.026L187.492 150.603C190.172 149.04 189.833 146.315 186.741 144.517L144.608 119.973C141.516 118.169 136.834 117.974 134.161 119.537L90.5253 144.96C87.8454 146.523 88.1846 149.248 91.2767 151.046L133.41 175.59C136.502 177.395 141.183 177.589 143.857 176.026Z" fill="#0D222D" stroke="#F4F4F4" stroke-linejoin="round"/>
<mask id="mask2_738_3849" style="mask-type:luminance" maskUnits="userSpaceOnUse" x="121" y="131" width="35" height="28">
<path d="M155.796 131.547H121.666V158.427H155.796V131.547Z" fill="white"/>
</mask>
<g mask="url(#mask2_738_3849)">
<path d="M155.647 139.505C155.647 139.057 155.509 138.662 155.241 138.322C154.964 137.988 154.557 137.709 154.012 137.487C149.513 135.67 145.004 133.857 140.496 132.038C139.287 131.547 138.107 131.565 136.898 132.063C135.115 132.803 126.136 136.402 123.461 137.487C122.361 137.933 121.826 138.616 121.826 139.504V150.471C121.826 150.909 121.955 151.296 122.212 151.631C122.49 151.974 122.906 152.262 123.461 152.488C126.136 153.572 135.115 157.171 136.898 157.911C138.107 158.409 139.287 158.427 140.496 157.936C145.004 156.117 149.513 154.305 154.012 152.487C154.567 152.261 154.984 151.973 155.261 151.629C155.519 151.295 155.647 150.907 155.647 150.469V139.505Z" fill="#DDDFE0"/>
<path d="M138.792 144.951L122.223 151.631C122.491 151.974 122.907 152.262 123.462 152.488C126.138 153.572 135.116 157.171 136.899 157.911C138.108 158.409 139.288 158.427 140.497 157.936C145.006 156.117 149.514 154.305 154.013 152.487C154.578 152.26 154.985 151.973 155.262 151.629L138.792 144.951Z" fill="#DDDFE0"/>
<path d="M155.645 139.504C155.645 139.057 155.506 138.662 155.229 138.322L138.789 144.951L155.249 151.629C155.516 151.295 155.645 150.907 155.645 150.469V139.504Z" fill="#DDDFE0"/>
<path d="M148.543 142.455V143.703H150.326V142.455H151.218V143.703H153.002V144.328H151.218V145.575H153.002V146.2H151.218V147.448H150.326V146.2H148.543V147.448H147.651V146.2H145.867V145.575H147.651V144.328H145.867V143.703H147.651V142.455H148.543ZM150.326 144.327H148.543V145.575H150.326V144.327Z" fill="#0D222D"/>
<path d="M138.822 136.185C143.48 136.185 147.543 137.953 149.713 140.582L149.693 140.557L144.223 142.763C143.143 141.485 141.161 140.622 138.892 140.604H138.822C135.364 140.604 132.559 142.566 132.559 144.987C132.559 145.749 132.847 146.499 133.392 147.162C134.472 148.48 136.494 149.37 138.822 149.37C141.171 149.37 143.212 148.469 144.283 147.136L144.253 147.168L149.723 149.384C147.573 151.991 143.559 153.754 138.961 153.788L138.822 153.789C134.155 153.789 130.082 152.01 127.912 149.367C126.861 148.077 126.247 146.582 126.247 144.987C126.247 140.126 131.876 136.184 138.822 136.185Z" fill="#0D222D"/>
</g>
<path d="M222.552 166.101V148.644L261.694 148.622L275.223 140.812C278.329 139.019 283.751 139.242 287.337 141.313L299.96 148.6L339.135 148.579V166.53C339.222 167.742 338.547 168.915 337.054 169.777L286.464 198.984C283.358 200.777 277.936 200.553 274.35 198.483L225.499 170.278C223.432 169.084 222.433 167.537 222.548 166.097L222.552 166.101Z" fill="#0D222D" stroke="#F4F4F4" stroke-linejoin="round"/>
<path d="M286.468 181.098L337.057 151.891C340.164 150.098 339.774 146.966 336.188 144.895L287.337 116.695C283.751 114.624 278.329 114.4 275.223 116.193L224.634 145.401C221.527 147.193 221.917 150.325 225.503 152.396L274.354 180.6C277.94 182.671 283.362 182.894 286.468 181.101V181.098Z" fill="#0D222D" stroke="#F4F4F4" stroke-linejoin="round"/>
<path d="M285.548 176.026L329.183 150.603C331.863 149.04 331.524 146.315 328.432 144.517L286.299 119.973C283.207 118.169 278.525 117.974 275.852 119.537L232.216 144.96C229.537 146.523 229.876 149.248 232.968 151.046L275.101 175.59C278.193 177.395 282.874 177.589 285.548 176.026Z" fill="#0D222D" stroke="#F4F4F4" stroke-linejoin="round"/>
<path d="M299.806 144.658L298.195 143.959C298.181 143.85 298.166 143.74 298.149 143.631L299.534 142.726C299.758 142.582 299.774 142.337 299.567 142.18C299.508 142.134 299.433 142.099 299.35 142.078L297.578 141.615C297.534 141.507 297.488 141.401 297.441 141.294L298.545 140.22C298.724 140.047 298.669 139.804 298.421 139.678C298.351 139.642 298.27 139.619 298.185 139.609L296.317 139.397C296.244 139.298 296.169 139.2 296.092 139.102L296.877 137.897C297.005 137.704 296.886 137.473 296.609 137.383C296.529 137.357 296.441 137.345 296.352 137.348L294.457 137.394C294.359 137.309 294.259 137.224 294.157 137.141L294.593 135.848C294.664 135.64 294.482 135.431 294.184 135.381C294.099 135.367 294.01 135.367 293.926 135.381L292.08 135.685C291.96 135.615 291.84 135.545 291.716 135.475L291.782 134.149C291.796 133.936 291.56 133.756 291.254 133.746C291.166 133.743 291.078 133.756 290.997 133.782L289.275 134.331C289.135 134.278 288.996 134.225 288.855 134.174L288.551 132.867C288.502 132.655 288.217 132.512 287.915 132.546C287.83 132.555 287.749 132.578 287.68 132.614L286.143 133.387C285.992 133.354 285.84 133.321 285.688 133.291L285.025 132.051C284.92 131.85 284.602 131.747 284.315 131.821C284.233 131.842 284.159 131.876 284.101 131.922L282.808 132.893C282.652 132.881 282.496 132.869 282.339 132.86L281.341 131.732C281.18 131.549 280.838 131.493 280.578 131.605C280.505 131.637 280.443 131.68 280.397 131.732L279.399 132.86C279.243 132.869 279.086 132.881 278.93 132.893L277.637 131.922C277.427 131.766 277.073 131.758 276.85 131.906C276.789 131.947 276.742 131.996 276.712 132.051L276.049 133.291C275.896 133.323 275.743 133.356 275.594 133.389L274.057 132.615C273.811 132.489 273.466 132.526 273.285 132.698C273.233 132.748 273.199 132.806 273.185 132.867L272.88 134.175C272.74 134.226 272.6 134.28 272.46 134.333L270.739 133.783C270.463 133.693 270.134 133.776 270.005 133.97C269.968 134.026 269.951 134.088 269.954 134.15L270.02 135.477C269.898 135.546 269.776 135.616 269.656 135.688L267.81 135.382C267.511 135.334 267.211 135.464 267.142 135.674C267.123 135.732 267.123 135.791 267.142 135.85L267.578 137.142C267.476 137.226 267.376 137.31 267.278 137.396L265.383 137.349C265.077 137.341 264.82 137.508 264.809 137.723C264.806 137.784 264.822 137.844 264.858 137.898L265.643 139.104C265.568 139.201 265.491 139.298 265.418 139.399L263.551 139.61C263.249 139.644 263.043 139.843 263.092 140.055C263.105 140.115 263.139 140.172 263.19 140.221L264.294 141.295C264.247 141.401 264.201 141.507 264.157 141.614L262.385 142.078C262.098 142.153 261.953 142.377 262.06 142.577C262.091 142.634 262.139 142.685 262.202 142.726L263.588 143.631C263.571 143.74 263.555 143.849 263.541 143.959L261.93 144.658C261.669 144.77 261.588 145.009 261.749 145.192C261.794 145.243 261.856 145.286 261.93 145.318L263.541 146.016C263.555 146.126 263.571 146.236 263.588 146.345L262.202 147.25C261.977 147.396 261.965 147.641 262.174 147.798C262.232 147.843 262.304 147.876 262.385 147.897L264.157 148.361C264.202 148.468 264.248 148.575 264.296 148.68L263.191 149.755C263.013 149.93 263.068 150.172 263.317 150.297C263.387 150.333 263.467 150.356 263.552 150.365L265.419 150.578C265.492 150.677 265.567 150.775 265.645 150.872L264.858 152.077C264.731 152.272 264.853 152.503 265.131 152.592C265.21 152.617 265.296 152.628 265.382 152.626L267.277 152.58C267.375 152.667 267.475 152.751 267.577 152.835L267.141 154.127C267.069 154.335 267.251 154.544 267.548 154.594C267.634 154.608 267.724 154.608 267.809 154.594L269.655 154.29C269.775 154.362 269.896 154.43 270.019 154.499L269.953 155.826C269.941 156.04 270.179 156.22 270.484 156.228C270.571 156.23 270.658 156.218 270.737 156.192L272.459 155.643C272.597 155.697 272.737 155.749 272.879 155.801L273.183 157.107C273.23 157.318 273.513 157.463 273.814 157.431C273.901 157.421 273.984 157.397 274.055 157.361L275.59 156.587C275.741 156.62 275.893 156.653 276.045 156.684L276.708 157.924C276.812 158.124 277.129 158.228 277.416 158.154C277.499 158.133 277.573 158.098 277.633 158.053L278.927 157.082C279.083 157.095 279.239 157.106 279.396 157.116L280.394 158.244C280.556 158.426 280.9 158.482 281.16 158.368C281.232 158.337 281.293 158.294 281.338 158.244L282.335 157.115C282.492 157.106 282.649 157.095 282.805 157.082L284.098 158.053C284.304 158.21 284.654 158.219 284.878 158.075C284.942 158.034 284.992 157.982 285.022 157.924L285.686 156.684C285.838 156.654 285.99 156.62 286.141 156.587L287.678 157.361C287.928 157.486 288.275 157.445 288.453 157.271C288.502 157.222 288.535 157.166 288.549 157.108L288.854 155.801C288.994 155.75 289.134 155.696 289.272 155.643L290.994 156.193C291.271 156.283 291.6 156.198 291.729 156.004C291.766 155.948 291.782 155.887 291.779 155.826L291.713 154.498C291.835 154.431 291.957 154.362 292.077 154.29L293.923 154.594C294.219 154.644 294.518 154.517 294.59 154.31C294.61 154.25 294.61 154.188 294.59 154.127L294.156 152.835C294.256 152.751 294.356 152.667 294.454 152.58L296.351 152.626C296.655 152.635 296.913 152.469 296.925 152.256C296.929 152.195 296.912 152.133 296.874 152.077L296.089 150.871C296.166 150.775 296.241 150.677 296.314 150.577L298.181 150.365C298.482 150.332 298.688 150.134 298.642 149.923C298.629 149.863 298.595 149.805 298.543 149.755L297.439 148.679C297.486 148.573 297.532 148.467 297.576 148.36L299.348 147.897C299.635 147.824 299.781 147.602 299.677 147.401C299.646 147.343 299.597 147.291 299.531 147.249L298.145 146.344C298.161 146.234 298.177 146.124 298.192 146.015L299.803 145.317C300.064 145.204 300.145 144.965 299.984 144.783C299.941 144.732 299.879 144.689 299.806 144.658ZM289.016 154.019C288.404 153.914 288.027 153.482 288.176 153.052C288.32 152.64 288.899 152.378 289.495 152.455C290.109 152.557 290.488 152.989 290.341 153.419C290.2 153.834 289.615 154.099 289.015 154.018L289.016 154.019ZM288.467 151.426C287.906 151.342 287.354 151.592 287.234 151.985L286.661 153.855C284.842 154.433 282.865 154.73 280.867 154.728C278.755 154.728 276.752 154.401 274.953 153.815L274.38 151.946C274.261 151.553 273.709 151.302 273.148 151.386L270.789 151.74C270.351 151.424 269.943 151.088 269.569 150.735H281.043C281.173 150.735 281.259 150.718 281.259 150.636V147.795C281.259 147.712 281.172 147.696 281.043 147.696H277.688V145.894H281.317C281.649 145.894 283.089 145.96 283.549 147.249C283.694 147.644 284.01 148.934 284.226 149.346C284.442 149.809 285.321 150.734 286.257 150.734H291.973C292.043 150.733 292.113 150.729 292.181 150.72C291.785 151.097 291.35 151.454 290.882 151.786L288.469 151.425L288.467 151.426ZM272.599 153.979C271.979 154.06 271.383 153.774 271.267 153.339C271.156 152.921 271.53 152.516 272.12 152.416C272.737 152.324 273.345 152.599 273.477 153.031C273.608 153.463 273.215 153.888 272.599 153.98L272.599 153.979ZM268.246 141.625C268.502 142.028 268.243 142.5 267.667 142.679C267.091 142.857 266.417 142.676 266.162 142.273C265.906 141.87 266.166 141.398 266.741 141.219C267.317 141.04 267.991 141.222 268.246 141.625ZM266.908 143.845L269.364 143.081C269.889 142.917 270.125 142.487 269.892 142.119L269.387 141.319H271.377V147.597H267.363C266.867 146.379 266.712 145.106 266.907 143.846L266.908 143.845ZM277.688 143.235V141.384H282.425C282.67 141.384 284.153 141.583 284.153 142.359C284.153 143.003 283.016 143.235 282.079 143.235H277.688ZM294.908 144.901C294.908 145.147 294.894 145.39 294.868 145.631H293.428C293.284 145.631 293.226 145.698 293.226 145.796V146.259C293.226 147.35 292.348 147.587 291.578 147.647C290.847 147.704 290.033 147.432 289.933 147.117C289.501 145.416 288.781 145.052 287.644 144.424C289.055 143.797 290.524 142.872 290.524 141.632C290.524 140.294 289.214 139.452 288.321 139.038C287.068 138.46 285.681 138.344 285.306 138.344H270.408C272.467 136.733 275.228 135.642 278.263 135.241L280.019 136.53C280.416 136.821 281.075 136.833 281.489 136.554L283.455 135.238C287.507 135.771 291.022 137.523 293.066 140.03L291.721 142.157C291.489 142.525 291.725 142.955 292.249 143.119L294.84 143.923C294.885 144.245 294.907 144.57 294.907 144.901L294.908 144.901ZM280.021 134.144C280.475 133.84 281.197 133.851 281.632 134.17L281.633 134.17C282.068 134.49 282.052 134.996 281.595 135.301C281.141 135.605 280.42 135.593 279.986 135.275C279.985 135.275 279.985 135.275 279.984 135.274C279.549 134.955 279.565 134.45 280.021 134.144ZM293.368 141.664C293.624 141.261 294.298 141.079 294.874 141.258C295.449 141.437 295.709 141.909 295.453 142.312C295.198 142.715 294.524 142.896 293.948 142.717C293.372 142.539 293.113 142.067 293.368 141.664Z" fill="#DDDFE0"/>
<path d="M152.015 204.118V186.661L191.158 186.64L204.686 178.829C207.792 177.036 213.215 177.26 216.801 179.331L229.424 186.618L268.599 186.596V204.548C268.685 205.76 268.011 206.932 266.517 207.795L215.928 237.002C212.821 238.795 207.399 238.571 203.813 236.5L154.963 208.296C152.896 207.102 151.896 205.554 152.012 204.115L152.015 204.118Z" fill="#FB773E" stroke="#0D222D" stroke-width="0.874637" stroke-linejoin="round"/>
<path d="M215.931 219.115L266.521 189.908C269.627 188.115 269.237 184.984 265.651 182.913L216.801 154.712C213.215 152.642 207.793 152.418 204.686 154.211L154.097 183.418C150.991 185.211 151.38 188.342 154.966 190.413L203.817 218.617C207.403 220.688 212.825 220.912 215.931 219.119V219.115Z" fill="#FB773E" stroke="#0D222D" stroke-width="0.874637" stroke-linejoin="round"/>
<path d="M215.011 214.043L258.647 188.62C261.327 187.057 260.988 184.333 257.895 182.535L215.762 157.991C212.67 156.186 207.989 155.991 205.316 157.555L161.68 182.977C159 184.541 159.339 187.265 162.431 189.063L204.564 213.607C207.656 215.412 212.338 215.606 215.011 214.043Z" fill="#0D222D" stroke="#0D222D" stroke-width="0.874637" stroke-linejoin="round"/>
<path d="M194.382 191.235C200.464 190.315 206.23 188.379 211.068 185.632C214.878 183.47 218.113 180.81 220.558 177.831M194.382 191.235C193.5 190.168 193.002 188.945 192.949 187.712C192.912 186.862 193.082 186.012 193.347 185.182C193.58 184.448 193.888 183.726 194.267 183.023M194.382 191.235C194.3 192.302 194.629 193.383 195.325 194.333C196.448 195.866 198.446 196.991 200.534 197.899M220.558 177.831C220.685 177.708 220.858 177.609 221.055 177.547C221.252 177.485 221.472 177.46 221.686 177.475C221.899 177.49 222.105 177.544 222.288 177.622C222.47 177.701 222.631 177.803 222.771 177.917C223.05 178.144 223.248 178.414 223.457 178.676C224.027 179.39 224.701 180.059 225.293 180.764C225.884 181.468 226.397 182.219 226.606 183.023M220.558 177.831C219.956 176.53 219.175 175.271 218.232 174.075C217.995 173.775 217.746 173.477 217.427 173.218C217.107 172.958 216.71 172.738 216.247 172.627C215.909 172.546 215.541 172.527 215.189 172.571C214.837 172.615 214.501 172.722 214.223 172.88M200.534 197.899C205.482 195.602 210.639 193.527 215.965 191.692C218.597 190.785 221.318 189.914 223.467 188.514C224.541 187.814 225.459 186.983 226.044 186.04C226.628 185.096 226.868 184.035 226.606 183.023M200.534 197.899C201.772 198.438 203.066 198.918 204.43 199.278C208.261 200.287 212.612 200.287 216.443 199.278C217.807 198.918 219.101 198.438 220.339 197.899M226.606 183.023C226.985 183.726 227.292 184.448 227.526 185.182C227.791 186.012 227.962 186.862 227.924 187.712C227.87 188.946 227.371 190.168 226.486 191.235M226.606 183.023C222.835 182.719 219.166 181.805 215.965 180.372C211.928 178.566 208.653 175.932 206.65 172.88M214.223 172.88C213.628 172.623 212.98 172.428 212.306 172.301C211.088 172.072 209.785 172.072 208.567 172.301C207.893 172.428 207.245 172.623 206.65 172.88M214.223 172.88C212.22 175.932 208.945 178.566 204.908 180.372C201.707 181.805 198.038 182.719 194.267 183.023M206.65 172.88C206.372 172.722 206.036 172.615 205.684 172.571C205.332 172.527 204.964 172.546 204.626 172.627C204.163 172.738 203.766 172.959 203.447 173.218C203.127 173.477 202.878 173.775 202.641 174.075C201.697 175.271 200.915 176.531 200.309 177.831M200.309 177.831C200.183 177.708 200.011 177.61 199.815 177.548C199.619 177.486 199.4 177.46 199.186 177.475C198.973 177.49 198.767 177.543 198.583 177.621C198.4 177.7 198.239 177.802 198.099 177.916C197.818 178.143 197.62 178.414 197.41 178.676C196.84 179.389 196.167 180.059 195.576 180.764C194.986 181.468 194.474 182.219 194.267 183.023M200.309 177.831C202.757 180.81 205.994 183.47 209.805 185.632C214.642 188.377 220.405 190.313 226.486 191.235M194.267 183.023C194.006 184.035 194.247 185.096 194.832 186.039C195.416 186.982 196.334 187.813 197.409 188.513C199.557 189.913 202.277 190.785 204.908 191.692C210.233 193.528 215.39 195.603 220.339 197.899M220.339 197.899C222.427 196.991 224.426 195.867 225.548 194.333C226.243 193.383 226.57 192.302 226.486 191.235" stroke="#FB773E" stroke-width="0.78407"/>
<path d="M10.0153 208.118V190.661L49.1578 190.64L62.6864 182.829C65.7925 181.036 71.2147 181.26 74.8007 183.331L87.4237 190.618L126.599 190.596V208.548C126.685 209.76 126.011 210.932 124.517 211.795L73.9276 241.002C70.8215 242.795 65.3993 242.571 61.8133 240.5L12.9627 212.296C10.8956 211.102 9.89628 209.554 10.0117 208.115L10.0153 208.118Z" fill="#0D222D" stroke="#F4F4F4" stroke-linejoin="round"/>
<path d="M73.9313 223.115L124.521 193.908C127.627 192.115 127.237 188.984 123.651 186.913L74.8008 158.712C71.2148 156.642 65.7926 156.418 62.6864 158.211L12.097 187.418C8.99086 189.211 9.38047 192.342 12.9664 194.413L61.817 222.617C65.403 224.688 70.8252 224.912 73.9313 223.119V223.115Z" fill="#0D222D" stroke="#F4F4F4" stroke-linejoin="round"/>
<path d="M73.011 218.043L116.647 192.62C119.327 191.057 118.988 188.333 115.895 186.535L73.7624 161.991C70.6703 160.186 65.9888 159.991 63.3156 161.555L19.6798 186.977C16.9999 188.541 17.3391 191.265 20.4312 193.063L62.5642 217.607C65.6563 219.412 70.3378 219.606 73.011 218.043Z" fill="#0D222D" stroke="#F4F4F4" stroke-linejoin="round"/>
<path d="M68.7063 200.462C68.1783 200.462 67.6887 200.363 67.2279 200.191L62.5335 198.24C61.8327 197.968 62.1879 197.869 62.3991 197.82C63.3495 197.597 63.5223 197.548 64.5111 197.153C64.6167 197.103 64.7607 197.128 64.8663 197.177L68.4663 198.684C68.6007 198.733 68.7831 198.733 68.8887 198.684L82.9622 192.979C83.1062 192.93 83.1734 192.832 83.1734 192.708V181.324C83.1734 181.201 83.1062 181.102 82.9622 181.052L68.8887 175.372C68.7447 175.323 68.5719 175.323 68.4663 175.372L54.3832 181.052C54.2488 181.102 54.172 181.225 54.172 181.324V192.708C54.172 192.807 54.2488 192.93 54.3832 192.979L58.2327 194.535C60.3159 195.276 61.6215 194.412 61.6215 193.547V182.311C61.6215 182.164 61.7943 182.015 62.0439 182.015H63.8391C64.0503 182.015 64.2615 182.139 64.2615 182.311V193.547C64.2615 195.499 62.7447 196.634 60.1047 196.634C59.2887 196.634 58.6551 196.634 56.86 196.017L53.1544 194.535C52.2328 194.165 51.6664 193.473 51.6664 192.733V181.348C51.6664 180.608 52.2328 179.916 53.1544 179.545L67.2279 173.842C68.1111 173.496 69.3111 173.496 70.1943 173.842L84.2678 179.545C85.1798 179.916 85.7462 180.608 85.7462 181.348V192.733C85.7462 193.473 85.1798 194.165 84.2678 194.535L70.1943 200.24C69.7325 200.388 69.2045 200.462 68.7063 200.462ZM73.0454 192.634C66.8727 192.634 65.6055 190.658 65.6055 188.979C65.6055 188.831 65.7783 188.683 66.0279 188.683H67.8615C68.0727 188.683 68.2551 188.781 68.2551 188.93C68.5335 190.238 69.3495 190.881 73.0838 190.881C76.0502 190.881 77.3174 190.411 77.3174 189.3C77.3174 188.658 76.9622 188.189 72.3447 187.867C68.4951 187.596 66.0951 187.003 66.0951 184.855C66.0951 182.855 68.4951 181.67 72.5174 181.67C77.039 181.67 79.2566 182.756 79.5446 185.126C79.5446 185.201 79.5062 185.275 79.4294 185.349C79.3622 185.399 79.2566 185.448 79.151 185.448H77.3174C77.1446 185.448 76.9622 185.349 76.9334 185.225C76.5014 183.867 75.4166 183.423 72.5174 183.423C69.2727 183.423 68.8887 184.213 68.8887 184.806C68.8887 185.522 69.3495 185.744 73.7174 186.139C78.0566 186.534 80.1014 187.102 80.1014 189.226C80.0716 191.399 77.5277 192.634 73.0454 192.634Z" fill="#DDDFE0"/>
<path d="M152.015 208.117L152.015 172.661L191.158 172.64L204.686 164.829C207.792 163.036 213.215 163.26 216.801 165.331L229.424 172.618L268.599 172.596V208.546C268.685 209.758 268.011 210.931 266.517 211.793L215.928 241C212.821 242.793 207.399 242.569 203.813 240.499L154.963 212.294C152.896 211.1 151.896 209.553 152.012 208.113L152.015 208.117Z" fill="#FB773E" stroke="#0D222D" stroke-width="0.874637" stroke-linejoin="round"/>
<path d="M215.931 205.115L266.521 175.908C269.627 174.115 269.237 170.984 265.651 168.913L216.801 140.712C213.215 138.642 207.793 138.418 204.686 140.211L154.097 169.418C150.991 171.211 151.38 174.342 154.966 176.413L203.817 204.617C207.403 206.688 212.825 206.912 215.931 205.119V205.115Z" fill="#FB773E" stroke="#0D222D" stroke-width="0.874637" stroke-linejoin="round"/>
<path d="M215.011 200.043L258.647 174.62C261.327 173.057 260.988 170.333 257.895 168.535L215.762 143.991C212.67 142.186 207.989 141.991 205.316 143.555L161.68 168.977C159 170.541 159.339 173.265 162.431 175.063L204.564 199.607C207.656 201.412 212.338 201.606 215.011 200.043Z" fill="#0D222D" stroke="#0D222D" stroke-width="0.874637" stroke-linejoin="round"/>
<path d="M194.382 177.235C200.464 176.315 206.23 174.379 211.068 171.632C214.878 169.47 218.113 166.81 220.558 163.831M194.382 177.235C193.5 176.168 193.002 174.945 192.949 173.712C192.912 172.862 193.082 172.012 193.347 171.182C193.58 170.448 193.888 169.726 194.267 169.023M194.382 177.235C194.3 178.302 194.629 179.383 195.325 180.333C196.448 181.866 198.446 182.991 200.534 183.899M220.558 163.831C220.685 163.708 220.858 163.609 221.055 163.547C221.252 163.485 221.472 163.46 221.686 163.475C221.899 163.49 222.105 163.544 222.288 163.622C222.47 163.701 222.631 163.803 222.771 163.917C223.05 164.144 223.248 164.414 223.457 164.676C224.027 165.39 224.701 166.059 225.293 166.764C225.884 167.468 226.397 168.219 226.606 169.023M220.558 163.831C219.956 162.53 219.175 161.271 218.232 160.075C217.995 159.775 217.746 159.477 217.427 159.218C217.107 158.958 216.71 158.738 216.247 158.627C215.909 158.546 215.541 158.527 215.189 158.571C214.837 158.615 214.501 158.722 214.223 158.88M200.534 183.899C205.482 181.602 210.639 179.527 215.965 177.692C218.597 176.785 221.318 175.914 223.467 174.514C224.541 173.814 225.459 172.983 226.044 172.04C226.628 171.096 226.868 170.035 226.606 169.023M200.534 183.899C201.772 184.438 203.066 184.918 204.43 185.278C208.261 186.287 212.612 186.287 216.443 185.278C217.807 184.918 219.101 184.438 220.339 183.899M226.606 169.023C226.985 169.726 227.292 170.448 227.526 171.182C227.791 172.012 227.962 172.862 227.924 173.712C227.87 174.946 227.371 176.168 226.486 177.235M226.606 169.023C222.835 168.719 219.166 167.805 215.965 166.372C211.928 164.566 208.653 161.932 206.65 158.88M214.223 158.88C213.628 158.623 212.98 158.428 212.306 158.301C211.088 158.072 209.785 158.072 208.567 158.301C207.893 158.428 207.245 158.623 206.65 158.88M214.223 158.88C212.22 161.932 208.945 164.566 204.908 166.372C201.707 167.805 198.038 168.719 194.267 169.023M206.65 158.88C206.372 158.722 206.036 158.615 205.684 158.571C205.332 158.527 204.964 158.546 204.626 158.627C204.163 158.738 203.766 158.959 203.447 159.218C203.127 159.477 202.878 159.775 202.641 160.075C201.697 161.271 200.915 162.531 200.309 163.831M200.309 163.831C200.183 163.708 200.011 163.61 199.815 163.548C199.619 163.486 199.4 163.46 199.186 163.475C198.973 163.49 198.767 163.543 198.583 163.621C198.4 163.7 198.239 163.802 198.099 163.916C197.818 164.143 197.62 164.414 197.41 164.676C196.84 165.389 196.167 166.059 195.576 166.764C194.986 167.468 194.474 168.219 194.267 169.023M200.309 163.831C202.757 166.81 205.994 169.47 209.805 171.632C214.642 174.377 220.405 176.313 226.486 177.235M194.267 169.023C194.006 170.035 194.247 171.096 194.832 172.039C195.416 172.982 196.334 173.813 197.409 174.513C199.557 175.913 202.277 176.785 204.908 177.692C210.233 179.528 215.39 181.603 220.339 183.899M220.339 183.899C222.427 182.991 224.426 181.867 225.548 180.333C226.243 179.383 226.57 178.302 226.486 177.235" stroke="#FB773E" stroke-width="0.78407"/>
<path d="M293.015 208.118V190.661L332.158 190.64L345.686 182.829C348.792 181.036 354.215 181.26 357.801 183.331L370.424 190.618L409.599 190.596V208.548C409.685 209.76 409.011 210.932 407.517 211.795L356.928 241.002C353.821 242.795 348.399 242.571 344.813 240.5L295.963 212.296C293.896 211.102 292.896 209.554 293.012 208.115L293.015 208.118Z" fill="#0D222D" stroke="#F4F4F4" stroke-linejoin="round"/>
<path d="M356.931 223.115L407.521 193.908C410.627 192.115 410.237 188.984 406.651 186.913L357.801 158.712C354.215 156.642 348.793 156.418 345.686 158.211L295.097 187.418C291.991 189.211 292.38 192.342 295.966 194.413L344.817 222.617C348.403 224.688 353.825 224.912 356.931 223.119V223.115Z" fill="#0D222D" stroke="#F4F4F4" stroke-linejoin="round"/>
<path d="M356.011 218.043L399.647 192.62C402.327 191.057 401.988 188.333 398.895 186.535L356.762 161.991C353.67 160.186 348.989 159.991 346.316 161.555L302.68 186.977C300 188.541 300.339 191.265 303.431 193.063L345.564 217.607C348.656 219.412 353.338 219.606 356.011 218.043Z" fill="#0D222D" stroke="#F4F4F4" stroke-linejoin="round"/>
<path d="M293.015 208.117L293.015 172.661L332.158 172.64L345.686 164.829C348.792 163.036 354.215 163.26 357.801 165.331L370.424 172.618L409.599 172.596V208.546C409.685 209.758 409.011 210.931 407.517 211.793L356.928 241C353.821 242.793 348.399 242.569 344.813 240.499L295.963 212.294C293.896 211.1 292.896 209.553 293.012 208.113L293.015 208.117Z" fill="#0D222D" stroke="#F4F4F4" stroke-linejoin="round"/>
<path d="M356.931 205.115L407.521 175.908C410.627 174.115 410.237 170.984 406.651 168.913L357.801 140.712C354.215 138.642 348.793 138.418 345.686 140.211L295.097 169.418C291.991 171.211 292.38 174.342 295.966 176.413L344.817 204.617C348.403 206.688 353.825 206.912 356.931 205.119V205.115Z" fill="#0D222D" stroke="#F4F4F4" stroke-linejoin="round"/>
<path d="M356.011 200.043L399.647 174.62C402.327 173.057 401.988 170.333 398.895 168.535L356.762 143.991C353.67 142.186 348.989 141.991 346.316 143.555L302.68 168.977C300 170.541 300.339 173.265 303.431 175.063L345.564 199.607C348.656 201.412 353.338 201.606 356.011 200.043Z" fill="#0D222D" stroke="#F4F4F4" stroke-linejoin="round"/>
<path d="M367.948 173.167C363.23 173.848 362.906 172.73 362.906 172.73C367.887 167.557 369.969 160.989 368.173 159.382C363.27 154.998 354.784 157.071 354.643 157.125L354.597 157.131C353.665 156.995 352.622 156.915 351.45 156.901C349.315 156.877 347.696 157.293 346.467 157.945C346.467 157.945 331.329 153.58 332.033 163.435C332.183 165.532 336.326 179.3 341.268 175.142C343.075 173.621 344.82 172.335 344.82 172.335C345.687 172.738 346.724 172.944 347.812 172.87L347.897 172.82C347.871 173.009 347.883 173.193 347.931 173.412C346.658 174.408 347.032 174.583 344.487 174.949C341.911 175.321 343.424 175.982 344.412 176.155C345.609 176.365 348.38 176.662 350.252 174.827L350.177 175.037C350.676 175.316 351.026 176.856 350.967 178.251C350.909 179.647 350.87 180.605 351.263 181.354C351.656 182.102 352.047 183.786 355.393 183.284C358.189 182.865 359.638 181.778 359.839 179.965C359.982 178.676 360.306 178.867 360.326 177.715L360.586 177.169C360.885 175.422 360.633 174.859 362.356 175.121L362.774 175.147C364.042 175.187 365.701 175.004 366.675 174.687C368.772 174.006 370.015 172.868 367.948 173.167H367.948Z" fill="#DDDFE0"/>
<path d="M350.454 174.168C350.324 177.419 350.486 180.693 350.941 181.488C351.395 182.284 352.368 183.831 355.714 183.329C358.51 182.91 359.527 182.098 359.968 180.306C360.293 178.988 360.92 175.326 361 174.576" stroke="#0D222D" stroke-width="1.16905" stroke-linecap="round" stroke-linejoin="round"/>
<path d="M346.444 157.872C346.444 157.872 331.295 153.538 331.999 163.394C332.149 165.491 336.293 179.259 341.235 175.101C343.041 173.58 344.674 172.387 344.674 172.387" stroke="#0D222D" stroke-width="1.16905" stroke-linecap="round" stroke-linejoin="round"/>
<path d="M354.625 157.081C354.101 157.196 363.051 154.791 368.138 159.341C369.935 160.948 367.853 167.515 362.872 172.689" stroke="#0D222D" stroke-width="1.16905" stroke-linecap="round" stroke-linejoin="round"/>
<path d="M362.872 172.69C362.872 172.69 363.197 173.808 367.914 173.126C369.981 172.827 368.737 173.965 366.641 174.646C364.92 175.205 361.063 175.349 361 174.576C360.838 172.583 363.03 173.189 362.872 172.69ZM362.872 172.69C362.729 172.24 361.749 171.798 361.1 170.698C360.534 169.737 353.335 162.37 363.097 163.464C363.454 163.412 360.551 156.965 351.415 156.86C342.282 156.755 342.581 164.722 342.581 164.722" stroke="#0D222D" stroke-width="1.16905" stroke-linecap="round" stroke-linejoin="bevel"/>
<path d="M347.897 173.371C346.623 174.367 346.998 174.542 344.452 174.908C341.877 175.28 343.39 175.941 344.378 176.114C345.575 176.324 348.345 176.621 350.217 174.786C350.787 174.227 350.214 173.336 349.431 173.109C349.053 172.999 348.547 172.862 347.897 173.371Z" stroke="#0D222D" stroke-width="1.16905" stroke-linecap="round" stroke-linejoin="round"/>
<path d="M347.813 173.354C347.685 172.768 348.088 172.072 348.52 171.257C349.169 170.034 350.667 168.811 349.469 164.932C348.576 162.042 342.585 164.331 342.582 164.722C342.578 165.114 342.853 166.709 342.482 168.566C341.998 170.99 344.685 173.039 347.779 172.829" stroke="#0D222D" stroke-width="1.16905" stroke-linecap="round" stroke-linejoin="round"/>
<path d="M346.388 164.664C346.361 164.798 346.738 165.155 347.23 165.203C347.721 165.25 348.141 164.971 348.168 164.838C348.194 164.704 347.818 164.556 347.326 164.508C346.835 164.46 346.414 164.53 346.388 164.664H346.388Z" fill="#0D222D" stroke="#0D222D" stroke-width="0.389681"/>
<path d="M361.34 164.391C361.367 164.525 360.99 164.882 360.498 164.93C360.007 164.977 359.587 164.698 359.56 164.565C359.534 164.431 359.911 164.283 360.402 164.235C360.893 164.187 361.313 164.257 361.34 164.391V164.391Z" fill="#0D222D" stroke="#0D222D" stroke-width="0.194841"/>
<path d="M363.097 163.464C363.178 164.514 362.774 165.229 362.723 166.347C362.648 167.972 363.83 169.831 362.049 171.693" stroke="#0D222D" stroke-width="1.16905" stroke-linecap="round" stroke-linejoin="round"/>
<path d="M222.552 250.066V232.609L261.694 232.587L275.223 224.777C278.329 222.984 283.751 223.208 287.337 225.278L299.96 232.566L339.135 232.544V250.495C339.222 251.708 338.547 252.88 337.054 253.742L286.464 282.949C283.358 284.742 277.936 284.519 274.35 282.448L225.499 254.244C223.432 253.05 222.433 251.502 222.548 250.063L222.552 250.066Z" fill="#0D222D" stroke="#F4F4F4" stroke-linejoin="round"/>
<path d="M286.468 265.063L337.057 235.856C340.164 234.063 339.774 230.932 336.188 228.861L287.337 200.66C283.751 198.589 278.329 198.366 275.223 200.159L224.634 229.366C221.527 231.159 221.917 234.29 225.503 236.361L274.354 264.565C277.94 266.636 283.362 266.86 286.468 265.067V265.063Z" fill="#0D222D" stroke="#F4F4F4" stroke-linejoin="round"/>
<path d="M285.548 259.991L329.183 234.568C331.863 233.005 331.524 230.281 328.432 228.482L286.299 203.939C283.207 202.134 278.525 201.939 275.852 203.502L232.216 228.925C229.537 230.489 229.876 233.213 232.968 235.011L275.101 259.555C278.193 261.36 282.874 261.554 285.548 259.991Z" fill="#0D222D" stroke="#F4F4F4" stroke-linejoin="round"/>
<mask id="mask3_738_3849" style="mask-type:luminance" maskUnits="userSpaceOnUse" x="261" y="215" width="40" height="28">
<path d="M300.58 215.547H261.666V242.427H300.58V215.547Z" fill="white"/>
</mask>
<g mask="url(#mask3_738_3849)">
<path d="M280.064 233.707H282.192V229.641H287.546V228.196H282.192V224.13H280.064V228.196H274.772V229.641H280.064V233.707Z" fill="#DDDFE0"/>
<path d="M270.182 239.58H271.998V235.967H276.771V234.837H271.998V231.178H270.182V234.837H265.409V235.967H270.182V239.58Z" fill="#DDDFE0"/>
<path d="M290.252 226.525H292.068V222.911H296.903V221.827H292.068V218.168H290.252V221.827H285.478V222.911H290.252V226.525Z" fill="#DDDFE0"/>
<path d="M280.384 242.425H281.931V239.85H285.22V238.902H281.931V236.327H280.384V238.902H277.157V239.85H280.384V242.425Z" fill="#DDDFE0"/>
<path d="M270.255 226.525H271.925V222.866H276.771V221.827H271.925V218.168H270.255V221.827H265.409V222.866H270.255V226.525Z" fill="#DDDFE0"/>
<path d="M295.743 231.946H297.289V229.416H300.578V228.422H297.289V225.892H295.743V228.422H292.515V229.416H295.743V231.946Z" fill="#DDDFE0"/>
<path fill-rule="evenodd" clip-rule="evenodd" d="M290.252 239.58H292.068V235.967H296.903V234.837H292.068V231.178H290.252V234.837H285.478V235.967H290.252V239.58Z" fill="#DDDFE0"/>
<path d="M284.961 218.8V218.033H281.744V215.548H280.582V218.033H277.354V218.8H280.582V221.285H281.744V218.8H284.961ZM264.892 231.765H266.054V229.281H269.281V228.513H266.054V226.074H264.892V228.513H261.664V229.326L264.892 229.281V231.765Z" fill="#DDDFE0"/>
</g>
<path d="M80.8609 250.066V232.609L120.003 232.587L133.532 224.777C136.638 222.984 142.06 223.208 145.646 225.278L158.269 232.566L197.444 232.544V250.495C197.531 251.708 196.856 252.88 195.363 253.742L144.773 282.949C141.667 284.742 136.245 284.519 132.659 282.448L83.8083 254.244C81.7412 253.05 80.7419 251.502 80.8573 250.063L80.8609 250.066Z" fill="#0D222D" stroke="#F4F4F4" stroke-linejoin="round"/>
<path d="M144.777 265.063L195.366 235.856C198.472 234.063 198.083 230.932 194.497 228.861L145.646 200.66C142.06 198.589 136.638 198.366 133.532 200.159L82.9425 229.366C79.8364 231.159 80.226 234.29 83.8119 236.361L132.663 264.565C136.248 266.636 141.671 266.86 144.777 265.067V265.063Z" fill="#0D222D" stroke="#F4F4F4" stroke-linejoin="round"/>
<path d="M143.857 259.991L187.492 234.568C190.172 233.005 189.833 230.281 186.741 228.482L144.608 203.939C141.516 202.134 136.834 201.939 134.161 203.502L90.5253 228.925C87.8454 230.489 88.1846 233.213 91.2767 235.011L133.41 259.555C136.502 261.36 141.183 261.554 143.857 259.991Z" fill="#0D222D" stroke="#F4F4F4" stroke-linejoin="round"/>
<mask id="mask4_738_3849" style="mask-type:luminance" maskUnits="userSpaceOnUse" x="119" y="215" width="40" height="28">
<path d="M158.066 215.547H119.666V242.427H158.066V215.547Z" fill="white"/>
</mask>
<g mask="url(#mask4_738_3849)">
<path d="M129.61 219.256C129.61 217.447 130.316 216.463 134.228 215.994C136.89 215.675 140.29 215.635 143.475 215.994C145.984 216.278 148.093 217.557 148.093 219.256V225.225C148.093 226.975 146.045 228.409 143.475 228.409H134.228C131.095 228.409 128.453 230.239 128.453 232.308V235.172H125.268C122.585 235.172 121.018 233.846 120.363 231.989C119.472 229.496 119.513 228.01 120.363 225.623C121.1 223.54 123.456 222.44 126.138 222.44H138.856V221.644H129.61V219.256Z" fill="#DDDFE0"/>
<path d="M148.092 238.357C148.092 240.165 145.798 241.082 143.474 241.539C139.971 242.227 137.155 242.122 134.227 241.539C131.779 241.051 129.609 240.056 129.609 238.357V232.388C129.609 230.671 131.698 229.204 134.227 229.204H143.474C146.546 229.204 149.249 227.383 149.249 225.225V222.441H152.71C155.403 222.441 156.673 223.809 157.338 225.623C158.26 228.142 158.301 230.026 157.338 231.99C156.407 233.898 155.403 235.172 152.71 235.172H138.855V235.969H148.092V238.357Z" fill="#DDDFE0"/>
<path d="M131.924 218.86C131.924 218.199 132.692 217.665 133.655 217.665C134.607 217.665 135.385 218.199 135.385 218.86C135.385 219.519 134.607 220.053 133.655 220.053C132.692 220.053 131.924 219.518 131.924 218.86ZM142.318 238.752C142.318 238.094 143.096 237.559 144.048 237.559C145.011 237.559 145.779 238.094 145.779 238.752C145.779 239.413 145.011 239.948 144.048 239.948C143.095 239.948 142.318 239.413 142.318 238.752Z" fill="#0D222D"/>
</g>
<path d="M151.706 292.049V274.592L190.849 274.57L204.377 266.76C207.484 264.967 212.906 265.19 216.492 267.261L229.115 274.549L268.29 274.527V292.478C268.376 293.691 267.702 294.863 266.208 295.725L215.619 324.932C212.513 326.725 207.09 326.502 203.504 324.431L154.654 296.227C152.587 295.033 151.587 293.485 151.703 292.045L151.706 292.049Z" fill="#0D222D" stroke="#F4F4F4" stroke-linejoin="round"/>
<path d="M215.622 307.046L266.212 277.838C269.318 276.045 268.928 272.914 265.342 270.843L216.492 242.643C212.906 240.572 207.484 240.348 204.378 242.141L153.788 271.348C150.682 273.141 151.072 276.273 154.658 278.343L203.508 306.548C207.094 308.618 212.516 308.842 215.622 307.049V307.046Z" fill="#0D222D" stroke="#F4F4F4" stroke-linejoin="round"/>
<path d="M214.702 301.973L258.338 276.55C261.018 274.987 260.679 272.263 257.587 270.465L215.454 245.921C212.361 244.116 207.68 243.921 205.007 245.485L161.371 270.908C158.691 272.471 159.03 275.195 162.122 276.993L204.255 301.537C207.347 303.342 212.029 303.537 214.702 301.973Z" fill="#0D222D" stroke="#F4F4F4" stroke-linejoin="round"/>
<mask id="mask5_738_3849" style="mask-type:luminance" maskUnits="userSpaceOnUse" x="191" y="257" width="39" height="28">
<path d="M229.866 257.547H191.466V284.427H229.866V257.547Z" fill="white"/>
</mask>
<g mask="url(#mask5_738_3849)">
<path d="M210.479 262.527C208.707 263.401 206.69 264.391 205.615 266.029C203.741 268.887 209.444 272.004 209.69 272.136C209.741 272.166 209.813 272.181 209.885 272.181C209.956 272.181 210.028 272.164 210.079 272.13C210.192 272.064 210.223 271.951 210.161 271.859C210.141 271.831 208.093 269.05 208.164 267.053C208.195 266.358 209.588 265.57 211.052 264.734C212.404 263.97 213.929 263.102 214.831 262.089C216.786 259.857 214.605 257.662 214.585 257.64C214.503 257.554 214.339 257.523 214.206 257.566C214.063 257.608 213.991 257.711 214.022 257.813C214.022 257.828 214.452 259.28 213.274 260.775C212.782 261.393 211.717 261.919 210.479 262.527Z" fill="#DDDFE0"/>
<path d="M217.954 263.512C218.076 263.446 218.117 263.326 218.035 263.23C217.964 263.133 217.8 263.091 217.657 263.13C217.349 263.211 210.274 265.121 210.274 267.429C210.274 269.02 211.246 269.86 211.953 270.475C212.229 270.715 212.465 270.923 212.547 271.101C212.772 271.612 212.24 272.537 212.025 272.849C211.953 272.94 211.994 273.049 212.096 273.115C212.158 273.15 212.229 273.168 212.301 273.168C212.363 273.168 212.424 273.155 212.485 273.128C212.608 273.07 215.455 271.657 214.943 269.956C214.759 269.309 214.298 268.837 213.899 268.42C213.284 267.774 212.834 267.307 213.509 266.446C214.308 265.44 217.913 263.531 217.954 263.512Z" fill="#DDDFE0"/>
<path d="M199.523 273.205C199.4 273.459 199.461 273.712 199.687 273.935C200.455 274.681 203.178 275.092 207.346 275.092C207.909 275.092 208.503 275.084 209.118 275.069C215.784 274.902 218.252 273.448 218.354 273.386C218.467 273.318 218.497 273.206 218.426 273.115C218.364 273.025 218.211 272.979 218.067 273.007C215.722 273.456 211.34 273.615 208.298 273.615C204.899 273.615 203.158 273.443 202.738 273.317C202.953 273.107 204.295 272.734 205.964 272.505C206.117 272.483 206.23 272.38 206.209 272.267C206.199 272.154 206.066 272.068 205.902 272.068C204.929 272.068 200.035 272.123 199.523 273.205ZM221.825 271.708C220.453 271.708 219.153 272.19 219.091 272.211C218.968 272.258 218.907 272.361 218.938 272.459C218.979 272.556 219.102 272.625 219.245 272.625C219.276 272.625 222.174 272.642 222.44 273.803C222.675 274.805 219.696 276.428 218.528 276.969C218.395 277.028 218.354 277.14 218.405 277.238C218.456 277.321 218.569 277.373 218.702 277.373C218.723 277.373 218.743 277.372 218.764 277.368C219.04 277.326 225.543 276.324 224.856 273.673C224.437 272.049 222.983 271.708 221.825 271.708ZM217.371 276.645C217.392 276.56 217.34 276.474 217.238 276.424L215.681 275.659C215.6 275.622 215.507 275.611 215.415 275.627C215.405 275.63 213.777 275.93 211.401 276.114C210.469 276.188 209.415 276.227 208.36 276.227C205.994 276.227 204.448 276.032 204.223 275.889C204.192 275.849 204.202 275.831 204.202 275.821C204.243 275.741 204.469 275.646 204.612 275.609C204.766 275.568 204.848 275.449 204.796 275.338C204.755 275.226 204.592 275.16 204.428 275.188C202.861 275.452 202.093 275.822 202.154 276.286C202.247 277.109 204.97 277.532 207.274 277.644C207.612 277.66 207.971 277.668 208.339 277.668C212.179 277.668 217.084 276.827 217.136 276.818C217.258 276.798 217.351 276.73 217.371 276.645ZM205.616 278.412C205.728 278.359 205.779 278.256 205.738 278.162C205.697 278.068 205.575 278.006 205.431 278.007C205.226 278.011 203.383 278.07 203.25 278.891C203.209 279.136 203.312 279.36 203.547 279.556C204.213 280.105 205.994 280.431 209.005 280.553C209.363 280.568 209.722 280.576 210.08 280.576C213.91 280.576 216.48 279.737 216.593 279.701C216.695 279.667 216.767 279.594 216.767 279.513C216.777 279.433 216.716 279.356 216.624 279.314L214.647 278.472C214.586 278.443 214.504 278.433 214.422 278.444C214.412 278.446 213.162 278.628 211.268 278.807C210.91 278.841 210.469 278.858 209.937 278.858C208.053 278.858 205.953 278.643 205.554 278.501C205.544 278.475 205.554 278.441 205.616 278.412Z" fill="#DDDFE0"/>
<path d="M208.298 283.107C217.063 283.102 221.763 282.011 222.675 281.324C222.992 281.081 223.023 280.851 223.002 280.701C222.931 280.331 222.449 280.105 222.398 280.081C222.265 280.021 222.091 280.037 221.989 280.12C221.886 280.202 221.886 280.324 221.989 280.407C222.04 280.456 222.071 280.539 221.907 280.653C221.548 280.89 217.893 281.608 211.81 281.825C210.981 281.855 210.1 281.87 209.209 281.87C203.761 281.87 199.778 281.348 199.256 281.044C199.461 280.841 200.864 280.516 202.369 280.334C202.533 280.313 202.656 280.201 202.625 280.083C202.594 279.964 202.441 279.883 202.277 279.898C202.225 279.902 202.082 279.908 201.918 279.915C199.45 280.021 196.583 280.256 196.44 281.149C196.389 281.421 196.512 281.668 196.778 281.883C197.454 282.408 199.369 283.107 208.298 283.107Z" fill="#DDDFE0"/>
<path d="M224.396 281.518C224.273 281.478 224.119 281.498 224.027 281.567C224.017 281.578 222.696 282.542 218.743 283.109C217.218 283.321 214.371 283.429 210.275 283.429C206.169 283.429 202.267 283.316 202.226 283.315C202.062 283.309 201.919 283.392 201.899 283.505C201.878 283.617 201.981 283.723 202.134 283.749C202.175 283.756 206.271 284.428 211.872 284.428C214.555 284.428 217.166 284.275 219.634 283.974C224.242 283.409 224.56 281.811 224.57 281.744C224.59 281.649 224.519 281.558 224.396 281.518Z" fill="#DDDFE0"/>
</g>
</g>
<defs>
<radialGradient id="paint0_radial_738_3849" cx="0" cy="0" r="1" gradientUnits="userSpaceOnUse" gradientTransform="translate(225 228) rotate(90) scale(134.5 280.783)">
<stop stop-color="#D9D9D9"/>
<stop offset="1" stop-color="#D9D9D9" stop-opacity="0"/>
</radialGradient>
<clipPath id="clip0_738_3849">
<rect width="419" height="400" fill="white"/>
</clipPath>
</defs>
</svg>
