<svg width="419" height="400" viewBox="0 0 419 400" fill="none" xmlns="http://www.w3.org/2000/svg">
<g clip-path="url(#clip0_738_4169)">
<rect width="419" height="400" fill="#0D222D"/>
<mask id="mask0_738_4169" style="mask-type:alpha" maskUnits="userSpaceOnUse" x="-340" y="-22" width="1101" height="634">
<g opacity="0.2">
<mask id="path-1-inside-1_738_4169" fill="white">
<path d="M210.002 -21.7148L759.511 294.502L210.002 610.718L-339.507 294.502L210.002 -21.7148ZM210.002 -22L-340 294.502L210.002 611.003L760.003 294.502L210.002 -22Z"/>
</mask>
<path d="M210.002 -21.7148L210.5 -22.5815L210.002 -22.8685L209.503 -22.5815L210.002 -21.7148ZM759.511 294.502L760.01 295.368L761.516 294.502L760.01 293.635L759.511 294.502ZM210.002 610.718L209.503 611.585L210.002 611.872L210.5 611.585L210.002 610.718ZM-339.507 294.502L-340.006 293.635L-341.512 294.502L-340.006 295.368L-339.507 294.502ZM210.002 -22L210.5 -22.8667L210.002 -23.1538L209.503 -22.8667L210.002 -22ZM-340 294.502L-340.499 293.635L-342.005 294.502L-340.499 295.368L-340 294.502ZM210.002 611.003L209.503 611.87L210.002 612.157L210.5 611.87L210.002 611.003ZM760.003 294.502L760.502 295.368L762.008 294.502L760.502 293.635L760.003 294.502ZM209.503 -20.848L759.012 295.368L760.01 293.635L210.5 -22.5815L209.503 -20.848ZM759.012 293.635L209.503 609.851L210.5 611.585L760.01 295.368L759.012 293.635ZM210.5 609.851L-339.009 293.635L-340.006 295.368L209.503 611.585L210.5 609.851ZM-339.009 295.368L210.5 -20.848L209.503 -22.5815L-340.006 293.635L-339.009 295.368ZM209.503 -22.8667L-340.499 293.635L-339.501 295.368L210.5 -21.1333L209.503 -22.8667ZM-340.499 295.368L209.503 611.87L210.5 610.136L-339.501 293.635L-340.499 295.368ZM210.5 611.87L760.502 295.368L759.505 293.635L209.503 610.136L210.5 611.87ZM760.502 293.635L210.5 -22.8667L209.503 -21.1333L759.505 295.368L760.502 293.635Z" fill="#536269" mask="url(#path-1-inside-1_738_4169)"/>
<path d="M183.809 595.929L733.81 279.43" stroke="#536269" stroke-width="0.76" stroke-miterlimit="10"/>
<path d="M157.619 580.857L707.62 264.358" stroke="#536269" stroke-width="0.76" stroke-miterlimit="10"/>
<path d="M131.429 565.785L681.431 249.287" stroke="#536269" stroke-width="0.76" stroke-miterlimit="10"/>
<path d="M105.239 550.716L655.238 234.215" stroke="#536269" stroke-width="0.76" stroke-miterlimit="10"/>
<path d="M79.0494 535.645L629.048 219.143" stroke="#536269" stroke-width="0.76" stroke-miterlimit="10"/>
<path d="M52.8564 520.573L602.858 204.072" stroke="#536269" stroke-width="0.76" stroke-miterlimit="10"/>
<path d="M26.6666 505.502L576.668 189" stroke="#536269" stroke-width="0.76" stroke-miterlimit="10"/>
<path d="M0.476929 490.43L550.475 173.928" stroke="#536269" stroke-width="0.76" stroke-miterlimit="10"/>
<path d="M-25.7129 475.358L524.285 158.857" stroke="#536269" stroke-width="0.76" stroke-miterlimit="10"/>
<path d="M-51.9059 460.287L498.096 143.785" stroke="#536269" stroke-width="0.76" stroke-miterlimit="10"/>
<path d="M-78.0957 445.215L471.906 128.713" stroke="#536269" stroke-width="0.76" stroke-miterlimit="10"/>
<path d="M-104.285 430.143L445.716 113.642" stroke="#536269" stroke-width="0.76" stroke-miterlimit="10"/>
<path d="M-130.475 415.072L419.523 98.5701" stroke="#536269" stroke-width="0.76" stroke-miterlimit="10"/>
<path d="M-156.665 400L393.333 83.5017" stroke="#536269" stroke-width="0.76" stroke-miterlimit="10"/>
<path d="M-182.858 384.928L367.143 68.4299" stroke="#536269" stroke-width="0.76" stroke-miterlimit="10"/>
<path d="M-209.048 369.857L340.954 53.3584" stroke="#536269" stroke-width="0.76" stroke-miterlimit="10"/>
<path d="M-235.238 354.785L314.764 38.2866" stroke="#536269" stroke-width="0.76" stroke-miterlimit="10"/>
<path d="M-261.427 339.713L288.571 23.2151" stroke="#536269" stroke-width="0.76" stroke-miterlimit="10"/>
<path d="M-287.62 324.645L262.381 8.14331" stroke="#536269" stroke-width="0.76" stroke-miterlimit="10"/>
<path d="M-313.81 309.573L236.191 -6.92822" stroke="#536269" stroke-width="0.76" stroke-miterlimit="10"/>
<path d="M183.809 -6.92822L733.81 309.573" stroke="#536269" stroke-width="0.76" stroke-miterlimit="10"/>
<path d="M157.619 8.14331L707.62 324.645" stroke="#536269" stroke-width="0.76" stroke-miterlimit="10"/>
<path d="M131.429 23.2151L681.431 339.713" stroke="#536269" stroke-width="0.76" stroke-miterlimit="10"/>
<path d="M105.239 38.2866L655.238 354.785" stroke="#536269" stroke-width="0.76" stroke-miterlimit="10"/>
<path d="M79.0494 53.3584L629.048 369.857" stroke="#536269" stroke-width="0.76" stroke-miterlimit="10"/>
<path d="M52.8564 68.4299L602.858 384.928" stroke="#536269" stroke-width="0.76" stroke-miterlimit="10"/>
<path d="M26.6666 83.5017L576.668 400" stroke="#536269" stroke-width="0.76" stroke-miterlimit="10"/>
<path d="M0.476929 98.5701L550.475 415.072" stroke="#536269" stroke-width="0.76" stroke-miterlimit="10"/>
<path d="M-25.7129 113.642L524.285 430.143" stroke="#536269" stroke-width="0.76" stroke-miterlimit="10"/>
<path d="M-51.9059 128.713L498.096 445.215" stroke="#536269" stroke-width="0.76" stroke-miterlimit="10"/>
<path d="M-78.0957 143.785L471.906 460.287" stroke="#536269" stroke-width="0.76" stroke-miterlimit="10"/>
<path d="M-104.285 158.857L445.716 475.358" stroke="#536269" stroke-width="0.76" stroke-miterlimit="10"/>
<path d="M-130.475 173.928L419.523 490.43" stroke="#536269" stroke-width="0.76" stroke-miterlimit="10"/>
<path d="M-156.665 189L393.333 505.502" stroke="#536269" stroke-width="0.76" stroke-miterlimit="10"/>
<path d="M-182.858 204.072L367.143 520.573" stroke="#536269" stroke-width="0.76" stroke-miterlimit="10"/>
<path d="M-209.048 219.143L340.954 535.645" stroke="#536269" stroke-width="0.76" stroke-miterlimit="10"/>
<path d="M-235.238 234.215L314.764 550.716" stroke="#536269" stroke-width="0.76" stroke-miterlimit="10"/>
<path d="M-261.427 249.287L288.571 565.785" stroke="#536269" stroke-width="0.76" stroke-miterlimit="10"/>
<path d="M-287.62 264.358L262.381 580.857" stroke="#536269" stroke-width="0.76" stroke-miterlimit="10"/>
<path d="M-313.81 279.43L236.191 595.929" stroke="#536269" stroke-width="0.76" stroke-miterlimit="10"/>
</g>
</mask>
<g mask="url(#mask0_738_4169)">
<ellipse cx="226" cy="306" rx="239" ry="143" fill="url(#paint0_radial_738_4169)"/>
</g>
<path d="M80.1159 285.043L80.1159 259.593L166.329 259.546L196.126 242.374C202.968 238.432 214.91 238.924 222.809 243.476L250.611 259.498L336.896 259.45V285.987C337.087 288.651 335.601 291.229 332.311 293.125L220.886 357.338C214.044 361.28 202.102 360.788 194.203 356.235L86.6076 294.227C82.0546 291.602 79.8536 288.199 80.1079 285.035L80.1159 285.043Z" fill="#0D222D" stroke="#F4F4F4" stroke-width="1.37339" stroke-linejoin="round"/>
<path d="M220.882 329.857L332.294 265.514C339.134 261.564 338.276 254.666 330.379 250.104L222.797 187.978C214.9 183.417 202.958 182.924 196.118 186.874L84.7062 251.216C77.8656 255.166 78.7236 262.065 86.6209 266.627L194.203 328.76C202.1 333.322 214.042 333.815 220.882 329.865V329.857Z" fill="#0D222D" stroke="#F4F4F4" stroke-width="1.37339" stroke-linejoin="round"/>
<path d="M231.301 108.007V64.5471L187.456 64.6308V108.007L126.425 241.007C125.255 243.574 124.754 246.419 125.116 249.208C125.116 249.32 125.116 249.403 125.143 249.459C126.815 260.505 134.949 271.273 149.573 279.697C182.582 298.777 236.12 298.777 269.129 279.697C285.731 270.101 293.976 257.493 293.865 244.912L231.273 107.979L231.301 108.007Z" fill="#E06938" stroke="#0D222D" stroke-width="1.37339" stroke-miterlimit="10" stroke-linejoin="round"/>
<path d="M231.301 108.007V64.5471L187.456 64.6308V108.007L126.425 241.007C125.255 243.574 124.754 246.419 125.116 249.208C125.116 249.32 125.116 249.403 125.143 249.459C126.815 260.505 134.949 271.273 149.573 279.697C182.582 298.777 236.12 298.777 269.129 279.697C285.731 270.101 293.976 257.493 293.865 244.912C293.865 244.773 231.273 107.979 231.273 107.979L231.301 108.007Z" fill="#0D222D" stroke="#F4F4F4" stroke-width="1.37339" stroke-miterlimit="10" stroke-linejoin="round"/>
<path d="M283.781 240.394L246.064 154.925H172.665L134.949 240.394C134.475 241.649 134.224 242.932 134.224 244.187C134.224 245.275 134.336 246.335 134.642 247.395C134.642 247.451 134.642 247.535 134.698 247.591C136.509 256.433 143.695 264.997 156.23 271.775C185.59 287.647 233.167 287.647 262.527 271.775C275.034 265.025 282.193 256.489 284.059 247.674C284.059 247.674 284.059 247.618 284.059 247.591C284.394 246.447 284.561 245.247 284.505 244.048C284.505 244.048 284.505 243.992 284.505 243.964C284.449 242.765 284.199 241.593 283.781 240.394Z" fill="#E06938" stroke="#0D222D" stroke-width="1.37339" stroke-miterlimit="10" stroke-linejoin="round"/>
<path d="M283.781 240.394L246.064 154.925H172.665L134.949 240.394C134.475 241.649 134.224 242.932 134.224 244.187C134.224 245.275 134.336 246.335 134.642 247.395C134.642 247.451 134.642 247.535 134.698 247.591C136.509 256.433 143.695 264.997 156.23 271.775C185.59 287.647 233.167 287.647 262.527 271.775C275.034 265.025 282.193 256.489 284.059 247.674C284.059 247.674 284.059 247.618 284.059 247.591C284.394 246.447 284.561 245.247 284.505 244.048C284.505 244.048 284.505 243.992 284.505 243.964C284.449 242.765 284.199 241.593 283.781 240.394Z" fill="#E06938" stroke="#0D222D" stroke-width="1.37339" stroke-miterlimit="10" stroke-linejoin="round"/>
<path d="M221.357 138.83C208.237 136.319 193.195 137.937 182.944 143.628C168.71 151.55 168.71 164.381 182.944 172.275C197.178 180.197 220.688 180.197 235.424 172.275C250.159 164.353 250.159 151.522 235.424 143.628C231.301 141.396 226.482 139.806 221.357 138.83Z" fill="#E06938" stroke="#0D222D" stroke-width="1.37339" stroke-miterlimit="10" stroke-linejoin="round"/>
<path d="M221.088 138.83C207.968 136.319 192.926 137.937 182.676 143.628C168.441 151.55 168.441 164.381 182.676 172.275C196.91 180.197 220.42 180.197 235.155 172.275C249.891 164.353 249.891 151.522 235.155 143.628C231.033 141.396 226.214 139.806 221.088 138.83Z" fill="#E06938" stroke="#0D222D" stroke-width="1.37339" stroke-miterlimit="10" stroke-linejoin="round"/>
<path d="M186.593 53.1662C186.593 49.7909 188.822 46.4157 193.251 43.8494C202.165 38.7169 216.566 38.7169 225.452 43.8494C229.909 46.4157 232.109 49.7909 232.109 53.1662V63.0129C232.109 66.3881 229.881 69.7634 225.452 72.3296C216.566 77.4622 202.137 77.4622 193.251 72.3296C188.794 69.7634 186.593 66.3881 186.593 63.0129V53.1662Z" fill="#E06938" stroke="#0D222D" stroke-width="1.37339" stroke-miterlimit="10" stroke-linejoin="round"/>
<path d="M186.593 53.1662C186.593 49.7909 188.822 46.4157 193.251 43.8494C202.165 38.7169 216.566 38.7169 225.452 43.8494C229.909 46.4157 232.109 49.7909 232.109 53.1662V63.0129C232.109 66.3881 229.881 69.7634 225.452 72.3296C216.566 77.4622 202.137 77.4622 193.251 72.3296C188.794 69.7634 186.593 66.3881 186.593 63.0129V53.1662Z" fill="#0D222D" stroke="#F4F4F4" stroke-width="1.37339" stroke-miterlimit="10" stroke-linejoin="round"/>
<path d="M225.451 62.455C216.565 67.5876 202.136 67.5876 193.25 62.455C184.364 57.3224 184.364 48.982 193.25 43.8494C202.164 38.7169 216.565 38.7169 225.451 43.8494C234.337 48.982 234.337 57.3224 225.451 62.455Z" fill="#E06938" stroke="#0D222D" stroke-width="1.37339" stroke-miterlimit="10" stroke-linejoin="round"/>
<path d="M225.451 62.455C216.565 67.5876 202.136 67.5876 193.25 62.455C184.364 57.3224 184.364 48.982 193.25 43.8494C202.164 38.7169 216.565 38.7169 225.451 43.8494C234.337 48.982 234.337 57.3224 225.451 62.455Z" fill="#0D222D" stroke="#F4F4F4" stroke-width="1.37339" stroke-miterlimit="10" stroke-linejoin="round"/>
<path d="M223.418 60.6977C215.591 64.8819 202.916 64.8819 195.089 60.6977C187.261 56.5135 187.261 49.7073 195.089 45.5231C202.916 41.339 215.591 41.339 223.418 45.5231C231.245 49.7073 231.245 56.5135 223.418 60.6977Z" fill="#0D222D" stroke="#F4F4F4" stroke-width="1.37339" stroke-miterlimit="10" stroke-linejoin="round"/>
<path d="M223.418 58.6616C224.031 58.9963 224.56 59.331 225.061 59.6937C224.56 60.0563 224.003 60.391 223.418 60.7257C215.59 64.9099 202.916 64.9099 195.089 60.7257C194.476 60.391 193.947 60.0563 193.417 59.6937C193.919 59.331 194.476 58.9963 195.089 58.6616C202.916 54.4774 215.59 54.4774 223.418 58.6616Z" fill="#0D222D" stroke="#F4F4F4" stroke-width="1.37339" stroke-miterlimit="10" stroke-linejoin="round"/>
<path d="M208.966 196L207.531 200.417L209.739 201.135L208.966 196Z" fill="#0D222D"/>
<path d="M208.966 196L210.401 200.417L208.193 201.135L208.966 196Z" fill="#0D222D"/>
<path d="M213.383 199.209H208.738V201.531L213.383 199.209Z" fill="#0D222D"/>
<path d="M213.383 199.209L209.625 201.939L208.261 200.06L213.383 199.209Z" fill="#0D222D"/>
<path d="M211.696 204.402L210.26 199.985L208.052 200.702L211.696 204.402Z" fill="#0D222D"/>
<path d="M211.696 204.402L207.938 201.672L209.303 199.793L211.696 204.402Z" fill="#0D222D"/>
<path d="M204.549 199.209H209.193V201.532L204.549 199.209Z" fill="#0D222D"/>
<path d="M204.549 199.209L208.306 201.939L209.671 200.061L204.549 199.209Z" fill="#0D222D"/>
<path d="M206.235 204.402L207.67 199.985L209.878 200.703L206.235 204.402Z" fill="#0D222D"/>
<path d="M206.235 204.402L209.992 201.672L208.627 199.794L206.235 204.402Z" fill="#0D222D"/>
<path d="M208.966 251.732L207.531 256.149L209.739 256.867L208.966 251.732Z" fill="#0D222D"/>
<path d="M208.966 251.732L210.401 256.149L208.193 256.867L208.966 251.732Z" fill="#0D222D"/>
<path d="M213.383 254.941H208.738V257.264L213.383 254.941Z" fill="#0D222D"/>
<path d="M213.383 254.941L209.625 257.671L208.26 255.793L213.383 254.941Z" fill="#0D222D"/>
<path d="M211.695 260.134L210.26 255.717L208.052 256.434L211.695 260.134Z" fill="#0D222D"/>
<path d="M211.695 260.134L207.938 257.404L209.303 255.525L211.695 260.134Z" fill="#0D222D"/>
<path d="M204.549 254.941H209.193V257.264L204.549 254.941Z" fill="#0D222D"/>
<path d="M204.549 254.941L208.306 257.671L209.671 255.793L204.549 254.941Z" fill="#0D222D"/>
<path d="M206.236 260.134L207.671 255.717L209.879 256.434L206.236 260.134Z" fill="#0D222D"/>
<path d="M206.236 260.134L209.993 257.404L208.628 255.525L206.236 260.134Z" fill="#0D222D"/>
<path d="M181.099 223.866L179.664 228.283L181.873 229.001L181.099 223.866Z" fill="#0D222D"/>
<path d="M181.099 223.866L182.534 228.283L180.326 229.001L181.099 223.866Z" fill="#0D222D"/>
<path d="M185.516 227.075H180.872V229.397L185.516 227.075Z" fill="#0D222D"/>
<path d="M185.516 227.075L181.759 229.805L180.394 227.926L185.516 227.075Z" fill="#0D222D"/>
<path d="M183.829 232.268L182.394 227.851L180.186 228.568L183.829 232.268Z" fill="#0D222D"/>
<path d="M183.829 232.268L180.072 229.538L181.437 227.659L183.829 232.268Z" fill="#0D222D"/>
<path d="M176.682 227.075H181.327V229.397L176.682 227.075Z" fill="#0D222D"/>
<path d="M176.682 227.075L180.44 229.805L181.805 227.926L176.682 227.075Z" fill="#0D222D"/>
<path d="M178.369 232.268L179.805 227.851L182.013 228.568L178.369 232.268Z" fill="#0D222D"/>
<path d="M178.369 232.268L182.127 229.538L180.762 227.659L178.369 232.268Z" fill="#0D222D"/>
<path d="M192.303 208.135L196.06 205.405L194.695 203.527L192.303 208.135Z" fill="#0D222D"/>
<path d="M192.303 208.135L193.738 203.718L195.946 204.436L192.303 208.135Z" fill="#0D222D"/>
<path d="M190.615 202.943L194.372 205.673L195.737 203.794L190.615 202.943Z" fill="#0D222D"/>
<path d="M190.615 202.943H195.259V205.265L190.615 202.943Z" fill="#0D222D"/>
<path d="M195.032 199.733L193.597 204.15L195.806 204.868L195.032 199.733Z" fill="#0D222D"/>
<path d="M195.032 199.733L196.468 204.15L194.259 204.868L195.032 199.733Z" fill="#0D222D"/>
<path d="M197.762 208.135L194.005 205.405L195.37 203.527L197.762 208.135Z" fill="#0D222D"/>
<path d="M197.762 208.135L196.327 203.718L194.118 204.436L197.762 208.135Z" fill="#0D222D"/>
<path d="M199.449 202.943L195.692 205.673L194.327 203.794L199.449 202.943Z" fill="#0D222D"/>
<path d="M199.449 202.943H194.805V205.265L199.449 202.943Z" fill="#0D222D"/>
<path d="M187.563 218.335L186.128 213.918L183.919 214.636L187.563 218.335Z" fill="#0D222D"/>
<path d="M187.563 218.335L183.805 215.605L185.17 213.726L187.563 218.335Z" fill="#0D222D"/>
<path d="M182.103 218.335L185.86 215.605L184.495 213.727L182.103 218.335Z" fill="#0D222D"/>
<path d="M182.103 218.335L183.538 213.918L185.747 214.636L182.103 218.335Z" fill="#0D222D"/>
<path d="M180.416 213.142L184.173 215.872L185.538 213.993L180.416 213.142Z" fill="#0D222D"/>
<path d="M180.416 213.142H185.06V215.464L180.416 213.142Z" fill="#0D222D"/>
<path d="M189.25 213.142L185.493 215.872L184.128 213.993L189.25 213.142Z" fill="#0D222D"/>
<path d="M189.25 213.142H184.606V215.464L189.25 213.142Z" fill="#0D222D"/>
<path d="M184.833 209.933L186.268 214.35L184.06 215.068L184.833 209.933Z" fill="#0D222D"/>
<path d="M184.833 209.933L183.398 214.35L185.606 215.068L184.833 209.933Z" fill="#0D222D"/>
<path d="M189.25 241.008H184.606V243.33L189.25 241.008Z" fill="#0D222D"/>
<path d="M189.25 241.008L185.493 243.738L184.128 241.86L189.25 241.008Z" fill="#0D222D"/>
<path d="M187.563 246.201L186.127 241.784L183.919 242.501L187.563 246.201Z" fill="#0D222D"/>
<path d="M187.563 246.201L183.805 243.471L185.17 241.592L187.563 246.201Z" fill="#0D222D"/>
<path d="M182.103 246.201L185.86 243.471L184.495 241.592L182.103 246.201Z" fill="#0D222D"/>
<path d="M182.103 246.201L183.538 241.784L185.746 242.501L182.103 246.201Z" fill="#0D222D"/>
<path d="M184.833 237.799L186.268 242.216L184.059 242.934L184.833 237.799Z" fill="#0D222D"/>
<path d="M184.833 237.799L183.398 242.216L185.606 242.934L184.833 237.799Z" fill="#0D222D"/>
<path d="M180.415 241.008H185.06V243.33L180.415 241.008Z" fill="#0D222D"/>
<path d="M180.415 241.008L184.173 243.738L185.537 241.86L180.415 241.008Z" fill="#0D222D"/>
<path d="M199.45 251.208H194.806V253.53L199.45 251.208Z" fill="#0D222D"/>
<path d="M199.45 251.208L195.693 253.938L194.328 252.059L199.45 251.208Z" fill="#0D222D"/>
<path d="M197.763 256.401L196.327 251.984L194.119 252.701L197.763 256.401Z" fill="#0D222D"/>
<path d="M197.763 256.401L194.005 253.671L195.37 251.792L197.763 256.401Z" fill="#0D222D"/>
<path d="M192.303 256.401L196.06 253.671L194.695 251.792L192.303 256.401Z" fill="#0D222D"/>
<path d="M192.303 256.401L193.738 251.984L195.946 252.701L192.303 256.401Z" fill="#0D222D"/>
<path d="M195.033 247.999L196.468 252.416L194.259 253.134L195.033 247.999Z" fill="#0D222D"/>
<path d="M195.033 247.999L193.598 252.416L195.806 253.134L195.033 247.999Z" fill="#0D222D"/>
<path d="M190.616 251.208H195.26V253.53L190.616 251.208Z" fill="#0D222D"/>
<path d="M190.616 251.208L194.373 253.938L195.738 252.059L190.616 251.208Z" fill="#0D222D"/>
<path d="M236.832 223.866L238.267 228.283L236.058 229.001L236.832 223.866Z" fill="#0D222D"/>
<path d="M236.832 223.866L235.396 228.283L237.605 229.001L236.832 223.866Z" fill="#0D222D"/>
<path d="M232.414 227.075H237.059V229.398L232.414 227.075Z" fill="#0D222D"/>
<path d="M232.414 227.075L236.172 229.805L237.536 227.927L232.414 227.075Z" fill="#0D222D"/>
<path d="M234.102 232.268L235.537 227.851L237.745 228.569L234.102 232.268Z" fill="#0D222D"/>
<path d="M234.102 232.268L237.859 229.538L236.494 227.66L234.102 232.268Z" fill="#0D222D"/>
<path d="M241.249 227.075H236.604V229.398L241.249 227.075Z" fill="#0D222D"/>
<path d="M241.249 227.075L237.491 229.805L236.126 227.927L241.249 227.075Z" fill="#0D222D"/>
<path d="M239.562 232.268L238.126 227.851L235.918 228.569L239.562 232.268Z" fill="#0D222D"/>
<path d="M239.562 232.268L235.804 229.538L237.169 227.659L239.562 232.268Z" fill="#0D222D"/>
<path d="M225.628 208.135L221.871 205.406L223.236 203.527L225.628 208.135Z" fill="#0D222D"/>
<path d="M225.628 208.135L224.193 203.718L221.985 204.436L225.628 208.135Z" fill="#0D222D"/>
<path d="M227.316 202.943L223.559 205.673L222.194 203.794L227.316 202.943Z" fill="#0D222D"/>
<path d="M227.316 202.943H222.672V205.265L227.316 202.943Z" fill="#0D222D"/>
<path d="M222.899 199.734L224.334 204.151L222.125 204.869L222.899 199.734Z" fill="#0D222D"/>
<path d="M222.899 199.734L221.464 204.151L223.672 204.869L222.899 199.734Z" fill="#0D222D"/>
<path d="M220.169 208.135L223.926 205.405L222.561 203.527L220.169 208.135Z" fill="#0D222D"/>
<path d="M220.169 208.135L221.604 203.718L223.812 204.436L220.169 208.135Z" fill="#0D222D"/>
<path d="M218.482 202.943L222.239 205.673L223.604 203.794L218.482 202.943Z" fill="#0D222D"/>
<path d="M218.482 202.943H223.126V205.265L218.482 202.943Z" fill="#0D222D"/>
<path d="M230.369 218.335L231.804 213.918L234.012 214.636L230.369 218.335Z" fill="#0D222D"/>
<path d="M230.369 218.335L234.126 215.605L232.761 213.727L230.369 218.335Z" fill="#0D222D"/>
<path d="M235.828 218.335L232.071 215.605L233.436 213.727L235.828 218.335Z" fill="#0D222D"/>
<path d="M235.828 218.335L234.393 213.918L232.184 214.636L235.828 218.335Z" fill="#0D222D"/>
<path d="M237.516 213.142L233.758 215.872L232.393 213.994L237.516 213.142Z" fill="#0D222D"/>
<path d="M237.516 213.142H232.871V215.465L237.516 213.142Z" fill="#0D222D"/>
<path d="M228.682 213.142L232.439 215.872L233.804 213.994L228.682 213.142Z" fill="#0D222D"/>
<path d="M228.682 213.142H233.326V215.465L228.682 213.142Z" fill="#0D222D"/>
<path d="M233.098 209.933L231.663 214.35L233.872 215.068L233.098 209.933Z" fill="#0D222D"/>
<path d="M233.098 209.933L234.534 214.35L232.325 215.068L233.098 209.933Z" fill="#0D222D"/>
<path d="M228.681 241.009H233.326V243.331L228.681 241.009Z" fill="#0D222D"/>
<path d="M228.681 241.009L232.439 243.738L233.803 241.86L228.681 241.009Z" fill="#0D222D"/>
<path d="M230.368 246.201L231.803 241.784L234.012 242.502L230.368 246.201Z" fill="#0D222D"/>
<path d="M230.368 246.201L234.125 243.472L232.76 241.593L230.368 246.201Z" fill="#0D222D"/>
<path d="M235.828 246.201L232.07 243.471L233.435 241.593L235.828 246.201Z" fill="#0D222D"/>
<path d="M235.828 246.201L234.393 241.784L232.184 242.502L235.828 246.201Z" fill="#0D222D"/>
<path d="M233.098 237.8L231.663 242.217L233.871 242.934L233.098 237.8Z" fill="#0D222D"/>
<path d="M233.098 237.8L234.533 242.217L232.325 242.934L233.098 237.8Z" fill="#0D222D"/>
<path d="M237.515 241.009H232.871V243.331L237.515 241.009Z" fill="#0D222D"/>
<path d="M237.515 241.009L233.758 243.738L232.393 241.86L237.515 241.009Z" fill="#0D222D"/>
<path d="M218.482 251.208H223.126V253.53L218.482 251.208Z" fill="#0D222D"/>
<path d="M218.482 251.208L222.239 253.938L223.604 252.059L218.482 251.208Z" fill="#0D222D"/>
<path d="M220.169 256.401L221.604 251.984L223.812 252.701L220.169 256.401Z" fill="#0D222D"/>
<path d="M220.169 256.401L223.926 253.671L222.561 251.792L220.169 256.401Z" fill="#0D222D"/>
<path d="M225.628 256.401L221.871 253.671L223.236 251.792L225.628 256.401Z" fill="#0D222D"/>
<path d="M225.628 256.401L224.193 251.984L221.985 252.701L225.628 256.401Z" fill="#0D222D"/>
<path d="M222.899 247.999L221.463 252.416L223.672 253.134L222.899 247.999Z" fill="#0D222D"/>
<path d="M222.899 247.999L224.334 252.416L222.125 253.134L222.899 247.999Z" fill="#0D222D"/>
<path d="M227.316 251.208H222.672V253.53L227.316 251.208Z" fill="#0D222D"/>
<path d="M227.316 251.208L223.559 253.938L222.194 252.059L227.316 251.208Z" fill="#0D222D"/>
</g>
<defs>
<radialGradient id="paint0_radial_738_4169" cx="0" cy="0" r="1" gradientUnits="userSpaceOnUse" gradientTransform="translate(226 281) rotate(90) scale(134.5 280.783)">
<stop stop-color="#D9D9D9"/>
<stop offset="1" stop-color="#D9D9D9" stop-opacity="0"/>
</radialGradient>
<clipPath id="clip0_738_4169">
<rect width="419" height="400" fill="white"/>
</clipPath>
</defs>
</svg>
