<svg width="419" height="400" viewBox="0 0 419 400" fill="none" xmlns="http://www.w3.org/2000/svg">
<g clip-path="url(#clip0_738_3653)">
<rect width="419" height="400" fill="#0D222D"/>
<mask id="mask0_738_3653" style="mask-type:alpha" maskUnits="userSpaceOnUse" x="-340" y="-28" width="1101" height="634">
<g opacity="0.2">
<mask id="path-1-inside-1_738_3653" fill="white">
<path d="M210.002 -27.7148L759.511 288.502L210.002 604.718L-339.507 288.502L210.002 -27.7148ZM210.002 -28L-340 288.502L210.002 605.003L760.003 288.502L210.002 -28Z"/>
</mask>
<path d="M210.002 -27.7148L210.5 -28.5815L210.002 -28.8685L209.503 -28.5815L210.002 -27.7148ZM759.511 288.502L760.01 289.368L761.516 288.502L760.01 287.635L759.511 288.502ZM210.002 604.718L209.503 605.585L210.002 605.872L210.5 605.585L210.002 604.718ZM-339.507 288.502L-340.006 287.635L-341.512 288.502L-340.006 289.368L-339.507 288.502ZM210.002 -28L210.5 -28.8667L210.002 -29.1538L209.503 -28.8667L210.002 -28ZM-340 288.502L-340.499 287.635L-342.005 288.502L-340.499 289.368L-340 288.502ZM210.002 605.003L209.503 605.87L210.002 606.157L210.5 605.87L210.002 605.003ZM760.003 288.502L760.502 289.368L762.008 288.502L760.502 287.635L760.003 288.502ZM209.503 -26.848L759.012 289.368L760.01 287.635L210.5 -28.5815L209.503 -26.848ZM759.012 287.635L209.503 603.851L210.5 605.585L760.01 289.368L759.012 287.635ZM210.5 603.851L-339.009 287.635L-340.006 289.368L209.503 605.585L210.5 603.851ZM-339.009 289.368L210.5 -26.848L209.503 -28.5815L-340.006 287.635L-339.009 289.368ZM209.503 -28.8667L-340.499 287.635L-339.501 289.368L210.5 -27.1333L209.503 -28.8667ZM-340.499 289.368L209.503 605.87L210.5 604.136L-339.501 287.635L-340.499 289.368ZM210.5 605.87L760.502 289.368L759.505 287.635L209.503 604.136L210.5 605.87ZM760.502 287.635L210.5 -28.8667L209.503 -27.1333L759.505 289.368L760.502 287.635Z" fill="#536269" mask="url(#path-1-inside-1_738_3653)"/>
<path d="M183.809 589.929L733.81 273.43" stroke="#536269" stroke-width="0.76" stroke-miterlimit="10"/>
<path d="M157.619 574.857L707.62 258.358" stroke="#536269" stroke-width="0.76" stroke-miterlimit="10"/>
<path d="M131.429 559.785L681.431 243.287" stroke="#536269" stroke-width="0.76" stroke-miterlimit="10"/>
<path d="M105.239 544.716L655.238 228.215" stroke="#536269" stroke-width="0.76" stroke-miterlimit="10"/>
<path d="M79.0494 529.645L629.048 213.143" stroke="#536269" stroke-width="0.76" stroke-miterlimit="10"/>
<path d="M52.8564 514.573L602.858 198.072" stroke="#536269" stroke-width="0.76" stroke-miterlimit="10"/>
<path d="M26.6666 499.502L576.668 183" stroke="#536269" stroke-width="0.76" stroke-miterlimit="10"/>
<path d="M0.476929 484.43L550.475 167.928" stroke="#536269" stroke-width="0.76" stroke-miterlimit="10"/>
<path d="M-25.7129 469.358L524.285 152.857" stroke="#536269" stroke-width="0.76" stroke-miterlimit="10"/>
<path d="M-51.9059 454.287L498.096 137.785" stroke="#536269" stroke-width="0.76" stroke-miterlimit="10"/>
<path d="M-78.0957 439.215L471.906 122.713" stroke="#536269" stroke-width="0.76" stroke-miterlimit="10"/>
<path d="M-104.285 424.143L445.716 107.642" stroke="#536269" stroke-width="0.76" stroke-miterlimit="10"/>
<path d="M-130.475 409.072L419.523 92.5701" stroke="#536269" stroke-width="0.76" stroke-miterlimit="10"/>
<path d="M-156.665 394L393.333 77.5017" stroke="#536269" stroke-width="0.76" stroke-miterlimit="10"/>
<path d="M-182.858 378.928L367.143 62.4299" stroke="#536269" stroke-width="0.76" stroke-miterlimit="10"/>
<path d="M-209.048 363.857L340.954 47.3584" stroke="#536269" stroke-width="0.76" stroke-miterlimit="10"/>
<path d="M-235.238 348.785L314.764 32.2866" stroke="#536269" stroke-width="0.76" stroke-miterlimit="10"/>
<path d="M-261.427 333.713L288.571 17.2151" stroke="#536269" stroke-width="0.76" stroke-miterlimit="10"/>
<path d="M-287.62 318.645L262.381 2.14331" stroke="#536269" stroke-width="0.76" stroke-miterlimit="10"/>
<path d="M-313.81 303.573L236.191 -12.9282" stroke="#536269" stroke-width="0.76" stroke-miterlimit="10"/>
<path d="M183.809 -12.9282L733.81 303.573" stroke="#536269" stroke-width="0.76" stroke-miterlimit="10"/>
<path d="M157.619 2.14331L707.62 318.645" stroke="#536269" stroke-width="0.76" stroke-miterlimit="10"/>
<path d="M131.429 17.2151L681.431 333.713" stroke="#536269" stroke-width="0.76" stroke-miterlimit="10"/>
<path d="M105.239 32.2866L655.238 348.785" stroke="#536269" stroke-width="0.76" stroke-miterlimit="10"/>
<path d="M79.0494 47.3584L629.048 363.857" stroke="#536269" stroke-width="0.76" stroke-miterlimit="10"/>
<path d="M52.8564 62.4299L602.858 378.928" stroke="#536269" stroke-width="0.76" stroke-miterlimit="10"/>
<path d="M26.6666 77.5017L576.668 394" stroke="#536269" stroke-width="0.76" stroke-miterlimit="10"/>
<path d="M0.476929 92.5701L550.475 409.072" stroke="#536269" stroke-width="0.76" stroke-miterlimit="10"/>
<path d="M-25.7129 107.642L524.285 424.143" stroke="#536269" stroke-width="0.76" stroke-miterlimit="10"/>
<path d="M-51.9059 122.713L498.096 439.215" stroke="#536269" stroke-width="0.76" stroke-miterlimit="10"/>
<path d="M-78.0957 137.785L471.906 454.287" stroke="#536269" stroke-width="0.76" stroke-miterlimit="10"/>
<path d="M-104.285 152.857L445.716 469.358" stroke="#536269" stroke-width="0.76" stroke-miterlimit="10"/>
<path d="M-130.475 167.928L419.523 484.43" stroke="#536269" stroke-width="0.76" stroke-miterlimit="10"/>
<path d="M-156.665 183L393.333 499.502" stroke="#536269" stroke-width="0.76" stroke-miterlimit="10"/>
<path d="M-182.858 198.072L367.143 514.573" stroke="#536269" stroke-width="0.76" stroke-miterlimit="10"/>
<path d="M-209.048 213.143L340.954 529.645" stroke="#536269" stroke-width="0.76" stroke-miterlimit="10"/>
<path d="M-235.238 228.215L314.764 544.716" stroke="#536269" stroke-width="0.76" stroke-miterlimit="10"/>
<path d="M-261.427 243.287L288.571 559.785" stroke="#536269" stroke-width="0.76" stroke-miterlimit="10"/>
<path d="M-287.62 258.358L262.381 574.857" stroke="#536269" stroke-width="0.76" stroke-miterlimit="10"/>
<path d="M-313.81 273.43L236.191 589.929" stroke="#536269" stroke-width="0.76" stroke-miterlimit="10"/>
</g>
</mask>
<g mask="url(#mask0_738_3653)">
<ellipse cx="226" cy="300" rx="239" ry="143" fill="url(#paint0_radial_738_3653)"/>
</g>
<path d="M148.829 298.634L148.829 280.104L211.603 280.069L233.299 267.566C238.281 264.696 246.976 265.054 252.727 268.369L272.971 280.035L335.797 280V299.322C335.936 301.262 334.854 303.139 332.459 304.519L251.327 351.274C246.346 354.144 237.65 353.786 231.899 350.471L153.556 305.322C150.241 303.41 148.638 300.933 148.823 298.629L148.829 298.634Z" fill="#0D222D" stroke="#F4F4F4" stroke-linejoin="round"/>
<path d="M251.325 331.265L332.446 284.415C337.427 281.539 336.802 276.516 331.052 273.194L252.719 227.959C246.969 224.638 238.274 224.279 233.293 227.155L152.172 274.005C147.191 276.881 147.815 281.903 153.566 285.225L231.899 330.466C237.649 333.788 246.344 334.146 251.325 331.27V331.265Z" fill="#0D222D" stroke="#F4F4F4" stroke-linejoin="round"/>
<path d="M15.0202 220.422L15.0202 201.891L77.7941 201.857L99.4902 189.354C104.472 186.483 113.167 186.841 118.918 190.156L139.162 201.822L201.988 201.787V221.109C202.127 223.049 201.045 224.926 198.65 226.307L117.518 273.062C112.537 275.932 103.841 275.574 98.0901 272.259L19.747 227.109C16.4319 225.198 14.8293 222.72 15.0144 220.416L15.0202 220.422Z" fill="#0D222D" stroke="#F4F4F4" stroke-linejoin="round"/>
<path d="M117.516 253.052L198.637 206.202C203.618 203.326 202.993 198.303 197.243 194.982L118.91 149.747C113.16 146.425 104.465 146.066 99.4842 148.942L18.3626 195.792C13.3818 198.668 14.0066 203.691 19.7568 207.012L98.0901 252.253C103.84 255.575 112.535 255.934 117.516 253.058V253.052Z" fill="#0D222D" stroke="#F4F4F4" stroke-linejoin="round"/>
<path d="M215.02 182.422L215.02 163.891L277.794 163.857L299.49 151.354C304.472 148.483 313.167 148.841 318.918 152.156L339.162 163.822L401.988 163.787V183.109C402.127 185.049 401.045 186.926 398.65 188.307L317.518 235.062C312.537 237.932 303.841 237.574 298.09 234.259L219.747 189.109C216.432 187.198 214.829 184.72 215.014 182.416L215.02 182.422Z" fill="#0D222D" stroke="#F4F4F4" stroke-linejoin="round"/>
<path d="M317.516 215.052L398.637 168.202C403.618 165.326 402.993 160.303 397.243 156.982L318.91 111.747C313.16 108.425 304.465 108.066 299.484 110.942L218.363 157.792C213.382 160.668 214.007 165.691 219.757 169.012L298.09 214.253C303.84 217.575 312.535 217.934 317.516 215.058V215.052Z" fill="#0D222D" stroke="#F4F4F4" stroke-linejoin="round"/>
<path d="M242.354 160.148V140.189L287.107 140.164L302.575 131.234C306.126 129.184 312.326 129.44 316.426 131.807L330.858 140.139L375.648 140.115V160.639C375.747 162.025 374.976 163.365 373.268 164.351L315.427 197.745C311.876 199.795 305.677 199.539 301.577 197.171L245.724 164.925C243.361 163.559 242.218 161.79 242.35 160.144L242.354 160.148Z" fill="#E06938" stroke="#0D222D" stroke-linejoin="round"/>
<path d="M315.432 177.295L373.272 143.901C376.823 141.851 376.378 138.271 372.278 135.903L316.426 103.657C312.326 101.289 306.126 101.033 302.575 103.083L244.734 136.477C241.183 138.527 241.628 142.107 245.728 144.474L301.581 176.721C305.681 179.089 311.88 179.345 315.432 177.295Z" fill="#E06938" stroke="#0D222D" stroke-linejoin="round"/>
<path d="M263.63 165.415C263.63 166.904 264.677 168.715 265.964 169.462C267.255 170.208 268.299 169.602 268.299 168.113C268.299 166.624 267.251 164.813 265.964 164.066C264.673 163.32 263.63 163.926 263.63 165.415Z" fill="#0D222D"/>
<path d="M256.114 161.072C256.114 162.561 257.162 164.372 258.449 165.119C259.74 165.865 260.784 165.259 260.784 163.77C260.784 162.281 259.736 160.47 258.449 159.723C257.158 158.977 256.114 159.583 256.114 161.072Z" fill="#0D222D"/>
<path d="M248.599 156.733C248.599 158.222 249.647 160.033 250.934 160.779C252.225 161.526 253.268 160.919 253.268 159.43C253.268 157.941 252.221 156.131 250.934 155.384C249.643 154.638 248.599 155.244 248.599 156.733Z" fill="#0D222D"/>
<path d="M312.008 156.588L339.074 140.96C340.737 139.999 340.526 138.324 338.608 137.219L312.474 122.131C310.556 121.021 307.652 120.902 305.994 121.863L278.928 137.491C277.266 138.452 277.476 140.127 279.394 141.232L305.528 156.32C307.446 157.43 310.35 157.549 312.008 156.588Z" fill="#0D222D" stroke="#0D222D" stroke-linejoin="round"/>
<path d="M309.418 143.505L313.163 141.344C313.394 141.212 313.365 140.981 313.097 140.824L309.48 138.737C309.216 138.584 308.812 138.568 308.585 138.7L304.839 140.861C304.608 140.993 304.637 141.224 304.905 141.377L308.523 143.464C308.787 143.616 309.191 143.633 309.418 143.501V143.505Z" fill="#E06938" stroke="#0D222D" stroke-linejoin="round"/>
<path d="M339.078 140.964L339 141.01C338.872 140.919 338.757 140.828 338.612 140.741L312.478 125.653C310.56 124.544 307.657 124.424 305.998 125.385L279.006 140.968C277.476 139.871 277.394 138.378 278.928 137.495L305.994 121.867C307.657 120.906 310.556 121.03 312.474 122.135L338.608 137.223C340.526 138.333 340.737 140.007 339.074 140.964H339.078Z" fill="#E06938" stroke="#0D222D" stroke-linejoin="round"/>
<path d="M242.354 130.797V110.837L287.107 110.813L302.575 101.883C306.126 99.8328 312.326 100.089 316.426 102.456L330.858 110.788L375.648 110.763V131.288C375.747 132.674 374.976 134.014 373.268 135L315.427 168.393C311.876 170.443 305.677 170.188 301.577 167.82L245.724 135.573C243.361 134.208 242.218 132.438 242.35 130.793L242.354 130.797Z" fill="#E06938" stroke="#0D222D" stroke-linejoin="round"/>
<path d="M315.432 147.943L373.272 114.55C376.823 112.5 376.378 108.919 372.278 106.552L316.426 74.305C312.326 71.9374 306.126 71.6817 302.575 73.7316L244.734 107.125C241.183 109.175 241.628 112.755 245.728 115.123L301.581 147.37C305.681 149.737 311.88 149.993 315.432 147.943Z" fill="#E06938" stroke="#0D222D" stroke-linejoin="round"/>
<path d="M263.63 136.064C263.63 137.553 264.677 139.364 265.964 140.11C267.255 140.857 268.299 140.25 268.299 138.761C268.299 137.272 267.251 135.462 265.964 134.715C264.673 133.969 263.63 134.575 263.63 136.064Z" fill="#0D222D"/>
<path d="M256.114 131.725C256.114 133.214 257.162 135.025 258.449 135.771C259.74 136.518 260.784 135.911 260.784 134.422C260.784 132.933 259.736 131.123 258.449 130.376C257.158 129.629 256.114 130.236 256.114 131.725Z" fill="#0D222D"/>
<path d="M248.599 127.382C248.599 128.871 249.647 130.681 250.934 131.428C252.225 132.174 253.268 131.568 253.268 130.079C253.268 128.59 252.221 126.779 250.934 126.033C249.643 125.286 248.599 125.893 248.599 127.382Z" fill="#0D222D"/>
<path d="M312.008 127.241L339.074 111.613C340.737 110.652 340.526 108.977 338.608 107.872L312.474 92.7835C310.556 91.674 307.652 91.5544 305.994 92.5154L278.928 108.144C277.266 109.105 277.476 110.78 279.394 111.885L305.528 126.973C307.446 128.083 310.35 128.202 312.008 127.241Z" fill="#0D222D" stroke="#0D222D" stroke-linejoin="round"/>
<path d="M309.418 114.154L313.163 111.992C313.394 111.86 313.365 111.629 313.097 111.473L309.48 109.386C309.216 109.233 308.812 109.216 308.585 109.348L304.839 111.51C304.608 111.642 304.637 111.873 304.905 112.025L308.523 114.112C308.787 114.265 309.191 114.282 309.418 114.15V114.154Z" fill="#E06938" stroke="#0D222D" stroke-linejoin="round"/>
<path d="M339.078 111.613L339 111.658C338.872 111.567 338.757 111.477 338.612 111.39L312.478 96.302C310.56 95.1924 307.657 95.0728 305.998 96.0339L279.006 111.617C277.476 110.52 277.394 109.027 278.928 108.144L305.994 92.5155C307.657 91.5545 310.556 91.6782 312.474 92.7836L338.608 107.872C340.526 108.981 340.737 110.656 339.074 111.613H339.078Z" fill="#E06938" stroke="#0D222D" stroke-linejoin="round"/>
<path d="M242.354 101.446V81.4862L287.107 81.4614L302.575 72.5315C306.126 70.4815 312.326 70.7372 316.426 73.1048L330.858 81.4367L375.648 81.4119V101.936C375.747 103.322 374.976 104.663 373.268 105.649L315.427 139.042C311.876 141.092 305.677 140.836 301.577 138.469L245.724 106.222C243.361 104.857 242.218 103.087 242.35 101.441L242.354 101.446Z" fill="#E06938" stroke="#0D222D" stroke-linejoin="round"/>
<path d="M315.432 118.592L373.272 85.1983C376.823 83.1483 376.378 79.5681 372.278 77.2005L316.426 44.9578C312.326 42.5902 306.126 42.3345 302.575 44.3845L244.734 77.778C241.183 79.8279 241.628 83.4082 245.728 85.7757L301.581 118.023C305.681 120.39 311.88 120.646 315.432 118.596V118.592Z" fill="#E06938" stroke="#0D222D" stroke-linejoin="round"/>
<path d="M263.63 106.713C263.63 108.202 264.677 110.012 265.964 110.759C267.255 111.506 268.299 110.899 268.299 109.41C268.299 107.921 267.251 106.11 265.964 105.364C264.673 104.617 263.63 105.224 263.63 106.713Z" fill="#0D222D"/>
<path d="M256.114 102.374C256.114 103.863 257.162 105.673 258.449 106.42C259.74 107.166 260.784 106.56 260.784 105.071C260.784 103.582 259.736 101.771 258.449 101.025C257.158 100.278 256.114 100.884 256.114 102.374Z" fill="#0D222D"/>
<path d="M248.599 98.0344C248.599 99.5234 249.647 101.334 250.934 102.081C252.225 102.827 253.268 102.221 253.268 100.732C253.268 99.2429 252.221 97.4322 250.934 96.6856C249.643 95.939 248.599 96.5454 248.599 98.0344Z" fill="#0D222D"/>
<path d="M312.008 97.8901L339.074 82.2617C340.737 81.3006 340.526 79.626 338.608 78.5206L312.474 63.4325C310.556 62.3229 307.652 62.2033 305.994 63.1644L278.928 78.7928C277.266 79.7539 277.476 81.4285 279.394 82.5339L305.528 97.622C307.446 98.7316 310.35 98.8512 312.008 97.8901Z" fill="#0D222D" stroke="#0D222D" stroke-linejoin="round"/>
<path d="M309.418 84.8023L313.163 82.641C313.394 82.509 313.365 82.278 313.097 82.1213L309.48 80.0342C309.216 79.8816 308.812 79.8651 308.585 79.9971L304.839 82.1584C304.608 82.2904 304.637 82.5214 304.905 82.674L308.523 84.7611C308.787 84.9137 309.191 84.9302 309.418 84.7982V84.8023Z" fill="#E06938"/>
<path d="M316.355 219.28L252.74 182.553C252.002 182.128 251.251 182.062 250.583 182.289V182.281L250.472 182.326C250.463 182.326 250.451 182.335 250.443 182.339L248.145 183.217L250.208 184.228C250.199 184.265 250.187 184.302 250.179 184.339L238.939 235.457C238.419 237.816 239.459 240.571 241.257 241.611L303.342 277.454L303.119 280.086L305.631 279.112C306.477 278.716 307.149 277.825 307.43 276.555L318.669 225.438C319.189 223.078 318.15 220.323 316.351 219.284L316.355 219.28Z" fill="#E06938" stroke="#0D222D" stroke-linejoin="round"/>
<path d="M300.913 279.834L237.297 243.108C235.499 242.069 234.46 239.314 234.979 236.954L246.219 185.837C246.739 183.478 248.616 182.405 250.418 183.445L314.033 220.171C315.832 221.21 316.871 223.966 316.351 226.325L305.111 277.442C304.592 279.801 302.715 280.874 300.913 279.834Z" fill="#E06938" stroke="#0D222D" stroke-linejoin="round"/>
<path d="M299.535 276.324L239.706 241.8C238.061 240.848 237.108 238.327 237.582 236.166L247.943 189.054C248.418 186.892 250.138 185.915 251.783 186.864L311.612 221.387C313.258 222.34 314.211 224.86 313.736 227.022L303.375 274.134C302.901 276.295 301.181 277.273 299.535 276.324Z" fill="#0D222D"/>
<path d="M299.535 276.324L239.706 241.8C238.061 240.848 237.108 238.327 237.582 236.166L247.943 189.054C248.418 186.892 250.138 185.915 251.783 186.864L311.612 221.387C313.258 222.34 314.211 224.86 313.736 227.022L303.375 274.134C302.901 276.295 301.181 277.273 299.535 276.324Z" fill="#0D222D"/>
<path d="M300.059 276.114L240.23 241.59C238.584 240.641 237.632 238.117 238.106 235.96L248.467 188.848C248.706 187.755 249.267 186.967 249.973 186.575C249.024 186.818 248.24 187.709 247.943 189.058L237.582 236.17C237.108 238.332 238.056 240.852 239.706 241.805L299.535 276.328C300.347 276.798 301.176 276.794 301.869 276.411C301.3 276.559 300.673 276.473 300.059 276.118V276.114Z" fill="#0D222D"/>
<path d="M301.791 281.431L293.096 280.284L236.963 247.876C235.165 246.837 232.022 246.969 229.943 248.169L190.169 271.123L184.91 270.43V273.412H184.914C184.881 274.101 185.273 274.765 186.122 275.256L249.737 311.982C251.536 313.022 254.679 312.89 256.758 311.689L300.075 286.69C301.242 286.013 301.828 285.147 301.791 284.33V281.431Z" fill="#E06938" stroke="#0D222D" stroke-linejoin="round"/>
<path d="M249.738 309.004L186.122 272.278C184.324 271.239 184.547 269.424 186.626 268.223L229.943 243.224C232.022 242.023 235.165 241.895 236.963 242.931L300.578 279.657C302.377 280.696 302.154 282.511 300.075 283.712L256.758 308.711C254.679 309.912 251.536 310.039 249.738 309.004Z" fill="#E06938" stroke="#0D222D" stroke-linejoin="round"/>
<path d="M213.18 260.118L210.301 258.456C210.07 258.324 210.099 258.089 210.367 257.936L213.766 255.973C214.034 255.82 214.438 255.804 214.669 255.936L217.548 257.598C217.779 257.73 217.75 257.965 217.482 258.118L214.084 260.081C213.815 260.234 213.411 260.25 213.18 260.118Z" fill="#0D222D"/>
<path d="M217.627 262.684L214.748 261.021C214.517 260.889 214.546 260.654 214.814 260.502L218.213 258.538C218.481 258.386 218.885 258.369 219.116 258.501L221.995 260.163C222.226 260.295 222.197 260.531 221.929 260.683L218.53 262.647C218.262 262.799 217.858 262.816 217.627 262.684Z" fill="#0D222D"/>
<path d="M222.069 265.249L219.19 263.587C218.959 263.455 218.988 263.22 219.256 263.067L222.655 261.104C222.923 260.951 223.327 260.935 223.558 261.067L226.437 262.729C226.668 262.861 226.639 263.096 226.371 263.249L222.972 265.212C222.704 265.365 222.3 265.381 222.069 265.249Z" fill="#0D222D"/>
<path d="M228.219 263.129L225.34 261.467C225.109 261.335 225.138 261.1 225.406 260.947L228.256 259.302C228.524 259.149 228.928 259.132 229.159 259.264L232.038 260.927C232.269 261.059 232.241 261.294 231.972 261.446L229.122 263.092C228.854 263.245 228.45 263.261 228.219 263.129Z" fill="#0D222D"/>
<path d="M232.661 265.695L229.782 264.032C229.551 263.9 229.58 263.665 229.848 263.513L232.698 261.867C232.966 261.714 233.371 261.698 233.602 261.83L236.481 263.492C236.712 263.624 236.683 263.859 236.415 264.012L233.565 265.658C233.296 265.81 232.892 265.827 232.661 265.695Z" fill="#0D222D"/>
<path d="M237.108 268.26L234.229 266.598C233.998 266.466 234.027 266.231 234.295 266.078L237.145 264.433C237.413 264.28 237.817 264.264 238.048 264.396L240.927 266.058C241.158 266.19 241.129 266.425 240.861 266.577L238.011 268.223C237.743 268.376 237.339 268.392 237.108 268.26Z" fill="#0D222D"/>
<path d="M241.554 270.83L238.675 269.168C238.444 269.036 238.473 268.801 238.741 268.648L241.591 267.002C241.859 266.85 242.264 266.833 242.494 266.965L245.374 268.628C245.604 268.76 245.576 268.995 245.308 269.147L242.457 270.793C242.189 270.946 241.785 270.962 241.554 270.83Z" fill="#0D222D"/>
<path d="M245.996 273.396L243.117 271.733C242.886 271.601 242.915 271.366 243.183 271.214L246.034 269.568C246.302 269.415 246.706 269.399 246.937 269.531L249.816 271.193C250.047 271.325 250.018 271.56 249.75 271.713L246.9 273.358C246.632 273.511 246.227 273.528 245.996 273.396Z" fill="#0D222D"/>
<path d="M250.443 275.961L247.564 274.299C247.333 274.167 247.362 273.932 247.63 273.779L250.48 272.134C250.748 271.981 251.152 271.964 251.383 272.096L254.262 273.759C254.493 273.891 254.464 274.126 254.196 274.278L251.346 275.924C251.078 276.077 250.674 276.093 250.443 275.961Z" fill="#0D222D"/>
<path d="M254.885 278.527L252.006 276.864C251.775 276.732 251.804 276.497 252.072 276.345L254.922 274.699C255.19 274.546 255.594 274.53 255.825 274.662L258.704 276.324C258.935 276.456 258.907 276.691 258.638 276.844L255.788 278.49C255.52 278.642 255.116 278.659 254.885 278.527Z" fill="#0D222D"/>
<path d="M259.331 281.092L256.452 279.43C256.221 279.298 256.25 279.063 256.518 278.91L259.369 277.265C259.637 277.112 260.041 277.096 260.272 277.228L263.151 278.89C263.382 279.022 263.353 279.257 263.085 279.409L260.235 281.055C259.967 281.208 259.562 281.224 259.331 281.092Z" fill="#0D222D"/>
<path d="M263.778 283.658L260.899 281.996C260.668 281.864 260.697 281.628 260.965 281.476L263.815 279.83C264.083 279.677 264.487 279.661 264.718 279.793L267.597 281.455C267.828 281.587 267.799 281.822 267.531 281.975L264.681 283.621C264.413 283.773 264.009 283.79 263.778 283.658Z" fill="#0D222D"/>
<path d="M268.22 286.228L265.341 284.565C265.11 284.433 265.139 284.198 265.407 284.046L268.257 282.4C268.525 282.247 268.93 282.231 269.161 282.363L272.04 284.025C272.271 284.157 272.242 284.392 271.974 284.545L269.124 286.19C268.855 286.343 268.451 286.36 268.22 286.228Z" fill="#0D222D"/>
<path d="M234.765 261.917L231.886 260.254C231.655 260.122 231.684 259.887 231.952 259.735L234.802 258.089C235.07 257.936 235.474 257.92 235.705 258.052L238.584 259.714C238.815 259.846 238.786 260.081 238.518 260.234L235.668 261.879C235.4 262.032 234.996 262.049 234.765 261.917Z" fill="#0D222D"/>
<path d="M230.257 259.31L227.378 257.647C227.147 257.515 227.175 257.28 227.444 257.128L230.294 255.482C230.562 255.329 230.966 255.313 231.197 255.445L234.076 257.107C234.307 257.239 234.278 257.474 234.01 257.627L231.16 259.273C230.892 259.425 230.488 259.442 230.257 259.31Z" fill="#0D222D"/>
<path d="M225.736 256.703L219.536 253.123C219.305 252.991 219.334 252.756 219.602 252.603L222.453 250.957C222.721 250.805 223.125 250.788 223.356 250.92L229.555 254.5C229.786 254.632 229.757 254.868 229.489 255.02L226.639 256.666C226.371 256.818 225.967 256.835 225.736 256.703Z" fill="#0D222D"/>
<path d="M228.895 253.527L223.863 250.623C223.632 250.491 223.661 250.256 223.929 250.104L226.779 248.458C227.048 248.305 227.452 248.289 227.683 248.421L232.715 251.324C232.946 251.456 232.917 251.692 232.649 251.844L229.799 253.49C229.531 253.643 229.126 253.659 228.895 253.527Z" fill="#0D222D"/>
<path d="M239.211 264.482L236.332 262.82C236.101 262.688 236.13 262.453 236.398 262.3L239.248 260.654C239.516 260.502 239.921 260.485 240.152 260.617L243.031 262.279C243.262 262.411 243.233 262.647 242.965 262.799L240.114 264.445C239.846 264.598 239.442 264.614 239.211 264.482Z" fill="#0D222D"/>
<path d="M243.658 267.048L240.779 265.385C240.548 265.253 240.577 265.018 240.845 264.866L243.695 263.22C243.963 263.067 244.367 263.051 244.598 263.183L247.477 264.845C247.708 264.977 247.679 265.212 247.411 265.365L244.561 267.011C244.293 267.163 243.889 267.18 243.658 267.048Z" fill="#0D222D"/>
<path d="M248.1 269.613L245.221 267.951C244.99 267.819 245.019 267.584 245.287 267.431L248.137 265.786C248.405 265.633 248.809 265.617 249.04 265.749L251.919 267.411C252.15 267.543 252.122 267.778 251.853 267.931L249.003 269.576C248.735 269.729 248.331 269.745 248.1 269.613Z" fill="#0D222D"/>
<path d="M252.546 272.179L249.667 270.517C249.436 270.385 249.465 270.149 249.733 269.997L252.583 268.351C252.852 268.198 253.256 268.182 253.487 268.314L256.366 269.976C256.597 270.108 256.568 270.343 256.3 270.496L253.45 272.142C253.182 272.294 252.777 272.311 252.546 272.179Z" fill="#0D222D"/>
<path d="M256.993 274.744L254.114 273.082C253.883 272.95 253.912 272.715 254.18 272.563L257.03 270.917C257.298 270.764 257.702 270.748 257.933 270.88L260.812 272.542C261.043 272.674 261.014 272.909 260.746 273.062L257.896 274.707C257.628 274.86 257.224 274.876 256.993 274.744Z" fill="#0D222D"/>
<path d="M261.435 277.314L258.556 275.652C258.325 275.52 258.354 275.285 258.622 275.132L261.472 273.486C261.74 273.334 262.145 273.317 262.376 273.449L265.255 275.111C265.486 275.243 265.457 275.479 265.189 275.631L262.338 277.277C262.07 277.43 261.666 277.446 261.435 277.314Z" fill="#0D222D"/>
<path d="M265.882 279.879L263.003 278.217C262.772 278.085 262.8 277.85 263.069 277.698L265.919 276.052C266.187 275.899 266.591 275.883 266.822 276.015L269.701 277.677C269.932 277.809 269.903 278.044 269.635 278.197L266.785 279.842C266.517 279.995 266.113 280.011 265.882 279.879Z" fill="#0D222D"/>
<path d="M270.328 282.445L267.449 280.783C267.218 280.651 267.247 280.416 267.515 280.263L270.365 278.617C270.633 278.465 271.037 278.448 271.268 278.58L274.147 280.243C274.378 280.375 274.35 280.61 274.081 280.762L271.231 282.408C270.963 282.561 270.559 282.577 270.328 282.445Z" fill="#0D222D"/>
<path d="M274.77 285.011L271.891 283.348C271.66 283.216 271.689 282.981 271.957 282.829L274.807 281.183C275.075 281.03 275.48 281.014 275.711 281.146L278.59 282.808C278.821 282.94 278.792 283.175 278.524 283.328L275.674 284.973C275.405 285.126 275.001 285.143 274.77 285.011Z" fill="#0D222D"/>
<path d="M282.673 289.573L276.391 285.947C276.16 285.815 276.189 285.58 276.457 285.427L279.307 283.782C279.575 283.629 279.98 283.612 280.211 283.744L286.493 287.37C286.724 287.502 286.695 287.737 286.427 287.89L283.576 289.535C283.308 289.688 282.904 289.705 282.673 289.573Z" fill="#0D222D"/>
<path d="M291.327 284.578L286.026 281.517C285.795 281.385 285.824 281.15 286.092 280.997L288.943 279.352C289.211 279.199 289.615 279.182 289.846 279.314L295.146 282.375C295.377 282.507 295.348 282.742 295.08 282.895L292.23 284.54C291.962 284.693 291.558 284.71 291.327 284.578Z" fill="#0D222D"/>
<path d="M246.995 263.979L244.116 262.317C243.885 262.185 243.913 261.95 244.182 261.797L247.032 260.151C247.3 259.999 247.704 259.982 247.935 260.114L250.814 261.776C251.045 261.908 251.016 262.143 250.748 262.296L247.898 263.942C247.63 264.094 247.226 264.111 246.995 263.979Z" fill="#0D222D"/>
<path d="M242.441 261.347L239.562 259.685C239.331 259.553 239.36 259.318 239.628 259.165L242.478 257.52C242.746 257.367 243.15 257.35 243.381 257.482L246.26 259.145C246.491 259.277 246.462 259.512 246.194 259.664L243.344 261.31C243.076 261.463 242.672 261.479 242.441 261.347Z" fill="#0D222D"/>
<path d="M237.883 258.72L235.004 257.058C234.773 256.926 234.802 256.691 235.07 256.538L237.92 254.892C238.188 254.74 238.593 254.723 238.824 254.855L241.703 256.517C241.934 256.649 241.905 256.885 241.637 257.037L238.786 258.683C238.518 258.836 238.114 258.852 237.883 258.72Z" fill="#0D222D"/>
<path d="M233.329 256.088L230.45 254.426C230.219 254.294 230.248 254.059 230.516 253.907L233.367 252.261C233.635 252.108 234.039 252.092 234.27 252.224L237.149 253.886C237.38 254.018 237.351 254.253 237.083 254.406L234.233 256.051C233.965 256.204 233.56 256.22 233.329 256.088Z" fill="#0D222D"/>
<path d="M251.441 266.545L248.562 264.882C248.331 264.75 248.36 264.515 248.628 264.363L251.478 262.717C251.746 262.564 252.15 262.548 252.381 262.68L255.26 264.342C255.491 264.474 255.463 264.709 255.194 264.862L252.344 266.507C252.076 266.66 251.672 266.677 251.441 266.545Z" fill="#0D222D"/>
<path d="M255.887 269.11L253.008 267.448C252.777 267.316 252.806 267.081 253.074 266.928L255.924 265.282C256.193 265.13 256.597 265.113 256.828 265.245L259.707 266.907C259.938 267.039 259.909 267.274 259.641 267.427L256.791 269.073C256.522 269.225 256.118 269.242 255.887 269.11Z" fill="#0D222D"/>
<path d="M260.33 271.676L257.451 270.013C257.22 269.881 257.249 269.646 257.517 269.494L260.367 267.848C260.635 267.695 261.039 267.679 261.27 267.811L264.149 269.473C264.38 269.605 264.351 269.84 264.083 269.993L261.233 271.639C260.965 271.791 260.561 271.808 260.33 271.676Z" fill="#0D222D"/>
<path d="M264.776 274.245L261.897 272.583C261.666 272.451 261.695 272.216 261.963 272.063L264.813 270.418C265.081 270.265 265.486 270.249 265.717 270.381L268.596 272.043C268.827 272.175 268.798 272.41 268.53 272.563L265.679 274.208C265.411 274.361 265.007 274.377 264.776 274.245Z" fill="#0D222D"/>
<path d="M269.218 276.811L266.339 275.148C266.108 275.016 266.137 274.781 266.405 274.629L269.255 272.983C269.523 272.83 269.928 272.814 270.159 272.946L273.038 274.608C273.269 274.74 273.24 274.975 272.972 275.128L270.122 276.774C269.853 276.926 269.449 276.943 269.218 276.811Z" fill="#0D222D"/>
<path d="M273.665 279.376L270.786 277.714C270.555 277.582 270.584 277.347 270.852 277.194L273.702 275.549C273.97 275.396 274.374 275.379 274.605 275.511L277.484 277.174C277.715 277.306 277.686 277.541 277.418 277.693L274.568 279.339C274.3 279.492 273.896 279.508 273.665 279.376Z" fill="#0D222D"/>
<path d="M278.111 281.942L275.232 280.279C275.001 280.148 275.03 279.912 275.298 279.76L278.148 278.114C278.416 277.961 278.821 277.945 279.052 278.077L281.931 279.739C282.162 279.871 282.133 280.106 281.865 280.259L279.014 281.905C278.746 282.057 278.342 282.074 278.111 281.942Z" fill="#0D222D"/>
<path d="M282.553 284.507L279.674 282.845C279.443 282.713 279.472 282.478 279.74 282.325L282.591 280.68C282.859 280.527 283.263 280.511 283.494 280.643L286.373 282.305C286.604 282.437 286.575 282.672 286.307 282.825L283.457 284.47C283.189 284.623 282.784 284.639 282.553 284.507Z" fill="#0D222D"/>
<path d="M287 287.077L284.121 285.415C283.89 285.283 283.919 285.048 284.187 284.895L287.037 283.25C287.305 283.097 287.709 283.08 287.94 283.212L290.819 284.875C291.05 285.007 291.021 285.242 290.753 285.394L287.903 287.04C287.635 287.193 287.231 287.209 287 287.077Z" fill="#0D222D"/>
<path d="M244.656 257.631L241.777 255.969C241.546 255.837 241.575 255.602 241.843 255.449L244.693 253.803C244.961 253.651 245.365 253.634 245.596 253.766L248.475 255.429C248.706 255.561 248.678 255.796 248.409 255.948L245.559 257.594C245.291 257.747 244.887 257.763 244.656 257.631Z" fill="#0D222D"/>
<path d="M240.234 255.078L237.355 253.415C237.124 253.283 237.153 253.048 237.421 252.896L240.271 251.25C240.539 251.097 240.944 251.081 241.175 251.213L244.054 252.875C244.285 253.007 244.256 253.242 243.988 253.395L241.138 255.041C240.869 255.193 240.465 255.21 240.234 255.078Z" fill="#0D222D"/>
<path d="M235.808 252.525L232.929 250.863C232.698 250.731 232.727 250.495 232.995 250.343L235.846 248.697C236.114 248.544 236.518 248.528 236.749 248.66L239.628 250.322C239.859 250.454 239.83 250.689 239.562 250.842L236.712 252.488C236.444 252.64 236.039 252.657 235.808 252.525Z" fill="#0D222D"/>
<path d="M231.387 249.971L228.508 248.309C228.277 248.177 228.306 247.942 228.574 247.789L231.424 246.144C231.692 245.991 232.096 245.974 232.327 246.106L235.206 247.769C235.437 247.901 235.408 248.136 235.14 248.288L232.29 249.934C232.022 250.087 231.618 250.103 231.387 249.971Z" fill="#0D222D"/>
<path d="M235.936 247.344L233.057 245.682C232.826 245.55 232.855 245.315 233.123 245.162L234.068 244.618C234.336 244.465 234.74 244.449 234.971 244.581L237.85 246.243C238.081 246.375 238.052 246.61 237.784 246.763L236.84 247.307C236.571 247.46 236.167 247.476 235.936 247.344Z" fill="#0D222D"/>
<path d="M241.707 250.677L238.828 249.015C238.597 248.883 238.625 248.648 238.894 248.495L239.838 247.95C240.106 247.798 240.51 247.781 240.741 247.913L243.62 249.576C243.851 249.708 243.823 249.943 243.554 250.095L242.61 250.64C242.342 250.792 241.938 250.809 241.707 250.677Z" fill="#0D222D"/>
<path d="M246.112 253.222L243.233 251.56C243.002 251.428 243.031 251.192 243.299 251.04L244.243 250.495C244.511 250.343 244.916 250.326 245.147 250.458L248.026 252.121C248.257 252.252 248.228 252.488 247.96 252.64L247.015 253.185C246.747 253.337 246.343 253.354 246.112 253.222Z" fill="#0D222D"/>
<path d="M250.517 255.763L247.638 254.1C247.407 253.968 247.436 253.733 247.704 253.581L248.649 253.036C248.917 252.884 249.321 252.867 249.552 252.999L252.431 254.661C252.662 254.793 252.633 255.028 252.365 255.181L251.42 255.725C251.152 255.878 250.748 255.895 250.517 255.763Z" fill="#0D222D"/>
<path d="M254.918 258.307L252.039 256.645C251.808 256.513 251.837 256.278 252.105 256.126L253.05 255.581C253.318 255.428 253.722 255.412 253.953 255.544L256.832 257.206C257.063 257.338 257.034 257.573 256.766 257.726L255.821 258.27C255.553 258.423 255.149 258.439 254.918 258.307Z" fill="#0D222D"/>
<path d="M279.51 272.501L276.63 270.838C276.399 270.706 276.428 270.471 276.696 270.319L277.641 269.774C277.909 269.622 278.313 269.605 278.544 269.737L281.423 271.399C281.654 271.531 281.625 271.766 281.357 271.919L280.413 272.463C280.145 272.616 279.74 272.633 279.51 272.501Z" fill="#0D222D"/>
<path d="M283.915 275.045L281.036 273.383C280.805 273.251 280.833 273.016 281.102 272.863L282.046 272.319C282.314 272.166 282.718 272.15 282.949 272.282L285.829 273.944C286.059 274.076 286.031 274.311 285.762 274.464L284.818 275.008C284.55 275.161 284.146 275.177 283.915 275.045Z" fill="#0D222D"/>
<path d="M288.316 277.586L285.437 275.924C285.206 275.792 285.234 275.557 285.503 275.404L286.447 274.86C286.715 274.707 287.119 274.691 287.35 274.823L290.23 276.485C290.46 276.617 290.432 276.852 290.163 277.005L289.219 277.549C288.951 277.702 288.547 277.718 288.316 277.586Z" fill="#0D222D"/>
<path d="M292.721 280.131L289.842 278.469C289.611 278.337 289.64 278.102 289.908 277.949L290.852 277.405C291.12 277.252 291.525 277.236 291.756 277.368L294.635 279.03C294.866 279.162 294.837 279.397 294.569 279.55L293.624 280.094C293.356 280.247 292.952 280.263 292.721 280.131Z" fill="#0D222D"/>
<path d="M249.098 260.197L246.219 258.534C245.988 258.402 246.017 258.167 246.285 258.015L249.135 256.369C249.403 256.216 249.808 256.2 250.039 256.332L252.918 257.994C253.149 258.126 253.12 258.361 252.852 258.514L250.001 260.159C249.733 260.312 249.329 260.329 249.098 260.197Z" fill="#0D222D"/>
<path d="M253.545 262.762L250.665 261.1C250.435 260.968 250.463 260.733 250.731 260.58L253.582 258.934C253.85 258.782 254.254 258.765 254.485 258.897L257.364 260.559C257.595 260.691 257.566 260.927 257.298 261.079L254.448 262.725C254.18 262.878 253.776 262.894 253.545 262.762Z" fill="#0D222D"/>
<path d="M257.991 265.332L255.112 263.67C254.881 263.538 254.91 263.303 255.178 263.15L258.028 261.504C258.296 261.352 258.7 261.335 258.931 261.467L261.81 263.129C262.041 263.261 262.013 263.496 261.744 263.649L258.894 265.295C258.626 265.447 258.222 265.464 257.991 265.332Z" fill="#0D222D"/>
<path d="M262.433 267.897L259.554 266.235C259.323 266.103 259.352 265.868 259.62 265.715L262.47 264.07C262.738 263.917 263.143 263.9 263.374 264.032L266.253 265.695C266.484 265.827 266.455 266.062 266.187 266.214L263.337 267.86C263.068 268.013 262.664 268.029 262.433 267.897Z" fill="#0D222D"/>
<path d="M266.88 270.463L264.001 268.801C263.77 268.669 263.799 268.434 264.067 268.281L266.917 266.635C267.185 266.483 267.589 266.466 267.82 266.598L270.699 268.26C270.93 268.392 270.901 268.628 270.633 268.78L267.783 270.426C267.515 270.578 267.111 270.595 266.88 270.463Z" fill="#0D222D"/>
<path d="M271.326 273.028L268.447 271.366C268.216 271.234 268.245 270.999 268.513 270.846L271.363 269.201C271.631 269.048 272.035 269.032 272.266 269.164L275.145 270.826C275.376 270.958 275.348 271.193 275.079 271.346L272.229 272.991C271.961 273.144 271.557 273.16 271.326 273.028Z" fill="#0D222D"/>
<path d="M275.768 275.594L272.889 273.932C272.658 273.8 272.687 273.565 272.955 273.412L275.806 271.766C276.074 271.614 276.478 271.597 276.709 271.729L279.588 273.392C279.819 273.523 279.79 273.759 279.522 273.911L276.672 275.557C276.404 275.71 275.999 275.726 275.768 275.594Z" fill="#0D222D"/>
<path d="M280.215 278.16L277.336 276.497C277.105 276.365 277.134 276.13 277.402 275.978L280.252 274.332C280.52 274.179 280.924 274.163 281.155 274.295L284.034 275.957C284.265 276.089 284.236 276.324 283.968 276.477L281.118 278.122C280.85 278.275 280.446 278.292 280.215 278.16Z" fill="#0D222D"/>
<path d="M284.661 280.729L281.782 279.067C281.551 278.935 281.58 278.7 281.848 278.547L284.698 276.902C284.966 276.749 285.371 276.733 285.602 276.864L288.481 278.527C288.712 278.659 288.683 278.894 288.415 279.046L285.565 280.692C285.296 280.845 284.892 280.861 284.661 280.729Z" fill="#0D222D"/>
<path d="M223.686 260.514L215.21 255.618C214.979 255.486 215.008 255.251 215.276 255.098L218.126 253.453C218.394 253.3 218.798 253.284 219.029 253.416L227.505 258.312C227.736 258.444 227.708 258.679 227.439 258.831L224.589 260.477C224.321 260.63 223.917 260.646 223.686 260.514Z" fill="#0D222D"/>
<path d="M278.293 292.043L269.816 287.147C269.586 287.015 269.614 286.78 269.882 286.627L272.733 284.982C273.001 284.829 273.405 284.813 273.636 284.945L282.112 289.841C282.343 289.973 282.314 290.208 282.046 290.36L279.196 292.006C278.928 292.159 278.524 292.175 278.293 292.043Z" fill="#0D222D"/>
<path d="M260.519 287.448L257.64 285.786C257.409 285.654 257.438 285.419 257.706 285.266L261.105 283.303C261.373 283.15 261.777 283.134 262.008 283.266L264.887 284.928C265.118 285.06 265.09 285.295 264.821 285.448L261.423 287.411C261.155 287.564 260.75 287.58 260.519 287.448Z" fill="#0D222D"/>
<path d="M228.24 268.813L223.636 266.157C223.405 266.025 223.434 265.79 223.702 265.637L227.101 263.674C227.369 263.521 227.774 263.505 228.004 263.637L232.608 266.293C232.839 266.425 232.81 266.66 232.542 266.813L229.143 268.776C228.875 268.929 228.471 268.945 228.24 268.813Z" fill="#0D222D"/>
<path d="M256.238 284.974L251.635 282.317C251.404 282.185 251.433 281.95 251.701 281.798L255.1 279.834C255.368 279.682 255.772 279.665 256.003 279.797L260.606 282.453C260.837 282.585 260.808 282.821 260.54 282.973L257.141 284.936C256.873 285.089 256.469 285.106 256.238 284.974Z" fill="#0D222D"/>
<path d="M234.653 272.513L230.05 269.857C229.819 269.725 229.848 269.49 230.116 269.337L233.515 267.374C233.783 267.221 234.187 267.204 234.418 267.336L239.021 269.993C239.252 270.125 239.224 270.36 238.955 270.512L235.557 272.476C235.289 272.628 234.884 272.645 234.653 272.513Z" fill="#0D222D"/>
<path d="M234.443 267.353L254.456 278.906C254.704 279.051 254.704 279.282 254.456 279.426L250.991 281.426C250.744 281.571 250.34 281.571 250.092 281.426L230.079 269.873L234.443 267.353Z" fill="#0D222D"/>
<path d="M272.943 292.101L276.148 293.953C276.338 294.064 276.313 294.254 276.094 294.378L274.704 295.182C274.486 295.31 274.156 295.322 273.966 295.211L270.761 293.359C270.571 293.248 270.596 293.058 270.815 292.934L272.205 292.13C272.423 292.002 272.753 291.99 272.943 292.101Z" fill="#0D222D"/>
<path d="M268.459 289.511L271.664 291.363C271.854 291.474 271.829 291.664 271.611 291.788L270.221 292.592C270.002 292.72 269.672 292.732 269.482 292.621L266.278 290.769C266.088 290.657 266.113 290.468 266.331 290.344L267.721 289.54C267.94 289.412 268.27 289.399 268.459 289.511Z" fill="#0D222D"/>
<path d="M264.013 286.945L267.218 288.797C267.408 288.909 267.383 289.098 267.164 289.222L265.774 290.026C265.556 290.154 265.226 290.167 265.036 290.055L261.831 288.203C261.641 288.092 261.666 287.902 261.885 287.779L263.275 286.974C263.493 286.846 263.823 286.834 264.013 286.945Z" fill="#0D222D"/>
<path d="M270.914 288.096L274.119 289.948C274.308 290.059 274.284 290.249 274.065 290.373L272.675 291.177C272.456 291.305 272.126 291.317 271.937 291.206L268.732 289.354C268.542 289.243 268.567 289.053 268.785 288.929L270.175 288.125C270.394 287.997 270.724 287.985 270.914 288.096Z" fill="#0D222D"/>
<path d="M261.979 210.618L254.749 206.444L255.058 204.889L262.289 209.063L261.979 210.618Z" fill="#E06938"/>
<path d="M261.196 214.235L253.965 210.061L254.274 208.506L261.505 212.68L261.196 214.235Z" fill="#0D222D"/>
<path d="M296.676 264.408L289.45 260.234L289.755 258.679L296.986 262.853L296.676 264.408Z" fill="#E06938"/>
<path d="M259.628 221.47L252.398 217.296L252.707 215.741L259.934 219.915L259.628 221.47Z" fill="#E06938"/>
<path d="M144.108 219.827L155.699 213.001L144.661 199.22L141.757 203.964L144.108 219.827Z" fill="#E06938" stroke="#0D222D" stroke-linejoin="round"/>
<path d="M59.9318 144.201L78.4351 133.555C78.4351 133.555 77.738 144.181 77.738 144.201C77.738 144.222 67.1087 147.493 67.1087 147.493L59.9318 144.201Z" fill="#E06938" stroke="#0D222D" stroke-linejoin="round"/>
<path d="M147.33 185.18C145.923 184.367 144.579 183.893 143.325 183.695C141.46 173.891 134.638 163.48 126.504 158.782C124.058 157.371 121.732 156.617 119.62 156.452C118.511 144.568 110.249 131.064 100.213 125.269C94.971 122.241 90.2152 121.887 86.7093 123.739V123.73L86.5401 123.829C86.4494 123.879 86.3628 123.928 86.272 123.982L75.3622 130.425L78.9878 133.287C75.7335 134.71 73.6752 138.361 73.6752 143.756C73.6752 153.704 80.6583 165.802 89.2748 170.777L147.326 212.23C153.797 215.967 159.04 212.939 159.04 205.465C159.04 197.991 153.793 188.909 147.326 185.176L147.33 185.18Z" fill="#E06938" stroke="#0D222D" stroke-linejoin="round"/>
<path d="M135.876 191.924C134.469 191.111 133.124 190.637 131.871 190.439C130.006 180.635 123.184 170.224 115.05 165.526C112.604 164.115 110.278 163.36 108.166 163.195C107.056 151.312 98.7946 137.808 88.7593 132.013C77.9691 125.784 69.2206 130.833 69.2206 143.294C69.2206 143.714 69.233 144.143 69.2536 144.572C61.3631 140.914 55.1967 145.034 55.1967 154.381C55.1967 164.33 62.1798 176.427 70.7962 181.402L135.871 218.974C142.343 222.71 147.586 219.683 147.586 212.209C147.586 204.735 142.339 195.653 135.871 191.92L135.876 191.924Z" fill="#E06938" stroke="#0D222D" stroke-linejoin="round"/>
<path d="M67.8801 147.542L72.7719 149.811L72.5245 144.424C72.508 144.045 72.4956 143.669 72.4956 143.298C72.4956 138.489 73.9475 135.003 76.5832 133.481C79.2188 131.959 82.9641 132.446 87.13 134.851C96.0847 140.019 103.897 152.607 104.916 163.505L105.171 166.252L107.918 166.462C109.61 166.59 111.457 167.229 113.417 168.364C120.528 172.472 126.941 182.012 128.661 191.054L129.09 193.318L131.367 193.673C132.275 193.817 133.24 194.18 134.242 194.758C139.707 197.913 144.323 205.907 144.323 212.217C144.323 214.577 143.667 216.309 142.529 216.969C141.386 217.629 139.559 217.328 137.517 216.148L72.442 178.576C64.8732 174.204 58.4758 163.13 58.4758 154.385C58.4758 150.953 59.4863 148.343 61.2517 147.216C61.9776 146.754 62.8562 146.524 63.8461 146.524C65.0505 146.524 66.4199 146.866 67.8842 147.542H67.8801Z" fill="#E06938" stroke="#0D222D" stroke-linejoin="round"/>
<path d="M100.358 188.327L102.074 187.469L100.383 186.186L100.358 188.327Z" fill="#0D222D" stroke="#0D222D" stroke-linejoin="round"/>
<path d="M95.202 165.138L96.8683 164.297L96.8972 165.171L95.202 165.138Z" fill="#E06938" stroke="#0D222D" stroke-linejoin="round"/>
<path d="M105.254 182.907L106.994 182.033L103.645 178.849L105.254 182.907Z" fill="#0D222D" stroke="#0D222D" stroke-linejoin="round"/>
<path d="M101.571 187.411L93.4449 182.623C93.0324 182.379 92.6983 181.769 92.7024 181.257L92.7272 171.849L102.35 177.516L102.325 186.925C102.325 187.436 101.987 187.655 101.575 187.411H101.571Z" fill="#0D222D" stroke="#0D222D" stroke-linejoin="round"/>
<path d="M96.8476 164.309L88.0703 169.956C87.6991 170.195 88.0002 171.09 88.5653 171.424L97.5323 176.704L106.499 181.983C107.065 182.318 107.37 181.781 106.999 181.105L98.283 165.151C97.9077 164.462 97.2312 164.066 96.8518 164.309H96.8476Z" fill="#0D222D" stroke="#0D222D" stroke-linejoin="round"/>
<path d="M99.8299 188.29L91.7042 183.505C91.2917 183.262 90.9576 182.652 90.9618 182.14L90.9865 172.732L100.609 178.399L100.585 187.807C100.585 188.319 100.246 188.538 99.834 188.294L99.8299 188.29Z" fill="#0D222D" stroke="#0D222D" stroke-linejoin="round"/>
<path d="M95.107 165.183L86.3297 170.83C85.9585 171.069 86.2596 171.964 86.8247 172.298L95.7917 177.578L104.759 182.858C105.324 183.192 105.629 182.656 105.258 181.979L96.5424 166.025C96.1671 165.336 95.4906 164.94 95.1112 165.183H95.107Z" fill="#0D222D" stroke="#0D222D" stroke-linejoin="round"/>
</g>
<defs>
<radialGradient id="paint0_radial_738_3653" cx="0" cy="0" r="1" gradientUnits="userSpaceOnUse" gradientTransform="translate(226 275) rotate(90) scale(134.5 280.783)">
<stop stop-color="#D9D9D9"/>
<stop offset="1" stop-color="#D9D9D9" stop-opacity="0"/>
</radialGradient>
<clipPath id="clip0_738_3653">
<rect width="419" height="400" fill="white"/>
</clipPath>
</defs>
</svg>
