<svg width="116" height="53" viewBox="0 0 116 53" fill="none" xmlns="http://www.w3.org/2000/svg">
<path fill-rule="evenodd" clip-rule="evenodd" d="M26.2334 36.0449V17.8022H37.4092V21.8079H31.0814V24.9714H37.0471V28.8757H31.0814V36.0449H26.2334ZM39.0665 36.0448V23.4661H43.2559V26.4302C43.6897 25.3457 44.2766 24.5375 45.0244 23.9979C45.773 23.4574 46.6791 23.1854 47.7418 23.1854C47.9167 23.1854 48.0951 23.1898 48.2736 23.202C48.452 23.2151 48.6304 23.237 48.8141 23.2624L48.3803 27.2934C48.117 27.2042 47.8529 27.1404 47.5975 27.0984C47.3386 27.0591 47.092 27.0381 46.8497 27.0381C45.773 27.0381 44.9448 27.3695 44.357 28.029C43.7746 28.6885 43.4816 29.6234 43.4816 30.8356V36.0448H39.0665ZM58.3527 28.136C58.267 27.4214 57.995 26.8468 57.5358 26.413C57.0723 25.9801 56.5064 25.7623 55.8303 25.7623C55.1079 25.7623 54.5298 25.9582 54.0995 26.3544C53.6744 26.7497 53.3893 27.3453 53.245 28.136H58.3527ZM62.7152 30.6359H53.147C53.1557 31.6067 53.4058 32.3545 53.8956 32.8819C54.3889 33.4085 55.0816 33.6726 55.979 33.6726C56.655 33.6726 57.2209 33.5458 57.6845 33.2948C58.1436 33.0394 58.497 32.665 58.7392 32.1674L62.0768 33.5117C61.6771 34.4764 60.9721 35.2207 59.9602 35.7437C58.943 36.2667 57.7011 36.5308 56.23 36.5308C54.0364 36.5308 52.275 35.9221 50.9526 34.7064C49.6258 33.4854 48.9628 31.8823 48.9628 29.8881C48.9628 27.9281 49.6258 26.2987 50.9482 25.0017C52.275 23.7046 53.9507 23.0583 55.9746 23.0583C58.0588 23.0583 59.7048 23.7134 60.9083 25.027C62.1117 26.3416 62.7152 28.1407 62.7152 30.4234V30.6359ZM63.3231 35.0002L64.2458 31.6068C64.8965 32.1718 65.6076 32.6047 66.3842 32.9117C67.1635 33.2134 67.9454 33.3673 68.7326 33.3673C69.2897 33.3673 69.7148 33.2773 70.0043 33.0988C70.2973 32.9204 70.4416 32.6607 70.4416 32.3204C70.4416 31.7642 69.8547 31.347 68.681 31.0706C68.2988 30.9814 67.9883 30.9001 67.7582 30.8362C66.4271 30.4706 65.4659 29.9905 64.8624 29.3949C64.2624 28.8036 63.9607 28.0296 63.9607 27.0859C63.9607 25.8614 64.4199 24.8871 65.3391 24.1559C66.2574 23.4239 67.4994 23.0583 69.0684 23.0583C69.8757 23.0583 70.6969 23.1519 71.5305 23.339C72.3631 23.5271 73.2193 23.8157 74.0904 24.2066L73.1677 27.2687C72.5809 26.869 71.9818 26.562 71.3722 26.3547C70.7652 26.1457 70.1617 26.0433 69.553 26.0433C69.0466 26.0433 68.6643 26.1247 68.4055 26.2821C68.1457 26.4395 68.0171 26.6687 68.0171 26.9661C68.0171 27.413 68.5996 27.7917 69.7646 28.1022C70.0331 28.1739 70.2334 28.2299 70.3655 28.264C71.9004 28.7022 72.9683 29.2199 73.5709 29.8112C74.1718 30.4077 74.4727 31.2114 74.4727 32.2225C74.4727 33.5073 73.9802 34.5489 72.9893 35.3396C72.0027 36.1355 70.6926 36.5308 69.0684 36.5308C67.962 36.5308 66.937 36.4031 65.9889 36.1521C65.0408 35.8967 64.1522 35.5145 63.3231 35.0002ZM76.0759 36.0451V16.7302H80.4393V23.5093C80.4393 23.9553 80.4262 24.3725 80.4017 24.7547C80.3755 25.1378 80.3414 25.4824 80.2907 25.7885C80.8469 24.8483 81.502 24.16 82.255 23.7174C83.0125 23.2793 83.9142 23.058 84.9559 23.058C85.7719 23.058 86.4943 23.19 87.1284 23.4498C87.7625 23.7131 88.2803 24.0874 88.6773 24.5807C89.0123 25.0014 89.2467 25.52 89.3866 26.1244C89.5266 26.7322 89.5992 27.6383 89.5992 28.8418V36.0451H85.1596V29.3053C85.1596 28.2978 84.9943 27.5701 84.6664 27.1109C84.3393 26.6561 83.8154 26.4261 83.0929 26.4261C82.1702 26.4261 81.4985 26.7663 81.0726 27.4468C80.6519 28.1272 80.4393 29.2328 80.4393 30.7642V36.0451H76.0759V36.0451Z" fill="#343331"/>
<path fill-rule="evenodd" clip-rule="evenodd" d="M56.2914 21.2956C57.5666 18.8905 59.3596 17.9712 62.4767 18.0272C61.1656 21.412 59.3316 22.6714 55.7011 22.6058C55.2935 21.349 54.5693 20.261 53.3606 19.431C53.6606 18.9762 53.9606 18.5214 54.2614 18.0657C55.3442 19.082 55.9495 20.1691 56.2914 21.2956" fill="#343331"/>
</svg>
