<svg width="29" height="29" viewBox="0 0 29 29" fill="none" xmlns="http://www.w3.org/2000/svg">
<rect y="0.5" width="28.389" height="28.389" rx="4.98053" fill="#F28230"/>
<rect x="0.249026" y="0.749026" width="27.891" height="27.891" rx="4.7315" stroke="url(#paint0_linear_5522_46714)" stroke-opacity="0.2" stroke-width="0.498053"/>
<path d="M12.7002 9.46497H9.96095C9.41082 9.46497 8.96484 9.91094 8.96484 10.4611V17.6828H19.424V15.8151" stroke="white" stroke-width="0.996105" stroke-linecap="round" stroke-linejoin="round"/>
<path d="M18.2767 9.46498C18.8297 9.46498 19.3125 9.7654 19.5709 10.2119M18.2767 9.46498C17.7237 9.46498 17.2408 9.7654 16.9825 10.2119M18.2767 9.46498V7.97083M18.2767 13.9475V12.4285M20.8646 9.46498L19.5709 10.2119M15.6887 12.4533L16.9825 11.7063M20.8646 12.4533L19.5709 11.7064M15.6887 9.46498L16.9825 10.2119M16.9825 11.7063C16.8553 11.4865 16.7825 11.2313 16.7825 10.9591C16.7825 10.6869 16.8553 10.4317 16.9825 10.2119M16.9825 11.7063C17.2767 12.2148 17.7788 12.4385 18.2767 12.4285M18.2767 12.4285C18.7906 12.4181 19.2999 12.1587 19.5709 11.7064M19.5709 11.7064C19.6964 11.4968 19.7708 11.2459 19.7708 10.9591C19.7708 10.6869 19.698 10.4317 19.5709 10.2119" stroke="white" stroke-width="0.996105" stroke-linecap="round"/>
<path d="M7.4707 17.6829H20.9181V18.928C20.9181 19.4781 20.4722 19.9241 19.922 19.9241H8.46681C7.91667 19.9241 7.4707 19.4781 7.4707 18.928V17.6829Z" stroke="white" stroke-width="0.996105" stroke-linecap="round" stroke-linejoin="round"/>
<defs>
<linearGradient id="paint0_linear_5522_46714" x1="29.3626" y1="30.4832" x2="-3.79726" y2="11.9719" gradientUnits="userSpaceOnUse">
<stop stop-color="white" stop-opacity="0.2"/>
<stop offset="0.506386" stop-color="white"/>
<stop offset="1" stop-color="white" stop-opacity="0.2"/>
</linearGradient>
</defs>
</svg>
