<svg width="18" height="18" viewBox="0 0 18 18" fill="none" xmlns="http://www.w3.org/2000/svg">
<path d="M6.12037 1.47754H12.1726C14.4782 1.47754 16.3515 3.35084 16.3515 5.65644V11.7086C16.3515 12.817 15.9112 13.8799 15.1275 14.6636C14.3438 15.4473 13.2809 15.8875 12.1726 15.8875H6.12037C3.81477 15.8875 1.94147 14.0142 1.94147 11.7086V5.65644C1.94147 4.54813 2.38174 3.48521 3.16544 2.70151C3.94913 1.91781 5.01205 1.47754 6.12037 1.47754ZM5.97627 2.91854C5.28835 2.91854 4.62861 3.19181 4.14217 3.67825C3.65574 4.16468 3.38247 4.82442 3.38247 5.51234V11.8527C3.38247 13.2865 4.54247 14.4465 5.97627 14.4465H12.3167C13.0046 14.4465 13.6643 14.1733 14.1508 13.6868C14.6372 13.2004 14.9105 12.5407 14.9105 11.8527V5.51234C14.9105 4.07854 13.7505 2.91854 12.3167 2.91854H5.97627ZM12.9291 3.99929C13.168 3.99929 13.397 4.09418 13.5659 4.26308C13.7348 4.43198 13.8297 4.66105 13.8297 4.89991C13.8297 5.13877 13.7348 5.36785 13.5659 5.53675C13.397 5.70565 13.168 5.80054 12.9291 5.80054C12.6902 5.80054 12.4612 5.70565 12.2923 5.53675C12.1234 5.36785 12.0285 5.13877 12.0285 4.89991C12.0285 4.66105 12.1234 4.43198 12.2923 4.26308C12.4612 4.09418 12.6902 3.99929 12.9291 3.99929ZM9.14647 5.08004C10.1019 5.08004 11.0182 5.45959 11.6938 6.13519C12.3694 6.81079 12.749 7.7271 12.749 8.68254C12.749 9.63798 12.3694 10.5543 11.6938 11.2299C11.0182 11.9055 10.1019 12.285 9.14647 12.285C8.19102 12.285 7.27471 11.9055 6.59911 11.2299C5.92351 10.5543 5.54397 9.63798 5.54397 8.68254C5.54397 7.7271 5.92351 6.81079 6.59911 6.13519C7.27471 5.45959 8.19102 5.08004 9.14647 5.08004ZM9.14647 6.52104C8.5732 6.52104 8.02341 6.74877 7.61805 7.15413C7.2127 7.55949 6.98497 8.10927 6.98497 8.68254C6.98497 9.2558 7.2127 9.80559 7.61805 10.2109C8.02341 10.6163 8.5732 10.844 9.14647 10.844C9.71973 10.844 10.2695 10.6163 10.6749 10.2109C11.0802 9.80559 11.308 9.2558 11.308 8.68254C11.308 8.10927 11.0802 7.55949 10.6749 7.15413C10.2695 6.74877 9.71973 6.52104 9.14647 6.52104Z" fill="#DDDFE0"/>
</svg>
