<svg width="116" height="53" viewBox="0 0 116 53" fill="none" xmlns="http://www.w3.org/2000/svg">
<path fill-rule="evenodd" clip-rule="evenodd" d="M17.859 35.5993L28.7478 41.8859C29.7998 42.4934 31.096 42.4934 32.148 41.8859L43.0367 35.5993C44.0888 34.9919 44.7368 33.8694 44.7368 32.6547V20.0814C44.7368 18.8666 44.0888 17.7441 43.0367 17.1367L32.148 10.8501C31.096 10.2427 29.7998 10.2427 28.7478 10.8501L17.859 17.1367C16.807 17.7441 16.1589 18.8666 16.1589 20.0814V32.6547C16.1589 33.8694 16.807 34.9919 17.859 35.5993ZM32.9592 29.147C30.6113 31.2687 30.9269 32.8853 32.4737 34.5969H32.4694C32.9085 35.0815 33.1783 35.7223 33.1783 36.4277C33.1783 37.9357 31.9558 39.1582 30.4478 39.1582C28.9397 39.1582 27.7172 37.9357 27.7172 36.4277C27.7172 35.7223 27.987 35.0815 28.4261 34.5969H28.4219C29.9687 32.8853 30.2842 31.2687 27.9364 29.147H27.9427C27.1828 28.4615 26.7022 27.4721 26.7022 26.368C26.7022 25.2639 27.1828 24.2746 27.9427 23.5891H27.9364C30.2842 21.4673 29.9687 19.8508 28.4219 18.1392H28.4261C27.987 17.6546 27.7172 17.0138 27.7172 16.3084C27.7172 14.8003 28.9397 13.5778 30.4478 13.5778C31.9558 13.5778 33.1783 14.8003 33.1783 16.3084C33.1783 17.0138 32.9085 17.6546 32.4694 18.1392H32.4737C30.9269 19.8508 30.6113 21.4673 32.9592 23.5891H32.9528C33.7128 24.2746 34.1934 25.2639 34.1934 26.368C34.1934 27.4721 33.7128 28.4615 32.9528 29.147H32.9592ZM24.9824 29.0932C24.1645 28.1881 23.6966 27.3089 23.779 26.3682C23.6966 25.4275 24.1645 24.5484 24.9824 23.6433H24.9782C25.4173 23.1587 25.6871 22.5179 25.6871 21.8125C25.6871 20.3045 24.4646 19.082 22.9566 19.082C21.4485 19.082 20.226 20.3045 20.226 21.8125C20.226 22.5179 20.4958 23.1587 20.9349 23.6433H20.9307C21.7486 24.5484 22.2165 25.4275 22.1341 26.3682C22.2165 27.3089 21.7486 28.1881 20.9307 29.0932H20.9349C20.4958 29.5777 20.226 30.2185 20.226 30.924C20.226 32.432 21.4485 33.6545 22.9566 33.6545C24.4646 33.6545 25.6871 32.432 25.6871 30.924C25.6871 30.2185 25.4173 29.5777 24.9782 29.0932H24.9824ZM38.7615 26.3682C38.6791 27.3089 39.147 28.1881 39.9649 29.0932H39.9607C40.3998 29.5777 40.6696 30.2185 40.6696 30.924C40.6696 32.432 39.4471 33.6545 37.939 33.6545C36.431 33.6545 35.2085 32.432 35.2085 30.924C35.2085 30.2185 35.4783 29.5777 35.9174 29.0932H35.9132C36.7311 28.1881 37.199 27.3089 37.1166 26.3682C37.199 25.4275 36.7311 24.5484 35.9132 23.6433H35.9174C35.4783 23.1587 35.2085 22.5179 35.2085 21.8125C35.2085 20.3045 36.431 19.082 37.939 19.082C39.4471 19.082 40.6696 20.3045 40.6696 21.8125C40.6696 22.5179 40.3998 23.1587 39.9607 23.6433H39.9649C39.147 24.5484 38.6791 25.4275 38.7615 26.3682Z" fill="#343331"/>
<path fill-rule="evenodd" clip-rule="evenodd" d="M53.8842 20.441V28.5608C53.8842 29.0971 54.0928 29.41 54.5248 29.41C54.8228 29.41 55.091 29.3057 55.3591 29.1716L55.4634 30.8254C55.1058 30.9743 54.4354 31.168 53.7054 31.168C52.5433 31.168 51.7983 30.6019 51.7983 29.0673V20.441H53.8842" fill="#343331"/>
<path fill-rule="evenodd" clip-rule="evenodd" d="M64.2089 28.6204C64.2089 29.0673 64.3281 29.41 64.7452 29.41C65.0432 29.41 65.2816 29.3057 65.5349 29.1716L65.6242 30.8254C65.2369 31.0041 64.5963 31.168 63.9258 31.168C63.0468 31.168 62.4956 30.8105 62.272 30.0357C61.7357 30.6615 60.8716 31.1531 59.7989 31.1531C57.6237 31.1531 56.1487 29.4845 56.1487 27.1454C56.1487 24.7765 57.6237 23.0929 59.7989 23.0929C60.812 23.0929 61.6016 23.376 62.1231 23.8974V23.227H64.2089V28.6204ZM62.123 25.6105C61.7654 25.238 61.0801 24.9103 60.3799 24.9103C59.0837 24.9103 58.2642 25.8042 58.2642 27.1451C58.2642 28.4562 59.0985 29.3501 60.3799 29.3501C61.0652 29.3501 61.7058 29.0372 62.123 28.6498V25.6105V25.6105Z" fill="#343331"/>
<path fill-rule="evenodd" clip-rule="evenodd" d="M71.3156 31.168C70.2578 31.168 69.4979 30.8403 68.9764 30.3188V31.019H66.8906V20.441H68.9764V23.8826C69.5128 23.4058 70.3173 23.0929 71.3156 23.0929C73.5056 23.0929 74.9806 24.7616 74.9806 27.1156C74.9806 29.4696 73.5056 31.168 71.3156 31.168ZM70.7344 24.9108C70.0341 24.9108 69.3786 25.2386 68.9763 25.6409V28.6355C69.3339 28.9931 70.0044 29.3506 70.7344 29.3506C72.0157 29.3506 72.85 28.4567 72.85 27.1159C72.85 25.7899 72.0157 24.9108 70.7344 24.9108V24.9108Z" fill="#343331"/>
<path fill-rule="evenodd" clip-rule="evenodd" d="M80.1799 23.0184C82.6233 23.0184 84.3813 24.7765 84.3813 27.1454C84.3813 29.4845 82.6233 31.2276 80.1799 31.2276C77.7663 31.2276 76.0083 29.4845 76.0083 27.1454C76.0083 24.7765 77.7663 23.0184 80.1799 23.0184ZM80.1799 29.3208C81.491 29.3208 82.37 28.3673 82.37 27.1456C82.37 25.8941 81.491 24.9257 80.1799 24.9257C78.8986 24.9257 78.0196 25.8941 78.0196 27.1456C78.0196 28.3673 78.8986 29.3208 80.1799 29.3208V29.3208Z" fill="#343331"/>
<path fill-rule="evenodd" clip-rule="evenodd" d="M86.5118 25.6406C86.5118 25.1787 86.4075 24.851 85.9754 24.851C85.6626 24.851 85.305 25 85.1858 25.0744L85.0964 23.4356C85.2007 23.3313 85.9754 23.0929 86.7949 23.0929C87.6888 23.0929 88.2699 23.4505 88.4933 24.2699C88.8658 23.5399 89.432 23.0929 90.445 23.0929C91.1751 23.0929 91.7413 23.3611 91.8455 23.5399L91.5475 25.4171C91.4284 25.2532 90.8324 25.0148 90.1173 25.0148C89.1191 25.0148 88.7317 25.879 88.5976 26.7878V31.019H86.5118V25.6406" fill="#343331"/>
<path fill-rule="evenodd" clip-rule="evenodd" d="M99.8908 30.1698C99.0863 30.8254 97.9391 31.2276 96.6131 31.2276C93.678 31.2276 92.3669 29.4398 92.3669 27.1454C92.3669 24.8212 93.976 23.0184 96.479 23.0184C98.8479 23.0184 99.9653 24.4636 99.9653 26.2663C99.9653 26.7431 99.8908 27.488 99.8014 27.786H94.5124C94.706 28.8736 95.4063 29.4845 96.6727 29.4845C97.656 29.4845 98.5648 29.0822 99.1012 28.68L99.8908 30.1698ZM97.9689 25.9086C97.9689 25.2829 97.4922 24.7465 96.4344 24.7465C95.317 24.7465 94.721 25.4169 94.572 26.1768H97.9541C97.9689 26.1023 97.9689 25.9831 97.9689 25.9086V25.9086Z" fill="#343331"/>
</svg>
