<svg width="19" height="18" viewBox="0 0 19 18" fill="none" xmlns="http://www.w3.org/2000/svg">
<path d="M14.4812 2.19824C14.8634 2.19824 15.2299 2.35006 15.5002 2.6203C15.7704 2.89054 15.9222 3.25706 15.9222 3.63924V13.7262C15.9222 14.1084 15.7704 14.4749 15.5002 14.7452C15.2299 15.0154 14.8634 15.1672 14.4812 15.1672H4.39425C4.01207 15.1672 3.64555 15.0154 3.37531 14.7452C3.10507 14.4749 2.95325 14.1084 2.95325 13.7262V3.63924C2.95325 3.25706 3.10507 2.89054 3.37531 2.6203C3.64555 2.35006 4.01207 2.19824 4.39425 2.19824H14.4812ZM14.121 13.366V9.54734C14.121 8.92439 13.8735 8.32696 13.433 7.88647C12.9925 7.44598 12.3951 7.19851 11.7722 7.19851C11.1597 7.19851 10.4464 7.57317 10.1006 8.13516V7.33541H8.09041V13.366H10.1006V9.81392C10.1006 9.25914 10.5473 8.80523 11.1021 8.80523C11.3696 8.80523 11.6262 8.9115 11.8154 9.10067C12.0045 9.28983 12.1108 9.5464 12.1108 9.81392V13.366H14.121ZM5.74879 6.20422C6.06981 6.20422 6.3777 6.07669 6.6047 5.84969C6.8317 5.62269 6.95923 5.31481 6.95923 4.99378C6.95923 4.32372 6.41885 3.77614 5.74879 3.77614C5.42585 3.77614 5.11613 3.90442 4.88778 4.13278C4.65943 4.36113 4.53114 4.67084 4.53114 4.99378C4.53114 5.66385 5.07872 6.20422 5.74879 6.20422ZM6.75028 13.366V7.33541H4.7545V13.366H6.75028Z" fill="#DDDFE0"/>
</svg>
