<svg width="176" height="42" viewBox="0 0 176 42" fill="none" xmlns="http://www.w3.org/2000/svg">
<path d="M2.28348 28.4588C7.69981 27.1392 12.8339 24.3643 17.1422 20.4278C20.5346 17.3282 23.4151 13.5159 25.5925 9.24439M2.28348 28.4588C1.49806 26.9288 1.0553 25.1763 1.00753 23.4084C0.974596 22.1896 1.12616 20.9719 1.3618 19.7819C1.57004 18.7303 1.84415 17.6954 2.18141 16.6874M2.28348 28.4588C2.21045 29.988 2.5036 31.5376 3.12354 32.8996C4.12378 35.097 5.90296 36.7099 7.76206 38.0114M25.5925 9.24439C25.7052 9.06852 25.8593 8.92687 26.0346 8.83796C26.2099 8.74904 26.406 8.71309 26.5972 8.73484C26.7869 8.75641 26.9699 8.83382 27.1325 8.94615C27.2952 9.05847 27.4379 9.20508 27.5626 9.36802C27.8118 9.69388 27.9878 10.0812 28.1743 10.4569C28.6817 11.4791 29.2819 12.439 29.8084 13.4488C30.335 14.4587 30.7922 15.5342 30.9778 16.6874M25.5925 9.24439C25.0559 7.38085 24.3613 5.57545 23.5212 3.86097C23.3105 3.43093 23.0889 3.00378 22.804 2.63224C22.5192 2.26071 22.1656 1.94455 21.7538 1.78611C21.4523 1.67015 21.1248 1.64198 20.8113 1.70502C20.4978 1.76806 20.199 1.92219 19.9515 2.14854M7.76206 38.0114C12.1677 34.7178 16.7604 31.7437 21.5025 29.1135C23.8463 27.8135 26.2691 26.5655 28.1826 24.5585C29.1393 23.555 29.9567 22.3641 30.4773 21.0115C30.9979 19.6589 31.2113 18.1386 30.9778 16.6874M7.76206 38.0114C8.86457 38.7833 10.0168 39.4722 11.231 39.9872C14.6422 41.4339 18.5171 41.434 21.9282 39.9872C23.1425 39.4721 24.2946 38.7831 25.3972 38.0114M30.9778 16.6874C31.315 17.6954 31.5891 18.7303 31.7974 19.7819C32.0332 20.9719 32.1849 22.1896 32.1517 23.4085C32.1035 25.177 31.6588 26.9299 30.8706 28.4588M30.9778 16.6874C27.6196 16.2512 24.3527 14.9413 21.5025 12.8881C17.9079 10.2987 14.9917 6.523 13.2078 2.14854M19.9515 2.14854C19.4218 1.78052 18.8447 1.49984 18.244 1.31818C17.1598 0.990296 15.9994 0.990296 14.9153 1.31818C14.3146 1.49984 13.7375 1.78052 13.2078 2.14854M19.9515 2.14854C18.1676 6.523 15.2514 10.2987 11.6568 12.8881C8.80651 14.9413 5.5396 16.2512 2.18141 16.6874M13.2078 2.14854C12.9603 1.92218 12.6615 1.76803 12.348 1.70498C12.0345 1.64194 11.707 1.67015 11.4056 1.78611C10.9937 1.94458 10.6402 2.26075 10.3553 2.6323C10.0705 3.00385 9.84889 3.43099 9.63809 3.86097C8.79736 5.57588 8.10103 7.38113 7.56158 9.24439M7.56158 9.24439C7.44936 9.06929 7.29607 8.92811 7.12164 8.83923C6.94723 8.75034 6.7521 8.71398 6.56166 8.73484C6.37159 8.75564 6.18802 8.83264 6.02486 8.94473C5.8617 9.05683 5.7184 9.20343 5.59333 9.36647C5.3432 9.69256 5.16673 10.0805 4.97983 10.4568C4.47232 11.4786 3.87292 12.4385 3.34739 13.4486C2.82186 14.4587 2.366 15.5345 2.18141 16.6874M7.56158 9.24439C9.74117 13.5159 12.6234 17.328 16.0171 20.4278C20.3246 24.3623 25.4565 27.137 30.8706 28.4588M2.18141 16.6874C1.94907 18.1386 2.16328 19.6584 2.68408 21.0107C3.20491 22.363 4.02222 23.5536 4.97873 24.5571C6.89177 26.5641 9.31366 27.813 11.6568 29.1135C16.3982 31.7452 20.9908 34.7192 25.3972 38.0114M25.3972 38.0114C27.2565 36.7101 29.0367 35.0978 30.0358 32.8996C30.6548 31.5375 30.9462 29.9876 30.8706 28.4588" stroke="#FB773E" stroke-width="1.44"/>
<path d="M157.391 34.3141V8.47266H166.425C168.225 8.47266 169.71 8.7839 170.879 9.40638C172.048 10.0205 172.919 10.849 173.491 11.8921C174.063 12.9268 174.349 14.075 174.349 15.3368C174.349 16.4472 174.151 17.3641 173.756 18.0875C173.369 18.8109 172.856 19.3829 172.217 19.8035C171.586 20.2241 170.9 20.5354 170.16 20.7373V20.9896C170.951 21.0401 171.746 21.3177 172.545 21.8224C173.344 22.3271 174.013 23.0505 174.551 23.9927C175.089 24.9348 175.359 26.0872 175.359 27.45C175.359 28.7454 175.064 29.9105 174.475 30.9451C173.886 31.9798 172.957 32.8 171.687 33.4056C170.417 34.0113 168.764 34.3141 166.728 34.3141H157.391ZM160.52 31.5382H166.728C168.772 31.5382 170.223 31.1428 171.081 30.3521C171.947 29.553 172.381 28.5856 172.381 27.45C172.381 26.5751 172.158 25.7676 171.712 25.0273C171.266 24.2787 170.631 23.6814 169.807 23.2356C168.982 22.7814 168.006 22.5542 166.879 22.5542H160.52V31.5382ZM160.52 19.8288H166.324C167.266 19.8288 168.116 19.6437 168.873 19.2736C169.638 18.9035 170.244 18.3819 170.69 17.709C171.144 17.036 171.371 16.2453 171.371 15.3368C171.371 14.2012 170.976 13.238 170.185 12.4473C169.394 11.6482 168.141 11.2486 166.425 11.2486H160.52V19.8288Z" fill="#F4F4F4"/>
<path d="M142.193 34.3141H134.219V8.47266H142.547C145.053 8.47266 147.198 8.98999 148.982 10.0247C150.765 11.0509 152.132 12.5272 153.083 14.4535C154.033 16.3715 154.508 18.6679 154.508 21.3429C154.508 24.0347 154.029 26.3522 153.07 28.2954C152.111 30.2301 150.715 31.719 148.881 32.7621C147.047 33.7968 144.818 34.3141 142.193 34.3141ZM137.348 31.5382H141.991C144.128 31.5382 145.899 31.126 147.304 30.3016C148.708 29.4773 149.756 28.3038 150.445 26.7812C151.135 25.2587 151.48 23.4459 151.48 21.3429C151.48 19.2568 151.139 17.4608 150.458 15.9551C149.777 14.4409 148.759 13.2801 147.404 12.4725C146.05 11.6566 144.364 11.2486 142.345 11.2486H137.348V31.5382Z" fill="#F4F4F4"/>
<path d="M121.648 34.3187V14.9376H124.525V17.8649H124.727C125.081 16.906 125.72 16.1279 126.645 15.5306C127.57 14.9334 128.614 14.6348 129.774 14.6348C129.993 14.6348 130.266 14.639 130.595 14.6474C130.923 14.6558 131.171 14.6684 131.339 14.6852V17.7135C131.238 17.6883 131.007 17.6504 130.645 17.6C130.292 17.5411 129.917 17.5116 129.522 17.5116C128.58 17.5116 127.739 17.7093 126.998 18.1047C126.267 18.4916 125.686 19.03 125.257 19.7198C124.837 20.4011 124.626 21.1793 124.626 22.0541V34.3187H121.648Z" fill="#F4F4F4"/>
<path d="M109.143 34.7186C107.915 34.7186 106.8 34.4872 105.799 34.0246C104.798 33.5535 104.003 32.8763 103.414 31.9931C102.826 31.1014 102.531 30.0247 102.531 28.7629C102.531 27.6525 102.75 26.7525 103.187 26.0627C103.625 25.3645 104.209 24.8177 104.941 24.4223C105.673 24.027 106.481 23.7326 107.364 23.5391C108.256 23.3372 109.151 23.1774 110.052 23.0596C111.229 22.9082 112.184 22.7946 112.916 22.7189C113.656 22.6348 114.194 22.496 114.531 22.3025C114.876 22.1091 115.048 21.7726 115.048 21.2931V21.1922C115.048 19.9472 114.708 18.9798 114.026 18.29C113.353 17.6003 112.331 17.2554 110.96 17.2554C109.538 17.2554 108.424 17.5666 107.616 18.1891C106.809 18.8116 106.241 19.4761 105.913 20.1827L103.086 19.1733C103.591 17.9956 104.264 17.0787 105.105 16.4226C105.955 15.7581 106.88 15.2954 107.881 15.0346C108.891 14.7655 109.883 14.6309 110.859 14.6309C111.482 14.6309 112.197 14.7066 113.004 14.858C113.82 15.001 114.607 15.2996 115.364 15.7539C116.129 16.2081 116.764 16.8937 117.269 17.8106C117.774 18.7275 118.026 19.9556 118.026 21.495V34.2643H115.048V31.6398H114.897C114.695 32.0604 114.358 32.5104 113.887 32.9899C113.416 33.4694 112.79 33.8774 112.007 34.2138C111.225 34.5503 110.27 34.7186 109.143 34.7186ZM109.597 32.0436C110.775 32.0436 111.768 31.8122 112.575 31.3496C113.391 30.8869 114.005 30.2897 114.417 29.5578C114.838 28.826 115.048 28.0563 115.048 27.2488V24.5233C114.922 24.6747 114.644 24.8135 114.215 24.9397C113.795 25.0574 113.307 25.1626 112.752 25.2551C112.205 25.3392 111.671 25.415 111.149 25.4823C110.636 25.5411 110.22 25.5916 109.9 25.6337C109.126 25.7346 108.403 25.8986 107.73 26.1258C107.065 26.3445 106.527 26.6767 106.115 27.1226C105.711 27.56 105.509 28.1572 105.509 28.9143C105.509 29.949 105.892 30.7313 106.657 31.2613C107.431 31.7828 108.411 32.0436 109.597 32.0436Z" fill="#F4F4F4"/>
<path d="M90.7659 34.7179C89.1508 34.7179 87.725 34.3099 86.4885 33.494C85.2519 32.6696 84.2845 31.5087 83.5863 30.0114C82.8882 28.5057 82.5391 26.7266 82.5391 24.674C82.5391 22.6384 82.8882 20.8718 83.5863 19.3745C84.2845 17.8772 85.2561 16.7206 86.5011 15.9046C87.746 15.0886 89.1845 14.6807 90.8164 14.6807C92.0782 14.6807 93.075 14.891 93.8068 15.3116C94.5471 15.7237 95.1107 16.1948 95.4976 16.7248C95.893 17.2463 96.2 17.6753 96.4188 18.0118H96.6711V8.47266H99.6489V34.3141H96.7721V31.3363H96.4188C96.2 31.6896 95.8888 32.1354 95.485 32.6738C95.0813 33.2037 94.505 33.679 93.7564 34.0996C93.0077 34.5118 92.0109 34.7179 90.7659 34.7179ZM91.1697 32.0429C92.3642 32.0429 93.3736 31.7317 94.198 31.1092C95.0224 30.4783 95.6491 29.6076 96.0781 28.4973C96.5071 27.3785 96.7216 26.0872 96.7216 24.6236C96.7216 23.1767 96.5113 21.9107 96.0907 20.8256C95.6701 19.732 95.0476 18.8824 94.2232 18.2768C93.3989 17.6627 92.381 17.3557 91.1697 17.3557C89.9079 17.3557 88.8564 17.6795 88.0152 18.3272C87.1824 18.9665 86.5558 19.8372 86.1352 20.9391C85.723 22.0327 85.5169 23.2608 85.5169 24.6236C85.5169 26.0031 85.7272 27.2565 86.1478 28.3837C86.5768 29.5025 87.2077 30.3942 88.0405 31.0587C88.8817 31.7148 89.9247 32.0429 91.1697 32.0429Z" fill="#F4F4F4"/>
<path d="M73.0813 34.6681C71.2138 34.6681 69.603 34.2559 68.2486 33.4315C66.9027 32.5987 65.8639 31.4379 65.132 29.949C64.4086 28.4517 64.0469 26.7104 64.0469 24.7252C64.0469 22.74 64.4086 20.9903 65.132 19.4761C65.8639 17.9536 66.8817 16.7675 68.1855 15.9179C69.4978 15.0599 71.0288 14.6309 72.7785 14.6309C73.7879 14.6309 74.7847 14.7991 75.7689 15.1356C76.7531 15.4721 77.649 16.0188 78.4565 16.7759C79.2641 17.5246 79.9076 18.5172 80.3871 19.7537C80.8665 20.9903 81.1063 22.5128 81.1063 24.3214V25.5832H66.1667V23.0091H78.078C78.078 21.9156 77.8593 20.9398 77.4218 20.0818C76.9928 19.2238 76.3788 18.5466 75.5796 18.0503C74.7889 17.554 73.8552 17.3059 72.7785 17.3059C71.5924 17.3059 70.5661 17.6003 69.6997 18.1891C68.8417 18.7695 68.1813 19.5266 67.7187 20.4603C67.256 21.3941 67.0247 22.3951 67.0247 23.4634V25.1794C67.0247 26.6431 67.2771 27.8839 67.7818 28.9017C68.2949 29.9111 69.0057 30.6808 69.9142 31.2108C70.8227 31.7323 71.8784 31.9931 73.0813 31.9931C73.8636 31.9931 74.5702 31.8837 75.2011 31.665C75.8404 31.4379 76.3914 31.1014 76.854 30.6556C77.3167 30.2013 77.6742 29.6377 77.9266 28.9648L80.8034 29.7723C80.5006 30.7481 79.9917 31.6061 79.2767 32.3464C78.5617 33.0782 77.6784 33.6502 76.6269 34.0624C75.5754 34.4662 74.3936 34.6681 73.0813 34.6681Z" fill="#F4F4F4"/>
<path d="M62.6006 16.501H59.4714C59.2863 15.6009 58.9624 14.8102 58.4998 14.1289C58.0455 13.4475 57.4904 12.8755 56.8342 12.4128C56.1865 11.9418 55.4673 11.5885 54.6766 11.3529C53.8858 11.1174 53.0615 10.9996 52.2035 10.9996C50.6388 10.9996 49.2214 11.395 47.9512 12.1857C46.6894 12.9764 45.6842 14.1415 44.9355 15.6809C44.1953 17.2202 43.8252 19.1087 43.8252 21.3463C43.8252 23.5839 44.1953 25.4723 44.9355 27.0117C45.6842 28.5511 46.6894 29.7162 47.9512 30.5069C49.2214 31.2976 50.6388 31.693 52.2035 31.693C53.0615 31.693 53.8858 31.5752 54.6766 31.3397C55.4673 31.1041 56.1865 30.755 56.8342 30.2924C57.4904 29.8213 58.0455 29.2451 58.4998 28.5637C58.9624 27.874 59.2863 27.0832 59.4714 26.1916H62.6006C62.3651 27.5122 61.9361 28.6941 61.3136 29.7372C60.6911 30.7803 59.9172 31.6677 58.9919 32.3996C58.0666 33.123 57.0277 33.674 55.8753 34.0525C54.7312 34.4311 53.5073 34.6203 52.2035 34.6203C49.9995 34.6203 48.0395 34.082 46.3235 33.0052C44.6075 31.9285 43.2574 30.3975 42.2732 28.4123C41.289 26.4271 40.7969 24.0718 40.7969 21.3463C40.7969 18.6208 41.289 16.2655 42.2732 14.2803C43.2574 12.2951 44.6075 10.7641 46.3235 9.68736C48.0395 8.61063 49.9995 8.07227 52.2035 8.07227C53.5073 8.07227 54.7312 8.26153 55.8753 8.64007C57.0277 9.01861 58.0666 9.5738 58.9919 10.3056C59.9172 11.0291 60.6911 11.9123 61.3136 12.9554C61.9361 13.9901 62.3651 15.1719 62.6006 16.501Z" fill="#F4F4F4"/>
</svg>
