<svg width="100" height="100" viewBox="0 0 100 100" fill="none" xmlns="http://www.w3.org/2000/svg">
<g clip-path="url(#clip0_5054_21840)">
<path d="M60.4167 27.0859L72.9167 15.0025C74.519 13.4002 76.6923 12.5 78.9583 12.5C81.2244 12.5 83.3976 13.4002 85 15.0025C86.6023 16.6049 87.5025 18.7781 87.5025 21.0442C87.5025 23.3103 86.6023 25.4835 85 27.0859L72.9167 39.5859L83.3333 70.8359L72.9167 81.4609L58.3333 54.1692L45.8333 66.6692V79.1692L37.5 87.5025L31.25 68.7525L12.5 62.5025L20.8333 54.1692H33.3333L45.8333 41.6692L18.75 27.0859L29.1667 16.6692L60.4167 27.0859Z" stroke="#343331" stroke-width="6.25" stroke-linecap="round" stroke-linejoin="round"/>
</g>
<defs>
<clipPath id="clip0_5054_21840">
<rect width="100" height="100" fill="white"/>
</clipPath>
</defs>
</svg>
