<svg width="40" height="40" viewBox="0 0 40 40" fill="none" xmlns="http://www.w3.org/2000/svg">
<g clip-path="url(#clip0_739_78566)">
<path d="M20 16C20.5304 16 21.0391 16.2107 21.4142 16.5858C21.7893 16.9609 22 17.4696 22 18V22C22 22.5304 21.7893 23.0391 21.4142 23.4142C21.0391 23.7893 20.5304 24 20 24C19.4696 24 18.9609 23.7893 18.5858 23.4142C18.2107 23.0391 18 22.5304 18 22V18C18 17.4696 18.2107 16.9609 18.5858 16.5858C18.9609 16.2107 19.4696 16 20 16Z" stroke="#0D222D" stroke-width="1.5" stroke-linecap="round" stroke-linejoin="round"/>
<path d="M25 16V24H29" stroke="#0D222D" stroke-width="1.5" stroke-linecap="round" stroke-linejoin="round"/>
<path d="M21 23L22 24" stroke="#0D222D" stroke-width="1.5" stroke-linecap="round" stroke-linejoin="round"/>
<path d="M11 23C11 23.2652 11.1054 23.5196 11.2929 23.7071C11.4804 23.8946 11.7348 24 12 24H14C14.2652 24 14.5196 23.8946 14.7071 23.7071C14.8946 23.5196 15 23.2652 15 23V21C15 20.7348 14.8946 20.4804 14.7071 20.2929C14.5196 20.1054 14.2652 20 14 20H12C11.7348 20 11.4804 19.8946 11.2929 19.7071C11.1054 19.5196 11 19.2652 11 19V17C11 16.7348 11.1054 16.4804 11.2929 16.2929C11.4804 16.1054 11.7348 16 12 16H14C14.2652 16 14.5196 16.1054 14.7071 16.2929C14.8946 16.4804 15 16.7348 15 17" stroke="#0D222D" stroke-width="1.5" stroke-linecap="round" stroke-linejoin="round"/>
</g>
<defs>
<clipPath id="clip0_739_78566">
<rect width="24" height="24" fill="white" transform="translate(8 8)"/>
</clipPath>
</defs>
</svg>
