<svg width="863" height="162" viewBox="0 0 863 162" fill="none" xmlns="http://www.w3.org/2000/svg">
<path d="M179.253 65.3021V43.3426L228.491 43.3153L245.509 33.4905C249.416 31.2351 256.237 31.5165 260.747 34.1213L276.626 43.2881L325.904 43.2609V65.8421C326.013 67.3669 325.165 68.8418 323.286 69.9263L259.649 106.666C255.742 108.922 248.921 108.64 244.41 106.035L182.961 70.5571C180.361 69.055 179.104 67.1082 179.249 65.2976L179.253 65.3021Z" fill="#F4F4F4" stroke="#0D222D" stroke-width="1.25791" stroke-linejoin="round"/>
<path d="M259.42 84.1669L323.056 47.427C326.964 45.1716 326.474 41.2326 321.963 38.6278L260.513 3.15401C256.003 0.549177 249.182 0.267819 245.275 2.52322L181.638 39.2631C177.731 41.5185 178.221 45.4575 182.731 48.0623L244.181 83.5406C248.692 86.1455 255.512 86.4268 259.42 84.1714V84.1669Z" fill="#F4F4F4" stroke="#0D222D" stroke-width="1.25791" stroke-linejoin="round"/>
<path d="M357.876 65.3021V43.3426L407.114 43.3153L424.131 33.4905C428.039 31.2351 434.859 31.5165 439.37 34.1213L455.249 43.2881L504.527 43.2609V65.8421C504.636 67.3669 503.787 68.8418 501.909 69.9263L438.272 106.666C434.365 108.922 427.544 108.64 423.033 106.035L361.584 70.5571C358.983 69.055 357.726 67.1082 357.872 65.2976L357.876 65.3021Z" fill="#F4F4F4" stroke="#0D222D" stroke-width="1.25791" stroke-linejoin="round"/>
<path d="M438.42 84.1669L502.056 47.427C505.964 45.1716 505.474 41.2326 500.963 38.6278L439.513 3.15401C435.003 0.549177 428.182 0.267819 424.275 2.52322L360.638 39.2631C356.731 41.5185 357.221 45.4575 361.731 48.0623L423.181 83.5406C427.692 86.1455 434.512 86.4268 438.42 84.1714V84.1669Z" fill="#F4F4F4" stroke="#0D222D" stroke-width="1.25791" stroke-linejoin="round"/>
<path d="M536.499 65.3021V43.3426L585.736 43.3153L602.754 33.4905C606.661 31.2351 613.482 31.5165 617.993 34.1213L633.871 43.2881L683.15 43.2609V65.8421C683.259 67.3669 682.41 68.8418 680.531 69.9263L616.894 106.666C612.987 108.922 606.167 108.64 601.656 106.035L540.206 70.5571C537.606 69.055 536.349 67.1082 536.494 65.2976L536.499 65.3021Z" fill="#F4F4F4" stroke="#0D222D" stroke-width="1.25791" stroke-linejoin="round"/>
<path d="M616.899 84.1669L680.536 47.427C684.443 45.1716 683.953 41.2326 679.442 38.6278L617.993 3.15401C613.482 0.549177 606.661 0.267819 602.754 2.52322L539.117 39.2631C535.21 41.5185 535.7 45.4575 540.211 48.0623L601.66 83.5406C606.171 86.1455 612.992 86.4268 616.899 84.1714V84.1669Z" fill="#F4F4F4" stroke="#0D222D" stroke-width="1.25791" stroke-linejoin="round"/>
<path d="M715.122 65.3021V43.3426L764.359 43.3153L781.377 33.4905C785.284 31.2351 792.105 31.5165 796.616 34.1213L812.494 43.2881L861.773 43.2609V65.8421C861.882 67.3669 861.033 68.8418 859.154 69.9263L795.517 106.666C791.61 108.922 784.79 108.64 780.279 106.035L718.829 70.5571C716.229 69.055 714.972 67.1082 715.117 65.2976L715.122 65.3021Z" fill="#F4F4F4" stroke="#0D222D" stroke-width="1.25791" stroke-linejoin="round"/>
<path d="M795.522 84.1669L859.159 47.427C863.066 45.1716 862.576 41.2326 858.065 38.6278L796.616 3.15401C792.105 0.549177 785.284 0.267819 781.377 2.52322L717.74 39.2631C713.833 41.5185 714.323 45.4575 718.834 48.0623L780.283 83.5406C784.794 86.1455 791.615 86.4268 795.522 84.1714V84.1669Z" fill="#F4F4F4" stroke="#0D222D" stroke-width="1.25791" stroke-linejoin="round"/>
<path d="M1.01925 65.3021V43.3426L50.2569 43.3153L67.2745 33.4905C71.1817 31.2351 78.0024 31.5165 82.5132 34.1213L98.3917 43.2881L147.67 43.2609V65.8421C147.779 67.3669 146.93 68.8418 145.052 69.9263L81.4149 106.666C77.5077 108.922 70.6871 108.64 66.1763 106.035L4.72681 70.5571C2.12652 69.055 0.869488 67.1082 1.01471 65.2976L1.01925 65.3021Z" fill="#F4F4F4" stroke="#0D222D" stroke-width="1.25791" stroke-linejoin="round"/>
<path d="M81.4196 84.1669L145.056 47.427C148.964 45.1716 148.474 41.2326 143.963 38.6278L82.5133 3.15401C78.0025 0.549177 71.1818 0.267819 67.2746 2.52322L3.63783 39.2631C-0.269408 41.5185 0.220687 45.4575 4.73149 48.0623L66.1809 83.5406C70.6917 86.1455 77.5124 86.4268 81.4196 84.1714V84.1669Z" fill="#F4F4F4" stroke="#0D222D" stroke-width="1.25791" stroke-linejoin="round"/>
<path d="M90.1364 118.113V96.1531L139.374 96.1259L156.392 86.3011C160.299 84.0457 167.12 84.327 171.63 86.9318L187.509 96.0987L236.787 96.0714V118.653C236.896 120.177 236.048 121.652 234.169 122.737L170.532 159.477C166.625 161.732 159.804 161.451 155.293 158.846L93.844 123.368C91.2437 121.866 89.9867 119.919 90.1319 118.108L90.1364 118.113Z" fill="#F4F4F4" stroke="#FEB28A" stroke-width="1.25791" stroke-linejoin="round"/>
<path d="M170.537 136.977L234.174 100.237C238.081 97.9817 237.591 94.0427 233.08 91.4378L171.631 55.9641C167.12 53.3592 160.299 53.0779 156.392 55.3333L92.755 92.0732C88.8478 94.3286 89.3379 98.2676 93.8487 100.872L155.298 136.351C159.809 138.956 166.63 139.237 170.537 136.981V136.977Z" fill="#F4F4F4" stroke="#FEB28A" stroke-width="1.25791" stroke-linejoin="round"/>
<path d="M161.375 104.542C170.764 104.542 178.375 99.9158 178.375 94.2088C178.375 88.5019 170.764 83.8755 161.375 83.8755C151.986 83.8755 144.375 88.5019 144.375 94.2088C144.375 99.9158 151.986 104.542 161.375 104.542Z" stroke="#FEB28A" stroke-width="4.25679" stroke-linecap="round" stroke-linejoin="round"/>
<path d="M182.625 107.125L173.381 101.506" stroke="#FEB28A" stroke-width="4.25679" stroke-linecap="round" stroke-linejoin="round"/>
<path d="M268.759 118.113V96.1531L317.997 96.1259L335.014 86.3011C338.921 84.0457 345.742 84.327 350.253 86.9318L366.131 96.0987L415.41 96.0714V118.653C415.519 120.177 414.67 121.652 412.791 122.737L349.155 159.477C345.247 161.732 338.427 161.451 333.916 158.846L272.467 123.368C269.866 121.866 268.609 119.919 268.754 118.108L268.759 118.113Z" fill="#F4F4F4" stroke="#FEB28A" stroke-width="1.25791" stroke-linejoin="round"/>
<path d="M349.42 137.167L413.056 100.427C416.964 98.1716 416.474 94.2326 411.963 91.6278L350.513 56.154C346.003 53.5492 339.182 53.2678 335.275 55.5232L271.638 92.2631C267.731 94.5185 268.221 98.4575 272.731 101.062L334.181 136.541C338.692 139.145 345.512 139.427 349.42 137.171V137.167Z" fill="#F4F4F4" stroke="#FEB28A" stroke-width="1.25791" stroke-linejoin="round"/>
<path d="M447.382 118.113V96.1531L496.62 96.1259L513.637 86.3011C517.545 84.0457 524.365 84.327 528.876 86.9318L544.755 96.0987L594.033 96.0714V118.653C594.142 120.177 593.293 121.652 591.415 122.737L527.778 159.477C523.87 161.732 517.05 161.451 512.539 158.846L451.09 123.368C448.489 121.866 447.232 119.919 447.377 118.108L447.382 118.113Z" fill="#F4F4F4" stroke="#FEB28A" stroke-width="1.25791" stroke-linejoin="round"/>
<path d="M527.42 136.167L591.056 99.427C594.964 97.1716 594.474 93.2326 589.963 90.6278L528.513 55.154C524.003 52.5492 517.182 52.2678 513.275 54.5232L449.638 91.2631C445.731 93.5185 446.221 97.4575 450.731 100.062L512.181 135.541C516.692 138.145 523.512 138.427 527.42 136.171V136.167Z" fill="#F4F4F4" stroke="#FEB28A" stroke-width="1.25791" stroke-linejoin="round"/>
<g opacity="0.6">
<path d="M533.188 83.9165C531.497 83.9165 529.875 84.3248 528.68 85.0515C527.484 85.7782 526.813 86.7638 526.813 87.7915V103.292C526.813 104.319 527.484 105.305 528.68 106.032C529.875 106.758 531.497 107.167 533.188 107.167C534.878 107.167 536.5 106.758 537.695 106.032C538.891 105.305 539.563 104.319 539.563 103.292C539.563 102.264 538.891 101.278 537.695 100.551C536.5 99.8248 534.878 99.4165 533.188 99.4165H507.688C505.997 99.4165 504.375 99.8248 503.18 100.551C501.984 101.278 501.312 102.264 501.312 103.292C501.312 104.319 501.984 105.305 503.18 106.032C504.375 106.758 505.997 107.167 507.688 107.167C509.378 107.167 511 106.758 512.195 106.032C513.391 105.305 514.063 104.319 514.063 103.292V87.7915C514.063 86.7638 513.391 85.7782 512.195 85.0515C511 84.3248 509.378 83.9165 507.688 83.9165C505.997 83.9165 504.375 84.3248 503.18 85.0515C501.984 85.7782 501.312 86.7638 501.312 87.7915C501.312 88.8192 501.984 89.8048 503.18 90.5315C504.375 91.2582 505.997 91.6665 507.688 91.6665H533.188C534.878 91.6665 536.5 91.2582 537.695 90.5315C538.891 89.8048 539.563 88.8192 539.563 87.7915C539.563 86.7638 538.891 85.7782 537.695 85.0515C536.5 84.3248 534.878 83.9165 533.188 83.9165Z" stroke="#FB773E" stroke-width="4.25679" stroke-linecap="round" stroke-linejoin="round"/>
</g>
<path d="M626.005 118.113V96.1531L675.242 96.1259L692.26 86.3011C696.167 84.0457 702.988 84.327 707.499 86.9318L723.377 96.0987L772.656 96.0714V118.653C772.764 120.177 771.916 121.652 770.037 122.737L706.4 159.477C702.493 161.732 695.672 161.451 691.162 158.846L629.712 123.368C627.112 121.866 625.855 119.919 626 118.108L626.005 118.113Z" fill="#FB773E" stroke="#853E21" stroke-width="1.25791" stroke-linejoin="round"/>
<path d="M706.42 137.167L770.056 100.427C773.964 98.1716 773.474 94.2326 768.963 91.6278L707.513 56.154C703.003 53.5492 696.182 53.2678 692.275 55.5232L628.638 92.2631C624.731 94.5185 625.221 98.4575 629.731 101.062L691.181 136.541C695.692 139.145 702.512 139.427 706.42 137.171V137.167Z" fill="#FB773E" stroke="#853E21" stroke-width="1.25791" stroke-linejoin="round"/>
<path d="M705.36 131.386L760.25 99.4061C763.621 97.4396 763.194 94.0129 759.305 91.751L706.305 60.8771C702.416 58.6067 696.527 58.3619 693.164 60.3285L638.274 92.308C634.903 94.2745 635.33 97.7012 639.22 99.9632L692.219 130.837C696.109 133.107 701.997 133.352 705.36 131.386Z" fill="#FB773E" stroke="#853E21" stroke-width="1.25791" stroke-linejoin="round"/>
<g clip-path="url(#clip0_738_10339)">
<path d="M699.5 100.375C703.021 100.375 705.875 98.6401 705.875 96.5C705.875 94.3599 703.021 92.625 699.5 92.625C695.98 92.625 693.125 94.3599 693.125 96.5C693.125 98.6401 695.98 100.375 699.5 100.375Z" stroke="#F4F4F4" stroke-width="4.25679" stroke-linecap="round" stroke-linejoin="round"/>
<path d="M715.225 100.375C714.943 100.765 714.858 101.197 714.983 101.616C715.108 102.035 715.437 102.422 715.927 102.726L716.054 102.804C716.449 103.044 716.763 103.328 716.977 103.642C717.191 103.956 717.301 104.292 717.301 104.631C717.301 104.971 717.191 105.307 716.977 105.621C716.763 105.934 716.449 106.219 716.054 106.459C715.66 106.699 715.191 106.89 714.675 107.02C714.159 107.15 713.606 107.217 713.047 107.217C712.489 107.217 711.936 107.15 711.42 107.02C710.904 106.89 710.435 106.699 710.04 106.459L709.913 106.382C709.412 106.084 708.776 105.884 708.087 105.808C707.397 105.732 706.686 105.783 706.045 105.955C705.417 106.119 704.881 106.391 704.503 106.737C704.126 107.084 703.923 107.49 703.92 107.906V108.125C703.92 108.81 703.473 109.468 702.676 109.952C701.879 110.436 700.798 110.709 699.67 110.709C698.543 110.709 697.462 110.436 696.665 109.952C695.868 109.468 695.42 108.81 695.42 108.125V108.009C695.404 107.582 695.176 107.167 694.767 106.819C694.358 106.471 693.786 106.206 693.125 106.059C692.485 105.887 691.774 105.835 691.084 105.911C690.395 105.987 689.759 106.187 689.258 106.485L689.13 106.562C688.736 106.803 688.267 106.993 687.751 107.123C687.235 107.253 686.682 107.32 686.124 107.32C685.565 107.32 685.012 107.253 684.496 107.123C683.98 106.993 683.511 106.803 683.117 106.562C682.722 106.322 682.408 106.038 682.194 105.724C681.98 105.41 681.87 105.074 681.87 104.735C681.87 104.395 681.98 104.059 682.194 103.745C682.408 103.432 682.722 103.147 683.117 102.907L683.244 102.829C683.734 102.525 684.063 102.138 684.188 101.719C684.313 101.3 684.228 100.868 683.945 100.479C683.676 100.097 683.229 99.7708 682.659 99.5413C682.089 99.3118 681.421 99.1887 680.737 99.187H680.375C679.248 99.187 678.167 98.9148 677.37 98.4304C676.573 97.9459 676.125 97.2888 676.125 96.6037C676.125 95.9185 676.573 95.2614 677.37 94.777C678.167 94.2925 679.248 94.0203 680.375 94.0203H680.567C681.27 94.0103 681.952 93.8719 682.524 93.6232C683.097 93.3744 683.533 93.0267 683.775 92.6253C684.058 92.2357 684.143 91.8036 684.018 91.3846C683.893 90.9656 683.564 90.5789 683.074 90.2745L682.947 90.197C682.552 89.9571 682.238 89.6722 682.024 89.3585C681.81 89.0449 681.7 88.7088 681.7 88.3693C681.7 88.0298 681.81 87.6936 682.024 87.38C682.238 87.0664 682.552 86.7815 682.947 86.5416C683.341 86.3014 683.81 86.1108 684.326 85.9808C684.842 85.8508 685.395 85.7839 685.954 85.7839C686.512 85.7839 687.065 85.8508 687.581 85.9808C688.097 86.1108 688.566 86.3014 688.96 86.5416L689.088 86.6191C689.589 86.9169 690.225 87.1166 690.914 87.1926C691.604 87.2686 692.315 87.2173 692.955 87.0453H693.125C693.754 86.8816 694.29 86.6097 694.668 86.2632C695.045 85.9166 695.248 85.5106 695.25 85.0949V84.8753C695.25 84.1902 695.698 83.5331 696.495 83.0486C697.292 82.5642 698.373 82.292 699.5 82.292C700.628 82.292 701.709 82.5642 702.506 83.0486C703.303 83.5331 703.75 84.1902 703.75 84.8753V84.9916C703.753 85.4072 703.956 85.8133 704.333 86.1598C704.711 86.5064 705.247 86.7783 705.875 86.942C706.516 87.1139 707.227 87.1652 707.917 87.0892C708.606 87.0133 709.242 86.8135 709.743 86.5157L709.87 86.4382C710.265 86.1981 710.734 86.0075 711.25 85.8775C711.766 85.7475 712.319 85.6806 712.877 85.6806C713.436 85.6806 713.989 85.7475 714.505 85.8775C715.021 86.0075 715.49 86.1981 715.884 86.4382C716.279 86.6782 716.593 86.9631 716.807 87.2767C717.021 87.5903 717.131 87.9265 717.131 88.266C717.131 88.6054 717.021 88.9416 716.807 89.2552C716.593 89.5688 716.279 89.8537 715.884 90.0937L715.757 90.1712C715.267 90.4756 714.938 90.8622 714.813 91.2812C714.688 91.7002 714.773 92.1324 715.055 92.522V92.6253C715.325 93.0074 715.772 93.3332 716.342 93.5627C716.912 93.7922 717.58 93.9153 718.264 93.917H718.625C719.753 93.917 720.834 94.1892 721.631 94.6736C722.428 95.1581 722.875 95.8152 722.875 96.5003C722.875 97.1855 722.428 97.8425 721.631 98.327C720.834 98.8115 719.753 99.0837 718.625 99.0837H718.434C717.75 99.0853 717.082 99.2085 716.512 99.438C715.942 99.6675 715.495 99.9933 715.225 100.375V100.375Z" stroke="#F4F4F4" stroke-width="4.25679" stroke-linecap="round" stroke-linejoin="round"/>
</g>
<path d="M361.625 101.666V91.3328C361.624 90.8798 361.428 90.4348 361.055 90.0426C360.682 89.6504 360.145 89.3247 359.5 89.0982L344.625 83.9316C343.979 83.7048 343.246 83.5854 342.5 83.5854C341.754 83.5854 341.021 83.7048 340.375 83.9316L325.5 89.0982C324.855 89.3247 324.318 89.6504 323.945 90.0426C323.573 90.4348 323.376 90.8798 323.375 91.3328V101.666C323.376 102.119 323.573 102.564 323.945 102.956C324.318 103.349 324.855 103.674 325.5 103.901L340.375 109.067C341.021 109.294 341.754 109.413 342.5 109.413C343.246 109.413 343.979 109.294 344.625 109.067L359.5 103.901C360.145 103.674 360.682 103.349 361.055 102.956C361.428 102.564 361.624 102.119 361.625 101.666Z" stroke="#FEB28A" stroke-width="4.25679" stroke-linecap="round" stroke-linejoin="round"/>
<path d="M332.937 86.4385L342.5 89.7968L352.062 86.4385" stroke="#FEB28A" stroke-width="4.25679" stroke-linecap="round" stroke-linejoin="round"/>
<path d="M332.938 106.563V99.8588L323.375 96.5005" stroke="#FEB28A" stroke-width="4.25679" stroke-linecap="round" stroke-linejoin="round"/>
<path d="M361.625 96.5005L352.062 99.8588V106.563" stroke="#FEB28A" stroke-width="4.25679" stroke-linecap="round" stroke-linejoin="round"/>
<path d="M323.948 89.9897L342.499 96.5127L361.051 89.9897" stroke="#FEB28A" stroke-width="4.25679" stroke-linecap="round" stroke-linejoin="round"/>
<path d="M342.5 109.52V96.5005" stroke="#FEB28A" stroke-width="4.25679" stroke-linecap="round" stroke-linejoin="round"/>
<path d="M63.9922 38C64.695 38 65.3114 38.0866 65.8413 38.2598C66.3771 38.433 66.7976 38.6754 67.0972 38.9872C67.391 39.2989 67.5407 39.6742 67.5407 40.1014H66.187C66.187 39.8878 66.1063 39.6799 65.9565 39.4894C65.8068 39.2989 65.5706 39.1431 65.248 39.016C64.9196 38.8948 64.4991 38.8313 63.9864 38.8313C63.4737 38.8313 63.0762 38.889 62.7478 39.0103C62.4195 39.1257 62.1775 39.2758 62.0162 39.4663C61.8549 39.6568 61.7743 39.8531 61.7743 40.0725C61.7743 40.3207 61.9183 40.5401 62.2063 40.7306C62.4886 40.9211 62.9149 41.0308 63.4737 41.0655L64.5913 41.129C65.2883 41.1694 65.8817 41.2617 66.3828 41.4234C66.884 41.585 67.27 41.7929 67.5465 42.0584C67.8172 42.3182 67.9497 42.6299 67.9497 42.9994C67.9497 43.4151 67.7827 43.7788 67.4543 44.1078C67.1202 44.4253 66.6536 44.6793 66.0602 44.8583C65.4611 45.0373 64.7641 45.1239 63.9691 45.1239C63.1281 45.1239 62.4195 45.0315 61.8261 44.8468C61.2328 44.662 60.7835 44.408 60.4724 44.079C60.1555 43.7499 60 43.3804 60 42.9648H61.3538C61.3538 43.1668 61.4344 43.3689 61.5957 43.5767C61.757 43.7788 62.0278 43.9462 62.408 44.0847C62.7882 44.2233 63.3124 44.2926 63.9634 44.2926C64.574 44.2926 65.0752 44.2348 65.4554 44.1136C65.8471 43.9924 66.1294 43.8365 66.3137 43.6402C66.4923 43.4439 66.5902 43.2361 66.5902 43.0052C66.5902 42.7281 66.4116 42.4972 66.0487 42.3182C65.6916 42.1335 65.1616 42.0238 64.4703 41.9776L63.3527 41.9141C62.4598 41.8621 61.7455 41.6774 61.2097 41.3599C60.6682 41.0366 60.4032 40.6152 60.4032 40.0898C60.4032 39.6742 60.553 39.3162 60.8526 39.0045C61.1464 38.6928 61.5669 38.4561 62.1026 38.2771C62.6384 38.0981 63.2605 38.0115 63.9691 38.0115L63.9922 38Z" fill="black"/>
<path d="M79.6438 40.2401C79.8512 40.6442 79.9607 41.0483 79.9607 41.4524V41.6602C79.9607 42.0297 79.857 42.4165 79.6496 42.8206C79.4422 43.219 79.1254 43.6 78.6991 43.9521C78.2728 44.3043 77.737 44.5872 77.0803 44.8065C76.5907 44.9682 76.0261 45.0721 75.3925 45.1125V45.4531C75.3925 45.6609 75.4789 45.8168 75.6632 45.938C75.8475 46.0593 76.078 46.117 76.3718 46.117H78.0885V46.9252H76.6137C76.1183 46.9252 75.6805 46.879 75.3118 46.7809C74.9431 46.6885 74.6608 46.5211 74.4535 46.2844C74.2461 46.0477 74.1481 45.7302 74.1481 45.3203V45.1183C73.4914 45.0779 72.9096 44.9797 72.4084 44.8123C71.7575 44.5929 71.216 44.3101 70.7897 43.9579C70.3634 43.6057 70.0465 43.2305 69.8392 42.8264C69.6318 42.4223 69.5281 42.0355 69.5281 41.666V41.4582C69.5281 41.0541 69.6375 40.65 69.8507 40.2459C70.0581 39.836 70.3864 39.4665 70.8127 39.1259C71.2505 38.7911 71.7863 38.5197 72.443 38.3177C73.0882 38.1099 73.8601 38.0117 74.7473 38.0117C75.6344 38.0117 76.3948 38.1099 77.0515 38.3177C77.6967 38.5255 78.2382 38.7911 78.676 39.1259C79.1081 39.4607 79.4307 39.836 79.6438 40.2459V40.2401ZM78.3189 42.5897C78.4917 42.2606 78.5781 41.92 78.5781 41.5621C78.5781 41.1811 78.4917 40.8347 78.3189 40.5057C78.1403 40.1766 77.8868 39.8879 77.5585 39.6397C77.2243 39.3915 76.8211 39.1894 76.3487 39.0509C75.8706 38.9065 75.3348 38.8373 74.753 38.8373C74.1712 38.8373 73.6297 38.9065 73.1573 39.0509C72.6792 39.1952 72.2759 39.3915 71.9418 39.6397C71.6077 39.8879 71.3542 40.1766 71.1872 40.5057C71.0086 40.8347 70.9222 41.1811 70.9222 41.5621C70.9222 41.92 71.0086 42.2606 71.1872 42.5897C71.36 42.913 71.6134 43.2074 71.9418 43.4614C72.2759 43.7212 72.6792 43.9175 73.1573 44.0676C73.6297 44.2177 74.1654 44.2927 74.753 44.2927C75.3406 44.2927 75.8706 44.2177 76.3487 44.0676C76.8211 43.9175 77.2243 43.7154 77.5585 43.4614C77.8926 43.2074 78.1461 42.913 78.3189 42.5897Z" fill="black"/>
<path d="M83.5438 38.1846V44.1365H87.8816V44.9563H83.2673H82.1843V38.1846H83.5438Z" fill="black"/>
<path d="M226.104 41.2284C226.317 41.6325 226.427 42.0366 226.427 42.4407V42.6485C226.427 43.018 226.323 43.4048 226.116 43.8089C225.908 44.2072 225.592 44.5883 225.165 44.9404C224.739 45.2926 224.203 45.5754 223.546 45.7948C223.057 45.9565 222.492 46.0604 221.859 46.1008V46.4414C221.859 46.6492 221.945 46.8051 222.129 46.9263C222.308 47.0418 222.544 47.1053 222.838 47.1053H224.555V47.9135H223.074C222.579 47.9135 222.147 47.8673 221.778 47.7692C221.409 47.6768 221.127 47.5094 220.92 47.2727C220.718 47.036 220.62 46.7185 220.62 46.3086V46.1066C219.963 46.0661 219.382 45.968 218.88 45.8006C218.229 45.5812 217.688 45.2983 217.262 44.9462C216.835 44.594 216.518 44.2188 216.311 43.8147C216.104 43.4106 216 43.0238 216 42.6543V42.4465C216 42.0424 216.109 41.6383 216.317 41.2341C216.53 40.8243 216.858 40.4548 217.285 40.1142C217.722 39.7794 218.258 39.508 218.909 39.306C219.56 39.0981 220.332 39 221.213 39C222.095 39 222.867 39.0981 223.518 39.306C224.169 39.5138 224.71 39.7794 225.148 40.1142C225.58 40.449 225.903 40.8243 226.11 41.2341L226.104 41.2284ZM224.779 43.578C224.952 43.2489 225.039 42.9083 225.039 42.5504C225.039 42.1694 224.952 41.823 224.779 41.4939C224.601 41.1649 224.347 40.8762 224.019 40.628C223.685 40.3797 223.282 40.1777 222.809 40.0391C222.331 39.8948 221.795 39.8255 221.208 39.8255C220.62 39.8255 220.09 39.8948 219.618 40.0391C219.14 40.1835 218.736 40.3797 218.402 40.628C218.068 40.8762 217.815 41.1649 217.648 41.4939C217.469 41.823 217.383 42.1694 217.383 42.5504C217.383 42.9083 217.469 43.2489 217.648 43.578C217.82 43.9013 218.074 44.1957 218.402 44.4497C218.736 44.7095 219.14 44.9058 219.618 45.0559C220.09 45.206 220.626 45.281 221.208 45.281C221.789 45.281 222.331 45.206 222.809 45.0559C223.282 44.9058 223.685 44.7037 224.019 44.4497C224.353 44.1957 224.606 43.9013 224.779 43.578Z" fill="black"/>
<path d="M234.561 40.9795V45.9385H233.513V44.7897C233.478 44.882 233.438 44.9686 233.386 45.0494C233.19 45.3843 232.902 45.6441 232.522 45.823C232.136 45.9962 231.658 46.0886 231.064 46.0886H231.007C230.131 46.0886 229.457 45.8923 228.99 45.5113C228.518 45.1303 228.288 44.5761 228.288 43.8544V40.9795H229.613V44.0334C229.613 44.4202 229.768 44.7262 230.079 44.9455C230.396 45.1649 230.822 45.2746 231.352 45.2746C231.882 45.2746 232.36 45.1591 232.706 44.9167C233.057 44.68 233.23 44.3509 233.23 43.941V40.9795H234.555H234.561Z" fill="black"/>
<path d="M243.72 43.2373V43.6357H237.861C237.885 43.9185 237.965 44.1841 238.109 44.415C238.282 44.6979 238.547 44.9173 238.91 45.0847C239.267 45.2463 239.722 45.3329 240.281 45.3329C240.84 45.3329 241.335 45.2463 241.698 45.0731C242.061 44.8999 242.286 44.7037 242.355 44.4727H243.599C243.495 44.8134 243.294 45.1078 242.988 45.3502C242.689 45.5985 242.303 45.789 241.842 45.916C241.381 46.043 240.863 46.1123 240.281 46.1123C239.636 46.1123 239.077 46.0372 238.605 45.8871C238.132 45.737 237.752 45.5408 237.458 45.2983C237.164 45.05 236.946 44.7787 236.802 44.4785C236.663 44.1783 236.588 43.8666 236.588 43.5491V43.3817C236.588 43.0641 236.663 42.7466 236.802 42.4464C236.946 42.1462 237.164 41.8691 237.458 41.6267C237.752 41.3784 238.126 41.1879 238.582 41.0436C239.037 40.8993 239.578 40.8242 240.195 40.8242C240.995 40.8242 241.658 40.9397 242.176 41.1706C242.7 41.4015 243.086 41.7017 243.34 42.0654C243.593 42.4291 243.726 42.8217 243.726 43.2316L243.72 43.2373ZM237.913 42.966H242.412C242.372 42.7639 242.303 42.5792 242.194 42.4118C242.026 42.152 241.779 41.9557 241.445 41.8114C241.111 41.6671 240.696 41.5978 240.189 41.5978C239.659 41.5978 239.227 41.6786 238.881 41.8403C238.535 42.0019 238.276 42.2213 238.103 42.4984C238.017 42.6427 237.954 42.7928 237.908 42.9602" fill="black"/>
<path d="M249.694 40.9399V41.7365H249.222C248.484 41.7365 247.92 41.8693 247.522 42.1349C247.13 42.3946 246.923 42.7757 246.923 43.2664V45.945H245.598V40.9918H246.652V42.4639C246.75 42.0252 246.969 41.6788 247.309 41.4363C247.781 41.1015 248.496 40.9341 249.446 40.9341H249.694V40.9399Z" fill="black"/>
<path d="M257.391 40.9916L254.925 46.4702C254.781 46.7992 254.574 47.0648 254.303 47.2726C254.038 47.4805 253.709 47.6306 253.329 47.7229C252.949 47.8211 252.505 47.8672 251.999 47.8672H251.019V47.0648H252.079C252.39 47.0648 252.661 47.0417 252.874 46.9897C253.093 46.932 253.272 46.8454 253.416 46.7242C253.56 46.5972 253.681 46.4355 253.767 46.2277L253.946 45.8236H253.133L250.489 40.9858H251.849L253.992 45.0847H254.274L256.089 40.9858H257.391V40.9916Z" fill="black"/>
<path d="M268.854 40.1485C269.142 40.4717 269.28 40.8528 269.28 41.2915V41.4416C269.28 41.8746 269.142 42.2498 268.854 42.5789C268.572 42.9022 268.146 43.1504 267.587 43.3294C267.028 43.5026 266.331 43.5949 265.501 43.5949H263.773V45.9503H262.419V39.1382H265.501C266.331 39.1382 267.028 39.2248 267.587 39.4037C268.14 39.5769 268.566 39.8252 268.854 40.1485ZM267.656 42.0882C267.817 41.8688 267.898 41.6321 267.898 41.3666C267.898 41.101 267.817 40.847 267.656 40.6334C267.495 40.4198 267.258 40.2466 266.947 40.1196C266.63 39.9984 266.239 39.9349 265.755 39.9349H263.779V42.7867H265.755C266.239 42.7867 266.63 42.7232 266.947 42.5962C267.258 42.4692 267.495 42.296 267.656 42.0824" fill="black"/>
<path d="M272.489 39.1729V39.8829V45.9446H271.164V39.8829H270.139V39.1729H272.489Z" fill="black"/>
<path d="M280.203 41.7075C280.433 41.9846 280.548 42.3483 280.548 42.8159V45.9507H279.494V44.975C279.431 45.1136 279.35 45.2406 279.252 45.356C279.045 45.5927 278.763 45.7717 278.4 45.8987C278.037 46.0199 277.593 46.0834 277.075 46.0834C276.527 46.0834 276.049 46.0199 275.646 45.8929C275.249 45.7659 274.938 45.5812 274.724 45.3387C274.505 45.0963 274.396 44.8076 274.396 44.467C274.396 44.1264 274.517 43.8262 274.747 43.5895C274.984 43.3528 275.329 43.1739 275.779 43.0584C276.228 42.9372 276.775 42.8794 277.409 42.8794H279.275V42.7582C279.275 42.4176 279.143 42.1578 278.884 41.9904C278.624 41.8172 278.238 41.7306 277.731 41.7306C277.449 41.7306 277.15 41.7306 276.844 41.7422C276.539 41.7422 276.245 41.7537 275.974 41.7595C275.698 41.7652 275.456 41.771 275.254 41.7883V41.009C275.456 40.9974 275.675 40.9859 275.9 40.9801C276.13 40.9686 276.36 40.9628 276.602 40.957C276.839 40.957 277.075 40.957 277.294 40.957C278.048 40.957 278.665 41.0148 279.149 41.136C279.627 41.2572 279.984 41.4535 280.209 41.7248L280.203 41.7075ZM279.275 44.1091V43.5376H277.357C276.821 43.5376 276.406 43.6242 276.124 43.7973C275.842 43.9705 275.698 44.1957 275.698 44.467C275.698 44.7383 275.836 44.9635 276.124 45.1251C276.412 45.2925 276.827 45.3734 277.357 45.3734C277.668 45.3734 277.968 45.333 278.256 45.2579C278.538 45.1829 278.78 45.0501 278.964 44.8711C279.154 44.6922 279.258 44.4381 279.275 44.1149" fill="black"/>
<path d="M286.661 40.8413C287.594 40.8413 288.285 41.0376 288.729 41.4244C289.172 41.8112 289.397 42.3769 289.397 43.1159V45.9446H288.072V42.9311C288.072 42.5501 287.911 42.2441 287.588 42.0075C287.266 41.7765 286.822 41.6611 286.263 41.6611C285.704 41.6611 285.209 41.7823 284.852 42.0248C284.495 42.2672 284.31 42.5905 284.31 42.9889V45.9446H282.985V40.9914H284.04V42.146C284.074 42.0536 284.12 41.9613 284.166 41.8804C284.362 41.5456 284.662 41.2858 285.076 41.1069C285.48 40.9337 285.987 40.8413 286.609 40.8413H286.661Z" fill="black"/>
<path d="M405.11 35.2341C405.323 35.6383 405.433 36.0424 405.433 36.4465V36.6543C405.433 37.0238 405.323 37.4106 405.116 37.8147C404.908 38.2188 404.597 38.594 404.171 38.9462C403.745 39.2983 403.209 39.5812 402.552 39.8006C401.901 40.0142 401.118 40.1239 400.213 40.1239C399.309 40.1239 398.531 40.0142 397.875 39.8006C397.224 39.5812 396.682 39.2983 396.256 38.9462C395.835 38.594 395.518 38.2188 395.311 37.8147C395.104 37.4106 395 37.0238 395 36.6543V36.4465C395 36.0424 395.104 35.6383 395.317 35.2341C395.53 34.8243 395.853 34.4548 396.285 34.1142C396.717 33.7794 397.258 33.508 397.909 33.306C398.56 33.0981 399.332 33 400.213 33C401.095 33 401.867 33.0981 402.518 33.306C403.169 33.5138 403.71 33.7794 404.142 34.1142C404.58 34.449 404.897 34.8243 405.11 35.2341ZM403.779 37.5838C403.958 37.2547 404.044 36.9141 404.044 36.5562C404.044 36.1982 403.958 35.8288 403.779 35.4997C403.601 35.1706 403.347 34.882 403.025 34.6338C402.691 34.3855 402.287 34.1835 401.809 34.0449C401.337 33.9006 400.801 33.8313 400.213 33.8313C399.626 33.8313 399.096 33.9006 398.618 34.0449C398.145 34.1892 397.742 34.3855 397.408 34.6338C397.074 34.882 396.82 35.1706 396.648 35.4997C396.469 35.8288 396.383 36.1809 396.383 36.5562C396.383 36.9314 396.469 37.2547 396.648 37.5838C396.826 37.907 397.08 38.2015 397.408 38.4555C397.742 38.7153 398.145 38.9115 398.618 39.0616C399.096 39.2117 399.626 39.2868 400.213 39.2868C400.801 39.2868 401.337 39.2117 401.809 39.0616C402.287 38.9115 402.691 38.7095 403.025 38.4555C403.353 38.2015 403.606 37.907 403.779 37.5838Z" fill="black"/>
<path d="M414.748 36.4114C414.915 36.7231 414.995 37.0464 414.995 37.3928V37.5602C414.995 37.9066 414.909 38.2357 414.73 38.5416C414.552 38.8534 414.31 39.1247 413.987 39.3556C413.67 39.5923 413.29 39.777 412.858 39.9098C412.42 40.0426 411.936 40.1176 411.412 40.1176C410.888 40.1176 410.387 40.0426 409.903 39.8867C409.459 39.7482 409.091 39.523 408.785 39.2113V41.8034H407.455V34.997H408.509V36.2036C408.578 36.065 408.664 35.938 408.762 35.8168C409.05 35.4819 409.436 35.2337 409.903 35.0721C410.375 34.9104 410.888 34.8296 411.435 34.8296C411.982 34.8296 412.455 34.8989 412.898 35.0374C413.336 35.1702 413.711 35.3549 414.022 35.5916C414.339 35.8225 414.575 36.0939 414.742 36.4056L414.748 36.4114ZM413.365 38.4493C413.567 38.1664 413.67 37.8431 413.67 37.4794C413.67 37.1157 413.567 36.7866 413.365 36.5038C413.163 36.2209 412.875 36.0073 412.512 35.8514C412.144 35.6955 411.706 35.6147 411.211 35.6147C410.767 35.6147 410.358 35.6782 409.984 35.811C409.603 35.9438 409.304 36.1401 409.079 36.3883C408.854 36.6365 408.745 36.9367 408.745 37.2947V37.7161C408.745 38.0567 408.86 38.3511 409.085 38.5878C409.321 38.8303 409.626 39.015 409.995 39.142C410.375 39.269 410.784 39.3383 411.211 39.3383C411.706 39.3383 412.144 39.2575 412.512 39.1016C412.881 38.9457 413.163 38.7264 413.365 38.4435" fill="black"/>
<path d="M418.446 33.5024V35.0034H420.992V35.6731H418.446V38.3806C418.446 38.6462 418.555 38.8482 418.774 38.9983C418.993 39.1427 419.298 39.2177 419.69 39.2177H420.992V40.0144H419.857C419.31 40.0144 418.832 39.9624 418.428 39.8585C418.031 39.7488 417.72 39.5699 417.507 39.3158C417.288 39.0561 417.178 38.7097 417.178 38.2709V35.6731H415.905V35.0034H417.178V33.5024H418.451H418.446Z" fill="black"/>
<path d="M422.098 35.0034H424.558V35.7077V39.9509H423.233V35.7077H422.098V35.0034Z" fill="black"/>
<path d="M423.608 34.2065C423.314 34.2065 423.095 34.1545 422.951 34.0448C422.813 33.9409 422.738 33.8081 422.738 33.6465C422.738 33.4848 422.813 33.3521 422.951 33.2482C423.095 33.1442 423.314 33.0923 423.608 33.0923C423.901 33.0923 424.12 33.1442 424.264 33.2482C424.403 33.3521 424.478 33.4848 424.478 33.6465C424.478 33.8081 424.403 33.9409 424.264 34.0448C424.12 34.1545 423.901 34.2065 423.608 34.2065Z" fill="black"/>
<path d="M435.486 34.853C436.068 34.853 436.546 34.9454 436.938 35.1244C437.324 35.3033 437.612 35.5573 437.796 35.8979C437.986 36.2328 438.084 36.6427 438.084 37.1276V39.9563H436.759V36.9371C436.759 36.533 436.615 36.227 436.315 36.0076C436.016 35.7883 435.613 35.6786 435.083 35.6786C434.553 35.6786 434.103 35.794 433.769 36.0249C433.435 36.2559 433.274 36.5792 433.274 36.9948V39.9621H431.949V36.9428C431.949 36.5387 431.805 36.2328 431.505 36.0134C431.211 35.794 430.802 35.6843 430.272 35.6843C429.743 35.6843 429.293 35.7998 428.959 36.0307C428.625 36.2616 428.464 36.5849 428.464 37.0006V39.9679H427.139V35.0147H428.193V36.1519C428.227 36.0654 428.262 35.9845 428.308 35.9095C428.498 35.5747 428.786 35.3149 429.161 35.1359C429.541 34.9569 430.019 34.8646 430.601 34.8646H430.653C431.235 34.8646 431.713 34.9569 432.099 35.1359C432.485 35.3149 432.767 35.5689 432.951 35.9095C432.986 35.9672 433.015 36.0307 433.038 36.0942C433.066 36.0307 433.095 35.973 433.13 35.9095C433.32 35.5747 433.614 35.3149 433.988 35.1359C434.374 34.9569 434.852 34.8646 435.434 34.8646H435.492L435.486 34.853Z" fill="black"/>
<path d="M439.743 35.0034H442.203V35.7077V39.9509H440.878V35.7077H439.743V35.0034Z" fill="black"/>
<path d="M441.253 34.2065C440.959 34.2065 440.74 34.1545 440.596 34.0448C440.452 33.9409 440.383 33.8081 440.383 33.6465C440.383 33.4848 440.452 33.3521 440.596 33.2482C440.74 33.1442 440.959 33.0923 441.253 33.0923C441.546 33.0923 441.765 33.1442 441.904 33.2482C442.048 33.3521 442.123 33.4848 442.123 33.6465C442.123 33.8081 442.048 33.9409 441.904 34.0448C441.765 34.1545 441.546 34.2065 441.253 34.2065Z" fill="black"/>
<path d="M449.502 35.0034V35.9906L445.556 39.1715L445.642 39.2466H449.721V39.9509H444.306V38.9637L448.246 35.7943L448.16 35.7077H444.248V35.0034H449.502Z" fill="black"/>
<path d="M458.034 37.2427V37.641H452.175C452.198 37.9239 452.284 38.1895 452.428 38.4204C452.601 38.7033 452.866 38.9226 453.223 39.0901C453.581 39.2517 454.036 39.3383 454.594 39.3383C455.153 39.3383 455.649 39.2517 456.012 39.0785C456.38 38.9053 456.599 38.709 456.668 38.4781H457.913C457.809 38.8187 457.607 39.1131 457.308 39.3556C457.002 39.6039 456.616 39.7944 456.156 39.9214C455.695 40.0484 455.176 40.1176 454.594 40.1176C453.949 40.1176 453.39 40.0426 452.918 39.8925C452.451 39.7424 452.066 39.5461 451.772 39.3037C451.478 39.0554 451.259 38.7841 451.115 38.4839C450.977 38.1837 450.902 37.872 450.902 37.5544V37.387C450.902 37.0695 450.977 36.752 451.115 36.4518C451.259 36.1516 451.478 35.8745 451.772 35.632C452.066 35.3838 452.44 35.1933 452.895 35.049C453.35 34.9046 453.892 34.8296 454.508 34.8296C455.315 34.8296 455.971 34.945 456.495 35.176C457.014 35.4069 457.4 35.7071 457.659 36.0708C457.913 36.4345 458.039 36.827 458.039 37.2369L458.034 37.2427ZM452.233 36.9771H456.732C456.691 36.7751 456.622 36.5904 456.513 36.4229C456.346 36.1689 456.098 35.9669 455.764 35.8225C455.43 35.6782 455.015 35.6089 454.502 35.6089C453.99 35.6089 453.54 35.6898 453.195 35.8514C452.849 36.0131 452.595 36.2324 452.423 36.5095C452.336 36.6539 452.267 36.804 452.227 36.9714" fill="black"/>
<path d="M465.568 33.185H466.893V39.9567H465.845V38.9464C465.805 39.0099 465.753 39.0676 465.707 39.1254C465.396 39.4775 465.004 39.7315 464.526 39.8874C464.048 40.0433 463.541 40.1241 462.993 40.1241C462.446 40.1241 461.985 40.0606 461.542 39.9278C461.104 39.8008 460.718 39.6161 460.39 39.3794C460.061 39.1427 459.808 38.8714 459.629 38.5596C459.445 38.2479 459.358 37.9188 459.358 37.5609V37.3935C459.358 37.0413 459.445 36.7123 459.623 36.4005C459.796 36.0888 460.044 35.8175 460.361 35.5808C460.683 35.3441 461.064 35.1651 461.496 35.0266C461.933 34.8938 462.417 34.8303 462.953 34.8303C463.518 34.8303 464.025 34.9111 464.485 35.067C464.917 35.2113 465.275 35.4422 465.563 35.7424V33.1792L465.568 33.185ZM465.626 37.6417V37.2145C465.626 36.8797 465.511 36.5853 465.292 36.3486C465.061 36.1119 464.762 35.9271 464.387 35.8001C464.013 35.6731 463.61 35.6096 463.166 35.6096C462.677 35.6096 462.25 35.6847 461.876 35.8405C461.501 35.9906 461.213 36.21 461.006 36.4871C460.799 36.7642 460.695 37.0933 460.695 37.4685C460.695 37.8438 460.799 38.1728 461.012 38.4557C461.225 38.7386 461.519 38.9522 461.899 39.1081C462.279 39.2582 462.705 39.3332 463.184 39.3332C463.633 39.3332 464.042 39.2639 464.411 39.1254C464.779 38.9926 465.073 38.7963 465.298 38.5365C465.522 38.2767 465.632 37.9823 465.632 37.6302" fill="black"/>
<path d="M405.11 46.3587C405.323 46.7629 405.433 47.167 405.433 47.5711V47.7789C405.433 48.1484 405.323 48.5352 405.116 48.9393C404.908 49.3434 404.597 49.7186 404.171 50.0708C403.745 50.4229 403.209 50.7058 402.552 50.9252C402.063 51.0868 401.498 51.1907 400.864 51.2311V51.5718C400.864 51.7796 400.951 51.9355 401.129 52.0567C401.308 52.1721 401.55 52.2356 401.844 52.2356H403.555V53.0439H402.08C401.585 53.0439 401.153 52.9977 400.778 52.8995C400.409 52.8072 400.127 52.6398 399.925 52.4031C399.724 52.1664 399.62 51.8489 399.62 51.439V51.2369C398.969 51.1965 398.387 51.0984 397.88 50.931C397.229 50.7116 396.688 50.4287 396.262 50.0766C395.841 49.7244 395.524 49.3492 395.317 48.945C395.11 48.5409 395.006 48.1541 395.006 47.7847V47.5768C395.006 47.1727 395.11 46.7686 395.323 46.3645C395.536 45.9546 395.858 45.5794 396.29 45.2446C396.723 44.9097 397.264 44.6384 397.915 44.4363C398.566 44.2285 399.338 44.1304 400.219 44.1304C401.101 44.1304 401.873 44.2285 402.524 44.4363C403.175 44.6442 403.716 44.9097 404.148 45.2446C404.586 45.5794 404.903 45.9546 405.116 46.3645L405.11 46.3587ZM403.779 48.7084C403.958 48.3793 404.044 48.0387 404.044 47.6808C404.044 47.3228 403.958 46.9534 403.779 46.6243C403.601 46.2952 403.347 46.0066 403.025 45.7584C402.691 45.5101 402.287 45.3081 401.809 45.1695C401.337 45.0252 400.801 44.9559 400.214 44.9559C399.626 44.9559 399.096 45.0252 398.618 45.1695C398.145 45.3138 397.742 45.5101 397.408 45.7584C397.074 46.0066 396.82 46.2952 396.648 46.6243C396.469 46.9534 396.383 47.3055 396.383 47.6808C396.383 48.056 396.469 48.3793 396.648 48.7084C396.826 49.0316 397.08 49.3261 397.408 49.5801C397.742 49.8399 398.145 50.0361 398.618 50.1862C399.096 50.3363 399.626 50.4114 400.214 50.4114C400.801 50.4114 401.337 50.3363 401.809 50.1862C402.287 50.0361 402.691 49.8341 403.025 49.5801C403.353 49.3261 403.607 49.0316 403.779 48.7084Z" fill="black"/>
<path d="M413.573 46.1162V51.0752H412.518V49.9322C412.484 50.0245 412.444 50.1053 412.392 50.1862C412.202 50.521 411.914 50.7808 411.533 50.9597C411.147 51.1329 410.663 51.2253 410.07 51.2253H410.018C409.143 51.2253 408.469 51.0348 407.996 50.648C407.53 50.267 407.293 49.7128 407.293 48.9912V46.1162H408.618V49.1701C408.618 49.5569 408.78 49.8629 409.091 50.0823C409.408 50.3016 409.828 50.4113 410.364 50.4113C410.9 50.4113 411.372 50.2959 411.723 50.0534C412.069 49.8167 412.248 49.4876 412.248 49.0778V46.122H413.573V46.1162Z" fill="black"/>
<path d="M422.72 48.3677V48.766H416.867C416.89 49.0489 416.971 49.3145 417.115 49.5454C417.288 49.8283 417.553 50.0476 417.91 50.2151C418.273 50.3767 418.728 50.4633 419.281 50.4633C419.863 50.4633 420.341 50.3767 420.704 50.2035C421.067 50.0303 421.286 49.834 421.355 49.6031H422.599C422.501 49.9437 422.3 50.2381 421.994 50.4806C421.689 50.7231 421.309 50.9194 420.848 51.0464C420.387 51.1734 419.863 51.2426 419.281 51.2426C418.636 51.2426 418.077 51.1676 417.61 51.0175C417.138 50.8674 416.752 50.6711 416.458 50.4287C416.164 50.1804 415.946 49.9091 415.807 49.6089C415.663 49.3087 415.588 48.997 415.588 48.6794V48.512C415.588 48.1945 415.663 47.877 415.807 47.5768C415.946 47.2766 416.164 46.9995 416.458 46.757C416.752 46.5088 417.132 46.3183 417.587 46.174C418.042 46.0296 418.578 45.9546 419.195 45.9546C420.001 45.9546 420.664 46.07 421.182 46.301C421.706 46.5319 422.086 46.8321 422.346 47.1958C422.599 47.5595 422.726 47.952 422.726 48.3619L422.72 48.3677ZM416.919 48.1021H421.418C421.378 47.9001 421.309 47.7154 421.199 47.5479C421.032 47.2939 420.785 47.0919 420.45 46.9475C420.116 46.8032 419.702 46.7339 419.189 46.7339C418.676 46.7339 418.227 46.8148 417.881 46.9764C417.541 47.1381 417.282 47.3574 417.109 47.6345C417.023 47.7789 416.959 47.929 416.913 48.0964" fill="black"/>
<path d="M428.694 46.0702V46.8669H428.228C427.484 46.8669 426.92 46.9997 426.528 47.2652C426.131 47.525 425.935 47.906 425.935 48.3967V51.0754H424.61V46.1222H425.664V47.5943C425.762 47.1555 425.981 46.8092 426.315 46.5667C426.793 46.2319 427.502 46.0645 428.452 46.0645H428.7L428.694 46.0702Z" fill="black"/>
<path d="M436.397 46.1278L433.937 51.6064C433.793 51.9355 433.585 52.201 433.315 52.4089C433.044 52.6167 432.721 52.7668 432.341 52.8591C431.955 52.9573 431.511 53.0035 431.01 53.0035H430.025V52.201H431.091C431.402 52.201 431.667 52.1779 431.886 52.126C432.105 52.0682 432.278 51.9817 432.427 51.8604C432.571 51.7334 432.687 51.5718 432.779 51.3639L432.957 50.9598H432.139L429.501 46.1221H430.855L432.998 50.2209H433.286L435.1 46.1221H436.402L436.397 46.1278Z" fill="black"/>
<path d="M447.854 45.2794C448.142 45.6027 448.286 45.9837 448.286 46.4225V46.5726C448.286 47.0055 448.142 47.3808 447.854 47.7098C447.572 48.0331 447.151 48.2814 446.587 48.4603C446.034 48.6335 445.337 48.7259 444.507 48.7259H442.779V51.0813H441.419V44.2749H444.501C445.331 44.2749 446.028 44.3615 446.581 44.5405C447.14 44.7137 447.56 44.9619 447.848 45.2852L447.854 45.2794ZM446.662 47.2249C446.823 47.0055 446.898 46.7688 446.898 46.5033C446.898 46.2377 446.823 45.9837 446.662 45.7701C446.5 45.5565 446.264 45.3833 445.947 45.2563C445.636 45.1351 445.239 45.0716 444.761 45.0716H442.785V47.9234H444.761C445.239 47.9234 445.636 47.8599 445.947 47.7329C446.264 47.6059 446.5 47.4327 446.662 47.2191" fill="black"/>
<path d="M451.495 44.3096V45.0139V51.0755H450.17V45.0139H449.139V44.3096H451.495Z" fill="black"/>
<path d="M459.209 46.8379C459.439 47.115 459.549 47.4787 459.549 47.9463V51.081H458.5V50.0996C458.437 50.244 458.356 50.371 458.258 50.4864C458.051 50.7231 457.769 50.9021 457.406 51.0291C457.037 51.1503 456.599 51.2138 456.086 51.2138C455.533 51.2138 455.055 51.1503 454.658 51.0233C454.26 50.8963 453.949 50.7116 453.73 50.4691C453.517 50.2266 453.408 49.938 453.408 49.5974C453.408 49.2568 453.523 48.9566 453.759 48.7199C453.99 48.4832 454.335 48.3042 454.785 48.1888C455.234 48.0675 455.781 48.0098 456.415 48.0098H458.281V47.8886C458.281 47.548 458.149 47.2882 457.89 47.1208C457.625 46.9476 457.244 46.861 456.732 46.861C456.444 46.861 456.15 46.861 455.85 46.8725C455.545 46.8725 455.251 46.8841 454.98 46.8898C454.698 46.8956 454.462 46.9014 454.26 46.9187V46.1394C454.462 46.1278 454.675 46.1163 454.905 46.1105C455.136 46.0989 455.361 46.0932 455.603 46.0874C455.839 46.0874 456.069 46.0874 456.294 46.0874C457.048 46.0874 457.671 46.1451 458.143 46.2664C458.627 46.3876 458.978 46.5839 459.209 46.8552V46.8379ZM458.281 49.2395V48.6679H456.357C455.821 48.6679 455.412 48.7545 455.13 48.9277C454.842 49.1009 454.698 49.326 454.698 49.5974C454.698 49.8687 454.842 50.0939 455.13 50.2555C455.412 50.4229 455.827 50.5037 456.357 50.5037C456.674 50.5037 456.974 50.4633 457.262 50.3883C457.544 50.3132 457.786 50.1805 457.97 50.0015C458.155 49.8225 458.258 49.5685 458.281 49.2452" fill="black"/>
<path d="M465.667 45.9775C466.6 45.9775 467.285 46.1738 467.735 46.5606C468.178 46.9474 468.403 47.5132 468.403 48.2521V51.0809H467.078V48.0674C467.078 47.6863 466.917 47.3804 466.594 47.1437C466.266 46.9128 465.828 46.7973 465.269 46.7973C464.71 46.7973 464.215 46.9185 463.858 47.161C463.495 47.4035 463.316 47.7268 463.316 48.1251V51.0809H461.991V46.1276H463.04V47.288C463.08 47.1899 463.12 47.1033 463.172 47.0167C463.368 46.6818 463.668 46.4221 464.077 46.2431C464.48 46.0699 464.993 45.9775 465.609 45.9775H465.667Z" fill="black"/>
<path d="M578.11 40.2401C578.317 40.6442 578.427 41.0483 578.427 41.4524V41.6602C578.427 42.0297 578.323 42.4165 578.116 42.8206C577.908 43.219 577.592 43.6 577.165 43.9521C576.739 44.3043 576.203 44.5872 575.547 44.8065C575.057 44.9682 574.492 45.0721 573.864 45.1125V45.4531C573.864 45.6609 573.951 45.8168 574.135 45.938C574.314 46.0535 574.55 46.117 574.844 46.117H576.56V46.9252H575.08C574.59 46.9252 574.152 46.879 573.784 46.7809C573.415 46.6885 573.133 46.5211 572.925 46.2844C572.718 46.0477 572.62 45.7302 572.62 45.3203V45.1183C571.963 45.0779 571.382 44.9797 570.88 44.8123C570.229 44.5929 569.688 44.3101 569.262 43.9579C568.835 43.6057 568.518 43.2305 568.311 42.8264C568.104 42.4223 568 42.0355 568 41.666V41.4582C568 41.0541 568.109 40.65 568.323 40.2459C568.53 39.836 568.858 39.4665 569.285 39.1259C569.722 38.7911 570.258 38.5197 570.915 38.3177C571.56 38.1099 572.332 38.0117 573.219 38.0117C574.106 38.0117 574.867 38.1099 575.523 38.3177C576.169 38.5255 576.71 38.7911 577.148 39.1259C577.58 39.4607 577.903 39.836 578.116 40.2459L578.11 40.2401ZM576.779 42.5897C576.958 42.2606 577.044 41.92 577.044 41.5621C577.044 41.1811 576.958 40.8347 576.779 40.5057C576.606 40.1766 576.353 39.8879 576.025 39.6397C575.696 39.3915 575.287 39.1894 574.809 39.0509C574.337 38.9065 573.801 38.8373 573.219 38.8373C572.637 38.8373 572.096 38.9065 571.618 39.0509C571.145 39.1952 570.742 39.3915 570.408 39.6397C570.074 39.8879 569.82 40.1766 569.653 40.5057C569.475 40.8347 569.388 41.1811 569.388 41.5621C569.388 41.92 569.475 42.2606 569.653 42.5897C569.826 42.913 570.08 43.2074 570.408 43.4614C570.742 43.7212 571.145 43.9175 571.618 44.0676C572.096 44.2177 572.626 44.2927 573.219 44.2927C573.813 44.2927 574.337 44.2177 574.809 44.0676C575.287 43.9175 575.691 43.7154 576.025 43.4614C576.359 43.2074 576.612 42.913 576.779 42.5897Z" fill="black"/>
<path d="M586.573 39.9917V44.9507H585.518V43.8019C585.484 43.8942 585.443 43.9808 585.392 44.0617C585.202 44.3965 584.908 44.6563 584.528 44.8352C584.142 45.0084 583.663 45.1008 583.07 45.1008H583.012C582.137 45.1008 581.463 44.9045 580.996 44.5235C580.524 44.1425 580.293 43.5883 580.293 42.8666V39.9917H581.618V43.0456C581.618 43.4324 581.774 43.7384 582.085 43.9577C582.402 44.1771 582.828 44.2868 583.358 44.2868C583.888 44.2868 584.366 44.1713 584.712 43.9289C585.063 43.6922 585.242 43.3631 585.242 42.9532V39.9917H586.567H586.573Z" fill="black"/>
<path d="M595.726 42.249V42.6474H589.867C589.89 42.9303 589.977 43.1958 590.115 43.4267C590.288 43.7096 590.553 43.929 590.916 44.0964C591.273 44.258 591.728 44.3446 592.287 44.3446C592.846 44.3446 593.341 44.258 593.704 44.0849C594.067 43.9117 594.292 43.7154 594.361 43.4845H595.605C595.501 43.8251 595.3 44.1195 594.994 44.362C594.695 44.6102 594.309 44.8007 593.848 44.9277C593.387 45.0547 592.869 45.124 592.287 45.124C591.642 45.124 591.083 45.0489 590.61 44.8988C590.138 44.7488 589.758 44.5525 589.464 44.31C589.17 44.0618 588.951 43.7904 588.807 43.4902C588.663 43.19 588.594 42.8783 588.594 42.5608V42.3934C588.594 42.0759 588.663 41.7583 588.807 41.4581C588.951 41.158 589.17 40.8808 589.464 40.6384C589.758 40.3901 590.132 40.1996 590.587 40.0553C591.043 39.911 591.584 39.8359 592.2 39.8359C593.001 39.8359 593.664 39.9514 594.182 40.1823C594.706 40.4132 595.092 40.7134 595.346 41.0771C595.599 41.4408 595.732 41.8334 595.732 42.2433L595.726 42.249ZM589.919 41.9777H594.413C594.372 41.7757 594.303 41.5909 594.199 41.4235C594.032 41.1637 593.779 40.9674 593.45 40.8231C593.122 40.6788 592.702 40.6095 592.195 40.6095C591.688 40.6095 591.233 40.6903 590.887 40.852C590.541 41.0136 590.282 41.233 590.109 41.5101C590.023 41.6544 589.96 41.8045 589.919 41.9719" fill="black"/>
<path d="M601.694 39.9516V40.7482H601.222C600.484 40.7482 599.92 40.881 599.522 41.1466C599.131 41.4064 598.929 41.7874 598.929 42.2781V44.9568H597.598V40.0035H598.652V41.4756C598.75 41.0369 598.969 40.6905 599.309 40.4481C599.781 40.1132 600.496 39.9458 601.446 39.9458H601.694V39.9516Z" fill="black"/>
<path d="M609.396 40.0033L606.931 45.4819C606.787 45.811 606.579 46.0765 606.309 46.2843C606.044 46.4922 605.715 46.6423 605.335 46.7346C604.955 46.8328 604.511 46.879 604.004 46.879H603.025V46.0765H604.085C604.402 46.0765 604.667 46.0534 604.88 46.0015C605.099 45.9437 605.278 45.8571 605.422 45.7359C605.566 45.6089 605.687 45.4473 605.773 45.2394L605.952 44.8353H605.139L602.495 39.9976H603.855L605.998 44.0964H606.28L608.095 39.9976H609.396V40.0033Z" fill="black"/>
<path d="M618.728 38C619.633 38 620.41 38.1039 621.05 38.3175C621.695 38.5253 622.208 38.8198 622.582 39.195C622.962 39.5703 623.187 40.0148 623.273 40.5286H621.897C621.822 40.1476 621.637 39.83 621.344 39.5818C621.05 39.3336 620.681 39.1431 620.226 39.016C619.783 38.8948 619.281 38.8313 618.728 38.8313C618.129 38.8313 617.605 38.9006 617.15 39.0391C616.695 39.1777 616.326 39.374 616.027 39.6222C615.727 39.8704 615.497 40.1591 615.347 40.4882C615.197 40.8172 615.116 41.1751 615.116 41.5562C615.116 41.9372 615.197 42.2662 615.347 42.5953C615.497 42.9244 615.733 43.213 616.038 43.467C616.349 43.721 616.735 43.9173 617.196 44.0674C617.657 44.2175 618.198 44.2868 618.815 44.2868C619.679 44.2868 620.41 44.1425 620.998 43.8538C621.591 43.5594 621.954 43.1437 622.075 42.5895H623.458C623.366 43.0514 623.129 43.4786 622.755 43.8596C622.381 44.2406 621.868 44.5466 621.211 44.7775C620.554 45.0084 619.748 45.1239 618.809 45.1239C617.87 45.1239 617.104 45.0142 616.447 44.8006C615.802 44.5812 615.278 44.2983 614.88 43.9577C614.483 43.6113 614.189 43.2361 614.01 42.832C613.826 42.4279 613.728 42.0353 613.728 41.6601V41.4522C613.728 41.0481 613.826 40.6325 614.01 40.2284C614.195 39.8243 614.494 39.449 614.886 39.1142C615.283 38.7794 615.796 38.5138 616.436 38.306C617.075 38.0981 617.83 38 618.717 38H618.728Z" fill="black"/>
<path d="M632.318 41.4639C632.497 41.7699 632.583 42.0816 632.583 42.3934V42.5608C632.583 42.8783 632.502 43.1843 632.329 43.4902C632.157 43.7904 631.903 44.0618 631.569 44.31C631.235 44.5525 630.82 44.7488 630.331 44.8988C629.841 45.0489 629.276 45.124 628.631 45.124C627.986 45.124 627.421 45.0489 626.932 44.8988C626.442 44.7488 626.033 44.5525 625.699 44.31C625.365 44.0618 625.106 43.7904 624.939 43.4902C624.766 43.19 624.685 42.8783 624.685 42.5608V42.3934C624.685 42.0759 624.771 41.7699 624.944 41.4639C625.123 41.158 625.382 40.8808 625.722 40.6384C626.056 40.3901 626.471 40.1996 626.966 40.0553C627.456 39.911 628.009 39.8359 628.637 39.8359C629.265 39.8359 629.824 39.911 630.313 40.0553C630.803 40.1996 631.218 40.3901 631.558 40.6384C631.897 40.8808 632.157 41.158 632.329 41.4639H632.318ZM630.941 43.4152C631.149 43.1381 631.252 42.8263 631.252 42.48C631.252 42.1336 631.149 41.8103 630.935 41.5332C630.722 41.2561 630.423 41.0367 630.031 40.8751C629.639 40.7134 629.173 40.6326 628.625 40.6326C628.078 40.6326 627.623 40.7134 627.231 40.8751C626.84 41.0367 626.528 41.2561 626.321 41.5332C626.108 41.8103 626.004 42.1278 626.004 42.48C626.004 42.8321 626.108 43.1381 626.315 43.4152C626.523 43.6923 626.817 43.9174 627.214 44.0791C627.606 44.2407 628.078 44.3273 628.631 44.3273C629.184 44.3273 629.657 44.2465 630.054 44.0791C630.446 43.9174 630.745 43.6923 630.953 43.4152" fill="black"/>
<path d="M640.227 38.1846H641.552V44.9563H640.498V43.9518C640.452 44.0153 640.406 44.073 640.36 44.125C640.049 44.4771 639.657 44.7311 639.179 44.887C638.707 45.0429 638.2 45.1237 637.652 45.1237C637.105 45.1237 636.644 45.0602 636.201 44.9274C635.757 44.8004 635.371 44.6157 635.043 44.379C634.715 44.1423 634.461 43.871 634.282 43.5592C634.104 43.2475 634.012 42.9184 634.012 42.5605V42.3931C634.012 42.0409 634.098 41.7119 634.277 41.4001C634.455 41.0884 634.697 40.8171 635.02 40.5804C635.337 40.3437 635.717 40.1647 636.149 40.0262C636.587 39.8934 637.076 39.8299 637.612 39.8299C638.148 39.8299 638.684 39.9107 639.144 40.0666C639.577 40.2167 639.934 40.4418 640.222 40.7478V38.1846H640.227ZM640.279 42.6471V42.2199C640.279 41.8793 640.17 41.5906 639.945 41.3539C639.715 41.1115 639.421 40.9325 639.047 40.8055C638.672 40.6785 638.263 40.615 637.825 40.615C637.336 40.615 636.904 40.69 636.529 40.8459C636.155 40.996 635.867 41.2154 635.659 41.4925C635.452 41.7696 635.348 42.0987 635.348 42.4739C635.348 42.8491 635.458 43.1782 635.671 43.4611C635.884 43.744 636.172 43.9576 636.552 44.1134C636.932 44.2635 637.359 44.3386 637.837 44.3386C638.286 44.3386 638.701 44.2693 639.07 44.1307C639.438 43.998 639.732 43.8017 639.951 43.5419C640.176 43.2821 640.285 42.9877 640.285 42.6355" fill="black"/>
<path d="M650.683 42.249V42.6474H644.824C644.847 42.9303 644.928 43.1958 645.072 43.4267C645.245 43.7096 645.51 43.929 645.873 44.0964C646.23 44.258 646.685 44.3446 647.244 44.3446C647.803 44.3446 648.298 44.258 648.661 44.0849C649.024 43.9117 649.243 43.7154 649.318 43.4845H650.562C650.458 43.8251 650.257 44.1195 649.951 44.362C649.652 44.6102 649.266 44.8007 648.805 44.9277C648.344 45.0547 647.826 45.124 647.244 45.124C646.599 45.124 646.04 45.0489 645.568 44.8988C645.095 44.7488 644.715 44.5525 644.421 44.31C644.127 44.0618 643.908 43.7904 643.764 43.4902C643.62 43.19 643.551 42.8783 643.551 42.5608V42.3934C643.551 42.0759 643.62 41.7583 643.764 41.4581C643.908 41.158 644.127 40.8808 644.421 40.6384C644.715 40.3901 645.089 40.1996 645.544 40.0553C646 39.911 646.541 39.8359 647.157 39.8359C647.958 39.8359 648.621 39.9514 649.139 40.1823C649.663 40.4132 650.044 40.7134 650.303 41.0771C650.556 41.4408 650.689 41.8334 650.689 42.2433L650.683 42.249ZM644.876 41.9777H649.375C649.335 41.7757 649.266 41.5909 649.156 41.4235C648.989 41.1637 648.742 40.9674 648.408 40.8231C648.073 40.6788 647.659 40.6095 647.152 40.6095C646.622 40.6095 646.19 40.6903 645.844 40.852C645.498 41.0136 645.239 41.233 645.066 41.5101C644.98 41.6544 644.917 41.8045 644.87 41.9719" fill="black"/>
<path d="M772.954 42.2027L775.886 44.8006H774.245L771.526 42.3528C771.456 42.3528 771.382 42.3528 771.307 42.3528H769.36V44.8006H768V38H771.301C772.044 38 772.683 38.075 773.242 38.2251C773.795 38.3695 774.222 38.6004 774.527 38.9121C774.832 39.2239 774.982 39.6222 774.982 40.1071V40.2572C774.982 40.7422 774.826 41.1463 774.515 41.4522C774.21 41.764 773.778 41.9891 773.236 42.1392C773.144 42.1623 773.046 42.1854 772.948 42.2085L772.954 42.2027ZM771.56 41.5504C771.981 41.5504 772.349 41.4927 772.649 41.3714C772.954 41.256 773.19 41.0943 773.352 40.8865C773.519 40.6787 773.599 40.4477 773.599 40.1764C773.599 39.9051 773.519 39.6742 773.352 39.4663C773.185 39.2585 772.954 39.0969 772.649 38.9756C772.349 38.8544 771.981 38.7967 771.56 38.7967H769.36V41.5504H771.56Z" fill="black"/>
<path d="M783.934 42.0928V42.4911H778.081C778.104 42.774 778.185 43.0396 778.329 43.2705C778.502 43.5534 778.767 43.7727 779.124 43.9402C779.487 44.1018 779.942 44.1884 780.495 44.1884C781.077 44.1884 781.549 44.1018 781.918 43.9286C782.281 43.7554 782.5 43.5591 782.569 43.3282H783.813C783.715 43.6688 783.513 43.9632 783.208 44.2057C782.903 44.4482 782.517 44.6445 782.062 44.7715C781.601 44.8985 781.077 44.9677 780.495 44.9677C779.85 44.9677 779.291 44.8927 778.824 44.7426C778.352 44.5925 777.966 44.3962 777.672 44.1538C777.378 43.9055 777.159 43.6342 777.021 43.334C776.877 43.0338 776.802 42.7221 776.802 42.4045V42.2371C776.802 41.9196 776.877 41.6021 777.021 41.3019C777.159 41.0017 777.378 40.7246 777.672 40.4821C777.966 40.2339 778.346 40.0434 778.795 39.8991C779.256 39.7547 779.792 39.6797 780.408 39.6797C781.215 39.6797 781.872 39.7951 782.396 40.0261C782.914 40.257 783.3 40.5572 783.56 40.9209C783.813 41.2846 783.94 41.6771 783.94 42.087L783.934 42.0928ZM778.133 41.8272H782.632C782.592 41.6252 782.523 41.4404 782.413 41.273C782.246 41.0132 781.998 40.817 781.664 40.6726C781.33 40.5283 780.915 40.459 780.403 40.459C779.89 40.459 779.441 40.5399 779.095 40.7015C778.755 40.8632 778.496 41.0825 778.323 41.3596C778.237 41.504 778.173 41.654 778.127 41.8215" fill="black"/>
<path d="M788.237 39.7031C789.067 39.7031 789.735 39.8301 790.253 40.0726C790.772 40.3208 791.037 40.6903 791.06 41.1752H789.816C789.804 40.979 789.672 40.8115 789.407 40.673C789.142 40.5344 788.756 40.4652 788.243 40.4652C787.73 40.4652 787.333 40.5344 787.068 40.6788C786.797 40.8231 786.67 41.002 786.67 41.2156C786.67 41.4004 786.763 41.5505 786.953 41.6602C787.143 41.7699 787.454 41.8391 787.886 41.8738L788.692 41.9315C789.487 41.9892 790.121 42.1393 790.599 42.3702C791.077 42.6069 791.319 42.9418 791.319 43.3747C791.319 43.6865 791.187 43.9578 790.928 44.1945C790.663 44.437 790.3 44.6159 789.839 44.7487C789.378 44.8815 788.848 44.9508 788.255 44.9508C787.287 44.9508 786.532 44.8122 786.002 44.5351C785.472 44.258 785.196 43.877 785.184 43.3921H786.428C786.446 43.5826 786.59 43.7615 786.866 43.9347C787.137 44.1079 787.598 44.1887 788.255 44.1887C788.842 44.1887 789.291 44.1079 789.608 43.952C789.919 43.7962 790.081 43.5999 790.081 43.369C790.081 43.1669 789.96 43.0053 789.735 42.8898C789.499 42.7744 789.13 42.6993 788.617 42.6647L787.811 42.6069C787.114 42.555 786.544 42.4164 786.1 42.1855C785.656 41.9546 785.438 41.6313 785.438 41.2099C785.438 40.8924 785.559 40.6268 785.795 40.4017C786.031 40.1765 786.365 40.0033 786.791 39.8821C787.218 39.7666 787.702 39.7031 788.26 39.7031H788.237Z" fill="black"/>
<path d="M799.338 39.8413V44.8003H798.284V43.6573C798.249 43.7496 798.209 43.8304 798.157 43.9113C797.967 44.2461 797.673 44.5059 797.299 44.6848C796.913 44.858 796.429 44.9504 795.836 44.9504H795.784C794.908 44.9504 794.234 44.7541 793.762 44.3731C793.29 43.9921 793.059 43.4379 793.059 42.7163V39.8413H794.384V42.8952C794.384 43.282 794.54 43.588 794.856 43.8074C795.168 44.0267 795.594 44.1364 796.13 44.1364C796.665 44.1364 797.138 44.021 797.489 43.7785C797.835 43.5418 798.013 43.2127 798.013 42.8029V39.8413H799.338Z" fill="black"/>
<path d="M803.319 38.0347V38.739V44.8064H801.994V38.739H800.968V38.0347H803.319Z" fill="black"/>
<path d="M807.328 38.3521V39.853H809.874V40.5227H807.328V43.2302C807.328 43.4958 807.438 43.6978 807.656 43.8479C807.875 43.9923 808.181 44.0673 808.572 44.0673H809.874V44.864H808.739C808.186 44.864 807.708 44.812 807.311 44.7081C806.913 44.5984 806.602 44.4195 806.383 44.1655C806.17 43.9057 806.061 43.5593 806.061 43.1205V40.5227H804.788V39.853H806.061V38.3521H807.334H807.328Z" fill="black"/>
<defs>
<clipPath id="clip0_738_10339">
<rect width="51" height="31" fill="white" transform="translate(674 81)"/>
</clipPath>
</defs>
</svg>
