<svg width="18" height="18" viewBox="0 0 18 18" fill="none" xmlns="http://www.w3.org/2000/svg">
<path d="M7.28951 10.8446L11.0289 8.68315L7.28951 6.52165V10.8446ZM15.6185 5.20313C15.7122 5.54177 15.777 5.99568 15.8202 6.57208C15.8707 7.14848 15.8923 7.64563 15.8923 8.07793L15.9355 8.68315C15.9355 10.261 15.8202 11.421 15.6185 12.1632C15.4384 12.8116 15.0205 13.2295 14.372 13.4096C14.0334 13.5033 13.4138 13.5681 12.4627 13.6114C11.5261 13.6618 10.6687 13.6834 9.87611 13.6834L8.73051 13.7266C5.71162 13.7266 3.83111 13.6114 3.089 13.4096C2.44055 13.2295 2.02266 12.8116 1.84253 12.1632C1.74887 11.8245 1.68402 11.3706 1.64079 10.7942C1.59036 10.2178 1.56874 9.72067 1.56874 9.28837L1.52551 8.68315C1.52551 7.10525 1.64079 5.94525 1.84253 5.20313C2.02266 4.55468 2.44055 4.13679 3.089 3.95667C3.42763 3.863 4.04726 3.79816 4.99832 3.75493C5.93497 3.70449 6.79237 3.68288 7.58492 3.68288L8.73051 3.63965C11.7494 3.63965 13.6299 3.75493 14.372 3.95667C15.0205 4.13679 15.4384 4.55468 15.6185 5.20313Z" fill="#DDDFE0"/>
</svg>
