<svg width="48" height="48" viewBox="0 0 48 48" fill="none" xmlns="http://www.w3.org/2000/svg">
<rect width="48" height="48" rx="8.42105" fill="#FA9349"/>
<rect x="0.421053" y="0.421053" width="47.1579" height="47.1579" rx="8" stroke="url(#paint0_linear_6737_39737)" stroke-opacity="0.2" stroke-width="0.842105"/>
<g clip-path="url(#clip0_6737_39737)">
<path d="M24 27.75C24 28.7446 24.3951 29.6984 25.0983 30.4017C25.8016 31.1049 26.7554 31.5 27.75 31.5C28.7446 31.5 29.6984 31.1049 30.4017 30.4017C31.1049 29.6984 31.5 28.7446 31.5 27.75C31.5 26.7554 31.1049 25.8016 30.4017 25.0983C29.6984 24.3951 28.7446 24 27.75 24C26.7554 24 25.8016 24.3951 25.0983 25.0983C24.3951 25.8016 24 26.7554 24 27.75Z" stroke="#FDFDFD" stroke-width="1.5" stroke-linecap="round" stroke-linejoin="round"/>
<path d="M25.25 30.875V36.5L27.75 34.625L30.25 36.5V30.875" stroke="#FDFDFD" stroke-width="1.5" stroke-linecap="round" stroke-linejoin="round"/>
<path d="M21.5 32.75H15.25C14.587 32.75 13.9511 32.4866 13.4822 32.0178C13.0134 31.5489 12.75 30.913 12.75 30.25V17.75C12.75 16.375 13.875 15.25 15.25 15.25H32.75C33.413 15.25 34.0489 15.5134 34.5178 15.9822C34.9866 16.4511 35.25 17.087 35.25 17.75V30.25C35.2496 30.6884 35.1338 31.119 34.9144 31.4985C34.695 31.8781 34.3797 32.1933 34 32.4125" stroke="#FDFDFD" stroke-width="1.5" stroke-linecap="round" stroke-linejoin="round"/>
<path d="M16.5 20.25H31.5" stroke="#FDFDFD" stroke-width="1.5" stroke-linecap="round" stroke-linejoin="round"/>
<path d="M16.5 24H20.25" stroke="#FDFDFD" stroke-width="1.5" stroke-linecap="round" stroke-linejoin="round"/>
<path d="M16.5 27.75H19" stroke="#FDFDFD" stroke-width="1.5" stroke-linecap="round" stroke-linejoin="round"/>
</g>
<defs>
<linearGradient id="paint0_linear_6737_39737" x1="49.6462" y1="50.6954" x2="-6.42038" y2="19.3966" gradientUnits="userSpaceOnUse">
<stop stop-color="white" stop-opacity="0.2"/>
<stop offset="0.506386" stop-color="white"/>
<stop offset="1" stop-color="white" stop-opacity="0.2"/>
</linearGradient>
<clipPath id="clip0_6737_39737">
<rect width="30" height="30" fill="white" transform="translate(9 9)"/>
</clipPath>
</defs>
</svg>
