<?xml version="1.0" encoding="UTF-8"?>
<svg fill="none" viewBox="0 0 764 663" xmlns="http://www.w3.org/2000/svg">
<g filter="url(#ak)">
<g clip-path="url(#aj)">
<rect x="243.3" y="109.1" width="630.8" height="484.2" rx="5.8" fill="#F0F0EF"/>
<g clip-path="url(#ai)" fill="#1C1C1C">
<path d="M264.4 135.8q-1.3 0-2.3-.6t-1.4-1.7a6 6 0 0 1-.5-2.5q0-1.5.5-2.6t1.5-1.6 2.2-.6q1.4 0 2.4.6t1.4 1.7.5 2.5-.5 2.6-1.5 1.6-2.3.6m0-.8q1.7 0 2.5-1 1-1 1-3t-1-3a3 3 0 0 0-2.5-1q-1.6 0-2.4 1-1 1-1 3t1 3a3 3 0 0 0 2.4 1m5.8.7v-7.2h.7v1.1l.7-.8q.5-.3 1-.3h.6v.8h-.5q-.8 0-1.3.5a2 2 0 0 0-.4 1.3v4.6zm3.2-3.5q0-1.2.4-2t1-1.3a3 3 0 0 1 1.7-.5q.9 0 1.5.4.7.3 1 1v-4.3h.8v10.2h-.7v-1.4q-.4.7-1 1.1a3 3 0 0 1-1.6.4 3 3 0 0 1-1.7-.4 3 3 0 0 1-1-1.3q-.4-.8-.4-2m.9 0q0 1.3.6 2.1t1.7.8q.7 0 1.3-.4.5-.2.8-.8t.3-1.3v-1q0-.7-.3-1.2t-.8-1l-1.3-.2q-1 0-1.7.8-.6.7-.6 2.2m10.3 3.6q-1 0-1.7-.4a3 3 0 0 1-1.2-1.3q-.4-.8-.4-2 0-1 .4-2 .4-.8 1-1.2.8-.5 1.8-.5a3 3 0 0 1 1.7.4q.6.5 1 1.4t.4 2H282v-.6h5l-.3.3q0-1.2-.5-2t-1.7-.8q-1 0-1.7.8-.7.7-.7 2.2t.7 2.2 1.8.7q.9.1 1.4-.4.6-.3.7-1.1l.8.2q-.1.6-.5 1.1t-1 .8zm4.4-.1v-7.2h.7v1.1l.8-.8q.4-.3 1-.3h.6v.8h-.6q-.8 0-1.2.5a2 2 0 0 0-.5 1.3v4.6zm17 .2q-1.4 0-2.3-.5-1-.6-1.5-1.7-.6-1-.6-2.6 0-1.5.5-2.5.6-1.2 1.5-1.7t2.4-.6q1.4 0 2.4.6t1.5 1.6.5 2.6-.5 2.6-1.5 1.6q-.9.6-2.4.6m0-1.6q1.2 0 1.9-.8.6-.7.6-2.4 0-1.5-.6-2.3-.6-.9-1.9-.9-1.1 0-1.8.8t-.7 2.4.6 2.3q.6.9 2 .9m7.7 1.5-2.7-7.4h1.9l1 3.2.8 2.7.8-2.7 1-3.2h1.9l-2.7 7.4zm8.6.1a4 4 0 0 1-1.8-.4q-.9-.5-1.3-1.3-.5-1-.5-2 0-1.2.4-2 .4-1 1.3-1.4.8-.5 1.9-.5t1.9.5 1.2 1.5.3 2.3H320v-1.2h4.3l-.6.5q.1-1-.2-1.6t-1.3-.6-1.4.6-.5 1.8.5 1.8 1.5.6l1.1-.3q.4-.3.6-.9l1.5.4q0 .7-.6 1.2t-1.1.7q-.7.3-1.6.3m4.6-.1v-7.4h1.6v1.2l.8-1 1-.2h.7v1.7h-.4l-.3-.1q-.6 0-1.1.4-.5.3-.5 1v4.4zm7.3 0-2.7-7.4h2l1 3.2.8 2.7.8-2.7 1-3.2h1.8l-2.6 7.4zm5.9 0v-7.4h1.7v7.4zm0-8.4v-1.8h1.7v1.8zm6.9 8.5a4 4 0 0 1-2-.4q-.7-.5-1.2-1.3-.5-1-.5-2 0-1.2.5-2 .4-1 1.2-1.4.8-.5 2-.5 1 0 1.8.5t1.2 1.5.3 2.3h-5.5v-1.2h4.3l-.6.5q0-1-.3-1.6-.4-.6-1.3-.6t-1.3.6q-.6.6-.5 1.8t.5 1.8q.5.6 1.4.6l1.1-.3q.5-.3.6-.9l1.5.4q0 .7-.6 1.2-.4.5-1 .7-.7.3-1.6.3m5.8-.1-2-7.4h1.8l1.2 5.6 1.2-5.6h2l1.2 5.5 1.2-5.5h1.8l-2 7.4h-2l-1.2-5.2-1.2 5.2z"/>
</g>
<mask id="ah" fill="#fff">
<path d="M224 46h667v46.7H224z"/>
</mask>
<path d="M224 46h667v46.7H224z" fill="#fff"/>
<path d="M891 92.1H224v1.2h667z" fill="#1C1C1C" fill-opacity=".1" mask="url(#ah)"/>
<path d="M244.6 73a.4.4 0 0 1-.4-.4v-6.5a.4.4 0 0 1 .4-.4h2.1V73z" fill="#FDFDFD"/>
<path d="M246.4 65.7V73a.4.4 0 1 0 .7 0v-7.3a.4.4 0 0 0-.7 0" fill="#1C1C1C"/>
<path d="m243.8 66 .2-.4q0-.2.6-.3h8l.5.3.2.5v6.5l-.2.6-.5.2h-8l-.6-.2-.2-.6zm.8 0v6.6h8v-6.5z" clip-rule="evenodd" fill="#1C1C1C" fill-rule="evenodd"/>
<path d="M244.2 67.5h1a.4.4 0 1 0 0-.7h-1a.4.4 0 0 0 0 .7m0 1.5h1a.4.4 0 1 0 0-.7h-1a.4.4 0 0 0 0 .7m0 1.5h1a.4.4 0 1 0 0-.8h-1a.4.4 0 0 0 0 .8" fill="#1C1C1C"/>
<path d="m269.8 72.2 2.3 1.5q.6.2.6-.5l-.7-2.6v-.2l.1-.2 2.1-1.7c.3-.2.1-.7-.2-.7l-2.7-.2-.3-.2-1-2.5a.4.4 0 0 0-.8 0l-1 2.5-.3.2-2.7.2c-.3 0-.5.5-.2.7l2 1.7.2.2v.2l-.6 2.5q0 .7.7.5l2-1.4z" fill="#FDFDFD"/>
<path d="m269.6 72.5-2.2 1.4-.4.1-.5-.2-.3-.3V73l.6-2.5-2-1.7-.3-.4V68l.3-.4.4-.2 2.7-.1 1-2.6.3-.3.4-.2.4.2.3.3 1 2.6 2.7.1.4.2.3.4v.4l-.3.4-2 1.7.6 2.7v.4l-.3.4-.4.1-.4-.1zm2.7.9-2.3-1.5-.4-.1-.4.1-2.1 1.4h-.1v-.2l.5-2.4v-.4l-.2-.4-2-1.7 2.6-.2.4-.1.3-.4 1-2.5 1 2.5.3.4.4.1 2.7.2-2.1 1.7-.2.4v.4z" clip-rule="evenodd" fill="#1C1C1C" fill-rule="evenodd"/>
<path d="M288.2 73.4v-6.9h3.1q.8 0 1.3.3l.8.7.2 1.1q0 .7-.3 1-.2.6-.7.8l-1.3.2H289v-.8h2.4l.9-.3q.3-.3.3-.9t-.3-.9-1-.3h-2.1v6zm7.7 0q-.8 0-1.3-.3-.4-.5-.4-1.1 0-.5.2-.9l.7-.5.8-.2 1-.2q.5 0 .6-.3l.2-.4q0-.3-.3-.5t-.8-.2-1 .2-.3.7h-1q0-.9.7-1.3t1.6-.4q.6 0 1 .2.6.2.8.5l.2.9v2.6l.1.4.2.1h.2v.7h-.4l-.7-.2-.2-.6v-.1q-.2.4-.7.7zm.3-.7 1-.2.5-.7v-1.2l-.2.2h-.6l-.8.3q-.5 0-.7.3t-.2.5q0 .5.3.6zm3.8.7V68h.8v.8l.6-.6q.3-.3.8-.3l.4.1v1l-.3-.1h-.1q-.6 0-.9.3t-.4.9v3.2zm4.7 0q-.5 0-.8-.2l-.2-.7v-5.9h.9v5.9l.4.1h.4v.8zm-1.7-4.6v-.7h1.1v.7zm2.4 0h-1.3v-.7h1.3zm2.8 4.7q-1 0-1.6-.5t-.6-1.3h1q0 .4.3.7t1 .3l.7-.1q.4-.3.4-.7l-.2-.4-.3-.2-.5-.2-1.5-.4-.5-.5-.2-.7q0-.5.2-.8l.7-.5 1-.2q.8 0 1.2.2l.7.5q.3.4.3 1h-1l-.2-.7q-.3-.3-1-.3-.4 0-.7.2l-.2.5.1.5.5.2.9.2.7.2.5.3.3.5.2.6q0 .7-.6 1.1t-1.6.5m6 0q-1 0-1.6-.5-.8-.3-1.1-1.2-.4-.7-.4-1.8t.4-2q.4-.6 1-1.1.7-.4 1.7-.4t1.7.4T317 68t.4 1.9q0 1-.4 1.8t-1 1.2-1.8.5m0-1a2 2 0 0 0 1.6-.6q.6-.5.6-2a3 3 0 0 0-.6-1.9q-.5-.6-1.6-.6a2 2 0 0 0-1.5.6q-.6.7-.6 2 0 1.2.6 1.9t1.5.7m8.1-3.9q0-.4-.2-.7l-.5-.5-.8-.1q-.7 0-1 .3t-.4.7l.2.6.7.3 1 .3q.4 0 .7.2.4 0 .7.3.4.3.5.6.3.3.2.8t-.3 1.1l-.9.7q-.5.3-1.4.3t-1.4-.3a2 2 0 0 1-1.2-2h1q0 .7.4 1t1.3.4q.6 0 1-.2t.5-1q0-.3-.2-.5l-.6-.4-.8-.2q-.6 0-1-.3l-.8-.4-.5-.5-.1-.8q0-.5.3-1l.8-.6 1.3-.2q1.2 0 1.8.5t.7 1.5z" fill="#1C1C1C" fill-opacity=".4"/>
<path d="m333.9 66.1-2 7.2h-.6l2-7.2z" fill="#1C1C1C" fill-opacity=".2"/>
<path d="M345 73.5q-1 0-1.7-.5t-1-1.2-.4-1.8q0-1.2.4-2t1-1.1 1.8-.4q.8 0 1.4.3t1 .8.5 1.2l-1 .1q-.1-.8-.7-1.2a2 2 0 0 0-1.3-.3l-1.1.3q-.5.3-.8.9L343 70q0 1.2.6 2 .6.5 1.5.6t1.4-.5q.4-.4.6-1.1l1 .1q0 .8-.5 1.3l-1 .8zm5.8 0q-.9 0-1.4-.5t-.4-1.3V68h1v3.5q0 .5.2.7.3.3.8.3t.7-.2q.4 0 .5-.4l.2-.7V68h1v5.3h-1v-.8l-.6.6zm5.8 0q-1 0-1.6-.5t-.6-1.3h.9q0 .4.4.7.3.3 1 .3l.7-.1q.3-.3.3-.7v-.4l-.4-.2-.5-.2-1.5-.4q-.4-.2-.5-.5-.2-.3-.2-.7 0-.5.2-.8l.7-.5 1-.2q.7 0 1.1.2l.8.5.3 1h-1l-.3-.7q-.1-.3-.9-.3-.4 0-.7.2t-.2.5l.1.5.5.2.8.2.7.2.6.3.3.5.1.6q0 .7-.5 1.1t-1.6.5m4.5 0q-.6 0-.8-.3l-.3-.7v-5.9h1v5.9l.4.1h.4v.8zm-1.8-4.7v-.7h1.2v.7zm2.5 0h-1.3v-.7h1.3zm3.1 4.7q-.8 0-1.3-.4-.6-.3-.9-1-.3-.5-.3-1.4t.3-1.4.9-1q.6-.3 1.3-.3t1.3.4.9 1 .3 1.3-.3 1.5-.9 1zm0-.9q.8 0 1.1-.5t.4-1.4-.4-1.4-1-.5q-.9 0-1.2.5-.4.6-.4 1.4 0 1 .4 1.4.3.6 1.1.5m3.6.8V68h.8v.8l.8-.7a2 2 0 0 1 1.8 0l.7.9q.2-.5.7-.8l1-.3q.8 0 1.3.5t.4 1.3v3.6h-1V70q0-.6-.2-.8t-.7-.3l-.7.1q-.3.2-.5.6l-.2.7v3h-1V70q0-.5-.2-.8t-.8-.3l-.6.2q-.3 0-.5.5l-.2.7v3zm10.7 0q-1 0-1.6-.4t-.6-1.3h1q0 .4.3.7.4.3 1 .3l.8-.1q.3-.3.3-.7l-.1-.4-.4-.2-.5-.2-1.5-.4-.5-.5-.2-.7q0-.5.3-.8t.7-.5l1-.2q.6 0 1 .2.6.2.8.5.3.4.3 1h-1l-.2-.7q-.3-.3-.9-.3-.5 0-.7.2-.3.3-.3.5t.2.5l.4.2.9.2.7.2.5.3.4.5v.6q.1.7-.4 1.1t-1.7.5" fill="#1C1C1C"/>
<rect x="714" y="58.8" width="94" height="21" rx="3.5" fill="#343331"/>
<path d="M737.7 66.7a.3.3 0 0 0-.6 0v2.4h-2.3a.3.3 0 0 0 0 .6h2.3V72a.3.3 0 0 0 .6 0v-2.3h2.3a.3.3 0 0 0 0-.6h-2.3zm9.8 5.7q-.8 0-1.5-.3l-1-1q-.3-.7-.3-1.7t.4-1.7.9-1 1.5-.4 1.5.4.9 1 .3 1.7-.3 1.6-1 1q-.5.4-1.4.4m0-.7q.9 0 1.3-.6t.5-1.7q0-1-.4-1.7t-1.4-.6-1.4.6-.5 1.7q0 1 .5 1.7t1.4.6m3.7 2v-6h.7v.8l.7-.6 1-.2q.5 0 1 .3t.7.8l.2 1.2q0 .8-.2 1.3l-.7.8q-.5.3-1.1.3l-.9-.2q-.4-.1-.6-.6v2.1zm.8-3.4q0 .4.2.7 0 .4.4.5.4.3.7.2.7 0 1-.4t.3-1.3q0-.7-.3-1.2t-1-.4l-.7.2q-.3 0-.4.5-.2.3-.2.7zm6.4 2.1q-.7 0-1.2-.2l-.7-.9q-.3-.4-.3-1.2t.2-1.3l.8-.8q.5-.3 1.1-.3.8 0 1.2.3t.7.8.2 1.5h-3.5v-.7h3l-.4.3q0-.6-.2-1.1t-1-.5q-.6 0-1 .4-.3.4-.3 1.3t.4 1.3q.3.4 1 .4.5 0 .8-.2.3-.1.4-.6l.7.2q0 .3-.3.7l-.7.5zm2.8 0v-4.6h.8v.7l.7-.6q.4-.2.9-.2t1 .4.5 1.2v3h-.8v-3l-.2-.6q-.2-.3-.8-.3l-.6.2q-.2 0-.5.4l-.1.6v2.8zm8.2 0q-.4 0-.7-.2l-.2-.6v-5.1l.8-.1v5.2l.4.1h.3v.7zm-1.5-4v-.6h1v.6zm2.1 0h-1v-.6h1.1zm1 4v-4.6h.9v4.6zm.1-5.4v-1h.8v1zm4 5.4q-.6 0-1.2-.3l-.7-.8-.3-1.2q0-.8.3-1.3a2 2 0 0 1 2-1.1q.8 0 1.3.4t.6 1.2h-.9l-.3-.7-.8-.2q-.6 0-1 .4-.3.4-.3 1.3t.3 1.2 1 .4.8-.2.3-.7h.9a2 2 0 0 1-1 1.5zm5.9 0-1.6-2.4-.8.8v-1l2.1-2h1.1l-1.9 1.7v-.2l2 3zm-3.1 0v-6.5h.8v6.5zm6.4 0q-.6 0-1.1-.2l-.8-.9q-.3-.4-.3-1.2t.3-1.3.7-.8 1.2-.3 1.1.3.7.8.2 1.5H783v-.7h3l-.4.3q0-.6-.3-1.1t-1-.5q-.4 0-.9.4T783 70t.4 1.3 1 .4q.5 0 .8-.2.4-.1.4-.6l.8.2-.4.7-.6.5zm4 0q-.4 0-.7-.2l-.2-.6v-5.1l.8-.1v5.2l.4.1h.3v.7zm-1.5-4v-.6h1v.6zm2.1 0h-1.1v-.6h1.1z" fill="#FDFDFD"/>
<path d="m753.6 226-7.4 4.3 7.4 4.3" stroke="#ECEEF0" stroke-width=".6"/>
<mask id="ag" fill="#fff">
<path d="M50 46h174v598H50z"/>
</mask>
<path d="M50 46h174v598H50z" fill="#343331"/>
<path d="M223.5 46v598h1.1V46z" fill="#1C1C1C" fill-opacity=".1" mask="url(#ag)"/>
<g clip-path="url(#af)" stroke="#A57CFF" stroke-linecap="round" stroke-linejoin="round" stroke-width="1.2">
<path d="M70.7 153.2a1 1 0 0 1 .8-.9H75a1 1 0 0 1 .8.9v3.3a1 1 0 0 1-.8.9h-3.4a1 1 0 0 1-.8-.9zm8.3 0a.8.8 0 0 1 1-.9h3.3a1 1 0 0 1 .8.9v3.3a1 1 0 0 1-.8.9h-3.4a1 1 0 0 1-.8-.9zm-8.3 8.4a1 1 0 0 1 .8-.9H75a1 1 0 0 1 .8.9v3.3a1 1 0 0 1-.8.9h-3.4a1 1 0 0 1-.8-.9zm8.3 1.7h5.1m-2.5-2.6v5"/>
</g>
<path d="M94.7 164v-9.3h4q1.3 0 2.2.6t1.5 1.6.5 2.5-.5 2.4-1.5 1.7-2.3.6zm1.6-1-.3-.3h2.6q.8 0 1.5-.4t.9-1.1.3-1.8-.3-1.8-1-1.2q-.5-.4-1.4-.4H96l.3-.3zm9.8 1.2q-1.2 0-1.8-.6t-.6-1.5q0-.6.3-1.1l.8-.7 1.2-.4 1.5-.3q.6 0 .7-.3.3-.2.2-.5 0-.4-.3-.7t-1-.3q-.9 0-1.3.3t-.4 1l-1.4-.2q0-1.1.8-1.6t2.2-.6q1 0 1.6.2t1 .8.3 1.2v3.5q0 .4.2.5l.3.1h.3v1l-.4.1h-.4q-.6 0-1-.2l-.3-.8v-.2q-.3.6-1 1-.7.3-1.5.3m.4-1.2q.8 0 1.3-.3t.7-.9v-1.5l-.3.3-.7.1-1 .2q-.8.2-1 .5l-.3.6q0 .6.4.8.3.2.9.2m7.5 1.2q-1.3 0-2.2-.6-.8-.7-.8-1.8l1.4-.2q0 .7.5 1.1t1.2.4 1-.2q.4-.3.4-.8l-.1-.5-.5-.4-.6-.2-.9-.1-1.2-.4-.7-.7q-.3-.4-.3-1t.4-1.1 1-.8l1.5-.2 1.5.2q.6.3 1 .8l.4 1.2-1.5.2q0-.7-.3-1-.5-.4-1.2-.4t-1 .3l-.3.6.2.6.7.4 1.1.2q.6 0 1 .3.4 0 .7.4.3.2.5.6l.2 1a2 2 0 0 1-.8 1.5q-.7.6-2.3.6m4.2-.1v-10.2h1.5v3.9q.4-.6 1-.9l1.3-.3q1 0 1.8.7.7.6.7 1.9v4.9H123v-4.8q0-.6-.4-1-.3-.3-1-.3l-1 .2q-.4.2-.7.6l-.2 1v4.3zm7.8 0v-10.2h1.4v4l1-1 1.4-.2a3 3 0 0 1 1.6.4q.8.5 1.1 1.3.4 1 .4 2 0 1.2-.4 2a3 3 0 0 1-1 1.3 3 3 0 0 1-1.7.5l-1.4-.4q-.7-.3-1-1v1.3zm1.4-3.2q0 .6.3 1 .3.6.7.8l1 .2q1 0 1.5-.6t.5-1.8a3 3 0 0 0-.5-2q-.5-.6-1.5-.6l-1 .3-.7.7-.3 1.2zm9.8 3.3q-1 0-1.8-.5t-1.3-1.3-.4-2q0-1 .4-2 .4-.8 1.3-1.3t1.8-.4 1.9.4 1.2 1.3q.4 1 .4 2 0 1.2-.4 2t-1.2 1.3q-.9.5-1.9.5m0-1.3q1 0 1.5-.6t.5-1.9-.5-1.8-1.5-.7-1.5.7-.5 1.8.5 1.9q.6.6 1.5.6m6.7 1.3q-1.2 0-1.8-.6t-.6-1.5q0-.6.3-1.1l.8-.7 1.2-.4 1.5-.3q.6 0 .7-.3.3-.2.2-.5 0-.4-.3-.7t-1-.3q-.9 0-1.3.3t-.5 1l-1.4-.2q0-1.1.9-1.6t2.2-.6q1 0 1.6.2t1 .8.3 1.2v3.5l.1.5.4.1h.2v1l-.3.1h-.4q-.6 0-1-.2-.3-.3-.3-.8v-.2q-.3.6-1 1-.7.3-1.5.3m.4-1.2q.8 0 1.2-.3.6-.3.7-.9v-1.5h.2l-.4.3-.7.1-1 .2q-.9.2-1 .5l-.3.6q0 .6.4.8.3.2.9.2m5 1v-7.2h1.3v1l.8-.8q.5-.3 1-.3h.6v1.5h-.6q-.7 0-1.1.3-.5.5-.5 1.2v4.4zm4-3.5q0-1.2.3-2 .4-.8 1-1.4a3 3 0 0 1 1.8-.4q.8 0 1.4.3t.9 1v-4h1.5v10h-1.4l-.1-1.1q-.3.6-1 1l-1.4.3a3 3 0 0 1-1.6-.5 3 3 0 0 1-1.1-1.3q-.4-.8-.4-2m1.4 0q0 1.2.5 1.8t1.5.6q.6 0 1-.2t.7-.8.3-1.1v-.7q0-.6-.3-1.2-.2-.4-.6-.7l-1.1-.3q-.9 0-1.5.7a3 3 0 0 0-.5 1.9" fill="#FDFDFD"/>
<path d="M68.1 211.3v-6.8h1.6l2 5.6h-.2l2-5.6h1.6v6.8h-1v-6.4h.2l-2.3 6.4h-.9l-2.2-6.4h.1v6.4zm10.7 0q-.8 0-1.4-.3t-.8-.9l-.3-1.4q0-.8.3-1.5t.9-.9 1.3-.3 1.3.3.9 1 .3 1.4-.3 1.4-1 1-1.2.3m0-.7q.7 0 1-.5.6-.6.5-1.4 0-1-.4-1.4-.4-.6-1.1-.5t-1.2.5-.4 1.4q0 .8.4 1.4t1.2.5m3.2-1.9q0-.8.3-1.5l.8-1 1.2-.2q.6 0 1 .2t.7.7v-3h1v7.4h-1v-1q-.2.6-.7.8t-1 .3q-.7 0-1.2-.3-.6-.4-.8-1t-.3-1.4m1 0q0 .8.4 1.4.3.5 1 .5l.9-.2.5-.6q.3-.3.2-.8v-.6l-.2-.9q-.1-.3-.5-.5-.3-.2-.8-.2-.8 0-1.1.5t-.4 1.4m7.2 2.7q-1 0-1.4-.5-.5-.5-.5-1.3V206h1v3.5q0 .5.3.8l.8.2.7-.1.5-.5.1-.7V206h1v5.3h-.9v-.8q-.3.4-.7.6zm3.8-.1V204h1v7.4zm4.5 0q-.7 0-1.3-.2l-.9-1q-.3-.6-.3-1.4t.3-1.5.9-.9 1.3-.3 1.3.3.8 1 .2 1.6h-4v-.7h3.5l-.5.3q.1-.8-.2-1.3t-1.1-.5-1 .5q-.5.5-.5 1.5 0 .8.4 1.4t1.2.5q.5 0 .9-.3t.4-.7l.9.2q0 .5-.4.8l-.8.6zm5.1 0q-.9.1-1.5-.4t-.7-1.2l1-.1q0 .5.3.8.4.3 1 .3t.8-.2.3-.6l-.1-.4-.4-.3-.5-.1-1.5-.5-.5-.4-.1-.7q0-.5.2-.8l.7-.6 1-.1 1.1.1q.5.2.7.6.3.3.3.9h-.9l-.3-.7-.9-.2q-.4 0-.7.2-.3.1-.3.5 0 .3.2.4l.5.3.8.2q.4 0 .7.2l.5.2.4.5.1.6q0 .8-.5 1.2t-1.7.4" fill="#DAD9D6"/>
<g clip-path="url(#ae)" stroke="#477BFF" stroke-linecap="round" stroke-linejoin="round" stroke-width="1.2">
<path d="m77.4 230.5 6.7 3.7v7.6l-6.7 3.8-6.7-3.8v-7.6zm0 7.5 6.7-3.8m-6.7 3.8v7.6m0-7.6-6.7-3.8m10.1-1.9-6.8 3.8"/>
</g>
<path d="M95 243v-9.3h4.3q1 0 1.7.3.8.3 1.1 1t.4 1.5-.4 1.6q-.4.6-1.1 1a4 4 0 0 1-1.8.3h-3v-1.3h3.1q.8 0 1.2-.4.4-.3.4-1.2t-.4-1.1q-.5-.4-1.2-.4h-2.8v8zm8.5 0v-10h1.5v10zm5 .1q-1 0-1.7-.5t-.6-1.5q0-.7.3-1.1l.8-.8 1.2-.3 1.5-.3q.6 0 .7-.3l.2-.6q0-.3-.3-.7l-1.1-.2q-.8 0-1.3.3t-.4 1l-1.4-.2q0-1 .9-1.7t2.2-.6q1 0 1.6.3t1 .7.3 1.2v3.6l.1.5h.6v1l-.4.2h-.3q-.6 0-1-.2-.3-.3-.3-.9v-.2q-.3.6-1 1zm.5-1.1q.7 0 1.2-.3t.7-1v-1.4h.1l-.4.2-.7.2-1 .2q-.7 0-1 .4l-.2.7q0 .5.3.7.4.3 1 .3m5 1v-7.3h1.3v1.1l1-.9 1.4-.3q1 0 1.8.6.7.7.7 2v4.8h-1.5v-4.7q0-.6-.4-1-.3-.4-1-.4l-1 .3q-.4.1-.6.6-.3.3-.3.9v4.3zm7.7 0v-7.3h1.4v1.1l1-.9q.6-.3 1.4-.3 1 0 1.8.6.7.7.7 2v4.8h-1.5v-4.7q0-.6-.4-1-.3-.4-1-.4l-1 .3q-.5.1-.6.6-.3.3-.3.9v4.3zm8.1 0v-7.3h1.5v7.3zm.1-8.4v-1.7h1.4v1.7zm3.3 8.4v-7.3h1.4v1.1l1-.9 1.4-.3q1 0 1.8.6.7.7.7 2v4.8H138v-4.7q0-.6-.4-1-.3-.4-1-.4l-1 .3q-.4.1-.6.6-.3.3-.3.9v4.3zm10.7 2.3q-1.4 0-2-.6a2 2 0 0 1-1-1.4l1.4-.3q0 .4.3.7t.6.4h.8q.8 0 1.3-.3.5-.4.5-1.3v-1.3a2 2 0 0 1-.9.9l-1.3.2a3 3 0 0 1-1.6-.4q-.7-.4-1-1.2l-.4-1.7q0-1 .4-1.8.3-.8 1-1.1.7-.5 1.5-.5t1.4.4 1 .9v-1.2h1.4v6.8q0 .8-.4 1.4-.3.7-1 1-.8.4-2 .4m0-4q.7 0 1-.3l.7-.8.2-1v-.4q0-.7-.2-1-.3-.5-.7-.7-.4-.3-1-.3-.8 0-1.3.6t-.5 1.6.5 1.6 1.4.6" fill="#FDFDFD"/>
<g clip-path="url(#ad)">
<path d="m196.5 236.3 3.5 3.5 3.5-3.5" stroke="#DAD9D6" stroke-linecap="round" stroke-linejoin="round" stroke-width=".9"/>
</g>
<g clip-path="url(#ac)" stroke="#4BCB9D" stroke-linecap="round" stroke-linejoin="round" stroke-width="1.2">
<path d="m69.8 284.4v-11l7.6-3.3 7.6 3.4v10.9"/>
<path d="m78.2 277.7h3.4v6.7h-8.4v-5h5"/>
<path d="M78.2 284.4v-7.6a1 1 0 0 0-.8-.8h-1.7a1 1 0 0 0-.8.8v2.5"/>
</g>
<path d="M95 281.8v-9.3h6.6v1.3h-5.1v8zm1.3-4v-1.3h4.7v1.3zm8.4 4.1q-1.2 0-1.9-.6t-.6-1.9v-4.9h1.5v4.8q0 .6.4 1 .4.3 1 .3t1-.2.5-.6.3-.9v-4.4h1.5v7.3H107v-1l-1 .8q-.6.3-1.3.3m5.2 0v-10.2h1.5v10.1zm3.3 0v-8.4q0-.9.5-1.4.7-.5 1.6-.5h.8v1.3h-.5l-.7.1q-.3.2-.2.8v8zm-1-6.2v-1.2h1.7v1.2zm1.7 0v-1.1h2.2v1zm3.4 6.1v-7.3h1.6v7.3zm.1-8.4v-1.7h1.4v1.7zm3 8.4v-10.1h1.4v10.1zm3 0v-10.1h1.4v10.1zm3 0v-7.3h1.3l.1 1.2q.4-.7 1-1 .4-.3 1.2-.3t1.3.4.8 1q.4-.6 1-1t1.4-.4q1.2 0 1.8.7t.6 1.8v5h-1.5v-4.7q0-.7-.3-1-.3-.5-1-.5l-.9.3q-.4.2-.6.6t-.2 1v4.2h-1.5v-4.5q0-.7-.3-1.1-.4-.5-1-.5a2 2 0 0 0-1.5 1l-.2.9v4.2zm15.2.1q-1.1 0-1.9-.4t-1.2-1.3-.5-2 .4-2 1.2-1.3q.8-.5 2-.5 1 0 1.7.5.8.5 1.2 1.4.5 1 .3 2.3h-5.5v-1.1h4.5l-.6.5q.2-1-.3-1.8-.5-.6-1.4-.6t-1.4.6q-.6.5-.6 2 0 1.2.5 2 .7.5 1.6.5.8 0 1.2-.3.5-.3.6-1l1.3.4q0 .6-.6 1.1l-1 .8zm4.2 0v-7.4h1.4v1.1l1-.9 1.4-.3q1 0 1.8.6.7.7.7 2v4.8h-1.5v-4.7q0-.6-.4-1-.3-.3-1-.4l-1 .3q-.4.2-.6.6-.3.3-.3.9v4.3zm9.5 0q-.8 0-1.1-.3-.4-.4-.4-1v-8l1.5-.2v8.1l.6.2h.3l.2-.1v1.2h-.5zm-2.5-6.2v-1.2h1.7v1.2zm3.6 0h-1.9v-1.1h2z" fill="#FDFDFD"/>
<g clip-path="url(#ab)">
<path d="m196.5 275 3.5 3.6 3.5-3.5" stroke="#DAD9D6" stroke-linecap="round" stroke-linejoin="round" stroke-width=".9"/>
</g>
<rect x="61.1" y="297.8" width="152.1" height="35.7" rx="6.2" fill="#F0F0EF" fill-opacity=".1"/>
<g clip-path="url(#aa)" stroke="#FA9349" stroke-linecap="round" stroke-linejoin="round" stroke-width="1.2">
<path d="m85 316.5a7.6 7.6 0 1 0-7.6 6.7m-7.1-10.1h14.2m-14.2 5h8"/>
<path d="M77 308a14 14 0 0 0 0 15.2m.8-15.2q2.5 4 2.1 8.7m.9 7.3 4.2-4.2m0 3.8v-3.8h-3.8"/>
</g>
<path d="M98.7 320.8q-1.3 0-2.3-.6t-1.5-1.7a6 6 0 0 1-.5-2.6q0-1.5.6-2.6.5-1 1.5-1.6t2.3-.6 2 .4 1.4 1.2q.6.6.7 1.7l-1.6.2q-.2-1-.8-1.6-.7-.5-1.7-.5t-1.6.4-.9 1.2L96 316q0 1.8.8 2.6.7.9 2 .9 1 0 1.7-.6.8-.6.9-1.5l1.5.2a4 4 0 0 1-2.1 2.9 5 5 0 0 1-2 .4m7.8 0q-1.2 0-2-.7-.6-.6-.6-1.9v-4.9h1.5v4.8q0 .6.4 1 .4.3 1 .3t1-.2l.6-.6.2-.9v-4.4h1.5v7.3h-1.3l-.1-1q-.3.5-1 .8-.5.4-1.2.4m7.8 0q-1.5 0-2.2-.7-.9-.6-1-1.7l1.5-.2q0 .6.5 1t1.2.5 1-.3q.5-.2.5-.8 0-.3-.2-.5l-.4-.3-.7-.2-.8-.2q-.8 0-1.2-.4-.6-.3-.8-.7l-.2-1q0-.6.3-1 .4-.5 1-.8t1.5-.3q.8 0 1.5.3t1 .7.4 1.2l-1.4.2q0-.6-.4-1-.4-.3-1.1-.3t-1 .2q-.3.3-.3.7t.2.6l.6.3 1.2.3 1 .2.7.4.5.6.1 1a2 2 0 0 1-.7 1.5q-.8.6-2.3.6m6 0q-.8 0-1.1-.4t-.4-1v-8l1.5-.2v8.1l.6.2h.3l.2-.1v1.2h-.5zm-2.5-6.3v-1.2h1.7v1.2zm3.6 0h-1.9v-1.1h2zm4.1 6.3q-1 0-1.9-.5t-1.2-1.3-.4-2 .4-2q.4-.9 1.3-1.3t1.8-.5 1.9.5q.8.4 1.2 1.3t.4 2-.4 2q-.5.8-1.2 1.3-.9.4-1.9.4m0-1.3q.9 0 1.5-.7t.5-1.8-.5-1.9q-.6-.6-1.5-.6t-1.5.6-.5 1.9.5 1.8 1.5.7m4.6 1.1v-7.3h1.4v1.2q.4-.7 1-1l1.2-.3q.8 0 1.4.4t.8 1q.4-.6 1-1t1.4-.4q1 0 1.8.7.6.6.6 1.8v5h-1.5V316q0-.7-.3-1-.4-.5-1-.5l-1 .3q-.3.1-.5.6t-.2 1v4.2h-1.5v-4.5q0-.7-.4-1.1-.3-.5-1-.5a2 2 0 0 0-1.5 1l-.2.9v4.2zm14.7.1q-1.3 0-2.2-.6-.8-.6-.9-1.7l1.5-.2q0 .6.5 1t1.2.5 1-.3q.4-.2.4-.8l-.1-.5-.5-.3-.6-.2-.9-.2q-.8 0-1.2-.4-.5-.3-.7-.7-.3-.4-.3-1t.4-1 1-.8q.6-.3 1.5-.3t1.4.3q.7.2 1 .7t.5 1.2l-1.5.2q.1-.6-.4-1-.3-.3-1-.3t-1 .2q-.4.3-.4.7l.2.6.7.3 1.1.3 1 .2.7.4.5.6.2 1a2 2 0 0 1-.8 1.5q-.7.6-2.3.6" fill="#FDFDFD"/>
<g clip-path="url(#z)">
<path d="m196.5 313.9 3.5 3.5 3.5-3.5" stroke="#DAD9D6" stroke-linecap="round" stroke-linejoin="round" stroke-width=".9"/>
</g>
<rect x="59.6" y="108.8" width="153" height="22.8" rx="2.6" fill="#DAD9D6" fill-opacity=".1"/>
<rect x="59.6" y="108.8" width="153" height="22.8" rx="2.6" stroke="#343331" stroke-width=".6"/>
<path d="M79 125.7a.4.4 0 0 1-.7 0l-2.4-2.3a5 5 0 1 1 .7-.7l2.3 2.4.2.3zm-6.3-2a4.2 4.2 0 1 0 0-8.4 4.2 4.2 0 0 0 0 8.4m19.3-4.3q0-.4-.3-.7l-.5-.5-.8-.1q-.7 0-1 .3t-.4.7l.2.6.6.3 1 .3.8.2q.4 0 .7.3l.5.6.2.8q0 .7-.3 1.1l-.9.7q-.5.3-1.4.3T89 124a2 2 0 0 1-1.2-2h1q0 .6.4 1t1.2.4 1.2-.2.4-.9l-.2-.6-.6-.4-.8-.2q-.7 0-1-.3l-.8-.4-.5-.5-.1-.8q0-.5.3-1l.8-.6 1.3-.2q1.1 0 1.8.5t.7 1.5zm4.3 4.9q-.8 0-1.3-.4-.6-.3-.9-.9t-.3-1.5.3-1.4l.8-1q.6-.3 1.4-.3t1.3.3l.8 1q.3.7.2 1.7h-4v-.7H98l-.4.3q0-.8-.2-1.3-.4-.6-1.1-.5t-1.1.4q-.5.5-.5 1.5t.5 1.5 1.1.5 1-.3l.4-.7.8.2q0 .5-.3.8l-.8.6zm4.7 0q-.9 0-1.3-.4t-.4-1.1q0-.5.2-.9l.6-.5.9-.2 1-.2q.4 0 .6-.3l.1-.4q0-.3-.2-.5t-.8-.2-1 .2-.3.7h-1q0-.9.7-1.3.7-.3 1.6-.4.7 0 1 .2l.8.5.2 1v2.6l.1.3.2.1h.2v.7h-.4l-.7-.2q-.3-.1-.2-.5v-.2l-.7.7zm.2-.8q.6 0 1-.2t.6-.7v-1.2l-.2.2-.6.1-.8.2q-.6 0-.8.3l-.2.5q0 .4.3.6zm3.8.7v-5.3h1v.8q.2-.5.5-.6.3-.3.7-.2h.5v1h-.1l-.2-.1h-.2q-.5 0-.8.3t-.4.9v3.2zm5.4 0q-.8 0-1.3-.3t-.9-1q-.3-.5-.3-1.4t.3-1.4a2 2 0 0 1 2.2-1.3q1 0 1.6.5t.7 1.3l-1 .1q0-.5-.4-.8-.3-.3-.9-.3t-1 .6-.5 1.3q0 .8.4 1.4t1.1.5q.6 0 1-.3.3-.2.3-.7h1a2 2 0 0 1-1.2 1.6q-.5.3-1 .3m3.2 0v-7.4h1v2.8q.3-.4.7-.6l1-.2q.8 0 1.3.5t.5 1.3v3.6h-1v-3.5q0-.5-.3-.8l-.8-.2-.7.1-.5.5q-.3.3-.2.7v3.2z" fill="#fff" fill-opacity=".2"/>
<path d="m50 188.8h174" opacity=".3" stroke="#DAD9D6" stroke-width=".6"/>
<path d="M84.3 65q-.6-.1-.5-.7a4 4 0 0 1 1.7-2.3 4.6 4.6 0 0 1 7.1 2.7l.1 1q0 .7-.7.6zm-9.4 7.8q-.7 0-.8-.5a6 6 0 0 1 2.2-6 7 7 0 0 1 7-.7 6 6 0 0 1 3 3q.2.7-.4.9zm13.6-3.7q-.4.5.1.9l4.2 2.8q.6.2.9-.2a3 3 0 0 0-2.3-4.3 3 3 0 0 0-3 .8" fill="#FDFDFD"/>
<path d="M102.7 62.6h-4.2v9.8h2.2v-3.2h2a4 4 0 0 0 2.7-.8q1-.9 1-2.5a3 3 0 0 0-1-2.4 4 4 0 0 0-2.7-.9m1.6 3.3q0 1.5-1.9 1.6h-1.7v-3.1h1.7q.8 0 1.4.3.5.4.5 1.2m2.5 6.1q.8.6 2 .6 1.5 0 2.4-.8v.6h2v-4q0-1.5-.9-2.2t-2.8-.7a8 8 0 0 0-2.6.4v1.6q1-.5 2.3-.5.8 0 1.4.3t.5 1v.1l-1-.3-1.2-.2q-1.5 0-2.2.7t-.7 1.7.8 1.7m3.6-1q-.4.3-1 .2t-.9-.2l-.3-.7q0-.4.3-.7t1-.3 1.6.5v.7z" clip-rule="evenodd" fill="#FDFDFD" fill-rule="evenodd"/>
<path d="M114.2 65.7h2.1v1q.5-.5 1.2-.8.7-.2 1.6-.2h1v-2h2.2v2h1.6v1.5h-1.6V70q0 .6.2.9l.8.3h.2v1.5h-1q-1.1 0-1.8-.6t-.6-1.8v-3h-1q-1 0-1.7.4-.7.3-1 .9v4h-2.2zm10.2 6.9h2.8q1.6 0 2.4-.5t.8-1.5q0-.6-.2-1-.1-.4-.7-.7l-1.4-.5h-.3l-1.1-.4q-.3-.2-.3-.4t.3-.5h.9a5 5 0 0 1 2.4.5V66l-1.2-.4-1.5-.1q-1.4 0-2.3.5t-.9 1.6q0 .6.3 1t.7.7l1.4.5 1.6.5.1.4q0 .2-.3.3l-.8.1h-2.7zm21.2-.2a10 10 0 0 1-3-.5v-1.3q1.3.6 2.9.6 2.2 0 2.2-1.4 0-.5-.2-.9l-.7-.5-1.5-.6q-1.4-.6-2-1.3-.7-.6-.7-1.7 0-.8.4-1.3t1.3-1 1.7-.3l1.5.1 1.3.4V64q-1.2-.6-2.5-.6-1 0-1.6.4-.5.3-.5 1 0 .5.2.8l.7.6 1.4.6 1.6.8q.6.3.9.9.3.4.3 1.3 0 1.2-1 2-.9.6-2.7.6m-8.8 0q-1.6 0-2.7-.6t-2-1.8q-.6-1.2-.6-2.7t.7-2.6q.6-1.2 1.9-1.8t2.7-.7 2.7.7 1.8 1.8q.7 1 .7 2.6t-.7 2.7-1.8 1.8-2.7.6m0-1.3a4 4 0 0 0 1.9-.4q.9-.5 1.4-1.3a4 4 0 0 0 .5-2q0-1.2-.5-2t-1.4-1.4-2-.5-1.9.5-1.3 1.3a4 4 0 0 0-.5 2q0 1.2.5 2t1.3 1.4a4 4 0 0 0 2 .4" fill="#FDFDFD"/>
<g clip-path="url(#y)">
<g clip-path="url(#x)">
<rect x="67.5" y="564.6" width="23.4" height="23.4" rx="11.7" fill="#fff"/>
<rect x="67.5" y="564.6" width="23.4" height="23.4" rx="11.7" fill="url(#w)"/>
</g>
<rect x="67.8" y="564.9" width="22.8" height="22.8" rx="11.4" stroke="#D9D9D9" stroke-width=".6"/>
</g>
<path d="M96.3 573v-6h1.3l1.8 5h-.1l1.7-5h1.4v6h-.9v-5.5h.2l-2 5.5h-.8l-2-5.5h.2v5.5zm7.5 0v-4.6h.9v4.6zm0-5.3v-1h.8v1zm4 5.4q-.7 0-1-.3l-.8-.8q-.3-.6-.3-1.3t.3-1.2a2 2 0 0 1 1.9-1.1q.8 0 1.3.4t.6 1.1l-.8.1-.3-.7-.8-.2q-.7 0-1 .4t-.4 1.2q0 .9.4 1.3t1 .4q.4 0 .8-.3.3-.1.3-.6h.8a2 2 0 0 1-1 1.4q-.4.3-1 .2m2.9 0v-6.5h.8v2.5l.6-.6.9-.2q.6 0 1.1.4t.5 1.3v3h-.9v-3q0-.5-.2-.6-.3-.3-.8-.3l-.6.1-.4.5q-.2.1-.2.6v2.7zm6.3 0q-.8 0-1.1-.3-.4-.4-.4-1 0-.4.2-.7l.5-.4.8-.3 1-.2q.3 0 .4-.2l.1-.3q0-.3-.2-.5l-.7-.2q-.5 0-.9.2l-.3.6h-.8q0-.7.6-1t1.4-.4l1 .1.5.5q.3.3.3.8v2.6h.4v.6l-.2.1h-.2l-.6-.2q-.2 0-.2-.5v-.1q0 .3-.6.6zm.2-.6.9-.2q.4-.3.4-.6v-1h.1-.2l-.5.2-.7.1-.7.3-.2.5q0 .3.3.5zm5.2.6q-.6 0-1.1-.2l-.8-.9q-.3-.4-.3-1.3l.3-1.2q.2-.6.7-.8t1.2-.3 1.1.2.7 1 .2 1.4H121v-.7h3l-.4.3q.1-.7-.2-1.1t-1-.5q-.4 0-.9.4t-.4 1.3.4 1.3 1 .4q.5 0 .8-.2t.4-.6l.8.1q0 .5-.4.8l-.6.5zm2.9 0v-6.5h.8v6.4zm7.3-4.2-.1-.6-.5-.4-.7-.2q-.6 0-.9.3-.3.1-.3.6 0 .3.2.5l.5.3.9.2.7.2.6.3.4.5.2.8q0 .4-.3.9t-.7.6l-1.3.2q-.7 0-1.2-.2a2 2 0 0 1-1-1.7l.8-.1q0 .6.4 1 .3.3 1 .3t1-.2.4-.8q0-.3-.2-.5t-.5-.3l-.7-.2-1-.3-.6-.3-.4-.5v-.7q0-.5.2-.8t.7-.6l1-.2q1.2 0 1.7.5t.6 1.3zm2 4.1v-4.6h.7v.8l.6-.6a2 2 0 0 1 1.7 0l.5.7.6-.7q.4-.2 1-.2t1 .4q.4.5.4 1.1v3.1h-.8v-3q0-.4-.2-.6-.3-.3-.7-.3t-.6.2q-.3 0-.4.4l-.1.7v2.6h-.9v-2.9q0-.4-.2-.7t-.7-.3a1 1 0 0 0-1 .6l-.1.7v2.6zm8 0v-4.6h.8v4.6zm0-5.3v-1h.8v1zm3.2 5.4q-.4 0-.7-.2l-.2-.6v-5.1l.8-.1v5.2l.4.1h.3v.6zm-1.5-4v-.7h1v.7zm2.1 0h-1.1v-.7h1.1zm.8 4v-6.5h.8v2.5l.7-.6.8-.2q.8 0 1.2.4t.4 1.3v3h-.8v-3q0-.5-.3-.6-.2-.3-.7-.3l-.6.1-.5.5-.2.6v2.7z" fill="#FDFDFD"/>
<path d="M96.1 585.6v-4.7h.8v.8l.6-.6a2 2 0 0 1 1.7 0l.5.7.6-.7q.4-.2 1-.2t1 .4q.5.5.5 1.1v3.1h-.9v-3q0-.4-.2-.6-.3-.3-.7-.3t-.6.2l-.4.4-.1.7v2.6H99v-2.9q0-.4-.2-.7t-.7-.3l-.6.2-.4.4-.1.7v2.6zm8 0v-4.7h.9v4.6zm.1-5.4v-1h.8v1zm4 5.4q-.6 0-1.2-.3l-.7-.8q-.3-.6-.3-1.3t.3-1.2a2 2 0 0 1 2-1.1q.8 0 1.3.4t.6 1.2h-.9l-.3-.7-.8-.2q-.6 0-1 .4-.3.5-.3 1.2 0 .9.3 1.3.4.4 1 .4t.8-.2.3-.7h.9a2 2 0 0 1-1 1.4q-.4.3-1 .2m2.8 0V579h.8v2.5q.3-.4.7-.6l.8-.2q.7 0 1.1.4t.5 1.3v3h-.8v-3q0-.4-.3-.6-.3-.3-.7-.3l-.7.1-.4.5-.2.6v2.8zm6.3 0q-.7 0-1-.3-.5-.4-.5-1 0-.4.2-.7l.6-.4.7-.3 1-.2q.3 0 .4-.2l.2-.3q0-.3-.3-.5 0-.2-.7-.2-.5 0-.8.2t-.3.7l-.8-.1q0-.7.5-1t1.4-.4l1 .1.6.5.2.8v2.6h.4v.6l-.2.1h-.2l-.5-.2q-.3 0-.2-.5v-.1l-.7.6q-.4.3-1 .2m.2-.6.9-.2.5-.6v-1h-.2l-.5.2-.7.1-.7.3-.1.5q0 .3.2.5zm5.2.6q-.6 0-1.1-.2l-.8-.9q-.3-.4-.3-1.2t.3-1.3.7-.8l1.2-.3q.7 0 1.1.3t.8.8l.2 1.5h-3.5v-.7h3l-.4.3q0-.7-.2-1.1t-1-.5q-.6 0-1 .4-.3.4-.3 1.3t.3 1.3 1 .4.9-.2.4-.6l.7.1q0 .5-.3.8l-.7.5zm2.9 0V579h.8v6.4zm3.7 0q-.8 0-1.4-.4t-.6-1l.8-.2q0 .5.3.7.4.3.9.3t.7-.2q.3 0 .3-.5l-.1-.4-.3-.2h-.5l-1.3-.5-.4-.4-.2-.6q0-.4.2-.7l.6-.5 1-.1.9.1q.4.2.6.5.3.3.3.8h-.8l-.3-.6-.8-.2-.6.2q-.2 0-.2.4v.4l.5.2.8.2.6.2.4.2q.3.2.3.4l.1.6q0 .6-.4 1-.5.3-1.4.3m2.8 0v-4.7h.7v.8q.3-.5.7-.6a2 2 0 0 1 1.6 0l.5.7.7-.7q.3-.2.8-.2.8 0 1.2.4t.4 1.1v3.1h-.9v-3q0-.4-.2-.6-.2-.3-.6-.3t-.7.2l-.4.4-.1.7v2.6h-.9v-2.9q0-.4-.2-.7t-.6-.3a1 1 0 0 0-1 .6q-.2.3-.2.7v2.6zm8 0v-4.7h.8v4.6zm0-5.4v-1h.8v1zm3.2 5.4q-.4 0-.7-.2l-.2-.6v-5.1l.8-.1v5.2l.4.1h.4v.6zm-1.5-4v-.7h1v.7zm2.2 0h-1.2v-.7h1.2zm.7 4V579h.9v2.5l.6-.6.8-.2q.8 0 1.2.4t.4 1.3v3h-.8v-3q0-.4-.2-.6-.3-.3-.8-.3l-.6.1-.5.5-.1.6v2.8zm10.3-.5-.7-.2q-.3-.1-.3-.6l-.6.6-.7.2q-.6 0-1-.4-.3-.4-.3-1l.1-.9.4-.7.6-.5q.3-.2.8-.2l.6.2q.3 0 .3.4l.2-.5h.7l-.4 2.3v.6q0 .2.5.2l.4-.1.4-.3.3-.6v-.9a3 3 0 0 0-.8-2q-.3-.3-.9-.5a3 3 0 0 0-3.5.7 4 4 0 0 0-1 2.5q0 1 .4 1.7t1.1 1.1 1.6.4q.7 0 1.2-.2l1-.5.3.3q-.5.4-1.1.6l-1.5.3q-.8 0-1.4-.3a3 3 0 0 1-1.9-2q-.3-.6-.3-1.4a4 4 0 0 1 1.2-2.8q.4-.5 1.2-.8t1.5-.3 1.4.2l1.1.7.8 1 .2 1.3q0 .6-.2 1.1l-.4.8-.6.4zm-2.1-.6q.4 0 .7-.3t.4-.9v-.7q0-.3-.2-.5l-.4-.2-.5.2-.4.4-.3 1.2.2.6zm6.7 2.5q-.8 0-1.3-.4-.4-.3-.5-.9l.8-.2.1.5.5.3h.5q.6 0 .9-.2t.3-.9v-.8l-.5.5-1 .2-1-.3-.6-.7-.2-1.1q0-.6.2-1.1l.7-.8 1-.2.9.2q.3.1.5.6v-.8h.9v4.3q0 .6-.3 1l-.7.6zm0-2.5q.4 0 .7-.2l.5-.5.1-.6v-.4l-.1-.6-.5-.5-.7-.1a1 1 0 0 0-.8.4q-.3.4-.3 1t.3 1 .9.5m3.3 1V581h.8v.8l.6-.6a2 2 0 0 1 1.7 0l.5.7q.2-.4.6-.7t1-.2q.7 0 1 .4t.4 1.1v3.1h-.8v-3q0-.4-.2-.6-.3-.3-.7-.3t-.6.2q-.3 0-.4.4l-.2.7v2.6h-.8v-2.9q0-.4-.2-.7t-.7-.3a1 1 0 0 0-1 .6l-.1.7v2.6zm9 .1q-.7 0-1-.3-.4-.4-.4-1 0-.4.2-.7l.5-.4.7-.3 1-.2q.3 0 .5-.2v-.3l-.1-.5-.8-.2q-.5 0-.8.2t-.3.7l-.8-.1q0-.7.6-1t1.3-.4l1 .1q.5.2.6.5.2.3.2.8v2.3l.1.3h.4v.6l-.2.1h-.2l-.6-.2q-.2 0-.2-.5v-.1l-.6.6q-.5.3-1 .2m.3-.6.8-.2q.4-.3.5-.6v-1h-.2l-.5.2-.6.1-.7.3-.2.5q0 .3.3.5zm3.6.5V581h.8v4.6zm0-5.3v-1h.8v1zm2 5.3v-6.4h.9v6.4zm1.7 0v-.9h.9v1zm3.5.1q-.6 0-1.1-.3l-.8-.8q-.3-.6-.3-1.3t.3-1.2a2 2 0 0 1 2-1.1q.8 0 1.3.4t.6 1.2h-.8l-.4-.7-.8-.2q-.6 0-1 .4-.3.5-.3 1.2 0 .9.3 1.3.4.4 1 .4t.8-.2l.4-.7h.8a2 2 0 0 1-1 1.4q-.4.3-1 .2m4.8 0q-.8 0-1.2-.3l-.7-.8-.3-1.2q0-.8.3-1.3t.7-.8 1.2-.3 1.1.3q.6.3.8.8t.3 1.3-.3 1.2l-.8.8q-.5.3-1.1.3m0-.7q.6 0 1-.4.3-.4.3-1.3 0-.7-.3-1.2-.4-.4-1-.4t-1 .4a2 2 0 0 0-.4 1.3q0 .8.4 1.2.3.4 1 .4m3 .6V581h.8l.1.8.6-.6q.3-.2.8-.2t.8.2q.5.3.6.7.2-.4.6-.7l.9-.2q.7 0 1.1.4t.4 1.1v3.1h-.8v-3q0-.4-.3-.6-.2-.3-.6-.3t-.6.2l-.4.4-.2.7v2.6h-.8v-2.9l-.2-.7q-.3-.3-.7-.3t-.6.2q-.3 0-.4.4l-.2.7v2.6z" fill="#FDFDFD" opacity=".4"/>
<path d="M224 541H50" opacity=".3" stroke="#DAD9D6" stroke-width=".7"/>
<g clip-path="url(#v)" stroke="#FDFDFD" stroke-linecap="round" stroke-linejoin="round" stroke-width=".9">
<path d="m70.4 489.3v-7.6a2 2 0 0 1 1.8-1.8h5.8a2 2 0 0 1 1.8 1.8v3.5a2 2 0 0 1-1.8 1.7h-5.2z"/>
<path d="M73.7 484.6a2 2 0 0 0 2.2.5l.7-.5"/>
</g>
<path d="M96 483.3q0-.4-.3-.7l-.5-.4-.7-.2q-.7 0-1 .3l-.3.6q0 .5.2.6l.6.3 1 .3.8.2.7.4.5.5.1.9q0 .6-.3 1l-.9.8-1.4.2q-.8 0-1.4-.3l-1-.7-.2-1.2 1-.1q0 .6.5 1t1.1.4q.7 0 1-.2.5-.3.5-.8l-.2-.6-.6-.4-.8-.2-1-.2-.7-.4a2 2 0 0 1-.6-1.4q0-.5.3-1t.8-.6q.6-.3 1.3-.3 1.1 0 1.8.6.7.4.7 1.5zm4 4.8q-.8 0-1.4-.5-.4-.4-.4-1.3v-3.6h1v3.5q0 .4.3.7t.8.2l.7-.1.4-.4.2-.7v-3.2h1v5.3h-1v-.8q-.2.4-.6.7zm4 1.5v-6.9h1v.9l.7-.7q.5-.3 1-.3.8 0 1.3.4.5.3.7.9.3.6.3 1.4t-.3 1.5-.7 1-1.3.3l-1-.2-.7-.7v2.4zm1-4 .2.9.5.5.8.2q.7 0 1-.5t.4-1.4-.4-1.3q-.3-.4-1-.4l-.8.1q-.3.2-.5.6l-.2.8zm5 4v-6.9h1l.1.9.7-.7q.4-.3 1-.3.8 0 1.2.4.5.3.8.9t.3 1.4-.3 1.5-.8 1-1.2.3q-.6 0-1-.2l-.7-.7v2.4zm1.1-4q0 .5.2.9l.5.5.8.2q.7 0 1-.5t.4-1.4-.4-1.3-1-.4l-.8.1q-.3.2-.5.6l-.2.8zm7.3 2.5q-.8 0-1.3-.3l-1-1-.3-1.4q0-.8.4-1.5.3-.6.9-1l1.3-.3q.8-.1 1.4.4.5.3.8 1 .4.5.4 1.4t-.4 1.4l-.8 1q-.6.3-1.4.3m0-.9q.7 0 1-.5.5-.5.5-1.3t-.4-1.4q-.4-.4-1-.4-.9 0-1.2.4-.4.5-.4 1.4t.4 1.3 1.1.5m3.6.8v-5.3h1v.8q.2-.5.5-.6.3-.2.8-.2h.4v1h-.4q-.6 0-.9.3t-.3.8v3.2zm5 0q-.6 0-1-.2l-.2-.7v-5.8l1-.1v5.5l.1.4h.8v.9h-.8m-1.9-4.4v-.9h1.2v.8zm2.6 0h-1.4v-.9h1.4z" fill="#FDFDFD"/>
<rect x="186.9" y="477.9" width="12" height="12.3" rx="6" fill="#FF6762"/>
<path d="M191.3 486v-.4l1.7-1.9.8-1v-.4a1 1 0 0 0-.4-.8l-.5-.1-.5.1q-.3 0-.3.3l-.2.6h-.6q0-.5.3-.8.1-.4.5-.6l.8-.1.8.1.6.6.2.7-.1.5-.4.6-.7.8-1.1 1.2h2.3v.6z" fill="#fff"/>
<g clip-path="url(#u)" stroke="#FDFDFD" stroke-linecap="round" stroke-linejoin="round" stroke-width=".9">
<path d="m76.3 516.7v-1.1a1.2 1.2 0 0 0-1.2-1.2h-4a1.2 1.2 0 0 0-1.2 1.2v7a1 1 0 0 0 1.1 1.1h4.1a1.2 1.2 0 0 0 1.2-1.1v-1.2m-4.1-2.4h8.2l-1.8-1.7m1.8 1.8-1.8 1.7"/>
</g>
<path d="M92.2 523v-6.7h1.1v6l-.1-.2H97v1zm7.7.2q-.8 0-1.4-.4-.6-.3-.9-1l-.3-1.4q0-.8.3-1.4t1-1 1.3-.3 1.3.3.9 1 .3 1.4-.3 1.5-.9 1zm0-1q.7 0 1-.4t.4-1.4-.4-1.3-1-.5q-.8 0-1.1.5t-.4 1.3.4 1.4 1 .4m5.6 2.5q-.9 0-1.5-.4t-.6-1l1-.3q0 .3.2.5.1.3.4.3l.6.1q.6 0 1-.3.3-.3.3-1v-.8l-.6.6-1 .2q-.6 0-1.1-.3t-.8-.9-.3-1.3.3-1.2.7-.9l1.2-.3 1 .2q.5.2.6.7v-.8h1.1v4.9q0 .6-.3 1t-.8.7-1.4.3m0-3 .8-.1.5-.6.1-.7v-.3l-.1-.8-.5-.5-.8-.1q-.6 0-1 .4l-.2 1.1q0 .8.3 1.2.3.5 1 .5m6 1.5q-.8 0-1.3-.4-.6-.3-.9-1l-.3-1.4q0-.8.3-1.4t1-1q.4-.3 1.3-.3t1.3.3q.6.4.9 1t.3 1.4-.3 1.5-.9 1zm0-1q.8 0 1.1-.4t.4-1.4q0-.9-.4-1.3-.3-.5-1-.5-.8 0-1.1.5t-.4 1.3.4 1.4q.3.4 1 .4m5.5 1q-.8 0-1.4-.5t-.5-1.4v-3.5h1.1v3.4q0 .5.3.7.3.3.7.3t.7-.2q.3 0 .5-.4l.1-.6v-3.2h1.1v5.3h-1v-.8q-.3.5-.7.6zm5.3 0q-.6 0-.8-.3t-.3-.7v-5.9h1v5.4l.1.4.4.1h.4v.8l-.4.1zm-1.8-4.6v-.8h1.2v.8zm2.6 0h-1.4v-.8h1.4z" fill="#FDFDFD"/>
<rect x="257.3" y="157.5" width="603.3" height="150.7" rx="4.7" fill="#FDFDFD" opacity=".8"/>
<rect x="257.3" y="321.1" width="182.8" height="257.6" rx="4.7" fill="#FDFDFD" opacity=".8"/>
<rect x="453" y="321.1" width="407.7" height="192.1" rx="4.7" fill="#FDFDFD" opacity=".8"/>
<rect x="267.8" y="200.2" width="73" height="12.3" rx="6.1" fill="#F28230"/>
<rect x="267.8" y="260.3" width="140.8" height="12.3" rx="6.1" fill="#D9D9D9"/>
<rect x="267.8" y="278.4" width="38" height="12.3" rx="6.1" fill="#D9D9D9"/>
<rect x="299.4" y="373.6" width="67.2" height="11.3" rx="5.6" fill="#DAD9D6"/>
<rect x="299.4" y="388.1" width="5.4" height="5.4" rx="2.7" fill="#F0F0EF"/>
<rect x="307.4" y="388.1" width="43.5" height="5.4" rx="2.7" fill="#F0F0EF"/>
<rect x="299.4" y="425" width="97.5" height="11.1" rx="5.5" fill="#DAD9D6"/>
<rect x="299.4" y="439.5" width="5.4" height="5.4" rx="2.7" fill="#F0F0EF"/>
<rect x="307.6" y="439.6" width="72.4" height="5.3" rx="2.6" fill="#F0F0EF"/>
<rect x="299.4" y="476.4" width="80.6" height="11.1" rx="5.5" fill="#DAD9D6"/>
<rect x="299.4" y="490.9" width="5.4" height="5.4" rx="2.7" fill="#F0F0EF"/>
<rect x="307.6" y="491" width="56.1" height="5.3" rx="2.6" fill="#F0F0EF"/>
<rect x="299.4" y="529" width="67.2" height="11.3" rx="5.6" fill="#DAD9D6"/>
<rect x="299.4" y="543.5" width="5.4" height="5.4" rx="2.7" fill="#F0F0EF"/>
<rect x="307.4" y="543.5" width="43.5" height="5.4" rx="2.7" fill="#F0F0EF"/>
<rect x="316.3" y="278.4" width="105.7" height="12.3" rx="6.1" fill="#D9D9D9"/>
<rect x="349" y="200.2" width="73" height="12.3" rx="6.1" fill="#DAD9D6"/>
<rect x="449.5" y="168.6" width="223.7" height="12.3" rx="6.1" fill="#F0F0EF"/>
<rect x="449.5" y="187.9" width="150.7" height="12.3" rx="6.1" fill="#F0F0EF"/>
<rect x="449.5" y="207.2" width="172.9" height="12.3" rx="6.1" fill="#F0F0EF"/>
<rect x="267.8" y="166.9" width="154.2" height="27.4" rx="4.7" fill="#F0F0EF"/>
<rect x="697.1" y="166.9" width="154.2" height="127.3" rx="4.7" fill="#DAD9D6"/>
<path d="m713 178.4-.3-.9-.6-.5-1-.2q-.6 0-1 .4a1 1 0 0 0-.5.8q0 .4.3.7t.9.4l2.4.6.9.6q.4.3.6.8.3.5.2 1 0 1-.4 1.6t-1.3 1a5 5 0 0 1-2 .3q-1 0-2-.4a3 3 0 0 1-1.2-1 3 3 0 0 1-.5-1.6l1.8-.2q0 .9.6 1.3t1.4.5 1.2-.3q.6-.3.5-1 0-.4-.2-.7l-.7-.4-1-.3-1.3-.3-1-.5-.8-.8-.2-1.2q0-.8.4-1.4t1.2-1 1.8-.3a4 4 0 0 1 2.6.8q1 .8 1 2zm9.5 6.5-2.9-4.5-1.5 1.5v-2.1l4.1-4.3h2.3l-3.8 3.8v-.4l4 6zm-6 0v-9.4h1.7v9.4zm8.9-3.4v-6h1.8v6q0 .7.3 1 .3.6.8.7.5.2 1.1.2.8 0 1.3-.2t.7-.7.2-1v-6h1.8v6q0 1.1-.4 1.9a3 3 0 0 1-1.4 1.2 5 5 0 0 1-2.2.4q-1.8 0-3-.9-1-.8-1-2.6M738 185v-9.4h1.8v8l-.2-.1h5v1.5zm7.7 0v-7.3h1.8v7.3zm0-8.4v-1.8h1.8v1.8zm6.4 8.5q-1.5 0-2.3-.6t-.9-1.8l1.7-.2q0 .7.4 1t1.1.4q.6 0 1-.2.3-.3.3-.7l-.1-.5-.5-.3-.6-.2-2-.6-.8-.6q-.3-.4-.2-1t.3-1.2 1-.8 1.6-.3 1.6.3l1 .7q.4.6.4 1.2l-1.7.2q0-.5-.3-.8-.4-.4-1-.4t-.9.3-.3.6l.2.5.7.3 2 .5q.4 0 .7.4.4.2.5.6.3.4.2 1a2 2 0 0 1-.8 1.6q-.8.6-2.3.6m6.5 0q-.9 0-1.3-.4-.4-.3-.4-1.1v-7.9l1.7-.1v7.3q0 .5.2.6l.4.1h.6v1.3zM756 179v-1.3h1.9v1.2zm4 0h-2.1v-1.3h2z" fill="#1C1C1C"/>
<rect x="707" y="199.3" width="126.2" height="8.8" rx="4.4" fill="#FDFDFD"/>
<rect x="707" y="217.4" width="116.8" height="8.8" rx="4.4" fill="#FDFDFD"/>
<rect x="707" y="235.5" width="98.1" height="8.8" rx="4.4" fill="#FDFDFD"/>
<rect x="707" y="253.6" width="134.3" height="8.8" rx="4.4" fill="#FDFDFD"/>
<rect x="707" y="271.8" width="113.9" height="8.8" rx="4.4" fill="#FDFDFD"/>
<rect x="267.8" y="221.8" width="154.2" height="27.4" rx="4.7" fill="#F0F0EF"/>
<path d="M273.9 343.9q-1.4 0-2.3-.6-1-.5-1.5-1.6-.6-1-.6-2.6 0-1.5.5-2.6.6-1 1.5-1.6t2.4-.6q1.4 0 2.3.5 1 .6 1.6 1.6.5 1.1.5 2.7 0 1.5-.5 2.5t-1.5 1.7-2.4.6m0-1.6q1.2 0 1.8-.8.7-.7.7-2.4 0-1.5-.6-2.4t-2-.8q-1 0-1.7.8t-.7 2.4q0 1.4.6 2.3t1.9.9m5.7 1.5v-7.4h1.6l.1 1.2.7-1q.5-.3 1-.3l.7.1v1.7h-.1l-.3-.1h-.3q-.6 0-1 .4t-.6 1v4.4zm4.6-3.7q0-1.1.3-2 .5-.9 1.1-1.3a3 3 0 0 1 1.7-.5q.8 0 1.3.3t1 .9v-3.9h1.7v10.2h-1.6l-.1-1.2q-.3.6-1 1-.5.3-1.3.3a3 3 0 0 1-1.7-.5 3 3 0 0 1-1-1.3 5 5 0 0 1-.4-2m1.8 0q0 1.1.4 1.7t1.3.6q.6 0 1-.2t.6-.7.3-1.1v-.6q0-.6-.3-1-.1-.6-.6-.8t-1-.2q-.8 0-1.3.6t-.4 1.7m10.3 3.8a4 4 0 0 1-2-.5q-.7-.4-1.2-1.2-.5-.9-.5-2.1 0-1.1.5-2t1.2-1.3 2-.5q1 0 1.8.5t1.2 1.4q.4 1 .3 2.4h-5.5v-1.2h4.3l-.6.5q0-1-.3-1.7-.4-.6-1.3-.6t-1.3.6-.5 1.9.5 1.8 1.4.6l1.1-.3q.4-.3.6-.9l1.5.4q0 .6-.6 1.1-.4.6-1 .8t-1.6.3m4.5-.1v-7.4h1.6l.1 1.2q.3-.7.8-1t1-.3l.6.1v1.7l-.3-.1h-.3q-.7 0-1.2.4t-.5 1v4.4zm10.2 0v-8h1.8v8zm-3-7.9v-1.5h7.8v1.5zm8.3 7.9v-7.4h1.6v1.2q.4-.7.8-1t1-.3l.7.1v1.7h-.1l-.3-.1h-.3q-.6 0-1.1.4t-.5 1v4.4zm7 0q-1 0-1.8-.5a2 2 0 0 1-.6-1.5q0-.6.3-1.1t.8-.7q.4-.4 1.2-.4l1.5-.3q.6 0 .7-.3l.2-.5q0-.4-.3-.7l-1-.2q-.8 0-1.1.3t-.4 1l-1.7-.3q0-1 1-1.7.8-.6 2.2-.6 1 0 1.7.3t1 .7.3 1.3v3.3l.1.5.4.1h.2v1.2l-.4.1h-.4q-.6 0-1-.2t-.4-.8v-.2q-.3.6-1 1-.7.3-1.5.3m.5-1.2 1.2-.3q.4-.3.6-.9v-1.3h.1l-.4.3h-.6l-1 .3q-.5 0-.8.4l-.2.6q0 .5.3.6.3.3.8.3m8.4 1.3q-1 0-1.9-.5t-1.2-1.3q-.5-1-.5-2 0-1.1.5-2t1.2-1.3 2-.5q1.5 0 2.2.7 1 .6 1 1.9l-1.7.2q0-.7-.5-1t-1-.4q-.9 0-1.4.7t-.5 1.7.5 1.7 1.3.6 1.2-.4.5-1l1.6.2q0 .8-.5 1.5l-1.1.9zm9.4-.1-2.1-3.5-1.2 1v-1.9l3-3h2.2l-3 2.9v-.4l3.3 4.9zm-4.9 0v-10.2h1.8v10.2zm8.2 0v-7.4h1.7v7.4zm0-8.5v-1.7h1.7v1.7zm3.7 8.5v-7.4h1.6l.1 1q.4-.6 1-.8t1.3-.3q1.2 0 1.8.6t.7 2v4.9h-1.8V339q0-.6-.3-1-.3-.3-1-.3l-.8.2-.6.6-.2.8v4.4zm11.1 2.2q-1.4 0-2.1-.5a2 2 0 0 1-.9-1.5l1.7-.3q0 .4.2.6l.5.4h.7q.8 0 1.3-.3t.4-1.1V342l-.9.8-1.2.3a3 3 0 0 1-2.6-1.6q-.4-.7-.4-1.8 0-1 .3-1.8.4-.7 1-1.2t1.6-.4q.8 0 1.4.3t.8.9l.1-1h1.7v6.7q0 .8-.4 1.5-.3.6-1.2 1-.7.3-2 .3m.1-4.2q.6 0 1-.3.3-.1.5-.6l.2-1v-.4q0-.6-.2-1l-.6-.6-.9-.2q-.8 0-1.2.5t-.4 1.5.4 1.5 1.2.6" fill="#1C1C1C"/>
<path d="M465.6 343.8v-9.4h4q1.4 0 2.3.6t1.5 1.6.5 2.5-.5 2.4-1.5 1.7-2.3.6zm1.8-1.3-.3-.3h2.4q.8 0 1.4-.4t.8-1 .3-1.7-.2-1.7-1-1-1.3-.5H467l.3-.2zm11.1 1.4q-1 0-1.9-.5t-1.3-1.3-.4-2 .4-2 1.3-1.3 2-.5 1.8.5 1.3 1.3.4 2q0 1.1-.4 2t-1.3 1.3-1.9.5m0-1.5q.9 0 1.4-.6t.5-1.7-.5-1.7-1.4-.7-1.3.7-.5 1.7.5 1.7 1.3.6m8.2 1.5q-1.1 0-2-.5-.7-.5-1.2-1.3-.4-1-.4-2 0-1.1.4-2t1.3-1.3 1.9-.5q1.4 0 2.3.7t1 1.9l-1.7.2q-.1-.7-.5-1t-1.1-.4q-.9 0-1.4.7t-.4 1.7q0 1 .4 1.7.6.6 1.4.6.6 0 1-.4.5-.3.6-1l1.7.2q0 .8-.5 1.5-.4.5-1.2.9zm7 0q-1.2 0-1.9-.7t-.7-1.9v-4.9h1.8v4.6q0 .7.3 1 .4.3 1 .3t.8-.2a2 2 0 0 0 .8-1.3v-4.4h1.8v7.4h-1.7v-1l-1 .8q-.5.3-1.2.3m5.5-.1v-7.4h1.6l.1 1a2 2 0 0 1 2.1-1.1q.8 0 1.3.3l1 1q.1-.6.9-1 .6-.3 1.3-.3 1.2 0 1.9.7t.6 1.8v5h-1.8v-4.6q0-.6-.3-1t-.9-.4l-.8.2q-.3.2-.5.6l-.2 1v4.2h-1.8v-4.5q0-.7-.3-1-.3-.5-1-.5a2 2 0 0 0-1.2.8l-.2.9v4.3zm15.7 0a4 4 0 0 1-1.9-.4q-.8-.4-1.3-1.2-.4-.9-.4-2.1 0-1.1.4-2t1.3-1.3 1.9-.5 1.9.5 1.2 1.4.2 2.4h-5.5v-1.2h4.3l-.6.5q.1-1-.3-1.7t-1.3-.6q-.8 0-1.3.6t-.5 1.9.5 1.8 1.4.6l1.2-.3q.4-.3.6-.9l1.5.4q-.1.6-.6 1.1t-1.1.8-1.6.3m4.6 0v-7.4h1.6l.1 1q.4-.6 1-.8t1.3-.3q1 0 1.8.6.7.6.7 2v4.9h-1.8V339q0-.6-.3-1-.4-.3-1-.3l-.8.2q-.5.2-.6.6l-.2.8v4.4zm10 0q-.8 0-1.2-.3-.5-.5-.5-1.2v-7.8l1.8-.2v8h1.2v1.4zm-2.6-6v-1.4h1.8v1.3zm3.9 0-2-.1v-1.2h2zm4 6v-7.4h1.6v1.2q.4-.7.8-1t1-.3l.6.1v1.7l-.3-.1h-.3q-.8 0-1.1.4-.5.4-.6 1v4.4zm8.1 0a4 4 0 0 1-1.9-.4q-.8-.4-1.3-1.2-.4-.9-.4-2.1 0-1.1.4-2t1.2-1.3 2-.5q1 0 1.9.5t1.1 1.4q.4 1 .3 2.4h-5.5v-1.2h4.3l-.6.5q.2-1-.3-1.7t-1.3-.6-1.3.6-.5 1.9.5 1.8 1.4.6l1.2-.3q.5-.3.5-.9l1.6.4q-.1.6-.6 1.1t-1.2.8-1.5.3m4.3-3.8q0-1 .3-2a3 3 0 0 1 2.8-1.7q.8 0 1.4.3t1 1v-1.2h1.6v9.5h-1.7v-3.2q-.4.6-1 .9t-1.3.3a3 3 0 0 1-1.7-.5 3 3 0 0 1-1-1.3 5 5 0 0 1-.4-2m1.8 0q0 1.2.4 1.8t1.4.6l1-.2.5-.7q.3-.5.3-1.1v-.6q0-.6-.3-1.1-.1-.4-.6-.7t-1-.2q-.8 0-1.3.5t-.4 1.8m9.6 3.9q-1.2 0-2-.7-.6-.6-.6-1.9v-4.9h1.8v4.6q0 .7.3 1 .4.3 1 .3l.8-.2a2 2 0 0 0 .8-1.3v-4.4h1.7v7.4h-1.6v-1l-1 .8zm5.8-.1v-7.4h1.8v7.4zm0-8.5V334h1.8v1.7zm3.8 8.5v-7.4h1.6v1.2q.4-.7.8-1t1-.3l.6.1v1.7l-.3-.1h-.3q-.8 0-1.1.4t-.6 1v4.4zm8.1 0a4 4 0 0 1-1.9-.4q-.8-.4-1.3-1.2-.4-.9-.4-2.1 0-1.1.4-2t1.2-1.3 2-.5q1 0 1.9.5t1.1 1.4q.4 1 .3 2.4h-5.5v-1.2h4.3l-.6.5q.1-1-.3-1.7t-1.3-.6q-.8 0-1.3.6t-.5 1.9.5 1.8 1.4.6l1.2-.3q.5-.3.5-.9l1.6.4q-.1.6-.6 1.1t-1.2.8-1.5.3m4.3-3.7q0-1.1.4-2t1-1.3a3 3 0 0 1 1.7-.5q.9 0 1.4.3.6.3.9.9v-3.9h1.8v10.2H586v-1.2l-1 1q-.6.3-1.4.3a3 3 0 0 1-1.7-.5 3 3 0 0 1-1-1.3 5 5 0 0 1-.4-2m1.8 0q0 1.1.4 1.7t1.4.6l1-.2.6-.7.2-1.1v-.6q0-.6-.2-1-.3-.6-.7-.8t-1-.2q-.8 0-1.3.6t-.4 1.7" fill="#343331"/>
<g clip-path="url(#t)">
<path d="M604.2 334q1 0 1.5.7v.1l4.2 7.2a1.7 1.7 0 0 1-1.5 2.4H600a2 2 0 0 1-1.4-.7 2 2 0 0 1-.2-1.6v-.1l4.2-7.2a2 2 0 0 1 1.5-.9m0 7-.4.1a.6.6 0 0 0 .4 1h.1a.6.6 0 0 0 0-1.2m0-3.6-.5.5v1.3a.6.6 0 0 0 1.1 0v-1l-.6-.6" fill="#F28230"/>
</g>
<circle cx="280" cy="383.3" r="9.6" fill="#FF6762"/>
<rect x="277.7" y="394.7" width="4.7" height="28.6" rx="2.3" fill="#FF6762" opacity=".2"/>
<circle cx="280" cy="434.7" r="9.6" fill="#F28230"/>
<rect x="277.7" y="446.1" width="4.7" height="28.6" rx="2.3" fill="#F28230" opacity=".2"/>
<circle cx="280" cy="486.1" r="9.6" fill="#2EB182"/>
<rect x="277.7" y="497.5" width="4.7" height="28.6" rx="2.3" fill="#2EB182" opacity=".2"/>
<path d="m268.8 539a11.2 11.2 0 1 0 22.4 0 11.2 11.2 0 0 0-22.4 0" stroke="#2EB182" stroke-linecap="round" stroke-linejoin="round" stroke-width="1.8"/>
<path d="m276.3 539 2.5 2.5 5-5" stroke="#2EB182" stroke-linecap="round" stroke-linejoin="round" stroke-width="1.8"/>
<path d="M257.3 355.2h182.8m12.9 0h407.6M453 406.1h407.6M453 461h407.6" stroke="#DAD9D6" stroke-width=".6"/>
<rect x="453" y="526.1" width="407.7" height="52.6" rx="4.7" fill="#FDFDFD" opacity=".8"/>
<rect x="616.8" y="542.1" width="97.7" height="20.4" rx="3.2" fill="#F0F0EF"/>
<rect x="616.8" y="542.1" width="97.7" height="20.4" rx="3.2" stroke="#DAD9D6" stroke-width=".6"/>
<path d="M626.6 556.4v-6.9h1.3v5.9l-.2-.2h3.7v1.2zm8.1 0q-1 .1-1.7-.4-.7-.3-1-1.1-.5-.9-.5-2 0-1 .4-1.8t1-1.2 1.8-.4 1.7.4q.8.3 1.1 1.1t.4 2-.4 1.8-1 1.2-1.8.4m0-1.1q.9 0 1.4-.6t.4-1.7-.4-1.7q-.5-.7-1.4-.7t-1.3.6q-.5.6-.5 1.7t.5 1.7q.4.7 1.3.7m3.4 1 2.7-6.8h1.5l2.6 6.9h-1.3l-1.8-4.6-.4-1.2h.2l-.4 1.2-1.8 4.6zm1.8-1.5.4-1h2.4l.4 1zm5.8 1.6v-6.9h2.9q1 0 1.7.5.6.3 1 1.1.4.7.4 1.9l-.3 1.7q-.4.8-1.1 1.2-.7.5-1.7.5zm1.3-1-.2-.2h1.7q.6 0 1-.2t.6-.8.3-1.3l-.2-1.2q-.3-.5-.7-.7-.4-.3-1-.3h-1.7l.2-.2zm7.8 1v-6.9h2.1l1.7 5h-.2l1.7-5h2v6.9H661v-6h.2l-2 6H658l-2-6v6zm11.6 0q-1 .1-1.6-.4-.8-.3-1.1-1.1t-.4-2 .3-1.8 1.1-1.2 1.7-.4q1-.1 1.7.4.8.3 1.2 1.1t.3 2-.3 1.8-1.1 1.2-1.8.4m0-1.1q.9 0 1.4-.6t.5-1.7-.5-1.7q-.4-.7-1.4-.7-.8 0-1.3.6t-.5 1.7.5 1.7q.4.7 1.3.7m4.3 1v-6.8h3.5q.6 0 1.1.3.5.1.8.6t.3 1q0 .6-.3 1t-.9.6q.5 0 .7.3l.3.4v2.4l.2.2h-1.3l-.1-.2v-1.6l-.2-.7-.6-.2H672v2.8zm1.3-3.7h2q.4 0 .7-.3t.3-.7-.3-.7-.8-.2H672zm5.6 3.8v-6.9h5v1.2h-3.7v4.5h4v1.2zm1.2-3v-1h3.3v1z" fill="#343331"/>
<g clip-path="url(#c)" stroke="#343331" stroke-linecap="round" stroke-linejoin="round" stroke-width=".9">
<path d="M698.5 548.8v-1.7m2.5 2.8 1.2-1.3m-.2 3.8h1.7"/>
</g>
<path d="M467 385.4h-1.5v-7.7h1.4zm1.4 0v-6h1.3v.8l.9-.7 1-.2a2 2 0 0 1 1.5.5q.6.6.6 1.6v4h-1.5v-3.8q0-.6-.2-.8t-.8-.3l-.7.2-.5.5-.2.6v3.6zm8 0-2.2-6h1.6l.8 2.5.7 2.3.6-2.2.9-2.6h1.5l-2.2 6zm7.1.1a3 3 0 0 1-1.6-.4q-.6-.4-1-1t-.4-1.7.4-1.6q.4-.8 1-1.1a3 3 0 0 1 1.6-.4 3 3 0 0 1 1.6.4q.6.3 1 1 .3.7.3 1.7t-.3 1.6-1 1.1a3 3 0 0 1-1.6.4m0-1.2q.7 0 1.1-.5t.4-1.4-.4-1.4q-.4-.6-1.1-.5t-1.1.5-.4 1.4q0 .9.4 1.4.3.5 1.1.5m4.2 1v-6h1.4v6zm0-6.8v-1.4h1.4v1.4zm5.6 7a3 3 0 0 1-1.6-.4q-.6-.4-1-1-.4-.9-.4-1.7 0-1 .4-1.6.3-.8 1-1.1a3 3 0 0 1 1.6-.4q1.2 0 1.9.6t.8 1.5l-1.4.2q0-.6-.4-.9l-1-.2q-.6 0-1 .5t-.4 1.4.4 1.4 1 .5 1-.3.4-.8l1.4.1q0 .8-.4 1.2-.4.5-1 .7-.6.3-1.3.3m6.4 0q-.9 0-1.6-.4-.6-.4-1-1t-.4-1.7.3-1.6q.4-.8 1-1.1a3 3 0 0 1 1.6-.4 3 3 0 0 1 1.6.4q.6.4 1 1.2.3.7.2 1.9h-4.5v-1h3.5l-.5.4q0-.8-.2-1.3-.4-.5-1.1-.5t-1 .5q-.6.4-.5 1.5 0 1 .4 1.5t1.2.5q.6 0 1-.3l.4-.7 1.2.3q0 .6-.4 1l-1 .6z" fill="#343331"/>
<path d="M600.9 385.4v-6.8h4.8v1.1h-3.5v5.7zm1.1-2.8v-1.1h3.2v1zm4.6 2.8V380h1.3v5.3zm0-6.1V378h1.3v1.3zm2.6 6V378h1.3v7.4zm4.8.2q-.8 0-1.3-.3l-1-1-.3-1.5q0-.8.3-1.4t1-1 1.3-.3 1.4.3.9 1q.3.8.2 1.8h-4v-.9h3l-.4.4q.1-.8-.2-1.2-.3-.5-1-.5-.4 0-.9.5-.3.4-.3 1.3t.3 1.4q.4.3 1 .4l.9-.2q.4-.3.4-.7l1.1.3q0 .5-.4.8-.3.4-.8.6z" fill="#343331" opacity=".6"/>
<rect x="623" y="375.8" width="113.3" height="11.1" rx="5.5" fill="#F0F0EF"/>
<path d="M468.6 438.4q-1 0-1.9-.5t-1.2-1.3-.4-2.2q0-1.2.4-2 .4-1 1.2-1.4.9-.5 2-.5l1.7.4q.7.3 1.1.9t.6 1.4l-1.5.2q-.1-.7-.7-1.2a2 2 0 0 0-1.2-.4l-1.2.3q-.4.3-.6 1-.3.5-.3 1.3 0 1.3.6 2 .4.6 1.5.7.8 0 1.3-.5.5-.3.6-1.1l1.5.1q0 .9-.6 1.5a3 3 0 0 1-1.2 1q-.7.3-1.7.3m6.6 0q-1 0-1.5-.6a2 2 0 0 1-.6-1.5v-4h1.5v3.7q0 .6.2.8t.8.3q.4 0 .7-.2a1 1 0 0 0 .6-1v-3.6h1.5v6H477v-.9l-.8.7q-.4.3-1 .3m6.7 0a3 3 0 0 1-1.8-.5 2 2 0 0 1-.7-1.5l1.4-.2q0 .6.3.9t.9.3.8-.2.2-.6v-.4l-.4-.2-.5-.2-1.7-.4-.6-.6q-.3-.3-.2-.8t.3-1 .8-.6q.6-.3 1.3-.2t1.3.2.8.6.3 1l-1.3.1q0-.4-.3-.7t-.9-.2l-.6.1q-.3.2-.3.5t.2.4l.5.3 1.7.4.6.3.4.5.1.8q0 .9-.6 1.4t-2 .5m5.4 0q-.7 0-1-.4-.4-.3-.4-.9v-6.4l1.4-.1v6l.1.4.4.1h.5v1.1zm-2.2-5v-1.1h1.5v1zm3.2 0-1.7-.1v-1h1.7zm3.6 5a3 3 0 0 1-1.6-.4q-.6-.4-1-1l-.4-1.7q0-1 .4-1.7.3-.6 1-1a3 3 0 0 1 1.6-.4 3 3 0 0 1 1.6.4q.6.3 1 1 .3.7.3 1.7t-.3 1.6-1 1a3 3 0 0 1-1.6.5m0-1.2q.7 0 1.1-.5t.4-1.4-.4-1.4-1.1-.5-1.1.5-.4 1.4.4 1.4q.3.5 1 .5m4 1v-6h1.3l.1 1a2 2 0 0 1 1.7-1q.6 0 1.1.3t.7.8q.3-.6.8-.8t1.1-.3q1 0 1.5.5t.5 1.5v4h-1.4v-3.7q0-.5-.2-.8t-.8-.3l-.7.2-.4.5-.2.7v3.5h-1.4v-3.7q0-.5-.2-.8t-.8-.4a1 1 0 0 0-1.1.7l-.1.7v3.5zm12.4.2a3 3 0 0 1-1.8-.5 2 2 0 0 1-.8-1.5l1.4-.2q0 .6.4.9.3.3.9.3.4 0 .7-.2t.3-.6l-.1-.4-.3-.2-.6-.2-1.6-.4-.6-.6q-.3-.3-.3-.8t.3-1 .9-.6q.6-.3 1.3-.2t1.2.2.9.6.3 1l-1.4.1q0-.4-.2-.7t-.9-.2l-.7.1-.2.5q0 .3.2.4l.5.3 1.6.4q.5 0 .6.3l.5.5.1.8q0 .9-.6 1.4t-2 .5m9.2 0q-1 0-1.9-.5t-1.2-1.3-.4-2.2q0-1.2.4-2 .4-1 1.2-1.4.9-.5 2-.5l1.7.4q.6.3 1.1.9t.5 1.4l-1.4.2q-.1-.7-.7-1.2a2 2 0 0 0-1.2-.4l-1.2.3q-.4.3-.7 1l-.2 1.3q0 1.3.5 2t1.6.7q.8 0 1.3-.5.5-.3.6-1.1l1.5.1q0 .9-.6 1.5a3 3 0 0 1-1.2 1q-.7.3-1.7.3m4.6-.1V430h1.4v8.3zm5.4 0q-.7 0-1.5-.3-.7-.3-1-1t-.4-1.7.3-1.7 1-1a3 3 0 0 1 1.6-.4 3 3 0 0 1 1.6.4q.6.3 1 1.2l.2 1.9h-4.6v-1h3.5l-.4.4q0-.9-.3-1.3-.3-.6-1-.5t-1.1.5q-.4.5-.4 1.4 0 1 .4 1.6.5.4 1.2.4.5 0 .9-.2l.5-.7 1.2.3q0 .5-.5 1l-.9.6zm5.5 0q-1 .1-1.5-.4t-.5-1.2.2-1l.7-.5 1-.4 1.2-.2q.5 0 .5-.2l.2-.4-.3-.6-.7-.2q-.6 0-1 .3-.3.3-.3.7l-1.3-.1q0-1 .7-1.4.6-.6 1.9-.5.8 0 1.3.2.6.1.9.6l.2 1v2.8l.1.4h.5v1l-.3.1h-.4q-.5 0-.8-.2l-.3-.6v-.2q-.3.6-.8.8zm.4-1q.6 0 1-.2l.4-.7v-1.1h.1l-.3.2h-.5l-.8.3q-.5 0-.7.3l-.2.5q0 .3.3.5zm4.3 1v-6h1.3v1l.6-.9.9-.2h.5v1.4h-.5q-.6 0-1 .3l-.4.8v3.6zm5.7 0q-.9.1-1.5-.4t-.5-1.2.3-1 .6-.5l1-.4 1.3-.2.5-.2.1-.4-.2-.6-.8-.2q-.6 0-1 .3l-.2.7-1.4-.1q0-1 .7-1.4.7-.6 2-.5.8 0 1.3.2.6.1.8.6t.3 1v3.2h.5v1l-.3.1h-.3q-.5 0-.8-.2l-.4-.6v-.2q-.2.6-.8.8-.5.3-1.2.3m.4-1q.6 0 1-.2l.5-.7v-1.1l-.2.2h-.5l-.8.3q-.6 0-.7.3-.2.2-.2.5t.2.5zm4.3 1v-6h1.3l.1.8q.3-.5.8-.7.5-.3 1-.2a2 2 0 0 1 1.6.5q.5.5.5 1.5v4H552v-3.8q0-.4-.3-.7t-.8-.3q-.4 0-.7.2-.2 0-.5.4l-.1.7v3.6zm9.3 0-1.5-.3q-.7-.4-1-1.1t-.4-1.6.3-1.7 1-1a3 3 0 0 1 1.6-.4q1.2 0 1.9.5t.8 1.6l-1.4.2q0-.6-.4-.9-.3-.3-.9-.2t-1 .5-.5 1.4q0 .9.4 1.4t1.1.5q.6 0 1-.3.3-.3.3-.9l1.4.2q0 .7-.4 1.2l-1 .7q-.5.3-1.3.3m6.4 0q-.9 0-1.6-.3-.6-.3-1-1t-.4-1.7.4-1.7q.3-.6 1-1a3 3 0 0 1 1.5-.4 3 3 0 0 1 1.6.4q.6.3 1 1.2.3.7.2 1.9H562v-1h3.5l-.5.4q.1-.9-.2-1.3-.4-.6-1-.5t-1.2.5q-.4.5-.4 1.4 0 1 .4 1.6.5.4 1.2.4t1-.2l.4-.7 1.3.3-.5 1-1 .6z" fill="#343331"/>
<path d="M600.9 438.3v-6.8h4.8v1h-3.5v5.8zm1.1-2.8v-1.2h3.2v1.2zm4.6 2.8v-5.4h1.3v5.4zm0-6.2V431h1.3v1.2zm2.6 6.2v-7.4h1.3v7.4zm4.8 0q-.8 0-1.3-.3t-1-.9l-.3-1.5q0-.9.3-1.4.3-.7 1-1 .5-.3 1.3-.4.8 0 1.4.4t.9 1 .2 1.8h-4v-1h3l-.4.5q.1-.8-.2-1.2-.3-.5-1-.5-.4 0-.9.5-.3.4-.3 1.3t.3 1.3 1 .5.9-.3q.4-.2.4-.6l1.1.3q0 .5-.4.8l-.8.6z" fill="#343331" opacity=".6"/>
<rect x="623" y="428.7" width="113.3" height="11.1" rx="5.5" fill="#F0F0EF"/>
<path d="M465.5 491.2v-7.7h5.5v1.2h-4v5.2h4.3v1.3zm1.3-3.3v-1.3h3.7v1.3zm4.9 3.3 2.1-3.1-2-3h1.7l1.3 2.2h-.2l1.4-2.1h1.5l-2 2.8 2.2 3.2h-1.6l-1.5-2.4h.2l-1.5 2.4zm7 0v-6h1.4v6zm0-7v-1.4h1.4v1.5zm4.6 7q-.8 0-1-.3-.4-.3-.4-1v-6.4h1.4v6.4l.5.1h.5v1zm-2.2-5v-1h1.5v1zm3.2 0h-1.7v-1h1.7zm3 2q0-1 .3-1.7t.9-1 1.4-.5q.6 0 1 .3.6.2.8.7v-3h1.4v8.3h-1.3v-1l-.8.8-1.2.3q-.8 0-1.3-.4l-1-1zm1.4 0q0 .9.4 1.4t1 .5l.9-.2.5-.6.2-.9v-.5q0-.5-.2-.9l-.5-.6-.8-.2q-.7 0-1 .6-.5.5-.5 1.4m8.5 3a3 3 0 0 1-1.6-.3q-.7-.4-1-1.1t-.4-1.6.4-1.7 1-1a3 3 0 0 1 1.6-.5 3 3 0 0 1 1.5.4q.7.5 1 1.1t.4 1.7q0 .9-.4 1.6-.3.7-1 1a3 3 0 0 1-1.5.5m0-1.1q.6 0 1-.5t.5-1.5q0-.9-.4-1.4t-1.1-.5-1.2.5-.4 1.4.4 1.5 1.2.5m6.6 1.1-1.5-.3q-.7-.5-1-1.1t-.4-1.7q0-.9.3-1.6.4-.7 1-1a3 3 0 0 1 1.6-.5q1.2 0 1.9.6t.8 1.5l-1.4.2q0-.5-.4-.8-.3-.3-.9-.3t-1 .5q-.5.6-.5 1.4 0 1 .4 1.5t1.1.5q.6 0 1-.3.3-.3.3-.9l1.4.2q0 .6-.4 1.2-.3.4-1 .7-.5.3-1.3.3m5.8 0q-1 0-1.6-.5a2 2 0 0 1-.5-1.5v-4h1.4v3.7q0 .5.3.8t.8.3l.6-.2a1 1 0 0 0 .7-1v-3.6h1.4v6h-1.3v-.9l-.8.7q-.5.3-1 .3m4.5 0v-6h1.3v.8a2 2 0 0 1 1.8-1q.6 0 1 .3t.8.9q.3-.6.8-.8.5-.4 1-.4 1 0 1.6.6.5.6.5 1.5v4h-1.4v-3.7q0-.5-.3-.8t-.7-.3-.7.2l-.4.4-.2.8v3.5h-1.4v-3.7q0-.5-.3-.9-.2-.3-.7-.3a1 1 0 0 0-1.1.7l-.2.7v3.5zm12.8 0q-.7 0-1.5-.3-.7-.3-1-1t-.4-1.7.3-1.7 1-1a3 3 0 0 1 1.6-.5 3 3 0 0 1 1.6.4q.6.5 1 1.2l.2 2H525v-1h3.6l-.5.4q0-.9-.3-1.4t-1-.4q-.7 0-1.1.4-.4.6-.4 1.5t.4 1.6q.5.4 1.2.4.5 0 .9-.2l.5-.7 1.2.3q0 .4-.5 1-.3.3-.9.5t-1.3.3m3.8 0v-6h1.3v.8l.9-.7q.4-.3 1-.3a2 2 0 0 1 1.5.6q.6.4.6 1.5v4h-1.5v-3.8q0-.4-.2-.7t-.8-.3q-.4 0-.7.2-.3 0-.5.4l-.2.7v3.6zm8.2 0q-.7 0-1-.3t-.4-1v-6.4h1.4v6l.1.4.4.1h.5v1zm-2.2-5v-1h1.5v1zm3.2 0h-1.7v-1h1.7z" fill="#343331"/>
<rect x="762.8" y="477.9" width="81.8" height="18.4" rx="3.2" fill="#F0F0EF"/>
<rect x="762.8" y="477.9" width="81.8" height="18.4" rx="3.2" stroke="#DAD9D6" stroke-width=".6"/>
</g>
</g>
<defs>
<clipPath id="aj">
</clipPath>
<clipPath id="ai">
<path d="M255 120.2h605.6v21H255z" fill="#fff"/>
</clipPath>
<clipPath id="af">
</clipPath>
<clipPath id="ae">
</clipPath>
<clipPath id="ad">
</clipPath>
<clipPath id="ac">
</clipPath>
<clipPath id="ab">
</clipPath>
<clipPath id="aa">
</clipPath>
<clipPath id="z">
</clipPath>
<clipPath id="y">
<path d="M67.5 564.6h23.4V588H67.5z" fill="#fff"/>
</clipPath>
<clipPath id="x">
<rect x="67.5" y="564.6" width="23.4" height="23.4" rx="11.7" fill="#fff"/>
</clipPath>
<clipPath id="v">
</clipPath>
<clipPath id="u">
</clipPath>
<clipPath id="t">
</clipPath>
<clipPath id="c">
</clipPath>
<pattern id="w" width="1" height="1" patternContentUnits="objectBoundingBox">
</pattern>
<filter id="ak" x="0" y="0" width="813" height="663" color-interpolation-filters="sRGB" filterUnits="userSpaceOnUse">
<feFlood flood-opacity="0" result="BackgroundImageFix"/>
<feColorMatrix in="SourceAlpha" result="hardAlpha" values="0 0 0 0 0 0 0 0 0 0 0 0 0 0 0 0 0 0 127 0"/>
<feOffset dy="4"/>
<feGaussianBlur stdDeviation="25"/>
<feComposite in2="hardAlpha" operator="out"/>
<feColorMatrix values="0 0 0 0 0 0 0 0 0 0 0 0 0 0 0 0 0 0 0.25 0"/>
<feBlend in2="BackgroundImageFix" result="effect1_dropShadow_6737_38902"/>
<feBlend in="SourceGraphic" in2="effect1_dropShadow_6737_38902" result="shape"/>
</filter>
</defs>
</svg>
