<svg width="48" height="48" viewBox="0 0 48 48" fill="none" xmlns="http://www.w3.org/2000/svg">
<rect width="48" height="48" rx="8.42105" fill="#FA9349"/>
<rect x="0.421053" y="0.421053" width="47.1579" height="47.1579" rx="8" stroke="url(#paint0_linear_6737_39716)" stroke-opacity="0.2" stroke-width="0.842105"/>
<g clip-path="url(#clip0_6737_39716)">
<path d="M27.125 17.1258L30.875 13.5008C31.3557 13.0201 32.0077 12.75 32.6875 12.75C33.3673 12.75 34.0193 13.0201 34.5 13.5008C34.9807 13.9815 35.2508 14.6334 35.2508 15.3133C35.2508 15.9931 34.9807 16.6451 34.5 17.1258L30.875 20.8758L34 30.2508L30.875 33.4383L26.5 25.2508L22.75 29.0008V32.7508L20.25 35.2508L18.375 29.6258L12.75 27.7508L15.25 25.2508H19L22.75 21.5008L14.625 17.1258L17.75 14.0008L27.125 17.1258Z" stroke="#FDFDFD" stroke-width="1.5" stroke-linecap="round" stroke-linejoin="round"/>
</g>
<defs>
<linearGradient id="paint0_linear_6737_39716" x1="49.6462" y1="50.6954" x2="-6.42038" y2="19.3966" gradientUnits="userSpaceOnUse">
<stop stop-color="white" stop-opacity="0.2"/>
<stop offset="0.506386" stop-color="white"/>
<stop offset="1" stop-color="white" stop-opacity="0.2"/>
</linearGradient>
<clipPath id="clip0_6737_39716">
<rect width="30" height="30" fill="white" transform="translate(9 9)"/>
</clipPath>
</defs>
</svg>
