<svg width="48" height="48" viewBox="0 0 48 48" fill="none" xmlns="http://www.w3.org/2000/svg">
<rect width="48" height="48" rx="8.42105" fill="#FA9349"/>
<rect x="0.421053" y="0.421053" width="47.1579" height="47.1579" rx="8" stroke="url(#paint0_linear_6737_39730)" stroke-opacity="0.2" stroke-width="0.842105"/>
<g clip-path="url(#clip0_6737_39730)">
<path d="M12.75 35.25V19L24 14L35.25 19V35.25" stroke="white" stroke-width="1.5" stroke-linecap="round" stroke-linejoin="round"/>
<path d="M25.25 25.25H30.25V35.25H17.75V27.75H25.25" stroke="white" stroke-width="1.5" stroke-linecap="round" stroke-linejoin="round"/>
<path d="M25.25 35.25V24C25.25 23.6685 25.1183 23.3505 24.8839 23.1161C24.6495 22.8817 24.3315 22.75 24 22.75H21.5C21.1685 22.75 20.8505 22.8817 20.6161 23.1161C20.3817 23.3505 20.25 23.6685 20.25 24V27.75" stroke="white" stroke-width="1.5" stroke-linecap="round" stroke-linejoin="round"/>
</g>
<defs>
<linearGradient id="paint0_linear_6737_39730" x1="49.6462" y1="50.6954" x2="-6.42038" y2="19.3966" gradientUnits="userSpaceOnUse">
<stop stop-color="white" stop-opacity="0.2"/>
<stop offset="0.506386" stop-color="white"/>
<stop offset="1" stop-color="white" stop-opacity="0.2"/>
</linearGradient>
<clipPath id="clip0_6737_39730">
<rect width="30" height="30" fill="white" transform="translate(9 9)"/>
</clipPath>
</defs>
</svg>
