<svg width="273" height="259" viewBox="0 0 273 259" fill="none" xmlns="http://www.w3.org/2000/svg">
<rect width="273" height="259" rx="12" fill="#FDFDFD"/>
<mask id="mask0_6984_15847" style="mask-type:alpha" maskUnits="userSpaceOnUse" x="0" y="0" width="273" height="259">
<rect width="273" height="259" rx="12" fill="#FDFDFD"/>
</mask>
<g mask="url(#mask0_6984_15847)">
<path d="M92.6045 -109.916C7.88818 -44.2684 45.1095 -15.9689 82.5909 15.6119C115.554 43.386 145.401 56.0241 141.467 105.019" stroke="#DAD9D6" stroke-width="0.914445"/>
<path d="M121.757 -111.704C172.579 -29.5181 61.1531 8.80444 92.8225 63.9689C102.146 81.8006 135.523 85.0011 135.523 105.735" stroke="#DAD9D6" stroke-width="0.914445"/>
<path d="M201.323 -110.989C228.793 -55.5172 130.951 10.4739 123.635 53.4528C118.149 79.8105 167.874 90.4878 167.874 106.45" stroke="#DAD9D6" stroke-width="0.914445"/>
<path d="M154.832 -106.34C304.415 -0.159429 68.5928 34.5685 125.557 105.734" stroke="#DAD9D6" stroke-width="0.914445"/>
<path d="M33.9528 -112.062C7.5483 -13.045 176.673 8.64473 151.274 63.0542C143.296 81.8003 104.727 89.5731 104.727 105.734" stroke="#DAD9D6" stroke-width="0.914445"/>
<path d="M148.326 105.734C143.493 35.2814 305.394 30.6322 220.993 -109.559" stroke="#DAD9D6" stroke-width="0.914445"/>
<circle cx="158.303" cy="-2.41003" r="3.57629" transform="rotate(90 158.303 -2.41003)" fill="#477BFF"/>
<circle cx="129.955" cy="82.6334" r="3.57629" transform="rotate(90 129.955 82.6334)" fill="#A57CFF"/>
<circle cx="102.803" cy="30.9899" r="3.57629" transform="rotate(90 102.803 30.9899)" fill="#4BCB9D"/>
<circle cx="172.933" cy="58.858" r="3.57629" transform="rotate(90 172.933 58.858)" fill="#FA9349"/>
<path d="M156.446 144.716C156.446 193.742 156.446 247.811 156.446 292.774" stroke="#DAD9D6" stroke-width="0.914445"/>
<path d="M148.579 144.716C148.579 193.742 148.579 247.811 148.579 292.774" stroke="#DAD9D6" stroke-width="0.914445"/>
<path d="M140.711 144.716C140.711 193.742 140.711 247.811 140.711 292.774" stroke="#DAD9D6" stroke-width="0.914445"/>
<path d="M132.844 144.716C132.844 193.742 132.844 247.811 132.844 292.774" stroke="#DAD9D6" stroke-width="0.914445"/>
<path d="M117.107 144.716C117.107 193.742 117.107 247.811 117.107 292.774" stroke="#DAD9D6" stroke-width="0.914445"/>
<path d="M124.975 144.716C124.975 193.742 124.975 247.811 124.975 292.774" stroke="#DAD9D6" stroke-width="0.914445"/>
<circle cx="140.711" cy="216.142" r="3.57629" transform="rotate(90 140.711 216.142)" fill="#477BFF"/>
<circle cx="124.975" cy="161.167" r="3.57629" transform="rotate(90 124.975 161.167)" fill="#FA9349"/>
<circle cx="156.447" cy="254.549" r="3.57629" transform="rotate(90 156.447 254.549)" fill="#4BCB9D"/>
<circle cx="156.447" cy="175.472" r="3.57629" transform="rotate(90 156.447 175.472)" fill="#A57CFF"/>
<circle cx="117.108" cy="190.538" r="3.57629" transform="rotate(90 117.108 190.538)" fill="#A57CFF"/>
<g filter="url(#filter0_d_6984_15847)">
<rect x="57.7959" y="102.516" width="157.285" height="46.6367" rx="9.14445" fill="#F0F0EF" shape-rendering="crispEdges"/>
<rect x="58.2531" y="102.973" width="156.37" height="45.7222" rx="8.68723" stroke="#DAD9D6" stroke-width="0.914445" shape-rendering="crispEdges"/>
<g clip-path="url(#clip0_6984_15847)">
<path d="M92.6614 122.539C92.0875 122.441 91.6953 121.892 91.8751 121.336C92.063 120.754 92.3203 120.197 92.6471 119.677C93.1597 118.859 93.8297 118.149 94.616 117.59C95.4023 117.03 96.2908 116.632 97.2303 116.417C98.1698 116.202 99.142 116.174 100.092 116.337C101.041 116.5 101.95 116.849 102.765 117.364C103.58 117.88 104.287 118.55 104.844 119.341C105.402 120.13 105.798 121.021 106.013 121.965C106.15 122.564 106.209 123.175 106.194 123.787C106.18 124.371 105.629 124.757 105.055 124.659L92.6634 122.539H92.6614Z" fill="#343331"/>
<path d="M77.5434 135.293C76.9879 135.465 76.3935 135.151 76.2812 134.58C76.0872 133.598 76.0361 132.594 76.1321 131.597C76.2608 130.248 76.6529 128.937 77.2861 127.741C77.9192 126.545 78.7811 125.485 79.8207 124.623C80.8623 123.761 82.0612 123.112 83.352 122.715C84.6428 122.319 85.999 122.181 87.3409 122.308C88.6848 122.438 89.9899 122.83 91.1827 123.467C92.3754 124.101 93.4314 124.967 94.2892 126.011C94.9244 126.783 95.4431 127.643 95.8291 128.564C96.0559 129.102 95.7372 129.695 95.1817 129.866L77.5434 135.293Z" fill="#343331"/>
<path d="M99.3916 129.246C98.9749 129.653 99.1056 130.319 99.5876 130.646L106.35 135.253C106.832 135.581 107.498 135.458 107.718 134.917C107.841 134.619 107.935 134.31 108 133.992C108.137 133.329 108.141 132.644 108.015 131.98C107.888 131.314 107.631 130.682 107.261 130.114C106.889 129.548 106.411 129.06 105.854 128.68C105.296 128.3 104.667 128.033 104.007 127.897C103.346 127.76 102.666 127.755 102.002 127.883C101.338 128.01 100.707 128.267 100.143 128.64C99.8736 128.818 99.6224 129.02 99.3916 129.246Z" fill="#343331"/>
<path fill-rule="evenodd" clip-rule="evenodd" d="M122.182 118.588H115.418V134.735H118.915V129.492H122.182C124.023 129.492 125.481 129.022 126.553 128.083C127.642 127.144 128.187 125.795 128.187 124.04C128.187 122.285 127.642 120.999 126.553 120.043C125.465 119.072 124.006 118.588 122.182 118.588ZM124.646 124.038C124.646 125.716 123.655 126.555 121.678 126.555H118.917V121.518H121.678C122.599 121.518 123.32 121.704 123.841 122.074C124.378 122.443 124.646 123.099 124.646 124.038Z" fill="#343331"/>
<path fill-rule="evenodd" clip-rule="evenodd" d="M128.655 134.064C129.515 134.742 130.618 135.081 131.968 135.081C133.549 135.081 134.805 134.626 135.742 133.718V134.734H139.01V127.99C139.01 126.512 138.52 125.364 137.537 124.548C136.555 123.717 135.068 123.3 133.073 123.3C132.29 123.3 131.508 123.377 130.726 123.531C129.944 123.669 129.306 123.847 128.816 124.064V126.604C129.952 126.097 131.194 125.842 132.544 125.842C133.557 125.842 134.308 126.003 134.798 126.326C135.289 126.65 135.536 127.157 135.536 127.85V128.128C135.076 127.881 134.545 127.689 133.949 127.55C133.35 127.412 132.721 127.341 132.062 127.341C130.573 127.341 129.423 127.687 128.61 128.38C127.797 129.059 127.391 130.013 127.391 131.244C127.391 132.476 127.813 133.369 128.657 134.062L128.655 134.064ZM134.453 132.446C133.994 132.661 133.479 132.77 132.911 132.77C132.282 132.77 131.798 132.638 131.461 132.378C131.124 132.117 130.955 131.739 130.955 131.246C130.955 130.722 131.124 130.33 131.461 130.069C131.814 129.791 132.313 129.654 132.956 129.654C133.892 129.654 134.751 129.915 135.534 130.438V131.547C135.272 131.931 134.913 132.231 134.451 132.449L134.453 132.446Z" fill="#343331"/>
<path d="M140.62 123.647H143.98V125.242C144.425 124.703 145.046 124.294 145.845 124.016C146.606 123.737 147.466 123.653 148.426 123.647H150.038V120.32H153.512V123.647H156.112V126.164H153.512V130.554C153.512 131.201 153.634 131.671 153.879 131.963C154.125 132.241 154.562 132.587 155.191 132.587H155.487V135.081H153.971C152.683 135.081 151.7 134.727 151.026 134.019C150.367 133.295 150.038 132.295 150.038 131.015V126.164H148.553C147.497 126.164 146.564 126.396 145.753 126.72C144.956 127.043 144.403 127.536 144.096 128.197V134.735H140.622V123.647H140.62Z" fill="#343331"/>
<path d="M156.867 135.08H161.483C163.139 135.08 164.406 134.78 165.28 134.179C166.154 133.563 166.591 132.747 166.591 131.73C166.591 131.069 166.477 130.522 166.246 130.09C166.031 129.643 165.656 129.265 165.118 128.958C164.581 128.635 163.83 128.343 162.864 128.08L162.404 127.965C161.499 127.733 160.878 127.541 160.539 127.387C160.217 127.232 160.055 127.009 160.055 126.717C160.055 126.378 160.225 126.147 160.562 126.024C160.915 125.9 161.405 125.838 162.034 125.838C162.708 125.838 163.399 125.93 164.105 126.115C164.826 126.301 165.408 126.539 165.854 126.831V124.174C165.408 123.913 164.773 123.705 163.944 123.55C163.131 123.381 162.341 123.295 161.575 123.295C160.01 123.295 158.769 123.588 157.847 124.174C156.943 124.744 156.489 125.606 156.489 126.76C156.489 127.439 156.62 127.992 156.881 128.424C157.157 128.856 157.555 129.217 158.078 129.509C158.615 129.787 159.351 130.065 160.286 130.34C161.085 130.572 161.652 130.749 161.989 130.872C162.343 130.981 162.602 131.11 162.772 131.265C162.941 131.403 163.025 131.588 163.025 131.82C163.025 132.112 162.88 132.313 162.588 132.421C162.296 132.53 161.836 132.582 161.207 132.582C160.968 132.582 160.733 132.586 160.494 132.588C159.994 132.594 159.467 132.603 158.816 132.582H156.867V135.076V135.08Z" fill="#343331"/>
<path d="M190.889 134.733C189.97 134.733 189.059 134.65 188.156 134.481C187.267 134.326 186.54 134.111 185.975 133.836V131.715C187.445 132.406 189.03 132.753 190.729 132.753C193.119 132.753 194.312 131.945 194.312 130.331C194.312 129.778 194.181 129.331 193.922 128.993C193.662 128.655 193.286 128.363 192.796 128.117C192.306 127.856 191.51 127.501 190.409 127.056C188.893 126.44 187.798 125.764 187.124 125.027C186.45 124.291 186.113 123.36 186.113 122.237C186.113 121.391 186.342 120.646 186.802 120.001C187.261 119.339 187.905 118.832 188.732 118.479C189.559 118.11 190.509 117.926 191.579 117.926C192.451 117.926 193.239 117.995 193.944 118.133C194.649 118.271 195.337 118.494 196.011 118.801V120.83C194.679 120.231 193.331 119.93 191.969 119.93C190.866 119.93 190.025 120.13 189.443 120.529C188.861 120.928 188.571 121.498 188.571 122.234C188.571 122.742 188.693 123.172 188.938 123.527C189.198 123.865 189.573 124.172 190.064 124.449C190.568 124.71 191.311 125.042 192.292 125.441C193.378 125.887 194.236 126.309 194.863 126.71C195.49 127.108 195.966 127.601 196.287 128.185C196.624 128.753 196.791 129.469 196.791 130.329C196.791 131.728 196.293 132.811 195.298 133.579C194.304 134.347 192.833 134.731 190.889 134.731V134.733Z" fill="#343331"/>
<path d="M176.724 134.734C175.131 134.734 173.693 134.387 172.406 133.697C171.12 132.989 170.109 131.998 169.375 130.722C168.64 129.447 168.272 127.986 168.272 126.341C168.272 124.696 168.64 123.235 169.375 121.96C170.111 120.684 171.122 119.693 172.406 118.985C173.693 118.278 175.133 117.925 176.724 117.925C178.315 117.925 179.755 118.278 181.042 118.985C182.328 119.693 183.337 120.684 184.073 121.96C184.808 123.235 185.175 124.696 185.175 126.341C185.175 127.986 184.808 129.447 184.073 130.722C183.337 131.998 182.326 132.989 181.042 133.697C179.755 134.387 178.317 134.734 176.724 134.734ZM176.724 132.613C177.858 132.613 178.883 132.361 179.802 131.851C180.735 131.33 181.471 130.599 182.008 129.662C182.543 128.708 182.812 127.602 182.812 126.341C182.812 125.08 182.545 124.005 182.008 123.066C181.487 122.112 180.768 121.383 179.849 120.876C178.93 120.354 177.904 120.091 176.771 120.091C175.637 120.091 174.581 120.346 173.648 120.853C172.729 121.361 171.994 122.091 171.442 123.043C170.907 123.997 170.64 125.095 170.64 126.341C170.64 127.587 170.907 128.708 171.442 129.662C171.977 130.599 172.705 131.33 173.624 131.851C174.557 132.359 175.59 132.613 176.724 132.613Z" fill="#343331"/>
</g>
</g>
<rect x="22" y="41" width="41" height="245" transform="rotate(-90 22 41)" fill="url(#paint0_linear_6984_15847)"/>
<rect x="267" y="223" width="36" height="245" transform="rotate(90 267 223)" fill="url(#paint1_linear_6984_15847)"/>
</g>
<defs>
<filter id="filter0_d_6984_15847" x="30.3626" y="78.7401" width="212.151" height="101.503" filterUnits="userSpaceOnUse" color-interpolation-filters="sRGB">
<feFlood flood-opacity="0" result="BackgroundImageFix"/>
<feColorMatrix in="SourceAlpha" type="matrix" values="0 0 0 0 0 0 0 0 0 0 0 0 0 0 0 0 0 0 127 0" result="hardAlpha"/>
<feOffset dy="3.65778"/>
<feGaussianBlur stdDeviation="13.7167"/>
<feComposite in2="hardAlpha" operator="out"/>
<feColorMatrix type="matrix" values="0 0 0 0 0 0 0 0 0 0 0 0 0 0 0 0 0 0 0.1 0"/>
<feBlend mode="normal" in2="BackgroundImageFix" result="effect1_dropShadow_6984_15847"/>
<feBlend mode="normal" in="SourceGraphic" in2="effect1_dropShadow_6984_15847" result="shape"/>
</filter>
<linearGradient id="paint0_linear_6984_15847" x1="25.788" y1="163.5" x2="61.663" y2="163.5" gradientUnits="userSpaceOnUse">
<stop stop-color="white" stop-opacity="0"/>
<stop offset="1" stop-color="white"/>
</linearGradient>
<linearGradient id="paint1_linear_6984_15847" x1="270.326" y1="345.5" x2="301.826" y2="345.5" gradientUnits="userSpaceOnUse">
<stop stop-color="white" stop-opacity="0"/>
<stop offset="1" stop-color="white"/>
</linearGradient>
<clipPath id="clip0_6984_15847">
<rect width="120.707" height="19.2033" fill="white" transform="translate(76.085 116.232)"/>
</clipPath>
</defs>
</svg>
