<svg width="32" height="32" viewBox="0 0 32 32" fill="none" xmlns="http://www.w3.org/2000/svg">
<rect width="31.5609" height="31.5609" rx="5.53699" fill="#FA9349"/>
<rect x="0.27685" y="0.27685" width="31.0072" height="31.0072" rx="5.26014" stroke="url(#paint0_linear_6698_32968)" stroke-opacity="0.2" stroke-width="0.553699"/>
<g clip-path="url(#clip0_6698_32968)">
<path d="M23.1683 14.489C22.916 13.0454 22.2463 11.7074 21.2419 10.6402C20.2376 9.57301 18.9426 8.82344 17.5169 8.48411C16.0913 8.14477 14.5975 8.23054 13.22 8.7308C11.8426 9.23106 10.6419 10.1239 9.76627 11.299C8.89065 12.4741 8.37848 13.88 8.29303 15.343C8.20759 16.806 8.55262 18.2619 9.28549 19.531C10.0184 20.8 11.107 21.8266 12.4168 22.4838C13.7266 23.141 15.2003 23.4001 16.6558 23.229" stroke="#FDFDFD" stroke-linecap="round" stroke-linejoin="round"/>
<path d="M15.7803 11.6133V15.7799L17.0303 17.0299" stroke="#FDFDFD" stroke-linecap="round" stroke-linejoin="round"/>
<path d="M23.2806 18.2803H21.1973C20.8657 18.2803 20.5478 18.412 20.3134 18.6464C20.079 18.8808 19.9473 19.1988 19.9473 19.5303C19.9473 19.8618 20.079 20.1797 20.3134 20.4142C20.5478 20.6486 20.8657 20.7803 21.1973 20.7803H22.0306C22.3621 20.7803 22.6801 20.912 22.9145 21.1464C23.1489 21.3808 23.2806 21.6988 23.2806 22.0303C23.2806 22.3618 23.1489 22.6797 22.9145 22.9142C22.6801 23.1486 22.3621 23.2803 22.0306 23.2803H19.9473" stroke="#FDFDFD" stroke-linecap="round" stroke-linejoin="round"/>
<path d="M21.6133 23.2806V24.1139M21.6133 17.4473V18.2806" stroke="#FDFDFD" stroke-linecap="round" stroke-linejoin="round"/>
</g>
<defs>
<linearGradient id="paint0_linear_6698_32968" x1="32.6433" y1="33.3331" x2="-4.22152" y2="12.7536" gradientUnits="userSpaceOnUse">
<stop stop-color="white" stop-opacity="0.2"/>
<stop offset="0.506386" stop-color="white"/>
<stop offset="1" stop-color="white" stop-opacity="0.2"/>
</linearGradient>
<clipPath id="clip0_6698_32968">
<rect width="20" height="20" fill="white" transform="translate(5.78027 5.78027)"/>
</clipPath>
</defs>
</svg>
