<svg width="303" height="261" viewBox="0 0 303 261" fill="none" xmlns="http://www.w3.org/2000/svg">
<rect x="15" width="273" height="259" fill="#FDFDFD"/>
<path d="M20.416 129L280.875 129" stroke="#DAD9D6" stroke-width="1.15878"/>
<path d="M37.1875 129L101.448 36.3922" stroke="#DAD9D6" stroke-width="1.15878" stroke-dasharray="2.32 2.32"/>
<path d="M200.809 36.3921L101.448 36.3921" stroke="#DAD9D6" stroke-width="1.15878" stroke-dasharray="2.32 2.32"/>
<path d="M200.809 36.3921L265.814 129" stroke="#DAD9D6" stroke-width="1.15878" stroke-dasharray="2.32 2.32"/>
<path d="M200.809 221.608L264.849 129" stroke="#DAD9D6" stroke-width="1.15878" stroke-dasharray="2.32 2.32"/>
<path d="M200.809 221.608L101.448 221.608" stroke="#DAD9D6" stroke-width="1.15878" stroke-dasharray="2.32 2.32"/>
<path d="M37.1875 129L101.448 221.608" stroke="#DAD9D6" stroke-width="1.15878" stroke-dasharray="2.32 2.32"/>
<path d="M100.483 221.608L200.808 36.3923" stroke="#DAD9D6" stroke-width="1.15878"/>
<path d="M200.809 221.608L101.448 36.3925" stroke="#DAD9D6" stroke-width="1.15878"/>
<g filter="url(#filter0_d_6984_15781)">
<rect x="79.2607" y="14.2051" width="44.3746" height="44.3746" fill="#A57CFF" shape-rendering="crispEdges"/>
<rect x="79.65" y="14.5943" width="43.5961" height="43.5961" stroke="url(#paint0_linear_6984_15781)" stroke-opacity="0.2" stroke-width="0.778501" shape-rendering="crispEdges"/>
<g clip-path="url(#clip0_6984_15781)">
<path d="M99.3835 26.9222C99.9086 24.7577 102.988 24.7577 103.513 26.9222C103.592 27.2474 103.746 27.5493 103.964 27.8035C104.181 28.0577 104.456 28.257 104.765 28.385C105.074 28.5131 105.409 28.5663 105.742 28.5405C106.076 28.5146 106.399 28.4104 106.684 28.2362C108.586 27.0775 110.764 29.2543 109.606 31.1575C109.432 31.443 109.328 31.7656 109.302 32.0989C109.276 32.4323 109.329 32.767 109.457 33.0759C109.585 33.3848 109.784 33.6592 110.038 33.8767C110.292 34.0943 110.594 34.2488 110.918 34.3278C113.083 34.8529 113.083 37.932 110.918 38.4571C110.593 38.5359 110.291 38.6904 110.037 38.9079C109.783 39.1254 109.584 39.3999 109.456 39.709C109.328 40.0181 109.274 40.3531 109.3 40.6867C109.326 41.0202 109.43 41.343 109.604 41.6287C110.763 43.5306 108.586 45.7087 106.683 44.55C106.398 44.3761 106.075 44.272 105.742 44.2462C105.408 44.2204 105.074 44.2736 104.765 44.4015C104.456 44.5294 104.181 44.7284 103.964 44.9823C103.746 45.2362 103.592 45.5379 103.513 45.8627C102.988 48.0272 99.9086 48.0272 99.3835 45.8627C99.3047 45.5376 99.1502 45.2356 98.9327 44.9814C98.7152 44.7272 98.4407 44.528 98.1316 44.3999C97.8225 44.2719 97.4875 44.2186 97.1539 44.2445C96.8204 44.2703 96.4976 44.3746 96.2119 44.5488C94.31 45.7074 92.1319 43.5306 93.2906 41.6274C93.4645 41.3419 93.5686 41.0193 93.5944 40.686C93.6202 40.3526 93.567 40.0179 93.4391 39.709C93.3112 39.4001 93.1122 39.1257 92.8583 38.9082C92.6044 38.6907 92.3027 38.5361 91.9779 38.4571C89.8134 37.932 89.8134 34.8529 91.9779 34.3278C92.303 34.249 92.605 34.0946 92.8592 33.877C93.1134 33.6595 93.3126 33.385 93.4407 33.0759C93.5687 32.7668 93.622 32.4318 93.5961 32.0983C93.5703 31.7647 93.466 31.4419 93.2918 31.1563C92.1332 29.2543 94.31 27.0763 96.2132 28.2349C97.4458 28.9844 99.0433 28.3212 99.3835 26.9222Z" stroke="#FDFDFD" stroke-width="1.447" stroke-linecap="round" stroke-linejoin="round"/>
<path d="M97.75 36.3927C97.75 37.3734 98.1396 38.314 98.8331 39.0075C99.5266 39.701 100.467 40.0906 101.448 40.0906C102.429 40.0906 103.369 39.701 104.063 39.0075C104.756 38.314 105.146 37.3734 105.146 36.3927C105.146 35.412 104.756 34.4714 104.063 33.7779C103.369 33.0844 102.429 32.6948 101.448 32.6948C100.467 32.6948 99.5266 33.0844 98.8331 33.7779C98.1396 34.4714 97.75 35.412 97.75 36.3927Z" stroke="#FDFDFD" stroke-width="1.447" stroke-linecap="round" stroke-linejoin="round"/>
</g>
</g>
<g filter="url(#filter1_d_6984_15781)">
<rect x="79.2607" y="199.42" width="44.3746" height="44.3746" fill="#F28230" shape-rendering="crispEdges"/>
<rect x="79.65" y="199.81" width="43.5961" height="43.5961" stroke="url(#paint1_linear_6984_15781)" stroke-opacity="0.2" stroke-width="0.778501" shape-rendering="crispEdges"/>
<g clip-path="url(#clip1_6984_15781)">
<path d="M101.448 210.514L111.309 216.061V227.155L101.448 232.701L91.5869 227.155V216.061L101.448 210.514Z" stroke="#FDFDFD" stroke-width="1.447" stroke-linecap="round" stroke-linejoin="round"/>
<path d="M101.448 221.608L111.309 216.061" stroke="#FDFDFD" stroke-width="1.447" stroke-linecap="round" stroke-linejoin="round"/>
<path d="M101.448 221.608V232.702" stroke="#FDFDFD" stroke-width="1.447" stroke-linecap="round" stroke-linejoin="round"/>
<path d="M101.448 221.608L91.5869 216.061" stroke="#FDFDFD" stroke-width="1.447" stroke-linecap="round" stroke-linejoin="round"/>
<path d="M106.379 213.288L96.5176 218.834" stroke="#FDFDFD" stroke-width="1.447" stroke-linecap="round" stroke-linejoin="round"/>
</g>
</g>
<g filter="url(#filter2_d_6984_15781)">
<rect x="15" y="106.812" width="44.3746" height="44.3746" fill="#2EB182" shape-rendering="crispEdges"/>
<rect x="15.3893" y="107.202" width="43.5961" height="43.5961" stroke="url(#paint2_linear_6984_15781)" stroke-opacity="0.2" stroke-width="0.778501" shape-rendering="crispEdges"/>
<g clip-path="url(#clip2_6984_15781)">
<path d="M28.5586 135.163C28.5586 135.817 28.8183 136.444 29.2806 136.906C29.743 137.369 30.37 137.628 31.0238 137.628C31.6777 137.628 32.3047 137.369 32.767 136.906C33.2294 136.444 33.4891 135.817 33.4891 135.163C33.4891 134.509 33.2294 133.882 32.767 133.42C32.3047 132.957 31.6777 132.698 31.0238 132.698C30.37 132.698 29.743 132.957 29.2806 133.42C28.8183 133.882 28.5586 134.509 28.5586 135.163Z" stroke="#FDFDFD" stroke-width="1.447" stroke-linecap="round" stroke-linejoin="round"/>
<path d="M40.8848 135.163C40.8848 135.817 41.1445 136.444 41.6068 136.906C42.0691 137.369 42.6962 137.628 43.35 137.628C44.0038 137.628 44.6309 137.369 45.0932 136.906C45.5555 136.444 45.8153 135.817 45.8153 135.163C45.8153 134.509 45.5555 133.882 45.0932 133.42C44.6309 132.957 44.0038 132.698 43.35 132.698C42.6962 132.698 42.0691 132.957 41.6068 133.42C41.1445 133.882 40.8848 134.509 40.8848 135.163Z" stroke="#FDFDFD" stroke-width="1.447" stroke-linecap="round" stroke-linejoin="round"/>
<path d="M28.5582 135.163H26.093V130.233M24.8604 120.372H38.4192V135.163M33.4887 135.163H40.8845M45.815 135.163H48.2803V127.767M48.2803 127.767H38.4192M48.2803 127.767L44.5824 121.604H38.4192" stroke="#FDFDFD" stroke-width="1.447" stroke-linecap="round" stroke-linejoin="round"/>
<path d="M26.0938 125.302H31.0243" stroke="#FDFDFD" stroke-width="1.447" stroke-linecap="round" stroke-linejoin="round"/>
</g>
</g>
<g filter="url(#filter3_d_6984_15781)">
<rect x="178.621" y="199.42" width="44.3746" height="44.3746" fill="#477BFF" shape-rendering="crispEdges"/>
<rect x="179.01" y="199.81" width="43.5961" height="43.5961" stroke="url(#paint3_linear_6984_15781)" stroke-opacity="0.2" stroke-width="0.778501" shape-rendering="crispEdges"/>
<g clip-path="url(#clip3_6984_15781)">
<path d="M189.715 232.702V216.678L200.808 211.747L211.902 216.678V232.702" stroke="#FDFDFD" stroke-width="1.447" stroke-linecap="round" stroke-linejoin="round"/>
<path d="M202.04 222.84H206.971V232.701H194.645V225.306H202.04" stroke="#FDFDFD" stroke-width="1.447" stroke-linecap="round" stroke-linejoin="round"/>
<path d="M202.041 232.702V221.608C202.041 221.281 201.911 220.968 201.68 220.737C201.449 220.505 201.135 220.375 200.808 220.375H198.343C198.016 220.375 197.703 220.505 197.471 220.737C197.24 220.968 197.11 221.281 197.11 221.608V225.306" stroke="#FDFDFD" stroke-width="1.447" stroke-linecap="round" stroke-linejoin="round"/>
</g>
</g>
<g filter="url(#filter4_d_6984_15781)">
<rect x="178.621" y="14.2051" width="44.3746" height="44.3746" fill="#2EB182" shape-rendering="crispEdges"/>
<rect x="179.01" y="14.5943" width="43.5961" height="43.5961" stroke="url(#paint4_linear_6984_15781)" stroke-opacity="0.2" stroke-width="0.778501" shape-rendering="crispEdges"/>
<g clip-path="url(#clip4_6984_15781)">
<path d="M192.18 42.5556C192.18 43.2094 192.439 43.8365 192.902 44.2988C193.364 44.7611 193.991 45.0208 194.645 45.0208C195.299 45.0208 195.926 44.7611 196.388 44.2988C196.85 43.8365 197.11 43.2094 197.11 42.5556C197.11 41.9018 196.85 41.2747 196.388 40.8124C195.926 40.3501 195.299 40.0903 194.645 40.0903C193.991 40.0903 193.364 40.3501 192.902 40.8124C192.439 41.2747 192.18 41.9018 192.18 42.5556Z" stroke="#FDFDFD" stroke-width="1.447" stroke-linecap="round" stroke-linejoin="round"/>
<path d="M204.506 42.5556C204.506 43.2094 204.766 43.8365 205.228 44.2988C205.69 44.7611 206.317 45.0208 206.971 45.0208C207.625 45.0208 208.252 44.7611 208.714 44.2988C209.177 43.8365 209.436 43.2094 209.436 42.5556C209.436 41.9018 209.177 41.2747 208.714 40.8124C208.252 40.3501 207.625 40.0903 206.971 40.0903C206.317 40.0903 205.69 40.3501 205.228 40.8124C204.766 41.2747 204.506 41.9018 204.506 42.5556Z" stroke="#FDFDFD" stroke-width="1.447" stroke-linecap="round" stroke-linejoin="round"/>
<path d="M192.179 42.5557H189.714V37.6252M188.481 27.7642H202.04V42.5557M197.11 42.5557H204.506M209.436 42.5557H211.901V35.1599M211.901 35.1599H202.04M211.901 35.1599L208.203 28.9968H202.04" stroke="#FDFDFD" stroke-width="1.447" stroke-linecap="round" stroke-linejoin="round"/>
<path d="M189.715 32.6948H194.645" stroke="#FDFDFD" stroke-width="1.447" stroke-linecap="round" stroke-linejoin="round"/>
</g>
</g>
<g filter="url(#filter5_d_6984_15781)">
<rect x="243.625" y="106.812" width="44.3746" height="44.3746" fill="#A57CFF" shape-rendering="crispEdges"/>
<rect x="244.014" y="107.202" width="43.5961" height="43.5961" stroke="url(#paint5_linear_6984_15781)" stroke-opacity="0.2" stroke-width="0.778501" shape-rendering="crispEdges"/>
<g clip-path="url(#clip5_6984_15781)">
<path d="M254.719 140.094H276.906" stroke="#FDFDFD" stroke-width="1.447" stroke-linecap="round" stroke-linejoin="round"/>
<path d="M254.719 122.837V124.069C254.719 125.05 255.108 125.991 255.802 126.684C256.495 127.378 257.436 127.767 258.417 127.767C259.397 127.767 260.338 127.378 261.031 126.684C261.725 125.991 262.115 125.05 262.115 124.069M254.719 122.837H276.906M254.719 122.837L257.184 117.906H274.441L276.906 122.837M262.115 124.069V122.837M262.115 124.069C262.115 125.05 262.504 125.991 263.198 126.684C263.891 127.378 264.832 127.767 265.812 127.767C266.793 127.767 267.734 127.378 268.427 126.684C269.121 125.991 269.51 125.05 269.51 124.069M269.51 124.069V122.837M269.51 124.069C269.51 125.05 269.9 125.991 270.593 126.684C271.287 127.378 272.227 127.767 273.208 127.767C274.189 127.767 275.129 127.378 275.823 126.684C276.516 125.991 276.906 125.05 276.906 124.069V122.837" stroke="#FDFDFD" stroke-width="1.447" stroke-linecap="round" stroke-linejoin="round"/>
<path d="M257.184 140.093V127.582" stroke="#FDFDFD" stroke-width="1.447" stroke-linecap="round" stroke-linejoin="round"/>
<path d="M274.44 140.093V127.582" stroke="#FDFDFD" stroke-width="1.447" stroke-linecap="round" stroke-linejoin="round"/>
<path d="M262.114 140.094V135.163C262.114 134.509 262.374 133.882 262.836 133.42C263.299 132.957 263.926 132.698 264.58 132.698H267.045C267.699 132.698 268.326 132.957 268.788 133.42C269.25 133.882 269.51 134.509 269.51 135.163V140.094" stroke="#FDFDFD" stroke-width="1.447" stroke-linecap="round" stroke-linejoin="round"/>
</g>
</g>
<g filter="url(#filter6_d_6984_15781)">
<rect x="71.915" y="106.812" width="159.17" height="44.3746" fill="#F0F0EF" shape-rendering="crispEdges"/>
<rect x="72.3289" y="107.226" width="158.342" height="43.5467" stroke="#DAD9D6" stroke-width="0.827819" shape-rendering="crispEdges"/>
<g clip-path="url(#clip6_6984_15781)">
<path d="M109.867 126.02C109.321 125.931 108.948 125.435 109.119 124.933C109.298 124.406 109.542 123.902 109.853 123.432C110.341 122.693 110.978 122.051 111.726 121.545C112.474 121.039 113.318 120.679 114.212 120.484C115.105 120.29 116.03 120.265 116.933 120.413C117.836 120.56 118.701 120.875 119.476 121.341C120.251 121.807 120.923 122.413 121.453 123.129C121.983 123.842 122.36 124.648 122.564 125.501C122.694 126.043 122.751 126.596 122.737 127.149C122.723 127.677 122.199 128.026 121.653 127.938L109.869 126.02H109.867Z" fill="#343331"/>
<path d="M95.4896 137.553C94.9612 137.707 94.396 137.424 94.2892 136.907C94.1046 136.02 94.0561 135.112 94.1474 134.21C94.2697 132.991 94.6427 131.805 95.2448 130.724C95.847 129.642 96.6666 128.684 97.6553 127.904C98.6459 127.125 99.7861 126.538 101.014 126.179C102.241 125.821 103.531 125.696 104.807 125.811C106.085 125.928 107.326 126.283 108.461 126.859C109.595 127.432 110.599 128.216 111.415 129.159C112.019 129.858 112.513 130.635 112.88 131.468C113.095 131.955 112.792 132.491 112.264 132.645L95.4896 137.553Z" fill="#343331"/>
<path d="M116.267 132.085C115.871 132.453 115.995 133.055 116.453 133.351L122.885 137.517C123.343 137.813 123.976 137.702 124.186 137.213C124.303 136.943 124.392 136.664 124.454 136.377C124.584 135.777 124.588 135.158 124.468 134.557C124.347 133.955 124.103 133.383 123.751 132.87C123.398 132.359 122.943 131.917 122.413 131.573C121.882 131.23 121.284 130.988 120.657 130.866C120.027 130.741 119.381 130.737 118.749 130.852C118.118 130.968 117.518 131.2 116.982 131.538C116.725 131.698 116.487 131.881 116.267 132.085Z" fill="#343331"/>
<path fill-rule="evenodd" clip-rule="evenodd" d="M137.942 122.448H131.509V137.049H134.834V132.308H137.942C139.692 132.308 141.079 131.883 142.099 131.034C143.134 130.185 143.653 128.965 143.653 127.378C143.653 125.791 143.134 124.628 142.099 123.764C141.063 122.886 139.677 122.448 137.942 122.448ZM140.284 127.376C140.284 128.894 139.342 129.652 137.462 129.652H134.836V125.098H137.462C138.338 125.098 139.024 125.266 139.519 125.6C140.03 125.934 140.284 126.527 140.284 127.376Z" fill="#343331"/>
<path fill-rule="evenodd" clip-rule="evenodd" d="M144.098 136.441C144.916 137.055 145.964 137.36 147.248 137.36C148.752 137.36 149.946 136.949 150.838 136.128V137.047H153.946V130.949C153.946 129.613 153.48 128.575 152.545 127.837C151.611 127.085 150.197 126.708 148.299 126.708C147.555 126.708 146.811 126.778 146.067 126.918C145.323 127.042 144.717 127.203 144.251 127.399V129.696C145.331 129.237 146.512 129.007 147.796 129.007C148.76 129.007 149.474 129.152 149.941 129.445C150.407 129.737 150.642 130.196 150.642 130.823V131.074C150.205 130.851 149.7 130.677 149.133 130.551C148.563 130.426 147.965 130.362 147.338 130.362C145.922 130.362 144.828 130.675 144.055 131.302C143.282 131.915 142.896 132.778 142.896 133.891C142.896 135.005 143.298 135.813 144.1 136.439L144.098 136.441ZM149.612 134.979C149.175 135.173 148.686 135.271 148.146 135.271C147.548 135.271 147.087 135.152 146.767 134.916C146.446 134.68 146.285 134.339 146.285 133.893C146.285 133.42 146.446 133.065 146.767 132.829C147.103 132.578 147.577 132.453 148.189 132.453C149.078 132.453 149.896 132.689 150.64 133.163V134.165C150.391 134.512 150.049 134.784 149.61 134.98L149.612 134.979Z" fill="#343331"/>
<path d="M155.476 127.021H158.671V128.463C159.094 127.976 159.685 127.606 160.444 127.355C161.169 127.102 161.986 127.027 162.899 127.021H164.432V124.013H167.736V127.021H170.209V129.297H167.736V133.267C167.736 133.852 167.852 134.276 168.086 134.541C168.319 134.792 168.734 135.105 169.333 135.105H169.614V137.36H168.173C166.947 137.36 166.013 137.039 165.372 136.4C164.745 135.745 164.432 134.841 164.432 133.684V129.297H163.02C162.016 129.297 161.128 129.507 160.357 129.799C159.599 130.092 159.073 130.537 158.782 131.136V137.047H155.478V127.021H155.476Z" fill="#343331"/>
<path d="M170.928 137.36H175.317C176.893 137.36 178.097 137.089 178.928 136.545C179.76 135.988 180.175 135.25 180.175 134.331C180.175 133.733 180.067 133.238 179.847 132.848C179.643 132.444 179.286 132.102 178.775 131.825C178.264 131.532 177.549 131.268 176.631 131.03L176.194 130.926C175.333 130.717 174.743 130.543 174.42 130.403C174.113 130.264 173.96 130.062 173.96 129.798C173.96 129.492 174.121 129.282 174.441 129.171C174.778 129.06 175.244 129.003 175.842 129.003C176.483 129.003 177.139 129.086 177.812 129.254C178.497 129.422 179.051 129.637 179.474 129.901V127.499C179.051 127.263 178.447 127.074 177.658 126.934C176.885 126.781 176.133 126.704 175.405 126.704C173.917 126.704 172.736 126.968 171.86 127.499C171 128.014 170.568 128.793 170.568 129.837C170.568 130.451 170.693 130.951 170.941 131.341C171.204 131.732 171.582 132.059 172.08 132.323C172.59 132.574 173.29 132.825 174.179 133.074C174.939 133.284 175.479 133.444 175.799 133.555C176.135 133.653 176.382 133.77 176.543 133.91C176.704 134.035 176.784 134.203 176.784 134.412C176.784 134.676 176.646 134.858 176.368 134.956C176.091 135.054 175.654 135.101 175.055 135.101C174.828 135.101 174.605 135.105 174.377 135.107C173.901 135.112 173.4 135.12 172.781 135.101H170.928V137.357V137.36Z" fill="#343331"/>
<path d="M203.284 137.047C202.41 137.047 201.543 136.971 200.685 136.818C199.84 136.679 199.148 136.484 198.61 136.235V134.318C200.009 134.942 201.516 135.256 203.132 135.256C205.405 135.256 206.539 134.525 206.539 133.066C206.539 132.566 206.415 132.162 206.168 131.857C205.922 131.551 205.564 131.287 205.098 131.064C204.632 130.828 203.874 130.507 202.827 130.105C201.386 129.548 200.345 128.937 199.704 128.27C199.063 127.604 198.742 126.762 198.742 125.747C198.742 124.983 198.96 124.309 199.397 123.726C199.834 123.127 200.446 122.669 201.233 122.35C202.019 122.016 202.922 121.85 203.94 121.85C204.77 121.85 205.519 121.912 206.19 122.036C206.86 122.161 207.514 122.363 208.155 122.64V124.475C206.889 123.933 205.607 123.662 204.311 123.662C203.262 123.662 202.462 123.843 201.909 124.203C201.355 124.564 201.079 125.079 201.079 125.745C201.079 126.204 201.196 126.593 201.429 126.913C201.675 127.219 202.033 127.497 202.499 127.748C202.979 127.984 203.686 128.284 204.618 128.644C205.652 129.048 206.467 129.429 207.064 129.792C207.66 130.152 208.113 130.598 208.417 131.126C208.738 131.639 208.897 132.287 208.897 133.064C208.897 134.329 208.423 135.309 207.477 136.003C206.531 136.698 205.133 137.045 203.284 137.045V137.047Z" fill="#343331"/>
<path d="M189.811 137.047C188.296 137.047 186.929 136.734 185.705 136.109C184.481 135.469 183.52 134.573 182.822 133.42C182.123 132.267 181.773 130.945 181.773 129.458C181.773 127.971 182.123 126.65 182.822 125.496C183.522 124.343 184.483 123.447 185.705 122.807C186.929 122.167 188.298 121.848 189.811 121.848C191.324 121.848 192.694 122.167 193.917 122.807C195.141 123.447 196.1 124.343 196.8 125.496C197.499 126.65 197.849 127.971 197.849 129.458C197.849 130.945 197.499 132.267 196.8 133.42C196.1 134.573 195.139 135.469 193.917 136.109C192.694 136.734 191.326 137.047 189.811 137.047ZM189.811 135.13C190.889 135.13 191.864 134.901 192.738 134.441C193.626 133.969 194.325 133.308 194.836 132.461C195.345 131.598 195.601 130.598 195.601 129.458C195.601 128.318 195.347 127.346 194.836 126.497C194.341 125.634 193.657 124.976 192.783 124.517C191.909 124.045 190.934 123.807 189.856 123.807C188.778 123.807 187.773 124.038 186.886 124.496C186.012 124.955 185.312 125.615 184.788 126.476C184.279 127.339 184.025 128.331 184.025 129.458C184.025 130.585 184.279 131.598 184.788 132.461C185.297 133.308 185.988 133.969 186.862 134.441C187.75 134.899 188.733 135.13 189.811 135.13Z" fill="#343331"/>
</g>
</g>
<defs>
<filter id="filter0_d_6984_15781" x="64.7908" y="1.66444" width="73.3149" height="73.3144" filterUnits="userSpaceOnUse" color-interpolation-filters="sRGB">
<feFlood flood-opacity="0" result="BackgroundImageFix"/>
<feColorMatrix in="SourceAlpha" type="matrix" values="0 0 0 0 0 0 0 0 0 0 0 0 0 0 0 0 0 0 127 0" result="hardAlpha"/>
<feOffset dy="1.92933"/>
<feGaussianBlur stdDeviation="7.23498"/>
<feComposite in2="hardAlpha" operator="out"/>
<feColorMatrix type="matrix" values="0 0 0 0 0 0 0 0 0 0 0 0 0 0 0 0 0 0 0.15 0"/>
<feBlend mode="normal" in2="BackgroundImageFix" result="effect1_dropShadow_6984_15781"/>
<feBlend mode="normal" in="SourceGraphic" in2="effect1_dropShadow_6984_15781" result="shape"/>
</filter>
<filter id="filter1_d_6984_15781" x="64.7908" y="186.88" width="73.3149" height="73.3144" filterUnits="userSpaceOnUse" color-interpolation-filters="sRGB">
<feFlood flood-opacity="0" result="BackgroundImageFix"/>
<feColorMatrix in="SourceAlpha" type="matrix" values="0 0 0 0 0 0 0 0 0 0 0 0 0 0 0 0 0 0 127 0" result="hardAlpha"/>
<feOffset dy="1.92933"/>
<feGaussianBlur stdDeviation="7.23498"/>
<feComposite in2="hardAlpha" operator="out"/>
<feColorMatrix type="matrix" values="0 0 0 0 0 0 0 0 0 0 0 0 0 0 0 0 0 0 0.15 0"/>
<feBlend mode="normal" in2="BackgroundImageFix" result="effect1_dropShadow_6984_15781"/>
<feBlend mode="normal" in="SourceGraphic" in2="effect1_dropShadow_6984_15781" result="shape"/>
</filter>
<filter id="filter2_d_6984_15781" x="0.530036" y="94.2719" width="73.3149" height="73.3144" filterUnits="userSpaceOnUse" color-interpolation-filters="sRGB">
<feFlood flood-opacity="0" result="BackgroundImageFix"/>
<feColorMatrix in="SourceAlpha" type="matrix" values="0 0 0 0 0 0 0 0 0 0 0 0 0 0 0 0 0 0 127 0" result="hardAlpha"/>
<feOffset dy="1.92933"/>
<feGaussianBlur stdDeviation="7.23498"/>
<feComposite in2="hardAlpha" operator="out"/>
<feColorMatrix type="matrix" values="0 0 0 0 0 0 0 0 0 0 0 0 0 0 0 0 0 0 0.15 0"/>
<feBlend mode="normal" in2="BackgroundImageFix" result="effect1_dropShadow_6984_15781"/>
<feBlend mode="normal" in="SourceGraphic" in2="effect1_dropShadow_6984_15781" result="shape"/>
</filter>
<filter id="filter3_d_6984_15781" x="164.151" y="186.88" width="73.3149" height="73.3144" filterUnits="userSpaceOnUse" color-interpolation-filters="sRGB">
<feFlood flood-opacity="0" result="BackgroundImageFix"/>
<feColorMatrix in="SourceAlpha" type="matrix" values="0 0 0 0 0 0 0 0 0 0 0 0 0 0 0 0 0 0 127 0" result="hardAlpha"/>
<feOffset dy="1.92933"/>
<feGaussianBlur stdDeviation="7.23498"/>
<feComposite in2="hardAlpha" operator="out"/>
<feColorMatrix type="matrix" values="0 0 0 0 0 0 0 0 0 0 0 0 0 0 0 0 0 0 0.15 0"/>
<feBlend mode="normal" in2="BackgroundImageFix" result="effect1_dropShadow_6984_15781"/>
<feBlend mode="normal" in="SourceGraphic" in2="effect1_dropShadow_6984_15781" result="shape"/>
</filter>
<filter id="filter4_d_6984_15781" x="164.151" y="1.66444" width="73.3149" height="73.3144" filterUnits="userSpaceOnUse" color-interpolation-filters="sRGB">
<feFlood flood-opacity="0" result="BackgroundImageFix"/>
<feColorMatrix in="SourceAlpha" type="matrix" values="0 0 0 0 0 0 0 0 0 0 0 0 0 0 0 0 0 0 127 0" result="hardAlpha"/>
<feOffset dy="1.92933"/>
<feGaussianBlur stdDeviation="7.23498"/>
<feComposite in2="hardAlpha" operator="out"/>
<feColorMatrix type="matrix" values="0 0 0 0 0 0 0 0 0 0 0 0 0 0 0 0 0 0 0.15 0"/>
<feBlend mode="normal" in2="BackgroundImageFix" result="effect1_dropShadow_6984_15781"/>
<feBlend mode="normal" in="SourceGraphic" in2="effect1_dropShadow_6984_15781" result="shape"/>
</filter>
<filter id="filter5_d_6984_15781" x="229.155" y="94.2719" width="73.3149" height="73.3144" filterUnits="userSpaceOnUse" color-interpolation-filters="sRGB">
<feFlood flood-opacity="0" result="BackgroundImageFix"/>
<feColorMatrix in="SourceAlpha" type="matrix" values="0 0 0 0 0 0 0 0 0 0 0 0 0 0 0 0 0 0 127 0" result="hardAlpha"/>
<feOffset dy="1.92933"/>
<feGaussianBlur stdDeviation="7.23498"/>
<feComposite in2="hardAlpha" operator="out"/>
<feColorMatrix type="matrix" values="0 0 0 0 0 0 0 0 0 0 0 0 0 0 0 0 0 0 0.15 0"/>
<feBlend mode="normal" in2="BackgroundImageFix" result="effect1_dropShadow_6984_15781"/>
<feBlend mode="normal" in="SourceGraphic" in2="effect1_dropShadow_6984_15781" result="shape"/>
</filter>
<filter id="filter6_d_6984_15781" x="47.0805" y="85.2892" width="208.839" height="94.0436" filterUnits="userSpaceOnUse" color-interpolation-filters="sRGB">
<feFlood flood-opacity="0" result="BackgroundImageFix"/>
<feColorMatrix in="SourceAlpha" type="matrix" values="0 0 0 0 0 0 0 0 0 0 0 0 0 0 0 0 0 0 127 0" result="hardAlpha"/>
<feOffset dy="3.31128"/>
<feGaussianBlur stdDeviation="12.4173"/>
<feComposite in2="hardAlpha" operator="out"/>
<feColorMatrix type="matrix" values="0 0 0 0 0 0 0 0 0 0 0 0 0 0 0 0 0 0 0.1 0"/>
<feBlend mode="normal" in2="BackgroundImageFix" result="effect1_dropShadow_6984_15781"/>
<feBlend mode="normal" in="SourceGraphic" in2="effect1_dropShadow_6984_15781" result="shape"/>
</filter>
<linearGradient id="paint0_linear_6984_15781" x1="125.157" y1="61.0714" x2="73.3253" y2="32.1366" gradientUnits="userSpaceOnUse">
<stop stop-color="white" stop-opacity="0.2"/>
<stop offset="0.506386" stop-color="white"/>
<stop offset="1" stop-color="white" stop-opacity="0.2"/>
</linearGradient>
<linearGradient id="paint1_linear_6984_15781" x1="125.157" y1="246.287" x2="73.3253" y2="217.352" gradientUnits="userSpaceOnUse">
<stop stop-color="white" stop-opacity="0.2"/>
<stop offset="0.506386" stop-color="white"/>
<stop offset="1" stop-color="white" stop-opacity="0.2"/>
</linearGradient>
<linearGradient id="paint2_linear_6984_15781" x1="60.8964" y1="153.679" x2="9.06455" y2="124.744" gradientUnits="userSpaceOnUse">
<stop stop-color="white" stop-opacity="0.2"/>
<stop offset="0.506386" stop-color="white"/>
<stop offset="1" stop-color="white" stop-opacity="0.2"/>
</linearGradient>
<linearGradient id="paint3_linear_6984_15781" x1="224.518" y1="246.287" x2="172.686" y2="217.352" gradientUnits="userSpaceOnUse">
<stop stop-color="white" stop-opacity="0.2"/>
<stop offset="0.506386" stop-color="white"/>
<stop offset="1" stop-color="white" stop-opacity="0.2"/>
</linearGradient>
<linearGradient id="paint4_linear_6984_15781" x1="224.518" y1="61.0714" x2="172.686" y2="32.1366" gradientUnits="userSpaceOnUse">
<stop stop-color="white" stop-opacity="0.2"/>
<stop offset="0.506386" stop-color="white"/>
<stop offset="1" stop-color="white" stop-opacity="0.2"/>
</linearGradient>
<linearGradient id="paint5_linear_6984_15781" x1="289.521" y1="153.679" x2="237.69" y2="124.744" gradientUnits="userSpaceOnUse">
<stop stop-color="white" stop-opacity="0.2"/>
<stop offset="0.506386" stop-color="white"/>
<stop offset="1" stop-color="white" stop-opacity="0.2"/>
</linearGradient>
<clipPath id="clip0_6984_15781">
<rect width="29.583" height="29.583" fill="white" transform="translate(86.6562 21.6011)"/>
</clipPath>
<clipPath id="clip1_6984_15781">
<rect width="29.583" height="29.583" fill="white" transform="translate(86.6562 206.816)"/>
</clipPath>
<clipPath id="clip2_6984_15781">
<rect width="29.583" height="29.583" fill="white" transform="translate(22.3955 114.208)"/>
</clipPath>
<clipPath id="clip3_6984_15781">
<rect width="29.583" height="29.583" fill="white" transform="translate(186.017 206.816)"/>
</clipPath>
<clipPath id="clip4_6984_15781">
<rect width="29.583" height="29.583" fill="white" transform="translate(186.017 21.6011)"/>
</clipPath>
<clipPath id="clip5_6984_15781">
<rect width="29.583" height="29.583" fill="white" transform="translate(251.021 114.208)"/>
</clipPath>
<clipPath id="clip6_6984_15781">
<rect width="114.795" height="17.364" fill="white" transform="translate(94.1025 120.318)"/>
</clipPath>
</defs>
</svg>
