<svg width="32" height="32" viewBox="0 0 32 32" fill="none" xmlns="http://www.w3.org/2000/svg">
<rect y="0.21875" width="31.5609" height="31.5609" rx="5.53699" fill="#A57CFF"/>
<rect x="0.27685" y="0.4956" width="31.0072" height="31.0072" rx="5.26014" stroke="url(#paint0_linear_6727_37670)" stroke-opacity="0.2" stroke-width="0.553699"/>
<g clip-path="url(#clip0_6727_37670)">
<path d="M22.0316 16.4771L15.7816 22.6671L9.53158 16.4771C9.11934 16.0759 8.79462 15.5937 8.57787 15.0609C8.36113 14.5281 8.25705 13.9562 8.2722 13.3812C8.28734 12.8062 8.42138 12.2405 8.66588 11.7198C8.91038 11.1992 9.26003 10.7348 9.69282 10.3559C10.1256 9.97698 10.6322 9.6918 11.1806 9.51829C11.729 9.34479 12.3074 9.28671 12.8794 9.34773C13.4514 9.40874 14.0045 9.58752 14.504 9.87281C15.0035 10.1581 15.4385 10.5437 15.7816 11.0054C16.1262 10.5471 16.5617 10.1648 17.0608 9.88256C17.56 9.6003 18.112 9.4241 18.6824 9.36499C19.2527 9.30588 19.8291 9.36514 20.3756 9.53905C20.922 9.71296 21.4266 9.99779 21.8579 10.3757C22.2891 10.7536 22.6378 11.2165 22.8819 11.7353C23.1261 12.2541 23.2605 12.8178 23.2768 13.391C23.2931 13.9642 23.191 14.5346 22.9767 15.0664C22.7624 15.5983 22.4407 16.0802 22.0316 16.4821" stroke="#FDFDFD" stroke-linecap="round" stroke-linejoin="round"/>
</g>
<defs>
<linearGradient id="paint0_linear_6727_37670" x1="32.6433" y1="33.5519" x2="-4.22152" y2="12.9723" gradientUnits="userSpaceOnUse">
<stop stop-color="#6D6D6D" stop-opacity="0.2"/>
<stop offset="0.5" stop-color="#6D6D6D"/>
<stop offset="1" stop-color="#6D6D6D" stop-opacity="0.2"/>
</linearGradient>
<clipPath id="clip0_6727_37670">
<rect width="20" height="20" fill="white" transform="translate(5.78052 6)"/>
</clipPath>
</defs>
</svg>
