<svg width="266" height="36" viewBox="0 0 266 36" fill="none" xmlns="http://www.w3.org/2000/svg">
<path d="M19.3509 12.8873C18.6818 12.7752 18.2233 12.1471 18.4319 11.5123C18.6503 10.8473 18.9527 10.2101 19.333 9.61595C19.932 8.6801 20.7127 7.86936 21.6306 7.23003C22.5485 6.5907 23.5855 6.1353 24.6824 5.88982C25.7794 5.64435 26.9148 5.61361 28.0238 5.79936C29.1329 5.98511 30.1938 6.38371 31.1461 6.9724C32.0984 7.5611 32.9234 8.32836 33.574 9.23038C34.2245 10.1324 34.6879 11.1515 34.9377 12.2295C35.0963 12.9139 35.1668 13.6136 35.1488 14.3121C35.1316 14.979 34.4873 15.4224 33.8182 15.3103L19.3509 12.8873Z" fill="#302F4A"/>
<path d="M1.70175 27.4634C1.05275 27.6588 0.358756 27.3008 0.227268 26.6463C0.00240793 25.5272 -0.0564248 24.3797 0.0544738 23.2399C0.204448 21.6984 0.661902 20.2011 1.40071 18.8333C2.13953 17.4656 3.14523 16.2543 4.36041 15.2685C5.57558 14.2828 6.97643 13.5419 8.48297 13.0882C9.9895 12.6344 11.5722 12.4768 13.1408 12.6241C14.7093 12.7715 16.2329 13.2211 17.6247 13.9471C19.0164 14.6732 20.249 15.6616 21.2521 16.8558C21.9938 17.7388 22.5993 18.7216 23.0512 19.7724C23.3154 20.3869 22.9447 21.0656 22.2957 21.2611L1.70175 27.4634Z" fill="#302F4A"/>
<path d="M27.2089 20.5542C26.7214 21.0184 26.8751 21.7811 27.4368 22.1556L35.3314 27.4203C35.893 27.7948 36.671 27.6534 36.9299 27.0368C37.0729 26.6961 37.1835 26.3422 37.2596 25.9795C37.4188 25.2212 37.4245 24.4396 37.2764 23.6791C37.1282 22.9187 36.8291 22.1944 36.3961 21.5476C35.9631 20.9008 35.4047 20.3441 34.7527 19.9093C34.1008 19.4746 33.3681 19.1703 32.5965 19.0138C31.825 18.8573 31.0296 18.8518 30.2558 18.9974C29.482 19.143 28.745 19.4369 28.0868 19.8625C27.772 20.066 27.4782 20.2977 27.2089 20.5542Z" fill="#302F4A"/>
<path fill-rule="evenodd" clip-rule="evenodd" d="M53.8165 8.37179H45.9189V26.8247H50.002V20.8322H53.8165C55.9656 20.8322 57.6669 20.2954 58.9205 19.2218C60.192 18.1482 60.8277 16.6083 60.8277 14.602C60.8277 12.6484 60.192 11.1261 58.9205 10.0349C57.649 8.92617 55.9476 8.37179 53.8165 8.37179ZM56.6909 14.602C56.6909 16.5203 55.5357 17.4795 53.2255 17.4795H50.002V11.7245H53.2255C54.3001 11.7245 55.1418 11.9357 55.7506 12.3581C56.3774 12.7804 56.6909 13.5284 56.6909 14.602Z" fill="#302F4A"/>
<path fill-rule="evenodd" clip-rule="evenodd" d="M61.3734 26.0592C62.3762 26.8335 63.6657 27.2207 65.2416 27.2207C67.0862 27.2207 68.5547 26.7015 69.6471 25.6632V26.8247H73.4616V19.1162C73.4616 17.4267 72.8886 16.1155 71.7424 15.1828C70.5963 14.2324 68.8591 13.7572 66.531 13.7572C65.6177 13.7572 64.7044 13.8452 63.791 14.0212C62.8777 14.1796 62.1345 14.382 61.5614 14.6284V17.5323C62.8866 16.9515 64.3372 16.6611 65.9132 16.6611C67.0951 16.6611 67.9727 16.8459 68.5457 17.2155C69.1188 17.5851 69.4053 18.1658 69.4053 18.9578V19.2746C68.8681 18.993 68.2503 18.773 67.5518 18.6146C66.8534 18.4562 66.1191 18.377 65.3491 18.377C63.6119 18.377 62.2688 18.773 61.3196 19.565C60.3705 20.3394 59.8959 21.4305 59.8959 22.8385C59.8959 24.1936 60.3884 25.2672 61.3734 26.0592ZM68.1428 24.2112C67.6055 24.4576 67.0056 24.5808 66.343 24.5808C65.6087 24.5808 65.0446 24.4312 64.6506 24.132C64.2566 23.8329 64.0596 23.4017 64.0596 22.8385C64.0596 22.2401 64.2566 21.7913 64.6506 21.4921C65.0625 21.1753 65.6446 21.0169 66.3967 21.0169C67.4891 21.0169 68.492 21.3161 69.4053 21.9145V23.1817C69.1009 23.6217 68.6801 23.9648 68.1428 24.2112Z" fill="#302F4A"/>
<path d="M75.341 14.1532H79.2629V15.9747C79.7823 15.3587 80.5076 14.8924 81.4388 14.5756C82.3288 14.256 83.3333 14.1615 84.4523 14.1537L86.3327 14.1532V10.3517H90.389V14.1532H93.4245V17.0307H90.389V22.0465C90.389 22.7857 90.5322 23.3225 90.8188 23.6569C91.1053 23.9736 91.6157 24.3696 92.35 24.3696H92.6959V27.2207L90.9262 27.2207C89.4219 27.2207 88.2758 26.8159 87.4878 26.0064C86.7177 25.1792 86.3327 24.0352 86.3327 22.5745V17.0307H84.5996C83.3676 17.032 82.2782 17.2956 81.3314 17.6643C80.4001 18.0339 79.7554 18.597 79.3973 19.3538V26.8247H75.341V14.1532Z" fill="#302F4A"/>
<path d="M94.3077 27.2207L99.6975 27.2207C101.632 27.2207 103.109 26.8775 104.13 26.1912C105.151 25.4872 105.661 24.5544 105.661 23.3929C105.661 22.6361 105.527 22.0113 105.258 21.5185C105.007 21.0082 104.569 20.577 103.942 20.225C103.315 19.8554 102.437 19.521 101.309 19.2218L100.772 19.0898C99.7154 18.8258 98.9901 18.6058 98.5961 18.4298C98.22 18.2538 98.032 17.9987 98.032 17.6643C98.032 17.2771 98.229 17.0131 98.623 16.8723C99.0349 16.7315 99.6079 16.6611 100.342 16.6611C101.13 16.6611 101.936 16.7667 102.76 16.9779C103.602 17.1891 104.282 17.4619 104.801 17.7963V14.7604C104.282 14.4612 103.539 14.2236 102.572 14.0476C101.623 13.854 100.7 13.7572 99.8049 13.7572C97.9783 13.7572 96.5277 14.0916 95.4532 14.7604C94.3966 15.4115 93.8683 16.3971 93.8683 17.7171C93.8683 18.4914 94.0205 19.125 94.3249 19.6178C94.6473 20.1106 95.1129 20.5242 95.7218 20.8586C96.3486 21.1753 97.2082 21.4921 98.3006 21.8089C99.2319 22.0729 99.8945 22.2753 100.288 22.4161C100.7 22.5393 101.005 22.6889 101.202 22.8649C101.399 23.0233 101.497 23.2345 101.497 23.4985C101.497 23.8329 101.327 24.0616 100.987 24.1848C100.647 24.308 100.109 24.3696 99.3751 24.3696C99.0962 24.3696 98.8229 24.3733 98.5425 24.3771C97.9588 24.3851 97.344 24.3934 96.5814 24.3696H94.3077V27.2207Z" fill="#302F4A"/>
<path d="M134.029 26.8258C132.956 26.8258 131.892 26.7292 130.838 26.5359C129.801 26.3603 128.952 26.1143 128.291 25.7981V23.3739C130.007 24.1644 131.857 24.5597 133.841 24.5597C136.629 24.5597 138.024 23.6374 138.024 21.7929C138.024 21.1605 137.872 20.651 137.568 20.2646C137.264 19.8781 136.826 19.5443 136.254 19.2633C135.682 18.9646 134.753 18.5606 133.466 18.0511C131.696 17.3485 130.418 16.5755 129.631 15.7323C128.845 14.8891 128.451 13.8263 128.451 12.5439C128.451 11.5777 128.72 10.7258 129.256 9.98795C129.792 9.23257 130.543 8.65287 131.508 8.24883C132.473 7.82722 133.582 7.61642 134.833 7.61642C135.852 7.61642 136.772 7.69547 137.595 7.85357C138.417 8.01168 139.221 8.26639 140.008 8.61773V10.9366C138.453 10.2515 136.88 9.9089 135.289 9.9089C134.002 9.9089 133.019 10.1373 132.339 10.594C131.66 11.0507 131.32 11.7007 131.32 12.5439C131.32 13.1236 131.463 13.6155 131.749 14.0195C132.053 14.406 132.491 14.7574 133.063 15.0736C133.653 15.3722 134.52 15.7499 135.664 16.2066C136.933 16.7161 137.934 17.1991 138.667 17.6559C139.4 18.1126 139.954 18.6748 140.33 19.3423C140.723 19.9923 140.92 20.8091 140.92 21.7929C140.92 23.3915 140.339 24.6299 139.177 25.5083C138.015 26.3866 136.299 26.8258 134.029 26.8258Z" fill="#302F4A"/>
<path d="M117.491 26.8258C115.632 26.8258 113.951 26.4305 112.45 25.64C110.948 24.8319 109.769 23.6989 108.911 22.2408C108.053 20.7828 107.623 19.1139 107.623 17.2343C107.623 15.3546 108.053 13.6858 108.911 12.2277C109.769 10.7697 110.948 9.63661 112.45 8.82853C113.951 8.02046 115.632 7.61642 117.491 7.61642C119.35 7.61642 121.03 8.02046 122.532 8.82853C124.033 9.63661 125.213 10.7697 126.071 12.2277C126.929 13.6858 127.358 15.3546 127.358 17.2343C127.358 19.1139 126.929 20.7828 126.071 22.2408C125.213 23.6989 124.033 24.8319 122.532 25.64C121.03 26.4305 119.35 26.8258 117.491 26.8258ZM117.491 24.4016C118.814 24.4016 120.011 24.1117 121.084 23.532C122.174 22.9347 123.032 22.1003 123.658 21.0287C124.283 19.9396 124.596 18.6748 124.596 17.2343C124.596 15.8114 124.283 14.5641 123.658 13.4925C123.05 12.4034 122.21 11.569 121.137 10.9893C120.065 10.392 118.867 10.0933 117.544 10.0933C116.204 10.0933 114.988 10.3832 113.898 10.9629C112.825 11.5426 111.967 12.377 111.324 13.4662C110.698 14.5553 110.385 15.8114 110.385 17.2343C110.385 18.6748 110.698 19.9396 111.324 21.0287C111.949 22.1003 112.798 22.9347 113.871 23.532C114.961 24.1117 116.168 24.4016 117.491 24.4016Z" fill="#302F4A"/>
<path d="M148.231 8.4298H160.478V10.7145H150.941V16.6389H158.06V18.7909H150.941V27H148.231V8.4298ZM164.352 27.3985C162.634 27.3985 161.332 26.938 160.447 26.017C159.579 25.096 159.145 23.8651 159.145 22.3242V14.2479H161.828V22.218C161.828 24.2548 162.847 25.2732 164.883 25.2732C166.672 25.2732 168.071 24.4673 169.081 22.8556V14.2479H171.764V27H169.161V25.1935C168.558 25.955 167.841 26.5129 167.009 26.8672C166.194 27.2214 165.308 27.3985 164.352 27.3985ZM173.879 7.36713H176.562V27H173.879V7.36713ZM179.576 16.3201H177.637V14.2479H179.576V11.8304C179.576 10.3603 180.046 9.2268 180.984 8.4298C181.923 7.6328 183.092 7.2343 184.491 7.2343C185.2 7.2343 185.89 7.34056 186.563 7.5531V9.73157C186.067 9.53675 185.554 9.43934 185.022 9.43934C184.119 9.43934 183.428 9.66073 182.95 10.1035C182.49 10.5286 182.26 11.1573 182.26 11.9898V14.2479H190.867V27H188.184V16.3201H182.26V27H179.576V16.3201ZM189.512 11.7507C189.052 11.7507 188.671 11.6001 188.37 11.299C188.069 10.9979 187.918 10.626 187.918 10.1832C187.918 9.74043 188.069 9.36849 188.37 9.06741C188.689 8.76631 189.069 8.61577 189.512 8.61577C189.955 8.61577 190.327 8.76631 190.628 9.06741C190.947 9.36849 191.106 9.74043 191.106 10.1832C191.106 10.626 190.947 10.9979 190.628 11.299C190.327 11.6001 189.955 11.7507 189.512 11.7507ZM193.223 7.36713H195.906V27H193.223V7.36713ZM198.044 7.36713H200.727V27H198.044V7.36713ZM202.864 14.2479H205.414V16.081C206.017 15.3372 206.698 14.7793 207.46 14.4073C208.222 14.0354 209.01 13.8494 209.824 13.8494C210.852 13.8494 211.666 14.0265 212.269 14.3808C212.871 14.7173 213.314 15.2398 213.597 15.9482C214.164 15.2575 214.854 14.735 215.669 14.3808C216.502 14.0265 217.334 13.8494 218.166 13.8494C219.725 13.8494 220.85 14.2479 221.54 15.0449C222.231 15.8242 222.577 16.9843 222.577 18.5252V27H219.973V18.8706C219.973 17.8256 219.778 17.0906 219.388 16.6655C218.999 16.2227 218.335 16.0013 217.396 16.0013C216.05 16.0013 214.952 16.5858 214.102 17.7548C214.137 18.0204 214.155 18.4543 214.155 19.0565V27H211.551V18.8706C211.551 17.8256 211.374 17.0906 211.02 16.6655C210.666 16.2227 210.028 16.0013 209.107 16.0013C207.761 16.0013 206.557 16.7629 205.494 18.2861V27H202.864V14.2479ZM231.588 27.3985C229.232 27.3985 227.381 26.814 226.035 25.6451C224.707 24.4584 224.043 22.7936 224.043 20.6505C224.043 18.5606 224.636 16.9046 225.823 15.6825C227.027 14.4605 228.736 13.8494 230.95 13.8494C232.42 13.8494 233.669 14.1328 234.696 14.6996C235.723 15.2486 236.494 16.0191 237.007 17.0109C237.539 17.985 237.804 19.1008 237.804 20.3583V21.6866H226.593C226.682 22.891 227.186 23.7943 228.107 24.3965C229.046 24.9809 230.312 25.2732 231.906 25.2732C232.721 25.2732 233.545 25.2023 234.377 25.0606C235.21 24.9012 235.945 24.6975 236.582 24.4496V26.6015C236.015 26.8317 235.263 27.0177 234.324 27.1594C233.403 27.3188 232.491 27.3985 231.588 27.3985ZM235.28 19.8004C235.245 18.596 234.846 17.6662 234.085 17.0109C233.341 16.3379 232.278 16.0013 230.897 16.0013C229.551 16.0013 228.506 16.3467 227.762 17.0374C227.018 17.7282 226.628 18.6492 226.593 19.8004H235.28ZM239.409 14.2479H242.012V16.081C242.615 15.3195 243.35 14.7616 244.217 14.4073C245.103 14.0354 246.024 13.8494 246.98 13.8494C248.681 13.8494 249.947 14.3011 250.779 15.2043C251.612 16.1076 252.028 17.3208 252.028 18.844V27H249.345V19.1097C249.345 17.0374 248.353 16.0013 246.369 16.0013C245.519 16.0013 244.722 16.205 243.978 16.6124C243.252 17.002 242.623 17.6042 242.092 18.4189V27H239.409V14.2479ZM258.925 27.3985C257.632 27.3985 256.631 27.0266 255.923 26.2827C255.232 25.5388 254.887 24.485 254.887 23.1212V16.3201H252.948V14.2479H254.887V10.4223H257.597V14.2479H260.732V16.3201H257.597V22.9353C257.597 23.7854 257.756 24.3876 258.075 24.7418C258.411 25.096 259.014 25.2732 259.881 25.2732C260.395 25.2732 260.909 25.158 261.422 24.9278V27.0531C260.749 27.2834 259.917 27.3985 258.925 27.3985Z" fill="#4BCB9D"/>
</svg>
