<svg width="266" height="36" viewBox="0 0 266 36" fill="none" xmlns="http://www.w3.org/2000/svg">
<path d="M19.3509 12.8873C18.6818 12.7752 18.2233 12.1471 18.4319 11.5123C18.6503 10.8473 18.9527 10.2101 19.333 9.61595C19.932 8.6801 20.7127 7.86936 21.6306 7.23003C22.5485 6.5907 23.5855 6.1353 24.6824 5.88982C25.7794 5.64435 26.9148 5.61361 28.0238 5.79936C29.1329 5.98511 30.1938 6.38371 31.1461 6.9724C32.0984 7.5611 32.9234 8.32836 33.5739 9.23038C34.2245 10.1324 34.6879 11.1515 34.9377 12.2295C35.0963 12.9139 35.1668 13.6136 35.1488 14.3121C35.1316 14.979 34.4873 15.4224 33.8182 15.3103L19.3509 12.8873Z" fill="#302F4A"/>
<path d="M1.70175 27.4634C1.05275 27.6588 0.358755 27.3008 0.227268 26.6463C0.00240793 25.5272 -0.0564248 24.3797 0.0544738 23.2399C0.204448 21.6984 0.661901 20.2011 1.40071 18.8333C2.13953 17.4656 3.14523 16.2543 4.36041 15.2685C5.57558 14.2828 6.97643 13.5419 8.48296 13.0881C9.9895 12.6344 11.5722 12.4768 13.1408 12.6241C14.7093 12.7715 16.2329 13.2211 17.6247 13.9471C19.0164 14.6732 20.249 15.6616 21.2521 16.8557C21.9938 17.7388 22.5993 18.7216 23.0512 19.7724C23.3154 20.3869 22.9447 21.0656 22.2957 21.2611L1.70175 27.4634Z" fill="#302F4A"/>
<path d="M27.2089 20.5542C26.7214 21.0184 26.8751 21.7811 27.4368 22.1556L35.3313 27.4203C35.893 27.7948 36.6709 27.6534 36.9299 27.0368C37.0729 26.6961 37.1835 26.3422 37.2596 25.9795C37.4188 25.2212 37.4245 24.4396 37.2764 23.6791C37.1282 22.9187 36.8291 22.1944 36.3961 21.5476C35.963 20.9008 35.4046 20.3441 34.7527 19.9093C34.1008 19.4746 33.3681 19.1703 32.5965 19.0138C31.8249 18.8573 31.0295 18.8517 30.2558 18.9974C29.482 19.143 28.7449 19.4369 28.0868 19.8625C27.772 20.066 27.4782 20.2977 27.2089 20.5542Z" fill="#302F4A"/>
<path fill-rule="evenodd" clip-rule="evenodd" d="M53.8165 8.37179H45.9188V26.8247H50.002V20.8322H53.8165C55.9655 20.8322 57.6668 20.2954 58.9204 19.2218C60.1919 18.1482 60.8277 16.6083 60.8277 14.602C60.8277 12.6484 60.1919 11.1261 58.9204 10.0349C57.6489 8.92617 55.9476 8.37179 53.8165 8.37179ZM56.6908 14.602C56.6908 16.5203 55.5357 17.4795 53.2255 17.4795H50.002V11.7245H53.2255C54.3 11.7245 55.1417 11.9357 55.7506 12.3581C56.3774 12.7804 56.6908 13.5284 56.6908 14.602Z" fill="#302F4A"/>
<path fill-rule="evenodd" clip-rule="evenodd" d="M61.3733 26.0592C62.3762 26.8335 63.6656 27.2207 65.2416 27.2207C67.0862 27.2207 68.5547 26.7015 69.6471 25.6632V26.8247H73.4616V19.1162C73.4616 17.4267 72.8885 16.1155 71.7424 15.1828C70.5962 14.2324 68.8591 13.7572 66.531 13.7572C65.6177 13.7572 64.7043 13.8452 63.791 14.0212C62.8777 14.1796 62.1345 14.382 61.5614 14.6284V17.5323C62.8866 16.9515 64.3372 16.6611 65.9132 16.6611C67.0951 16.6611 67.9726 16.8459 68.5457 17.2155C69.1188 17.5851 69.4053 18.1658 69.4053 18.9578V19.2746C68.8681 18.993 68.2502 18.773 67.5518 18.6146C66.8534 18.4562 66.1191 18.377 65.349 18.377C63.6119 18.377 62.2688 18.773 61.3196 19.565C60.3705 20.3394 59.8959 21.4305 59.8959 22.8385C59.8959 24.1936 60.3884 25.2672 61.3733 26.0592ZM68.1428 24.2112C67.6055 24.4576 67.0056 24.5808 66.343 24.5808C65.6087 24.5808 65.0446 24.4312 64.6506 24.132C64.2566 23.8328 64.0596 23.4017 64.0596 22.8385C64.0596 22.2401 64.2566 21.7913 64.6506 21.4921C65.0625 21.1753 65.6445 21.0169 66.3967 21.0169C67.4891 21.0169 68.492 21.3161 69.4053 21.9145V23.1817C69.1009 23.6217 68.68 23.9648 68.1428 24.2112Z" fill="#302F4A"/>
<path d="M75.341 14.1532H79.2629V15.9747C79.7823 15.3587 80.5076 14.8924 81.4388 14.5756C82.3288 14.256 83.3333 14.1615 84.4523 14.1537L86.3327 14.1532V10.3517H90.3889V14.1532H93.4244V17.0307H90.3889V22.0465C90.3889 22.7857 90.5322 23.3225 90.8187 23.6569C91.1053 23.9736 91.6157 24.3696 92.3499 24.3696H92.6959V27.2207L90.9262 27.2207C89.4219 27.2207 88.2757 26.8159 87.4878 26.0064C86.7177 25.1792 86.3327 24.0352 86.3327 22.5745V17.0307H84.5996C83.3676 17.032 82.2782 17.2956 81.3314 17.6643C80.4001 18.0339 79.7554 18.597 79.3972 19.3538V26.8247H75.341V14.1532Z" fill="#302F4A"/>
<path d="M94.3077 27.2207L99.6975 27.2207C101.632 27.2207 103.109 26.8775 104.13 26.1912C105.151 25.4872 105.661 24.5544 105.661 23.3929C105.661 22.6361 105.527 22.0113 105.258 21.5185C105.007 21.0081 104.569 20.577 103.942 20.225C103.315 19.8554 102.437 19.521 101.309 19.2218L100.772 19.0898C99.7154 18.8258 98.9901 18.6058 98.5961 18.4298C98.22 18.2538 98.032 17.9987 98.032 17.6643C98.032 17.2771 98.229 17.0131 98.6229 16.8723C99.0348 16.7315 99.6079 16.6611 100.342 16.6611C101.13 16.6611 101.936 16.7667 102.76 16.9779C103.602 17.1891 104.282 17.4619 104.801 17.7963V14.7604C104.282 14.4612 103.539 14.2236 102.572 14.0476C101.623 13.854 100.7 13.7572 99.8049 13.7572C97.9782 13.7572 96.5276 14.0916 95.4531 14.7604C94.3965 15.4115 93.8682 16.3971 93.8682 17.7171C93.8682 18.4914 94.0204 19.125 94.3249 19.6178C94.6472 20.1106 95.1129 20.5242 95.7218 20.8586C96.3486 21.1753 97.2082 21.4921 98.3006 21.8089C99.2318 22.0729 99.8944 22.2753 100.288 22.4161C100.7 22.5393 101.005 22.6889 101.202 22.8649C101.399 23.0233 101.497 23.2345 101.497 23.4985C101.497 23.8328 101.327 24.0616 100.987 24.1848C100.647 24.308 100.109 24.3696 99.3751 24.3696C99.0961 24.3696 98.8229 24.3733 98.5424 24.3771C97.9588 24.3851 97.3439 24.3934 96.5814 24.3696H94.3077V27.2207Z" fill="#302F4A"/>
<path d="M134.029 26.8258C132.956 26.8258 131.892 26.7292 130.838 26.5359C129.801 26.3603 128.952 26.1143 128.291 25.7981V23.3739C130.007 24.1644 131.857 24.5597 133.841 24.5597C136.629 24.5597 138.024 23.6374 138.024 21.7929C138.024 21.1605 137.872 20.651 137.568 20.2646C137.264 19.8781 136.826 19.5443 136.254 19.2632C135.682 18.9646 134.753 18.5606 133.465 18.0511C131.696 17.3485 130.418 16.5755 129.631 15.7323C128.845 14.8891 128.451 13.8263 128.451 12.5439C128.451 11.5777 128.72 10.7258 129.256 9.98795C129.792 9.23257 130.543 8.65286 131.508 8.24883C132.473 7.82722 133.582 7.61642 134.833 7.61642C135.852 7.61642 136.772 7.69547 137.595 7.85357C138.417 8.01167 139.221 8.26639 140.008 8.61773V10.9366C138.453 10.2514 136.88 9.9089 135.289 9.9089C134.002 9.9089 133.019 10.1373 132.339 10.594C131.66 11.0507 131.32 11.7007 131.32 12.5439C131.32 13.1236 131.463 13.6155 131.749 14.0195C132.053 14.406 132.491 14.7573 133.063 15.0736C133.653 15.3722 134.52 15.7499 135.664 16.2066C136.933 16.7161 137.934 17.1991 138.667 17.6559C139.4 18.1126 139.954 18.6748 140.33 19.3423C140.723 19.9923 140.92 20.8091 140.92 21.7929C140.92 23.3915 140.339 24.6299 139.177 25.5083C138.015 26.3866 136.299 26.8258 134.029 26.8258Z" fill="#302F4A"/>
<path d="M117.491 26.8258C115.632 26.8258 113.951 26.4305 112.45 25.64C110.948 24.8319 109.769 23.6989 108.91 22.2408C108.052 20.7828 107.623 19.1139 107.623 17.2343C107.623 15.3546 108.052 13.6858 108.91 12.2277C109.769 10.7697 110.948 9.63661 112.45 8.82853C113.951 8.02046 115.632 7.61642 117.491 7.61642C119.35 7.61642 121.03 8.02046 122.532 8.82853C124.033 9.63661 125.213 10.7697 126.071 12.2277C126.929 13.6858 127.358 15.3546 127.358 17.2343C127.358 19.1139 126.929 20.7828 126.071 22.2408C125.213 23.6989 124.033 24.8319 122.532 25.64C121.03 26.4305 119.35 26.8258 117.491 26.8258ZM117.491 24.4016C118.813 24.4016 120.011 24.1117 121.084 23.532C122.174 22.9347 123.032 22.1003 123.658 21.0287C124.283 19.9396 124.596 18.6748 124.596 17.2343C124.596 15.8114 124.283 14.5641 123.658 13.4925C123.05 12.4034 122.21 11.569 121.137 10.9893C120.065 10.392 118.867 10.0933 117.544 10.0933C116.204 10.0933 114.988 10.3832 113.898 10.9629C112.825 11.5426 111.967 12.377 111.324 13.4662C110.698 14.5553 110.385 15.8114 110.385 17.2343C110.385 18.6748 110.698 19.9396 111.324 21.0287C111.949 22.1003 112.798 22.9347 113.871 23.532C114.961 24.1117 116.168 24.4016 117.491 24.4016Z" fill="#302F4A"/>
<path d="M148.231 8.4298H155.377C157.379 8.4298 158.955 8.93457 160.106 9.94411C161.275 10.9359 161.86 12.3528 161.86 14.1948C161.86 16.0722 161.284 17.4979 160.133 18.4721C158.981 19.4285 157.396 19.9067 155.377 19.9067H150.941V27H148.231V8.4298ZM155.085 17.6485C156.325 17.6485 157.308 17.3917 158.034 16.878C158.76 16.3644 159.123 15.47 159.123 14.1948C159.123 12.9196 158.76 12.0252 158.034 11.5116C157.308 10.9802 156.325 10.7146 155.085 10.7146H150.941V17.6485H155.085ZM162.91 7.36713H165.593V27H162.91V7.36713ZM172.3 27.3985C170.759 27.3985 169.519 27.0089 168.581 26.2296C167.66 25.4326 167.199 24.361 167.199 23.015C167.199 21.5981 167.642 20.5088 168.527 19.7473C169.431 18.968 170.706 18.5783 172.353 18.5783C174.106 18.5783 175.594 18.9325 176.816 19.641V18.9768C176.816 17.9673 176.506 17.2234 175.886 16.7452C175.284 16.2493 174.328 16.0013 173.017 16.0013C172.238 16.0013 171.476 16.081 170.732 16.2404C170.006 16.3821 169.351 16.5858 168.766 16.8515V14.673C169.298 14.425 169.989 14.2302 170.839 14.0885C171.689 13.9291 172.512 13.8494 173.309 13.8494C175.417 13.8494 176.976 14.3188 177.985 15.2575C179.012 16.1785 179.526 17.4625 179.526 19.1097V27H177.002V25.5654C176.453 26.1676 175.798 26.6281 175.036 26.9469C174.292 27.248 173.38 27.3985 172.3 27.3985ZM172.964 25.3529C173.814 25.3529 174.585 25.1846 175.275 24.8481C175.966 24.5116 176.48 24.0422 176.816 23.44V21.7132C175.665 20.9693 174.381 20.5974 172.964 20.5974C171.937 20.5974 171.166 20.8011 170.653 21.2084C170.157 21.5981 169.909 22.2003 169.909 23.015C169.909 24.5736 170.927 25.3529 172.964 25.3529ZM181.527 14.2479H184.131V16.081C184.733 15.3195 185.468 14.7616 186.336 14.4073C187.222 14.0354 188.143 13.8494 189.099 13.8494C190.799 13.8494 192.066 14.3011 192.898 15.2043C193.73 16.1076 194.147 17.3208 194.147 18.844V27H191.463V19.1097C191.463 17.0374 190.472 16.0013 188.488 16.0013C187.638 16.0013 186.841 16.205 186.097 16.6124C185.371 17.002 184.742 17.6042 184.211 18.4189V27H181.527V14.2479ZM196.129 14.2479H198.732V16.081C199.335 15.3195 200.07 14.7616 200.937 14.4073C201.823 14.0354 202.744 13.8494 203.7 13.8494C205.401 13.8494 206.667 14.3011 207.499 15.2043C208.332 16.1076 208.748 17.3208 208.748 18.844V27H206.065V19.1097C206.065 17.0374 205.073 16.0013 203.089 16.0013C202.239 16.0013 201.442 16.205 200.698 16.6124C199.972 17.002 199.343 17.6042 198.812 18.4189V27H196.129V14.2479ZM212.298 11.7507C211.855 11.7507 211.483 11.6001 211.182 11.299C210.881 10.9979 210.73 10.626 210.73 10.1832C210.73 9.74043 210.881 9.3685 211.182 9.06741C211.483 8.76632 211.855 8.61577 212.298 8.61577C212.758 8.61577 213.139 8.76632 213.44 9.06741C213.759 9.3685 213.918 9.74043 213.918 10.1832C213.918 10.626 213.759 10.9979 213.44 11.299C213.139 11.6001 212.758 11.7507 212.298 11.7507ZM210.943 14.2479H213.679V27H210.943V14.2479ZM216.044 14.2479H218.647V16.081C219.249 15.3195 219.984 14.7616 220.852 14.4073C221.738 14.0354 222.659 13.8494 223.615 13.8494C225.315 13.8494 226.582 14.3011 227.414 15.2043C228.247 16.1076 228.663 17.3208 228.663 18.844V27H225.98V19.1097C225.98 17.0374 224.988 16.0013 223.004 16.0013C222.154 16.0013 221.357 16.205 220.613 16.6124C219.887 17.002 219.258 17.6042 218.727 18.4189V27H216.044V14.2479ZM237.313 33.1104C236.445 33.1104 235.595 33.0395 234.763 32.8978C233.948 32.7561 233.257 32.5525 232.691 32.2868V30.0817C234.019 30.6839 235.56 30.985 237.313 30.985C238.96 30.985 240.156 30.6219 240.9 29.8958C241.661 29.1873 242.042 28.107 242.042 26.6546V25.2997C240.873 26.6989 239.155 27.3985 236.888 27.3985C235.595 27.3985 234.435 27.1151 233.408 26.5484C232.381 25.9816 231.575 25.1846 230.99 24.1574C230.406 23.1301 230.114 21.9523 230.114 20.624C230.114 19.2779 230.397 18.1001 230.964 17.0906C231.548 16.0633 232.345 15.2663 233.355 14.6996C234.382 14.1328 235.533 13.8494 236.808 13.8494C237.995 13.8494 238.996 14.0265 239.81 14.3808C240.643 14.7173 241.413 15.284 242.122 16.081V14.2479H244.725V26.3624C244.725 28.5409 244.114 30.2057 242.892 31.357C241.688 32.5259 239.828 33.1104 237.313 33.1104ZM237.419 25.2732C238.518 25.2732 239.483 24.9809 240.315 24.3965C241.165 23.812 241.741 23.0327 242.042 22.0586V19.1894C241.706 18.1975 241.121 17.4182 240.289 16.8515C239.474 16.2847 238.518 16.0013 237.419 16.0013C236.552 16.0013 235.763 16.1962 235.055 16.5858C234.364 16.9577 233.815 17.4979 233.408 18.2064C233.018 18.9148 232.823 19.7207 232.823 20.624C232.823 21.5449 233.018 22.3597 233.408 23.0681C233.815 23.7589 234.364 24.299 235.055 24.6887C235.763 25.0783 236.552 25.2732 237.419 25.2732Z" fill="#477BFF"/>
</svg>
