<svg width="323" height="259" viewBox="0 0 323 259" fill="none" xmlns="http://www.w3.org/2000/svg">
<rect x="25" width="273" height="259" fill="#FDFDFD"/>
<path d="M161 95.0112V125.247H53V158.011" stroke="#DAD9D6" stroke-width="0.5"/>
<path d="M270.5 180.011L53 180.011" stroke="#DAD9D6" stroke-width="0.5" stroke-dasharray="2 2"/>
<path d="M161 95.0112V125.247H123V158.011" stroke="#DAD9D6" stroke-width="0.5"/>
<path d="M161 95.0112V125.247H198V158.011" stroke="#DAD9D6" stroke-width="0.5"/>
<path d="M161 95.0112V125.247H269V158.011" stroke="#DAD9D6" stroke-width="0.5"/>
<g filter="url(#filter0_d_6984_15895)">
<rect x="28" y="155.001" width="51" height="50" fill="#FA9349" shape-rendering="crispEdges"/>
<rect x="28.4386" y="155.44" width="50.1228" height="49.1228" stroke="url(#paint0_linear_6984_15895)" stroke-opacity="0.2" stroke-width="0.877193" shape-rendering="crispEdges"/>
<g clip-path="url(#clip0_6984_15895)">
<path d="M41 192.501V174.446L53.5 168.89L66 174.446V192.501" stroke="#FDFDFD" stroke-width="1.5" stroke-linecap="round" stroke-linejoin="round"/>
<path d="M54.889 181.39H60.4446V192.501H46.5557V184.168H54.889" stroke="#FDFDFD" stroke-width="1.5" stroke-linecap="round" stroke-linejoin="round"/>
<path d="M54.8886 192.501V180.001C54.8886 179.633 54.7422 179.28 54.4818 179.019C54.2213 178.759 53.868 178.612 53.4997 178.612H50.7219C50.3535 178.612 50.0003 178.759 49.7398 179.019C49.4793 179.28 49.333 179.633 49.333 180.001V184.168" stroke="#FDFDFD" stroke-width="1.5" stroke-linecap="round" stroke-linejoin="round"/>
</g>
</g>
<g filter="url(#filter1_d_6984_15895)">
<rect x="98" y="155.001" width="51" height="50" fill="#A57CFF" shape-rendering="crispEdges"/>
<rect x="98.4386" y="155.44" width="50.1228" height="49.1228" stroke="url(#paint1_linear_6984_15895)" stroke-opacity="0.2" stroke-width="0.877193" shape-rendering="crispEdges"/>
<g clip-path="url(#clip1_6984_15895)">
<path d="M111 192.501V174.446L123.5 168.89L136 174.446V192.501" stroke="#FDFDFD" stroke-width="1.5" stroke-linecap="round" stroke-linejoin="round"/>
<path d="M124.889 181.39H130.445V192.501H116.556V184.168H124.889" stroke="#FDFDFD" stroke-width="1.5" stroke-linecap="round" stroke-linejoin="round"/>
<path d="M124.889 192.501V180.001C124.889 179.633 124.742 179.28 124.482 179.019C124.221 178.759 123.868 178.612 123.5 178.612H120.722C120.354 178.612 120 178.759 119.74 179.019C119.479 179.28 119.333 179.633 119.333 180.001V184.168" stroke="#FDFDFD" stroke-width="1.5" stroke-linecap="round" stroke-linejoin="round"/>
</g>
</g>
<g filter="url(#filter2_d_6984_15895)">
<rect x="173" y="155.001" width="51" height="50" fill="#477BFF" shape-rendering="crispEdges"/>
<rect x="173.439" y="155.44" width="50.1228" height="49.1228" stroke="url(#paint2_linear_6984_15895)" stroke-opacity="0.2" stroke-width="0.877193" shape-rendering="crispEdges"/>
<g clip-path="url(#clip2_6984_15895)">
<path d="M186 192.501V174.446L198.5 168.89L211 174.446V192.501" stroke="#FDFDFD" stroke-width="1.5" stroke-linecap="round" stroke-linejoin="round"/>
<path d="M199.889 181.39H205.445V192.501H191.556V184.168H199.889" stroke="#FDFDFD" stroke-width="1.5" stroke-linecap="round" stroke-linejoin="round"/>
<path d="M199.889 192.501V180.001C199.889 179.633 199.742 179.28 199.482 179.019C199.221 178.759 198.868 178.612 198.5 178.612H195.722C195.354 178.612 195 178.759 194.74 179.019C194.479 179.28 194.333 179.633 194.333 180.001V184.168" stroke="#FDFDFD" stroke-width="1.5" stroke-linecap="round" stroke-linejoin="round"/>
</g>
</g>
<g filter="url(#filter3_d_6984_15895)">
<rect x="244" y="155.001" width="51" height="50" fill="#4BCB9D" shape-rendering="crispEdges"/>
<rect x="244.439" y="155.44" width="50.1228" height="49.1228" stroke="url(#paint3_linear_6984_15895)" stroke-opacity="0.2" stroke-width="0.877193" shape-rendering="crispEdges"/>
<g clip-path="url(#clip3_6984_15895)">
<path d="M257 192.501V174.446L269.5 168.89L282 174.446V192.501" stroke="#FDFDFD" stroke-width="1.5" stroke-linecap="round" stroke-linejoin="round"/>
<path d="M270.889 181.39H276.445V192.501H262.556V184.168H270.889" stroke="#FDFDFD" stroke-width="1.5" stroke-linecap="round" stroke-linejoin="round"/>
<path d="M270.889 192.501V180.001C270.889 179.633 270.742 179.28 270.482 179.019C270.221 178.759 269.868 178.612 269.5 178.612H266.722C266.354 178.612 266 178.759 265.74 179.019C265.479 179.28 265.333 179.633 265.333 180.001V184.168" stroke="#FDFDFD" stroke-width="1.5" stroke-linecap="round" stroke-linejoin="round"/>
</g>
</g>
<rect x="233.25" y="146.261" width="32.5" height="16.5" fill="#FF6762"/>
<rect x="233.25" y="146.261" width="32.5" height="16.5" stroke="#FDFDFD" stroke-width="1.5"/>
<path d="M238.77 158.011V150.721H240.52L244 156.161H243.86V150.721H245.23V158.011H243.61L240.01 152.461H240.15V158.011H238.77ZM249.179 158.111C248.625 158.111 248.135 157.998 247.709 157.771C247.282 157.538 246.949 157.201 246.709 156.761C246.469 156.321 246.349 155.788 246.349 155.161C246.349 154.561 246.462 154.041 246.689 153.601C246.915 153.155 247.235 152.811 247.649 152.571C248.069 152.325 248.565 152.201 249.139 152.201C249.712 152.201 250.205 152.328 250.619 152.581C251.032 152.835 251.342 153.211 251.549 153.711C251.755 154.205 251.829 154.811 251.769 155.531H247.469V154.591H250.809L250.339 155.001C250.425 154.461 250.355 154.035 250.129 153.721C249.909 153.408 249.572 153.251 249.119 153.251C248.685 153.251 248.339 153.405 248.079 153.711C247.825 154.018 247.699 154.491 247.699 155.131C247.699 155.791 247.829 156.275 248.089 156.581C248.349 156.881 248.719 157.031 249.199 157.031C249.565 157.031 249.862 156.951 250.089 156.791C250.322 156.631 250.469 156.405 250.529 156.111L251.719 156.411C251.645 156.751 251.492 157.048 251.259 157.301C251.025 157.555 250.732 157.755 250.379 157.901C250.025 158.041 249.625 158.111 249.179 158.111ZM253.715 158.011L252.095 152.301H253.535L254.505 156.611L255.455 152.301H256.925L257.905 156.531L258.865 152.301H260.245L258.645 158.011H257.105L256.185 154.001L255.295 158.011H253.715Z" fill="white"/>
<rect x="161.25" y="146.261" width="32.5" height="16.5" fill="#FF6762"/>
<rect x="161.25" y="146.261" width="32.5" height="16.5" stroke="#FDFDFD" stroke-width="1.5"/>
<path d="M166.77 158.011V150.721H168.52L172 156.161H171.86V150.721H173.23V158.011H171.61L168.01 152.461H168.15V158.011H166.77ZM177.179 158.111C176.625 158.111 176.135 157.998 175.709 157.771C175.282 157.538 174.949 157.201 174.709 156.761C174.469 156.321 174.349 155.788 174.349 155.161C174.349 154.561 174.462 154.041 174.689 153.601C174.915 153.155 175.235 152.811 175.649 152.571C176.069 152.325 176.565 152.201 177.139 152.201C177.712 152.201 178.205 152.328 178.619 152.581C179.032 152.835 179.342 153.211 179.549 153.711C179.755 154.205 179.829 154.811 179.769 155.531H175.469V154.591H178.809L178.339 155.001C178.425 154.461 178.355 154.035 178.129 153.721C177.909 153.408 177.572 153.251 177.119 153.251C176.685 153.251 176.339 153.405 176.079 153.711C175.825 154.018 175.699 154.491 175.699 155.131C175.699 155.791 175.829 156.275 176.089 156.581C176.349 156.881 176.719 157.031 177.199 157.031C177.565 157.031 177.862 156.951 178.089 156.791C178.322 156.631 178.469 156.405 178.529 156.111L179.719 156.411C179.645 156.751 179.492 157.048 179.259 157.301C179.025 157.555 178.732 157.755 178.379 157.901C178.025 158.041 177.625 158.111 177.179 158.111ZM181.715 158.011L180.095 152.301H181.535L182.505 156.611L183.455 152.301H184.925L185.905 156.531L186.865 152.301H188.245L186.645 158.011H185.105L184.185 154.001L183.295 158.011H181.715Z" fill="white"/>
<g filter="url(#filter4_d_6984_15895)">
<rect x="77" y="53" width="169" height="42.7081" fill="#DAD9D6"/>
<rect x="84.1406" y="60.1182" width="28.5634" height="28.472" fill="#343331"/>
<rect x="84.3904" y="60.3679" width="28.0639" height="27.9725" stroke="url(#paint4_linear_6984_15895)" stroke-opacity="0.2" stroke-width="0.49951"/>
<g clip-path="url(#clip4_6984_15895)">
<path d="M94.9219 69.979C94.9219 70.9073 95.2906 71.7975 95.947 72.4539C96.6034 73.1103 97.4936 73.479 98.4219 73.479C99.3501 73.479 100.24 73.1103 100.897 72.4539C101.553 71.7975 101.922 70.9073 101.922 69.979C101.922 69.0507 101.553 68.1605 100.897 67.5041C100.24 66.8478 99.3501 66.479 98.4219 66.479C97.4936 66.479 96.6034 66.8478 95.947 67.5041C95.2906 68.1605 94.9219 69.0507 94.9219 69.979Z" stroke="#FDFDFD" stroke-width="1.5" stroke-linecap="round" stroke-linejoin="round"/>
<path d="M93.1719 82.229V80.479C93.1719 79.5507 93.5406 78.6605 94.197 78.0041C94.8534 77.3478 95.7436 76.979 96.6719 76.979H100.172C101.1 76.979 101.99 77.3478 102.647 78.0041C103.303 78.6605 103.672 79.5507 103.672 80.479V82.229" stroke="#FDFDFD" stroke-width="1.5" stroke-linecap="round" stroke-linejoin="round"/>
</g>
<rect x="119.845" y="60.1182" width="111.873" height="14.236" fill="#F0F0EF"/>
<rect opacity="0.5" x="119.845" y="79.0996" width="70.2183" height="8.30435" fill="#F0F0EF"/>
</g>
<defs>
<filter id="filter0_d_6984_15895" x="0.826088" y="132.175" width="105.348" height="104.348" filterUnits="userSpaceOnUse" color-interpolation-filters="sRGB">
<feFlood flood-opacity="0" result="BackgroundImageFix"/>
<feColorMatrix in="SourceAlpha" type="matrix" values="0 0 0 0 0 0 0 0 0 0 0 0 0 0 0 0 0 0 127 0" result="hardAlpha"/>
<feOffset dy="4.34783"/>
<feGaussianBlur stdDeviation="13.587"/>
<feComposite in2="hardAlpha" operator="out"/>
<feColorMatrix type="matrix" values="0 0 0 0 0 0 0 0 0 0 0 0 0 0 0 0 0 0 0.15 0"/>
<feBlend mode="normal" in2="BackgroundImageFix" result="effect1_dropShadow_6984_15895"/>
<feBlend mode="normal" in="SourceGraphic" in2="effect1_dropShadow_6984_15895" result="shape"/>
</filter>
<filter id="filter1_d_6984_15895" x="70.8261" y="132.175" width="105.348" height="104.348" filterUnits="userSpaceOnUse" color-interpolation-filters="sRGB">
<feFlood flood-opacity="0" result="BackgroundImageFix"/>
<feColorMatrix in="SourceAlpha" type="matrix" values="0 0 0 0 0 0 0 0 0 0 0 0 0 0 0 0 0 0 127 0" result="hardAlpha"/>
<feOffset dy="4.34783"/>
<feGaussianBlur stdDeviation="13.587"/>
<feComposite in2="hardAlpha" operator="out"/>
<feColorMatrix type="matrix" values="0 0 0 0 0 0 0 0 0 0 0 0 0 0 0 0 0 0 0.15 0"/>
<feBlend mode="normal" in2="BackgroundImageFix" result="effect1_dropShadow_6984_15895"/>
<feBlend mode="normal" in="SourceGraphic" in2="effect1_dropShadow_6984_15895" result="shape"/>
</filter>
<filter id="filter2_d_6984_15895" x="145.826" y="132.175" width="105.348" height="104.348" filterUnits="userSpaceOnUse" color-interpolation-filters="sRGB">
<feFlood flood-opacity="0" result="BackgroundImageFix"/>
<feColorMatrix in="SourceAlpha" type="matrix" values="0 0 0 0 0 0 0 0 0 0 0 0 0 0 0 0 0 0 127 0" result="hardAlpha"/>
<feOffset dy="4.34783"/>
<feGaussianBlur stdDeviation="13.587"/>
<feComposite in2="hardAlpha" operator="out"/>
<feColorMatrix type="matrix" values="0 0 0 0 0 0 0 0 0 0 0 0 0 0 0 0 0 0 0.15 0"/>
<feBlend mode="normal" in2="BackgroundImageFix" result="effect1_dropShadow_6984_15895"/>
<feBlend mode="normal" in="SourceGraphic" in2="effect1_dropShadow_6984_15895" result="shape"/>
</filter>
<filter id="filter3_d_6984_15895" x="216.826" y="132.175" width="105.348" height="104.348" filterUnits="userSpaceOnUse" color-interpolation-filters="sRGB">
<feFlood flood-opacity="0" result="BackgroundImageFix"/>
<feColorMatrix in="SourceAlpha" type="matrix" values="0 0 0 0 0 0 0 0 0 0 0 0 0 0 0 0 0 0 127 0" result="hardAlpha"/>
<feOffset dy="4.34783"/>
<feGaussianBlur stdDeviation="13.587"/>
<feComposite in2="hardAlpha" operator="out"/>
<feColorMatrix type="matrix" values="0 0 0 0 0 0 0 0 0 0 0 0 0 0 0 0 0 0 0.15 0"/>
<feBlend mode="normal" in2="BackgroundImageFix" result="effect1_dropShadow_6984_15895"/>
<feBlend mode="normal" in="SourceGraphic" in2="effect1_dropShadow_6984_15895" result="shape"/>
</filter>
<filter id="filter4_d_6984_15895" x="57" y="33" width="209" height="82.708" filterUnits="userSpaceOnUse" color-interpolation-filters="sRGB">
<feFlood flood-opacity="0" result="BackgroundImageFix"/>
<feColorMatrix in="SourceAlpha" type="matrix" values="0 0 0 0 0 0 0 0 0 0 0 0 0 0 0 0 0 0 127 0" result="hardAlpha"/>
<feOffset/>
<feGaussianBlur stdDeviation="10"/>
<feComposite in2="hardAlpha" operator="out"/>
<feColorMatrix type="matrix" values="0 0 0 0 0 0 0 0 0 0 0 0 0 0 0 0 0 0 0.1 0"/>
<feBlend mode="normal" in2="BackgroundImageFix" result="effect1_dropShadow_6984_15895"/>
<feBlend mode="normal" in="SourceGraphic" in2="effect1_dropShadow_6984_15895" result="shape"/>
</filter>
<linearGradient id="paint0_linear_6984_15895" x1="80.7491" y1="207.809" x2="21.7447" y2="174.211" gradientUnits="userSpaceOnUse">
<stop stop-color="white" stop-opacity="0.2"/>
<stop offset="0.506386" stop-color="white"/>
<stop offset="1" stop-color="white" stop-opacity="0.2"/>
</linearGradient>
<linearGradient id="paint1_linear_6984_15895" x1="150.749" y1="207.809" x2="91.7447" y2="174.211" gradientUnits="userSpaceOnUse">
<stop stop-color="white" stop-opacity="0.2"/>
<stop offset="0.506386" stop-color="white"/>
<stop offset="1" stop-color="white" stop-opacity="0.2"/>
</linearGradient>
<linearGradient id="paint2_linear_6984_15895" x1="225.749" y1="207.809" x2="166.745" y2="174.211" gradientUnits="userSpaceOnUse">
<stop stop-color="white" stop-opacity="0.2"/>
<stop offset="0.506386" stop-color="white"/>
<stop offset="1" stop-color="white" stop-opacity="0.2"/>
</linearGradient>
<linearGradient id="paint3_linear_6984_15895" x1="296.749" y1="207.809" x2="237.745" y2="174.211" gradientUnits="userSpaceOnUse">
<stop stop-color="white" stop-opacity="0.2"/>
<stop offset="0.506386" stop-color="white"/>
<stop offset="1" stop-color="white" stop-opacity="0.2"/>
</linearGradient>
<linearGradient id="paint4_linear_6984_15895" x1="113.684" y1="90.189" x2="80.3709" y2="71.5328" gradientUnits="userSpaceOnUse">
<stop stop-color="white" stop-opacity="0.2"/>
<stop offset="0.506386" stop-color="white"/>
<stop offset="1" stop-color="white" stop-opacity="0.2"/>
</linearGradient>
<clipPath id="clip0_6984_15895">
<rect width="33.3333" height="33.3333" fill="white" transform="translate(36.833 163.334)"/>
</clipPath>
<clipPath id="clip1_6984_15895">
<rect width="33.3333" height="33.3333" fill="white" transform="translate(106.833 163.334)"/>
</clipPath>
<clipPath id="clip2_6984_15895">
<rect width="33.3333" height="33.3333" fill="white" transform="translate(181.833 163.334)"/>
</clipPath>
<clipPath id="clip3_6984_15895">
<rect width="33.3333" height="33.3333" fill="white" transform="translate(252.833 163.334)"/>
</clipPath>
<clipPath id="clip4_6984_15895">
<rect width="21" height="21" fill="white" transform="translate(87.9219 63.854)"/>
</clipPath>
</defs>
</svg>
