<svg width="433" height="168" viewBox="0 0 433 168" fill="none" xmlns="http://www.w3.org/2000/svg">
<rect width="433" height="168" rx="12" fill="#F0F0EF"/>
<path d="M23.8547 22.0321C23.8442 21.5906 23.7391 21.228 23.5394 20.9442C23.3396 20.6604 23.0769 20.4501 22.751 20.3135C22.4252 20.1663 22.052 20.0928 21.6316 20.0928C21.0219 20.0928 20.5542 20.2242 20.2283 20.4869C19.913 20.7392 19.7553 21.0651 19.7553 21.4645C19.7553 21.8429 19.8762 22.1372 20.118 22.3474C20.3597 22.5576 20.7013 22.7258 21.1428 22.8519C21.5843 22.9781 22.0993 23.1095 22.6879 23.2461C23.1925 23.3407 23.6602 23.4721 24.0912 23.6403C24.5221 23.8085 24.8953 24.0239 25.2106 24.2867C25.5365 24.5495 25.7887 24.8753 25.9674 25.2643C26.1566 25.6532 26.2512 26.1157 26.2512 26.6517C26.2512 27.3455 26.0725 27.9551 25.7152 28.4807C25.3578 29.0062 24.8427 29.4162 24.17 29.7105C23.5078 29.9943 22.6985 30.1362 21.7419 30.1362C20.8065 30.1362 20.0023 29.9785 19.3296 29.6632C18.6569 29.3478 18.1366 28.9116 17.7687 28.3545C17.4008 27.7975 17.2011 27.1458 17.1696 26.3995L19.3454 26.1157C19.3664 26.8725 19.5977 27.4401 20.0391 27.8185C20.4806 28.1864 21.0587 28.3703 21.7735 28.3703C22.4252 28.3703 22.9402 28.2494 23.3186 28.0077C23.7075 27.7554 23.902 27.356 23.902 26.8094C23.902 26.4205 23.7916 26.1209 23.5709 25.9107C23.3607 25.7005 23.0769 25.5428 22.7195 25.4377C22.3726 25.3221 21.9995 25.217 21.6 25.1224C21.0009 24.9962 20.4491 24.8491 19.9445 24.6809C19.44 24.5022 19.0038 24.2867 18.6359 24.0345C18.268 23.7717 17.9789 23.4511 17.7687 23.0727C17.569 22.6838 17.4692 22.216 17.4692 21.6694C17.4692 21.0072 17.6426 20.4291 17.9895 19.9351C18.3363 19.4306 18.8251 19.0364 19.4558 18.7526C20.0864 18.4688 20.8117 18.3269 21.6316 18.3269C22.9875 18.3269 24.0491 18.6422 24.8165 19.2729C25.5838 19.8931 25.9885 20.7182 26.0305 21.7483L23.8547 22.0321ZM27.2492 29.9785V17.5228H29.425V22.0951C29.7719 21.6432 30.1661 21.3121 30.6075 21.1018C31.049 20.8916 31.564 20.7865 32.1527 20.7865C33.0671 20.7865 33.8029 21.0493 34.36 21.5748C34.9276 22.1004 35.2114 22.8782 35.2114 23.9083V29.9785H33.0356V24.2237C33.0356 23.7401 32.899 23.367 32.6257 23.1042C32.3524 22.8309 31.9477 22.6943 31.4116 22.6943C31.0543 22.6943 30.7232 22.7731 30.4183 22.9308C30.124 23.0885 29.8875 23.3144 29.7088 23.6088C29.5406 23.8926 29.446 24.2342 29.425 24.6336V29.9785H27.2492ZM39.1348 30.1362C38.1993 30.1362 37.4635 29.9049 36.9274 29.4424C36.4018 28.9694 36.1391 28.3545 36.1391 27.5977C36.1391 27.0406 36.2599 26.5782 36.5017 26.2103C36.754 25.8319 37.0903 25.5323 37.5108 25.3116C37.9312 25.0803 38.4095 24.9174 38.9456 24.8228L40.8849 24.4759C41.2738 24.4129 41.5366 24.3077 41.6732 24.1606C41.8098 24.0029 41.8782 23.7927 41.8782 23.5299C41.8782 23.1936 41.7573 22.9255 41.5155 22.7258C41.2738 22.5261 40.8796 22.4262 40.333 22.4262C39.7444 22.4262 39.2872 22.5524 38.9613 22.8046C38.6355 23.0464 38.4778 23.4196 38.4883 23.9241L36.4702 23.6876C36.4807 22.7731 36.8381 22.0689 37.5423 21.5748C38.2466 21.0703 39.1873 20.818 40.3646 20.818C41.1949 20.818 41.8782 20.9284 42.4142 21.1491C42.9608 21.3594 43.3655 21.68 43.6283 22.1109C43.9016 22.5314 44.0382 23.0412 44.0382 23.6403V27.7396C44.0382 28.0234 44.0908 28.2126 44.1959 28.3072C44.3115 28.3913 44.4429 28.4334 44.59 28.4334C44.6636 28.4334 44.7214 28.4281 44.7635 28.4176C44.8055 28.4071 44.8318 28.3966 44.8423 28.3861H44.9369V29.9154C44.8108 29.9785 44.6426 30.0258 44.4324 30.0573C44.2222 30.0889 44.0435 30.1046 43.8963 30.1046C43.4023 30.1046 43.0029 29.9943 42.698 29.7735C42.3932 29.5528 42.2145 29.227 42.162 28.796L42.1462 28.5753C41.9044 29.0588 41.5103 29.4424 40.9637 29.7262C40.4276 29.9995 39.818 30.1362 39.1348 30.1362ZM39.7812 28.528C40.3278 28.528 40.7903 28.4071 41.1687 28.1653C41.5576 27.9131 41.8098 27.5609 41.9255 27.109V25.5008L42.0831 25.5638C41.9675 25.6584 41.8098 25.7373 41.6101 25.8003C41.4209 25.8529 41.1739 25.9054 40.8691 25.958L39.6551 26.1945C39.1505 26.2996 38.8036 26.4625 38.6144 26.6833C38.4358 26.8935 38.3464 27.1352 38.3464 27.4085C38.3464 27.7764 38.4778 28.055 38.7406 28.2442C39.0034 28.4334 39.3502 28.528 39.7812 28.528ZM45.5577 29.9785V20.9757H47.5286L47.6232 22.3789C47.8754 21.8639 48.175 21.4855 48.5219 21.2437C48.8793 20.9915 49.2997 20.8653 49.7832 20.8653C50.0985 20.8653 50.3508 20.8969 50.54 20.9599V22.9939H50.4454C50.3613 22.9623 50.2562 22.936 50.1301 22.915C50.0145 22.894 49.8883 22.8835 49.7517 22.8835C49.1841 22.8835 48.7216 23.0412 48.3642 23.3565C48.0173 23.6613 47.8071 24.087 47.7335 24.6336V29.9785H45.5577ZM54.9067 30.1362C54.0342 30.1362 53.2617 29.9575 52.589 29.6001C51.9162 29.2322 51.3907 28.7014 51.0123 28.0077C50.6339 27.3139 50.4447 26.473 50.4447 25.485C50.4447 24.539 50.6234 23.7191 50.9807 23.0254C51.3381 22.3211 51.8427 21.7798 52.4944 21.4014C53.1566 21.0125 53.9396 20.818 54.8436 20.818C55.7476 20.818 56.5254 21.0178 57.1771 21.4172C57.8288 21.8166 58.3175 22.4105 58.6434 23.1988C58.9692 23.9766 59.0849 24.9332 58.9903 26.0684H52.2106V24.5863H57.4766L56.7356 25.2327C56.8723 24.3813 56.7619 23.7086 56.4045 23.2146C56.0576 22.7206 55.5268 22.4735 54.8121 22.4735C54.1288 22.4735 53.5823 22.7153 53.1723 23.1988C52.7729 23.6823 52.5732 24.4286 52.5732 25.4377C52.5732 26.4783 52.7782 27.2404 53.1881 27.7239C53.598 28.1969 54.1814 28.4334 54.9382 28.4334C55.5163 28.4334 55.9841 28.3072 56.3414 28.055C56.7093 27.8027 56.9406 27.4453 57.0352 26.9828L58.9114 27.4558C58.7958 27.9919 58.554 28.4597 58.1861 28.8591C57.8183 29.2585 57.3558 29.5738 56.7987 29.8051C56.2416 30.0258 55.6109 30.1362 54.9067 30.1362ZM68.9106 22.0321C68.9001 21.5906 68.795 21.228 68.5953 20.9442C68.3956 20.6604 68.1328 20.4501 67.8069 20.3135C67.4811 20.1663 67.1079 20.0928 66.6875 20.0928C66.0778 20.0928 65.6101 20.2242 65.2843 20.4869C64.9689 20.7392 64.8113 21.0651 64.8113 21.4645C64.8113 21.8429 64.9321 22.1372 65.1739 22.3474C65.4156 22.5576 65.7573 22.7258 66.1987 22.8519C66.6402 22.9781 67.1552 23.1095 67.7439 23.2461C68.2484 23.3407 68.7162 23.4721 69.1471 23.6403C69.5781 23.8085 69.9512 24.0239 70.2665 24.2867C70.5924 24.5495 70.8447 24.8753 71.0234 25.2643C71.2126 25.6532 71.3072 26.1157 71.3072 26.6517C71.3072 27.3455 71.1285 27.9551 70.7711 28.4807C70.4137 29.0062 69.8987 29.4162 69.2259 29.7105C68.5637 29.9943 67.7544 30.1362 66.7979 30.1362C65.8624 30.1362 65.0583 29.9785 64.3856 29.6632C63.7128 29.3478 63.1925 28.9116 62.8246 28.3545C62.4568 27.7975 62.257 27.1458 62.2255 26.3995L64.4013 26.1157C64.4223 26.8725 64.6536 27.4401 65.0951 27.8185C65.5365 28.1864 66.1146 28.3703 66.8294 28.3703C67.4811 28.3703 67.9961 28.2494 68.3745 28.0077C68.7635 27.7554 68.9579 27.356 68.9579 26.8094C68.9579 26.4205 68.8475 26.1209 68.6268 25.9107C68.4166 25.7005 68.1328 25.5428 67.7754 25.4377C67.4285 25.3221 67.0554 25.217 66.656 25.1224C66.0568 24.9962 65.505 24.8491 65.0005 24.6809C64.4959 24.5022 64.0597 24.2867 63.6918 24.0345C63.3239 23.7717 63.0349 23.4511 62.8246 23.0727C62.6249 22.6838 62.5251 22.216 62.5251 21.6694C62.5251 21.0072 62.6985 20.4291 63.0454 19.9351C63.3922 19.4306 63.881 19.0364 64.5117 18.7526C65.1424 18.4688 65.8676 18.3269 66.6875 18.3269C68.0434 18.3269 69.1051 18.6422 69.8724 19.2729C70.6397 19.8931 71.0444 20.7182 71.0864 21.7483L68.9106 22.0321ZM74.8755 30.1046C74.1712 30.1046 73.6509 29.947 73.3146 29.6316C72.9782 29.3163 72.81 28.8433 72.81 28.2126V18.5634L74.9543 18.4057V27.4558C74.9543 27.7922 74.9964 28.0182 75.0805 28.1338C75.1751 28.2389 75.3695 28.2915 75.6638 28.2915C75.8215 28.2915 75.9634 28.281 76.0895 28.2599C76.2262 28.2389 76.3365 28.2126 76.4206 28.1811V29.8839C76.1894 29.947 75.9319 29.9995 75.6481 30.0416C75.3748 30.0836 75.1172 30.1046 74.8755 30.1046ZM71.6433 22.5681V20.9757L73.8822 21.0388V22.5051L71.6433 22.5681ZM76.4364 22.5681L73.8822 22.5051V21.0388L76.4364 20.9757V22.5681ZM79.7717 30.1362C78.8362 30.1362 78.1004 29.9049 77.5643 29.4424C77.0388 28.9694 76.776 28.3545 76.776 27.5977C76.776 27.0406 76.8969 26.5782 77.1386 26.2103C77.3909 25.8319 77.7273 25.5323 78.1477 25.3116C78.5681 25.0803 79.0464 24.9174 79.5825 24.8228L81.5218 24.4759C81.9107 24.4129 82.1735 24.3077 82.3101 24.1606C82.4468 24.0029 82.5151 23.7927 82.5151 23.5299C82.5151 23.1936 82.3942 22.9255 82.1524 22.7258C81.9107 22.5261 81.5165 22.4262 80.9699 22.4262C80.3813 22.4262 79.9241 22.5524 79.5982 22.8046C79.2724 23.0464 79.1147 23.4196 79.1252 23.9241L77.1071 23.6876C77.1176 22.7731 77.475 22.0689 78.1792 21.5748C78.8835 21.0703 79.8242 20.818 81.0015 20.818C81.8319 20.818 82.5151 20.9284 83.0512 21.1491C83.5977 21.3594 84.0024 21.68 84.2652 22.1109C84.5385 22.5314 84.6751 23.0412 84.6751 23.6403V27.7396C84.6751 28.0234 84.7277 28.2126 84.8328 28.3072C84.9484 28.3913 85.0798 28.4334 85.227 28.4334C85.3005 28.4334 85.3584 28.4281 85.4004 28.4176C85.4424 28.4071 85.4687 28.3966 85.4792 28.3861H85.5738V29.9154C85.4477 29.9785 85.2795 30.0258 85.0693 30.0573C84.8591 30.0889 84.6804 30.1046 84.5332 30.1046C84.0392 30.1046 83.6398 29.9943 83.335 29.7735C83.0301 29.5528 82.8514 29.227 82.7989 28.796L82.7831 28.5753C82.5414 29.0588 82.1472 29.4424 81.6006 29.7262C81.0645 29.9995 80.4549 30.1362 79.7717 30.1362ZM80.4181 28.528C80.9647 28.528 81.4272 28.4071 81.8056 28.1653C82.1945 27.9131 82.4468 27.5609 82.5624 27.109V25.5008L82.7201 25.5638C82.6044 25.6584 82.4468 25.7373 82.2471 25.8003C82.0578 25.8529 81.8108 25.9054 81.506 25.958L80.292 26.1945C79.7874 26.2996 79.4406 26.4625 79.2514 26.6833C79.0727 26.8935 78.9833 27.1352 78.9833 27.4085C78.9833 27.7764 79.1147 28.055 79.3775 28.2442C79.6403 28.4334 79.9872 28.528 80.4181 28.528ZM88.5802 30.1046C87.876 30.1046 87.3557 29.947 87.0193 29.6316C86.683 29.3163 86.5148 28.8433 86.5148 28.2126V18.5634L88.6591 18.4057V27.4558C88.6591 27.7922 88.7011 28.0182 88.7852 28.1338C88.8798 28.2389 89.0743 28.2915 89.3686 28.2915C89.5262 28.2915 89.6681 28.281 89.7943 28.2599C89.9309 28.2389 90.0413 28.2126 90.1254 28.1811V29.8839C89.8941 29.947 89.6366 29.9995 89.3528 30.0416C89.0795 30.0836 88.822 30.1046 88.5802 30.1046ZM85.348 22.5681V20.9757L87.5869 21.0388V22.5051L85.348 22.5681ZM90.1411 22.5681L87.5869 22.5051V21.0388L90.1411 20.9757V22.5681ZM91.3841 29.9785V20.9757H93.5442V29.9785H91.3841ZM91.3999 19.6355V17.4913H93.5442V19.6355H91.3999ZM98.5308 30.1362C97.343 30.1362 96.418 29.8734 95.7558 29.3478C95.0936 28.8223 94.731 28.1023 94.6679 27.1878L96.7491 26.9355C96.7491 27.4401 96.9121 27.85 97.2379 28.1653C97.5743 28.4702 98.0315 28.6226 98.6096 28.6226C99.0931 28.6226 99.4768 28.5332 99.7606 28.3545C100.044 28.1759 100.186 27.8921 100.186 27.5031C100.186 27.2509 100.123 27.0564 99.9971 26.9198C99.8815 26.7726 99.7133 26.657 99.4925 26.5729C99.2718 26.4783 99.009 26.3995 98.7042 26.3364C98.4099 26.2733 98.0788 26.1998 97.7109 26.1157C97.1433 25.9895 96.6545 25.8214 96.2446 25.6111C95.8347 25.4009 95.5193 25.1276 95.2986 24.7913C95.0779 24.4549 94.9675 24.0397 94.9675 23.5457C94.9675 22.9886 95.1146 22.5051 95.409 22.0951C95.7138 21.6852 96.1395 21.3699 96.6861 21.1491C97.2326 20.9284 97.8738 20.818 98.6096 20.818C99.3454 20.818 99.9761 20.9232 100.502 21.1334C101.038 21.3436 101.453 21.6484 101.747 22.0478C102.052 22.4473 102.225 22.9308 102.267 23.4984L100.218 23.7664C100.218 23.3039 100.076 22.9465 99.7921 22.6943C99.5083 22.4315 99.0879 22.3001 98.5308 22.3001C98.0788 22.3001 97.7319 22.3947 97.4902 22.5839C97.2589 22.7626 97.1433 22.9991 97.1433 23.2934C97.1433 23.5562 97.2274 23.7664 97.3956 23.9241C97.5743 24.0818 97.837 24.2079 98.1839 24.3025C98.5413 24.3971 98.9828 24.5022 99.5083 24.6178C99.9182 24.7019 100.297 24.807 100.644 24.9332C101.001 25.0488 101.311 25.2064 101.574 25.4062C101.837 25.6059 102.041 25.8634 102.189 26.1787C102.336 26.4836 102.409 26.8725 102.409 27.3455C102.409 28.1759 102.084 28.8486 101.432 29.3636C100.791 29.8787 99.8236 30.1362 98.5308 30.1362ZM105.904 30.1046C105.2 30.1046 104.679 29.947 104.343 29.6316C104.007 29.3163 103.838 28.8433 103.838 28.2126V18.5634L105.983 18.4057V27.4558C105.983 27.7922 106.025 28.0182 106.109 28.1338C106.204 28.2389 106.398 28.2915 106.692 28.2915C106.85 28.2915 106.992 28.281 107.118 28.2599C107.255 28.2389 107.365 28.2126 107.449 28.1811V29.8839C107.218 29.947 106.96 29.9995 106.677 30.0416C106.403 30.0836 106.146 30.1046 105.904 30.1046ZM102.672 22.5681V20.9757L104.911 21.0388V22.5051L102.672 22.5681ZM107.465 22.5681L104.911 22.5051V21.0388L107.465 20.9757V22.5681ZM108.708 29.9785V20.9757H110.868V29.9785H108.708ZM108.724 19.6355V17.4913H110.868V19.6355H108.724ZM116.485 30.1204C115.592 30.1204 114.814 29.926 114.152 29.537C113.489 29.1481 112.974 28.6068 112.607 27.9131C112.249 27.2088 112.07 26.3942 112.07 25.4692C112.07 24.5337 112.249 23.7191 112.607 23.0254C112.974 22.3211 113.489 21.7798 114.152 21.4014C114.824 21.0125 115.607 20.818 116.501 20.818C117.668 20.818 118.598 21.1071 119.292 21.6852C119.985 22.2633 120.385 23.0254 120.49 23.9714L118.424 24.2552C118.372 23.6981 118.167 23.2829 117.81 23.0096C117.463 22.7363 117.021 22.5997 116.485 22.5997C115.791 22.5997 115.245 22.8519 114.845 23.3565C114.446 23.861 114.246 24.5653 114.246 25.4692C114.246 26.3732 114.441 27.0774 114.83 27.582C115.229 28.0865 115.781 28.3388 116.485 28.3388C117.042 28.3388 117.499 28.1864 117.857 27.8815C118.214 27.5767 118.414 27.1563 118.456 26.6202L120.537 26.8882C120.474 27.5609 120.259 28.1391 119.891 28.6226C119.533 29.1061 119.066 29.4792 118.488 29.742C117.909 29.9943 117.242 30.1204 116.485 30.1204ZM124.739 30.1362C123.552 30.1362 122.627 29.8734 121.964 29.3478C121.302 28.8223 120.939 28.1023 120.876 27.1878L122.958 26.9355C122.958 27.4401 123.121 27.85 123.446 28.1653C123.783 28.4702 124.24 28.6226 124.818 28.6226C125.302 28.6226 125.685 28.5332 125.969 28.3545C126.253 28.1759 126.395 27.8921 126.395 27.5031C126.395 27.2509 126.332 27.0564 126.206 26.9198C126.09 26.7726 125.922 26.657 125.701 26.5729C125.48 26.4783 125.218 26.3995 124.913 26.3364C124.618 26.2733 124.287 26.1998 123.919 26.1157C123.352 25.9895 122.863 25.8214 122.453 25.6111C122.043 25.4009 121.728 25.1276 121.507 24.7913C121.286 24.4549 121.176 24.0397 121.176 23.5457C121.176 22.9886 121.323 22.5051 121.617 22.0951C121.922 21.6852 122.348 21.3699 122.895 21.1491C123.441 20.9284 124.082 20.818 124.818 20.818C125.554 20.818 126.185 20.9232 126.71 21.1334C127.246 21.3436 127.661 21.6484 127.956 22.0478C128.261 22.4473 128.434 22.9308 128.476 23.4984L126.426 23.7664C126.426 23.3039 126.284 22.9465 126.001 22.6943C125.717 22.4315 125.296 22.3001 124.739 22.3001C124.287 22.3001 123.94 22.3947 123.699 22.5839C123.467 22.7626 123.352 22.9991 123.352 23.2934C123.352 23.5562 123.436 23.7664 123.604 23.9241C123.783 24.0818 124.046 24.2079 124.392 24.3025C124.75 24.3971 125.191 24.5022 125.717 24.6178C126.127 24.7019 126.505 24.807 126.852 24.9332C127.209 25.0488 127.519 25.2064 127.782 25.4062C128.045 25.6059 128.25 25.8634 128.397 26.1787C128.544 26.4836 128.618 26.8725 128.618 27.3455C128.618 28.1759 128.292 28.8486 127.64 29.3636C126.999 29.8787 126.032 30.1362 124.739 30.1362Z" fill="#343331"/>
<rect x="16.5547" y="50.4531" width="399.89" height="55.1836" rx="7.88337" fill="#FDFDFD"/>
<rect x="26.5547" y="56.7598" width="42.5702" height="42.5702" rx="4.73002" fill="#F0F0EF"/>
<path d="M78.7174 74.248L81.8629 66.2023H83.6398L86.7963 74.248H85.1628L83.1211 68.818C83.0475 68.6193 82.9739 68.4133 82.9003 68.1999C82.8341 67.9865 82.7568 67.7437 82.6685 67.4715H82.8231C82.7348 67.7437 82.6538 67.9865 82.5803 68.1999C82.5067 68.4133 82.4368 68.6193 82.3706 68.818L80.3067 74.248H78.7174ZM80.8254 72.4601L81.3221 71.1578H84.1585L84.6331 72.4601H80.8254ZM87.1705 74.248V67.9461H88.5722L88.6384 68.829C88.8885 68.4832 89.1718 68.233 89.4882 68.0785C89.8046 67.9166 90.1762 67.8357 90.6029 67.8357C91.243 67.8357 91.7581 68.0197 92.1481 68.3875C92.5454 68.7481 92.744 69.2889 92.744 70.0099V74.248H91.221V70.2307C91.221 69.8922 91.1253 69.631 90.934 69.4471C90.7427 69.2558 90.4594 69.1601 90.0842 69.1601C89.834 69.1601 89.6022 69.2153 89.3889 69.3257C89.1829 69.436 89.0173 69.5942 88.8922 69.8002C88.7745 69.9989 88.7083 70.238 88.6936 70.5176V74.248H87.1705ZM94.3585 76.1795C94.2261 76.1795 94.0863 76.1684 93.9391 76.1464C93.7919 76.1243 93.6742 76.0985 93.5859 76.0691V74.8771H93.6742C93.7184 74.8992 93.7772 74.9176 93.8508 74.9323C93.9244 74.947 94.0016 74.9544 94.0826 74.9544C94.3327 74.9544 94.5351 74.9066 94.6896 74.8109C94.8441 74.7153 94.9618 74.5534 95.0428 74.3253L95.1863 73.9501L92.8244 67.9461H94.4909L95.3408 70.5176C95.3923 70.6795 95.4548 70.8782 95.5284 71.1136C95.602 71.3417 95.6792 71.5956 95.7602 71.8752C95.8411 72.1547 95.9184 72.4454 95.9919 72.7471H95.9036C95.9846 72.438 96.0582 72.1658 96.1244 71.9303C96.1906 71.6875 96.2568 71.4558 96.323 71.235C96.3966 71.0069 96.4775 70.7678 96.5658 70.5176L97.4267 67.9461H98.9387L96.4444 74.6564C96.3046 75.0317 96.1391 75.3296 95.9478 75.5504C95.7565 75.7785 95.5321 75.9403 95.2745 76.036C95.017 76.1316 94.7117 76.1795 94.3585 76.1795ZM101.863 74.3584C101.237 74.3584 100.689 74.2223 100.218 73.9501C99.7549 73.6778 99.3943 73.2989 99.1368 72.8133C98.8866 72.3203 98.7615 71.7501 98.7615 71.1026C98.7615 70.4404 98.8866 69.8665 99.1368 69.3809C99.3943 68.8952 99.7549 68.5163 100.218 68.2441C100.689 67.9718 101.241 67.8357 101.874 67.8357C102.499 67.8357 103.044 67.9718 103.507 68.2441C103.971 68.5163 104.328 68.8952 104.578 69.3809C104.835 69.8665 104.964 70.4404 104.964 71.1026C104.964 71.7501 104.835 72.3203 104.578 72.8133C104.328 73.2989 103.971 73.6778 103.507 73.9501C103.044 74.2223 102.496 74.3584 101.863 74.3584ZM101.863 73.1113C102.363 73.1113 102.753 72.9347 103.033 72.5815C103.312 72.2283 103.452 71.7317 103.452 71.0915C103.452 70.4514 103.312 69.9584 103.033 69.6126C102.753 69.2595 102.363 69.0829 101.863 69.0829C101.363 69.0829 100.973 69.2595 100.693 69.6126C100.413 69.9658 100.274 70.4588 100.274 71.0915C100.274 71.7317 100.413 72.2283 100.693 72.5815C100.973 72.9347 101.363 73.1113 101.863 73.1113ZM105.635 74.248V67.9461H107.036L107.102 68.829C107.353 68.4832 107.636 68.233 107.952 68.0785C108.269 67.9166 108.64 67.8357 109.067 67.8357C109.707 67.8357 110.222 68.0197 110.612 68.3875C111.009 68.7481 111.208 69.2889 111.208 70.0099V74.248H109.685V70.2307C109.685 69.8922 109.589 69.631 109.398 69.4471C109.207 69.2558 108.924 69.1601 108.548 69.1601C108.298 69.1601 108.066 69.2153 107.853 69.3257C107.647 69.436 107.481 69.5942 107.356 69.8002C107.239 69.9989 107.172 70.238 107.158 70.5176V74.248H105.635ZM114.992 74.3584C114.381 74.3584 113.84 74.2333 113.37 73.9832C112.899 73.7256 112.531 73.3541 112.266 72.8685C112.001 72.3828 111.869 71.7942 111.869 71.1026C111.869 70.4404 111.994 69.8665 112.244 69.3809C112.494 68.8879 112.847 68.509 113.303 68.2441C113.767 67.9718 114.315 67.8357 114.948 67.8357C115.581 67.8357 116.125 67.9755 116.581 68.2551C117.037 68.5347 117.38 68.9504 117.608 69.5023C117.836 70.0467 117.917 70.7163 117.85 71.5109H113.105V70.4735H116.791L116.272 70.926C116.368 70.33 116.291 69.8591 116.04 69.5133C115.798 69.1675 115.426 68.9946 114.926 68.9946C114.447 68.9946 114.065 69.1638 113.778 69.5023C113.498 69.8407 113.358 70.3631 113.358 71.0695C113.358 71.7979 113.502 72.3313 113.789 72.6698C114.076 73.0009 114.484 73.1664 115.014 73.1664C115.419 73.1664 115.746 73.0782 115.996 72.9016C116.254 72.725 116.416 72.4748 116.482 72.1511L117.795 72.4822C117.714 72.8574 117.545 73.1848 117.288 73.4644C117.03 73.744 116.706 73.9648 116.316 74.1266C115.926 74.2812 115.485 74.3584 114.992 74.3584Z" fill="#343331"/>
<path opacity="0.4" d="M79.5341 90.0156V81.9699H85.2732V82.9742H80.6819V89.0002H85.6043V90.0156H79.5341ZM80.5053 86.3845V85.4133H84.8207V86.3845H80.5053ZM87.6648 90.0156L85.2036 83.802H86.4177L87.5103 86.7929C87.6207 87.0872 87.7163 87.3521 87.7973 87.5875C87.8856 87.8156 87.9665 88.0437 88.0401 88.2718C88.1136 88.4926 88.1946 88.739 88.2829 89.0113C88.3932 88.6434 88.511 88.2718 88.636 87.8966C88.7685 87.514 88.8973 87.1498 89.0223 86.8039L90.115 83.802H91.2849L88.8678 90.0156H87.6648ZM94.208 90.126C93.612 90.126 93.0896 90.0009 92.6407 89.7507C92.1993 89.4932 91.8535 89.1253 91.6033 88.6471C91.3605 88.1688 91.2391 87.5912 91.2391 86.9143C91.2391 86.2668 91.3531 85.7039 91.5812 85.2257C91.8167 84.7401 92.1514 84.3648 92.5856 84.0999C93.0197 83.8277 93.5457 83.6916 94.1638 83.6916C94.7524 83.6916 95.2601 83.8203 95.6869 84.0779C96.121 84.3354 96.4484 84.7254 96.6691 85.2478C96.8899 85.7628 96.9745 86.4103 96.923 87.1902H92.2213V86.3404H96.2497L95.731 86.7377C95.8267 86.0976 95.731 85.5789 95.4441 85.1815C95.1645 84.7842 94.7304 84.5856 94.1417 84.5856C93.6267 84.5856 93.1999 84.7658 92.8615 85.1264C92.523 85.4869 92.3538 86.0755 92.3538 86.8922C92.3538 87.6648 92.5157 88.2424 92.8394 88.625C93.1631 89.0002 93.623 89.1879 94.219 89.1879C94.6752 89.1879 95.0431 89.0849 95.3227 88.8788C95.6023 88.6728 95.7752 88.3859 95.8414 88.018L96.8457 88.2498C96.7721 88.625 96.6176 88.9524 96.3822 89.232C96.1467 89.5116 95.8451 89.7323 95.4772 89.8942C95.1093 90.0487 94.6862 90.126 94.208 90.126ZM97.6171 90.0156V83.802H98.6325L98.6987 84.718C98.8606 84.4016 99.0666 84.1588 99.3167 83.9896C99.5743 83.8203 99.8686 83.7357 100.2 83.7357C100.428 83.7357 100.597 83.7578 100.707 83.802V84.8725H100.63C100.571 84.8504 100.501 84.8357 100.42 84.8284C100.347 84.8137 100.273 84.8063 100.2 84.8063C99.7803 84.8063 99.4418 84.9351 99.1843 85.1926C98.9341 85.4501 98.7907 85.7959 98.7539 86.23V90.0156H97.6171ZM102.081 91.9471C101.97 91.9471 101.845 91.936 101.706 91.9139C101.566 91.8919 101.452 91.8661 101.363 91.8367V90.9096H101.452C101.503 90.9317 101.562 90.9501 101.628 90.9648C101.702 90.9795 101.779 90.9869 101.86 90.9869C102.125 90.9869 102.335 90.9317 102.489 90.8213C102.651 90.7109 102.776 90.5417 102.864 90.3136L103.074 89.7839L100.734 83.802H101.959L102.997 86.7046C103.041 86.8223 103.103 86.9989 103.184 87.2344C103.265 87.4625 103.35 87.72 103.438 88.0069C103.534 88.2865 103.619 88.5661 103.692 88.8457H103.626C103.714 88.5588 103.791 88.3049 103.858 88.0842C103.924 87.8635 103.994 87.6464 104.067 87.433C104.148 87.2197 104.237 86.9768 104.332 86.7046L105.381 83.802H106.506L103.935 90.5564C103.802 90.917 103.644 91.1966 103.46 91.3952C103.276 91.6012 103.07 91.7447 102.842 91.8256C102.614 91.9066 102.36 91.9471 102.081 91.9471ZM109.396 90.126C108.792 90.126 108.266 89.9936 107.817 89.7287C107.376 89.4564 107.034 89.0812 106.791 88.6029C106.548 88.1247 106.427 87.5655 106.427 86.9253C106.427 86.2705 106.548 85.7039 106.791 85.2257C107.041 84.7401 107.387 84.3648 107.828 84.0999C108.277 83.8277 108.8 83.6916 109.396 83.6916C109.991 83.6916 110.51 83.8277 110.952 84.0999C111.393 84.3648 111.735 84.7401 111.978 85.2257C112.221 85.7039 112.342 86.2668 112.342 86.9143C112.342 87.5618 112.221 88.1283 111.978 88.614C111.735 89.0922 111.393 89.4638 110.952 89.7287C110.51 89.9936 109.991 90.126 109.396 90.126ZM109.384 89.1548C109.958 89.1548 110.404 88.9561 110.72 88.5588C111.044 88.1615 111.206 87.6096 111.206 86.9033C111.206 86.1896 111.044 85.6377 110.72 85.2478C110.404 84.8578 109.962 84.6628 109.396 84.6628C108.814 84.6628 108.362 84.8652 108.038 85.2698C107.722 85.6672 107.563 86.2153 107.563 86.9143C107.563 87.6207 107.722 88.1725 108.038 88.5698C108.362 88.9598 108.811 89.1548 109.384 89.1548ZM113.139 90.0156V83.802H114.176L114.242 84.7401C114.507 84.3795 114.805 84.1147 115.136 83.9454C115.468 83.7762 115.846 83.6916 116.273 83.6916C116.899 83.6916 117.41 83.8719 117.807 84.2324C118.212 84.5856 118.414 85.13 118.414 85.8658V90.0156H117.289V85.9762C117.289 85.5862 117.178 85.2772 116.957 85.0491C116.737 84.821 116.402 84.707 115.953 84.707C115.651 84.707 115.372 84.7732 115.114 84.9056C114.857 85.0307 114.651 85.2147 114.496 85.4575C114.349 85.7003 114.276 85.9909 114.276 86.3294V90.0156H113.139ZM122.179 90.126C121.583 90.126 121.061 90.0009 120.612 89.7507C120.17 89.4932 119.825 89.1253 119.574 88.6471C119.332 88.1688 119.21 87.5912 119.21 86.9143C119.21 86.2668 119.324 85.7039 119.552 85.2257C119.788 84.7401 120.123 84.3648 120.557 84.0999C120.991 83.8277 121.517 83.6916 122.135 83.6916C122.724 83.6916 123.231 83.8203 123.658 84.0779C124.092 84.3354 124.42 84.7254 124.64 85.2478C124.861 85.7628 124.946 86.4103 124.894 87.1902H120.193V86.3404H124.221L123.702 86.7377C123.798 86.0976 123.702 85.5789 123.415 85.1815C123.136 84.7842 122.702 84.5856 122.113 84.5856C121.598 84.5856 121.171 84.7658 120.833 85.1264C120.494 85.4869 120.325 86.0755 120.325 86.8922C120.325 87.6648 120.487 88.2424 120.811 88.625C121.134 89.0002 121.594 89.1879 122.19 89.1879C122.646 89.1879 123.014 89.0849 123.294 88.8788C123.573 88.6728 123.746 88.3859 123.813 88.018L124.817 88.2498C124.743 88.625 124.589 88.9524 124.353 89.232C124.118 89.5116 123.816 89.7323 123.448 89.8942C123.08 90.0487 122.657 90.126 122.179 90.126ZM128.892 90.0156L127.082 83.802H128.263L129.532 88.9009L130.724 83.802H131.993L133.218 88.8457L134.465 83.802H135.602L133.836 90.0156H132.545L131.364 85.1595L130.227 90.0156H128.892ZM136.249 90.0156V83.802H137.385V90.0156H136.249ZM136.304 82.7755V81.3408H137.341V82.7755H136.304ZM140.209 90.0929C139.797 90.0929 139.481 90.0046 139.26 89.828C139.046 89.6441 138.94 89.3829 138.94 89.0444V82.0692L140.043 81.9588V88.5809C140.043 88.8089 140.077 88.9598 140.143 89.0334C140.216 89.1069 140.356 89.1437 140.562 89.1437C140.673 89.1437 140.765 89.14 140.838 89.1327C140.919 89.1253 140.989 89.1143 141.048 89.0996V90.0046C140.886 90.034 140.735 90.0561 140.595 90.0708C140.455 90.0855 140.327 90.0929 140.209 90.0929ZM138.112 84.6849V83.802H139.492V84.6849H138.112ZM141.048 84.6849H139.492V83.802H141.048V84.6849ZM141.639 90.0156V81.2966H142.775V84.6739C143.033 84.328 143.323 84.0742 143.647 83.9123C143.978 83.7504 144.354 83.6695 144.773 83.6695C145.398 83.6695 145.91 83.8498 146.307 84.2103C146.712 84.5635 146.914 85.108 146.914 85.8437V90.0156H145.788V85.9541C145.788 85.5641 145.678 85.2551 145.457 85.027C145.236 84.7989 144.902 84.6849 144.453 84.6849C144.151 84.6849 143.872 84.7511 143.614 84.8836C143.357 85.0086 143.151 85.1926 142.996 85.4354C142.849 85.6782 142.775 85.9688 142.775 86.3073V90.0156H141.639ZM151.818 90.0929C151.406 90.0929 151.09 90.0046 150.869 89.828C150.656 89.6441 150.549 89.3829 150.549 89.0444V82.0692L151.653 81.9588V88.5809C151.653 88.8089 151.686 88.9598 151.752 89.0334C151.826 89.1069 151.965 89.1437 152.171 89.1437C152.282 89.1437 152.374 89.14 152.447 89.1327C152.528 89.1253 152.598 89.1143 152.657 89.0996V90.0046C152.495 90.034 152.344 90.0561 152.205 90.0708C152.065 90.0855 151.936 90.0929 151.818 90.0929ZM149.721 84.6849V83.802H151.101V84.6849H149.721ZM152.657 84.6849H151.101V83.802H152.657V84.6849ZM153.248 90.0156V81.2966H154.385V84.6739C154.642 84.328 154.933 84.0742 155.256 83.9123C155.588 83.7504 155.963 83.6695 156.382 83.6695C157.008 83.6695 157.519 83.8498 157.916 84.2103C158.321 84.5635 158.523 85.108 158.523 85.8437V90.0156H157.398V85.9541C157.398 85.5641 157.287 85.2551 157.066 85.027C156.846 84.7989 156.511 84.6849 156.062 84.6849C155.76 84.6849 155.481 84.7511 155.223 84.8836C154.966 85.0086 154.76 85.1926 154.605 85.4354C154.458 85.6782 154.385 85.9688 154.385 86.3073V90.0156H153.248ZM162.288 90.126C161.692 90.126 161.17 90.0009 160.721 89.7507C160.279 89.4932 159.934 89.1253 159.683 88.6471C159.441 88.1688 159.319 87.5912 159.319 86.9143C159.319 86.2668 159.433 85.7039 159.661 85.2257C159.897 84.7401 160.232 84.3648 160.666 84.0999C161.1 83.8277 161.626 83.6916 162.244 83.6916C162.833 83.6916 163.34 83.8203 163.767 84.0779C164.201 84.3354 164.529 84.7254 164.749 85.2478C164.97 85.7628 165.055 86.4103 165.003 87.1902H160.302V86.3404H164.33L163.811 86.7377C163.907 86.0976 163.811 85.5789 163.524 85.1815C163.245 84.7842 162.811 84.5856 162.222 84.5856C161.707 84.5856 161.28 84.7658 160.942 85.1264C160.603 85.4869 160.434 86.0755 160.434 86.8922C160.434 87.6648 160.596 88.2424 160.92 88.625C161.243 89.0002 161.703 89.1879 162.299 89.1879C162.755 89.1879 163.123 89.0849 163.403 88.8788C163.682 88.6728 163.855 88.3859 163.922 88.018L164.926 88.2498C164.852 88.625 164.698 88.9524 164.462 89.232C164.227 89.5116 163.925 89.7323 163.557 89.8942C163.189 90.0487 162.766 90.126 162.288 90.126ZM167.864 90.0156V81.2966H168.99V90.0156H167.864ZM170.117 90.0156V83.802H171.254V90.0156H170.117ZM170.172 82.7755V81.3408H171.21V82.7755H170.172ZM172.715 90.0156V83.802H173.753L173.819 84.7401C174.084 84.3795 174.382 84.1147 174.713 83.9454C175.044 83.7762 175.423 83.6916 175.849 83.6916C176.475 83.6916 176.986 83.8719 177.384 84.2324C177.788 84.5856 177.991 85.13 177.991 85.8658V90.0156H176.865V85.9762C176.865 85.5862 176.754 85.2772 176.534 85.0491C176.313 84.821 175.978 84.707 175.529 84.707C175.228 84.707 174.948 84.7732 174.691 84.9056C174.433 85.0307 174.227 85.2147 174.073 85.4575C173.925 85.7003 173.852 85.9909 173.852 86.3294V90.0156H172.715ZM183.29 90.0156L181.215 86.826L180.122 87.8524L180.133 86.5832L182.98 83.802H184.404L181.888 86.1859V85.91L184.636 90.0156H183.29ZM179.118 90.0156V81.2966H180.254V90.0156H179.118ZM189.688 90.115C189.092 90.115 188.574 89.9825 188.132 89.7176C187.691 89.4454 187.349 89.0701 187.106 88.5919C186.863 88.1063 186.742 87.5434 186.742 86.9033C186.742 86.2558 186.863 85.6929 187.106 85.2147C187.356 84.729 187.702 84.3538 188.143 84.0889C188.592 83.824 189.114 83.6916 189.71 83.6916C190.461 83.6916 191.064 83.8902 191.52 84.2876C191.984 84.6775 192.256 85.1926 192.337 85.8327L191.234 85.9651C191.189 85.531 191.028 85.2073 190.748 84.9939C190.468 84.7805 190.111 84.6739 189.677 84.6739C189.133 84.6739 188.699 84.8725 188.375 85.2698C188.059 85.6598 187.9 86.2043 187.9 86.9033C187.9 87.5949 188.059 88.1394 188.375 88.5367C188.691 88.934 189.126 89.1327 189.677 89.1327C190.111 89.1327 190.468 89.0223 190.748 88.8016C191.028 88.5809 191.189 88.2681 191.234 87.8635L192.337 87.9959C192.278 88.4447 192.128 88.8273 191.885 89.1437C191.649 89.4601 191.344 89.7029 190.969 89.8721C190.593 90.034 190.167 90.115 189.688 90.115ZM194.777 90.126C194.129 90.126 193.625 89.9678 193.265 89.6514C192.911 89.3277 192.735 88.9083 192.735 88.3932C192.735 87.9812 192.827 87.6464 193.011 87.3889C193.202 87.1314 193.449 86.9327 193.75 86.7929C194.052 86.6457 194.379 86.5391 194.733 86.4728L196.035 86.23C196.366 86.1712 196.583 86.0829 196.686 85.9651C196.789 85.8401 196.841 85.6782 196.841 85.4795C196.841 85.222 196.749 85.0086 196.565 84.8394C196.381 84.6628 196.046 84.5745 195.56 84.5745C195.089 84.5745 194.714 84.6665 194.435 84.8504C194.155 85.0344 194.019 85.3177 194.026 85.7003L192.956 85.5899C192.97 84.9792 193.213 84.512 193.684 84.1882C194.162 83.8571 194.788 83.6916 195.56 83.6916C196.075 83.6916 196.509 83.7615 196.863 83.9013C197.223 84.0337 197.495 84.2397 197.679 84.5193C197.871 84.7989 197.966 85.1484 197.966 85.5678V88.7023C197.966 88.923 198.007 89.0665 198.088 89.1327C198.169 89.1989 198.257 89.232 198.353 89.232C198.411 89.232 198.456 89.232 198.485 89.232C198.514 89.2247 198.533 89.2173 198.54 89.2099H198.606V90.0156C198.533 90.0451 198.434 90.0671 198.308 90.0818C198.191 90.0966 198.102 90.1039 198.044 90.1039C197.727 90.1039 197.47 90.0267 197.271 89.8721C197.08 89.7176 196.984 89.4822 196.984 89.1658V88.9671C196.83 89.313 196.55 89.5926 196.145 89.8059C195.741 90.0193 195.284 90.126 194.777 90.126ZM195.064 89.221C195.505 89.221 195.884 89.129 196.2 88.9451C196.524 88.7538 196.741 88.4889 196.852 88.1504V86.7267L196.973 86.7708C196.899 86.8444 196.782 86.9033 196.62 86.9474C196.465 86.9916 196.245 87.0431 195.958 87.1019L195.042 87.2896C194.578 87.3852 194.269 87.525 194.114 87.709C193.967 87.8929 193.894 88.0916 193.894 88.3049C193.894 88.6213 194.004 88.8531 194.225 89.0002C194.446 89.1474 194.725 89.221 195.064 89.221ZM199.123 90.0156V83.802H200.161L200.227 84.7401C200.492 84.3795 200.79 84.1147 201.121 83.9454C201.452 83.7762 201.831 83.6916 202.258 83.6916C202.883 83.6916 203.395 83.8719 203.792 84.2324C204.197 84.5856 204.399 85.13 204.399 85.8658V90.0156H203.273V85.9762C203.273 85.5862 203.163 85.2772 202.942 85.0491C202.721 84.821 202.387 84.707 201.938 84.707C201.636 84.707 201.357 84.7732 201.099 84.9056C200.841 85.0307 200.635 85.2147 200.481 85.4575C200.334 85.7003 200.26 85.9909 200.26 86.3294V90.0156H199.123ZM209.458 90.126C208.81 90.126 208.306 89.9678 207.946 89.6514C207.592 89.3277 207.416 88.9083 207.416 88.3932C207.416 87.9812 207.508 87.6464 207.692 87.3889C207.883 87.1314 208.13 86.9327 208.431 86.7929C208.733 86.6457 209.06 86.5391 209.414 86.4728L210.716 86.23C211.047 86.1712 211.264 86.0829 211.367 85.9651C211.47 85.8401 211.522 85.6782 211.522 85.4795C211.522 85.222 211.43 85.0086 211.246 84.8394C211.062 84.6628 210.727 84.5745 210.241 84.5745C209.77 84.5745 209.395 84.6665 209.116 84.8504C208.836 85.0344 208.7 85.3177 208.707 85.7003L207.637 85.5899C207.651 84.9792 207.894 84.512 208.365 84.1882C208.843 83.8571 209.469 83.6916 210.241 83.6916C210.756 83.6916 211.19 83.7615 211.544 83.9013C211.904 84.0337 212.176 84.2397 212.36 84.5193C212.552 84.7989 212.647 85.1484 212.647 85.5678V88.7023C212.647 88.923 212.688 89.0665 212.769 89.1327C212.85 89.1989 212.938 89.232 213.034 89.232C213.092 89.232 213.137 89.232 213.166 89.232C213.195 89.2247 213.214 89.2173 213.221 89.2099H213.287V90.0156C213.214 90.0451 213.114 90.0671 212.989 90.0818C212.872 90.0966 212.783 90.1039 212.725 90.1039C212.408 90.1039 212.151 90.0267 211.952 89.8721C211.761 89.7176 211.665 89.4822 211.665 89.1658V88.9671C211.51 89.313 211.231 89.5926 210.826 89.8059C210.422 90.0193 209.965 90.126 209.458 90.126ZM209.745 89.221C210.186 89.221 210.565 89.129 210.881 88.9451C211.205 88.7538 211.422 88.4889 211.533 88.1504V86.7267L211.654 86.7708C211.58 86.8444 211.463 86.9033 211.301 86.9474C211.146 86.9916 210.926 87.0431 210.639 87.1019L209.723 87.2896C209.259 87.3852 208.95 87.525 208.795 87.709C208.648 87.8929 208.575 88.0916 208.575 88.3049C208.575 88.6213 208.685 88.8531 208.906 89.0002C209.127 89.1474 209.406 89.221 209.745 89.221ZM216.312 90.115C215.716 90.115 215.198 89.9825 214.756 89.7176C214.315 89.4454 213.973 89.0701 213.73 88.5919C213.487 88.1063 213.366 87.5434 213.366 86.9033C213.366 86.2558 213.487 85.6929 213.73 85.2147C213.98 84.729 214.326 84.3538 214.767 84.0889C215.216 83.824 215.738 83.6916 216.334 83.6916C217.085 83.6916 217.688 83.8902 218.144 84.2876C218.608 84.6775 218.88 85.1926 218.961 85.8327L217.857 85.9651C217.813 85.531 217.651 85.2073 217.372 84.9939C217.092 84.7805 216.735 84.6739 216.301 84.6739C215.757 84.6739 215.323 84.8725 214.999 85.2698C214.683 85.6598 214.524 86.2043 214.524 86.9033C214.524 87.5949 214.683 88.1394 214.999 88.5367C215.315 88.934 215.749 89.1327 216.301 89.1327C216.735 89.1327 217.092 89.0223 217.372 88.8016C217.651 88.5809 217.813 88.2681 217.857 87.8635L218.961 87.9959C218.902 88.4447 218.751 88.8273 218.509 89.1437C218.273 89.4601 217.968 89.7029 217.593 89.8721C217.217 90.034 216.791 90.115 216.312 90.115ZM222.295 90.115C221.699 90.115 221.18 89.9825 220.738 89.7176C220.297 89.4454 219.955 89.0701 219.712 88.5919C219.469 88.1063 219.348 87.5434 219.348 86.9033C219.348 86.2558 219.469 85.6929 219.712 85.2147C219.962 84.729 220.308 84.3538 220.749 84.0889C221.198 83.824 221.721 83.6916 222.317 83.6916C223.067 83.6916 223.67 83.8902 224.127 84.2876C224.59 84.6775 224.862 85.1926 224.943 85.8327L223.84 85.9651C223.796 85.531 223.634 85.2073 223.354 84.9939C223.075 84.7805 222.718 84.6739 222.284 84.6739C221.739 84.6739 221.305 84.8725 220.981 85.2698C220.665 85.6598 220.507 86.2043 220.507 86.9033C220.507 87.5949 220.665 88.1394 220.981 88.5367C221.298 88.934 221.732 89.1327 222.284 89.1327C222.718 89.1327 223.075 89.0223 223.354 88.8016C223.634 88.5809 223.796 88.2681 223.84 87.8635L224.943 87.9959C224.885 88.4447 224.734 88.8273 224.491 89.1437C224.255 89.4601 223.95 89.7029 223.575 89.8721C223.2 90.034 222.773 90.115 222.295 90.115ZM228.299 90.126C227.703 90.126 227.181 90.0009 226.732 89.7507C226.29 89.4932 225.944 89.1253 225.694 88.6471C225.451 88.1688 225.33 87.5912 225.33 86.9143C225.33 86.2668 225.444 85.7039 225.672 85.2257C225.908 84.7401 226.242 84.3648 226.677 84.0999C227.111 83.8277 227.637 83.6916 228.255 83.6916C228.843 83.6916 229.351 83.8203 229.778 84.0779C230.212 84.3354 230.539 84.7254 230.76 85.2478C230.981 85.7628 231.065 86.4103 231.014 87.1902H226.312V86.3404H230.341L229.822 86.7377C229.918 86.0976 229.822 85.5789 229.535 85.1815C229.255 84.7842 228.821 84.5856 228.233 84.5856C227.718 84.5856 227.291 84.7658 226.952 85.1264C226.614 85.4869 226.445 86.0755 226.445 86.8922C226.445 87.6648 226.607 88.2424 226.93 88.625C227.254 89.0002 227.714 89.1879 228.31 89.1879C228.766 89.1879 229.134 89.0849 229.414 88.8788C229.693 88.6728 229.866 88.3859 229.932 88.018L230.937 88.2498C230.863 88.625 230.709 88.9524 230.473 89.232C230.238 89.5116 229.936 89.7323 229.568 89.8942C229.2 90.0487 228.777 90.126 228.299 90.126ZM233.905 90.126C233.125 90.126 232.5 89.9457 232.029 89.5852C231.558 89.2247 231.311 88.728 231.289 88.0952L232.393 87.9738C232.393 88.3564 232.533 88.6691 232.812 88.912C233.092 89.1548 233.467 89.2762 233.938 89.2762C234.343 89.2762 234.666 89.2063 234.909 89.0665C235.159 88.9193 235.284 88.6765 235.284 88.338C235.284 88.132 235.237 87.9702 235.141 87.8524C235.045 87.7347 234.909 87.6427 234.733 87.5765C234.563 87.5029 234.365 87.4441 234.137 87.3999C233.909 87.3558 233.662 87.3043 233.397 87.2454C232.978 87.1498 232.632 87.0247 232.36 86.8702C232.087 86.7156 231.885 86.5243 231.753 86.2963C231.62 86.0608 231.554 85.7849 231.554 85.4685C231.554 85.108 231.65 84.7953 231.841 84.5304C232.032 84.2655 232.305 84.0595 232.658 83.9123C233.011 83.7652 233.427 83.6916 233.905 83.6916C234.383 83.6916 234.803 83.7615 235.163 83.9013C235.524 84.0411 235.807 84.2508 236.013 84.5304C236.226 84.81 236.344 85.1631 236.366 85.5899L235.273 85.7334C235.273 85.3728 235.159 85.0822 234.931 84.8615C234.703 84.6407 234.35 84.5304 233.872 84.5304C233.497 84.5304 233.206 84.6113 233 84.7732C232.801 84.9277 232.702 85.13 232.702 85.3802C232.702 85.5936 232.761 85.7665 232.878 85.8989C233.004 86.024 233.195 86.127 233.452 86.208C233.71 86.2889 234.041 86.3698 234.446 86.4508C234.755 86.5096 235.034 86.5832 235.284 86.6715C235.535 86.7524 235.744 86.8628 235.914 87.0026C236.09 87.1424 236.223 87.319 236.311 87.5324C236.407 87.7384 236.454 87.9959 236.454 88.3049C236.454 88.8494 236.245 89.2909 235.825 89.6293C235.413 89.9604 234.773 90.126 233.905 90.126ZM239.456 90.126C238.676 90.126 238.051 89.9457 237.58 89.5852C237.109 89.2247 236.862 88.728 236.84 88.0952L237.944 87.9738C237.944 88.3564 238.084 88.6691 238.363 88.912C238.643 89.1548 239.018 89.2762 239.489 89.2762C239.894 89.2762 240.218 89.2063 240.46 89.0665C240.71 88.9193 240.836 88.6765 240.836 88.338C240.836 88.132 240.788 87.9702 240.692 87.8524C240.596 87.7347 240.46 87.6427 240.284 87.5765C240.115 87.5029 239.916 87.4441 239.688 87.3999C239.46 87.3558 239.213 87.3043 238.948 87.2454C238.529 87.1498 238.183 87.0247 237.911 86.8702C237.639 86.7156 237.436 86.5243 237.304 86.2963C237.171 86.0608 237.105 85.7849 237.105 85.4685C237.105 85.108 237.201 84.7953 237.392 84.5304C237.583 84.2655 237.856 84.0595 238.209 83.9123C238.562 83.7652 238.978 83.6916 239.456 83.6916C239.934 83.6916 240.354 83.7615 240.714 83.9013C241.075 84.0411 241.358 84.2508 241.564 84.5304C241.777 84.81 241.895 85.1631 241.917 85.5899L240.825 85.7334C240.825 85.3728 240.71 85.0822 240.482 84.8615C240.254 84.6407 239.901 84.5304 239.423 84.5304C239.048 84.5304 238.757 84.6113 238.551 84.7732C238.352 84.9277 238.253 85.13 238.253 85.3802C238.253 85.5936 238.312 85.7665 238.43 85.8989C238.555 86.024 238.746 86.127 239.003 86.208C239.261 86.2889 239.592 86.3698 239.997 86.4508C240.306 86.5096 240.585 86.5832 240.836 86.6715C241.086 86.7524 241.295 86.8628 241.465 87.0026C241.641 87.1424 241.774 87.319 241.862 87.5324C241.958 87.7384 242.005 87.9959 242.005 88.3049C242.005 88.8494 241.796 89.2909 241.376 89.6293C240.964 89.9604 240.324 90.126 239.456 90.126Z" fill="#343331"/>
<g clip-path="url(#clip0_6984_16529)">
<path d="M37.2412 78.6269C37.2412 80.0245 37.5165 81.4084 38.0513 82.6997C38.5862 83.9909 39.3701 85.1641 40.3583 86.1523C41.3466 87.1406 42.5198 87.9245 43.811 88.4594C45.1022 88.9942 46.4862 89.2695 47.8838 89.2695C49.2814 89.2695 50.6653 88.9942 51.9565 88.4594C53.2477 87.9245 54.4209 87.1406 55.4092 86.1523C56.3974 85.1641 57.1814 83.9909 57.7162 82.6997C58.251 81.4084 58.5263 80.0245 58.5263 78.6269C58.5263 75.8043 57.405 73.0974 55.4092 71.1015C53.4133 69.1056 50.7063 67.9844 47.8838 67.9844C45.0612 67.9844 42.3542 69.1056 40.3583 71.1015C38.3625 73.0974 37.2412 75.8043 37.2412 78.6269Z" stroke="#DAD9D6" stroke-width="1.18251" stroke-linecap="round" stroke-linejoin="round"/>
<path d="M37.9521 75.0801H57.8182" stroke="#DAD9D6" stroke-width="1.18251" stroke-linecap="round" stroke-linejoin="round"/>
<path d="M37.9521 82.1758H57.8182" stroke="#DAD9D6" stroke-width="1.18251" stroke-linecap="round" stroke-linejoin="round"/>
<path d="M47.2914 67.9844C45.2993 71.1767 44.2432 74.864 44.2432 78.6269C44.2432 82.3898 45.2993 86.0772 47.2914 89.2695" stroke="#DAD9D6" stroke-width="1.18251" stroke-linecap="round" stroke-linejoin="round"/>
<path d="M48.4746 67.9844C50.4667 71.1767 51.5229 74.864 51.5229 78.6269C51.5229 82.3898 50.4667 86.0772 48.4746 89.2695" stroke="#DAD9D6" stroke-width="1.18251" stroke-linecap="round" stroke-linejoin="round"/>
</g>
<rect x="363.086" y="66.2207" width="43.3585" height="23.6501" rx="11.8251" fill="#A57CFF"/>
<circle cx="394.62" cy="78.0455" r="7.88337" fill="#FDFDFD"/>
<rect x="16.9489" y="124.951" width="399.102" height="26.8035" rx="13.4017" stroke="#DAD9D6" stroke-width="0.788337"/>
<path opacity="0.4" d="M33.1049 142.557V133.838H34.2306V142.557H33.1049ZM35.7994 142.557V136.343H36.9362V142.557H35.7994ZM35.8546 135.317V133.882H36.892V135.317H35.8546ZM38.8388 142.557V136.343H39.8763L39.9425 137.281C40.2074 136.921 40.5054 136.656 40.8365 136.486C41.1676 136.317 41.5465 136.233 41.9732 136.233C42.5987 136.233 43.11 136.413 43.5073 136.773C43.912 137.127 44.1144 137.671 44.1144 138.407V142.557H42.9886V138.517C42.9886 138.127 42.8783 137.818 42.6575 137.59C42.4368 137.362 42.102 137.248 41.6532 137.248C41.3515 137.248 41.0719 137.314 40.8144 137.447C40.5569 137.572 40.3508 137.756 40.1963 137.998C40.0492 138.241 39.9756 138.532 39.9756 138.87V142.557H38.8388ZM49.8548 142.557L47.7799 139.367L46.6872 140.393L46.6983 139.124L49.5457 136.343H50.9695L48.4531 138.727V138.451L51.2012 142.557H49.8548ZM45.6829 142.557V133.838H46.8197V142.557H45.6829ZM51.7039 142.557V141.298H52.8628V142.557H51.7039ZM53.9712 144.4V136.343H55.0086L55.0859 137.402C55.2625 137.035 55.5347 136.748 55.9026 136.542C56.2705 136.336 56.6899 136.233 57.1608 136.233C57.7126 136.233 58.1872 136.361 58.5845 136.619C58.9819 136.876 59.2872 137.244 59.5006 137.723C59.7213 138.193 59.8317 138.753 59.8317 139.4C59.8317 140.062 59.7213 140.64 59.5006 141.133C59.2799 141.619 58.9671 141.997 58.5625 142.27C58.1578 142.535 57.6832 142.667 57.1387 142.667C56.6973 142.667 56.2963 142.575 55.9357 142.391C55.5825 142.2 55.303 141.917 55.0969 141.541V144.4H53.9712ZM55.0969 139.753C55.0969 140.143 55.1705 140.485 55.3177 140.78C55.4648 141.067 55.6745 141.291 55.9468 141.453C56.219 141.607 56.5391 141.685 56.907 141.685C57.4735 141.685 57.9076 141.49 58.2093 141.1C58.5183 140.702 58.6728 140.136 58.6728 139.4C58.6728 138.701 58.5183 138.16 58.2093 137.778C57.9076 137.395 57.4772 137.204 56.918 137.204C56.5575 137.204 56.2374 137.281 55.9578 137.436C55.6856 137.59 55.4722 137.811 55.3177 138.098C55.1705 138.377 55.0969 138.709 55.0969 139.091V139.753ZM62.7849 142.667C62.1374 142.667 61.6334 142.509 61.2728 142.192C60.9197 141.869 60.7431 141.449 60.7431 140.934C60.7431 140.522 60.8351 140.187 61.019 139.93C61.2103 139.672 61.4568 139.474 61.7585 139.334C62.0601 139.187 62.3875 139.08 62.7407 139.014L64.0431 138.771C64.3742 138.712 64.5912 138.624 64.6942 138.506C64.7972 138.381 64.8487 138.219 64.8487 138.021C64.8487 137.763 64.7568 137.55 64.5728 137.38C64.3889 137.204 64.0541 137.116 63.5685 137.116C63.0976 137.116 62.7223 137.208 62.4427 137.391C62.1631 137.575 62.027 137.859 62.0344 138.241L60.9638 138.131C60.9785 137.52 61.2213 137.053 61.6922 136.729C62.1705 136.398 62.7959 136.233 63.5685 136.233C64.0835 136.233 64.5176 136.303 64.8708 136.442C65.2313 136.575 65.5036 136.781 65.6875 137.06C65.8788 137.34 65.9745 137.689 65.9745 138.109V141.243C65.9745 141.464 66.0149 141.607 66.0959 141.674C66.1768 141.74 66.2651 141.773 66.3608 141.773C66.4196 141.773 66.4638 141.773 66.4932 141.773C66.5226 141.766 66.541 141.758 66.5484 141.751H66.6146V142.557C66.541 142.586 66.4417 142.608 66.3166 142.623C66.1989 142.638 66.1106 142.645 66.0517 142.645C65.7354 142.645 65.4778 142.568 65.2792 142.413C65.0879 142.259 64.9922 142.023 64.9922 141.707V141.508C64.8377 141.854 64.5581 142.134 64.1534 142.347C63.7487 142.56 63.2926 142.667 62.7849 142.667ZM63.0718 141.762C63.5133 141.762 63.8922 141.67 64.2086 141.486C64.5324 141.295 64.7494 141.03 64.8598 140.691V139.268L64.9812 139.312C64.9076 139.385 64.7899 139.444 64.628 139.488C64.4735 139.533 64.2528 139.584 63.9658 139.643L63.0498 139.831C62.5862 139.926 62.2772 140.066 62.1227 140.25C61.9755 140.434 61.9019 140.633 61.9019 140.846C61.9019 141.162 62.0123 141.394 62.233 141.541C62.4538 141.688 62.7334 141.762 63.0718 141.762ZM67.5731 142.557V136.343H68.5885L68.6547 137.259C68.8166 136.943 69.0226 136.7 69.2727 136.531C69.5303 136.361 69.8246 136.277 70.1557 136.277C70.3838 136.277 70.553 136.299 70.6634 136.343V137.414H70.5861C70.5272 137.391 70.4573 137.377 70.3764 137.369C70.3028 137.355 70.2293 137.347 70.1557 137.347C69.7363 137.347 69.3978 137.476 69.1403 137.734C68.8901 137.991 68.7467 138.337 68.7099 138.771V142.557H67.5731ZM73.1928 142.634C72.7808 142.634 72.4644 142.546 72.2437 142.369C72.0303 142.185 71.9236 141.924 71.9236 141.585V134.61L73.0273 134.5V141.122C73.0273 141.35 73.0604 141.501 73.1266 141.574C73.2002 141.648 73.34 141.685 73.546 141.685C73.6564 141.685 73.7484 141.681 73.8219 141.674C73.9029 141.666 73.9728 141.655 74.0316 141.641V142.546C73.8698 142.575 73.7189 142.597 73.5791 142.612C73.4393 142.627 73.3106 142.634 73.1928 142.634ZM71.0959 137.226V136.343H72.4755V137.226H71.0959ZM74.0316 137.226H72.4755V136.343H74.0316V137.226ZM77.2822 142.667C76.5023 142.667 75.8769 142.487 75.406 142.126C74.9351 141.766 74.6886 141.269 74.6665 140.636L75.7702 140.515C75.7702 140.897 75.91 141.21 76.1896 141.453C76.4692 141.696 76.8444 141.817 77.3153 141.817C77.72 141.817 78.0437 141.747 78.2865 141.607C78.5367 141.46 78.6618 141.218 78.6618 140.879C78.6618 140.673 78.614 140.511 78.5183 140.393C78.4227 140.276 78.2865 140.184 78.11 140.118C77.9407 140.044 77.7421 139.985 77.514 139.941C77.2859 139.897 77.0394 139.845 76.7745 139.786C76.3551 139.691 76.0093 139.566 75.7371 139.411C75.4648 139.257 75.2625 139.065 75.13 138.837C74.9976 138.602 74.9314 138.326 74.9314 138.01C74.9314 137.649 75.027 137.336 75.2183 137.071C75.4096 136.807 75.6819 136.6 76.0351 136.453C76.3882 136.306 76.8039 136.233 77.2822 136.233C77.7605 136.233 78.1799 136.303 78.5404 136.442C78.9009 136.582 79.1842 136.792 79.3902 137.071C79.6036 137.351 79.7213 137.704 79.7434 138.131L78.6508 138.274C78.6508 137.914 78.5367 137.623 78.3086 137.402C78.0805 137.182 77.7274 137.071 77.2491 137.071C76.8738 137.071 76.5832 137.152 76.3772 137.314C76.1785 137.469 76.0792 137.671 76.0792 137.921C76.0792 138.135 76.1381 138.308 76.2558 138.44C76.3809 138.565 76.5722 138.668 76.8297 138.749C77.0872 138.83 77.4183 138.911 77.823 138.992C78.132 139.051 78.4116 139.124 78.6618 139.213C78.912 139.293 79.1217 139.404 79.2909 139.544C79.4675 139.683 79.5999 139.86 79.6882 140.073C79.7839 140.279 79.8317 140.537 79.8317 140.846C79.8317 141.39 79.622 141.832 79.2026 142.17C78.7906 142.501 78.1504 142.667 77.2822 142.667ZM83.6721 142.656C83.0761 142.656 82.5574 142.524 82.1159 142.259C81.6745 141.986 81.3323 141.611 81.0895 141.133C80.8467 140.647 80.7253 140.084 80.7253 139.444C80.7253 138.797 80.8467 138.234 81.0895 137.756C81.3397 137.27 81.6855 136.895 82.127 136.63C82.5758 136.365 83.0982 136.233 83.6942 136.233C84.4447 136.233 85.048 136.431 85.5042 136.829C85.9678 137.219 86.24 137.734 86.3209 138.374L85.2173 138.506C85.1731 138.072 85.0112 137.748 84.7316 137.535C84.452 137.322 84.0952 137.215 83.6611 137.215C83.1166 137.215 82.6825 137.414 82.3587 137.811C82.0424 138.201 81.8842 138.745 81.8842 139.444C81.8842 140.136 82.0424 140.68 82.3587 141.078C82.6751 141.475 83.1092 141.674 83.6611 141.674C84.0952 141.674 84.452 141.563 84.7316 141.343C85.0112 141.122 85.1731 140.809 85.2173 140.404L86.3209 140.537C86.2621 140.986 86.1112 141.368 85.8684 141.685C85.633 142.001 85.3276 142.244 84.9524 142.413C84.5771 142.575 84.1504 142.656 83.6721 142.656ZM87.4262 142.557V133.838H88.552V142.557H87.4262ZM92.7801 142.667C92.1767 142.667 91.6507 142.535 91.2018 142.27C90.7604 141.997 90.4182 141.622 90.1754 141.144C89.9326 140.666 89.8112 140.106 89.8112 139.466C89.8112 138.812 89.9326 138.245 90.1754 137.767C90.4256 137.281 90.7714 136.906 91.2129 136.641C91.6617 136.369 92.1841 136.233 92.7801 136.233C93.3761 136.233 93.8948 136.369 94.3363 136.641C94.7777 136.906 95.1199 137.281 95.3627 137.767C95.6055 138.245 95.7269 138.808 95.7269 139.455C95.7269 140.103 95.6055 140.669 95.3627 141.155C95.1199 141.633 94.7777 142.005 94.3363 142.27C93.8948 142.535 93.3761 142.667 92.7801 142.667ZM92.769 141.696C93.343 141.696 93.7881 141.497 94.1045 141.1C94.4282 140.702 94.5901 140.151 94.5901 139.444C94.5901 138.731 94.4282 138.179 94.1045 137.789C93.7881 137.399 93.3466 137.204 92.7801 137.204C92.1988 137.204 91.7463 137.406 91.4226 137.811C91.1062 138.208 90.948 138.756 90.948 139.455C90.948 140.162 91.1062 140.714 91.4226 141.111C91.7463 141.501 92.1951 141.696 92.769 141.696ZM99.1611 142.667C98.4474 142.667 97.9029 142.476 97.5277 142.093C97.1524 141.703 96.9648 141.188 96.9648 140.548V136.343H98.1016V140.449C98.1016 140.831 98.2193 141.129 98.4548 141.343C98.6902 141.549 99.0029 141.652 99.3929 141.652C99.724 141.652 100.011 141.585 100.254 141.453C100.504 141.321 100.695 141.14 100.828 140.912C100.967 140.677 101.037 140.404 101.037 140.095V136.343H102.174V142.557H101.126L101.07 141.619C100.879 141.942 100.611 142.2 100.265 142.391C99.9263 142.575 99.5584 142.667 99.1611 142.667ZM103.413 139.488C103.413 138.826 103.523 138.252 103.744 137.767C103.965 137.274 104.278 136.895 104.682 136.63C105.087 136.365 105.562 136.233 106.106 136.233C106.577 136.233 106.985 136.328 107.331 136.52C107.677 136.711 107.949 136.987 108.148 137.347V133.838H109.274V142.557H108.225L108.148 141.497C107.971 141.858 107.699 142.145 107.331 142.358C106.971 142.564 106.551 142.667 106.073 142.667C105.528 142.667 105.054 142.538 104.649 142.281C104.252 142.016 103.947 141.648 103.733 141.177C103.52 140.699 103.413 140.136 103.413 139.488ZM104.572 139.488C104.572 140.195 104.723 140.739 105.024 141.122C105.326 141.504 105.757 141.696 106.316 141.696C106.684 141.696 107.004 141.619 107.276 141.464C107.556 141.302 107.769 141.081 107.916 140.802C108.071 140.515 108.148 140.184 108.148 139.808V139.146C108.148 138.749 108.074 138.407 107.927 138.12C107.78 137.826 107.57 137.601 107.298 137.447C107.026 137.285 106.702 137.204 106.327 137.204C105.768 137.204 105.333 137.402 105.024 137.8C104.723 138.197 104.572 138.76 104.572 139.488ZM110.39 142.557V141.298H111.549V142.557H110.39ZM115.112 142.656C114.516 142.656 113.997 142.524 113.555 142.259C113.114 141.986 112.772 141.611 112.529 141.133C112.286 140.647 112.165 140.084 112.165 139.444C112.165 138.797 112.286 138.234 112.529 137.756C112.779 137.27 113.125 136.895 113.567 136.63C114.015 136.365 114.538 136.233 115.134 136.233C115.884 136.233 116.488 136.431 116.944 136.829C117.407 137.219 117.68 137.734 117.76 138.374L116.657 138.506C116.613 138.072 116.451 137.748 116.171 137.535C115.892 137.322 115.535 137.215 115.101 137.215C114.556 137.215 114.122 137.414 113.798 137.811C113.482 138.201 113.324 138.745 113.324 139.444C113.324 140.136 113.482 140.68 113.798 141.078C114.115 141.475 114.549 141.674 115.101 141.674C115.535 141.674 115.892 141.563 116.171 141.343C116.451 141.122 116.613 140.809 116.657 140.404L117.76 140.537C117.702 140.986 117.551 141.368 117.308 141.685C117.073 142.001 116.767 142.244 116.392 142.413C116.017 142.575 115.59 142.656 115.112 142.656ZM121.557 142.667C120.954 142.667 120.428 142.535 119.979 142.27C119.538 141.997 119.196 141.622 118.953 141.144C118.71 140.666 118.589 140.106 118.589 139.466C118.589 138.812 118.71 138.245 118.953 137.767C119.203 137.281 119.549 136.906 119.99 136.641C120.439 136.369 120.961 136.233 121.557 136.233C122.153 136.233 122.672 136.369 123.114 136.641C123.555 136.906 123.897 137.281 124.14 137.767C124.383 138.245 124.504 138.808 124.504 139.455C124.504 140.103 124.383 140.669 124.14 141.155C123.897 141.633 123.555 142.005 123.114 142.27C122.672 142.535 122.153 142.667 121.557 142.667ZM121.546 141.696C122.12 141.696 122.565 141.497 122.882 141.1C123.206 140.702 123.367 140.151 123.367 139.444C123.367 138.731 123.206 138.179 122.882 137.789C122.565 137.399 122.124 137.204 121.557 137.204C120.976 137.204 120.524 137.406 120.2 137.811C119.884 138.208 119.725 138.756 119.725 139.455C119.725 140.162 119.884 140.714 120.2 141.111C120.524 141.501 120.973 141.696 121.546 141.696ZM125.742 142.557V136.343H126.769L126.846 137.336C127.052 136.961 127.32 136.685 127.652 136.509C127.983 136.325 128.339 136.233 128.722 136.233C129.149 136.233 129.528 136.339 129.859 136.553C130.19 136.766 130.433 137.082 130.587 137.502C130.779 137.09 131.055 136.777 131.415 136.564C131.783 136.343 132.184 136.233 132.618 136.233C133.28 136.233 133.788 136.428 134.141 136.818C134.494 137.2 134.671 137.712 134.671 138.352V142.557H133.534V138.539C133.534 138.127 133.435 137.811 133.236 137.59C133.037 137.362 132.747 137.248 132.364 137.248C132.055 137.248 131.779 137.318 131.536 137.458C131.294 137.597 131.102 137.8 130.963 138.065C130.83 138.322 130.764 138.631 130.764 138.992V142.557H129.638V138.639C129.638 138.227 129.542 137.892 129.351 137.634C129.16 137.377 128.858 137.248 128.446 137.248C128.137 137.248 127.865 137.322 127.629 137.469C127.394 137.616 127.21 137.818 127.078 138.076C126.945 138.326 126.879 138.613 126.879 138.937V142.557H125.742Z" fill="#343331"/>
<g clip-path="url(#clip1_6984_16529)">
<path d="M384.123 138.353C384.123 138.981 384.372 139.582 384.816 140.026C385.259 140.469 385.861 140.718 386.488 140.718C387.115 140.718 387.717 140.469 388.16 140.026C388.604 139.582 388.853 138.981 388.853 138.353C388.853 137.726 388.604 137.125 388.16 136.681C387.717 136.237 387.115 135.988 386.488 135.988C385.861 135.988 385.259 136.237 384.816 136.681C384.372 137.125 384.123 137.726 384.123 138.353Z" stroke="#343331" stroke-width="1.18251" stroke-linecap="round" stroke-linejoin="round"/>
<path d="M393.583 133.623C393.583 134.25 393.832 134.852 394.276 135.295C394.719 135.739 395.321 135.988 395.948 135.988C396.575 135.988 397.177 135.739 397.62 135.295C398.064 134.852 398.313 134.25 398.313 133.623C398.313 132.996 398.064 132.394 397.62 131.951C397.177 131.507 396.575 131.258 395.948 131.258C395.321 131.258 394.719 131.507 394.276 131.951C393.832 132.394 393.583 132.996 393.583 133.623Z" stroke="#343331" stroke-width="1.18251" stroke-linecap="round" stroke-linejoin="round"/>
<path d="M393.583 143.082C393.583 143.709 393.832 144.311 394.276 144.754C394.719 145.198 395.321 145.447 395.948 145.447C396.575 145.447 397.177 145.198 397.62 144.754C398.064 144.311 398.313 143.709 398.313 143.082C398.313 142.455 398.064 141.853 397.62 141.409C397.177 140.966 396.575 140.717 395.948 140.717C395.321 140.717 394.719 140.966 394.276 141.409C393.832 141.853 393.583 142.455 393.583 143.082Z" stroke="#343331" stroke-width="1.18251" stroke-linecap="round" stroke-linejoin="round"/>
<path d="M388.616 137.329L393.819 134.648" stroke="#343331" stroke-width="1.18251" stroke-linecap="round" stroke-linejoin="round"/>
<path d="M388.616 139.379L393.819 142.059" stroke="#343331" stroke-width="1.18251" stroke-linecap="round" stroke-linejoin="round"/>
</g>
<defs>
<clipPath id="clip0_6984_16529">
<rect width="28.3801" height="28.3801" fill="white" transform="translate(33.6934 64.4375)"/>
</clipPath>
<clipPath id="clip1_6984_16529">
<rect width="18.9201" height="18.9201" fill="white" transform="translate(381.758 128.893)"/>
</clipPath>
</defs>
</svg>
