<svg width="32" height="32" viewBox="0 0 32 32" fill="none" xmlns="http://www.w3.org/2000/svg">
<rect width="31.5609" height="31.5609" rx="5.53699" fill="#FA9349"/>
<rect x="0.27685" y="0.27685" width="31.0072" height="31.0072" rx="5.26014" stroke="url(#paint0_linear_6698_32977)" stroke-opacity="0.2" stroke-width="0.553699"/>
<g clip-path="url(#clip0_6698_32977)">
<path d="M15.3178 23.2087C15.086 23.1347 14.8777 23.0011 14.7139 22.8212C14.5501 22.6413 14.4365 22.4214 14.3844 22.1838C14.3312 21.9639 14.2268 21.7598 14.0797 21.5879C13.9326 21.4161 13.747 21.2814 13.5381 21.1948C13.3291 21.1082 13.1026 21.0722 12.8771 21.0897C12.6516 21.1072 12.4334 21.1777 12.2403 21.2954C10.9544 22.0788 9.48194 20.6071 10.2653 19.3204C10.3829 19.1274 10.4532 18.9093 10.4707 18.6839C10.4881 18.4586 10.4521 18.2323 10.3657 18.0234C10.2792 17.8146 10.1447 17.6291 9.973 17.482C9.80134 17.335 9.59741 17.2305 9.37777 17.1771C7.91444 16.8221 7.91444 14.7404 9.37777 14.3854C9.59761 14.3322 9.80176 14.2277 9.97361 14.0807C10.1455 13.9336 10.2802 13.748 10.3667 13.539C10.4533 13.3301 10.4893 13.1036 10.4718 12.8781C10.4543 12.6526 10.3839 12.4344 10.2661 12.2412C9.48277 10.9554 10.9544 9.48292 12.2411 10.2662C13.0744 10.7729 14.1544 10.3246 14.3844 9.37875C14.7394 7.91542 16.8211 7.91542 17.1761 9.37875C17.2294 9.59858 17.3338 9.80273 17.4809 9.97458C17.6279 10.1464 17.8135 10.2811 18.0225 10.3677C18.2315 10.4543 18.4579 10.4903 18.6834 10.4728C18.9089 10.4553 19.1271 10.3848 19.3203 10.2671C20.6061 9.48375 22.0786 10.9554 21.2953 12.2421C21.1777 12.4351 21.1073 12.6532 21.0899 12.8786C21.0724 13.1039 21.1084 13.3302 21.1949 13.5391C21.2814 13.7479 21.4159 13.9334 21.5875 14.0805C21.7592 14.2275 21.9631 14.332 22.1828 14.3854C23.2744 14.6504 23.5519 15.8771 23.0136 16.6304" stroke="white" stroke-linecap="round" stroke-linejoin="round"/>
<path d="M18.2803 21.6139L19.9469 23.2806L23.2803 19.9473" stroke="white" stroke-linecap="round" stroke-linejoin="round"/>
<path d="M13.2803 15.7812C13.2803 16.4443 13.5437 17.0802 14.0125 17.549C14.4813 18.0179 15.1172 18.2812 15.7803 18.2812C16.4433 18.2812 17.0792 18.0179 17.548 17.549C18.0169 17.0802 18.2803 16.4443 18.2803 15.7812C18.2803 15.1182 18.0169 14.4823 17.548 14.0135C17.0792 13.5446 16.4433 13.2812 15.7803 13.2812C15.1172 13.2812 14.4813 13.5446 14.0125 14.0135C13.5437 14.4823 13.2803 15.1182 13.2803 15.7812Z" stroke="white" stroke-linecap="round" stroke-linejoin="round"/>
</g>
<defs>
<linearGradient id="paint0_linear_6698_32977" x1="32.6433" y1="33.3331" x2="-4.22152" y2="12.7536" gradientUnits="userSpaceOnUse">
<stop stop-color="white" stop-opacity="0.2"/>
<stop offset="0.506386" stop-color="white"/>
<stop offset="1" stop-color="white" stop-opacity="0.2"/>
</linearGradient>
<clipPath id="clip0_6698_32977">
<rect width="20" height="20" fill="white" transform="translate(5.78027 5.78125)"/>
</clipPath>
</defs>
</svg>
