<svg width="120" height="30" viewBox="0 0 120 30" fill="none" xmlns="http://www.w3.org/2000/svg">
<g clip-path="url(#clip0_8858_20974)">
<path d="M22.9005 25.1004C21.3005 24.4004 20.3005 23.7004 20.3005 23.7004C16.1005 25.0004 10.8005 24.1004 7.10047 21.3004C1.50047 17.1004 0.000473499 9.10039 4.90047 3.60039L6.10047 2.40039V1.90039C5.50047 2.50039 4.30047 3.50039 3.60047 4.20039C-2.09953 10.4004 -0.899527 20.1004 6.20047 25.5004C12.0005 29.9004 20.7005 30.3004 26.5005 26.7004C26.5005 26.7004 24.7005 26.0004 22.9005 25.1004Z" fill="#FDFDFD"/>
<path d="M17.1002 16.0004C13.0002 16.0004 10.2002 13.7004 10.2002 10.4004V10.2004C10.2002 7.00039 13.2002 4.60039 17.2002 4.60039C19.9002 4.60039 21.7002 5.40039 22.8002 6.60039L20.9002 8.30039C20.0002 7.60039 19.0002 7.10039 17.6002 7.10039C15.6002 7.10039 14.2002 8.40039 14.2002 10.2004V10.5004C14.2002 12.4004 15.6002 13.6004 17.6002 13.6004C19.0002 13.6004 20.0002 13.2004 20.9002 12.3004L22.8002 14.0004C21.4002 15.3004 19.7002 16.0004 17.1002 16.0004ZM31.4002 16.0004C27.4002 16.0004 24.5002 13.6004 24.5002 10.4004V10.1004C24.5002 6.90039 27.5002 4.60039 31.4002 4.60039C35.3002 4.60039 38.3002 6.90039 38.3002 10.1004V10.4004C38.3002 13.7004 35.3002 16.0004 31.4002 16.0004ZM34.3002 10.1004C34.3002 8.40039 33.2002 7.10039 31.4002 7.10039C29.5002 7.10039 28.4002 8.40039 28.4002 10.1004V10.6004C28.4002 12.3004 29.4002 13.6004 31.4002 13.6004C33.3002 13.6004 34.3002 12.3004 34.3002 10.6004V10.1004ZM48.9002 16.0004C47.2002 16.0004 45.9002 15.5004 45.0002 14.5004V19.8004H41.1002V4.90039H44.0002L44.4002 6.80039C45.2002 5.60039 46.9002 4.60039 48.7002 4.60039C52.1002 4.60039 54.3002 7.10039 54.3002 10.2004V10.4004C54.3002 13.5004 51.7002 16.0004 48.9002 16.0004ZM50.3002 10.0004C50.3002 8.20039 49.3002 7.10039 47.7002 7.10039C46.1002 7.10039 45.0002 8.30039 45.0002 10.1004V10.8004C45.0002 12.6004 46.3002 13.7004 47.7002 13.7004C49.3002 13.7004 50.3002 12.6004 50.3002 10.8004V10.0004ZM60.2002 10.8004V10.9004C60.2002 12.4004 61.4002 13.6004 63.6002 13.6004C65.3002 13.6004 66.3002 13.1004 67.3002 12.2004L69.2002 13.9004C67.8002 15.2004 66.0002 15.9004 63.1002 15.9004C59.1002 15.9004 56.2002 13.5004 56.2002 10.4004V10.2004C56.2002 7.10039 58.9002 4.50039 63.0002 4.50039C67.2002 4.50039 69.5002 7.00039 69.5002 10.1004V10.6004H60.2002V10.8004ZM65.9002 9.40039C65.9002 8.30039 64.8002 7.10039 63.0002 7.10039C61.2002 7.10039 60.2002 8.20039 60.2002 9.40039H65.9002ZM76.3002 10.1004V15.8004H72.3002V4.90039H75.8002L75.9002 7.60039C76.8002 5.20039 78.4002 4.40039 81.3002 4.90039L81.1002 8.30039C77.8002 7.50039 76.3002 8.70039 76.3002 10.1004ZM83.6002 15.8004V4.90039H87.6002V15.8004H83.6002ZM83.7002 3.40039V0.900391H87.4002V3.40039H83.7002ZM97.3002 16.0004C93.3002 16.0004 90.4002 13.6004 90.4002 10.4004V10.1004C90.4002 6.90039 93.4002 4.60039 97.3002 4.60039C101.2 4.60039 104.2 6.90039 104.2 10.1004V10.4004C104.2 13.7004 101.2 16.0004 97.3002 16.0004ZM100.2 10.1004C100.2 8.40039 99.1002 7.10039 97.3002 7.10039C95.4002 7.10039 94.3002 8.40039 94.3002 10.1004V10.6004C94.3002 12.3004 95.3002 13.6004 97.3002 13.6004C99.2002 13.6004 100.2 12.3004 100.2 10.6004V10.1004ZM116 15.8004V9.20039C116 7.90039 115.4 7.10039 114 7.10039C112.4 7.10039 111 8.70039 111 10.4004V15.8004H107V4.90039H110.5L110.6 7.80039C112 5.60039 113.8 4.70039 116.1 4.70039C118.8 4.70039 120.1 6.40039 120.1 8.80039V15.9004H116V15.8004Z" fill="#FDFDFD"/>
</g>
<defs>
<clipPath id="clip0_8858_20974">
<rect width="120" height="30" fill="white"/>
</clipPath>
</defs>
</svg>
